M48
INCH
T01C0.0191
T02C0.0276
T03C0.0295
T04C0.0315
T05C0.0354
T06C0.0394
T07C0.0433
T08C0.126
T09C0.1378
%
T01
X+038770Y+003713
X+041263Y+007713
X+039234Y+009060
X+041573Y+012602
X+043546Y+013670
X+044422Y+014755
X+046431Y+012883
X+047061Y+013231
X+047061Y+015647
X+047533Y+016656
X+045539Y+017713
X+043687Y+017787
X+042860Y+017713
X+041497Y+016250
X+038573Y+018037
X+039648Y+019235
X+041497Y+021713
X+041451Y+022211
X+039995Y+024250
X+039995Y+025060
X+037921Y+022250
X+035339Y+023713
X+032881Y+021713
X+033644Y+019673
X+030149Y+020713
X+028458Y+022250
X+027717Y+023250
X+030676Y+023713
X+031921Y+023713
X+030149Y+025250
X+028863Y+028250
X+026137Y+027713
X+024300Y+026752
X+022377Y+026404
X+021485Y+026243
X+021137Y+025257
X+020724Y+024250
X+020442Y+021454
X+019573Y+019952
X+021485Y+018365
X+022725Y+019952
X+024107Y+021713
X+024455Y+022713
X+023563Y+024250
X+027717Y+019257
X+028458Y+017060
X+028610Y+015198
X+025110Y+015198
X+023593Y+015948
X+021137Y+016345
X+015159Y+017060
X+013573Y+016060
X+010110Y+016060
X+008167Y+017060
X+007110Y+015713
X+004920Y+016559
X+004573Y+011637
X+009110Y+012863
X+010225Y+010865
X+011573Y+010169
X+012974Y+010169
X+011920Y+012863
X+016805Y+010865
X+015920Y+008582
X+016302Y+006554
X+017302Y+003578
X+014302Y+003184
X+007573Y+006554
X+020790Y+010169
X+025789Y+008713
X+027092Y+009060
X+028610Y+008057
X+029960Y+007312
X+031651Y+002713
X+022955Y+003578
X+035573Y+011984
X+035651Y+015253
X+033992Y+015948
X+044110Y+022060
X+046083Y+023713
X+047110Y+022060
X+046431Y+025713
X+048676Y+028713
X+047167Y+029713
X+044367Y+029250
X+042724Y+030250
X+043375Y+031060
X+041676Y+031713
X+038936Y+030713
X+037573Y+032250
X+035300Y+033365
X+032662Y+032713
X+032314Y+032214
X+032239Y+030099
X+026548Y+033250
X+017110Y+025257
X+016573Y+025756
X+015573Y+023628
X+012110Y+025811
X+012458Y+020300
X+014071Y+034069
X+006107Y+036136
X+049573Y+034684
X+052193Y+032732
X+052237Y+030713
X+054396Y+034060
X+053096Y+035031
X+057357Y+033713
X+057554Y+031713
X+060093Y+030732
X+061110Y+020863
X+056314Y+021211
X+054593Y+017713
X+056314Y+015250
X+055573Y+012883
X+050110Y+011420
X+044770Y+010754
X+045918Y+007126
X+051593Y+021748
X+065940Y+016368
X+066463Y+011768
X+065789Y+007126
T02
X+032110Y+019250
X+032110Y+017250
X+035110Y+017250
X+035110Y+019250
X+044110Y+018250
X+044110Y+016250
X+047110Y+016250
X+047110Y+018250
X+047110Y+020250
X+044110Y+020250
X+061224Y+005530
X+061224Y+002530
X+066224Y+002530
X+066224Y+005530
X+068110Y+010250
X+068110Y+011250
X+068110Y+012250
X+068110Y+013250
T03
X+031610Y+013750
X+032110Y+014250
X+032610Y+013750
X+028610Y+013750
X+028110Y+014250
X+027610Y+013750
T04
X+020126Y+031250
X+021110Y+031250
X+018110Y+031250
X+017126Y+031250
X+014110Y+030250
X+013110Y+030250
X+012110Y+030250
X+011110Y+030250
X+010110Y+030250
X+009110Y+030250
X+008110Y+030250
X+007110Y+030250
X+007110Y+027250
X+008110Y+027250
X+009110Y+027250
X+010110Y+027250
X+011110Y+027250
X+012110Y+027250
X+013110Y+027250
X+014110Y+027250
X+014110Y+024250
X+013110Y+024250
X+012110Y+024250
X+011110Y+024250
X+010110Y+024250
X+009110Y+024250
X+008110Y+024250
X+007110Y+024250
X+004110Y+025266
X+004110Y+026250
X+007110Y+018250
X+008110Y+018250
X+009110Y+018250
X+010110Y+018250
X+011110Y+018250
X+012110Y+018250
X+013110Y+018250
X+014110Y+018250
X+015110Y+018250
X+016110Y+018250
X+017110Y+018250
X+018110Y+018250
X+019110Y+018250
X+020110Y+018250
X+018110Y+022250
X+017126Y+022250
X+017110Y+024250
X+018110Y+024250
X+019110Y+024250
X+020110Y+024250
X+020126Y+027250
X+021110Y+027250
X+018110Y+027250
X+017126Y+027250
X+016110Y+024250
X+015110Y+024250
X+015110Y+015250
X+014110Y+015250
X+013110Y+015250
X+012110Y+015250
X+011110Y+015250
X+010110Y+015250
X+009110Y+015250
X+009110Y+012250
X+010110Y+012250
X+011110Y+012250
X+012110Y+012250
X+013110Y+012250
X+014110Y+012250
X+015110Y+012250
X+013610Y+013750
X+012626Y+013750
X+003110Y+015250
X+002110Y+014250
X+001110Y+015250
X+001626Y+007250
X+002610Y+007250
X+025110Y+020250
X+025110Y+021250
X+025110Y+022250
X+025110Y+023250
X+025110Y+024250
X+025110Y+025250
X+025110Y+026250
X+025110Y+027250
X+025110Y+028250
X+025110Y+029250
X+025110Y+030250
X+025110Y+031250
X+025110Y+032250
X+025110Y+033250
X+025110Y+034250
X+025110Y+035250
X+024110Y+035250
X+023126Y+035250
X+031110Y+035250
X+031110Y+034250
X+031110Y+033250
X+031110Y+032250
X+031110Y+031250
X+031110Y+030250
X+031110Y+029250
X+031110Y+028250
X+031110Y+027250
X+031110Y+026250
X+031110Y+025250
X+031110Y+024250
X+031110Y+023250
X+031110Y+022250
X+031110Y+021250
X+031110Y+020250
X+036110Y+020250
X+036110Y+019250
X+036110Y+018250
X+036110Y+017250
X+036110Y+016250
X+036110Y+013754
X+037110Y+013754
X+038110Y+013754
X+039110Y+013754
X+040110Y+013754
X+041110Y+013754
X+042110Y+013754
X+040596Y+012254
X+039612Y+012254
X+040110Y+010754
X+039110Y+010754
X+038110Y+010754
X+037110Y+010754
X+036110Y+010754
X+035110Y+008250
X+035110Y+007250
X+035110Y+006250
X+035110Y+005250
X+035110Y+004250
X+035110Y+003250
X+035110Y+002250
X+038110Y+002250
X+038110Y+003250
X+038110Y+004250
X+038110Y+005250
X+038110Y+006250
X+038110Y+007250
X+038110Y+008250
X+040110Y+008250
X+040110Y+007250
X+040110Y+006250
X+040110Y+005250
X+040110Y+004250
X+040110Y+003250
X+040110Y+002250
X+043110Y+002250
X+043110Y+003250
X+043110Y+004250
X+043110Y+005250
X+043110Y+006250
X+043110Y+007250
X+043110Y+008250
X+041610Y+006742
X+041610Y+005758
X+036610Y+005758
X+036610Y+006742
X+041110Y+010754
X+042110Y+010754
X+042110Y+016250
X+042110Y+017250
X+042110Y+018250
X+042110Y+019250
X+042110Y+020250
X+042110Y+021250
X+042110Y+022250
X+042110Y+023250
X+042110Y+024250
X+042110Y+025250
X+042110Y+026250
X+042110Y+027250
X+042110Y+028250
X+042110Y+029250
X+042110Y+030250
X+042110Y+031250
X+042110Y+032250
X+042110Y+033250
X+042110Y+034250
X+042110Y+035250
X+036110Y+035250
X+036110Y+034250
X+036110Y+033250
X+036110Y+032250
X+036110Y+031250
X+036110Y+030250
X+036110Y+029250
X+036110Y+028250
X+036110Y+027250
X+036110Y+026250
X+036110Y+025250
X+036110Y+024250
X+036110Y+023250
X+036110Y+022250
X+036110Y+021250
X+044110Y+023250
X+044110Y+024234
X+049110Y+024250
X+049110Y+025250
X+049110Y+026250
X+049110Y+027250
X+049110Y+028250
X+049110Y+029250
X+049110Y+030250
X+049110Y+031250
X+049110Y+032250
X+049110Y+033250
X+049110Y+034250
X+049110Y+035250
X+054126Y+037250
X+055110Y+037250
X+055110Y+035250
X+055110Y+034250
X+055110Y+033250
X+055110Y+032250
X+055110Y+031250
X+055110Y+030250
X+055110Y+029250
X+055110Y+028250
X+055110Y+027250
X+055110Y+026250
X+055110Y+025250
X+055110Y+024250
X+055110Y+023250
X+055110Y+022250
X+055110Y+021250
X+055110Y+020250
X+055110Y+019250
X+055110Y+018250
X+055110Y+017250
X+055110Y+016250
X+059110Y+020250
X+060110Y+020250
X+061110Y+020250
X+062110Y+020250
X+063110Y+020250
X+064110Y+020250
X+065110Y+020250
X+066110Y+020250
X+067354Y+021254
X+067354Y+022238
X+066110Y+023250
X+065110Y+023250
X+064110Y+023250
X+063110Y+023250
X+062110Y+023250
X+061110Y+023250
X+060110Y+023250
X+059110Y+023250
X+059610Y+027250
X+059610Y+028250
X+059610Y+029250
X+059610Y+030250
X+059610Y+031250
X+059610Y+032250
X+049110Y+023250
X+049110Y+022250
X+049110Y+021250
X+049110Y+020250
X+049110Y+019250
X+049110Y+018250
X+049110Y+017250
X+049110Y+016250
X+070386Y+013077
X+071488Y+013077
X+071488Y+012250
X+071488Y+011226
X+071488Y+010400
X+070386Y+010400
X+029960Y+005500
X+029960Y+004516
T05
X+063224Y+002827
X+064224Y+002827
X+064224Y+005530
X+063224Y+005530
T06
X+047110Y+012250
X+048110Y+012250
X+049110Y+012250
X+050110Y+012250
X+051110Y+012250
X+052110Y+012250
X+053110Y+012250
X+054110Y+012250
X+054110Y+009250
X+053110Y+009250
X+052110Y+009250
X+051110Y+009250
X+050110Y+009250
X+049110Y+009250
X+048110Y+009250
X+047110Y+009250
X+047110Y+006250
X+048110Y+006250
X+049110Y+006250
X+050110Y+006250
X+051110Y+006250
X+052110Y+006250
X+053110Y+006250
X+054110Y+006250
X+058110Y+009250
X+059110Y+009250
X+060110Y+009250
X+061110Y+009250
X+062110Y+009250
X+063110Y+009250
X+063110Y+012250
X+062110Y+012250
X+061110Y+012250
X+060110Y+012250
X+059110Y+012250
X+058110Y+012250
X+058110Y+015250
X+059110Y+015250
X+061110Y+015250
X+062110Y+015250
X+064110Y+012250
X+065110Y+012250
X+073110Y+006250
X+074110Y+006250
X+074110Y+005250
X+073110Y+005250
X+025110Y+014250
X+024110Y+014250
X+023110Y+014250
X+020110Y+015250
X+019110Y+015250
X+019110Y+012250
X+020110Y+012250
X+020302Y+008000
X+019302Y+008000
X+018302Y+008000
X+017302Y+008000
X+016302Y+008000
X+015302Y+008000
X+014302Y+008000
X+013302Y+008000
X+012302Y+008000
X+011302Y+008000
X+011302Y+002000
X+012302Y+002000
X+013302Y+002000
X+014302Y+002000
X+015302Y+002000
X+016302Y+002000
X+017302Y+002000
X+018302Y+002000
X+019302Y+002000
X+020302Y+002000
X+021302Y+002000
X+022302Y+002000
X+023302Y+002000
X+024302Y+002000
X+024302Y+008000
X+023302Y+008000
X+022302Y+008000
X+021302Y+008000
X+002094Y+024108
X+002094Y+025108
X+001094Y+025108
X+001094Y+024108
X+001094Y+026108
X+001094Y+027108
X+001094Y+028108
X+002094Y+028108
X+002094Y+027108
X+002094Y+026108
X+002094Y+029108
X+001094Y+029108
X+001094Y+030108
X+001094Y+031108
X+001094Y+032108
X+002094Y+032108
X+002094Y+031108
X+002094Y+030108
X+009933Y+035083
X+011024Y+035083
X+012114Y+035083
X+013205Y+035083
X+014295Y+035083
X+013750Y+036201
X+012659Y+036201
X+011569Y+036201
X+010478Y+036201
T07
X+068224Y+002970
X+069996Y+002970
X+069996Y+005530
X+068224Y+005530
X+059224Y+005530
X+057453Y+005530
X+057453Y+002970
X+059224Y+002970
X+004110Y+004250
X+003110Y+004250
X+002110Y+004250
T08
X+017035Y+035201
X+007193Y+035201
T09
X+001488Y+001392
X+001488Y+018368
X+001488Y+036872
X+073535Y+036872
X+073535Y+018368
X+073535Y+001372
T00
M30
