%TF.GenerationSoftware,Novarm,DipTrace,4.3.0.4*%
%TF.CreationDate,2023-04-03T14:28:54+01:00*%
%FSLAX26Y26*%
%MOIN*%
%TF.FileFunction,Copper,L1,Top*%
%TF.Part,Single*%
%TA.AperFunction,Conductor*%
%ADD13C,0.009843*%
%TA.AperFunction,ComponentPad*%
%ADD16R,0.062992X0.062992*%
%ADD17C,0.062992*%
%ADD18C,0.062992*%
%ADD19R,0.066929X0.066929*%
%ADD20C,0.066929*%
%ADD21C,0.07874*%
%ADD22R,0.051181X0.051181*%
%ADD23C,0.051181*%
%ADD24C,0.066929*%
%ADD25C,0.055118*%
%ADD26C,0.055118*%
%ADD27R,0.056693X0.07874*%
%ADD28O,0.056693X0.07874*%
%ADD29C,0.15748*%
%ADD30O,0.137795X0.07874*%
%ADD31O,0.07874X0.15748*%
%ADD32R,0.07874X0.181102*%
%ADD33O,0.07874X0.165354*%
%ADD34O,0.165354X0.07874*%
%ADD35R,0.075X0.07874*%
%ADD36O,0.075X0.07874*%
%ADD37C,0.19685*%
%ADD38R,0.070866X0.070866*%
%ADD39C,0.070866*%
%ADD40C,0.056693*%
%TA.AperFunction,ViaPad*%
%ADD41C,0.04*%
G75*
G01*
%LPD*%
X2430217Y200000D2*
D13*
X2744390D1*
X2995965Y451575D1*
X4311024Y825000D2*
X4161024Y674213D1*
X1712598Y2225000D2*
X1111024D1*
X711024Y1825000D1*
X1511024Y1225000D2*
X1361024Y1375000D1*
X411024Y2625000D2*
X223622D1*
X209449Y2610827D1*
X6735433Y2223819D2*
X6012205D1*
X5911024Y2325000D1*
X2411024Y3525000D2*
X2511024D1*
X4211024Y2325000D2*
X4411024D1*
X3961220Y1225394D2*
X3761024D1*
X3611024Y1375394D1*
X3811024Y825000D2*
X3661024Y674213D1*
X5511024Y3725000D2*
Y3525000D1*
X2995965Y451575D2*
X3076278Y371261D1*
X3876969D1*
X1712598Y2225000D2*
X1857284Y2369685D1*
Y2371260D1*
X1911024Y2425000D1*
X6811024Y1125000D2*
X7063780D1*
X7148819Y1039961D1*
X111024Y1525000D2*
X157285Y1571261D1*
X711024D1*
X2811024Y1425000D2*
X3211024D1*
X5961024Y3125000D2*
X5900291D1*
X5846553Y3071261D1*
X5223693D1*
X6811024Y1225000D2*
X6762794Y1273229D1*
X6459253D1*
X6411024Y1225000D1*
X4711024Y2206025D2*
X4411024D1*
X3876969Y371261D2*
Y654525D1*
X3896656Y674213D1*
X4161024D1*
X711024Y1571261D2*
X1341334D1*
X1361024Y1551572D1*
Y1375000D1*
X3211024Y1425000D2*
X3561417D1*
X3611024Y1375394D1*
X6411024Y1225000D2*
X6362793Y1176769D1*
X5959254D1*
X5911024Y1225000D1*
X3111024Y3525000D2*
X2511024D1*
X162598Y725000D2*
X408465Y970866D1*
Y1005312D1*
X428152Y1025000D1*
X559055D1*
X1069881D1*
X1121652Y973229D1*
X6962794D1*
X7311024Y625000D1*
X811024Y2425000D2*
X873227Y2362796D1*
X1557284D1*
X4553894Y1771261D2*
X4857285D1*
X4911024Y1825000D1*
X4211024Y2425000D2*
X3999528Y2425001D1*
X2511024Y2425000D2*
X2557285Y2471261D1*
X3865976D1*
X3900740Y2506025D1*
X3999528D1*
X1557284Y2362796D2*
Y2451576D1*
X1576969Y2471261D1*
X2404767D1*
X2451028Y2425000D1*
X2511024D1*
X1730217Y357788D2*
X2295453D1*
X4211024Y3425000D2*
X4264762Y3371261D1*
X5735709D1*
X3111024Y2825000D2*
X2886299Y2825001D1*
X2511024Y3225000D2*
X2600351Y3314327D1*
Y3351576D1*
X2620036Y3371261D1*
X3557285D1*
X3611024Y3425000D1*
X3565079Y1525316D2*
X3580162Y1510233D1*
X5181378D1*
X5201063Y1529918D1*
Y1851576D1*
X5220748Y1871261D1*
X6057285D1*
X6211024Y2025000D1*
X3611024Y3325000D2*
X3587757Y3301733D1*
X3436694D1*
X3432406Y3306021D1*
X3251106D1*
X3231421Y3286336D1*
Y3221414D1*
X3811024Y425000D2*
X3511024D1*
X2654799Y3325001D2*
X2708539Y3271261D1*
X3124670D1*
X3189906Y3336497D1*
X3530000D1*
X3611024Y3225000D2*
X3757288Y3224997D1*
X3511024Y425000D2*
X3461815D1*
X3388979Y497836D1*
X2349902D1*
X2330217Y478151D1*
Y200000D1*
X1630217Y655395D2*
X757284D1*
X4145083Y2221103D2*
X3940866D1*
X3891024Y2171261D1*
X3288110D1*
X4911024Y1925000D2*
X4572574D1*
X4426316Y1778741D1*
X4368701D1*
X2511024Y2525000D2*
X2464763D1*
X2430710Y2490946D1*
X776970D1*
X711024Y2425000D1*
X3014882Y2525001D2*
X2511024Y2525000D1*
X4211024Y2625000D2*
X4029833D1*
X3995780Y2590946D1*
X3705197D1*
X3685512Y2571261D1*
X2623527D1*
X2569788Y2625000D1*
X2511024D1*
X2461576Y2575552D1*
X1657284D1*
X2511024Y2725000D2*
X2564762Y2671261D1*
X3812500D1*
X3832185Y2690946D1*
X4128051D1*
X4162104Y2725000D1*
X4211024D1*
X4706103Y1323072D2*
X4939567D1*
X4959252Y1303387D1*
Y1193773D1*
X5011020Y1142005D1*
X4753347Y1665591D2*
Y1564682D1*
X4706103D1*
X4211024Y2825000D2*
X3915035D1*
X3861297Y2771261D1*
X2613701D1*
X2564762D1*
X2511024Y2825000D1*
X4867650Y2871261D2*
X4436740D1*
Y2925001D1*
X2430000Y2675154D2*
Y2843976D1*
X2511024Y2925000D1*
X2564762Y2871261D1*
X3724126D1*
X3743811Y2890946D1*
X4107992D1*
X4142045Y2925000D1*
X4211024D1*
X4272362Y3025001D2*
X4662929D1*
X4716669Y2971261D1*
X2237717Y2640391D2*
Y2751693D1*
X2511024Y3025000D1*
X2564762Y2971261D1*
X4031303D1*
X4085041Y3025000D1*
X4211024D1*
X2230217Y800000D2*
Y851576D1*
X2249902Y871261D1*
X2578937D1*
X2511024Y3125000D2*
X2557285Y3171261D1*
X4008658D1*
X4054919Y3125000D1*
X4211024D1*
X2578937Y871261D2*
X5357285D1*
X5411024Y925000D1*
X4167650Y3171261D2*
X5755394D1*
X4211024Y3225000D2*
X4164766Y3271257D1*
X3266185D1*
X4337484Y3106025D2*
X4806197D1*
X4840961Y3071261D1*
X5099117D1*
X5118802Y3051576D1*
Y2490947D1*
X5138488Y2471261D1*
X5557284D1*
X5576969Y2451576D1*
Y2090946D1*
X5596654Y2071261D1*
X5964762D1*
X6011024Y2025000D1*
X3223925Y3009922D2*
X3285264Y3071261D1*
X3893626D1*
X6111024Y2086340D2*
X6337602D1*
X6357288Y2066654D1*
Y1377521D1*
X6337603Y1357836D1*
X4595581D1*
X4575896Y1338151D1*
Y1036617D1*
X4556209Y1016930D1*
X2078977D1*
X2511024Y1425000D2*
X2602219D1*
X2642575Y1465355D1*
X4121062D1*
X4211024Y1375394D1*
X5961024Y2725000D2*
X6009252Y2773228D1*
Y2853544D1*
X5989567Y2873229D1*
X5559253D1*
X5511024Y2825000D1*
X2511024Y2325000D2*
X2299841D1*
X2078977Y2104135D1*
X1076969D1*
X1057284Y2084450D1*
Y1871260D1*
X1011024Y1825000D1*
X2410744Y2171261D2*
X3157288D1*
X3176973Y2190946D1*
Y2305313D1*
X3196659Y2325000D1*
X3611024D1*
X1011024Y1606025D2*
X1357284D1*
X4608343Y2371261D2*
X4654604Y2325000D1*
X4911024D1*
X3611024D2*
X3657285Y2371261D1*
X4608343D1*
X4911024Y2425000D2*
X4864762Y2471261D1*
X3950756D1*
X3904494Y2425000D1*
X3611024D1*
X2511024Y2225000D2*
X2291878D1*
X2151329Y2084450D1*
X1130708D1*
X1111024Y2064766D1*
Y1825000D1*
X3611024Y2425000D2*
X3176972D1*
X3157288Y2405315D1*
Y2290946D1*
X3137603Y2271261D1*
X2813801D1*
X2767539Y2225000D1*
X2511024D1*
Y2125000D2*
X2422735D1*
X2362501Y2064765D1*
X1230708D1*
X1211024Y2045081D1*
Y1825000D1*
X3611024Y2525000D2*
X3795460D1*
X3841722Y2571261D1*
X4643106D1*
X1157284Y1016930D2*
X1297362D1*
X4643106Y1288308D2*
X4847715D1*
X4911024Y1225000D1*
X3067650Y2371261D2*
X2737162D1*
X2637162Y2271261D1*
X2445508D1*
X3533929Y2371261D2*
X3192051D1*
X4643106Y2571261D2*
X4689367Y2525000D1*
X4911024D1*
X3111024Y2025000D2*
X3046497Y1960473D1*
X1446497D1*
X1311024Y1825000D1*
X4911024Y2625000D2*
X4864762Y2671261D1*
X3938303D1*
X3892041Y2625000D1*
X3611024D1*
X3111024Y2125000D2*
X3157288Y2078736D1*
Y1910631D1*
X3137603Y1890946D1*
X1676969D1*
X1657284Y1871261D1*
Y1790950D1*
X1637599Y1771265D1*
X1464758D1*
X1411024Y1825000D1*
X4911024Y2725000D2*
X4864762Y2771261D1*
X4102339D1*
X4056077Y2725000D1*
X3611024D1*
X4911024Y2825000D2*
X4418150D1*
X4371889Y2871261D1*
X3801225D1*
X3754963Y2825000D1*
X3611024D1*
X3111024Y2225000D2*
X2845788Y2224997D1*
X1515945Y1706025D2*
X816717D1*
X2845788D2*
X1515945D1*
X1430217Y318414D2*
X1684666Y572863D1*
Y684308D1*
X1664981Y703993D1*
X1095768D1*
X1076083Y723678D1*
Y838505D1*
X1095768Y858190D1*
X1592043D1*
X4911024Y2925000D2*
X4624134D1*
X4577873Y2971261D1*
X4128469D1*
X4082207Y2925000D1*
X3611024D1*
X3111024Y2325000D2*
X2771662Y2324997D1*
X1611024Y1825000D2*
Y1906025D1*
X1630709Y1925710D1*
X2771662D1*
X4911024Y3025000D2*
X4779173D1*
X4732912Y3071261D1*
X4012543D1*
X3966281Y3025000D1*
X3611024D1*
X1022520Y1086458D2*
X1680543D1*
X3111024Y2425000D2*
X2674656D1*
X2620918Y2371261D1*
X2063898D1*
X2044213Y2351576D1*
Y2145395D1*
X4211024Y1075394D2*
X4061024Y1225394D1*
X4059646D1*
X1811024Y2225000D2*
X1809449D1*
X2009449Y2425000D1*
X2011024D1*
X2430217Y800000D2*
X2745965D1*
X2995965Y550000D1*
X1262598Y1375000D2*
X1061024D1*
X911024Y1525000D1*
X6735433Y2125394D2*
X6635039Y2025000D1*
X6611024D1*
X411024Y2526575D2*
X379528Y2558071D1*
X162205D1*
X109449Y2610827D1*
X411024Y2526575D2*
X1291337D1*
X1311024Y2546261D1*
Y2725000D1*
X3611024Y3525000D2*
X3545077Y3590946D1*
X2378545D1*
X2312598Y3525000D1*
X4161024Y575787D2*
X4661811D1*
X4711024Y625000D1*
X5811024Y1225000D2*
X5894010Y1142013D1*
X6428037D1*
X6511024Y1225000D1*
X3661024Y575787D2*
X3343440D1*
X3317652Y550000D1*
X2995965D1*
X5922441Y297047D2*
X6225690D1*
X6240060Y282677D1*
X6322441D1*
X2072362Y2425001D2*
X2356295D1*
X6999606Y552953D2*
X6945471Y607088D1*
X6376577D1*
X6322441Y552953D1*
X911024Y1525000D2*
X825393D1*
X311024D1*
X2995965Y731178D2*
X2921402Y805741D1*
X2861024D1*
Y1375000D2*
X2921065Y1314958D1*
X3200982D1*
X3261024Y1375000D1*
X2511024Y1519804D2*
X2861024D1*
X4211024Y1075394D2*
X4476969Y1075395D1*
X911024Y1825000D2*
X811024D1*
X1407126Y3406875D2*
X1094686D1*
X993307Y3508255D1*
X2312598Y3525000D2*
X2194474Y3406875D1*
X1407126D1*
X4711024Y625000D2*
Y673229D1*
X4730709Y692914D1*
X5782479D1*
X5922441Y552953D1*
X6646268Y1176773D2*
X7195079D1*
Y1276181D1*
X7163583Y1307677D1*
X7148819D1*
X6511024Y1225000D2*
X6598041D1*
X6646268Y1176773D1*
X6211024Y2325000D2*
X6265943Y2270080D1*
X6762008D1*
X6781693Y2250395D1*
Y1656533D1*
X6762007Y1636847D1*
X6594016D1*
X457284Y1163662D2*
X3987796D1*
X4007481Y1183347D1*
Y1275237D1*
X4027166Y1294922D1*
X4278650D1*
X4298335Y1314607D1*
Y1401812D1*
X4318020Y1421497D1*
X5400236D1*
X5419921Y1441182D1*
Y1633897D1*
X5511024Y1725000D1*
X4957284Y3468375D2*
Y3646643D1*
X4937599Y3666328D1*
X663469D1*
X610713Y3613572D1*
X492047Y1655867D2*
X1437599D1*
X1457284Y1636182D1*
Y1476769D1*
X2162079D1*
X2245390Y1560080D1*
X3584759D1*
X3614921Y1529918D1*
X4998096D1*
X5017781Y1549603D1*
Y1905312D1*
X5037468Y1925000D1*
X5511024D1*
X3364418Y1967324D2*
X3468355Y2071261D1*
X5464762D1*
X5511024Y2025000D1*
X1245788Y2030001D2*
X2411358D1*
X2452618Y2071261D1*
X3014882D1*
X5309614Y3503139D2*
Y3705698D1*
X5289929Y3725383D1*
X496891D1*
X477206Y3705698D1*
Y2878742D1*
X457520Y2859056D1*
X157678D1*
X109449Y2810827D1*
X5511024Y2225000D2*
X5464762Y2271261D1*
X3273032D1*
X3253347Y2251576D1*
Y1890946D1*
X3233662Y1871261D1*
X1776969D1*
X1757284Y1851576D1*
Y1760473D1*
X1737599Y1740788D1*
X281693D1*
X262008Y1760473D1*
Y2439371D1*
X242323Y2459056D1*
X161219D1*
X109449Y2510827D1*
X2148504Y1836497D2*
X3361949D1*
X3496713Y1971261D1*
X5537599D1*
X5557284Y1990946D1*
Y2378740D1*
X5511024Y2425000D1*
X2148504Y2624288D2*
X1376969D1*
X1357284Y2643973D1*
Y2751576D1*
X1337599Y2771261D1*
X286410D1*
X274205Y2759056D1*
X157678D1*
X109449Y2710827D1*
X5439606Y3406025D2*
X5258642D1*
X5238957Y3425710D1*
Y3666328D1*
X5219272Y3686013D1*
X546295D1*
X526610Y3666328D1*
Y2830511D1*
X506925Y2810827D1*
X209449D1*
X5961024Y3025000D2*
X5909253Y2973229D1*
X5445079D1*
X5425394Y2953544D1*
Y2544686D1*
X5445080Y2525000D1*
X5511024D1*
X5961024Y2925000D2*
X6028937D1*
X6048622Y2905315D1*
Y2644686D1*
X6028935Y2625000D1*
X5511024D1*
X911024Y1286340D2*
X1192047D1*
X711024Y2725000D2*
X854928Y2581095D1*
X1211024D1*
X4411024Y1625000D2*
X4311024Y1725000D1*
X4211024D1*
X6422441Y552953D2*
X6368309Y498820D1*
X6176573D1*
X6122441Y552953D1*
X6422441Y282677D2*
X6273256Y431862D1*
X5278937D1*
X5259252Y451547D1*
Y653544D1*
X5239567Y673229D1*
X4778937D1*
X4759252Y653544D1*
Y544686D1*
X4739565Y525000D1*
X4311024D1*
X4126260Y771261D2*
X3876969D1*
X3857284Y751576D1*
Y571260D1*
X3811024Y525000D1*
X4157288Y1260158D2*
X4419161D1*
X4536524Y1377521D1*
X6291339D1*
X6311024Y1397206D1*
Y2025000D1*
X5557284Y1288308D2*
X6147715D1*
X6211024Y1225000D1*
X5631418Y2121103D2*
X5705552Y2195237D1*
X6437603D1*
X6457288Y2175552D1*
Y1371264D1*
X6311024Y1225000D1*
X5911024Y1525000D2*
X5978938Y1592914D1*
X6143109D1*
X6211024Y1525000D1*
X4591811Y712599D2*
X6578937D1*
X3811024Y325000D2*
X3511024D1*
X1411024Y3025000D2*
X2137598D1*
X2157284Y3005314D1*
Y2698422D1*
X2137599Y2678737D1*
X2058861D1*
X2012598Y2725000D1*
X1211024Y3025000D2*
X1284947Y2951076D1*
X1884947D1*
X2111024Y2725000D1*
X1111024Y3025000D2*
X1257285Y3171261D1*
X1966337D1*
X2012598Y3125000D1*
X1011024Y3025000D2*
X1196655Y3210631D1*
X2025392D1*
X2111024Y3125000D1*
X1311024Y3025000D2*
X1411024Y3125000D1*
X1712598D1*
X911024Y3025000D2*
X1098001Y2838022D1*
X1698001D1*
X1811024Y2725000D1*
X7038583Y1307677D2*
Y3305316D1*
X7018898Y3325000D1*
X5511024D1*
X7148819Y1225000D2*
X7002905D1*
X6902905Y1325000D1*
X6811024D1*
Y2551577D1*
X6791339Y2571261D1*
X5484449D1*
X5464764Y2590946D1*
Y2878740D1*
X5511024Y2925000D1*
X3811024Y225000D2*
X3654521Y68497D1*
X1698925D1*
X1630217Y137206D1*
Y200000D1*
X3857288Y1803662D2*
X3789976D1*
X3757575Y1771261D1*
X2064762D1*
X2011024Y1825000D1*
X4311024Y425000D2*
X4711024D1*
X4911024Y625000D1*
X3611024Y2225000D2*
X3792051Y2225001D1*
X5961024Y2825000D2*
X5663460D1*
X5563460Y2725000D1*
X5511024D1*
X3557284Y1198426D2*
X2937597D1*
X2761024Y1375000D1*
X2361024D1*
X2311024Y1425000D1*
X5219268Y3273229D2*
X6009252D1*
Y3073229D1*
X5631418Y1525001D2*
Y1751575D1*
X5611732Y1771261D1*
X5459252D1*
X4411024Y1825000D2*
X4311024Y1925000D1*
X4211024D1*
X4442205Y1475469D2*
X4346067D1*
X4336496Y1485040D1*
X2223421D1*
X2093697Y1355316D1*
X2041340D1*
X1911024Y1225000D1*
X5459252Y1771261D2*
X5385158Y1697167D1*
Y1613808D1*
X5246819Y1475469D1*
X4442205D1*
X4286024Y1771261D2*
X4041138D1*
X3941138Y1671261D1*
X2057285D1*
X1911024Y1525000D1*
X4354638Y1367048D2*
X4389402Y1401812D1*
X5987836D1*
X6111024Y1525000D1*
X4311024Y225000D2*
X4264762Y271261D1*
X3165114D1*
Y221418D1*
X3062193Y118497D1*
X1830217D1*
Y200000D1*
X5411024Y625000D2*
X5556888Y479135D1*
X6548624D1*
X6622441Y552953D1*
X2113740Y1634528D2*
X3540319D1*
X3549847Y1625000D1*
X3611024D1*
X5159252Y2174836D2*
X5109088Y2225000D1*
X4911024D1*
X1711024Y2525710D2*
X2113740D1*
X6622441Y552953D2*
X6822441D1*
X3611024Y1625000D2*
X4149685Y1624997D1*
X4911024Y2225000D2*
X4857285Y2171261D1*
X4149685D1*
X4011024Y325000D2*
X3964764Y371260D1*
Y451576D1*
X3984449Y471261D1*
X4157288D1*
X4257288Y371261D1*
X4857285D1*
X5111024Y625000D1*
X3923441Y906025D2*
X2709248D1*
X4011024Y425000D2*
X4064992D1*
X4164992Y325000D1*
X4311024D1*
X3611024Y1925000D2*
X3963277D1*
X3964764Y1923513D1*
X2272481Y1995237D2*
X1957284D1*
X2359252Y1594843D2*
X3399177D1*
X4311024Y325000D2*
X4911024D1*
X5211024Y625000D1*
D41*
X3876969Y371261D3*
X711024Y1571261D3*
X5223693Y3071261D3*
X4411024Y2206025D3*
X4711024D3*
X1557284Y2362796D3*
X4553894Y1771261D3*
X3999528Y2506025D3*
Y2425001D3*
X2295453Y357788D3*
X1730217D3*
X5735709Y3371261D3*
X2886299Y2825001D3*
X3231421Y3221414D3*
X3565079Y1525316D3*
X3530000Y3336497D3*
X2654799Y3325001D3*
X3757288Y3224997D3*
X757284Y655395D3*
X1630217D3*
X3288110Y2171261D3*
X3014882Y2525001D3*
X4368701Y1778741D3*
X4145083Y2221103D3*
X1657284Y2575552D3*
X5011020Y1142005D3*
X4706103Y1323072D3*
Y1564682D3*
X4753347Y1665591D3*
X2613701Y2771261D3*
X4867650Y2871261D3*
X4436740Y2925001D3*
X2430000Y2675154D3*
X4716669Y2971261D3*
X4272362Y3025001D3*
X2237717Y2640391D3*
X2578937Y871261D3*
X5755394Y3171261D3*
X4167650D3*
X3266185Y3271257D3*
X4337484Y3106025D3*
X3893626Y3071261D3*
X3223925Y3009922D3*
X2078977Y1016930D3*
X6111024Y2086340D3*
X2410744Y2171261D3*
X1357284Y1606025D3*
X1011024D3*
X4608343Y2371261D3*
X1297362Y1016930D3*
X1157284D3*
X4643106Y1288308D3*
Y2571261D3*
X2445508Y2271261D3*
X3067650Y2371261D3*
X3192051D3*
X3533929D3*
X816717Y1706025D3*
X2845788Y2224997D3*
Y1706025D3*
X1515945D3*
X1592043Y858190D3*
X1430217Y318414D3*
X2771662Y2324997D3*
Y1925710D3*
X1680543Y1086458D3*
X1022520D3*
X2044213Y2145395D3*
X2356295Y2425001D3*
X2072362D3*
X1407126Y3406875D3*
X2861024Y805741D3*
X2995965Y731178D3*
X2861024Y1519804D3*
X2511024D3*
X4476969Y1075395D3*
X6646268Y1176773D3*
X6594016Y1636847D3*
X457284Y1163662D3*
X610713Y3613572D3*
X4957284Y3468375D3*
X492047Y1655867D3*
X3364418Y1967324D3*
X3014882Y2071261D3*
X1245788Y2030001D3*
X5309614Y3503139D3*
X2148504Y1836497D3*
Y2624288D3*
X5439606Y3406025D3*
X1192047Y1286340D3*
X911024D3*
X1211024Y2581095D3*
X4126260Y771261D3*
X4157288Y1260158D3*
X5557284Y1288308D3*
X5631418Y2121103D3*
X6578937Y712599D3*
X4591811D3*
X3857288Y1803662D3*
X3792051Y2225001D3*
X3557284Y1198426D3*
X6009252Y3073229D3*
X5219268Y3273229D3*
X5459252Y1771261D3*
X5631418Y1525001D3*
X4442205Y1475469D3*
X4286024Y1771261D3*
X4354638Y1367048D3*
X3165114Y271261D3*
X4149685Y1624997D3*
Y2171261D3*
X5159252Y2174836D3*
X2113740Y1634528D3*
Y2525710D3*
X1711024D3*
X2709248Y906025D3*
X3923441D3*
X3964764Y1923513D3*
X1957284Y1995237D3*
X2272481D3*
X3399177Y1594843D3*
X2359252D3*
D16*
X2012598Y3125000D3*
D17*
X2111024D3*
D16*
X1511024Y1525000D3*
D18*
X1411024D3*
X1311024D3*
X1211024D3*
X1111024D3*
X1011024D3*
X911024D3*
Y1225000D3*
X1011024D3*
X1111024D3*
X1211024D3*
X1311024D3*
X1411024D3*
X1511024D3*
D16*
X2511024Y3525000D3*
D18*
Y3425000D3*
Y3325000D3*
Y3225000D3*
Y3125000D3*
Y3025000D3*
Y2925000D3*
Y2825000D3*
Y2725000D3*
Y2625000D3*
Y2525000D3*
Y2425000D3*
Y2325000D3*
Y2225000D3*
Y2125000D3*
Y2025000D3*
X3111024D3*
Y2125000D3*
Y2225000D3*
Y2325000D3*
Y2425000D3*
Y2525000D3*
Y2625000D3*
Y2725000D3*
Y2825000D3*
Y2925000D3*
Y3025000D3*
Y3125000D3*
Y3225000D3*
Y3325000D3*
Y3425000D3*
Y3525000D3*
D16*
X5511024Y1625000D3*
D18*
Y1725000D3*
Y1825000D3*
Y1925000D3*
Y2025000D3*
Y2125000D3*
Y2225000D3*
Y2325000D3*
Y2425000D3*
Y2525000D3*
Y2625000D3*
Y2725000D3*
Y2825000D3*
Y2925000D3*
Y3025000D3*
Y3125000D3*
Y3225000D3*
Y3325000D3*
Y3425000D3*
Y3525000D3*
X4911024D3*
Y3425000D3*
Y3325000D3*
Y3225000D3*
Y3125000D3*
Y3025000D3*
Y2925000D3*
Y2825000D3*
Y2725000D3*
Y2625000D3*
Y2525000D3*
Y2425000D3*
Y2325000D3*
Y2225000D3*
Y2125000D3*
Y2025000D3*
Y1925000D3*
Y1825000D3*
Y1725000D3*
Y1625000D3*
D19*
X4711024Y1225000D3*
D20*
X4811024D3*
X4911024D3*
X5011024D3*
X5111024D3*
X5211024D3*
X5311024D3*
X5411024D3*
D21*
X6822441Y297047D3*
Y552953D3*
X6999606Y297047D3*
Y552953D3*
D17*
X3661024Y674213D3*
Y575787D3*
D19*
X7411024Y525000D3*
D20*
X7311024D3*
X7411024Y625000D3*
X7311024D3*
D22*
X3161024Y1375000D3*
D23*
X3211024Y1425000D3*
X3261024Y1375000D3*
D17*
X6735433Y2125394D3*
Y2223819D3*
D19*
X5961024Y3225000D3*
D24*
Y3125000D3*
Y3025000D3*
Y2925000D3*
Y2825000D3*
Y2725000D3*
D19*
X5811024Y925000D3*
D20*
X5911024D3*
X6011024D3*
X6111024D3*
X6211024D3*
X6311024D3*
D19*
X4711024Y625000D3*
D20*
X4811024D3*
X4911024D3*
X5011024D3*
X5111024D3*
X5211024D3*
X5311024D3*
X5411024D3*
D16*
X4011024Y825000D3*
D18*
Y725000D3*
Y625000D3*
Y525000D3*
Y425000D3*
Y325000D3*
Y225000D3*
X4311024D3*
Y325000D3*
Y425000D3*
Y525000D3*
Y625000D3*
Y725000D3*
Y825000D3*
D16*
X4211024Y1625000D3*
D18*
Y1725000D3*
Y1825000D3*
Y1925000D3*
Y2025000D3*
Y2125000D3*
Y2225000D3*
Y2325000D3*
Y2425000D3*
Y2525000D3*
Y2625000D3*
Y2725000D3*
Y2825000D3*
Y2925000D3*
Y3025000D3*
Y3125000D3*
Y3225000D3*
Y3325000D3*
Y3425000D3*
Y3525000D3*
X3611024D3*
Y3425000D3*
Y3325000D3*
Y3225000D3*
Y3125000D3*
Y3025000D3*
Y2925000D3*
Y2825000D3*
Y2725000D3*
Y2625000D3*
Y2525000D3*
Y2425000D3*
Y2325000D3*
Y2225000D3*
Y2125000D3*
Y2025000D3*
Y1925000D3*
Y1825000D3*
Y1725000D3*
Y1625000D3*
D25*
X3211024Y1925000D3*
D26*
X3511024D3*
D19*
X6111024Y1525000D3*
D20*
X6211024D3*
D17*
X2411024Y3525000D3*
X2312598D3*
D25*
X6622441Y552953D3*
D26*
Y252953D3*
D25*
X6811024Y1025000D3*
D26*
Y1125000D3*
D27*
X2430217Y800000D3*
D28*
X2330217D3*
X2230217D3*
X2130217D3*
X2030217D3*
X1930217D3*
X1830217D3*
X1730217D3*
X1630217D3*
X1530217D3*
X1430217D3*
X1330217D3*
X1230217D3*
X1130217D3*
Y200000D3*
X1230217D3*
X1330217D3*
X1430217D3*
X1530217D3*
X1630217D3*
X1730217D3*
X1830217D3*
X1930217D3*
X2030217D3*
X2130217D3*
X2230217D3*
X2330217D3*
X2430217D3*
D17*
X411024Y2625000D3*
Y2526575D3*
D29*
X1703543Y3520066D3*
X719291D3*
D16*
X1429528Y3508255D3*
D17*
X1320472D3*
X1211417D3*
X1102362D3*
X993307D3*
X1375000Y3620066D3*
X1265945D3*
X1156890D3*
X1047835D3*
D16*
X3611024Y1075394D3*
D18*
X3711024D3*
X3811024D3*
X3911024D3*
X4011024D3*
X4111024D3*
X4211024D3*
Y1375394D3*
X4111024D3*
X4011024D3*
X3911024D3*
X3811024D3*
X3711024D3*
X3611024D3*
D16*
X7148819Y1225000D3*
D17*
Y1122638D3*
Y1307677D3*
Y1039961D3*
X7038583Y1307677D3*
Y1039961D3*
D30*
X7261024Y904134D3*
D31*
X7292520Y1173819D3*
D30*
X7261024Y1443504D3*
D16*
X2012598Y2725000D3*
D17*
X2111024D3*
D19*
X2311024Y1425000D3*
D20*
X2411024D3*
X2511024D3*
D25*
X6811024Y1325000D3*
D26*
Y1225000D3*
D21*
X5745276Y297047D3*
Y552953D3*
X5922441Y297047D3*
Y552953D3*
D17*
X4161024Y674213D3*
Y575787D3*
X1712598Y2225000D3*
X1811024D3*
D19*
X4711024Y925000D3*
D20*
X4811024D3*
X4911024D3*
X5011024D3*
X5111024D3*
X5211024D3*
X5311024D3*
X5411024D3*
D17*
X1262598Y1375000D3*
X1361024D3*
D16*
X3511024Y825000D3*
D18*
Y725000D3*
Y625000D3*
Y525000D3*
Y425000D3*
Y325000D3*
Y225000D3*
X3811024D3*
Y325000D3*
Y425000D3*
Y525000D3*
Y625000D3*
Y725000D3*
Y825000D3*
D32*
X559055Y1025000D3*
D33*
X311024D3*
D34*
X444882Y836024D3*
D16*
X1712598Y2725000D3*
D17*
X1811024D3*
D35*
X211024Y425000D3*
D36*
X311024D3*
X411024D3*
D16*
X1712598Y3125000D3*
D17*
X1811024D3*
D19*
X1911024Y1525000D3*
D20*
X2011024D3*
D37*
X148819Y139173D3*
D19*
X5811024Y1525000D3*
D20*
X5911024D3*
D25*
X6122441Y252953D3*
D26*
Y552953D3*
D19*
X1911024Y1225000D3*
D20*
X2011024D3*
D25*
X4711024Y1625000D3*
D26*
X4411024D3*
D25*
X4711024Y1825000D3*
D26*
X4411024D3*
D17*
X162598Y725000D3*
X261024D3*
X2995965Y550000D3*
Y451575D3*
D16*
X5911024Y2025000D3*
D18*
X6011024D3*
X6111024D3*
X6211024D3*
X6311024D3*
X6411024D3*
X6511024D3*
X6611024D3*
Y2325000D3*
X6511024D3*
X6411024D3*
X6311024D3*
X6211024D3*
X6111024D3*
X6011024D3*
X5911024D3*
D37*
X148819Y3687205D3*
Y1836811D3*
X7353543Y3687205D3*
Y1836811D3*
D24*
X109449Y3210827D3*
X209449D3*
X109449Y3110827D3*
X209449D3*
X109449Y3010827D3*
X209449D3*
X109449Y2910827D3*
X209449D3*
X109449Y2810827D3*
X209449D3*
X109449Y2710827D3*
X209449D3*
X109449Y2610827D3*
X209449D3*
X109449Y2510827D3*
X209449D3*
X109449Y2410827D3*
X209449D3*
D38*
X6322441Y282677D3*
D39*
X6422441D3*
D38*
X6322441Y552953D3*
D39*
X6422441D3*
D40*
X311024Y1525000D3*
X211024Y1425000D3*
X111024Y1525000D3*
D37*
X7353543Y137205D3*
D16*
X2011024Y2425000D3*
D18*
X1911024D3*
X1811024D3*
X1711024D3*
X1611024D3*
X1511024D3*
X1411024D3*
X1311024D3*
X1211024D3*
X1111024D3*
X1011024D3*
X911024D3*
X811024D3*
X711024D3*
Y1825000D3*
X811024D3*
X911024D3*
X1011024D3*
X1111024D3*
X1211024D3*
X1311024D3*
X1411024D3*
X1511024D3*
X1611024D3*
X1711024D3*
X1811024D3*
X1911024D3*
X2011024D3*
D22*
X2761024Y1375000D3*
D23*
X2811024Y1425000D3*
X2861024Y1375000D3*
D17*
X5511024Y3725000D3*
X5412598D3*
D25*
X4711024Y2025000D3*
D26*
X4411024D3*
D25*
X3211024Y1725000D3*
D26*
X3511024D3*
D16*
X1411024Y3025000D3*
D18*
X1311024D3*
X1211024D3*
X1111024D3*
X1011024D3*
X911024D3*
X811024D3*
X711024D3*
Y2725000D3*
X811024D3*
X911024D3*
X1011024D3*
X1111024D3*
X1211024D3*
X1311024D3*
X1411024D3*
D17*
X4411024Y2325000D3*
Y2423425D3*
X4059646Y1225394D3*
X3961220D3*
D19*
X5811024Y1225000D3*
D20*
X5911024D3*
X6011024D3*
X6111024D3*
X6211024D3*
X6311024D3*
X6411024D3*
X6511024D3*
M02*
