%TF.GenerationSoftware,Novarm,DipTrace,4.3.0.4*%
%TF.CreationDate,2023-04-03T14:28:52+01:00*%
%FSLAX26Y26*%
%MOIN*%
%TF.FileFunction,Drawing,Top*%
%TF.Part,Single*%
%ADD15C,0.003937*%
G75*
G01*
%LPD*%
X1977810Y3167815D2*
D15*
X1997495D1*
X1987652Y3177657D2*
Y3157972D1*
X1963386Y3125000D2*
G02X1963386Y3125000I98425J0D01*
G01*
X1563386Y1575000D2*
X858661D1*
Y1175000D1*
X1521654Y1500000D2*
X1561024Y1460630D1*
X861024Y1500000D2*
X1521654D1*
X1561024Y1460630D2*
Y1250000D1*
X861024D1*
Y1500000D1*
X1563386Y1175000D2*
Y1575000D1*
X858661Y1175000D2*
X1563386D1*
X2461024Y3577362D2*
Y1972638D1*
X3161024D1*
X2521063Y3535630D2*
X2560433Y3575000D1*
X2521063Y1975000D2*
Y3535630D1*
X2560433Y3575000D2*
X3100984D1*
Y1975000D1*
X2521063D1*
X3161024Y3577362D2*
X2461024D1*
X3161024Y1972638D2*
Y3577362D1*
X5561024Y1572638D2*
Y3577362D1*
X4861024D1*
X5500984Y1614370D2*
X5461614Y1575000D1*
X5500984Y3575000D2*
Y1614370D1*
X5461614Y1575000D2*
X4921063D1*
Y3575000D1*
X5500984D1*
X4861024Y1572638D2*
X5561024D1*
X4861024Y3577362D2*
Y1572638D1*
X4686024Y1175000D2*
X4661024Y1200000D1*
X5461024Y1175000D2*
X4686024D1*
X4661024Y1200000D2*
Y1275000D1*
X5461024D1*
Y1175000D1*
X6792913Y306890D2*
Y425000D1*
X7029134Y306890D2*
X6792913D1*
Y425000D2*
Y543110D1*
X7029134D1*
Y306890D1*
X6831671Y425000D2*
G02X6831671Y425000I79353J0D01*
G01*
X3700394Y684055D2*
X3621654D1*
Y565945D1*
X3700394D2*
Y684055D1*
X3621654Y565945D2*
X3700394D1*
X7461024Y525000D2*
X7411024Y475000D1*
X7461024Y675000D2*
Y525000D1*
X7411024Y475000D2*
X7261024D1*
Y675000D1*
X7461024D1*
X3141339Y1306102D2*
X3279134D1*
X3211024Y1472638D2*
G02X3211024Y1472638I0J0D01*
G01*
X3280064Y1305959D2*
G02X3280064Y1305959I0J0D01*
G01*
X6696063Y2115551D2*
X6774803D1*
Y2233661D1*
X6696063D2*
Y2115551D1*
X6774803Y2233661D2*
X6696063D1*
X5786024Y875000D2*
X5761024Y900000D1*
X6361024Y875000D2*
X5786024D1*
X5761024Y900000D2*
Y975000D1*
X6361024D1*
Y875000D1*
X4686024Y575000D2*
X4661024Y600000D1*
X5461024Y575000D2*
X4686024D1*
X4661024Y600000D2*
Y675000D1*
X5461024D1*
Y575000D1*
X3961024Y877362D2*
Y172638D1*
X4361024D1*
X4036024Y835630D2*
X4075394Y875000D1*
X4036024Y175000D2*
Y835630D1*
X4075394Y875000D2*
X4286024D1*
Y175000D1*
X4036024D1*
X4361024Y877362D2*
X3961024D1*
X4361024Y172638D2*
Y877362D1*
X4261024Y1572638D2*
Y3577362D1*
X3561024D1*
X4200984Y1614370D2*
X4161614Y1575000D1*
X4200984Y3575000D2*
Y1614370D1*
X4161614Y1575000D2*
X3621063D1*
Y3575000D1*
X4200984D1*
X3561024Y1572638D2*
X4261024D1*
X3561024Y3577362D2*
Y1572638D1*
X3211024Y1925000D2*
X3290157D1*
Y1956496D2*
Y1893504D1*
X3431890D1*
Y1956496D2*
X3290157D1*
X3431890Y1893504D2*
Y1956496D1*
X3511024Y1925000D2*
X3431890D1*
X6086024Y1475000D2*
X6061024Y1500000D1*
X6261024Y1475000D2*
X6086024D1*
X6061024Y1500000D2*
Y1575000D1*
X6261024D1*
Y1475000D1*
X2420866Y3485630D2*
Y3564370D1*
X2302756D1*
Y3485630D2*
X2420866D1*
X2302756Y3564370D2*
Y3485630D1*
X6622441Y552953D2*
Y473819D1*
X6653937D2*
X6590945D1*
Y332087D1*
X6653937D2*
Y473819D1*
X6590945Y332087D2*
X6653937D1*
X6622441Y252953D2*
Y332087D1*
X6811024Y1025000D2*
Y1125000D1*
X6779528Y1025000D2*
G02X6779528Y1025000I31496J0D01*
G01*
X3275098Y996850D2*
X3133366D1*
X3275098D2*
X3330217Y945669D1*
X3133366Y996850D2*
X3054626Y937795D1*
X3133366Y996850D2*
Y815748D1*
X2800295Y950787D2*
X2845965Y912205D1*
X861713Y950787D2*
X2800295D1*
X3330217Y945669D2*
Y866929D1*
X3054626Y937795D2*
Y874803D1*
X2814075Y937795D2*
X3054626D1*
X2845965Y912205D2*
Y49213D1*
X3054626Y874803D2*
X2845965D1*
X3330217Y866929D2*
X3275098Y815748D1*
Y996850D1*
X3133366Y815748D2*
X3054626Y874803D1*
X3133366Y815748D2*
X3275098D1*
X2845965Y49213D2*
X861713D1*
Y950787D1*
X450394Y2634843D2*
X371654D1*
Y2516732D1*
X450394D2*
Y2634843D1*
X371654Y2516732D2*
X450394D1*
X1818701Y3401955D2*
Y3814554D1*
Y3830302D1*
Y3814554D2*
X604134D1*
X1818701Y3830302D2*
X604134D1*
X1801969D2*
Y4027152D1*
X1605118D1*
X1766535Y3814554D2*
Y3520066D1*
X1640551Y3814554D2*
Y3520066D1*
X1605118Y3830302D2*
X1801969D1*
X1605118Y4027152D2*
Y3830302D1*
X1532283D2*
Y4066522D1*
X890551D1*
Y3830302D2*
X1532283D1*
X890551Y4066522D2*
Y3830302D1*
X817717D2*
Y4027152D1*
X620866D1*
X782283Y3814554D2*
Y3520066D1*
X656299Y3814554D2*
Y3520066D1*
X620866Y3830302D2*
X817717D1*
X620866Y4027152D2*
Y3830302D1*
X604134Y3401955D2*
X1818701D1*
X604134Y3814554D2*
X1818701D1*
X604134D2*
Y3401955D1*
Y3830302D2*
Y3814554D1*
X1640551Y3520066D2*
G02X1640551Y3520066I0J0D01*
G01*
X656299D2*
G02X656299Y3520066I0J0D01*
G01*
X3558661Y1025394D2*
X4263386D1*
Y1425394D1*
X3600394Y1100394D2*
X3561024Y1139764D1*
X4261024Y1100394D2*
X3600394D1*
X3561024Y1139764D2*
Y1350394D1*
X4261024D1*
Y1100394D1*
X3558661Y1425394D2*
Y1025394D1*
X4263386Y1425394D2*
X3558661D1*
X6979528Y858858D2*
Y1488780D1*
X7483465Y858858D2*
X6979528D1*
Y1488780D2*
X7483465D1*
Y858858D1*
X1977810Y2767815D2*
X1997495D1*
X1987652Y2777657D2*
Y2757972D1*
X1963386Y2725000D2*
G02X1963386Y2725000I98425J0D01*
G01*
X2286024Y1375000D2*
X2261024Y1400000D1*
X2561024Y1375000D2*
X2286024D1*
X2261024Y1400000D2*
Y1475000D1*
X2561024D1*
Y1375000D1*
X6811024Y1325000D2*
Y1225000D1*
X6779528Y1325000D2*
G02X6779528Y1325000I31496J0D01*
G01*
X5715748Y306890D2*
Y425000D1*
X5951969Y306890D2*
X5715748D1*
Y425000D2*
Y543110D1*
X5951969D1*
Y306890D1*
X5754505Y425000D2*
G02X5754505Y425000I79353J0D01*
G01*
X4200394Y684055D2*
X4121654D1*
Y565945D1*
X4200394D2*
Y684055D1*
X4121654Y565945D2*
X4200394D1*
X1702756Y2264370D2*
Y2185630D1*
X1820866D1*
Y2264370D2*
X1702756D1*
X1820866Y2185630D2*
Y2264370D1*
X4686024Y875000D2*
X4661024Y900000D1*
X5461024Y875000D2*
X4686024D1*
X4661024Y900000D2*
Y975000D1*
X5461024D1*
Y875000D1*
X1252756Y1414370D2*
Y1335630D1*
X1370866D1*
Y1414370D2*
X1252756D1*
X1370866Y1335630D2*
Y1414370D1*
X3461024Y877362D2*
Y172638D1*
X3861024D1*
X3536024Y835630D2*
X3575394Y875000D1*
X3536024Y175000D2*
Y835630D1*
X3575394Y875000D2*
X3786024D1*
Y175000D1*
X3536024D1*
X3861024Y877362D2*
X3461024D1*
X3861024Y172638D2*
Y877362D1*
X543307Y1202165D2*
X582677Y1162795D1*
X19685Y1202165D2*
X543307D1*
X582677Y847835D2*
Y1162795D1*
Y847835D2*
X19685D1*
Y1202165D1*
X1677810Y2767815D2*
X1697495D1*
X1687652Y2777657D2*
Y2757972D1*
X1663386Y2725000D2*
G02X1663386Y2725000I98425J0D01*
G01*
X114173Y549016D2*
Y375787D1*
Y499016D2*
X507874D1*
X114173Y375787D2*
X507874D1*
X238189Y549016D2*
Y499016D1*
X383858Y549016D2*
Y499016D1*
X507874Y549016D2*
X114173D1*
X507874Y375787D2*
Y549016D1*
X1677810Y3167815D2*
X1697495D1*
X1687652Y3177657D2*
Y3157972D1*
X1663386Y3125000D2*
G02X1663386Y3125000I98425J0D01*
G01*
X1886024Y1475000D2*
X1861024Y1500000D1*
X2061024Y1475000D2*
X1886024D1*
X1861024Y1500000D2*
Y1575000D1*
X2061024D1*
Y1475000D1*
X5786024D2*
X5761024Y1500000D1*
X5961024Y1475000D2*
X5786024D1*
X5761024Y1500000D2*
Y1575000D1*
X5961024D1*
Y1475000D1*
X6122441Y252953D2*
Y332087D1*
X6090945D2*
X6153937D1*
Y473819D1*
X6090945D2*
Y332087D1*
X6153937Y473819D2*
X6090945D1*
X6122441Y552953D2*
Y473819D1*
X1886024Y1175000D2*
X1861024Y1200000D1*
X2061024Y1175000D2*
X1886024D1*
X1861024Y1200000D2*
Y1275000D1*
X2061024D1*
Y1175000D1*
X4711024Y1625000D2*
X4631890D1*
Y1593504D2*
Y1656496D1*
X4490157D1*
Y1593504D2*
X4631890D1*
X4490157Y1656496D2*
Y1593504D1*
X4411024Y1625000D2*
X4490157D1*
X4711024Y1825000D2*
X4631890D1*
Y1793504D2*
Y1856496D1*
X4490157D1*
Y1793504D2*
X4631890D1*
X4490157Y1856496D2*
Y1793504D1*
X4411024Y1825000D2*
X4490157D1*
X152756Y764370D2*
Y685630D1*
X270866D1*
Y764370D2*
X152756D1*
X270866Y685630D2*
Y764370D1*
X3035335Y559843D2*
X2956594D1*
Y441732D1*
X3035335D2*
Y559843D1*
X2956594Y441732D2*
X3035335D1*
X5858661Y1975000D2*
X6663386D1*
Y2375000D1*
X5900394Y2050000D2*
X5861024Y2089370D1*
X6661024Y2050000D2*
X5900394D1*
X5861024Y2089370D2*
Y2300000D1*
X6661024D1*
Y2050000D1*
X5858661Y2375000D2*
Y1975000D1*
X6663386Y2375000D2*
X5858661D1*
X11024Y3549409D2*
X286614Y3825000D1*
X11024Y1974606D2*
Y3549409D1*
X286614Y3825000D2*
X7215748D1*
X286614Y1699016D2*
X11024Y1974606D1*
X7215748Y3825000D2*
X7491339Y3549409D1*
X7215748Y1699016D2*
X286614D1*
X7491339Y3549409D2*
Y1974606D1*
X7215748Y1699016D1*
X6313386Y328591D2*
Y236764D1*
X6313364Y236793D1*
X6313386Y282677D2*
G02X6313386Y282677I59055J0D01*
G01*
Y598866D2*
Y507039D1*
X6313364Y507068D1*
X6313386Y552953D2*
G02X6313386Y552953I59055J0D01*
G01*
X23425Y1569882D2*
Y1379724D1*
X398622D1*
X348622Y1387008D2*
X348661Y1472402D1*
X348622Y1387008D2*
X348661Y1472402D1*
X398622Y1569882D2*
X23425D1*
X398622Y1379724D2*
Y1569882D1*
X305512Y1429724D2*
G02X305512Y1429724I43110J0D01*
G01*
X2063386Y2475000D2*
X658661D1*
Y1775000D1*
X2021654Y2414961D2*
X2061024Y2375591D1*
X661024Y2414961D2*
X2021654D1*
X2061024Y2375591D2*
Y1835039D1*
X661024D1*
Y2414961D1*
X2063386Y1775000D2*
Y2475000D1*
X658661Y1775000D2*
X2063386D1*
X2741339Y1306102D2*
X2879134D1*
X2811024Y1472638D2*
G02X2811024Y1472638I0J0D01*
G01*
X2880064Y1305959D2*
G02X2880064Y1305959I0J0D01*
G01*
X5520866Y3685630D2*
Y3764370D1*
X5402756D1*
Y3685630D2*
X5520866D1*
X5402756Y3764370D2*
Y3685630D1*
X4711024Y2025000D2*
X4631890D1*
Y1993504D2*
Y2056496D1*
X4490157D1*
Y1993504D2*
X4631890D1*
X4490157Y2056496D2*
Y1993504D1*
X4411024Y2025000D2*
X4490157D1*
X3211024Y1725000D2*
X3290157D1*
Y1756496D2*
Y1693504D1*
X3431890D1*
Y1756496D2*
X3290157D1*
X3431890Y1693504D2*
Y1756496D1*
X3511024Y1725000D2*
X3431890D1*
X1463386Y3075000D2*
X658661D1*
Y2675000D1*
X1421654Y3000000D2*
X1461024Y2960630D1*
X661024Y3000000D2*
X1421654D1*
X1461024Y2960630D2*
Y2750000D1*
X661024D1*
Y3000000D1*
X1463386Y2675000D2*
Y3075000D1*
X658661Y2675000D2*
X1463386D1*
X4371654Y2315157D2*
X4450394D1*
Y2433268D1*
X4371654D2*
Y2315157D1*
X4450394Y2433268D2*
X4371654D1*
X4069488Y1186024D2*
Y1264764D1*
X3951378D1*
Y1186024D2*
X4069488D1*
X3951378Y1264764D2*
Y1186024D1*
X5786024Y1175000D2*
X5761024Y1200000D1*
X6561024Y1175000D2*
X5786024D1*
X5761024Y1200000D2*
Y1275000D1*
X6561024D1*
Y1175000D1*
M02*
