%TF.GenerationSoftware,Novarm,DipTrace,4.3.0.4*%
%TF.CreationDate,2023-04-03T14:28:53+01:00*%
%FSLAX26Y26*%
%MOIN*%
%TF.FileFunction,Soldermask,Top*%
%TF.Part,Single*%
%ADD19R,0.066929X0.066929*%
%ADD20C,0.066929*%
%ADD24C,0.066929*%
%ADD25C,0.055118*%
%ADD38R,0.070866X0.070866*%
%ADD39C,0.070866*%
%ADD54C,0.06063*%
%ADD56C,0.074803*%
%ADD57R,0.074803X0.074803*%
%ADD58C,0.200787*%
%ADD60O,0.078937X0.082677*%
%ADD62R,0.078937X0.082677*%
%ADD64O,0.169291X0.082677*%
%ADD66O,0.082677X0.169291*%
%ADD68R,0.082677X0.185039*%
%ADD70O,0.082677X0.161417*%
%ADD72O,0.141732X0.082677*%
%ADD74C,0.161417*%
%ADD76O,0.06063X0.082677*%
%ADD78R,0.06063X0.082677*%
%ADD80C,0.059055*%
%ADD82C,0.059055*%
%ADD84R,0.055118X0.055118*%
%ADD86C,0.082677*%
%ADD87C,0.070866*%
G75*
G01*
%LPD*%
D19*
X2012598Y3125000D3*
D24*
X2111024D3*
D19*
X1511024Y1525000D3*
D20*
X1411024D3*
X1311024D3*
X1211024D3*
X1111024D3*
X1011024D3*
X911024D3*
Y1225000D3*
X1011024D3*
X1111024D3*
X1211024D3*
X1311024D3*
X1411024D3*
X1511024D3*
D19*
X2511024Y3525000D3*
D20*
Y3425000D3*
Y3325000D3*
Y3225000D3*
Y3125000D3*
Y3025000D3*
Y2925000D3*
Y2825000D3*
Y2725000D3*
Y2625000D3*
Y2525000D3*
Y2425000D3*
Y2325000D3*
Y2225000D3*
Y2125000D3*
Y2025000D3*
X3111024D3*
Y2125000D3*
Y2225000D3*
Y2325000D3*
Y2425000D3*
Y2525000D3*
Y2625000D3*
Y2725000D3*
Y2825000D3*
Y2925000D3*
Y3025000D3*
Y3125000D3*
Y3225000D3*
Y3325000D3*
Y3425000D3*
Y3525000D3*
D19*
X5511024Y1625000D3*
D20*
Y1725000D3*
Y1825000D3*
Y1925000D3*
Y2025000D3*
Y2125000D3*
Y2225000D3*
Y2325000D3*
Y2425000D3*
Y2525000D3*
Y2625000D3*
Y2725000D3*
Y2825000D3*
Y2925000D3*
Y3025000D3*
Y3125000D3*
Y3225000D3*
Y3325000D3*
Y3425000D3*
Y3525000D3*
X4911024D3*
Y3425000D3*
Y3325000D3*
Y3225000D3*
Y3125000D3*
Y3025000D3*
Y2925000D3*
Y2825000D3*
Y2725000D3*
Y2625000D3*
Y2525000D3*
Y2425000D3*
Y2325000D3*
Y2225000D3*
Y2125000D3*
Y2025000D3*
Y1925000D3*
Y1825000D3*
Y1725000D3*
Y1625000D3*
D38*
X4711024Y1225000D3*
D87*
X4811024D3*
X4911024D3*
X5011024D3*
X5111024D3*
X5211024D3*
X5311024D3*
X5411024D3*
D86*
X6822441Y297047D3*
Y552953D3*
X6999606Y297047D3*
Y552953D3*
D24*
X3661024Y674213D3*
Y575787D3*
D38*
X7411024Y525000D3*
D87*
X7311024D3*
X7411024Y625000D3*
X7311024D3*
D84*
X3161024Y1375000D3*
D25*
X3211024Y1425000D3*
X3261024Y1375000D3*
D24*
X6735433Y2125394D3*
Y2223819D3*
D38*
X5961024Y3225000D3*
D39*
Y3125000D3*
Y3025000D3*
Y2925000D3*
Y2825000D3*
Y2725000D3*
D38*
X5811024Y925000D3*
D87*
X5911024D3*
X6011024D3*
X6111024D3*
X6211024D3*
X6311024D3*
D38*
X4711024Y625000D3*
D87*
X4811024D3*
X4911024D3*
X5011024D3*
X5111024D3*
X5211024D3*
X5311024D3*
X5411024D3*
D19*
X4011024Y825000D3*
D20*
Y725000D3*
Y625000D3*
Y525000D3*
Y425000D3*
Y325000D3*
Y225000D3*
X4311024D3*
Y325000D3*
Y425000D3*
Y525000D3*
Y625000D3*
Y725000D3*
Y825000D3*
D19*
X4211024Y1625000D3*
D20*
Y1725000D3*
Y1825000D3*
Y1925000D3*
Y2025000D3*
Y2125000D3*
Y2225000D3*
Y2325000D3*
Y2425000D3*
Y2525000D3*
Y2625000D3*
Y2725000D3*
Y2825000D3*
Y2925000D3*
Y3025000D3*
Y3125000D3*
Y3225000D3*
Y3325000D3*
Y3425000D3*
Y3525000D3*
X3611024D3*
Y3425000D3*
Y3325000D3*
Y3225000D3*
Y3125000D3*
Y3025000D3*
Y2925000D3*
Y2825000D3*
Y2725000D3*
Y2625000D3*
Y2525000D3*
Y2425000D3*
Y2325000D3*
Y2225000D3*
Y2125000D3*
Y2025000D3*
Y1925000D3*
Y1825000D3*
Y1725000D3*
Y1625000D3*
D82*
X3211024Y1925000D3*
D80*
X3511024D3*
D38*
X6111024Y1525000D3*
D87*
X6211024D3*
D24*
X2411024Y3525000D3*
X2312598D3*
D82*
X6622441Y552953D3*
D80*
Y252953D3*
D82*
X6811024Y1025000D3*
D80*
Y1125000D3*
D78*
X2430217Y800000D3*
D76*
X2330217D3*
X2230217D3*
X2130217D3*
X2030217D3*
X1930217D3*
X1830217D3*
X1730217D3*
X1630217D3*
X1530217D3*
X1430217D3*
X1330217D3*
X1230217D3*
X1130217D3*
Y200000D3*
X1230217D3*
X1330217D3*
X1430217D3*
X1530217D3*
X1630217D3*
X1730217D3*
X1830217D3*
X1930217D3*
X2030217D3*
X2130217D3*
X2230217D3*
X2330217D3*
X2430217D3*
D24*
X411024Y2625000D3*
Y2526575D3*
D74*
X1703543Y3520066D3*
X719291D3*
D19*
X1429528Y3508255D3*
D24*
X1320472D3*
X1211417D3*
X1102362D3*
X993307D3*
X1375000Y3620066D3*
X1265945D3*
X1156890D3*
X1047835D3*
D19*
X3611024Y1075394D3*
D20*
X3711024D3*
X3811024D3*
X3911024D3*
X4011024D3*
X4111024D3*
X4211024D3*
Y1375394D3*
X4111024D3*
X4011024D3*
X3911024D3*
X3811024D3*
X3711024D3*
X3611024D3*
D19*
X7148819Y1225000D3*
D24*
Y1122638D3*
Y1307677D3*
Y1039961D3*
X7038583Y1307677D3*
Y1039961D3*
D72*
X7261024Y904134D3*
D70*
X7292520Y1173819D3*
D72*
X7261024Y1443504D3*
D19*
X2012598Y2725000D3*
D24*
X2111024D3*
D38*
X2311024Y1425000D3*
D87*
X2411024D3*
X2511024D3*
D82*
X6811024Y1325000D3*
D80*
Y1225000D3*
D86*
X5745276Y297047D3*
Y552953D3*
X5922441Y297047D3*
Y552953D3*
D24*
X4161024Y674213D3*
Y575787D3*
X1712598Y2225000D3*
X1811024D3*
D38*
X4711024Y925000D3*
D87*
X4811024D3*
X4911024D3*
X5011024D3*
X5111024D3*
X5211024D3*
X5311024D3*
X5411024D3*
D24*
X1262598Y1375000D3*
X1361024D3*
D19*
X3511024Y825000D3*
D20*
Y725000D3*
Y625000D3*
Y525000D3*
Y425000D3*
Y325000D3*
Y225000D3*
X3811024D3*
Y325000D3*
Y425000D3*
Y525000D3*
Y625000D3*
Y725000D3*
Y825000D3*
D68*
X559055Y1025000D3*
D66*
X311024D3*
D64*
X444882Y836024D3*
D19*
X1712598Y2725000D3*
D24*
X1811024D3*
D62*
X211024Y425000D3*
D60*
X311024D3*
X411024D3*
D19*
X1712598Y3125000D3*
D24*
X1811024D3*
D38*
X1911024Y1525000D3*
D87*
X2011024D3*
D58*
X148819Y139173D3*
D38*
X5811024Y1525000D3*
D87*
X5911024D3*
D82*
X6122441Y252953D3*
D80*
Y552953D3*
D38*
X1911024Y1225000D3*
D87*
X2011024D3*
D82*
X4711024Y1625000D3*
D80*
X4411024D3*
D82*
X4711024Y1825000D3*
D80*
X4411024D3*
D24*
X162598Y725000D3*
X261024D3*
X2995965Y550000D3*
Y451575D3*
D19*
X5911024Y2025000D3*
D20*
X6011024D3*
X6111024D3*
X6211024D3*
X6311024D3*
X6411024D3*
X6511024D3*
X6611024D3*
Y2325000D3*
X6511024D3*
X6411024D3*
X6311024D3*
X6211024D3*
X6111024D3*
X6011024D3*
X5911024D3*
D58*
X148819Y3687205D3*
Y1836811D3*
X7353543Y3687205D3*
Y1836811D3*
D39*
X109449Y3210827D3*
X209449D3*
X109449Y3110827D3*
X209449D3*
X109449Y3010827D3*
X209449D3*
X109449Y2910827D3*
X209449D3*
X109449Y2810827D3*
X209449D3*
X109449Y2710827D3*
X209449D3*
X109449Y2610827D3*
X209449D3*
X109449Y2510827D3*
X209449D3*
X109449Y2410827D3*
X209449D3*
D57*
X6322441Y282677D3*
D56*
X6422441D3*
D57*
X6322441Y552953D3*
D56*
X6422441D3*
D54*
X311024Y1525000D3*
X211024Y1425000D3*
X111024Y1525000D3*
D58*
X7353543Y137205D3*
D19*
X2011024Y2425000D3*
D20*
X1911024D3*
X1811024D3*
X1711024D3*
X1611024D3*
X1511024D3*
X1411024D3*
X1311024D3*
X1211024D3*
X1111024D3*
X1011024D3*
X911024D3*
X811024D3*
X711024D3*
Y1825000D3*
X811024D3*
X911024D3*
X1011024D3*
X1111024D3*
X1211024D3*
X1311024D3*
X1411024D3*
X1511024D3*
X1611024D3*
X1711024D3*
X1811024D3*
X1911024D3*
X2011024D3*
D84*
X2761024Y1375000D3*
D25*
X2811024Y1425000D3*
X2861024Y1375000D3*
D24*
X5511024Y3725000D3*
X5412598D3*
D82*
X4711024Y2025000D3*
D80*
X4411024D3*
D82*
X3211024Y1725000D3*
D80*
X3511024D3*
D19*
X1411024Y3025000D3*
D20*
X1311024D3*
X1211024D3*
X1111024D3*
X1011024D3*
X911024D3*
X811024D3*
X711024D3*
Y2725000D3*
X811024D3*
X911024D3*
X1011024D3*
X1111024D3*
X1211024D3*
X1311024D3*
X1411024D3*
D24*
X4411024Y2325000D3*
Y2423425D3*
X4059646Y1225394D3*
X3961220D3*
D38*
X5811024Y1225000D3*
D87*
X5911024D3*
X6011024D3*
X6111024D3*
X6211024D3*
X6311024D3*
X6411024D3*
X6511024D3*
M02*
