%TF.GenerationSoftware,Novarm,DipTrace,4.3.0.4*%
%TF.CreationDate,2023-05-29T14:58:25+01:00*%
%FSLAX26Y26*%
%MOIN*%
%TF.FileFunction,Copper,L1,Top*%
%TF.Part,Single*%
%TA.AperFunction,Conductor*%
%ADD13C,0.03937*%
%ADD14C,0.019685*%
%ADD15C,0.01*%
%TA.AperFunction,ComponentPad*%
%ADD18C,0.055118*%
%ADD19C,0.055118*%
%ADD20R,0.062992X0.062992*%
%ADD21C,0.062992*%
%ADD22R,0.066929X0.066929*%
%ADD23C,0.066929*%
%ADD24C,0.07874*%
%ADD25R,0.051181X0.051181*%
%ADD26C,0.051181*%
%ADD27C,0.066929*%
%ADD28C,0.19685*%
%ADD29C,0.062992*%
%ADD30C,0.06*%
%ADD31R,0.047244X0.047244*%
%ADD32C,0.047244*%
%ADD33C,0.094488*%
%ADD34R,0.056693X0.056693*%
%ADD35C,0.056693*%
%ADD36O,0.137795X0.07874*%
%ADD37O,0.07874X0.15748*%
%ADD38R,0.181102X0.07874*%
%ADD39O,0.165354X0.07874*%
%ADD40O,0.07874X0.165354*%
%ADD41R,0.07874X0.075*%
%ADD42O,0.07874X0.075*%
%ADD43R,0.070866X0.070866*%
%ADD44C,0.070866*%
%ADD45R,0.041339X0.059055*%
%ADD46O,0.041339X0.059055*%
%ADD47R,0.07874X0.059055*%
%ADD48R,0.07874X0.149606*%
%TA.AperFunction,ComponentPad*%
%ADD49O,0.047244X0.06*%
%ADD50C,0.056693*%
%ADD51R,0.082677X0.082677*%
%ADD52C,0.082677*%
%TA.AperFunction,ViaPad*%
%ADD53C,0.031496*%
%TA.AperFunction,ComponentPad*%
%ADD119C,0.03937*%
G75*
G01*
%LPD*%
X7825983Y1399999D2*
D13*
X7949999D1*
X7249999Y2249999D2*
Y2399999D1*
X7732676D2*
Y2499999D1*
X8032676Y2249999D2*
X7882676Y2399999D1*
X7732676D1*
X8132676Y1949999D2*
X8032676Y2049999D1*
Y2249999D1*
Y1749999D2*
X8074999D1*
X8132676Y1807676D1*
Y1949999D1*
X8074015Y1399999D2*
D14*
Y1708661D1*
X8032676Y1749999D1*
X7949999Y1399999D2*
D13*
X8074015D1*
X5999999Y2999999D2*
X5799999D1*
X5699999Y2899999D1*
Y2699999D1*
X4099999Y1999999D2*
X3900393D1*
X3500787D1*
X3400393Y2100393D1*
X2899999Y3399999D2*
X2599999D1*
X7124999Y2549999D2*
Y2324999D1*
X6849999Y2049999D1*
X4203346Y1849606D2*
X4099999Y1952952D1*
Y1999999D1*
X6799999Y2549999D2*
D14*
X6649999Y2399999D1*
Y2349999D1*
X6749999Y3751574D2*
X7099999D1*
X4093700Y799999D2*
D13*
X4206298Y687401D1*
Y649999D1*
X5803149Y3699999D2*
D14*
X5699802Y3803346D1*
Y3850393D1*
X1299999Y2799999D2*
D13*
X1599999D1*
X1699999Y2699999D1*
X1899999D1*
X7099999Y3751574D2*
D14*
X7152361Y3699212D1*
X7174999D1*
Y2974999D1*
X7250787Y2899212D1*
X7343306D1*
X7394094Y2848424D1*
X7999999Y2849999D2*
D13*
X7843700Y3006298D1*
Y3166535D1*
X5949999Y649999D2*
Y849999D1*
X6799999D1*
X4099999Y1999999D2*
X3993700Y1893700D1*
Y1399999D1*
X1899999Y2599999D2*
D15*
X2100393D1*
X4093700Y799999D2*
D13*
X4152755Y859054D1*
X4890944D1*
X5256380D1*
X5299999Y902674D1*
Y949999D1*
X4890944Y859054D2*
X5099999Y649999D1*
X6599999Y3749999D2*
D14*
X6597396Y3747396D1*
X6472397D1*
X6899999Y3319793D1*
Y3299999D1*
X1599999Y3199999D2*
D13*
Y2799999D1*
X5699999Y2699999D2*
D14*
Y2549999D1*
X6353346Y1349606D2*
D13*
X6453346D1*
X6499212Y1303739D1*
D14*
Y1150787D1*
D13*
X6738976Y911023D1*
Y975276D1*
X6788699Y1024999D1*
X7228936D1*
X7249999Y1003936D1*
D14*
Y1143700D1*
X5256380Y859054D2*
D13*
X5265435Y849999D1*
X5949999D1*
X3993700Y1399999D2*
X3934645Y1340944D1*
Y959054D1*
X4093700Y799999D1*
X5699999Y2699999D2*
X5199999D1*
X4899999Y2399999D1*
Y2380003D1*
Y1799999D1*
X4559054Y1459054D1*
X4052755D1*
X3993700Y1399999D1*
X3699999Y2699999D2*
D15*
Y2799999D1*
Y2599999D2*
Y2699999D1*
X3700393Y2499999D2*
X3699999Y2599999D1*
X3900393Y2299999D2*
X3700393Y2499999D1*
X4099999Y3899999D2*
D13*
X4056298D1*
X3949999Y3793700D1*
X2599999Y3399999D2*
X2924999Y3724999D1*
Y4074999D1*
X3009054Y4159054D1*
X3840944D1*
X4099999Y3899999D1*
X7700983Y1292125D2*
X7808661D1*
X7825983Y1309448D1*
X7499999Y1299999D2*
X7693109D1*
X7700983Y1292125D1*
X7249999Y1143700D2*
X7406298Y1299999D1*
X7499999D1*
X7249999Y1003936D2*
D3*
D14*
X7493700Y760235D1*
X6249999Y1499999D2*
D13*
X6353346Y1396653D1*
Y1349606D1*
X6949999Y1749999D2*
X6799999Y1599999D1*
X6349999D1*
X6249999Y1499999D1*
X6849999Y2049999D2*
X6949999Y1949999D1*
Y1749999D1*
X3900393Y1999999D2*
D15*
Y2299999D1*
X6649999Y2349999D2*
D13*
Y2249999D1*
X6849999Y2049999D1*
X7394094Y2848424D2*
D14*
Y2948424D1*
X7174999Y3699212D2*
X7344881D1*
X7394094Y3748424D1*
X5699802Y3850393D2*
X5774409Y3924999D1*
X6299999D1*
X6349999D1*
X6472397Y3802602D1*
Y3747396D1*
X6299999Y4149999D2*
Y3924999D1*
X3993700Y1399999D2*
D13*
X4143700Y1249999D1*
X3594684Y1094684D2*
X3899999Y1399999D1*
X3993700D1*
X1875491Y1225983D2*
X2006791Y1094684D1*
X3594684D1*
X1899999Y2599999D2*
Y1250491D1*
X1875491Y1225983D1*
X1899999Y2699999D2*
Y2599999D1*
X7749999Y3734251D2*
D14*
X7865747Y3849999D1*
X7951574D1*
X7649999Y3734251D2*
X7749999D1*
X7394094Y3748424D2*
X7635826D1*
X7649999Y3734251D1*
X4799999Y2799999D2*
D13*
Y3199999D1*
X4099999Y3899999D1*
X4798424Y2649999D2*
X4799999Y2651574D1*
Y2799999D1*
X6799999Y849999D2*
X6738976Y911023D1*
X2100393Y2599999D2*
D15*
Y2399999D1*
X4899999Y2380003D2*
X4569996D1*
X4399999Y2549999D1*
X593700Y1593700D2*
D13*
X449999Y1449999D1*
Y849999D1*
X563857Y736141D1*
X736141D1*
X793700Y793700D1*
X790550Y794291D1*
X5995432Y739964D2*
D15*
X6828463D1*
X6848463Y759964D1*
Y901535D1*
X6799999Y949999D1*
X5145432Y698464D2*
X5206924D1*
X5268424Y759964D1*
X5840708D1*
X5860708Y739964D1*
X4739133Y546499D2*
X4985432D1*
X829172Y718539D2*
X1032318Y515393D1*
X3400680D1*
Y546499D1*
X3400681Y530751D1*
X3400680Y530753D1*
X2934074Y2963937D2*
X2728093D1*
X2708093Y2943937D1*
Y2190433D1*
X2728093Y2170433D1*
X2818837D1*
X2694648Y3277244D2*
X2934074D1*
X5799999Y3299999D2*
X5753500Y3346499D1*
X5183326D1*
X5163326Y3366499D1*
Y4215236D1*
X5143326Y4235236D1*
X2502759D1*
Y3415748D2*
Y4077244D1*
X2221085Y3557244D2*
Y3679999D1*
X2201085Y3699999D1*
X1899999D1*
X5249999Y2349999D2*
Y2472129D1*
X5269999Y2492129D1*
X5533227D1*
X3799999Y3699999D2*
X3560239D1*
X3540239Y3680000D1*
Y3166496D1*
X3520239Y3146496D1*
X3154054D1*
X3048302Y3040744D1*
X2686499D1*
X2666499Y3020744D1*
Y2366499D1*
X2599999Y2299999D1*
X2526180Y2373818D1*
Y3046496D1*
X2370487Y1983070D2*
X2184109Y2169448D1*
Y3126496D1*
X2164109Y3146496D1*
X1853503D1*
X1833503Y3166496D1*
Y3279999D1*
X1813503Y3299999D1*
X1299999D1*
X2849585Y1713980D2*
X2067735D1*
Y1775476D1*
X2849585Y1342992D2*
X3347995D1*
X2974684Y2375968D2*
X3050653Y2299999D1*
X3199999D1*
X2849585Y2265129D2*
Y2375968D1*
X2067735Y1775476D2*
Y2341692D1*
X2929585Y1269330D2*
Y1200511D1*
X2909743Y1180669D1*
X2120806D1*
X2075491Y1225983D1*
X3549251Y1160669D2*
X2969427D1*
X2929585Y1200511D1*
X2933999Y1652488D2*
X1945432D1*
X3136987Y2024570D2*
X2933999D1*
X3980078Y1160669D2*
X3969330Y1171417D1*
Y1205318D1*
X3989330Y1225318D1*
X4020790D1*
X4099609Y1146499D1*
X4447200D1*
X4493700Y1099999D1*
X1975491Y1225983D2*
Y1565240D1*
X2016987D1*
Y2310944D2*
Y2249448D1*
X3106239Y1621736D2*
X3795747D1*
X2016987Y1565240D2*
X2073483Y1621736D1*
X3106239D1*
X3012991Y1549496D2*
X3489251D1*
X3116987Y2599999D2*
X3012991D1*
X5151534Y3167401D2*
X5284133Y3299999D1*
X5699999D1*
X2677247Y3177244D2*
Y3159488D1*
X2692995Y3143740D1*
X2861830D1*
X4577243Y3034685D2*
X4054684D1*
X4034684Y3054685D1*
Y3454370D1*
X4014684Y3474370D1*
X3860433D1*
X3832562Y3446499D1*
X3632483D1*
X2861830Y3071492D2*
X2718837D1*
X2861830Y3143740D2*
X3041180D1*
X3061180Y3163740D1*
Y3426499D1*
X3081180Y3446499D1*
X3509491D1*
X2677247Y3077244D2*
X2707995Y3107992D1*
X3061180D1*
X3081180Y3127992D1*
Y3326496D1*
X3101180Y3346496D1*
X3469491D1*
X4649487Y3123740D2*
X4234684Y3538543D1*
Y3658310D1*
X4146495Y3746499D1*
X4058270D1*
X4031101Y3719330D1*
X3912054D1*
X3884885Y3746499D1*
X2686499Y1420118D2*
X2529585D1*
X5499999Y2125393D2*
X4945432D1*
X3945826Y2077248D2*
X4729098D1*
X4777243Y2125393D1*
X2649585Y1959133D2*
X2731081Y1877637D1*
X3945826D1*
X2495432Y2769519D2*
Y2246496D1*
X5021928Y1239173D2*
X5582282D1*
X4513818Y1016811D2*
X5001928D1*
X5021928Y1036811D1*
Y1145433D1*
X2360334Y897251D2*
X3749030D1*
X2275491Y625983D2*
Y958744D1*
X4340200Y1238744D2*
X4547444D1*
X4567444Y1258744D1*
Y1326181D1*
X4587444Y1346181D1*
X4940200D1*
X5023231Y1429212D1*
X5620787D1*
X5699999Y1349999D1*
X2275491Y958744D2*
X3830526D1*
X2102613Y2915748D2*
Y3079999D1*
X2082613Y3099999D1*
X1899999D1*
X4991180Y1300669D2*
X5750669D1*
X5799999Y1349999D1*
X2418837Y780358D2*
X2449585Y811106D1*
X3910904D1*
X3930904Y791106D1*
Y735118D1*
X2102613Y2653307D2*
X2142956D1*
Y1837157D1*
X2162956Y1817157D1*
X2418837D1*
X2109231Y1878952D2*
Y2310944D1*
X1946495Y3040480D2*
Y2897244D1*
X1966495Y2877244D1*
X2153361D1*
X3918924Y1487999D2*
X2118837D1*
X4501696Y1590988D2*
X4146499D1*
X5899999Y1519960D2*
X4964487D1*
X2320432Y2546496D2*
Y3946499D1*
X2970432D2*
X3753500D1*
X3799999Y3899999D1*
X2599999Y2399999D2*
X2646499Y2446499D1*
Y3207992D1*
X3021180D1*
X3041180Y3227992D1*
Y3526496D1*
X3061180Y3546496D1*
X3246188D1*
X3499692Y3799999D1*
X3799999D1*
X2275491Y1903649D2*
X2162956Y2016184D1*
Y2726496D1*
X2142956Y2746496D1*
X1754684D1*
X1734684Y2766496D1*
Y3242244D1*
X1714684Y3262244D1*
X1431319D1*
X1369075Y3199999D1*
X1299999D1*
X6357046Y3566141D2*
Y3793149D1*
X6299802Y3850393D1*
X6357046Y3431744D2*
X6479998D1*
X6499999Y3411743D1*
Y3299999D1*
X7199999Y2249999D2*
Y2549999D1*
X5899999Y3299999D2*
D14*
X5774999Y3424999D1*
X5549999D1*
X5499999Y3474999D1*
Y3874999D1*
X5874999Y4249999D1*
X6424999D1*
X6499999Y4174999D1*
Y4149999D1*
X7199999Y2549999D2*
D15*
Y2562637D1*
X6912637Y2849999D1*
X6349999D1*
X5899999Y3299999D1*
X6399999Y4149999D2*
D14*
X6348818Y4201180D1*
X5901180D1*
X5549999Y3849999D1*
Y3513974D1*
X5587006Y3476968D1*
X5923031D1*
X6099999Y3299999D1*
D15*
X6499999Y2899999D1*
X6924999D1*
X7915354Y1909645D1*
X7973031D1*
X8032676Y1849999D1*
X6746495Y3254566D2*
Y3331165D1*
X6575849Y3501811D1*
X5631849D1*
X5611849Y3521811D1*
Y3646499D1*
X5396495Y1926181D2*
X6033617D1*
X6064365Y1895433D1*
X6249999D1*
X5749999Y2349999D2*
Y2449999D1*
X5999999Y2699999D1*
X6193700Y599999D2*
X6055711D1*
X5849999Y2349999D2*
Y2449999D1*
X6099999Y2699999D1*
X6293700Y599999D2*
X6245235Y648464D1*
X6014215D1*
X2970432Y3677244D2*
Y3846496D1*
X7137676Y3487165D2*
Y3348425D1*
X5796495Y1687066D2*
X5843321Y1640240D1*
X5965747D1*
X3163507Y721881D2*
X3071389D1*
X2975491Y625983D1*
X6014215Y648464D2*
Y598468D1*
X5918467D1*
X5898467Y618468D1*
Y698468D1*
X5568463D1*
X5548463Y678468D1*
Y618464D1*
X5528463Y598464D1*
X4781338D1*
X4675432Y704370D1*
X4370759D1*
X4242058Y575669D1*
X3939251D1*
X3759566Y755354D1*
X3196980D1*
X3163507Y721881D1*
X5949999Y2349999D2*
Y2449999D1*
X6199999Y2699999D1*
X3075491Y775354D2*
X3880156D1*
X3900156Y755354D1*
Y704370D1*
X6859684Y1895433D2*
Y1816496D1*
X6839684Y1796496D1*
X6716495D1*
X6696495Y1776496D1*
Y1714685D1*
X6676495Y1694685D1*
X6138429D1*
X6136495Y1692751D1*
X5996495Y2259133D2*
X6396495D1*
X3438743Y4046496D2*
X3054487D1*
X3150432Y3246496D2*
X3438743D1*
X6049999Y2349999D2*
Y2449999D1*
X6299999Y2699999D1*
X3147735Y2946496D2*
X3390184D1*
Y3046496D1*
X6935589Y3695433D2*
X7067987D1*
X7087987Y3675433D1*
Y3425669D1*
X3054487Y4204488D2*
X1299999D1*
X3133503Y4087992D2*
X3054487D1*
X3147735Y2640480D2*
Y2359519D1*
X7210589Y3248425D2*
Y3425669D1*
X3390184Y3046496D2*
X3253503D1*
X3199999Y3099999D1*
X6149999Y2349999D2*
Y2449999D1*
X6399999Y2699999D1*
X6296495Y1936929D2*
X6147243D1*
X6139251Y2228385D2*
X4945432D1*
X3976574Y2169059D2*
X4737917D1*
X4797243Y2228385D1*
X3075491Y1846889D2*
X3907987D1*
X7210589Y3494921D2*
X7440593D1*
X7460593Y3474921D1*
Y3214924D1*
X7394094Y3148424D1*
X6249999Y2349999D2*
Y2449999D1*
X6499999Y2699999D1*
X2758837Y2933188D2*
X3080393D1*
X3113582Y2899999D1*
X3199999D1*
X3877243Y1919133D2*
X2975491D1*
X4854566Y2296499D2*
X3953704D1*
X6249999Y2349999D2*
X6189881Y2289881D1*
X5616495D1*
X5596495Y2309881D1*
Y2522877D1*
X5576495Y2542877D1*
X5216495D1*
X5196495Y2522877D1*
Y2316499D1*
X5176495Y2296499D1*
X4945432D1*
X6311062Y2112244D2*
X6321692Y2101614D1*
Y2007755D1*
X6341692Y1987755D1*
X6696499D1*
X6349999Y2349999D2*
Y2449999D1*
X6599999Y2699999D1*
X6594995Y2807996D2*
X6316491D1*
X6062243Y3062244D1*
X5047834D1*
X3043739Y2841496D2*
X3085236Y2799999D1*
X3199999D1*
X2718743Y3177244D2*
X3030432D1*
X1403003Y3346496D2*
X2070337D1*
X2170337Y3246496D1*
X3199999Y2799999D2*
X3246496Y2846496D1*
X3400932D1*
X3420932Y2866496D1*
Y2979657D1*
X3590987Y3149712D1*
Y3526499D1*
X3610987Y3546499D1*
X4126495D1*
X4146495Y3526499D1*
Y3114685D1*
X4166495Y3094685D1*
X4586298D1*
X4618739Y3062244D1*
X6449999Y2349999D2*
Y2449999D1*
X6699999Y2699999D1*
X1340479Y3646496D2*
X2122581D1*
X2170337Y3598740D1*
X2789585Y2326625D2*
Y2248479D1*
X2775491Y2234385D1*
X2789585Y2661472D2*
Y2871692D1*
X2809585Y2891692D1*
X2942243D1*
X2962243Y2871692D1*
Y2719999D1*
X2982243Y2699999D1*
X3199999D1*
X5527243Y2777248D2*
X5496494Y2746499D1*
X5027781D1*
X4775967Y2494685D1*
X4566495D1*
X4546495Y2514685D1*
Y2579192D1*
X4526495Y2599192D1*
X3794197D1*
X3746893Y2646496D1*
X6699999Y2699999D2*
X6622751Y2777248D1*
X5745432D1*
X3199999Y2699999D2*
X3253503Y2646496D1*
X3504566D1*
X8049999Y3849999D2*
D13*
Y3749999D1*
X8099999Y3699999D1*
Y3499999D1*
X8034251Y3434251D1*
X7843700D1*
X7299999Y1549999D2*
X7328739Y1578739D1*
X7499999D1*
X4599999Y649999D2*
X4693700Y556298D1*
Y499999D1*
X1599999Y3790550D2*
Y3999999D1*
X1699999Y4099999D1*
X1899999D1*
X899999Y1495275D2*
X1006200D1*
X1875491Y625983D1*
X7299999Y1093700D2*
D14*
X7588188D1*
X7832283Y849606D1*
X1899999Y4099999D2*
D13*
X1840944Y4159054D1*
X1275537D1*
X1024999Y3908516D1*
Y1620275D1*
X899999Y1495275D1*
X3949999Y3399999D2*
Y3349999D1*
X3799999Y3199999D1*
X3400393Y1800393D2*
X3500393D1*
X7674999Y2224999D2*
X7174999Y2724999D1*
X6899999Y2999999D1*
X6590550D1*
X3500393Y2100393D2*
X3350393Y2250393D1*
X3549999Y2449999D1*
Y2542559D1*
Y2949999D1*
X3799999Y3199999D1*
X7393700Y624606D2*
Y542913D1*
X7399999Y536613D1*
D14*
X7281692D1*
X7193700Y624606D1*
X6196850Y3699999D2*
X6299802Y3597046D1*
Y3550393D1*
X7700983Y1390550D2*
D13*
X7800983Y1490550D1*
X7825983D1*
X4734251Y1249999D2*
X4884251Y1099999D1*
X4893700D1*
X6259448Y2049999D2*
X5149999D1*
X5049999Y1949999D1*
Y1749999D1*
X593700Y1493700D2*
X526771Y1426771D1*
Y1173228D1*
Y884842D1*
X617322Y794291D1*
X7294094Y2848424D2*
X7174999Y2729330D1*
Y2724999D1*
X599999Y1099999D2*
X526771Y1173228D1*
X6849999Y1199999D2*
X6949999D1*
X4699999Y3174999D2*
Y2799999D1*
X4597046Y1849606D2*
X4699999Y1746653D1*
Y1699999D1*
X3199999Y2199999D2*
X3299999D1*
X3350393Y2250393D1*
X4949999Y3909524D2*
Y3674999D1*
X4699999Y3424999D1*
X6899999Y2999999D2*
X6999999Y3099999D1*
Y3299999D1*
X7843700Y3434251D2*
X7816141D1*
X7784645Y3402755D1*
Y3309645D1*
X7674999Y3199999D1*
Y2224999D1*
X7732676Y1849999D2*
X7424999D1*
X7700983Y1590550D2*
D14*
X7749999Y1639566D1*
Y1697725D1*
X7781889Y1729615D1*
Y1800787D1*
X7732676Y1849999D1*
X7499999Y1578739D2*
D13*
X7689172D1*
X7700983Y1590550D1*
X5099999Y549999D2*
X5161023Y488976D1*
X5688976D1*
X5849999Y649999D1*
X4899999Y499999D2*
X5049999D1*
X5099999Y549999D1*
X4693700Y499999D2*
X4899999D1*
X3199999Y2199999D2*
X3153503D1*
X2999999D1*
X2899999Y2299999D1*
Y2809448D1*
X1899999Y4099999D2*
X2099999D1*
X2274999Y3924999D1*
Y2299999D1*
X2449999Y2124999D1*
X3124999D1*
X3199999Y2199999D1*
X3594684Y700983D2*
X3854724Y440944D1*
X4634645D1*
X4693700Y499999D1*
X3175491Y625983D2*
X3519684D1*
X3594684Y700983D1*
X1875491Y625983D2*
X1931397Y570078D1*
X3119586D1*
X3175491Y625983D1*
X7832283Y593700D2*
D14*
X7775196Y536613D1*
X7399999D1*
D13*
X7352361Y488976D1*
X5688976D1*
X7832283Y849606D2*
D14*
Y593700D1*
X4699999Y2799999D2*
D13*
Y2649999D1*
X3799999Y3199999D2*
X4199999Y2799999D1*
X4699999D1*
X3600393Y1800393D2*
X3700393D1*
X3500393D2*
X3600393D1*
X7099999Y3849999D2*
D14*
X7292519D1*
X7294094Y3848424D1*
X6749999Y3849999D2*
X7099999D1*
X6999999Y3299999D2*
D13*
X6649999Y3649999D1*
Y3794541D1*
X6705457Y3849999D1*
X6749999D1*
X6899999Y849999D2*
Y949999D1*
X7193700Y624606D2*
X6968306Y849999D1*
X6899999D1*
X5049999Y1749999D2*
X5149999Y1849999D1*
X6824999D1*
X7700983Y1590550D2*
D14*
X7800983Y1490550D1*
X7825983D1*
X7499999Y1378739D2*
D13*
X7700983Y1579724D1*
Y1590550D1*
X6949999Y1199999D2*
X7128739Y1378739D1*
X7499999D1*
X3549999Y2542559D2*
D15*
X3266499D1*
X3246499Y2522559D1*
Y2266496D1*
X3226499Y2246496D1*
X3173503D1*
X3153503Y2226496D1*
Y2199999D1*
X6590550Y2999999D2*
X6370551Y3219999D1*
X6280000D1*
X6199999Y3299999D1*
X8049999Y3849999D2*
X7874999Y4024999D1*
X7749212D1*
X5899999Y2699999D2*
X5799999D1*
X3604684Y2599999D2*
Y2842559D1*
X3624684Y2862559D1*
X3883404D1*
X3903404Y2842559D1*
Y2669940D1*
X3923404Y2649940D1*
X4599999D1*
X4976180Y2197633D2*
X6465747D1*
X6448463Y908129D2*
Y972480D1*
X6396499Y1024444D1*
Y1240890D1*
X6407719Y1252110D1*
Y1297248D1*
X5995432Y698468D2*
X6448463D1*
X4699999Y2549999D2*
X4630807Y2619192D1*
X3865314D1*
X3845314Y2639192D1*
Y2822559D1*
X3825314Y2842559D1*
X3666889D1*
X3646889Y2822559D1*
Y2762303D1*
X6086459Y1631259D2*
X6100633Y1645433D1*
X6327243D1*
X4974774Y2084688D2*
X5523372D1*
X5581676Y2142992D1*
X6443144D1*
X6449999Y2136137D1*
X3646889Y2762303D2*
Y2153896D1*
X3700393Y2100393D1*
X4976180Y1953507D2*
Y1717637D1*
X4913739Y1655196D1*
Y1469212D1*
X6027243D1*
X6047243Y1449212D1*
Y969999D1*
X6067243Y949999D1*
X6199999D1*
X4240479Y2046499D2*
X4726499D1*
X4746499Y2026499D1*
Y1953507D1*
X4945432Y1620248D2*
X4933739Y1608555D1*
Y1489212D1*
X6047243D1*
X6067243Y1469212D1*
Y1018464D1*
X6087243Y998464D1*
X6251535D1*
X6299999Y949999D1*
X4039141Y2107996D2*
X4651420D1*
X4009420Y1191417D2*
X4040200Y1160637D1*
Y973740D1*
X4060200Y953740D1*
X5042676D1*
X5062676Y973740D1*
Y1006181D1*
X5082676Y1026181D1*
X5328463D1*
X5348463Y1006181D1*
Y904685D1*
X5368463Y884685D1*
X6334685D1*
X6399999Y949999D1*
X3427759Y1688188D2*
X3808385D1*
X4271227Y2568444D2*
X3777637D1*
X6387794Y3647637D2*
Y3532559D1*
X5949999Y1956929D2*
X5196495D1*
X5296495Y1995318D2*
X6049999D1*
X3199999Y3699999D2*
X3041181D1*
X3021180Y3679999D1*
Y3266496D1*
X3001180Y3246496D1*
X2420397D1*
X2400393Y3226491D1*
Y2599999D1*
X3199999Y3899999D2*
X3021181D1*
X3001180Y3879999D1*
Y3357755D1*
X2981180Y3337755D1*
X2650870D1*
X2642129Y3346496D1*
X2371180D1*
X2351180Y3326496D1*
Y2449212D1*
X2400393Y2399999D1*
X7193700Y760235D2*
D13*
X7293700Y660235D1*
Y624606D1*
X7493700Y871653D2*
X7548818Y816535D1*
Y679724D1*
X7493700Y624606D1*
X893700Y3745669D2*
X793700Y3645669D1*
Y1009330D1*
X811750D1*
X841731Y979348D1*
Y924212D1*
X790550Y873031D1*
X893700Y3993700D2*
X887401Y3999999D1*
X599999D1*
Y3689369D1*
X669684Y3619684D1*
Y925393D1*
X617322Y873031D1*
X5799211Y729216D2*
D15*
X5519999D1*
X5499999Y709216D1*
Y649999D1*
X5930747Y1409212D2*
X5948463Y1391496D1*
Y1248972D1*
X4945432Y1853314D2*
Y1746889D1*
X4873739Y1675196D1*
Y1469212D1*
X4893739Y1449212D1*
X6007243D1*
X6027243Y1429212D1*
Y1018031D1*
X5979211Y969999D1*
X5119881Y904488D2*
Y995433D1*
X5149999Y1118425D2*
X5419251D1*
X5206928Y759960D2*
X5145432D1*
X5449999Y1149173D2*
X5461499Y1137673D1*
X5540786D1*
X6527247Y1434728D2*
X6954684D1*
X7195113Y1675157D1*
X7714408D1*
X7732676Y1749999D2*
X7449999D1*
X7299999Y1899999D1*
Y2249999D1*
Y2324999D1*
X4513621Y1632484D2*
X4367515D1*
X4299999Y1699999D1*
X6217991Y1311220D2*
X6143503Y1385708D1*
Y1530708D1*
X6123503Y1550708D1*
X4993830D1*
X6904566Y1403980D2*
X6399393D1*
X4187007Y2232283D2*
X4382283D1*
X4399999Y2249999D1*
X4112204Y2232283D2*
X4144684Y2199802D1*
X4449802D1*
X4499999Y2249999D1*
X4346499Y1549496D2*
X4470948D1*
X3134369Y3799999D2*
Y3846499D1*
X3826495D1*
X3846495Y3826499D1*
Y3666499D1*
X3866495Y3646499D1*
X4194684D1*
X4214684Y3626499D1*
Y3145433D1*
X4234684Y3125433D1*
X4346499D1*
X6496499Y1645433D2*
X6525751Y1674685D1*
X6774685D1*
X6849999Y1749999D1*
X3549251Y1312244D2*
X2761752D1*
X2675491Y1225983D1*
X4240200Y1301496D2*
Y1353499D1*
X4193700Y1399999D1*
X6849999Y2349999D2*
Y2549999D1*
X6999999Y2699999D1*
X4795050Y984488D2*
X5021928D1*
X5041928Y1004488D1*
Y1067677D1*
X5061928Y1087677D1*
X5389908D1*
X4670948Y904488D2*
X4795050D1*
X4670948Y986062D2*
X4227882D1*
X4213704Y1000240D1*
X3317247D2*
X3889211D1*
X3199999Y3499999D2*
X3377247Y3499996D1*
X7057239Y3219173D2*
Y3635830D1*
X7045432Y3647637D1*
X6642164Y3062244D2*
X6799093Y3219173D1*
X6954566D1*
X6854566Y2930748D2*
X6642164D1*
X5296495Y2447244D2*
Y2279133D1*
X5316495Y2259133D1*
X5927243D1*
X4599763Y1207996D2*
X4661256Y1146503D1*
X4720200D1*
X4740200Y1126503D1*
Y1099999D1*
X4793700D1*
X6799999Y2699999D2*
X6569999Y2469999D1*
Y2446752D1*
X6496495Y2373248D1*
Y2166885D1*
X5005522D1*
X3746889Y2537696D2*
X4176748D1*
X4387196Y2327248D1*
X4766495D1*
X4996180Y1592204D2*
Y1830527D1*
X5006928Y1841275D1*
Y2030086D1*
X5004566Y2032448D1*
X5799999Y1009212D2*
X5575393D1*
X5527676Y1056929D1*
X5089133D1*
X3437696Y2747208D2*
X2992991D1*
X2475491Y1378625D2*
X3324802D1*
X3392676Y1446499D1*
X3948267D1*
X5017085Y2980748D2*
Y3916889D1*
X4008389Y2737992D2*
X4630747D1*
X2475491Y1225983D2*
X2392145Y1309330D1*
X2151546D1*
X2006239Y1454637D1*
X4293700Y1399999D2*
X4424207Y1269492D1*
X4507353D1*
X5548463Y1398464D2*
X5032483D1*
X4960200Y1326181D1*
X4697944D1*
X4641255Y1269492D1*
X5996495Y1519960D2*
X6067243D1*
X6087243Y1499960D1*
Y1049212D1*
X6107243Y1029212D1*
X6365751D1*
X5996495Y1051480D2*
X5899999D1*
X6140479Y3346499D2*
X6326495D1*
X6346495Y3326499D1*
Y3259999D1*
X6366495Y3239999D1*
X6639999D1*
X6699999Y3299999D1*
X5649999Y2349999D2*
Y2611496D1*
Y1895433D2*
X5996495D1*
X5899999Y1051480D2*
X5591534D1*
X5571534Y1071480D1*
Y1159921D1*
X5551534Y1179921D1*
X4960200D1*
X4940200Y1159921D1*
Y1067559D1*
X4920200Y1047559D1*
X4560042D1*
X4540200Y1067401D1*
X4520357Y1047559D1*
X4246140D1*
X4193700Y1099999D1*
X4540200Y1067401D2*
Y1177248D1*
X4868936Y1295433D2*
Y1228425D1*
X4888936Y1208425D1*
X5613030D1*
Y1163228D1*
X5696495Y2095433D2*
X5896495D1*
X6340479Y2746499D2*
X5766495D1*
X5746495Y2726499D1*
Y2539999D1*
X5696495Y2489999D1*
X3948267Y1518748D2*
X2006239D1*
X4393700D2*
X4039133D1*
X4393700Y1399999D2*
X4492322Y1301377D1*
X4536696D1*
X5613030Y1163228D2*
X5879211D1*
X6549999Y2349999D2*
X6899999Y2699999D1*
X4929684Y1269921D2*
X5679211D1*
X6408507Y1796496D2*
X5716495D1*
X5696495Y1776496D1*
Y1605539D1*
X6549999Y2349999D2*
Y2105389D1*
X6529999Y2085389D1*
X6408507D1*
X5679211Y1269921D2*
X5828463D1*
X5848463Y1289921D1*
Y1389212D1*
X5828463Y1409212D1*
X5779211D1*
D53*
X6824999Y1849999D3*
X4899999Y499999D3*
X4699999Y3424999D3*
X7424999Y1849999D3*
X6949999Y1199999D3*
X7674999Y2224999D3*
X4699999Y3174999D3*
X5699999Y2549999D3*
X6599999Y3749999D3*
X6799999Y2549999D3*
X7124999D3*
X7199999D3*
X7949999Y1399999D3*
X7249999Y2399999D3*
X7299999Y2324999D3*
X5995432Y739964D3*
X5860708D3*
X5145432Y698464D3*
X4985432Y546499D3*
X4739133D3*
X3400680D3*
X829172Y718539D3*
X2818837Y2170433D3*
X2934074Y2963937D3*
Y3277244D3*
X2694648D3*
X2502759Y4235236D3*
Y4077244D3*
Y3415748D3*
X2221085Y3557244D3*
X5533227Y2492129D3*
X2526180Y3046496D3*
X2370487Y1983070D3*
X2067735Y1775476D3*
X3347995Y1342992D3*
X2849585D3*
X2067735Y2341692D3*
X2974684Y2375968D3*
X2849585D3*
Y2265129D3*
Y1713980D3*
X2929585Y1269330D3*
X1945432Y1652488D3*
X2933999D3*
Y2024570D3*
X3136987D3*
X3549251Y1160669D3*
X3980078D3*
X2016987Y1565240D3*
Y2249448D3*
Y2310944D3*
X3795747Y1621736D3*
X3106239D3*
X3489251Y1549496D3*
X3012991D3*
Y2599999D3*
X3116987D3*
X5151534Y3167401D3*
X3509491Y3446499D3*
X3632483D3*
X4577243Y3034685D3*
X2718837Y3071492D3*
X2861830D3*
Y3143740D3*
X2677247Y3177244D3*
X3469491Y3346496D3*
X3884885Y3746499D3*
X4649487Y3123740D3*
X2529585Y1420118D3*
X2686499D3*
X2677247Y3077244D3*
X4945432Y2125393D3*
X4777243D3*
X3945826Y2077248D3*
Y1877637D3*
X2649585Y1959133D3*
X5499999Y2125393D3*
X2495432Y2246496D3*
Y2769519D3*
X5582282Y1239173D3*
X5021928D3*
Y1145433D3*
X4513818Y1016811D3*
X3749030Y897251D3*
X2360334D3*
X2275491Y958744D3*
X3830526D3*
X4340200Y1238744D3*
X2102613Y2915748D3*
X4991180Y1300669D3*
X3930904Y735118D3*
X2418837Y1817157D3*
X2102613Y2653307D3*
X2418837Y780358D3*
X2109231Y2310944D3*
Y1878952D3*
X2153361Y2877244D3*
X1946495Y3040480D3*
X2118837Y1487999D3*
X3918924D3*
X4146499Y1590988D3*
X4501696D3*
X4964487Y1519960D3*
X5899999D3*
X2320432Y3946499D3*
X2970432D3*
X2320432Y2546496D3*
X2275491Y1903649D3*
X6357046Y3566141D3*
Y3431744D3*
X5611849Y3646499D3*
X6746495Y3254566D3*
X6249999Y1895433D3*
X5396495Y1926181D3*
X6055711Y599999D3*
X3163507Y721881D3*
X2970432Y3846496D3*
Y3677244D3*
X7137676Y3348425D3*
Y3487165D3*
X5965747Y1640240D3*
X5796495Y1687066D3*
X6014215Y648464D3*
X3900156Y704370D3*
X3075491Y775354D3*
X6136495Y1692751D3*
X6859684Y1895433D3*
X6396495Y2259133D3*
X5996495D3*
X3054487Y4046496D3*
X3438743D3*
Y3246496D3*
X3150432D3*
X3390184Y3046496D3*
X7087987Y3425669D3*
X6935589Y3695433D3*
X1299999Y4204488D3*
X3054487D3*
Y4087992D3*
X3133503D3*
X3147735Y2359519D3*
Y2640480D3*
Y2946496D3*
X7210589Y3425669D3*
Y3248425D3*
X6147243Y1936929D3*
X6296495D3*
X4945432Y2228385D3*
X4797243D3*
X3976574Y2169059D3*
X3907987Y1846889D3*
X7210589Y3494921D3*
X3075491Y1846889D3*
X6139251Y2228385D3*
X2758837Y2933188D3*
X6696499Y1987755D3*
X6311062Y2112244D3*
X2975491Y1919133D3*
X3877243D3*
X3953704Y2296499D3*
X4854566D3*
X4945432D3*
X5047834Y3062244D3*
X4618739D3*
X3043739Y2841496D3*
X3030432Y3177244D3*
X2718743D3*
X2170337Y3246496D3*
X1403003Y3346496D3*
X6594995Y2807996D3*
X2170337Y3598740D3*
X1340479Y3646496D3*
X2775491Y2234385D3*
X2789585Y2326625D3*
X3504566Y2646496D3*
X3746893D3*
X5527243Y2777248D3*
X5745432D3*
X2789585Y2661472D3*
X4599999Y2649940D3*
X6465747Y2197633D3*
X4976180D3*
X6407719Y1297248D3*
X6448463Y908129D3*
Y698468D3*
X5995432D3*
X3604684Y2599999D3*
X6327243Y1645433D3*
X6086459Y1631259D3*
X6449999Y2136137D3*
X4974774Y2084688D3*
X3646889Y2762303D3*
X4976180Y1953507D3*
X4746499D3*
X4240479Y2046499D3*
X4945432Y1620248D3*
X4651420Y2107996D3*
X4039141D3*
X4009420Y1191417D3*
X3427759Y1688188D3*
X3808385D3*
X3777637Y2568444D3*
X4271227D3*
X6387794Y3532559D3*
Y3647637D3*
X5196495Y1956929D3*
X5949999D3*
X6049999Y1995318D3*
X5296495D3*
X5799211Y729216D3*
X5948463Y1248972D3*
X5930747Y1409212D3*
X5979211Y969999D3*
X4945432Y1853314D3*
X5119881Y995433D3*
Y904488D3*
X5419251Y1118425D3*
X5149999D3*
X5145432Y759960D3*
X5206928D3*
X5540786Y1137673D3*
X5449999Y1149173D3*
X7714408Y1675157D3*
X6527247Y1434728D3*
X4513621Y1632484D3*
X4993830Y1550708D3*
X6217991Y1311220D3*
X6399393Y1403980D3*
X6904566D3*
X4470948Y1549496D3*
X4346499D3*
Y3125433D3*
X3134369Y3799999D3*
X6496499Y1645433D3*
X3549251Y1312244D3*
X4240200Y1301496D3*
X5389908Y1087677D3*
X4795050Y984488D3*
Y904488D3*
X4670948D3*
X4213704Y1000240D3*
X3889211D3*
X3317247D3*
X3377247Y3499996D3*
X7045432Y3647637D3*
X7057239Y3219173D3*
X6954566D3*
X6642164Y3062244D3*
Y2930748D3*
X6854566D3*
X4670948Y986062D3*
X5927243Y2259133D3*
X5296495Y2447244D3*
X4599763Y1207996D3*
X4766495Y2327248D3*
X3746889Y2537696D3*
X5004566Y2032448D3*
X4996180Y1592204D3*
X5089133Y1056929D3*
X5799999Y1009212D3*
X5005522Y2166885D3*
X2992991Y2747208D3*
X3437696D3*
X3948267Y1446499D3*
X2475491Y1378625D3*
X5017085Y3916889D3*
Y2980748D3*
X4630747Y2737992D3*
X4008389D3*
X2006239Y1454637D3*
X4507353Y1269492D3*
X4641255D3*
X5548463Y1398464D3*
X6365751Y1029212D3*
X5996495Y1519960D3*
X6140479Y3346499D3*
X5649999Y2611496D3*
X5996495Y1051480D3*
Y1895433D3*
X5649999D3*
X4540200Y1177248D3*
X5899999Y1051480D3*
X5879211Y1163228D3*
X5896495Y2095433D3*
X5696495D3*
Y2489999D3*
X6340479Y2746499D3*
X2006239Y1518748D3*
X3948267D3*
X4039133D3*
X4393700D3*
X4536696Y1301377D3*
X4868936Y1295433D3*
X5613030Y1163228D3*
X5779211Y1409212D3*
X5696495Y1605539D3*
X6408507Y1796496D3*
Y2085389D3*
X4929684Y1269921D3*
X5679211D3*
D18*
X7932676Y2249999D3*
D19*
Y1949999D3*
D20*
X5699802Y3550393D3*
D21*
X5799802D3*
X5899802D3*
X5999802D3*
X6099802D3*
X6199802D3*
X6299802D3*
Y3850393D3*
X6199802D3*
X6099802D3*
X5999802D3*
X5899802D3*
X5799802D3*
X5699802D3*
D20*
X1899999Y2599999D3*
D21*
Y2699999D3*
Y2799999D3*
Y2899999D3*
Y2999999D3*
Y3099999D3*
Y3199999D3*
Y3299999D3*
Y3399999D3*
Y3499999D3*
Y3599999D3*
Y3699999D3*
Y3799999D3*
Y3899999D3*
Y3999999D3*
Y4099999D3*
X1299999D3*
Y3999999D3*
Y3899999D3*
Y3799999D3*
Y3699999D3*
Y3599999D3*
Y3499999D3*
Y3399999D3*
Y3299999D3*
Y3199999D3*
Y3099999D3*
Y2999999D3*
Y2899999D3*
Y2799999D3*
Y2699999D3*
Y2599999D3*
D18*
X3399999D3*
D19*
X3699999D3*
D20*
X5049999Y1749999D3*
D21*
X5149999D3*
X5249999D3*
X5349999D3*
X5449999D3*
X5549999D3*
X5649999D3*
X5749999D3*
X5849999D3*
X5949999D3*
X6049999D3*
X6149999D3*
X6249999D3*
X6349999D3*
X6449999D3*
X6549999D3*
X6649999D3*
X6749999D3*
X6849999D3*
X6949999D3*
Y2349999D3*
X6849999D3*
X6749999D3*
X6649999D3*
X6549999D3*
X6449999D3*
X6349999D3*
X6249999D3*
X6149999D3*
X6049999D3*
X5949999D3*
X5849999D3*
X5749999D3*
X5649999D3*
X5549999D3*
X5449999D3*
X5349999D3*
X5249999D3*
X5149999D3*
X5049999D3*
D22*
X6193700Y599999D3*
D23*
X6293700D3*
X6393700D3*
X6493700D3*
X6593700D3*
X6693700D3*
X6793700D3*
X6893700D3*
D22*
X6199999Y949999D3*
D23*
X6299999D3*
X6399999D3*
D24*
X7655117Y593700D3*
Y849606D3*
X7832283Y593700D3*
Y849606D3*
D22*
X6899999Y849999D3*
D23*
X6799999D3*
X6899999Y949999D3*
X6799999D3*
D25*
X7199999Y1093700D3*
D26*
X7249999Y1143700D3*
X7299999Y1093700D3*
D24*
X3949999Y3399999D3*
Y3793700D3*
D22*
X5099999Y549999D3*
D23*
Y649999D3*
X5199999Y549999D3*
Y649999D3*
X5299999Y549999D3*
Y649999D3*
X5399999Y549999D3*
Y649999D3*
X5499999Y549999D3*
Y649999D3*
X5599999Y549999D3*
Y649999D3*
D22*
X4699999Y2799999D3*
D27*
X4799999D3*
X4899999D3*
X4999999D3*
X5099999D3*
X5199999D3*
D28*
X543700Y4143700D3*
Y2017716D3*
X7472834Y4143700D3*
Y2017716D3*
D20*
X7394094Y3848424D3*
D29*
X7294094D3*
X7394094Y3748424D3*
X7294094D3*
X7394094Y3648424D3*
X7294094D3*
X7394094Y3548424D3*
X7294094D3*
X7394094Y3448424D3*
X7294094D3*
X7394094Y3348424D3*
X7294094D3*
X7394094Y3248424D3*
X7294094D3*
X7394094Y3148424D3*
X7294094D3*
X7394094Y3048424D3*
X7294094D3*
X7394094Y2948424D3*
X7294094D3*
X7394094Y2848424D3*
X7294094D3*
D22*
X5199999Y949999D3*
D23*
X5299999D3*
X5399999D3*
X5499999D3*
X5599999D3*
X5699999D3*
X5799999D3*
X5899999D3*
D20*
X8032676Y1849999D3*
D29*
X7932676D3*
D30*
X7832676D3*
D20*
X7732676D3*
D29*
Y1749999D3*
X7832676D3*
X7932676D3*
X8032676D3*
X4699999Y2649999D3*
X4798424D3*
D20*
X2599999Y4099999D3*
D21*
Y3999999D3*
Y3899999D3*
Y3799999D3*
Y3699999D3*
Y3599999D3*
Y3499999D3*
Y3399999D3*
Y3299999D3*
Y3199999D3*
Y3099999D3*
Y2999999D3*
Y2899999D3*
Y2799999D3*
Y2699999D3*
Y2599999D3*
Y2499999D3*
Y2399999D3*
Y2299999D3*
Y2199999D3*
X3199999D3*
Y2299999D3*
Y2399999D3*
Y2499999D3*
Y2599999D3*
Y2699999D3*
Y2799999D3*
Y2899999D3*
Y2999999D3*
Y3099999D3*
Y3199999D3*
Y3299999D3*
Y3399999D3*
Y3499999D3*
Y3599999D3*
Y3699999D3*
Y3799999D3*
Y3899999D3*
Y3999999D3*
Y4099999D3*
D18*
X2100393Y2599999D3*
D19*
X2400393D3*
D31*
X7499999Y1499999D3*
D32*
Y1578739D3*
D18*
X8032676Y2399999D3*
D19*
X7732676D3*
D18*
X8032676Y1949999D3*
D19*
Y2249999D3*
D33*
X1599999Y3199999D3*
Y3790550D3*
X4143700Y1249999D3*
X4734251D3*
D20*
X4099999Y1699999D3*
D21*
X4199999D3*
X4299999D3*
X4399999D3*
X4499999D3*
X4599999D3*
X4699999D3*
Y1999999D3*
X4599999D3*
X4499999D3*
X4399999D3*
X4299999D3*
X4199999D3*
X4099999D3*
D18*
X7193700Y871653D3*
D19*
X7493700D3*
D18*
X7649999Y3834251D3*
D19*
Y3734251D3*
D29*
X7099999Y3751574D3*
Y3849999D3*
D34*
X1875491Y625983D3*
D35*
X1975491D3*
X2075491D3*
X2175491D3*
X2275491D3*
X2375491D3*
X2475491D3*
X2575491D3*
X2675491D3*
X2775491D3*
X2875491D3*
X2975491D3*
X3075491D3*
X3175491D3*
Y1225983D3*
X3075491D3*
X2975491D3*
X2875491D3*
X2775491D3*
X2675491D3*
X2575491D3*
X2475491D3*
X2375491D3*
X2275491D3*
X2175491D3*
X2075491D3*
X1975491D3*
X1875491D3*
D20*
X4093700Y499999D3*
D21*
X4193700D3*
X4293700D3*
X4393700D3*
X4493700D3*
X4593700D3*
X4693700D3*
Y799999D3*
X4593700D3*
X4493700D3*
X4393700D3*
X4293700D3*
X4193700D3*
X4093700D3*
D20*
X6249999Y1199999D3*
D21*
X6349999D3*
X6449999D3*
X6549999D3*
X6649999D3*
X6749999D3*
X6849999D3*
Y1499999D3*
X6749999D3*
X6649999D3*
X6549999D3*
X6449999D3*
X6349999D3*
X6249999D3*
D20*
X7843700Y3351574D3*
D29*
Y3249212D3*
Y3434251D3*
Y3166535D3*
X7733464Y3434251D3*
Y3166535D3*
D36*
X7955905Y3030708D3*
D37*
X7987401Y3300393D3*
D36*
X7955905Y3570078D3*
D29*
X599999Y1099999D3*
Y1198424D3*
D20*
X6749999Y3751574D3*
D29*
Y3849999D3*
D18*
X7749999Y3834251D3*
D19*
Y3734251D3*
D18*
X3399999Y2799999D3*
D19*
X3699999D3*
D28*
X543700Y543700D3*
D33*
X5999999Y2999999D3*
X6590550D3*
D22*
X6199999Y4149999D3*
D23*
X6299999D3*
X6399999D3*
X6499999D3*
D22*
X5199999Y1349999D3*
D23*
X5299999D3*
X5399999D3*
X5499999D3*
X5599999D3*
X5699999D3*
X5799999D3*
X5899999D3*
D31*
X7499999Y1299999D3*
D32*
Y1378739D3*
D24*
X4203346Y1849606D3*
X4597046D3*
X6196850Y3699999D3*
X5803149D3*
X6747046Y1349606D3*
X6353346D3*
D38*
X893700Y3745669D3*
D39*
Y3993700D3*
D40*
X704724Y3859842D3*
D41*
X593700Y1593700D3*
D42*
Y1493700D3*
Y1393700D3*
D20*
X7951574Y3849999D3*
D29*
X8049999D3*
X7700983Y1292125D3*
Y1390550D3*
D43*
X7299999Y1549999D3*
D44*
X7199999D3*
D45*
X7299999Y2249999D3*
D46*
X7249999D3*
X7199999D3*
D18*
X7493700Y760235D3*
D19*
X7193700D3*
D29*
X7749212Y4024999D3*
X7650787D3*
D18*
X3900393Y2299999D3*
D19*
X3600393D3*
D18*
X3700393Y2499999D3*
D19*
X3400393D3*
D18*
X8032676D3*
D19*
X7732676D3*
D20*
X4399999Y2249999D3*
D21*
X4499999D3*
X4599999D3*
X4699999D3*
Y2549999D3*
X4599999D3*
X4499999D3*
X4399999D3*
D47*
X7825983Y1490550D3*
Y1399999D3*
D48*
X8074015D3*
D47*
X7825983Y1309448D3*
D29*
X899999Y1593700D3*
Y1495275D3*
D49*
X617322Y951771D3*
Y873031D3*
Y794291D3*
X790550Y951771D3*
Y873031D3*
Y794291D3*
D20*
X3993700Y1099999D3*
D21*
X4093700D3*
X4193700D3*
X4293700D3*
X4393700D3*
X4493700D3*
X4593700D3*
X4693700D3*
X4793700D3*
X4893700D3*
Y1399999D3*
X4793700D3*
X4693700D3*
X4593700D3*
X4493700D3*
X4393700D3*
X4293700D3*
X4193700D3*
X4093700D3*
X3993700D3*
D24*
X3594684Y700983D3*
Y1094684D3*
D20*
X3799999Y3899999D3*
D21*
Y3799999D3*
Y3699999D3*
Y3599999D3*
Y3499999D3*
Y3399999D3*
Y3299999D3*
Y3199999D3*
X4099999D3*
Y3299999D3*
Y3399999D3*
Y3499999D3*
Y3599999D3*
Y3699999D3*
Y3799999D3*
Y3899999D3*
D43*
X7393700Y624606D3*
D44*
X7493700D3*
D28*
X8043700Y543700D3*
D43*
X7193700Y624606D3*
D44*
X7293700D3*
D50*
X7999999Y2849999D3*
X7899999Y2749999D3*
X7799999Y2849999D3*
D18*
X8132676Y2249999D3*
D19*
Y1949999D3*
D119*
X4187007Y2232283D3*
X4112204D3*
D20*
X6999999Y3299999D3*
D21*
X6899999D3*
X6799999D3*
X6699999D3*
X6599999D3*
X6499999D3*
X6399999D3*
X6299999D3*
X6199999D3*
X6099999D3*
X5999999D3*
X5899999D3*
X5799999D3*
X5699999D3*
Y2699999D3*
X5799999D3*
X5899999D3*
X5999999D3*
X6099999D3*
X6199999D3*
X6299999D3*
X6399999D3*
X6499999D3*
X6599999D3*
X6699999D3*
X6799999D3*
X6899999D3*
X6999999D3*
D28*
X8043700Y4143700D3*
D20*
X3400393Y1800393D3*
D21*
X3500393D3*
X3600393D3*
X3700393D3*
Y2100393D3*
X3600393D3*
X3500393D3*
X3400393D3*
D22*
X5849999Y649999D3*
D23*
X5949999D3*
X5849999Y549999D3*
X5949999D3*
D33*
X6849999Y2049999D3*
X6259448D3*
D24*
X4599999Y649999D3*
X4206298D3*
D18*
X3699999Y2699999D3*
D19*
X3399999D3*
D18*
X2100393Y2399999D3*
D19*
X2400393D3*
D33*
X2899999Y3399999D3*
Y2809448D3*
D29*
X7700983Y1492125D3*
Y1590550D3*
D51*
X4949999Y3141808D3*
D52*
Y3909524D3*
M02*
