%TF.GenerationSoftware,Novarm,DipTrace,4.3.0.4*%
%TF.CreationDate,2023-05-29T14:58:25+01:00*%
%FSLAX26Y26*%
%MOIN*%
%TF.FileFunction,Copper,L2,Bot*%
%TF.Part,Single*%
%TA.AperFunction,Conductor*%
%ADD13C,0.03937*%
%ADD14C,0.019685*%
%ADD15C,0.01*%
%TA.AperFunction,ComponentPad*%
%ADD18C,0.055118*%
%ADD19C,0.055118*%
%ADD20R,0.062992X0.062992*%
%ADD21C,0.062992*%
%ADD22R,0.066929X0.066929*%
%ADD23C,0.066929*%
%ADD24C,0.07874*%
%ADD25R,0.051181X0.051181*%
%ADD26C,0.051181*%
%ADD27C,0.066929*%
%ADD28C,0.19685*%
%ADD29C,0.062992*%
%ADD30C,0.06*%
%ADD31R,0.047244X0.047244*%
%ADD32C,0.047244*%
%ADD33C,0.094488*%
%ADD34R,0.056693X0.056693*%
%ADD35C,0.056693*%
%ADD36O,0.137795X0.07874*%
%ADD37O,0.07874X0.15748*%
%ADD38R,0.181102X0.07874*%
%ADD39O,0.165354X0.07874*%
%ADD40O,0.07874X0.165354*%
%ADD41R,0.07874X0.075*%
%ADD42O,0.07874X0.075*%
%ADD43R,0.070866X0.070866*%
%ADD44C,0.070866*%
%ADD45R,0.041339X0.059055*%
%ADD46O,0.041339X0.059055*%
%ADD49O,0.047244X0.06*%
%ADD50C,0.056693*%
%ADD51R,0.082677X0.082677*%
%ADD52C,0.082677*%
%TA.AperFunction,ViaPad*%
%ADD53C,0.031496*%
%TA.AperFunction,ComponentPad*%
%ADD119C,0.03937*%
G75*
G01*
%LPD*%
X7249999Y2399999D2*
D13*
X7732676D1*
X7499999Y1499999D2*
X7693109D1*
X7700983Y1492125D1*
X7793109Y1399999D1*
X7949999D1*
X599999Y1198424D2*
X672440D1*
X699999Y1225983D1*
Y1287401D1*
X593700Y1393700D1*
X6599999Y3749999D2*
D14*
X6724999D1*
X6749999Y3751574D1*
X7843700Y3166535D2*
X7625590Y2948424D1*
X7394094D1*
X5699999Y2549999D2*
X6799999D1*
X7124999D2*
D13*
Y2579330D1*
X7394094Y2848424D1*
X1875491Y1225983D2*
X699999D1*
X6724999Y3749999D2*
D14*
X6726574Y3751574D1*
X6749999D1*
X3699999Y2799999D2*
D15*
Y3299999D1*
X3799999Y3399999D1*
X7749999Y3734251D2*
X7697282Y3786968D1*
Y3978503D1*
X7650787Y4024999D1*
X1299999Y2799999D2*
Y2699999D1*
X3799999Y3399999D2*
X3733503Y3466495D1*
Y3626499D1*
X3753503Y3646499D1*
X3929999D1*
X3949999Y3666499D1*
Y3793700D1*
X1299999Y2699999D2*
Y2599999D1*
X593700Y1593700D2*
D13*
X899999D1*
X5860708Y739964D2*
D15*
X5995432D1*
X4985432Y546499D2*
Y678464D1*
X5005432Y698464D1*
X5145432D1*
X3400680Y546499D2*
X4739133D1*
X790550Y794291D2*
Y718539D1*
X829172D1*
X5533227Y2492129D2*
Y2726499D1*
X5553227Y2746499D1*
X5779994D1*
X5799999Y2766504D1*
Y3299999D1*
X2221085Y3557244D2*
Y3435748D1*
X2241085Y3415748D1*
X2502759D1*
X2818837Y2170433D2*
Y669329D1*
X2775491Y625983D1*
X2934074Y3277244D2*
Y2963937D1*
X5249999Y2349999D2*
Y1931181D1*
X5199999Y1881181D1*
Y1349999D1*
X2502759Y4077244D2*
Y4235236D1*
X5799999Y3299999D2*
Y3373461D1*
X5846298Y3419760D1*
Y3596889D1*
X7245629D1*
X7294094Y3548424D1*
X2599999Y3299999D2*
X2694648D1*
Y3277244D1*
X2502759Y3415748D2*
Y3319999D1*
X2522759Y3299999D1*
X2599999D1*
X2526180Y3046496D2*
X2046621D1*
X2026621Y3066496D1*
Y3426496D1*
X2006621Y3446496D1*
X1563133D1*
X1432385Y3315748D1*
X1366495D1*
X1346495Y3335748D1*
Y3453503D1*
X1299999Y3499999D1*
X2599999Y2299999D2*
X2646499Y2253499D1*
Y2126322D1*
X2575491Y2055314D1*
Y1225983D1*
X2599999Y2199999D2*
X2545921D1*
X2370487Y2024566D1*
Y1983070D1*
Y1582586D1*
X2375491Y1577582D1*
Y1225983D1*
X2067735Y1775476D2*
X2036987Y1744728D1*
Y1668606D1*
X2047735Y1657858D1*
Y1418338D1*
X2018837Y1389440D1*
Y669329D1*
X1975491Y625983D1*
X3347995Y1342992D2*
Y886503D1*
X3367995Y866503D1*
X4573700D1*
X4593700Y886502D1*
Y1099999D1*
X2849585Y2265129D2*
Y1713980D1*
X2067735Y2341692D2*
X2037834Y2371593D1*
Y2762164D1*
X1899999Y2899999D1*
X2849585Y2375968D2*
X2974684D1*
X2849585Y1713980D2*
Y1342992D1*
X2933999Y2024570D2*
Y1652488D1*
X1945432D2*
X1477755Y2120165D1*
Y2822243D1*
X1299999Y2999999D1*
X3980078Y1160669D2*
X3549251D1*
X2933999Y1652488D2*
Y1273744D1*
X2929585Y1269330D1*
X3136987Y2024570D2*
X3129880Y2031677D1*
X3115491D1*
Y2379999D1*
X3135492Y2399999D1*
X3199999D1*
X3106239Y1621736D2*
Y1897011D1*
X3095491Y1907759D1*
Y2479999D1*
X3115492Y2499999D1*
X3199999D1*
X2016987Y2249448D2*
Y1565240D1*
X1899999Y2799999D2*
X1957243Y2742755D1*
Y2310944D1*
X2016987D1*
X3795747Y1621736D2*
Y1352244D1*
X3815747Y1332244D1*
X4373700D1*
X4393700Y1312244D1*
Y1099999D1*
X3012991Y1549496D2*
Y2599999D1*
X3489251Y1549496D2*
Y1262165D1*
X3509251Y1242165D1*
X4060199D1*
X4155865Y1146499D1*
X4247200D1*
X4293700Y1099999D1*
X3199999Y2599999D2*
X3116987D1*
X3012991D2*
X2820334Y2792656D1*
Y3526496D1*
X2800334Y3546496D1*
X2409810D1*
X2309810Y3646496D1*
X1837755D1*
X1537755Y3946496D1*
X1253507D1*
X1233507Y3926496D1*
Y3666491D1*
X1299999Y3599999D1*
X2677247Y3177244D2*
X2654492Y3199999D1*
X2599999D1*
X5299999Y1349999D2*
Y1911925D1*
X5349999Y1961925D1*
Y2349999D1*
X3632483Y3446499D2*
X3509491D1*
X5349999Y2349999D2*
Y2511766D1*
X5151534Y2710231D1*
Y3011654D1*
X5131692Y3031496D1*
X5151534Y3051338D1*
Y3167401D1*
X2718837Y3071492D2*
Y669329D1*
X2675491Y625983D1*
X2861830Y3143740D2*
Y3071492D1*
X2599999Y3199999D2*
X2159589D1*
X2139589Y3219999D1*
Y3579999D1*
X2119589Y3599999D1*
X1899999D1*
X5131692Y3031496D2*
X4580432D1*
X4577243Y3034685D1*
X2686499Y1420118D2*
Y3037244D1*
X2677247Y3046496D1*
Y3077244D1*
X3884885Y3746499D2*
X3489491D1*
X3469491Y3726499D1*
Y3346496D1*
X5399999Y1349999D2*
Y1812842D1*
X5449999Y1862842D1*
Y2349999D1*
X2529585Y1420118D2*
Y671889D1*
X2575491Y625983D1*
X2599999Y3099999D2*
X2079589D1*
X2059589Y3119999D1*
Y3479999D1*
X2039589Y3499999D1*
X1899999D1*
X2677247Y3077244D2*
X2646499D1*
Y3099999D1*
X2599999D1*
X5449999Y2349999D2*
Y3198149D1*
X5429999Y3218149D1*
X4849313D1*
X4754904Y3123740D1*
X4649487D1*
X2475491Y625983D2*
X2538834Y562641D1*
X2598837D1*
X2618837Y582641D1*
Y1928385D1*
X2649585Y1959133D1*
X4777243Y2125393D2*
X4945432D1*
X3945826Y1877637D2*
Y2077248D1*
X2599999Y2999999D2*
X2026621D1*
X2006621Y3019999D1*
Y3293377D1*
X1899999Y3399999D1*
X2649585Y1959133D2*
Y1989881D1*
X2666499Y2006795D1*
Y2979995D1*
X2646495Y2999999D1*
X2599999D1*
X5499999Y2125393D2*
X5549999Y2175393D1*
Y2349999D1*
X5499999Y1349999D2*
Y2125393D1*
X2375491Y625983D2*
X2332145Y582637D1*
X2138837D1*
X2118837Y602637D1*
Y791106D1*
X2138837Y811106D1*
X2371082D1*
X2391082Y831106D1*
Y866503D1*
X2360334Y897251D1*
X2495432Y2769519D2*
X2469684D1*
Y2826653D1*
X2331991D1*
X2212148Y2946496D1*
X1853503D1*
X1833503Y2966496D1*
Y3233503D1*
X1899999Y3299999D1*
X5582282Y1239173D2*
X5599999Y1256890D1*
Y1349999D1*
X5021928Y1145433D2*
Y1239173D1*
X3749030Y897251D2*
X4493819D1*
X4513818Y917250D1*
Y1016811D1*
X2469684Y2826653D2*
X2543031Y2899999D1*
X2599999D1*
X2360334Y897251D2*
X2318837Y938748D1*
Y2069901D1*
X2495432Y2246496D1*
X1899999Y3199999D2*
X1977243Y3122755D1*
Y2986496D1*
X1997243Y2966496D1*
X2315849D1*
X2335849Y2946496D1*
X2626499D1*
X2646499Y2926496D1*
Y2846499D1*
X2599999Y2799999D1*
X4340200Y1238744D2*
Y978744D1*
X4320200Y958744D1*
X3830526D1*
X2599999Y2799999D2*
X2646499Y2753499D1*
Y2466496D1*
X2626499Y2446496D1*
X2238837D1*
X2218837Y2426496D1*
Y1015398D1*
X2275491Y958744D1*
X2102613Y2653307D2*
Y2915748D1*
X3930904Y735118D2*
X4720200D1*
X4740200Y755118D1*
Y1126499D1*
X4760200Y1146499D1*
X4971180D1*
X4991180Y1166499D1*
Y1300669D1*
X2418837Y1817157D2*
Y780358D1*
X2102613Y2915748D2*
X2184109D1*
X2399858Y2699999D1*
X2599999D1*
X2418837Y780358D2*
X2329866D1*
X2175491Y625983D1*
X2109231Y2310944D2*
X2153361Y2355074D1*
Y2626653D1*
X2173204Y2646496D1*
X2553503D1*
X2599999Y2599999D1*
X2075491Y625983D2*
Y871555D1*
X2118837Y914901D1*
Y1487999D1*
X2173204Y2646496D2*
X2153361Y2666339D1*
Y2877244D1*
X1946495Y3040480D2*
Y2999999D1*
X1899999D1*
X4146499Y1590988D2*
Y1507999D1*
X4126499Y1487999D1*
X3918924D1*
X4964487Y1519960D2*
X4572724D1*
X4501696Y1590988D1*
X5899999Y1349999D2*
Y1519960D1*
X2118837Y1487999D2*
Y1878952D1*
X2109231D1*
X2599999Y2499999D2*
X2366929D1*
X2320432Y2546496D1*
X2195491D1*
X2175491Y2526496D1*
Y2300039D1*
X2155648Y2280196D1*
X1608915D1*
X1588915Y2300196D1*
Y2811083D1*
X1299999Y3099999D1*
X2970432Y3946499D2*
X2320432D1*
X2155648Y2280196D2*
X2175491Y2260353D1*
Y1225983D1*
X2275491D2*
Y1903649D1*
Y2075491D1*
X2599999Y2399999D1*
X6357046Y3431744D2*
Y3566141D1*
X7199999Y2549999D2*
X7982676D1*
X8032676Y2499999D1*
X5611849Y3646499D2*
X5558349Y3699999D1*
X4099999D1*
X6746495Y3254566D2*
Y3299999D1*
X6799999D1*
X4693700Y799999D2*
X4640200Y853499D1*
Y1126499D1*
X4620200Y1146499D1*
X4460200D1*
X4440200Y1126499D1*
Y937251D1*
X4420200Y917251D1*
X3819778D1*
X3799778Y937251D1*
Y1079999D1*
X3819779Y1099999D1*
X3993700D1*
X6249999Y1895433D2*
Y1749999D1*
X5396495Y1926181D2*
Y2603503D1*
X5199999Y2799999D1*
X5999999Y2699999D2*
Y2640748D1*
X6019999Y2620748D1*
X6426495D1*
X6446495Y2640748D1*
Y3148425D1*
X6466495Y3168425D1*
X7139841D1*
X7159841Y3188425D1*
Y3274921D1*
X7179841Y3294921D1*
X7340590D1*
X7394094Y3348424D1*
X2875491Y625983D2*
X2918838Y582637D1*
X3266656D1*
X3286499Y602480D1*
Y3313499D1*
X3199999Y3399999D1*
X5749999Y2349999D2*
X5816496Y2416496D1*
X5876495D1*
X5896495Y2396496D1*
Y2226181D1*
X6096495Y2026181D1*
Y1702791D1*
X6055711Y1662007D1*
Y599999D1*
X6193700D2*
Y458699D1*
X6173700Y438700D1*
X3450279D1*
X3286499Y602480D1*
X3199999Y3399999D2*
X3075495Y3524503D1*
Y3726496D1*
X3055495Y3746496D1*
X2554849D1*
X2501346Y3799999D1*
X1899999D1*
X2970432Y3677244D2*
X3035495D1*
X3055495Y3657244D1*
Y3444503D1*
X3199999Y3299999D1*
X2970432Y3846496D2*
X1953503D1*
X1899999Y3899999D1*
X7137676Y3348425D2*
X7294094Y3348424D1*
X6099999Y2699999D2*
Y2844504D1*
X6246495Y2991000D1*
Y3326499D1*
X6266495Y3346499D1*
X6317459D1*
X6458125Y3487165D1*
X7137676D1*
X6014215Y648464D2*
X6027243Y661492D1*
Y1620240D1*
X6007243Y1640240D1*
X5965747D1*
X5849999Y2349999D2*
X5796495Y2296495D1*
Y1687066D1*
X3199999Y3299999D2*
X3266499Y3233499D1*
Y824873D1*
X3163507Y721881D1*
X6199999Y2699999D2*
X6140748Y2640748D1*
X6066495D1*
X6046495Y2660748D1*
Y2746499D1*
X6026495Y2766499D1*
X5966495D1*
X5946495Y2746499D1*
Y2620748D1*
X5966495Y2600748D1*
X6726495D1*
X6746495Y2620748D1*
Y2974921D1*
X6766495Y2994921D1*
X7420593D1*
X7440593Y3014921D1*
Y3201925D1*
X7394094Y3248424D1*
X6393700Y599999D2*
X6345235Y648464D1*
X6156337D1*
X6136495D1*
Y478700D1*
X6116495Y458700D1*
X4789881D1*
X4769881Y478700D1*
Y684370D1*
X4749881Y704370D1*
X3900156D1*
X3150432Y3246496D2*
Y3199999D1*
X3199999D1*
X6156337Y648464D2*
X6136495Y668306D1*
Y1692751D1*
X6396495Y2259133D2*
Y2376496D1*
X6416495Y2396496D1*
X6576495D1*
X6596495Y2376496D1*
Y2288381D1*
X6616495Y2268381D1*
X6767751D1*
X6787751Y2248381D1*
Y1967366D1*
X6859684Y1895433D1*
X5949999Y2349999D2*
X5996495Y2303503D1*
Y2259133D1*
X3054487Y4046496D2*
X1946496D1*
X1899999Y3999999D1*
X3438743Y3246496D2*
Y4046496D1*
X3075491Y775354D2*
Y625983D1*
X3199999Y3199999D2*
X3246499Y3153499D1*
Y946362D1*
X3075491Y775354D1*
X6049999Y2349999D2*
X6096496Y2396496D1*
X6176495D1*
X6196495Y2376496D1*
Y1658755D1*
X6156495Y1618755D1*
Y1018464D1*
X6176495Y998464D1*
X6473700D1*
X6493700Y978464D1*
Y599999D1*
X6299999Y2699999D2*
Y3188425D1*
X6319999Y3208425D1*
X6626495D1*
X6646495Y3228425D1*
Y3351318D1*
X6666495Y3371318D1*
X7026491D1*
Y3405669D1*
X7046491Y3425669D1*
X7087987D1*
X6935589Y3695433D2*
Y4178464D1*
X6915589Y4198464D1*
X3153503D1*
X3133503Y4178464D1*
Y4087992D1*
X1299999Y4204488D2*
Y4099999D1*
X3054487Y4087992D2*
Y4204488D1*
X3147735Y2359519D2*
Y2147378D1*
X3175491Y2119622D1*
Y1225983D1*
X3147735Y2946496D2*
Y2640480D1*
X7210589Y3248425D2*
X7294094Y3248424D1*
X7087987Y3425669D2*
X7210589D1*
X3133503Y4087992D2*
X3174999Y4046496D1*
X3387995D1*
X3407995Y4026496D1*
Y3064307D1*
X3390184Y3046496D1*
X3199999Y2999999D2*
X3095334D1*
Y3202925D1*
X2984822Y3313437D1*
Y3626496D1*
X2964822Y3646496D1*
X2458215D1*
X2358215Y3746496D1*
X1833502D1*
X1579999Y3999999D1*
X1299999D1*
X6149999Y2349999D2*
Y2269881D1*
X6139251Y2259133D1*
Y2228385D1*
X3095334Y2999999D2*
X3075491Y2980156D1*
Y1846889D1*
X6296495Y1936929D2*
Y1666499D1*
X6176495Y1546499D1*
Y1079960D1*
X6196495Y1059960D1*
X6573700D1*
X6593700Y1039960D1*
Y599999D1*
X4797243Y2228385D2*
X4945432D1*
X3907987Y1846889D2*
X3976574D1*
Y2169059D1*
X6399999Y2699999D2*
X6340748Y2640748D1*
X6266495D1*
X6246495Y2660748D1*
Y2770618D1*
X6266495Y2790618D1*
Y3208425D1*
X6286495Y3228425D1*
X6526495D1*
X6546495Y3248425D1*
Y3436417D1*
X6566495Y3456417D1*
X7172085D1*
X7210589Y3494921D1*
X6139251Y2228385D2*
Y1944921D1*
X6147243Y1936929D1*
X3075491Y1846889D2*
Y1225983D1*
X2975491D2*
Y1919133D1*
X6499999Y2699999D2*
Y3128425D1*
X6519999Y3148424D1*
X7294094D1*
X6696499Y1987755D2*
Y1415893D1*
X6672676Y1392070D1*
Y1258413D1*
X6696499Y1234590D1*
Y1116720D1*
X6693700Y1113920D1*
Y599999D1*
X6249999Y2349999D2*
Y2132244D1*
X6269999Y2112244D1*
X6311062D1*
X3953704Y2296499D2*
Y2231327D1*
X3877243Y2154866D1*
Y1919133D1*
X4945432Y2296499D2*
X4854566D1*
X2758837Y2933188D2*
Y3126496D1*
X2738837Y3146496D1*
X2099589D1*
X2079589Y3166496D1*
Y3526496D1*
X2059589Y3546496D1*
X1653503D1*
X1299999Y3899999D1*
X2975491Y1919133D2*
Y2275877D1*
X2955491Y2295877D1*
X2758837D1*
Y2933188D1*
X6349999Y2349999D2*
Y2248381D1*
X6369999Y2228381D1*
X6576499D1*
X6596499Y2208381D1*
Y1176338D1*
X6642164Y1130673D1*
Y571531D1*
X6662164Y551531D1*
X6745232D1*
X6793700Y599999D1*
X3030432Y3177244D2*
X3043739Y3163937D1*
Y2841496D1*
X6599999Y2699999D2*
Y2746499D1*
X6594995Y2751503D1*
Y2807996D1*
X4618739Y3062244D2*
X5047834D1*
X2170337Y3246496D2*
X2698743D1*
X2718743Y3226496D1*
Y3177244D1*
X1403003Y3346496D2*
Y3696995D1*
X1299999Y3799999D1*
X3043739Y2841496D2*
Y1465744D1*
X3018837Y1440842D1*
Y1182637D1*
X2998837Y1162637D1*
X2938838D1*
X2875491Y1225983D1*
X6594995Y2807996D2*
X6672912Y2885913D1*
Y3074921D1*
X6692912Y3094921D1*
X7347597D1*
X7394094Y3048424D1*
X6449999Y2349999D2*
X6551618Y2248381D1*
X6707247D1*
X6727247Y2228381D1*
Y1870669D1*
X6801420Y1796496D1*
Y1389610D1*
X6821420Y1369610D1*
X6984684D1*
X7004684Y1349610D1*
Y710984D1*
X6893700Y599999D1*
X6699999Y2699999D2*
Y3028425D1*
X6719999Y3048424D1*
X7294094D1*
X2789585Y2326625D2*
Y2661472D1*
X1340479Y3646496D2*
X1299999D1*
Y3699999D1*
X2775491Y2234385D2*
Y1225983D1*
X3746893Y2646496D2*
X3504566D1*
X5745432Y2777248D2*
X5527243D1*
X2789585Y2661472D2*
Y3426496D1*
X2769585Y3446496D1*
X2404078D1*
X2251834Y3598740D1*
X2170337D1*
X4699999Y3424999D2*
D13*
Y3174999D1*
X6199999Y4149999D2*
D14*
X6249015Y4100983D1*
Y3752165D1*
X6196850Y3699999D1*
X7732676Y1849999D2*
D13*
Y2167322D1*
X7674999Y2224999D1*
X4699999Y1699999D2*
X4999999D1*
X5049999Y1749999D1*
X5199999Y949999D2*
X5043700D1*
X4893700Y1099999D1*
X3500393Y1800393D2*
Y2100393D1*
X7499999Y1378739D2*
D14*
X7299999Y1178739D1*
Y1093700D1*
X6899999Y949999D2*
D13*
Y1149999D1*
X6949999Y1199999D1*
X899999Y1495275D2*
X595275D1*
X593700Y1493700D1*
X7424999Y1849999D2*
X6824999D1*
X4893700Y1099999D2*
Y506298D1*
X4899999Y499999D1*
X6299802Y3550393D2*
D15*
X6199999Y3450590D1*
Y3299999D1*
X3949999Y3399999D2*
Y3580000D1*
X3930000Y3599999D1*
X3799999D1*
X4734251Y1249999D2*
X4807000Y1177251D1*
X4940432D1*
X4960432Y1197251D1*
Y1333267D1*
X4893700Y1399999D1*
X6849999Y1199999D2*
Y1246653D1*
X6747046Y1349606D1*
X4699999Y2649999D2*
X4646495Y2596495D1*
Y2303503D1*
X4699999Y2249999D1*
X6199999Y3299999D2*
X5899999Y2999999D1*
Y2699999D1*
X4976180Y2197633D2*
Y2337996D1*
X4956180Y2357996D1*
X4766495D1*
X4746495Y2377996D1*
Y2676496D1*
X4726495Y2696496D1*
X4599999D1*
Y2649940D1*
X3399999Y2599999D2*
X3604684D1*
X6407719Y1297248D2*
X6430141Y1319670D1*
Y1417909D1*
X6396499Y1451551D1*
Y1596499D1*
X6549999Y1749999D1*
X6448463Y698468D2*
Y908129D1*
X5995432Y698468D2*
X5918467D1*
X5898467Y678468D1*
Y598467D1*
X5849999Y549999D1*
X4599999Y2649940D2*
Y2549999D1*
X3604684Y2599999D2*
X3646889Y2557794D1*
Y2146889D1*
X3600393Y2100393D1*
X6549999Y1749999D2*
Y2113381D1*
X6465747Y2197633D1*
X3646889Y2762303D2*
X3609193Y2799999D1*
X3399999D1*
X6449999Y2136137D2*
Y1749999D1*
X6086459Y1631259D2*
Y570000D1*
X6066459Y549999D1*
X5949999D1*
X4699999Y2549999D2*
Y2319747D1*
X4746495Y2273251D1*
Y2104688D1*
X4766495Y2084688D1*
X4974774D1*
X6449999Y1749999D2*
X6396181Y1696181D1*
X6377991D1*
X6327243Y1645433D1*
X4093700Y1399999D2*
X4045945Y1352244D1*
X3866495D1*
X3846495Y1372244D1*
Y3453503D1*
X3799999Y3499999D1*
X4746499Y1953507D2*
X4976180D1*
X4240479Y2046499D2*
Y3280000D1*
X4220480Y3299999D1*
X4099999D1*
X4651420Y2107996D2*
Y1640248D1*
X4671420Y1620248D1*
X4945432D1*
X4039141Y2107996D2*
Y3139141D1*
X4099999Y3199999D1*
X3427759Y1688188D2*
Y1211417D1*
X3447759Y1191417D1*
X4009420D1*
X3808385Y1688188D2*
Y3106062D1*
X3753503Y3160944D1*
Y3253503D1*
X3799999Y3299999D1*
X3777637Y2568444D2*
Y1672484D1*
X3757637Y1652484D1*
X3467759D1*
X3447759Y1632484D1*
Y1242165D1*
X3467759Y1222165D1*
X4040200D1*
Y1099999D1*
X4093700D1*
X6387794Y3532559D2*
X7222518D1*
X7260156Y3494921D1*
X7340590D1*
X7394094Y3548424D1*
X4099999Y3599999D2*
Y3546499D1*
X4073503D1*
X4053503Y3526499D1*
Y3366499D1*
X4073503Y3346499D1*
X4251227D1*
X4271227Y3326499D1*
Y2568444D1*
X6387794Y3647637D2*
X6377046Y3636889D1*
X6066298D1*
X6046298Y3656889D1*
Y3967637D1*
X6026298Y3987637D1*
X4053507D1*
X4033507Y3967637D1*
Y3666491D1*
X4099999Y3599999D1*
X5196495Y1956929D2*
Y2376496D1*
X5176495Y2396496D1*
X4919999D1*
X4899999Y2416496D1*
Y2799999D1*
X5949999Y1956929D2*
Y1749999D1*
X6049999Y1995318D2*
Y1749999D1*
X5296495Y1995318D2*
Y2396496D1*
X5276495Y2416496D1*
X5019999D1*
X4999999Y2436496D1*
Y2799999D1*
X4949999Y3141808D2*
X4873661D1*
X4824845Y3092992D1*
X4566495D1*
X4546495Y3072992D1*
Y2303503D1*
X4599999Y2249999D1*
X2599999Y3999999D2*
X2968484D1*
X3121987Y3846496D1*
X3326499D1*
X3346499Y3826496D1*
Y2562559D1*
X3366499Y2542559D1*
X3580392D1*
X3600393Y2522558D1*
Y2299999D1*
X7199999Y1549999D2*
D13*
Y1575983D1*
X7237007Y1612991D1*
X7262991D1*
X7627165Y1977165D1*
Y2245159D1*
X7659564Y2277558D1*
X7905117D1*
X7932676Y2249999D1*
X7799999Y2849999D2*
D15*
X7755078Y2894921D1*
X7347597D1*
X7294094Y2948424D1*
Y3748424D2*
X7347597Y3694921D1*
X7539298D1*
X7559298Y3674921D1*
Y3315708D1*
X7579298Y3295708D1*
X7870200D1*
X7890200Y3275708D1*
Y3108504D1*
X7843345Y3061649D1*
Y2806653D1*
X7899999Y2749999D1*
X5948463Y1248972D2*
Y857965D1*
X5928463Y837965D1*
X5819212D1*
X5799211Y817964D1*
Y729216D1*
X5930747Y1409212D2*
Y1550708D1*
X5869999D1*
X5849999Y1570708D1*
Y1749999D1*
X5979211Y969999D2*
Y790712D1*
X5959211Y770712D1*
X5829959D1*
Y698468D1*
X5808463D1*
X5788463Y678468D1*
Y569999D1*
X5768464Y549999D1*
X5599999D1*
X4945432Y1853314D2*
X5049999Y1957881D1*
Y2349999D1*
X5119881Y995433D2*
Y1075984D1*
X5096495Y1099370D1*
Y2296495D1*
X5149999Y2349999D1*
X5119881Y904488D2*
X4954684D1*
X4934684Y884488D1*
Y498700D1*
X4954684Y478700D1*
X5528463D1*
X5548463Y498700D1*
Y598463D1*
X5599999Y649999D1*
X5419251Y1118425D2*
X5448463Y1089213D1*
Y798464D1*
X5428463Y778464D1*
X5268463D1*
X5248463Y758464D1*
Y598463D1*
X5199999Y549999D1*
X5149999Y1118425D2*
Y1749999D1*
X5145432Y759960D2*
Y798464D1*
X5165432Y818464D1*
X5229999D1*
X5249999Y838464D1*
Y1749999D1*
X5206928Y759960D2*
X5199999Y753031D1*
Y649999D1*
X5299999Y549999D2*
X5248700Y498700D1*
X4974684D1*
X4954684Y518700D1*
Y709212D1*
X4974684Y729212D1*
X5176180D1*
Y778464D1*
X5196180Y798464D1*
X5329999D1*
X5349999Y818464D1*
Y1749999D1*
X5449999Y1149173D2*
Y1749999D1*
X5540786Y1137673D2*
X5548463Y1129996D1*
Y778464D1*
X5528463Y758464D1*
X5319999D1*
X5299999Y738464D1*
Y649999D1*
X5399999Y549999D2*
X5348463Y601535D1*
Y718464D1*
X5368463Y738464D1*
X5628463D1*
X5648463Y758464D1*
Y1449925D1*
X5549999Y1548389D1*
Y1749999D1*
X5399999Y649999D2*
Y698464D1*
X5419999Y718464D1*
X5728463D1*
X5748463Y738464D1*
Y1469925D1*
X5649999Y1568389D1*
Y1749999D1*
X5499999Y549999D2*
X5448463Y601535D1*
Y678464D1*
X5468463Y698464D1*
X5748463D1*
X5768463Y718464D1*
Y837968D1*
X5788463Y857968D1*
X5828463D1*
X5848463Y877968D1*
Y1486082D1*
X5799211Y1535334D1*
Y1611681D1*
X5749999Y1660893D1*
Y1749999D1*
X7714408Y1675157D2*
X7759172D1*
X7779172Y1695157D1*
Y1992960D1*
X7975235Y2189023D1*
Y2272559D1*
X7995235Y2292559D1*
X8075235D1*
X8095235Y2312559D1*
Y3664610D1*
X8075234Y3684611D1*
X7883534D1*
X7863531Y3704614D1*
Y4071496D1*
X7843531Y4091496D1*
X7619298D1*
X7599298Y4071496D1*
Y3884952D1*
X7649999Y3834251D1*
X6527247Y1434728D2*
Y1261873D1*
X6496499Y1231125D1*
Y1153503D1*
X6476499Y1133503D1*
X6316496D1*
X6249999Y1199999D1*
X7649999Y3834251D2*
X7599298Y3783550D1*
Y3568417D1*
X7733464Y3434251D1*
X7299999Y2324999D2*
X7957676D1*
X8032676Y2399999D1*
X4993830Y1550708D2*
X4652310D1*
X4570534Y1632484D1*
X4513621D1*
X6399393Y1403980D2*
X6310751D1*
X6217991Y1311220D1*
X6904566Y1403980D2*
X7069574D1*
X7089574Y1383980D1*
Y975778D1*
X7193700Y871653D1*
X7832676Y1749999D2*
X7876968Y1705708D1*
X8055708D1*
X8092322Y1742322D1*
Y2209645D1*
X8132676Y2249999D1*
X8032676Y1949999D2*
X7932676Y1849999D1*
Y1949999D2*
X7832676Y1849999D1*
X4470948Y1549496D2*
X4573945Y1446499D1*
X4747200D1*
X4793700Y1399999D1*
X4346499Y3125433D2*
Y1549496D1*
X3199999Y3799999D2*
X3134369D1*
X6496499Y1645433D2*
Y1286499D1*
X6476499Y1266499D1*
X6416499D1*
X6349999Y1199999D1*
X7843700Y3351574D2*
X7792558Y3402716D1*
Y3604606D1*
X7812400Y3624448D1*
X8055235D1*
X8075235Y3604448D1*
Y2462559D1*
X8055235Y2442559D1*
X7205181D1*
X7051003Y2288381D1*
X6716495D1*
X6696495Y2308381D1*
Y2416496D1*
X6676495Y2436496D1*
X6316495D1*
X6296495Y2416496D1*
Y2196496D1*
X6349999Y2142992D1*
Y1749999D1*
X7812400Y3624448D2*
Y3771850D1*
X7749999Y3834251D1*
X4240200Y1301496D2*
X4229452Y1312244D1*
X3549251D1*
X4670948Y904488D2*
Y986062D1*
X4795050Y904488D2*
Y984488D1*
X3889211Y1000240D2*
X4213704D1*
X3199999Y3499999D2*
X3306499Y3393499D1*
Y1010988D1*
X3317247Y1000240D1*
X7045432Y3647637D2*
Y4218464D1*
X7025432Y4238464D1*
X3105235D1*
X3085235Y4218464D1*
Y3966496D1*
X3105235Y3946496D1*
X3357247D1*
X3377247Y3926496D1*
Y3499996D1*
X6954566Y3219173D2*
X7057239D1*
X6999999Y2699999D2*
Y2785315D1*
X6854566Y2930748D1*
X4670948Y986062D2*
Y1016811D1*
X4693700Y1039562D1*
Y1099999D1*
X5389908Y1087677D2*
X5399999Y1077586D1*
Y949999D1*
X6642164Y2930748D2*
X6652794Y2941378D1*
Y3051614D1*
X6642164Y3062244D1*
X5927243Y2259133D2*
X6116495Y2069881D1*
Y1902933D1*
X6149999Y1869429D1*
Y1749999D1*
X5296495Y2447244D2*
X5119999D1*
X5099999Y2467244D1*
Y2799999D1*
X4599763Y1207996D2*
X4460200D1*
X4440200Y1227996D1*
Y1618586D1*
X4446499Y1624885D1*
Y3380000D1*
X4426500Y3399999D1*
X4099999D1*
X7955905Y3030708D2*
Y3085077D1*
X7987401Y3116573D1*
Y3300393D1*
X8041774D1*
Y3570078D1*
X7955905D1*
X6749999Y2349999D2*
Y2403740D1*
X6850747Y2504488D1*
Y2560748D1*
X6830747Y2580748D1*
X5583975D1*
X5563975Y2560748D1*
Y2461381D1*
X5543975Y2441381D1*
X5516495D1*
X5496495Y2461381D1*
Y3450787D1*
X5642597Y3596889D1*
Y3780000D1*
X5622598Y3799999D1*
X4099999D1*
X3746889Y2537696D2*
Y2053893D1*
X3726889Y2033893D1*
X3566889D1*
X3546889Y2053893D1*
Y2353503D1*
X3400393Y2499999D1*
X6799999Y2699999D2*
X6949999Y2549999D1*
Y2349999D1*
X5089133Y1056929D2*
X5068385Y1077677D1*
Y1519999D1*
X4996180Y1592204D1*
X5799999Y949999D2*
Y1009212D1*
X3400393Y2499999D2*
X3346499D1*
X3326499Y2519999D1*
Y3726496D1*
X3306499Y3746496D1*
X3122246D1*
X3068743Y3799999D1*
X2599999D1*
X5005522Y2166885D2*
X4786495D1*
X4766495Y2186885D1*
Y2327248D1*
X5004566Y2032448D2*
X5005522Y2033404D1*
Y2166885D1*
X2992991Y2747208D2*
X2964822Y2775377D1*
Y3579999D1*
X2944822Y3599999D1*
X2599999D1*
X3437696Y2747208D2*
X3399999D1*
Y2699999D1*
X4293700Y1399999D2*
X4227357Y1466342D1*
X4177247D1*
X4157404Y1446499D1*
X3948267D1*
X2475491Y1225983D2*
Y1378625D1*
X5017085Y3916889D2*
X5926298D1*
X5946298Y3896889D1*
Y3636889D1*
X5966298Y3616889D1*
X7175112D1*
X7206648Y3648424D1*
X7294094D1*
X4630747Y2737992D2*
Y2960748D1*
X4650747Y2980748D1*
X5017085D1*
X4177247Y1466342D2*
Y1621736D1*
X4028389D1*
X4008389Y1641736D1*
Y2737992D1*
X2006239Y1454637D2*
X1253503Y2207373D1*
Y3353503D1*
X1299999Y3399999D1*
X4641255Y1269492D2*
X4507353D1*
X5548463Y1398464D2*
Y1192653D1*
X5499999Y1144189D1*
Y949999D1*
X4540200Y1177248D2*
X4433704D1*
X4413704Y1197248D1*
Y1332244D1*
X4393704Y1352244D1*
X4360200D1*
X4340200Y1372244D1*
Y1428649D1*
X4199999Y1568850D1*
Y1699999D1*
X7199999Y1093700D2*
X7243267Y1050432D1*
Y737520D1*
X7223424Y717677D1*
X7181842D1*
X6995696Y531531D1*
X6562164D1*
X6542164Y551531D1*
Y1009212D1*
X6522164Y1029212D1*
X6365751D1*
X5996495Y1051480D2*
Y1519960D1*
X7655117Y593700D2*
X7580904Y667913D1*
Y717673D1*
Y775393D1*
X7655117Y849606D1*
X7243267Y737520D2*
X7263114Y717673D1*
X7580904D1*
X5649999Y2611496D2*
X5826495D1*
X5846495Y2631496D1*
Y3326499D1*
X5866495Y3346499D1*
X6140479D1*
X5899999Y1051480D2*
Y949999D1*
X5649999Y2349999D2*
Y1895433D1*
X4099999Y1699999D2*
Y1842818D1*
X4146889Y1889708D1*
Y3226499D1*
X4126889Y3246499D1*
X4024369D1*
X4004369Y3266499D1*
Y4079999D1*
X3984369Y4099999D1*
X3199999D1*
X4199999Y1699999D2*
X4146499D1*
X4099999D1*
X5996495Y1519960D2*
Y1609492D1*
X5916495D1*
Y1636181D1*
X5996495Y1716181D1*
Y1895433D1*
X5613030Y1163228D2*
Y1112480D1*
X5599999Y1099449D1*
Y949999D1*
X5896495Y2095433D2*
Y1581456D1*
X5941495D1*
X5961495Y1561456D1*
Y1320862D1*
X5879211Y1238578D1*
Y1163228D1*
X5696495Y2489999D2*
Y2095433D1*
X6340479Y2746499D2*
Y3168425D1*
X6360479Y3188425D1*
X7087987D1*
Y3374921D1*
X7107987Y3394921D1*
X7420593D1*
X7440593Y3414921D1*
Y3601925D1*
X7394094Y3648424D1*
X2006239Y1518748D2*
X1400547Y2124440D1*
Y2799451D1*
X1299999Y2899999D1*
X4039133Y1518748D2*
X3948267D1*
X4393700Y1399999D2*
Y1518748D1*
X4868936Y1295433D2*
X4852125Y1312244D1*
X4547563D1*
X4536696Y1301377D1*
X5679211Y1269921D2*
Y1229566D1*
X5699999Y1208778D1*
Y949999D1*
X5696495Y1605539D2*
X5779211Y1522823D1*
Y1409212D1*
X6408507Y2085389D2*
Y1796496D1*
X4929684Y1269921D2*
Y1312244D1*
X4909684Y1332244D1*
X4561455D1*
X4493700Y1399999D1*
D53*
X6824999Y1849999D3*
X4899999Y499999D3*
X4699999Y3424999D3*
X7424999Y1849999D3*
X6949999Y1199999D3*
X7674999Y2224999D3*
X4699999Y3174999D3*
X5699999Y2549999D3*
X6599999Y3749999D3*
X6799999Y2549999D3*
X7124999D3*
X7199999D3*
X7949999Y1399999D3*
X7249999Y2399999D3*
X7299999Y2324999D3*
X5995432Y739964D3*
X5860708D3*
X5145432Y698464D3*
X4985432Y546499D3*
X4739133D3*
X3400680D3*
X829172Y718539D3*
X2818837Y2170433D3*
X2934074Y2963937D3*
Y3277244D3*
X2694648D3*
X2502759Y4235236D3*
Y4077244D3*
Y3415748D3*
X2221085Y3557244D3*
X5533227Y2492129D3*
X2526180Y3046496D3*
X2370487Y1983070D3*
X2067735Y1775476D3*
X3347995Y1342992D3*
X2849585D3*
X2067735Y2341692D3*
X2974684Y2375968D3*
X2849585D3*
Y2265129D3*
Y1713980D3*
X2929585Y1269330D3*
X1945432Y1652488D3*
X2933999D3*
Y2024570D3*
X3136987D3*
X3549251Y1160669D3*
X3980078D3*
X2016987Y1565240D3*
Y2249448D3*
Y2310944D3*
X3795747Y1621736D3*
X3106239D3*
X3489251Y1549496D3*
X3012991D3*
Y2599999D3*
X3116987D3*
X5151534Y3167401D3*
X3509491Y3446499D3*
X3632483D3*
X4577243Y3034685D3*
X2718837Y3071492D3*
X2861830D3*
Y3143740D3*
X2677247Y3177244D3*
X3469491Y3346496D3*
X3884885Y3746499D3*
X4649487Y3123740D3*
X2529585Y1420118D3*
X2686499D3*
X2677247Y3077244D3*
X4945432Y2125393D3*
X4777243D3*
X3945826Y2077248D3*
Y1877637D3*
X2649585Y1959133D3*
X5499999Y2125393D3*
X2495432Y2246496D3*
Y2769519D3*
X5582282Y1239173D3*
X5021928D3*
Y1145433D3*
X4513818Y1016811D3*
X3749030Y897251D3*
X2360334D3*
X2275491Y958744D3*
X3830526D3*
X4340200Y1238744D3*
X2102613Y2915748D3*
X4991180Y1300669D3*
X3930904Y735118D3*
X2418837Y1817157D3*
X2102613Y2653307D3*
X2418837Y780358D3*
X2109231Y2310944D3*
Y1878952D3*
X2153361Y2877244D3*
X1946495Y3040480D3*
X2118837Y1487999D3*
X3918924D3*
X4146499Y1590988D3*
X4501696D3*
X4964487Y1519960D3*
X5899999D3*
X2320432Y3946499D3*
X2970432D3*
X2320432Y2546496D3*
X2275491Y1903649D3*
X6357046Y3566141D3*
Y3431744D3*
X5611849Y3646499D3*
X6746495Y3254566D3*
X6249999Y1895433D3*
X5396495Y1926181D3*
X6055711Y599999D3*
X3163507Y721881D3*
X2970432Y3846496D3*
Y3677244D3*
X7137676Y3348425D3*
Y3487165D3*
X5965747Y1640240D3*
X5796495Y1687066D3*
X6014215Y648464D3*
X3900156Y704370D3*
X3075491Y775354D3*
X6136495Y1692751D3*
X6859684Y1895433D3*
X6396495Y2259133D3*
X5996495D3*
X3054487Y4046496D3*
X3438743D3*
Y3246496D3*
X3150432D3*
X3390184Y3046496D3*
X7087987Y3425669D3*
X6935589Y3695433D3*
X1299999Y4204488D3*
X3054487D3*
Y4087992D3*
X3133503D3*
X3147735Y2359519D3*
Y2640480D3*
Y2946496D3*
X7210589Y3425669D3*
Y3248425D3*
X6147243Y1936929D3*
X6296495D3*
X4945432Y2228385D3*
X4797243D3*
X3976574Y2169059D3*
X3907987Y1846889D3*
X7210589Y3494921D3*
X3075491Y1846889D3*
X6139251Y2228385D3*
X2758837Y2933188D3*
X6696499Y1987755D3*
X6311062Y2112244D3*
X2975491Y1919133D3*
X3877243D3*
X3953704Y2296499D3*
X4854566D3*
X4945432D3*
X5047834Y3062244D3*
X4618739D3*
X3043739Y2841496D3*
X3030432Y3177244D3*
X2718743D3*
X2170337Y3246496D3*
X1403003Y3346496D3*
X6594995Y2807996D3*
X2170337Y3598740D3*
X1340479Y3646496D3*
X2775491Y2234385D3*
X2789585Y2326625D3*
X3504566Y2646496D3*
X3746893D3*
X5527243Y2777248D3*
X5745432D3*
X2789585Y2661472D3*
X4599999Y2649940D3*
X6465747Y2197633D3*
X4976180D3*
X6407719Y1297248D3*
X6448463Y908129D3*
Y698468D3*
X5995432D3*
X3604684Y2599999D3*
X6327243Y1645433D3*
X6086459Y1631259D3*
X6449999Y2136137D3*
X4974774Y2084688D3*
X3646889Y2762303D3*
X4976180Y1953507D3*
X4746499D3*
X4240479Y2046499D3*
X4945432Y1620248D3*
X4651420Y2107996D3*
X4039141D3*
X4009420Y1191417D3*
X3427759Y1688188D3*
X3808385D3*
X3777637Y2568444D3*
X4271227D3*
X6387794Y3532559D3*
Y3647637D3*
X5196495Y1956929D3*
X5949999D3*
X6049999Y1995318D3*
X5296495D3*
X5799211Y729216D3*
X5948463Y1248972D3*
X5930747Y1409212D3*
X5979211Y969999D3*
X4945432Y1853314D3*
X5119881Y995433D3*
Y904488D3*
X5419251Y1118425D3*
X5149999D3*
X5145432Y759960D3*
X5206928D3*
X5540786Y1137673D3*
X5449999Y1149173D3*
X7714408Y1675157D3*
X6527247Y1434728D3*
X4513621Y1632484D3*
X4993830Y1550708D3*
X6217991Y1311220D3*
X6399393Y1403980D3*
X6904566D3*
X4470948Y1549496D3*
X4346499D3*
Y3125433D3*
X3134369Y3799999D3*
X6496499Y1645433D3*
X3549251Y1312244D3*
X4240200Y1301496D3*
X5389908Y1087677D3*
X4795050Y984488D3*
Y904488D3*
X4670948D3*
X4213704Y1000240D3*
X3889211D3*
X3317247D3*
X3377247Y3499996D3*
X7045432Y3647637D3*
X7057239Y3219173D3*
X6954566D3*
X6642164Y3062244D3*
Y2930748D3*
X6854566D3*
X4670948Y986062D3*
X5927243Y2259133D3*
X5296495Y2447244D3*
X4599763Y1207996D3*
X4766495Y2327248D3*
X3746889Y2537696D3*
X5004566Y2032448D3*
X4996180Y1592204D3*
X5089133Y1056929D3*
X5799999Y1009212D3*
X5005522Y2166885D3*
X2992991Y2747208D3*
X3437696D3*
X3948267Y1446499D3*
X2475491Y1378625D3*
X5017085Y3916889D3*
Y2980748D3*
X4630747Y2737992D3*
X4008389D3*
X2006239Y1454637D3*
X4507353Y1269492D3*
X4641255D3*
X5548463Y1398464D3*
X6365751Y1029212D3*
X5996495Y1519960D3*
X6140479Y3346499D3*
X5649999Y2611496D3*
X5996495Y1051480D3*
Y1895433D3*
X5649999D3*
X4540200Y1177248D3*
X5899999Y1051480D3*
X5879211Y1163228D3*
X5896495Y2095433D3*
X5696495D3*
Y2489999D3*
X6340479Y2746499D3*
X2006239Y1518748D3*
X3948267D3*
X4039133D3*
X4393700D3*
X4536696Y1301377D3*
X4868936Y1295433D3*
X5613030Y1163228D3*
X5779211Y1409212D3*
X5696495Y1605539D3*
X6408507Y1796496D3*
Y2085389D3*
X4929684Y1269921D3*
X5679211D3*
D18*
X7932676Y2249999D3*
D19*
Y1949999D3*
D20*
X5699802Y3550393D3*
D21*
X5799802D3*
X5899802D3*
X5999802D3*
X6099802D3*
X6199802D3*
X6299802D3*
Y3850393D3*
X6199802D3*
X6099802D3*
X5999802D3*
X5899802D3*
X5799802D3*
X5699802D3*
D20*
X1899999Y2599999D3*
D21*
Y2699999D3*
Y2799999D3*
Y2899999D3*
Y2999999D3*
Y3099999D3*
Y3199999D3*
Y3299999D3*
Y3399999D3*
Y3499999D3*
Y3599999D3*
Y3699999D3*
Y3799999D3*
Y3899999D3*
Y3999999D3*
Y4099999D3*
X1299999D3*
Y3999999D3*
Y3899999D3*
Y3799999D3*
Y3699999D3*
Y3599999D3*
Y3499999D3*
Y3399999D3*
Y3299999D3*
Y3199999D3*
Y3099999D3*
Y2999999D3*
Y2899999D3*
Y2799999D3*
Y2699999D3*
Y2599999D3*
D18*
X3399999D3*
D19*
X3699999D3*
D20*
X5049999Y1749999D3*
D21*
X5149999D3*
X5249999D3*
X5349999D3*
X5449999D3*
X5549999D3*
X5649999D3*
X5749999D3*
X5849999D3*
X5949999D3*
X6049999D3*
X6149999D3*
X6249999D3*
X6349999D3*
X6449999D3*
X6549999D3*
X6649999D3*
X6749999D3*
X6849999D3*
X6949999D3*
Y2349999D3*
X6849999D3*
X6749999D3*
X6649999D3*
X6549999D3*
X6449999D3*
X6349999D3*
X6249999D3*
X6149999D3*
X6049999D3*
X5949999D3*
X5849999D3*
X5749999D3*
X5649999D3*
X5549999D3*
X5449999D3*
X5349999D3*
X5249999D3*
X5149999D3*
X5049999D3*
D22*
X6193700Y599999D3*
D23*
X6293700D3*
X6393700D3*
X6493700D3*
X6593700D3*
X6693700D3*
X6793700D3*
X6893700D3*
D22*
X6199999Y949999D3*
D23*
X6299999D3*
X6399999D3*
D24*
X7655117Y593700D3*
Y849606D3*
X7832283Y593700D3*
Y849606D3*
D22*
X6899999Y849999D3*
D23*
X6799999D3*
X6899999Y949999D3*
X6799999D3*
D25*
X7199999Y1093700D3*
D26*
X7249999Y1143700D3*
X7299999Y1093700D3*
D24*
X3949999Y3399999D3*
Y3793700D3*
D22*
X5099999Y549999D3*
D23*
Y649999D3*
X5199999Y549999D3*
Y649999D3*
X5299999Y549999D3*
Y649999D3*
X5399999Y549999D3*
Y649999D3*
X5499999Y549999D3*
Y649999D3*
X5599999Y549999D3*
Y649999D3*
D22*
X4699999Y2799999D3*
D27*
X4799999D3*
X4899999D3*
X4999999D3*
X5099999D3*
X5199999D3*
D28*
X543700Y4143700D3*
Y2017716D3*
X7472834Y4143700D3*
Y2017716D3*
D20*
X7394094Y3848424D3*
D29*
X7294094D3*
X7394094Y3748424D3*
X7294094D3*
X7394094Y3648424D3*
X7294094D3*
X7394094Y3548424D3*
X7294094D3*
X7394094Y3448424D3*
X7294094D3*
X7394094Y3348424D3*
X7294094D3*
X7394094Y3248424D3*
X7294094D3*
X7394094Y3148424D3*
X7294094D3*
X7394094Y3048424D3*
X7294094D3*
X7394094Y2948424D3*
X7294094D3*
X7394094Y2848424D3*
X7294094D3*
D22*
X5199999Y949999D3*
D23*
X5299999D3*
X5399999D3*
X5499999D3*
X5599999D3*
X5699999D3*
X5799999D3*
X5899999D3*
D20*
X8032676Y1849999D3*
D29*
X7932676D3*
D30*
X7832676D3*
D20*
X7732676D3*
D29*
Y1749999D3*
X7832676D3*
X7932676D3*
X8032676D3*
X4699999Y2649999D3*
X4798424D3*
D20*
X2599999Y4099999D3*
D21*
Y3999999D3*
Y3899999D3*
Y3799999D3*
Y3699999D3*
Y3599999D3*
Y3499999D3*
Y3399999D3*
Y3299999D3*
Y3199999D3*
Y3099999D3*
Y2999999D3*
Y2899999D3*
Y2799999D3*
Y2699999D3*
Y2599999D3*
Y2499999D3*
Y2399999D3*
Y2299999D3*
Y2199999D3*
X3199999D3*
Y2299999D3*
Y2399999D3*
Y2499999D3*
Y2599999D3*
Y2699999D3*
Y2799999D3*
Y2899999D3*
Y2999999D3*
Y3099999D3*
Y3199999D3*
Y3299999D3*
Y3399999D3*
Y3499999D3*
Y3599999D3*
Y3699999D3*
Y3799999D3*
Y3899999D3*
Y3999999D3*
Y4099999D3*
D18*
X2100393Y2599999D3*
D19*
X2400393D3*
D31*
X7499999Y1499999D3*
D32*
Y1578739D3*
D18*
X8032676Y2399999D3*
D19*
X7732676D3*
D18*
X8032676Y1949999D3*
D19*
Y2249999D3*
D33*
X1599999Y3199999D3*
Y3790550D3*
X4143700Y1249999D3*
X4734251D3*
D20*
X4099999Y1699999D3*
D21*
X4199999D3*
X4299999D3*
X4399999D3*
X4499999D3*
X4599999D3*
X4699999D3*
Y1999999D3*
X4599999D3*
X4499999D3*
X4399999D3*
X4299999D3*
X4199999D3*
X4099999D3*
D18*
X7193700Y871653D3*
D19*
X7493700D3*
D18*
X7649999Y3834251D3*
D19*
Y3734251D3*
D29*
X7099999Y3751574D3*
Y3849999D3*
D34*
X1875491Y625983D3*
D35*
X1975491D3*
X2075491D3*
X2175491D3*
X2275491D3*
X2375491D3*
X2475491D3*
X2575491D3*
X2675491D3*
X2775491D3*
X2875491D3*
X2975491D3*
X3075491D3*
X3175491D3*
Y1225983D3*
X3075491D3*
X2975491D3*
X2875491D3*
X2775491D3*
X2675491D3*
X2575491D3*
X2475491D3*
X2375491D3*
X2275491D3*
X2175491D3*
X2075491D3*
X1975491D3*
X1875491D3*
D20*
X4093700Y499999D3*
D21*
X4193700D3*
X4293700D3*
X4393700D3*
X4493700D3*
X4593700D3*
X4693700D3*
Y799999D3*
X4593700D3*
X4493700D3*
X4393700D3*
X4293700D3*
X4193700D3*
X4093700D3*
D20*
X6249999Y1199999D3*
D21*
X6349999D3*
X6449999D3*
X6549999D3*
X6649999D3*
X6749999D3*
X6849999D3*
Y1499999D3*
X6749999D3*
X6649999D3*
X6549999D3*
X6449999D3*
X6349999D3*
X6249999D3*
D20*
X7843700Y3351574D3*
D29*
Y3249212D3*
Y3434251D3*
Y3166535D3*
X7733464Y3434251D3*
Y3166535D3*
D36*
X7955905Y3030708D3*
D37*
X7987401Y3300393D3*
D36*
X7955905Y3570078D3*
D29*
X599999Y1099999D3*
Y1198424D3*
D20*
X6749999Y3751574D3*
D29*
Y3849999D3*
D18*
X7749999Y3834251D3*
D19*
Y3734251D3*
D18*
X3399999Y2799999D3*
D19*
X3699999D3*
D28*
X543700Y543700D3*
D33*
X5999999Y2999999D3*
X6590550D3*
D22*
X6199999Y4149999D3*
D23*
X6299999D3*
X6399999D3*
X6499999D3*
D22*
X5199999Y1349999D3*
D23*
X5299999D3*
X5399999D3*
X5499999D3*
X5599999D3*
X5699999D3*
X5799999D3*
X5899999D3*
D31*
X7499999Y1299999D3*
D32*
Y1378739D3*
D24*
X4203346Y1849606D3*
X4597046D3*
X6196850Y3699999D3*
X5803149D3*
X6747046Y1349606D3*
X6353346D3*
D38*
X893700Y3745669D3*
D39*
Y3993700D3*
D40*
X704724Y3859842D3*
D41*
X593700Y1593700D3*
D42*
Y1493700D3*
Y1393700D3*
D20*
X7951574Y3849999D3*
D29*
X8049999D3*
X7700983Y1292125D3*
Y1390550D3*
D43*
X7299999Y1549999D3*
D44*
X7199999D3*
D45*
X7299999Y2249999D3*
D46*
X7249999D3*
X7199999D3*
D18*
X7493700Y760235D3*
D19*
X7193700D3*
D29*
X7749212Y4024999D3*
X7650787D3*
D18*
X3900393Y2299999D3*
D19*
X3600393D3*
D18*
X3700393Y2499999D3*
D19*
X3400393D3*
D18*
X8032676D3*
D19*
X7732676D3*
D20*
X4399999Y2249999D3*
D21*
X4499999D3*
X4599999D3*
X4699999D3*
Y2549999D3*
X4599999D3*
X4499999D3*
X4399999D3*
D29*
X899999Y1593700D3*
Y1495275D3*
D49*
X617322Y951771D3*
Y873031D3*
Y794291D3*
X790550Y951771D3*
Y873031D3*
Y794291D3*
D20*
X3993700Y1099999D3*
D21*
X4093700D3*
X4193700D3*
X4293700D3*
X4393700D3*
X4493700D3*
X4593700D3*
X4693700D3*
X4793700D3*
X4893700D3*
Y1399999D3*
X4793700D3*
X4693700D3*
X4593700D3*
X4493700D3*
X4393700D3*
X4293700D3*
X4193700D3*
X4093700D3*
X3993700D3*
D24*
X3594684Y700983D3*
Y1094684D3*
D20*
X3799999Y3899999D3*
D21*
Y3799999D3*
Y3699999D3*
Y3599999D3*
Y3499999D3*
Y3399999D3*
Y3299999D3*
Y3199999D3*
X4099999D3*
Y3299999D3*
Y3399999D3*
Y3499999D3*
Y3599999D3*
Y3699999D3*
Y3799999D3*
Y3899999D3*
D43*
X7393700Y624606D3*
D44*
X7493700D3*
D28*
X8043700Y543700D3*
D43*
X7193700Y624606D3*
D44*
X7293700D3*
D50*
X7999999Y2849999D3*
X7899999Y2749999D3*
X7799999Y2849999D3*
D18*
X8132676Y2249999D3*
D19*
Y1949999D3*
D119*
X4187007Y2232283D3*
X4112204D3*
D20*
X6999999Y3299999D3*
D21*
X6899999D3*
X6799999D3*
X6699999D3*
X6599999D3*
X6499999D3*
X6399999D3*
X6299999D3*
X6199999D3*
X6099999D3*
X5999999D3*
X5899999D3*
X5799999D3*
X5699999D3*
Y2699999D3*
X5799999D3*
X5899999D3*
X5999999D3*
X6099999D3*
X6199999D3*
X6299999D3*
X6399999D3*
X6499999D3*
X6599999D3*
X6699999D3*
X6799999D3*
X6899999D3*
X6999999D3*
D28*
X8043700Y4143700D3*
D20*
X3400393Y1800393D3*
D21*
X3500393D3*
X3600393D3*
X3700393D3*
Y2100393D3*
X3600393D3*
X3500393D3*
X3400393D3*
D22*
X5849999Y649999D3*
D23*
X5949999D3*
X5849999Y549999D3*
X5949999D3*
D33*
X6849999Y2049999D3*
X6259448D3*
D24*
X4599999Y649999D3*
X4206298D3*
D18*
X3699999Y2699999D3*
D19*
X3399999D3*
D18*
X2100393Y2399999D3*
D19*
X2400393D3*
D33*
X2899999Y3399999D3*
Y2809448D3*
D29*
X7700983Y1492125D3*
Y1590550D3*
D51*
X4949999Y3141808D3*
D52*
Y3909524D3*
M02*
