M48
INCH
T01C0.0157
T02C0.0197
T03C0.0236
T04C0.0276
T05C0.0295
T06C0.03
T07C0.0315
T08C0.0354
T09C0.0394
T10C0.0433
T11C0.0472
T12C0.0512
T13C0.1378
%
T01
X+068250Y+018500
X+068597Y+018954
X+066965Y+019878
X+064500Y+021361
X+064657Y+021976
X+063965Y+022591
X+063111Y+021122
X+064085Y+020854
X+062965Y+019369
X+062500Y+018954
X+061472Y+019369
X+060500Y+019953
X+059500Y+019569
X+059965Y+018954
X+058965Y+020954
X+059272Y+022591
X+059965Y+022591
X+061393Y+022284
X+056965Y+020954
X+055000Y+021254
X+053965Y+019262
X+052965Y+019953
X+051965Y+019569
X+050046Y+020324
X+049748Y+020847
X+049454Y+021254
X+050055Y+021669
X+049762Y+021976
X+049454Y+022284
X+049454Y+022965
X+048546Y+022965
X+047972Y+022284
X+047665Y+023272
X+047772Y+021254
X+046514Y+021080
X+047465Y+019535
X+049454Y+018533
X+049762Y+019535
X+049454Y+016202
X+049962Y+015922
X+049938Y+015507
X+049645Y+015200
X+049912Y+013007
X+049297Y+012699
X+048689Y+012954
X+050219Y+012392
X+050219Y+011454
X+050891Y+010569
X+051199Y+009954
X+051199Y+009045
X+051454Y+007600
X+051454Y+006985
X+052069Y+007600
X+049854Y+005465
X+049000Y+005000
X+047391Y+005465
X+047951Y+009045
X+047951Y+009845
X+046709Y+009861
X+046709Y+009045
X+045138Y+010168
X+045402Y+011772
X+045998Y+012080
X+046413Y+012695
X+045367Y+013014
X+045074Y+012695
X+043402Y+012387
X+042402Y+013015
X+040094Y+011914
X+039801Y+011607
X+038892Y+010002
X+038305Y+009587
X+037490Y+008973
X+039309Y+007351
X+039002Y+007044
X+042137Y+010002
X+039483Y+014465
X+039189Y+014880
X+039483Y+015187
X+040391Y+015187
X+041465Y+015910
X+043465Y+015495
X+043937Y+015187
X+044709Y+015495
X+045017Y+015910
X+045136Y+016325
X+042405Y+020465
X+040391Y+021080
X+039766Y+021691
X+039458Y+020772
X+038772Y+019191
X+039080Y+018469
X+039458Y+018776
X+038084Y+016882
X+037957Y+016217
X+034893Y+015495
X+034278Y+016882
X+031062Y+016217
X+030130Y+015495
X+029340Y+016525
X+028496Y+017140
X+029755Y+019191
X+029340Y+020246
X+028188Y+021704
X+027755Y+022344
X+028496Y+022651
X+027896Y+023266
X+028496Y+023760
X+029747Y+023760
X+031477Y+023595
X+031170Y+026000
X+031477Y+026405
X+030130Y+026000
X+029930Y+027472
X+030437Y+028415
X+031477Y+029465
X+029341Y+029639
X+028618Y+030715
X+028618Y+031437
X+027187Y+031772
X+026772Y+031772
X+026772Y+030772
X+027188Y+030715
X+027588Y+029332
X+025262Y+030465
X+024954Y+027695
X+023204Y+025465
X+021026Y+026533
X+021534Y+028772
X+021026Y+029157
X+019465Y+030405
X+021703Y+032465
X+022211Y+035572
X+021703Y+035987
X+023204Y+039465
X+025028Y+040772
X+025028Y+042352
X+029704Y+039465
X+029704Y+038465
X+029704Y+036772
X+031344Y+038000
X+030545Y+040465
X+030545Y+040880
X+031335Y+040880
X+030545Y+042045
X+034387Y+040465
X+038849Y+037465
X+036325Y+034465
X+035095Y+034465
X+034695Y+033465
X+034387Y+032465
X+033902Y+030465
X+034377Y+027472
X+035046Y+026465
X+036047Y+026000
X+037469Y+026465
X+037776Y+025684
X+037469Y+025377
X+036469Y+027623
X+040084Y+027380
X+042712Y+025684
X+046000Y+026499
X+046307Y+027380
X+045772Y+030347
X+046187Y+030622
X+046495Y+031237
X+047000Y+031750
X+047000Y+034250
X+043465Y+031254
X+050171Y+029807
X+050478Y+030622
X+051515Y+031674
X+055272Y+027772
X+056500Y+026115
X+057000Y+025500
X+056965Y+024900
X+055332Y+024921
X+052965Y+024472
X+057454Y+027772
X+063405Y+027465
X+065950Y+028080
X+066422Y+029307
X+066422Y+030622
X+067465Y+032546
X+069546Y+032192
X+070572Y+032192
X+071377Y+033484
X+070880Y+034257
X+071377Y+034872
X+072106Y+034949
X+072106Y+034257
X+072106Y+032484
X+070454Y+036476
X+069356Y+036954
X+066000Y+037500
X+063878Y+036476
X+063570Y+035661
X+063878Y+035326
X+063570Y+034317
X+061405Y+033465
X+056118Y+036465
X+050171Y+039169
X+033772Y+035000
X+031504Y+032465
X+030304Y+031772
X+029341Y+032772
X+026946Y+032772
X+025028Y+034157
X+027896Y+026615
X+024954Y+022465
X+023705Y+019831
X+022755Y+019036
X+024188Y+018172
X+026496Y+019591
X+030755Y+018469
X+031370Y+020246
X+033480Y+013430
X+035493Y+013122
X+035493Y+011607
X+033172Y+010002
X+031635Y+007219
X+030755Y+007754
X+034007Y+005465
X+029296Y+012693
X+028496Y+013430
X+026865Y+014201
X+025296Y+014201
X+024755Y+013786
X+021188Y+014880
X+020062Y+015187
X+020170Y+015652
X+020062Y+014546
X+019454Y+016525
X+020677Y+017755
X+021092Y+018790
X+020170Y+022494
X+020170Y+023109
X+020677Y+023417
X+021092Y+023109
X+014030Y+033465
X+013405Y+036465
X+013000Y+042045
X+039537Y+022965
X+051500Y+011184
X+053899Y+010877
X+054193Y+011184
X+054500Y+011492
X+055408Y+011377
X+056130Y+011632
X+055823Y+012392
X+056792Y+012699
X+057792Y+014092
X+059307Y+014092
X+059000Y+015200
X+059965Y+015200
X+059657Y+016402
X+060865Y+016313
X+061365Y+016928
X+063272Y+016454
X+064965Y+016454
X+064085Y+017965
X+065272Y+014347
X+063994Y+014040
X+064077Y+012972
X+062180Y+013112
X+059485Y+012490
X+058792Y+011632
X+059000Y+010515
X+059965Y+010515
X+059792Y+009700
X+058000Y+010092
X+058607Y+007400
X+057992Y+007292
X+059954Y+007400
X+059954Y+006985
X+060142Y+006485
X+060557Y+006000
X+064485Y+006985
X+064485Y+009081
X+063658Y+010292
X+069500Y+012000
X+069046Y+014040
X+074250Y+018500
X+077144Y+016752
X+079500Y+014000
X+076750Y+022250
X+073000Y+023250
X+072500Y+024000
X+072000Y+025500
X+071250Y+025500
X+068000Y+025500
X+068546Y+029307
X+056500Y+018954
X+057965Y+016871
X+056965Y+016055
X+055485Y+013985
X+024188Y+007804
X+023603Y+008973
X+022755Y+009587
X+008292Y+007185
T02
X+041870Y+022323
X+041122Y+022323
T03
X+075000Y+015000
X+075000Y+015787
X+075000Y+013787
X+075000Y+013000
T04
X+079327Y+022500
X+080327Y+022500
X+081327Y+022500
X+080327Y+024000
X+080327Y+025000
X+077327Y+025000
X+077327Y+024000
X+079327Y+019500
X+080327Y+019500
X+081327Y+019500
X+074937Y+008717
X+074937Y+007602
X+071937Y+007602
X+071937Y+008717
X+076500Y+037343
X+077500Y+037343
X+077500Y+038343
X+076500Y+038343
X+039004Y+023000
X+037004Y+025000
X+037000Y+026000
X+037000Y+027000
X+037000Y+028000
X+034000Y+028000
X+034000Y+027000
X+034000Y+026000
X+034004Y+025000
X+036004Y+023000
X+024004Y+024000
X+024004Y+026000
X+021004Y+026000
X+021004Y+024000
T05
X+072000Y+010937
X+072500Y+011437
X+073000Y+010937
X+073000Y+022500
X+072500Y+022500
X+072000Y+022500
T07
X+056998Y+035504
X+057998Y+035504
X+058998Y+035504
X+059998Y+035504
X+060998Y+035504
X+061998Y+035504
X+062998Y+035504
X+063000Y+033000
X+064000Y+033000
X+065000Y+033000
X+066000Y+033000
X+067000Y+033000
X+068000Y+033000
X+069000Y+033000
X+070000Y+033000
X+071000Y+037516
X+071000Y+038500
X+067500Y+038500
X+067500Y+037516
X+062998Y+038504
X+061998Y+038504
X+060998Y+038504
X+059998Y+038504
X+058998Y+038504
X+057998Y+038504
X+056998Y+038504
X+057000Y+033000
X+058000Y+033000
X+059000Y+033000
X+060000Y+033000
X+061000Y+033000
X+062000Y+033000
X+062000Y+027000
X+061000Y+027000
X+060000Y+027000
X+059000Y+027000
X+058000Y+027000
X+057000Y+027000
X+056500Y+023500
X+055500Y+023500
X+054500Y+023500
X+053500Y+023500
X+052500Y+023500
X+051500Y+023500
X+050500Y+023500
X+047000Y+022500
X+046000Y+022500
X+045000Y+022500
X+044000Y+022500
X+044000Y+020000
X+043000Y+020000
X+042000Y+020000
X+041000Y+020000
X+041000Y+017000
X+042000Y+017000
X+043000Y+017000
X+044000Y+017000
X+045000Y+017000
X+046000Y+017000
X+047000Y+017000
X+047000Y+020000
X+046000Y+020000
X+045000Y+020000
X+045000Y+025500
X+044000Y+025500
X+046000Y+025500
X+047000Y+025500
X+047000Y+026500
X+047984Y+026500
X+041000Y+032000
X+041000Y+033000
X+041000Y+034000
X+041000Y+035000
X+041000Y+036000
X+041000Y+037000
X+041000Y+038000
X+041000Y+039000
X+038000Y+039000
X+038000Y+038000
X+038000Y+037000
X+038000Y+036000
X+038000Y+035000
X+038000Y+034000
X+038000Y+033000
X+038000Y+032000
X+032000Y+032000
X+032000Y+033000
X+032000Y+034000
X+032000Y+035000
X+032000Y+036000
X+032000Y+037000
X+032000Y+038000
X+032000Y+039000
X+032000Y+040000
X+032000Y+041000
X+026000Y+041000
X+026000Y+040000
X+026000Y+039000
X+026000Y+038000
X+026000Y+037000
X+026000Y+036000
X+026000Y+035000
X+026000Y+034000
X+026000Y+033000
X+026000Y+032000
X+026000Y+031000
X+026000Y+030000
X+026000Y+029000
X+026000Y+028000
X+026000Y+027000
X+026000Y+026000
X+026000Y+025000
X+026000Y+024000
X+026000Y+023000
X+026000Y+022000
X+032000Y+022000
X+032000Y+023000
X+032000Y+024000
X+032000Y+025000
X+032000Y+026000
X+032000Y+027000
X+032000Y+028000
X+032000Y+029000
X+032000Y+030000
X+032000Y+031000
X+034004Y+021004
X+035004Y+021004
X+036004Y+021004
X+037004Y+021004
X+037004Y+018004
X+036004Y+018004
X+035004Y+018004
X+034004Y+018004
X+039937Y+014000
X+040937Y+014000
X+041937Y+014000
X+042937Y+014000
X+043937Y+014000
X+044937Y+014000
X+045937Y+014000
X+046937Y+014000
X+047937Y+014000
X+048937Y+014000
X+048937Y+011000
X+047937Y+011000
X+046937Y+011000
X+045937Y+011000
X+044937Y+011000
X+043937Y+011000
X+042937Y+011000
X+041937Y+011000
X+040937Y+011000
X+039937Y+011000
X+040937Y+008000
X+041937Y+008000
X+042937Y+008000
X+043937Y+008000
X+044937Y+008000
X+045937Y+008000
X+046937Y+008000
X+046937Y+005000
X+045937Y+005000
X+044937Y+005000
X+043937Y+005000
X+042937Y+005000
X+041937Y+005000
X+040937Y+005000
X+050500Y+017500
X+051500Y+017500
X+052500Y+017500
X+053500Y+017500
X+054500Y+017500
X+055500Y+017500
X+056500Y+017500
X+057500Y+017500
X+058500Y+017500
X+059500Y+017500
X+060500Y+017500
X+061500Y+017500
X+062500Y+017500
X+063500Y+017500
X+064500Y+017500
X+065500Y+017500
X+066500Y+017500
X+067500Y+017500
X+068500Y+017500
X+069500Y+017500
X+068500Y+015000
X+067500Y+015000
X+066500Y+015000
X+065500Y+015000
X+064500Y+015000
X+063500Y+015000
X+062500Y+015000
X+062500Y+012000
X+063500Y+012000
X+064500Y+012000
X+065500Y+012000
X+066500Y+012000
X+067500Y+012000
X+068500Y+012000
X+077010Y+012921
X+077010Y+013906
X+077010Y+014921
X+077010Y+015906
X+069500Y+023500
X+068500Y+023500
X+067500Y+023500
X+066500Y+023500
X+065500Y+023500
X+064500Y+023500
X+063500Y+023500
X+062500Y+023500
X+061500Y+023500
X+060500Y+023500
X+059500Y+023500
X+058500Y+023500
X+057500Y+023500
X+063000Y+027000
X+064000Y+027000
X+065000Y+027000
X+066000Y+027000
X+067000Y+027000
X+068000Y+027000
X+069000Y+027000
X+070000Y+027000
X+078000Y+028500
X+079000Y+027500
X+080000Y+028500
X+079516Y+038500
X+080500Y+038500
X+077492Y+040250
X+076508Y+040250
X+019000Y+040000
X+019000Y+039000
X+019000Y+038000
X+019000Y+037000
X+019000Y+036000
X+019000Y+035000
X+019000Y+034000
X+019000Y+033000
X+019000Y+032000
X+019000Y+031000
X+019000Y+030000
X+019000Y+029000
X+019000Y+028000
X+019000Y+027000
X+019000Y+026000
X+013000Y+026000
X+013000Y+027000
X+013000Y+028000
X+013000Y+029000
X+013000Y+030000
X+013000Y+031000
X+013000Y+032000
X+013000Y+033000
X+013000Y+034000
X+013000Y+035000
X+013000Y+036000
X+013000Y+037000
X+013000Y+038000
X+013000Y+039000
X+013000Y+040000
X+013000Y+041000
X+019000Y+041000
X+009000Y+015937
X+009000Y+014953
X+006000Y+011984
X+006000Y+011000
T08
X+073941Y+038484
X+073941Y+037484
X+073941Y+036484
X+072941Y+036484
X+072941Y+035484
X+073941Y+035484
X+073941Y+034484
X+072941Y+034484
X+072941Y+033484
X+072941Y+032484
X+073941Y+032484
X+073941Y+033484
X+073941Y+031484
X+073941Y+030484
X+073941Y+029484
X+072941Y+029484
X+072941Y+030484
X+072941Y+031484
X+072941Y+028484
X+073941Y+028484
X+072941Y+037484
X+072941Y+038484
X+077327Y+018500
X+078327Y+018500
X+079327Y+018500
X+080327Y+018500
X+080327Y+017500
X+079327Y+017500
X+078327Y+017500
X+077327Y+017500
X+073000Y+015500
X+072000Y+015500
X+071937Y+006246
X+072937Y+006246
X+073937Y+006246
X+074937Y+006246
T09
X+061937Y+006000
X+062937Y+006000
X+063937Y+006000
X+064937Y+006000
X+065937Y+006000
X+066937Y+006000
X+067937Y+006000
X+068937Y+006000
X+069000Y+008500
X+069000Y+009500
X+068000Y+009500
X+068000Y+008500
X+064000Y+009500
X+063000Y+009500
X+062000Y+009500
X+059000Y+009500
X+058000Y+009500
X+057000Y+009500
X+056000Y+009500
X+055000Y+009500
X+054000Y+009500
X+053000Y+009500
X+052000Y+009500
X+052000Y+006500
X+051000Y+006500
X+051000Y+005500
X+052000Y+005500
X+053000Y+005500
X+053000Y+006500
X+054000Y+006500
X+054000Y+005500
X+055000Y+005500
X+056000Y+005500
X+056000Y+006500
X+055000Y+006500
X+058500Y+006500
X+059500Y+006500
X+059500Y+005500
X+058500Y+005500
X+058000Y+013500
X+057000Y+013500
X+056000Y+013500
X+055000Y+013500
X+054000Y+013500
X+053000Y+013500
X+052000Y+013500
X+059000Y+013500
X+063533Y+013496
X+067470Y+013496
X+077335Y+031665
X+078437Y+031665
X+078437Y+032492
X+078437Y+033516
X+078437Y+034343
X+077335Y+034343
X+065000Y+041500
X+064000Y+041500
X+063000Y+041500
X+062000Y+041500
X+061968Y+037000
X+058031Y+037000
X+052000Y+028000
X+051000Y+028000
X+050000Y+028000
X+049000Y+028000
X+048000Y+028000
X+047000Y+028000
X+045970Y+018496
X+042033Y+018496
X+035947Y+010947
X+035947Y+007010
X+031755Y+006260
X+030755Y+006260
X+029755Y+006260
X+028755Y+006260
X+027755Y+006260
X+026755Y+006260
X+025755Y+006260
X+024755Y+006260
X+023755Y+006260
X+022755Y+006260
X+021755Y+006260
X+020755Y+006260
X+019755Y+006260
X+018755Y+006260
X+018755Y+012260
X+019755Y+012260
X+020755Y+012260
X+021755Y+012260
X+022755Y+012260
X+023755Y+012260
X+024755Y+012260
X+025755Y+012260
X+026755Y+012260
X+027755Y+012260
X+028755Y+012260
X+029755Y+012260
X+030755Y+012260
X+031755Y+012260
X+042063Y+006500
X+046000Y+006500
X+039500Y+034000
X+039500Y+037937
T10
X+076551Y+005937
X+078323Y+005937
X+078323Y+008496
X+076551Y+008496
X+005937Y+013937
X+005937Y+014937
X+005937Y+015937
T11
X+016000Y+032000
X+016000Y+037906
X+029000Y+034000
X+029000Y+028094
X+041437Y+012500
X+047343Y+012500
X+062594Y+020500
X+068500Y+020500
X+065906Y+030000
X+060000Y+030000
T12
X+049500Y+031418
X+049500Y+039095
T13
X+005437Y+041437
X+005437Y+020177
X+005437Y+005437
X+074728Y+020177
X+080437Y+005437
X+080437Y+041437
X+074728Y+041437
T00
M30
