%TF.GenerationSoftware,Novarm,DipTrace,4.3.0.4*%
%TF.CreationDate,2023-05-29T14:58:25+01:00*%
%FSLAX26Y26*%
%MOIN*%
%TF.FileFunction,Drawing,Top*%
%TF.Part,Single*%
%ADD17C,0.003937*%
G75*
G01*
%LPD*%
X7932676Y2249999D2*
D17*
Y2170865D1*
X7964172D2*
X7901180D1*
Y2029133D1*
X7964172D2*
Y2170865D1*
X7901180Y2029133D2*
X7964172D1*
X7932676Y1949999D2*
Y2029133D1*
X5647440Y3500393D2*
X6352165D1*
Y3900393D1*
X5689172Y3575393D2*
X5649802Y3614763D1*
X6349802Y3575393D2*
X5689172D1*
X5649802Y3614763D2*
Y3825393D1*
X6349802D1*
Y3575393D1*
X5647440Y3900393D2*
Y3500393D1*
X6352165Y3900393D2*
X5647440D1*
X1949999Y2547637D2*
Y4152361D1*
X1249999D1*
X1889960Y2589369D2*
X1850590Y2549999D1*
X1889960Y4149999D2*
Y2589369D1*
X1850590Y2549999D2*
X1310039D1*
Y4149999D1*
X1889960D1*
X1249999Y2547637D2*
X1949999D1*
X1249999Y4152361D2*
Y2547637D1*
X3399999Y2599999D2*
X3479133D1*
Y2631495D2*
Y2568503D1*
X3620865D1*
Y2631495D2*
X3479133D1*
X3620865Y2568503D2*
Y2631495D1*
X3699999Y2599999D2*
X3620865D1*
X4997637Y1699999D2*
X7002361D1*
Y2399999D1*
X5039369Y1760039D2*
X4999999Y1799409D1*
X6999999Y1760039D2*
X5039369D1*
X4999999Y1799409D2*
Y2339960D1*
X6999999D1*
Y1760039D1*
X4997637Y2399999D2*
Y1699999D1*
X7002361Y2399999D2*
X4997637D1*
X6168700Y549999D2*
X6143700Y574999D1*
X6943700Y549999D2*
X6168700D1*
X6143700Y574999D2*
Y649999D1*
X6943700D1*
Y549999D1*
X6174999Y899999D2*
X6149999Y924999D1*
X6449999Y899999D2*
X6174999D1*
X6149999Y924999D2*
Y999999D1*
X6449999D1*
Y899999D1*
X7625590Y603543D2*
Y721653D1*
X7861810Y603543D2*
X7625590D1*
Y721653D2*
Y839763D1*
X7861810D1*
Y603543D1*
X7664347Y721653D2*
G02X7664347Y721653I79353J0D01*
G01*
X6949999Y849999D2*
X6899999Y799999D1*
X6949999Y999999D2*
Y849999D1*
X6899999Y799999D2*
X6749999D1*
Y999999D1*
X6949999D1*
X7180314Y1024802D2*
X7318109D1*
X7249999Y1191338D2*
G02X7249999Y1191338I0J0D01*
G01*
X7319040Y1024659D2*
G02X7319040Y1024659I0J0D01*
G01*
X3890944Y3340944D2*
X4009054D1*
Y3852755D1*
X3890944D2*
Y3340944D1*
X4009054Y3852755D2*
X3890944D1*
X5099999Y499999D2*
X5049999Y549999D1*
X5649999Y499999D2*
X5099999D1*
X5049999Y549999D2*
Y699999D1*
X5649999D1*
Y499999D1*
X4474999Y2699999D2*
Y4314172D1*
X5419881Y2699999D2*
X4474999D1*
X4947440Y4077952D2*
X5183661Y4314172D1*
X4474999D2*
X5419881D1*
X4711220D2*
X4947440Y4077952D1*
X5419881Y4314172D2*
Y2699999D1*
X464960Y4360235D2*
Y1801180D1*
X7551574D1*
Y4360235D1*
X464960D1*
X5174999Y899999D2*
X5149999Y924999D1*
X5949999Y899999D2*
X5174999D1*
X5149999Y924999D2*
Y999999D1*
X5949999D1*
Y899999D1*
X8168109Y1692125D2*
Y2676377D1*
X7597243D1*
Y1692125D1*
X8168109D1*
X4690157Y2681495D2*
Y2618503D1*
X4808267D1*
Y2681495D2*
X4690157D1*
X4808267Y2618503D2*
Y2681495D1*
X2549999Y4152361D2*
Y2147637D1*
X3249999D1*
X2610039Y4110629D2*
X2649409Y4149999D1*
X2610039Y2149999D2*
Y4110629D1*
X2649409Y4149999D2*
X3189960D1*
Y2149999D1*
X2610039D1*
X3249999Y4152361D2*
X2549999D1*
X3249999Y2147637D2*
Y4152361D1*
X2100393Y2599999D2*
X2179527D1*
Y2631495D2*
Y2568503D1*
X2321259D1*
Y2631495D2*
X2179527D1*
X2321259Y2568503D2*
Y2631495D1*
X2400393Y2599999D2*
X2321259D1*
X7465846Y1472339D2*
Y1488087D1*
X7457972Y1480213D2*
X7473720D1*
X7421259Y1539369D2*
G02X7421259Y1539369I78740J0D01*
G01*
X8032676Y2399999D2*
X7953543D1*
Y2368503D2*
Y2431495D1*
X7811810D1*
Y2368503D2*
X7953543D1*
X7811810Y2431495D2*
Y2368503D1*
X7732676Y2399999D2*
X7811810D1*
X8032676Y1949999D2*
Y2029133D1*
X8001180D2*
X8064172D1*
Y2170865D1*
X8001180D2*
Y2029133D1*
X8064172Y2170865D2*
X8001180D1*
X8032676Y2249999D2*
Y2170865D1*
X1501574Y3140944D2*
X1698424D1*
Y3849606D1*
X1501574D2*
Y3140944D1*
X1698424Y3849606D2*
X1501574D1*
X4084645Y1348424D2*
Y1151574D1*
X4793306D1*
Y1348424D2*
X4084645D1*
X4793306Y1151574D2*
Y1348424D1*
X4047637Y1649999D2*
X4752361D1*
Y2049999D1*
X4089369Y1724999D2*
X4049999Y1764369D1*
X4749999Y1724999D2*
X4089369D1*
X4049999Y1764369D2*
Y1974999D1*
X4749999D1*
Y1724999D1*
X4047637Y2049999D2*
Y1649999D1*
X4752361Y2049999D2*
X4047637D1*
X7193700Y871653D2*
X7272834D1*
Y903149D2*
Y840157D1*
X7414566D1*
Y903149D2*
X7272834D1*
X7414566Y840157D2*
Y903149D1*
X7493700Y871653D2*
X7414566D1*
X7649999Y3834251D2*
Y3734251D1*
X7618503Y3834251D2*
G02X7618503Y3834251I31496J0D01*
G01*
X7060629Y3741731D2*
X7139369D1*
Y3859842D1*
X7060629D2*
Y3741731D1*
X7139369Y3859842D2*
X7060629D1*
X1030609Y429133D2*
X1172342D1*
X1030609D2*
X975491Y480314D1*
X1172342Y429133D2*
X1251082Y488188D1*
X1172342Y429133D2*
Y610235D1*
X1505413Y475196D2*
X1459743Y513779D1*
X3443995Y475196D2*
X1505413D1*
X975491Y480314D2*
Y559054D1*
X1251082Y488188D2*
Y551180D1*
X1491633Y488188D2*
X1251082D1*
X1459743Y513779D2*
Y1376771D1*
X1251082Y551180D2*
X1459743D1*
X975491Y559054D2*
X1030609Y610235D1*
Y429133D1*
X1172342Y610235D2*
X1251082Y551180D1*
X1172342Y610235D2*
X1030609D1*
X1459743Y1376771D2*
X3443995D1*
Y475196D1*
X4041338Y449999D2*
X4746062D1*
Y849999D1*
X4083070Y524999D2*
X4043700Y564369D1*
X4743700Y524999D2*
X4083070D1*
X4043700Y564369D2*
Y774999D1*
X4743700D1*
Y524999D1*
X4041338Y849999D2*
Y449999D1*
X4746062Y849999D2*
X4041338D1*
X6197637Y1149999D2*
X6902361D1*
Y1549999D1*
X6239369Y1224999D2*
X6199999Y1264369D1*
X6899999Y1224999D2*
X6239369D1*
X6199999Y1264369D2*
Y1474999D1*
X6899999D1*
Y1224999D1*
X6197637Y1549999D2*
Y1149999D1*
X6902361Y1549999D2*
X6197637D1*
X7674409Y2985432D2*
Y3615354D1*
X8178346Y2985432D2*
X7674409D1*
Y3615354D2*
X8178346D1*
Y2985432D1*
X568503Y1090157D2*
X631495D1*
Y1208267D1*
X568503D2*
Y1090157D1*
X631495Y1208267D2*
X568503D1*
X6695924Y3694724D2*
Y3719527D1*
X6683523Y3707125D2*
X6708326D1*
X6625983Y3800787D2*
G02X6625983Y3800787I124016J0D01*
G01*
X7749999Y3834251D2*
Y3734251D1*
X7718503Y3834251D2*
G02X7718503Y3834251I31496J0D01*
G01*
X3399999Y2799999D2*
X3479133D1*
Y2831495D2*
Y2768503D1*
X3620865D1*
Y2831495D2*
X3479133D1*
X3620865Y2768503D2*
Y2831495D1*
X3699999Y2799999D2*
X3620865D1*
X5940944Y3098424D2*
Y2901574D1*
X6649606D1*
Y3098424D2*
X5940944D1*
X6649606Y2901574D2*
Y3098424D1*
X6174999Y4099999D2*
X6149999Y4124999D1*
X6549999Y4099999D2*
X6174999D1*
X6149999Y4124999D2*
Y4199999D1*
X6549999D1*
Y4099999D1*
X5174999Y1299999D2*
X5149999Y1324999D1*
X5949999Y1299999D2*
X5174999D1*
X5149999Y1324999D2*
Y1399999D1*
X5949999D1*
Y1299999D1*
X7465846Y1272339D2*
Y1288087D1*
X7457972Y1280213D2*
X7473720D1*
X7421259Y1339369D2*
G02X7421259Y1339369I78740J0D01*
G01*
X4144291Y1908661D2*
Y1790550D1*
X4656102D1*
Y1908661D2*
X4144291D1*
X4656102Y1790550D2*
Y1908661D1*
X6255905Y3640944D2*
Y3759054D1*
X5744094D1*
Y3640944D2*
X6255905D1*
X5744094Y3759054D2*
Y3640944D1*
X6806102Y1290550D2*
Y1408661D1*
X6294291D1*
Y1290550D2*
X6806102D1*
X6294291Y1408661D2*
Y1290550D1*
X1070865Y3761417D2*
X1031495Y3722046D1*
X1070865Y4285039D2*
Y3761417D1*
X716535Y3722046D2*
X1031495D1*
X716535D2*
Y4285039D1*
X1070865D1*
X717716Y1690550D2*
X544487D1*
X667716D2*
Y1296850D1*
X544487Y1690550D2*
Y1296850D1*
X717716Y1566535D2*
X667716D1*
X717716Y1420865D2*
X667716D1*
X717716Y1296850D2*
Y1690550D1*
X544487Y1296850D2*
X717716D1*
X7894724Y3904074D2*
X7919527D1*
X7907125Y3916476D2*
Y3891672D1*
X7876771Y3849999D2*
G02X7876771Y3849999I124016J0D01*
G01*
X7661613Y1282283D2*
X7740354D1*
Y1400393D1*
X7661613D2*
Y1282283D1*
X7740354Y1400393D2*
X7661613D1*
X7309054Y1504086D2*
Y1595913D1*
X7309077Y1595884D1*
X7190944Y1549999D2*
G02X7190944Y1549999I59055J0D01*
G01*
X7319684Y2318897D2*
X7181889D1*
X7249999Y2152361D2*
G02X7249999Y2152361I0J0D01*
G01*
X7180959Y2319040D2*
G02X7180959Y2319040I0J0D01*
G01*
X7493700Y760235D2*
X7414566D1*
Y728739D2*
Y791731D1*
X7272834D1*
Y728739D2*
X7414566D1*
X7272834Y791731D2*
Y728739D1*
X7193700Y760235D2*
X7272834D1*
X7759054Y3993503D2*
Y4056495D1*
X7640944D1*
Y3993503D2*
X7759054D1*
X7640944Y4056495D2*
Y3993503D1*
X3900393Y2299999D2*
X3821259D1*
Y2268503D2*
Y2331495D1*
X3679527D1*
Y2268503D2*
X3821259D1*
X3679527Y2331495D2*
Y2268503D1*
X3600393Y2299999D2*
X3679527D1*
X3700393Y2499999D2*
X3621259D1*
Y2468503D2*
Y2531495D1*
X3479527D1*
Y2468503D2*
X3621259D1*
X3479527Y2531495D2*
Y2468503D1*
X3400393Y2499999D2*
X3479527D1*
X8032676D2*
X7953543D1*
Y2468503D2*
Y2531495D1*
X7811810D1*
Y2468503D2*
X7953543D1*
X7811810Y2531495D2*
Y2468503D1*
X7732676Y2499999D2*
X7811810D1*
X4389369Y2274999D2*
X4349999Y2314369D1*
X4749999Y2274999D2*
X4389369D1*
X4349999Y2314369D2*
Y2524999D1*
X4749999D1*
Y2274999D1*
X7877165Y1492519D2*
Y1268109D1*
Y1492519D2*
X7916535Y1531889D1*
X7877165Y1268109D2*
X8022834D1*
X7916535Y1531889D2*
X8022834D1*
Y1268109D1*
X939369Y1603543D2*
X860629D1*
Y1485432D1*
X939369D2*
Y1603543D1*
X860629Y1485432D2*
X939369D1*
X589763Y985235D2*
Y756889D1*
X818109D1*
Y985235D1*
X589763D1*
X3941338Y1049999D2*
X4946062D1*
Y1449999D1*
X3983070Y1124999D2*
X3943700Y1164369D1*
X4943700Y1124999D2*
X3983070D1*
X3943700Y1164369D2*
Y1374999D1*
X4943700D1*
Y1124999D1*
X3941338Y1449999D2*
Y1049999D1*
X4946062Y1449999D2*
X3941338D1*
X3535629Y641928D2*
X3653739D1*
Y1153739D1*
X3535629D2*
Y641928D1*
X3653739Y1153739D2*
X3535629D1*
X3749999Y3952361D2*
Y3147637D1*
X4149999D1*
X3824999Y3910629D2*
X3864369Y3949999D1*
X3824999Y3149999D2*
Y3910629D1*
X3864369Y3949999D2*
X4074999D1*
Y3149999D1*
X3824999D1*
X4149999Y3952361D2*
X3749999D1*
X4149999Y3147637D2*
Y3952361D1*
X7384645Y670519D2*
Y578692D1*
X7384623Y578721D1*
X7384645Y624606D2*
G02X7384645Y624606I59055J0D01*
G01*
X7184645Y670519D2*
Y578692D1*
X7184623Y578721D1*
X7184645Y624606D2*
G02X7184645Y624606I59055J0D01*
G01*
X7712401Y2894881D2*
Y2704724D1*
X8087598D1*
X8037598Y2712007D2*
X8037637Y2797401D1*
X8037598Y2712007D2*
X8037637Y2797401D1*
X8087598Y2894881D2*
X7712401D1*
X8087598Y2704724D2*
Y2894881D1*
X7994487Y2754724D2*
G02X7994487Y2754724I43110J0D01*
G01*
X8132676Y2249999D2*
Y2170865D1*
X8164172D2*
X8101180D1*
Y2029133D1*
X8164172D2*
Y2170865D1*
X8101180Y2029133D2*
X8164172D1*
X8132676Y1949999D2*
Y2029133D1*
X4190157Y2311023D2*
Y2566928D1*
X4109054D1*
X4187007Y2271653D2*
Y2232283D1*
X4163385Y2311023D2*
X4187007Y2271653D1*
X4135826Y2311023D2*
X4112204Y2271653D1*
Y2232283D1*
X4109054Y2311023D2*
X4190157D1*
X4109054Y2566928D2*
Y2311023D1*
X7052361Y3349999D2*
X5647637D1*
Y2649999D1*
X7010629Y3289960D2*
X7049999Y3250590D1*
X5649999Y3289960D2*
X7010629D1*
X7049999Y3250590D2*
Y2710039D1*
X5649999D1*
Y3289960D1*
X7052361Y2649999D2*
Y3349999D1*
X5647637Y2649999D2*
X7052361D1*
X3348031Y1750393D2*
X3752755D1*
Y2150393D1*
X3389763Y1825393D2*
X3350393Y1864763D1*
X3750393Y1825393D2*
X3389763D1*
X3350393Y1864763D2*
Y2075393D1*
X3750393D1*
Y1825393D1*
X3348031Y2150393D2*
Y1750393D1*
X3752755Y2150393D2*
X3348031D1*
X5799999Y649999D2*
X5849999Y699999D1*
X5799999Y499999D2*
Y649999D1*
X5849999Y699999D2*
X5999999D1*
Y499999D1*
X5799999D1*
X6909054Y1951574D2*
Y2148424D1*
X6200393D1*
Y1951574D2*
X6909054D1*
X6200393Y2148424D2*
Y1951574D1*
X4659054Y590944D2*
Y709054D1*
X4147243D1*
Y590944D2*
X4659054D1*
X4147243Y709054D2*
Y590944D1*
X3699999Y2699999D2*
X3620865D1*
Y2668503D2*
Y2731495D1*
X3479133D1*
Y2668503D2*
X3620865D1*
X3479133Y2731495D2*
Y2668503D1*
X3399999Y2699999D2*
X3479133D1*
X2100393Y2399999D2*
X2179527D1*
Y2431495D2*
Y2368503D1*
X2321259D1*
Y2431495D2*
X2179527D1*
X2321259Y2368503D2*
Y2431495D1*
X2400393Y2399999D2*
X2321259D1*
X2998424Y3459054D2*
X2801574D1*
Y2750393D1*
X2998424D2*
Y3459054D1*
X2801574Y2750393D2*
X2998424D1*
X7661613Y1482283D2*
X7740354D1*
Y1600393D1*
X7661613D2*
Y1482283D1*
X7740354Y1600393D2*
X7661613D1*
M02*
