%TF.GenerationSoftware,Novarm,DipTrace,4.3.0.4*%
%TF.CreationDate,2023-05-29T14:58:25+01:00*%
%FSLAX26Y26*%
%MOIN*%
%TF.FileFunction,Soldermask,Top*%
%TF.Part,Single*%
%ADD18C,0.055118*%
%ADD22R,0.066929X0.066929*%
%ADD23C,0.066929*%
%ADD25R,0.051181X0.051181*%
%ADD26C,0.051181*%
%ADD27C,0.066929*%
%ADD43R,0.070866X0.070866*%
%ADD44C,0.070866*%
%ADD52C,0.082677*%
%ADD56C,0.043307*%
%ADD63C,0.086614*%
%ADD64R,0.086614X0.086614*%
%ADD66C,0.06063*%
%ADD68O,0.051181X0.063937*%
%ADD70R,0.082677X0.153543*%
%ADD72R,0.082677X0.062992*%
%ADD74O,0.045276X0.062992*%
%ADD76R,0.045276X0.062992*%
%ADD78C,0.074803*%
%ADD79R,0.074803X0.074803*%
%ADD80O,0.082677X0.078937*%
%ADD82R,0.082677X0.078937*%
%ADD84O,0.082677X0.169291*%
%ADD86O,0.169291X0.082677*%
%ADD88R,0.185039X0.082677*%
%ADD90O,0.082677X0.161417*%
%ADD92O,0.141732X0.082677*%
%ADD94C,0.06063*%
%ADD96R,0.06063X0.06063*%
%ADD98C,0.098425*%
%ADD101C,0.063937*%
%ADD103C,0.059055*%
%ADD104C,0.200787*%
%ADD106R,0.055118X0.055118*%
%ADD107C,0.070866*%
%ADD108C,0.059055*%
G75*
G01*
%LPD*%
D103*
X7932676Y2249999D3*
D108*
Y1949999D3*
D22*
X5699802Y3550393D3*
D23*
X5799802D3*
X5899802D3*
X5999802D3*
X6099802D3*
X6199802D3*
X6299802D3*
Y3850393D3*
X6199802D3*
X6099802D3*
X5999802D3*
X5899802D3*
X5799802D3*
X5699802D3*
D22*
X1899999Y2599999D3*
D23*
Y2699999D3*
Y2799999D3*
Y2899999D3*
Y2999999D3*
Y3099999D3*
Y3199999D3*
Y3299999D3*
Y3399999D3*
Y3499999D3*
Y3599999D3*
Y3699999D3*
Y3799999D3*
Y3899999D3*
Y3999999D3*
Y4099999D3*
X1299999D3*
Y3999999D3*
Y3899999D3*
Y3799999D3*
Y3699999D3*
Y3599999D3*
Y3499999D3*
Y3399999D3*
Y3299999D3*
Y3199999D3*
Y3099999D3*
Y2999999D3*
Y2899999D3*
Y2799999D3*
Y2699999D3*
Y2599999D3*
D103*
X3399999D3*
D108*
X3699999D3*
D22*
X5049999Y1749999D3*
D23*
X5149999D3*
X5249999D3*
X5349999D3*
X5449999D3*
X5549999D3*
X5649999D3*
X5749999D3*
X5849999D3*
X5949999D3*
X6049999D3*
X6149999D3*
X6249999D3*
X6349999D3*
X6449999D3*
X6549999D3*
X6649999D3*
X6749999D3*
X6849999D3*
X6949999D3*
Y2349999D3*
X6849999D3*
X6749999D3*
X6649999D3*
X6549999D3*
X6449999D3*
X6349999D3*
X6249999D3*
X6149999D3*
X6049999D3*
X5949999D3*
X5849999D3*
X5749999D3*
X5649999D3*
X5549999D3*
X5449999D3*
X5349999D3*
X5249999D3*
X5149999D3*
X5049999D3*
D43*
X6193700Y599999D3*
D107*
X6293700D3*
X6393700D3*
X6493700D3*
X6593700D3*
X6693700D3*
X6793700D3*
X6893700D3*
D43*
X6199999Y949999D3*
D107*
X6299999D3*
X6399999D3*
D52*
X7655117Y593700D3*
Y849606D3*
X7832283Y593700D3*
Y849606D3*
D43*
X6899999Y849999D3*
D107*
X6799999D3*
X6899999Y949999D3*
X6799999D3*
D106*
X7199999Y1093700D3*
D18*
X7249999Y1143700D3*
X7299999Y1093700D3*
D52*
X3949999Y3399999D3*
Y3793700D3*
D43*
X5099999Y549999D3*
D107*
Y649999D3*
X5199999Y549999D3*
Y649999D3*
X5299999Y549999D3*
Y649999D3*
X5399999Y549999D3*
Y649999D3*
X5499999Y549999D3*
Y649999D3*
X5599999Y549999D3*
Y649999D3*
D43*
X4699999Y2799999D3*
D44*
X4799999D3*
X4899999D3*
X4999999D3*
X5099999D3*
X5199999D3*
D104*
X543700Y4143700D3*
Y2017716D3*
X7472834Y4143700D3*
Y2017716D3*
D22*
X7394094Y3848424D3*
D27*
X7294094D3*
X7394094Y3748424D3*
X7294094D3*
X7394094Y3648424D3*
X7294094D3*
X7394094Y3548424D3*
X7294094D3*
X7394094Y3448424D3*
X7294094D3*
X7394094Y3348424D3*
X7294094D3*
X7394094Y3248424D3*
X7294094D3*
X7394094Y3148424D3*
X7294094D3*
X7394094Y3048424D3*
X7294094D3*
X7394094Y2948424D3*
X7294094D3*
X7394094Y2848424D3*
X7294094D3*
D43*
X5199999Y949999D3*
D107*
X5299999D3*
X5399999D3*
X5499999D3*
X5599999D3*
X5699999D3*
X5799999D3*
X5899999D3*
D22*
X8032676Y1849999D3*
D27*
X7932676D3*
D101*
X7832676D3*
D22*
X7732676D3*
D27*
Y1749999D3*
X7832676D3*
X7932676D3*
X8032676D3*
X4699999Y2649999D3*
X4798424D3*
D22*
X2599999Y4099999D3*
D23*
Y3999999D3*
Y3899999D3*
Y3799999D3*
Y3699999D3*
Y3599999D3*
Y3499999D3*
Y3399999D3*
Y3299999D3*
Y3199999D3*
Y3099999D3*
Y2999999D3*
Y2899999D3*
Y2799999D3*
Y2699999D3*
Y2599999D3*
Y2499999D3*
Y2399999D3*
Y2299999D3*
Y2199999D3*
X3199999D3*
Y2299999D3*
Y2399999D3*
Y2499999D3*
Y2599999D3*
Y2699999D3*
Y2799999D3*
Y2899999D3*
Y2999999D3*
Y3099999D3*
Y3199999D3*
Y3299999D3*
Y3399999D3*
Y3499999D3*
Y3599999D3*
Y3699999D3*
Y3799999D3*
Y3899999D3*
Y3999999D3*
Y4099999D3*
D103*
X2100393Y2599999D3*
D108*
X2400393D3*
D25*
X7499999Y1499999D3*
D26*
Y1578739D3*
D103*
X8032676Y2399999D3*
D108*
X7732676D3*
D103*
X8032676Y1949999D3*
D108*
Y2249999D3*
D98*
X1599999Y3199999D3*
Y3790550D3*
X4143700Y1249999D3*
X4734251D3*
D22*
X4099999Y1699999D3*
D23*
X4199999D3*
X4299999D3*
X4399999D3*
X4499999D3*
X4599999D3*
X4699999D3*
Y1999999D3*
X4599999D3*
X4499999D3*
X4399999D3*
X4299999D3*
X4199999D3*
X4099999D3*
D103*
X7193700Y871653D3*
D108*
X7493700D3*
D103*
X7649999Y3834251D3*
D108*
Y3734251D3*
D27*
X7099999Y3751574D3*
Y3849999D3*
D96*
X1875491Y625983D3*
D94*
X1975491D3*
X2075491D3*
X2175491D3*
X2275491D3*
X2375491D3*
X2475491D3*
X2575491D3*
X2675491D3*
X2775491D3*
X2875491D3*
X2975491D3*
X3075491D3*
X3175491D3*
Y1225983D3*
X3075491D3*
X2975491D3*
X2875491D3*
X2775491D3*
X2675491D3*
X2575491D3*
X2475491D3*
X2375491D3*
X2275491D3*
X2175491D3*
X2075491D3*
X1975491D3*
X1875491D3*
D22*
X4093700Y499999D3*
D23*
X4193700D3*
X4293700D3*
X4393700D3*
X4493700D3*
X4593700D3*
X4693700D3*
Y799999D3*
X4593700D3*
X4493700D3*
X4393700D3*
X4293700D3*
X4193700D3*
X4093700D3*
D22*
X6249999Y1199999D3*
D23*
X6349999D3*
X6449999D3*
X6549999D3*
X6649999D3*
X6749999D3*
X6849999D3*
Y1499999D3*
X6749999D3*
X6649999D3*
X6549999D3*
X6449999D3*
X6349999D3*
X6249999D3*
D22*
X7843700Y3351574D3*
D27*
Y3249212D3*
Y3434251D3*
Y3166535D3*
X7733464Y3434251D3*
Y3166535D3*
D92*
X7955905Y3030708D3*
D90*
X7987401Y3300393D3*
D92*
X7955905Y3570078D3*
D27*
X599999Y1099999D3*
Y1198424D3*
D22*
X6749999Y3751574D3*
D27*
Y3849999D3*
D103*
X7749999Y3834251D3*
D108*
Y3734251D3*
D103*
X3399999Y2799999D3*
D108*
X3699999D3*
D104*
X543700Y543700D3*
D98*
X5999999Y2999999D3*
X6590550D3*
D43*
X6199999Y4149999D3*
D107*
X6299999D3*
X6399999D3*
X6499999D3*
D43*
X5199999Y1349999D3*
D107*
X5299999D3*
X5399999D3*
X5499999D3*
X5599999D3*
X5699999D3*
X5799999D3*
X5899999D3*
D25*
X7499999Y1299999D3*
D26*
Y1378739D3*
D52*
X4203346Y1849606D3*
X4597046D3*
X6196850Y3699999D3*
X5803149D3*
X6747046Y1349606D3*
X6353346D3*
D88*
X893700Y3745669D3*
D86*
Y3993700D3*
D84*
X704724Y3859842D3*
D82*
X593700Y1593700D3*
D80*
Y1493700D3*
Y1393700D3*
D22*
X7951574Y3849999D3*
D27*
X8049999D3*
X7700983Y1292125D3*
Y1390550D3*
D79*
X7299999Y1549999D3*
D78*
X7199999D3*
D76*
X7299999Y2249999D3*
D74*
X7249999D3*
X7199999D3*
D103*
X7493700Y760235D3*
D108*
X7193700D3*
D27*
X7749212Y4024999D3*
X7650787D3*
D103*
X3900393Y2299999D3*
D108*
X3600393D3*
D103*
X3700393Y2499999D3*
D108*
X3400393D3*
D103*
X8032676D3*
D108*
X7732676D3*
D22*
X4399999Y2249999D3*
D23*
X4499999D3*
X4599999D3*
X4699999D3*
Y2549999D3*
X4599999D3*
X4499999D3*
X4399999D3*
D72*
X7825983Y1490550D3*
Y1399999D3*
D70*
X8074015D3*
D72*
X7825983Y1309448D3*
D27*
X899999Y1593700D3*
Y1495275D3*
D68*
X617322Y951771D3*
Y873031D3*
Y794291D3*
X790550Y951771D3*
Y873031D3*
Y794291D3*
D22*
X3993700Y1099999D3*
D23*
X4093700D3*
X4193700D3*
X4293700D3*
X4393700D3*
X4493700D3*
X4593700D3*
X4693700D3*
X4793700D3*
X4893700D3*
Y1399999D3*
X4793700D3*
X4693700D3*
X4593700D3*
X4493700D3*
X4393700D3*
X4293700D3*
X4193700D3*
X4093700D3*
X3993700D3*
D52*
X3594684Y700983D3*
Y1094684D3*
D22*
X3799999Y3899999D3*
D23*
Y3799999D3*
Y3699999D3*
Y3599999D3*
Y3499999D3*
Y3399999D3*
Y3299999D3*
Y3199999D3*
X4099999D3*
Y3299999D3*
Y3399999D3*
Y3499999D3*
Y3599999D3*
Y3699999D3*
Y3799999D3*
Y3899999D3*
D79*
X7393700Y624606D3*
D78*
X7493700D3*
D104*
X8043700Y543700D3*
D79*
X7193700Y624606D3*
D78*
X7293700D3*
D66*
X7999999Y2849999D3*
X7899999Y2749999D3*
X7799999Y2849999D3*
D103*
X8132676Y2249999D3*
D108*
Y1949999D3*
D56*
X4187007Y2232283D3*
X4112204D3*
D22*
X6999999Y3299999D3*
D23*
X6899999D3*
X6799999D3*
X6699999D3*
X6599999D3*
X6499999D3*
X6399999D3*
X6299999D3*
X6199999D3*
X6099999D3*
X5999999D3*
X5899999D3*
X5799999D3*
X5699999D3*
Y2699999D3*
X5799999D3*
X5899999D3*
X5999999D3*
X6099999D3*
X6199999D3*
X6299999D3*
X6399999D3*
X6499999D3*
X6599999D3*
X6699999D3*
X6799999D3*
X6899999D3*
X6999999D3*
D104*
X8043700Y4143700D3*
D22*
X3400393Y1800393D3*
D23*
X3500393D3*
X3600393D3*
X3700393D3*
Y2100393D3*
X3600393D3*
X3500393D3*
X3400393D3*
D43*
X5849999Y649999D3*
D107*
X5949999D3*
X5849999Y549999D3*
X5949999D3*
D98*
X6849999Y2049999D3*
X6259448D3*
D52*
X4599999Y649999D3*
X4206298D3*
D103*
X3699999Y2699999D3*
D108*
X3399999D3*
D103*
X2100393Y2399999D3*
D108*
X2400393D3*
D98*
X2899999Y3399999D3*
Y2809448D3*
D27*
X7700983Y1492125D3*
Y1590550D3*
D64*
X4949999Y3141808D3*
D63*
Y3909524D3*
M02*
