%TF.GenerationSoftware,Novarm,DipTrace,4.3.0.5*%
%TF.CreationDate,2023-08-20T23:12:23+01:00*%
%FSLAX26Y26*%
%MOIN*%
%TF.FileFunction,Copper,L1,Top*%
%TF.Part,Single*%
%TA.AperFunction,Conductor*%
%ADD13C,0.009843*%
%ADD14C,0.03937*%
%TA.AperFunction,ComponentPad*%
%ADD17C,0.055118*%
%ADD18C,0.055118*%
%ADD19C,0.062992*%
%ADD20R,0.062992X0.062992*%
%ADD21C,0.062992*%
%ADD22C,0.06*%
%ADD23C,0.137795*%
%ADD24R,0.051181X0.051181*%
%ADD25C,0.051181*%
%ADD26R,0.066929X0.066929*%
%ADD27C,0.066929*%
%ADD28R,0.056693X0.056693*%
%ADD29C,0.056693*%
%ADD30O,0.137795X0.07874*%
%ADD31O,0.07874X0.15748*%
%ADD32C,0.066929*%
%ADD33R,0.181102X0.07874*%
%ADD34O,0.165354X0.07874*%
%ADD35O,0.07874X0.165354*%
%ADD36R,0.075X0.07874*%
%ADD37O,0.075X0.07874*%
%ADD38R,0.041339X0.059055*%
%ADD39O,0.041339X0.059055*%
%ADD40R,0.082677X0.082677*%
%ADD41C,0.082677*%
%ADD42C,0.056693*%
%ADD43R,0.059055X0.07874*%
%ADD44R,0.149606X0.07874*%
%TA.AperFunction,ViaPad*%
%ADD45C,0.04*%
%TA.AperFunction,ComponentPad*%
%ADD108C,0.03937*%
G75*
G01*
%LPD*%
X7427953Y1669684D2*
D13*
X7251969D1*
X7177953Y1743699D1*
X7427953Y1917715D2*
Y2093699D1*
X7477953Y2143699D1*
X6777953Y1743699D2*
X6733661Y1787991D1*
X6637992D1*
X6593701Y1743699D1*
X6877953D2*
X6777953D1*
X7077953D2*
X7037600Y1703346D1*
X6918306D1*
X6877953Y1743699D1*
X7177953D2*
X7077953D1*
X7293701Y3143701D2*
D14*
Y3243701D1*
X793701Y1544093D2*
D13*
X693701Y1644093D1*
Y3143306D1*
X844488Y3294093D1*
X5293701Y2643701D2*
X5243112D1*
X5143307Y2543896D1*
Y2490159D1*
Y2443896D1*
X8743701Y1343699D2*
D14*
X8868701Y1218699D1*
X9093701D1*
X8143701Y1843699D2*
D13*
Y1793699D1*
X7843504Y1493503D1*
X8393701Y993699D2*
X8293701D1*
X5793701D2*
Y893699D1*
X7277953Y2143699D2*
Y1977164D1*
X7337402Y1917715D1*
X4593701Y1443699D2*
X4493898D1*
X4444094Y1393896D1*
X2993504Y1593699D2*
X2843504Y1443699D1*
X2693701D1*
X4793898Y3193306D2*
X4143701D1*
Y3205904D1*
X9593701Y2643699D2*
D14*
X9643701Y2593699D1*
X10143701D1*
X10193701Y2643699D1*
Y2906495D1*
X6693701Y843699D2*
D13*
X6593701Y743699D1*
Y543699D1*
X3893701Y2643699D2*
X3844094D1*
X3743701Y2543306D1*
X4593701Y2643699D2*
X4543701D1*
X4443701Y2543699D1*
X1743504Y2643699D2*
X2043701Y2643896D1*
X3893701Y1443699D2*
X3793701D1*
X3743701Y1393699D1*
X5293701Y1443701D2*
X5193899D1*
X5144094Y1393896D1*
X7293701Y3243701D2*
D14*
X7344094Y3294094D1*
Y3393699D1*
X8293701Y993699D2*
D13*
X8193701D1*
X5793701Y893699D2*
Y793699D1*
X3793701Y3293699D2*
X3693701D1*
X4143701Y3205904D2*
Y3193701D1*
X4043702Y3293699D1*
X3793701D1*
X10193701Y2906495D2*
D14*
Y3095276D1*
X10242126Y3143701D1*
X2693701Y1443699D2*
D13*
X2513389Y1263387D1*
X1813385D1*
X1793701Y1243703D1*
Y943699D1*
X4993701Y943701D2*
X5170667D1*
X5190354Y924013D1*
Y674332D1*
X5210039Y654647D1*
X5782753D1*
X5893701Y543699D1*
X6693701Y843699D2*
X7774013D1*
X7793701Y863388D1*
Y1143699D1*
X5143307Y2490159D2*
X4744255D1*
X4724570Y2509844D1*
Y2724725D1*
X3893701Y2643699D2*
X3947438Y2589962D1*
X4397438D1*
X4443701Y2543699D1*
X7293701Y3243701D2*
X6843699D1*
X6693701Y3393699D1*
X9143701Y2993699D2*
Y2913389D1*
X9124012Y2893699D1*
X8843701D1*
X3893701Y1443699D2*
X3943504Y1393896D1*
X4444094D1*
X5144094D2*
X4952657D1*
X4902854Y1443699D1*
X4593701D1*
X9693701Y1793699D2*
X9977165D1*
X10043701Y1860235D1*
X3740118Y1544411D2*
X3468701D1*
X3449015Y1524725D1*
Y1407052D1*
X3429330Y1387367D1*
X3078110D1*
X3063031Y1402446D1*
X8143701Y1793699D2*
X8143700Y1793701D1*
X8443504Y1793503D1*
X2043700Y3189962D2*
X2382570D1*
X2403259Y3210651D1*
X2810653D1*
X2893701Y3293699D1*
X8393701Y993699D2*
X8455042Y1055040D1*
X8743700D1*
X7843504Y1493503D2*
X7277952Y1493505D1*
Y2745473D2*
X7495489D1*
X7547657Y2693306D1*
X7644094D1*
X5893701Y543699D2*
X5956415Y480985D1*
X6530987D1*
X6593701Y543699D1*
X7793701Y1143699D2*
X7839964Y1189962D1*
X7997438D1*
X8193701Y993699D1*
X2893701Y3293699D2*
X2941986Y3245414D1*
X3120926D1*
X3136004Y3230336D1*
X3630338D1*
X3693701Y3293699D1*
X6955433Y2504804D2*
X6959725Y2509096D1*
X7273660D1*
X7277952Y2504804D1*
X9943701Y3143701D2*
D14*
X9993701Y3093701D1*
Y2906495D1*
X10093701Y2806495D1*
Y2693699D1*
X1393701Y2444093D2*
D13*
X1439574Y2489966D1*
X1689771D1*
X1743504Y2543699D1*
X3293701D2*
X3491158D1*
X3537420Y2589962D1*
X3639964D1*
X3659649Y2570277D1*
Y2463385D1*
X3679335Y2443699D1*
X3893701D1*
X6693701Y1143699D2*
X6472271Y1365129D1*
Y1524726D1*
X6452586Y1544411D1*
X4397437D1*
X1743504Y2543699D2*
X1797237Y2489966D1*
X3052721D1*
X3141929Y2579174D1*
X1743504Y1543699D2*
X2169965D1*
X2219765Y1493899D1*
X2606106D1*
X2829177D1*
X2848862Y1513584D1*
Y1613387D1*
X2883626Y1648151D1*
X3020082D1*
X3039767Y1628466D1*
Y1537528D1*
X2993504Y1491265D1*
Y1372288D1*
X3013189Y1352603D1*
X3449015D1*
X3468700Y1372288D1*
Y1489962D1*
X3488385Y1509647D1*
X5339964D1*
X5359649Y1489962D1*
Y1309647D1*
X5339964Y1289962D1*
X5210370D1*
X5164109Y1243701D1*
X4993701D1*
X1743504Y1368162D2*
X2559492D1*
X1588972Y1589962D2*
X2211107D1*
X2257370Y1543699D1*
X2343504D1*
X3293701Y1743699D2*
X3548827D1*
X3789960Y1984833D1*
Y2070277D1*
X3809645Y2089962D1*
X4012129D1*
X4204653Y1897438D1*
X4684067D1*
X4830330Y2043701D1*
X4993701D1*
X2343504Y1543699D2*
X2389767Y1589962D1*
X2739964D1*
X2759649Y1609647D1*
Y1724013D1*
X2779336Y1743699D1*
X3293701D1*
X2343504Y1643699D2*
X2424523Y1724719D1*
Y1824013D1*
X2444210Y1843699D1*
X2693701D1*
X2409448Y1298151D2*
X836811Y1298159D1*
X3593701Y2243699D2*
X3647438Y2189962D1*
X4947439D1*
X4993701Y2143701D1*
X2693701Y1843699D2*
X2915996D1*
X2962258Y1889962D1*
X3364852D1*
X3384537Y1909647D1*
Y2034536D1*
X3593701Y2243699D1*
X3028267Y1456501D2*
X3079137D1*
Y1624012D1*
X3098825Y1643699D1*
X3293701D1*
X2343504Y1743699D2*
X2289767Y1689962D1*
X1581059D1*
X1478303Y1587206D1*
X850588D1*
X793701Y1644093D1*
X3293701Y1643699D2*
X3630986D1*
X3716783Y1729497D1*
X4761119D1*
X4921584Y1889962D1*
X5020279D1*
X5039964Y1909647D1*
Y2197437D1*
X4993701Y2243701D1*
X2693701Y2443699D2*
X3059155D1*
X3205417Y2589962D1*
X3408704D1*
X3528389Y2709647D1*
X4639964D1*
X4659649Y2689962D1*
Y2363385D1*
X4679334Y2343701D1*
X4993701D1*
X4794098Y2689962D2*
X6493700D1*
X4593701Y2343699D2*
X4293701D1*
X3893701D2*
X3839964Y2289962D1*
X3360830D1*
X3339964Y2310828D1*
Y2397436D1*
X3293701Y2443699D1*
X7921318Y3039765D2*
X6493700D1*
X1393701Y2344093D2*
X1493307Y2443699D1*
X1743504D1*
X2844256Y2690155D2*
X1370272D1*
X1350590Y2670473D1*
Y2387204D1*
X1393701Y2344093D1*
X3339964Y2310828D2*
X3319098Y2289962D1*
X3222306D1*
X3187543Y2324725D1*
X2844256D1*
X4293701Y2343699D2*
X3893701D1*
X3293701D2*
X3247438Y2389962D1*
X2197236D1*
X2150974Y2343699D1*
X1743504D1*
X8288594Y2993501D2*
Y2859450D1*
X8268909Y2839765D1*
X3601492D1*
X3551689Y2789962D1*
X3252051D1*
X3232366Y2770277D1*
Y2700324D1*
X1743504Y2343699D2*
X1687989D1*
X1588382Y2244093D1*
X1393701D1*
X3293701Y2243699D2*
X3151346D1*
X3105083Y2289962D1*
X1789767D1*
X1743504Y2243699D1*
X7762476Y2889962D2*
X3210039D1*
X3190354Y2870277D1*
Y2774604D1*
X3094216Y2678466D1*
X1743504Y2243699D2*
X1643898Y2144093D1*
X1393701D1*
X1743504Y2143699D2*
X1789767Y2189962D1*
X3247438D1*
X3293701Y2143699D1*
X1743504Y2043699D2*
X2056126D1*
X2109863Y1989962D1*
X3239964D1*
X3293701Y2043699D1*
X1393701Y1844093D2*
X1439578Y1889970D1*
X1689775D1*
X1743504Y1943699D1*
X1797233Y1889970D1*
X2847473D1*
X2901203Y1943699D1*
X3293701D1*
X2389759Y1789962D2*
X1797241D1*
X1743504Y1843699D1*
X2459287Y1789962D2*
X3104728D1*
X3158466Y1843699D1*
X3293701D1*
X1743504D2*
X1493307D1*
X1393701Y1744093D1*
X1743504Y1743699D2*
X1484744D1*
X1428250Y1687206D1*
X950588D1*
X793701Y1844093D1*
X2509649Y1332918D2*
X1789763D1*
X2697283D2*
X3488385D1*
X3508070Y1352603D1*
Y1470276D1*
X3527756Y1489962D1*
X4947439D1*
X4993701Y1443701D1*
X4863425Y761462D2*
X3347184D1*
X3327500Y781146D1*
Y1124725D1*
X884653Y1887206D2*
X1245984D1*
X1345984Y1787206D1*
X3137775Y1124725D2*
X2089960D1*
X1743504Y1643699D2*
X2089960Y1643698D1*
X3122696Y2040119D2*
X3119116Y2043699D1*
X2693701D1*
X8793701Y993699D2*
X8693701D1*
X8593701D1*
X8593700Y1209647D2*
X7822499D1*
X7804271Y1227875D1*
X7393700D1*
X6593701Y1443701D2*
Y1343699D1*
X6793701Y1143699D1*
X7177952Y1897363D2*
X6920275D1*
X6693701Y1743699D2*
X6993701Y1443699D1*
Y1143699D1*
X5293701Y1143701D2*
X5647804D1*
X5748393Y1043111D1*
X7593113D1*
X7693701Y1143699D1*
X3893701Y2043699D2*
X3809645Y1959644D1*
Y1923777D1*
X3575830Y1689962D1*
X2799019D1*
X2779334Y1670277D1*
Y1563387D1*
X2759647Y1543699D1*
X2693701D1*
X3593701Y2043699D2*
X3339964Y1789962D1*
X3218988D1*
X3192413Y1763387D1*
X2759649D1*
X2739964Y1743702D1*
Y1689963D1*
X2693701Y1643699D1*
X5293701Y1343701D2*
X5100046D1*
X5049456Y1293111D1*
X3744289D1*
X3593701Y1443699D1*
X4593701Y2243699D2*
X4547438Y2289962D1*
X4005618D1*
X3959356Y2243699D1*
X3893701D1*
X5793701Y1393699D2*
Y1193699D1*
X7800130Y2139765D2*
X8927756D1*
X3293701Y2643699D2*
X2992827D1*
X2939089Y2589962D1*
X2343504D1*
X1439570D1*
X1393701Y2544093D1*
X8639960Y2693501D2*
X8781213Y2834754D1*
X9234052D1*
X9253740Y2854442D1*
Y3459450D1*
X9234055Y3479135D1*
X5695704D1*
X5265318Y3048749D1*
X4828862D1*
X4593701Y2543699D2*
X4539964Y2489962D1*
X4119051D1*
X4065314Y2543699D1*
X3893701D1*
X2343504Y2643699D2*
Y2589962D1*
X6993700Y476379D2*
X6978621Y461300D1*
X5769197D1*
X5615220Y615277D1*
X4719771D1*
X4593700Y1842989D2*
X4173307D1*
X6993701Y543699D2*
X7039964Y589962D1*
X8543110D1*
X2343504Y2543699D2*
X1804842Y2543702D1*
X4293701Y2643699D2*
X4247438Y2689962D1*
X3639964D1*
X3593701Y2643699D1*
X2427677Y3124725D2*
X2525314D1*
X2547834Y3147245D1*
X3150886D1*
X3176693Y3121438D1*
X3293701Y2743699D2*
X3433783Y2744411D1*
X3593701Y2543699D2*
X3639964Y2497436D1*
Y2409647D1*
X3659649Y2389962D1*
X4227756D1*
X3290122Y3044411D2*
X2794414D1*
X2774728Y3024725D1*
Y2889962D1*
X6383063Y2289962D2*
X7615453D1*
X7765256Y2439765D1*
X8389767D1*
X8443504Y2493503D1*
X4227756Y2389962D2*
X4620279D1*
X4639964Y2370277D1*
Y2309647D1*
X4659649Y2289962D1*
X6383063D1*
X2343504Y2443699D2*
X2161599D1*
X2107861Y2389962D1*
X1601626D1*
X1498870Y2287206D1*
X1330905D1*
X1311220Y2306891D1*
Y2724408D1*
X1330905Y2744093D1*
X1393701D1*
X2612677Y2443702D2*
X2343504Y2443699D1*
X793701Y2844093D2*
X844685Y2793109D1*
X2271577D1*
X2274724Y2789962D1*
X4293701Y2143699D2*
X4347438Y2089962D1*
X4912677D1*
X7055287Y2474332D2*
X7020523Y2439568D1*
X6553267D1*
X6503661Y2389962D1*
X4912677D1*
X4293701Y2443699D2*
X4072678D1*
X4026415Y2489962D1*
X3714098D1*
X3694413Y2509647D1*
Y2586682D1*
X7243110Y1368871D2*
X8185358D1*
X8205043Y1388556D1*
Y1628269D1*
X2693701Y2943699D2*
Y3059486D1*
X2713389Y3079174D1*
X3394810D1*
X3444653Y3129017D1*
X2274724Y2789962D2*
X2405259D1*
X2558997Y2943699D1*
X2693701D1*
Y2843699D2*
X2781276D1*
X2947223Y3009647D1*
X3459732D1*
X3494496Y3044411D1*
X1451889Y2921970D2*
X1523026Y2993107D1*
X2617693D1*
X2343504Y2243699D2*
X1804842Y2243702D1*
X3494496Y3044411D2*
X3894913D1*
X4019240Y2920084D1*
X7514960D1*
X7569405Y2974529D1*
X8382161Y2705001D2*
X8347397Y2739765D1*
X7772141D1*
X7717653Y2794253D1*
X3674728D1*
X3541929Y3175887D2*
X2501811D1*
X2693701Y2643699D2*
X2883939D1*
X2903626Y2663387D1*
Y2769095D1*
X2882759Y2789962D1*
X2536574D1*
X3648460Y2989962D2*
X3124493D1*
X2903626Y2769095D1*
X1428464Y3070273D2*
X1448153Y3089962D1*
X2536574D1*
X8243110Y1663513D2*
Y1505001D1*
X7736007Y2339765D2*
X8255090D1*
X5848149Y2212285D2*
X5863227Y2227363D1*
X7720929D1*
X7736007Y2212285D1*
X3157460Y1589962D2*
X3678248D1*
X3748256Y1659970D1*
X5204649D1*
X5224334Y1679655D1*
Y2073426D1*
X5244019Y2093111D1*
X6287716D1*
X6402283Y2207678D1*
X7627110D1*
X7646795Y2187993D1*
Y2034529D1*
X2536578Y2024725D2*
X2601815Y2089962D1*
X2824570D1*
X2343504Y1943699D2*
X1977949D1*
X1931686Y1989962D1*
X1247832D1*
X793701Y2444093D1*
X2536578Y1943702D2*
X2343504Y1943699D1*
X7646795Y2034529D2*
X7698913D1*
X7704149Y2039765D1*
X8218090D1*
X8264353Y1993503D1*
X8443504D1*
X2824570Y2089962D2*
X3157460D1*
X7893701Y1143699D2*
Y893699D1*
X7843701Y843699D1*
X9455906Y2643699D2*
D14*
X9501181Y2688975D1*
Y3323621D1*
X9619291Y3441731D1*
Y3446161D1*
X8593701Y693699D2*
D13*
X8693701D1*
X3593701Y1943699D2*
X3644094D1*
X3743701Y2043306D1*
X3593701Y843699D2*
X3693701D1*
X3743701Y893699D1*
X7376378Y2143699D2*
X7420669Y2187991D1*
X7532087D1*
X7576378Y2143699D1*
X4143701Y3343699D2*
X4093701Y3393699D1*
X3793701D1*
X7843504Y3393503D2*
X8143701Y3093306D1*
Y2993699D1*
X4993701Y1743701D2*
X5143307Y1893307D1*
Y1943896D1*
X6093701Y1193699D2*
Y1393699D1*
X4993701Y743701D2*
X5142913Y892912D1*
X5144094Y893896D1*
X4293701Y843699D2*
X4393898D1*
X4444094Y893896D1*
X2343504Y1443699D2*
X2093898D1*
X2043701Y1493896D1*
X9093701Y1318699D2*
D14*
X8906496D1*
X8881496Y1343699D1*
X10042126Y3143701D2*
X10093701Y3092126D1*
Y3093701D1*
X10143701Y3143701D1*
X1393701Y2844093D2*
D13*
Y3244881D1*
X1344488Y3294093D1*
X2993504Y2743699D2*
X3193504Y2943699D1*
X3293701D1*
X4293701Y1943699D2*
X4343701D1*
X4443701Y2043699D1*
X10093701Y3093701D2*
D14*
Y2906495D1*
X9619291Y3441731D2*
X9744096D1*
X10042126Y3143701D1*
X8693701Y693699D2*
D13*
X8793701D1*
X7576378Y2143699D2*
X7518504Y2085825D1*
Y1917715D1*
X8593701Y693699D2*
X8443701Y843699D1*
X7843701D1*
X4993701Y743701D2*
X5102439Y634962D1*
X5702438D1*
X5793701Y543699D1*
X2793701Y3393699D2*
X1444094D1*
X1344488Y3294093D1*
X9193701Y2943699D2*
Y3422044D1*
X9174011Y3441733D1*
X8911614D1*
X8891929Y3422048D1*
Y3159450D1*
X8872244Y3139765D1*
X8664566D1*
X8643700Y3160631D1*
X8622834Y3139765D1*
X8304530D1*
X8158465Y2993699D1*
X8143701D1*
X4293701Y1943699D2*
X4093701Y2143699D1*
X3893701D1*
X7344094Y2393306D2*
X7278148Y2327359D1*
X6685161D1*
X1393701Y1544093D2*
X1443898Y1493896D1*
X2043701D1*
X3743701Y893699D2*
X4243701D1*
X4293701Y843699D1*
X3293701Y2943699D2*
X3818344D1*
X3861614Y2986970D1*
X4993701Y1743701D2*
X4944733Y1694733D1*
X4443700D1*
X7344094Y2593306D2*
X7644094D1*
X8643700Y3160631D2*
X8643701Y3293503D1*
X4505433Y893895D2*
X4793901D1*
X6593701Y3393699D2*
X5986613D1*
X5586614Y2993701D1*
X7244094Y3393699D2*
X7177460D1*
X7129229Y3441930D1*
X6641932D1*
X6593701Y3393699D1*
X7395866Y3339765D2*
X7392322Y3343309D1*
Y3422245D1*
X7372637Y3441930D1*
X7292325D1*
X7244094Y3393699D1*
X6793701Y543699D2*
X6693701D1*
X7843701Y843699D2*
X7757755Y757753D1*
X7007755D1*
X6793701Y543699D1*
X6685161Y2327359D2*
X6613779D1*
X6594094Y2347044D1*
Y2393306D1*
X7444094Y3393699D2*
Y3293307D1*
X7593701Y3143701D1*
X7644094Y2493306D2*
X7535715D1*
X7489452Y2539568D1*
X6940357D1*
X6894094Y2493306D1*
X7544094Y3393699D2*
Y3293307D1*
X7593701Y3243701D1*
X7644094Y2393306D2*
X7470130D1*
X7423867Y2439568D1*
X7411141D1*
X7122024D1*
X7075762Y2393306D1*
X6894094D1*
X4949283Y2978466D2*
X4112547D1*
X3880362Y3210651D1*
X3093700D1*
X7892913Y1244411D2*
X8657804D1*
X8783516Y1118699D1*
X9093701D1*
X8997283Y2339765D2*
X8352633D1*
X8298896Y2393503D1*
X7843504D1*
X2193700Y2942950D2*
X2343504Y2943699D1*
X2093700Y1024725D2*
X1974724D1*
X9993701Y2693699D2*
D14*
X9943701D1*
X9619291Y3018110D1*
Y3198130D1*
X9093701Y2693699D2*
D13*
X8993701Y2593699D1*
X8843701D1*
X6977952Y1842914D2*
X7866239D1*
X7913287Y1889962D1*
X8194791D1*
X8244988Y1839765D1*
X9093696D1*
X8743701Y3293503D2*
X8695470Y3341733D1*
X8426571D1*
X8328539Y3439765D1*
X7797240D1*
Y3339766D1*
X7843504Y3293503D1*
X8743701Y3393503D2*
X8677753Y3459450D1*
X7777555D1*
X7757870Y3439765D1*
Y3279136D1*
X7843504Y3193503D1*
X8943701Y3293503D2*
Y3059451D1*
X8924015Y3039765D1*
X8282774D1*
X8136512Y2893503D1*
X7843504D1*
X8943701Y3393503D2*
X8991929Y3345274D1*
Y3020080D1*
X8972244Y3000395D1*
X8574500D1*
X8513870Y2939765D1*
X8327964D1*
X8308279Y2920080D1*
Y2813190D1*
X8288592Y2793503D1*
X7843504D1*
X9043701Y3293503D2*
Y2955711D1*
X9024015Y2936025D1*
X8583555D1*
X8563870Y2916340D1*
Y2659450D1*
X8544185Y2639765D1*
X7897241D1*
X7843504Y2693503D1*
X4793898Y3393306D2*
X4745273Y3441930D1*
X3741932D1*
X3693701Y3393699D1*
X4693898Y3293306D2*
X4817323D1*
X4837007Y3312990D1*
Y3441930D1*
X4817322Y3461615D1*
X2961617D1*
X2893701Y3393699D1*
X9693701Y1893699D2*
X9205433D1*
X9051498Y1739765D1*
X8158464D1*
X8138779Y1720080D1*
Y1423320D1*
X8119094Y1403635D1*
X7739960D1*
X3959649Y796225D2*
X4778778D1*
X4972515Y989962D1*
X5370463D1*
X5666133Y694292D1*
X6299901D1*
X6530334Y924725D1*
X7739960D1*
X6693701Y1443701D2*
Y1452558D1*
X6549409Y1596849D1*
Y1999408D1*
X6593701Y2043699D1*
X6639964Y2089962D1*
X7031690D1*
X7077953Y2043699D1*
X4379334Y2759489D2*
X7151283D1*
X7271204Y2639568D1*
X7678948D1*
X7771468Y2547048D1*
X8690352D1*
X8843701Y2393699D1*
X6777953Y2043699D2*
X6724216Y1989962D1*
X6639964D1*
X6593701Y1943699D1*
X6693701D2*
X6877953D1*
X6977953Y2043699D1*
X4293701Y1143699D2*
X4146767D1*
X4096213Y1194253D1*
X3743147D1*
X3593701Y1343699D1*
X4293701Y1043699D2*
X4247438Y1089962D1*
X3647438D1*
X3593701Y1143699D1*
X4593701Y1043699D2*
X4539964Y989962D1*
X3639964D1*
X3593701Y943699D1*
X5259098Y1590442D2*
X3825204D1*
X7055906Y2711022D2*
X7005931D1*
X6977385Y2739568D1*
X6640357D1*
X6594094Y2693306D1*
X7130709Y2711022D2*
X7062405Y2642718D1*
X6643507D1*
X6594094Y2593306D1*
X3550326Y1189962D2*
X1997437D1*
X7843504Y1593503D2*
X7789767Y1539765D1*
X7067129D1*
X7047444Y1520080D1*
Y1212797D1*
X7067130Y1193111D1*
X7720275D1*
X7739960Y1173426D1*
Y994253D1*
X7720275Y974568D1*
X6460135D1*
X6217926Y732359D1*
X5993704D1*
X5678409D1*
X5658724Y752044D1*
Y1070277D1*
X5639039Y1089962D1*
X4521397D1*
X4421397Y1189962D1*
X4254626D1*
X4200889Y1243699D1*
X3893701D1*
X9693701Y2243699D2*
X9736023Y2201377D1*
Y2066143D1*
X9715157Y2045277D1*
X8353133D1*
X9736023Y2066143D2*
X9944480D1*
X9965349Y2045274D1*
X10043701D1*
X7343862Y1264096D2*
X7358940Y1279174D1*
X8333448D1*
X8353133Y1298859D1*
Y1628269D1*
X6093700Y634966D2*
X6339272D1*
X6594268Y889962D1*
X7343862D1*
X8353133Y2045277D2*
X8304908Y2093503D1*
X7843504D1*
X5355043Y2443702D2*
X5902598D1*
X2140283Y2743698D2*
X2254716D1*
X2254718Y2743699D1*
X2343504D1*
X5189570Y2189962D2*
X5540236D1*
X5597322Y2247048D1*
X7984866D1*
X4914519Y3201655D2*
Y3461615D1*
X4894834Y3481300D1*
X2861614D1*
X2841929Y3461615D1*
Y3364765D1*
X2822244Y3345080D1*
X2746055D1*
X2694086Y3293111D1*
X2140283D1*
X8962519Y2239765D2*
X8165409D1*
X8111672Y2293503D1*
X7843504D1*
X6417822Y1439962D2*
X5623510D1*
X5427249Y1243701D1*
X5293701D1*
X7082208Y1319029D2*
X8258189D1*
X8277874Y1338714D1*
Y1673817D1*
X8297560Y1693503D1*
X8443504D1*
X1893701Y943699D2*
Y715749D1*
X1941338Y668111D1*
Y615155D1*
X1961023Y595470D1*
X2344881D1*
X2393110Y643699D1*
X7693701Y543699D2*
X7755037Y482363D1*
X8443504D1*
X2393110Y643699D2*
X2456296Y580513D1*
X5472920D1*
X5611818Y441615D1*
X7591617D1*
X7693701Y543699D1*
X3593701Y1243699D2*
X1959647D1*
X1939960Y1224013D1*
Y902788D1*
X2093110Y749638D1*
Y643699D1*
X2693701Y2243699D2*
X3040310D1*
X3044374Y2239635D1*
X5355043Y2343702D2*
X5463941D1*
X2536578Y2097442D2*
X2529098Y2089962D1*
X1334968D1*
X937724Y2487206D1*
X770275D1*
X750590Y2467521D1*
Y2187204D1*
X793701Y2144093D1*
X7439960Y1094288D2*
X7544290D1*
X7593701Y1143699D1*
X4293701Y1343699D2*
X4465647D1*
X4515058Y1393111D1*
X4768346D1*
X4828661Y1332796D1*
X8957165Y2630391D2*
Y2774529D1*
X2493110Y643699D2*
X2556420Y707009D1*
X4188385D1*
X7378626Y1079214D2*
X6467924D1*
X6404027Y1143111D1*
X5767717D1*
X5720866Y1189962D1*
X4828661D1*
X9141929Y2630391D2*
X9241488Y2530832D1*
X10006568D1*
X10093701Y2443699D1*
X3789960Y1555198D2*
Y1605521D1*
X3809645Y1625206D1*
X5374728D1*
X8443504Y1893503D2*
X8397241Y1939765D1*
X7939960D1*
X5293701Y2143701D2*
X5660594Y2143698D1*
X7939960Y1939765D2*
X7816138D1*
X7738972Y1862599D1*
X7239961D1*
X7220275Y1882285D1*
Y2109647D1*
X7200590Y2129332D1*
X6518830D1*
X6428279Y2038781D1*
X5660594D1*
D45*
X3063031Y1402446D3*
X3740118Y1544411D3*
X8743700Y1055040D3*
X7277952Y1493505D3*
Y2504804D3*
X6955433D3*
X2043700Y3189962D3*
X4724570Y2724725D3*
X7277952Y2745473D3*
X4397437Y1544411D3*
X3141929Y2579174D3*
X2606106Y1493899D3*
X2559492Y1368162D3*
X1743504D3*
X1588972Y1589962D3*
X2409448Y1298151D3*
X836811Y1298159D3*
X3028267Y1456501D3*
X6493700Y2689962D3*
X4794098D3*
X2844256Y2324725D3*
Y2690155D3*
X6493700Y3039765D3*
X7921318D3*
X3232366Y2700324D3*
X8288594Y2993501D3*
X3094216Y2678466D3*
X7762476Y2889962D3*
X2459287Y1789962D3*
X2389759D3*
X1789763Y1332918D3*
X2509649D3*
X2697283D3*
X4863425Y761462D3*
X3327500Y1124725D3*
X1345984Y1787206D3*
X884653Y1887206D3*
X3122696Y2040119D3*
X2089960Y1124725D3*
Y1643698D3*
X3137775Y1124725D3*
X7393700Y1227875D3*
X8593700Y1209647D3*
X6920275Y1897363D3*
X7177952D3*
X8927756Y2139765D3*
X7800130D3*
X4828862Y3048749D3*
X8639960Y2693501D3*
X4719771Y615277D3*
X6993700Y476379D3*
X4173307Y1842989D3*
X4593700D3*
X8543110Y589962D3*
X1804842Y2543702D3*
X3176693Y3121438D3*
X2427677Y3124725D3*
X3433783Y2744411D3*
X6383063Y2289962D3*
X2612677Y2443702D3*
X2774728Y2889962D3*
X3290122Y3044411D3*
X4227756Y2389962D3*
X3444653Y3129017D3*
X4912677Y2089962D3*
Y2389962D3*
X7055287Y2474332D3*
X3694413Y2586682D3*
X8205043Y1628269D3*
X7243110Y1368871D3*
X2274724Y2789962D3*
X1451889Y2921970D3*
X2617693Y2993107D3*
X7569405Y2974529D3*
X1804842Y2243702D3*
X3494496Y3044411D3*
X3674728Y2794253D3*
X8382161Y2705001D3*
X2501811Y3175887D3*
X3541929D3*
X3648460Y2989962D3*
X2536574Y2789962D3*
Y3089962D3*
X1428464Y3070273D3*
X8243110Y1505001D3*
Y1663513D3*
X8255090Y2339765D3*
X7736007D3*
Y2212285D3*
X5848149D3*
X3157460Y2089962D3*
Y1589962D3*
X2536578Y1943702D3*
Y2024725D3*
X2824570Y2089962D3*
X7646795Y2034529D3*
X6685161Y2327359D3*
X7395866Y3339765D3*
X4443700Y1694733D3*
X4793901Y893895D3*
X4505433D3*
X3861614Y2986970D3*
X7489452Y2539568D3*
X7411141Y2439568D3*
X3093700Y3210651D3*
X4949283Y2978466D3*
X7892913Y1244411D3*
X8997283Y2339765D3*
X2193700Y2942950D3*
X1974724Y1024725D3*
X2093700D3*
X9093696Y1839765D3*
X6977952Y1842914D3*
X7739960Y1403635D3*
Y924725D3*
X3959649Y796225D3*
X4379334Y2759489D3*
X3825204Y1590442D3*
X5259098D3*
X1997437Y1189962D3*
X3550326D3*
X5993704Y732359D3*
X8353133Y1628269D3*
X7343862Y1264096D3*
Y889962D3*
X6093700Y634966D3*
X8353133Y2045277D3*
X5902598Y2443702D3*
X5355043D3*
X7984866Y2247048D3*
X5189570Y2189962D3*
X2140283Y3293111D3*
X4914519Y3201655D3*
X2140283Y2743698D3*
X8962519Y2239765D3*
X6417822Y1439962D3*
X7082208Y1319029D3*
X8443504Y482363D3*
X2536578Y2097442D3*
X5463941Y2343702D3*
X5355043D3*
X3044374Y2239635D3*
X8957165Y2774529D3*
Y2630391D3*
X4188385Y707009D3*
X9141929Y2630391D3*
X4828661Y1189962D3*
X7378626Y1079214D3*
X4828661Y1332796D3*
X7439960Y1094288D3*
X5374728Y1625206D3*
X3789960Y1555198D3*
X5660594Y2038781D3*
Y2143698D3*
X7939960Y1939765D3*
D17*
X6977953Y1743699D3*
D18*
Y2043699D3*
D19*
X8493701Y993699D3*
Y693699D3*
D20*
X8193701D3*
D21*
X8293701D3*
X8393701D3*
D19*
X8593701D3*
X8693701D3*
X8793701D3*
Y993699D3*
X8693701D3*
X8593701D3*
X8393701D3*
X8293701D3*
X8193701D3*
D20*
X3293701Y1443699D3*
D21*
Y1543699D3*
Y1643699D3*
Y1743699D3*
Y1843699D3*
Y1943699D3*
Y2043699D3*
Y2143699D3*
Y2243699D3*
Y2343699D3*
Y2443699D3*
Y2543699D3*
Y2643699D3*
Y2743699D3*
Y2843699D3*
Y2943699D3*
X2693701D3*
Y2843699D3*
Y2743699D3*
Y2643699D3*
Y2543699D3*
Y2443699D3*
Y2343699D3*
Y2243699D3*
Y2143699D3*
Y2043699D3*
Y1943699D3*
Y1843699D3*
Y1743699D3*
Y1643699D3*
Y1543699D3*
Y1443699D3*
D17*
X6877953Y2043699D3*
D18*
Y1743699D3*
D20*
X6693701D3*
D19*
Y1843699D3*
D22*
Y1943699D3*
D20*
Y2043699D3*
D19*
X6593701D3*
Y1943699D3*
Y1843699D3*
Y1743699D3*
D20*
X7843504Y3393503D3*
D21*
Y3293503D3*
Y3193503D3*
Y3093503D3*
Y2993503D3*
Y2893503D3*
Y2793503D3*
Y2693503D3*
Y2593503D3*
Y2493503D3*
Y2393503D3*
Y2293503D3*
Y2193503D3*
Y2093503D3*
Y1993503D3*
Y1893503D3*
Y1793503D3*
Y1693503D3*
Y1593503D3*
Y1493503D3*
X8443504D3*
Y1593503D3*
Y1693503D3*
Y1793503D3*
Y1893503D3*
Y1993503D3*
Y2093503D3*
Y2193503D3*
Y2293503D3*
Y2393503D3*
Y2493503D3*
Y2593503D3*
Y2693503D3*
Y2793503D3*
Y2893503D3*
Y2993503D3*
Y3093503D3*
Y3193503D3*
Y3293503D3*
Y3393503D3*
D20*
X9593701Y2643699D3*
D19*
X9455906D3*
D20*
X4143701Y3205904D3*
D19*
Y3343699D3*
D23*
X5393701Y493699D3*
D24*
X9093701Y2943699D3*
D25*
X9143701Y2993699D3*
X9193701Y2943699D3*
D19*
X7277953Y2143699D3*
X7376378D3*
D23*
X493701Y493699D3*
D26*
X7244094Y3393699D3*
D27*
X7344094D3*
X7444094D3*
X7544094D3*
D26*
X2793701Y3293699D3*
D27*
Y3393699D3*
X2893701Y3293699D3*
Y3393699D3*
X2993701Y3293699D3*
Y3393699D3*
X3093701Y3293699D3*
Y3393699D3*
X3193701Y3293699D3*
Y3393699D3*
X3293701Y3293699D3*
Y3393699D3*
X3393701Y3293699D3*
Y3393699D3*
X3493701Y3293699D3*
Y3393699D3*
X3593701Y3293699D3*
Y3393699D3*
X3693701Y3293699D3*
Y3393699D3*
X3793701Y3293699D3*
Y3393699D3*
D20*
X6594094Y2693306D3*
D21*
Y2593306D3*
Y2493306D3*
Y2393306D3*
X6894094D3*
Y2493306D3*
Y2593306D3*
Y2693306D3*
D19*
X3743701Y1393699D3*
Y893699D3*
D20*
X1743504Y3343699D3*
D21*
Y3243699D3*
Y3143699D3*
Y3043699D3*
Y2943699D3*
Y2843699D3*
Y2743699D3*
Y2643699D3*
Y2543699D3*
Y2443699D3*
Y2343699D3*
Y2243699D3*
Y2143699D3*
Y2043699D3*
Y1943699D3*
Y1843699D3*
Y1743699D3*
Y1643699D3*
Y1543699D3*
Y1443699D3*
X2343504D3*
Y1543699D3*
Y1643699D3*
Y1743699D3*
Y1843699D3*
Y1943699D3*
Y2043699D3*
Y2143699D3*
Y2243699D3*
Y2343699D3*
Y2443699D3*
Y2543699D3*
Y2643699D3*
Y2743699D3*
Y2843699D3*
Y2943699D3*
Y3043699D3*
Y3143699D3*
Y3243699D3*
Y3343699D3*
D20*
X8743701Y1343699D3*
D19*
X8881496D3*
D17*
X7593701Y3243701D3*
D18*
X7293701D3*
D19*
X6693701Y843699D3*
X7843701D3*
D17*
X7077953Y2043699D3*
D18*
Y1743699D3*
D19*
X7477953Y2143699D3*
X7576378D3*
D20*
X3593701Y1443699D3*
D21*
Y1343699D3*
Y1243699D3*
Y1143699D3*
Y1043699D3*
Y943699D3*
Y843699D3*
X3893701D3*
Y943699D3*
Y1043699D3*
Y1143699D3*
Y1243699D3*
Y1343699D3*
Y1443699D3*
D23*
X10293701Y3443699D3*
D17*
X8843701Y2893699D3*
D18*
Y2593699D3*
D17*
X9693701Y2243699D3*
D18*
Y2143699D3*
D28*
X1393701Y1544093D3*
D29*
Y1644093D3*
Y1744093D3*
Y1844093D3*
Y1944093D3*
Y2044093D3*
Y2144093D3*
Y2244093D3*
Y2344093D3*
Y2444093D3*
Y2544093D3*
Y2644093D3*
Y2744093D3*
Y2844093D3*
X793701D3*
Y2744093D3*
Y2644093D3*
Y2544093D3*
Y2444093D3*
Y2344093D3*
Y2244093D3*
Y2144093D3*
Y2044093D3*
Y1944093D3*
Y1844093D3*
Y1744093D3*
Y1644093D3*
Y1544093D3*
D19*
X5793701Y1093699D3*
X6093701D3*
D20*
Y793699D3*
D21*
Y893699D3*
Y993699D3*
D19*
Y1193699D3*
Y1293699D3*
Y1393699D3*
X5793701D3*
Y1293699D3*
Y1193699D3*
Y993699D3*
Y893699D3*
Y793699D3*
D26*
X9093701Y2193699D3*
D27*
X9193701D3*
D20*
X10043701Y2045274D3*
D19*
Y1942912D3*
Y2127951D3*
Y1860235D3*
X9933465Y2127951D3*
Y1860235D3*
D30*
X10155906Y1724408D3*
D31*
X10187402Y1994093D3*
D30*
X10155906Y2263778D3*
D17*
X8843701Y2393699D3*
D18*
Y2093699D3*
D17*
X6777953Y2043699D3*
D18*
Y1743699D3*
D19*
X2043701Y2643896D3*
Y1493896D3*
D26*
X8643701Y3293503D3*
D27*
Y3393503D3*
X8743701Y3293503D3*
Y3393503D3*
X8843701Y3293503D3*
Y3393503D3*
X8943701Y3293503D3*
Y3393503D3*
X9043701Y3293503D3*
Y3393503D3*
X9143701Y3293503D3*
Y3393503D3*
D23*
X493701Y3443699D3*
D26*
X9093701Y1318699D3*
D32*
Y1218699D3*
Y1118699D3*
Y1018699D3*
Y918699D3*
Y818699D3*
D19*
X9943701Y3143701D3*
X10042126D3*
D33*
X9619291Y3198130D3*
D34*
Y3446161D3*
D35*
X9430315Y3312303D3*
D19*
X4444094Y1393896D3*
Y893896D3*
D36*
X9993701Y2906495D3*
D37*
X10093701D3*
X10193701D3*
D19*
X5144094Y1393896D3*
Y893896D3*
D20*
X4293701Y1443699D3*
D21*
Y1343699D3*
Y1243699D3*
Y1143699D3*
Y1043699D3*
Y943699D3*
Y843699D3*
X4593701D3*
Y943699D3*
Y1043699D3*
Y1143699D3*
Y1243699D3*
Y1343699D3*
Y1443699D3*
D38*
X6693701Y1443701D3*
D39*
X6643701D3*
X6593701D3*
D17*
X9693701Y1893699D3*
D18*
Y1793699D3*
D19*
X3743701Y2543306D3*
Y2043306D3*
D26*
X9093701Y2443699D3*
D27*
X9193701D3*
D20*
X4293701Y2643699D3*
D21*
Y2543699D3*
Y2443699D3*
Y2343699D3*
Y2243699D3*
Y2143699D3*
Y2043699D3*
Y1943699D3*
X4593701D3*
Y2043699D3*
Y2143699D3*
Y2243699D3*
Y2343699D3*
Y2443699D3*
Y2543699D3*
Y2643699D3*
D40*
X6354331Y2993701D3*
D41*
X5586614D3*
D23*
X10293701Y493699D3*
D17*
X7177953Y2043699D3*
D18*
Y1743699D3*
D20*
X4993701Y2643701D3*
D21*
Y2543701D3*
Y2443701D3*
Y2343701D3*
Y2243701D3*
Y2143701D3*
Y2043701D3*
Y1943701D3*
Y1843701D3*
Y1743701D3*
X5293701D3*
Y1843701D3*
Y1943701D3*
Y2043701D3*
Y2143701D3*
Y2243701D3*
Y2343701D3*
Y2443701D3*
Y2543701D3*
Y2643701D3*
D26*
X1793110Y643699D3*
D27*
X1893110D3*
X1993110D3*
X2093110D3*
X2193110D3*
X2293110D3*
X2393110D3*
X2493110D3*
D26*
X9993701Y2693699D3*
D27*
X10093701D3*
D20*
X7344094Y2693306D3*
D21*
Y2593306D3*
Y2493306D3*
Y2393306D3*
X7644094D3*
Y2493306D3*
Y2593306D3*
Y2693306D3*
D19*
X8143701Y1843699D3*
Y2993699D3*
D20*
X4993701Y1443701D3*
D21*
Y1343701D3*
Y1243701D3*
Y1143701D3*
Y1043701D3*
Y943701D3*
Y843701D3*
Y743701D3*
X5293701D3*
Y843701D3*
Y943701D3*
Y1043701D3*
Y1143701D3*
Y1243701D3*
Y1343701D3*
Y1443701D3*
D26*
X6593701Y3393699D3*
D27*
X6693701D3*
X6793701D3*
X6893701D3*
D19*
X5143307Y2443896D3*
Y1943896D3*
D26*
X9993701Y2443699D3*
D27*
X10093701D3*
D20*
X3593701Y2643699D3*
D21*
Y2543699D3*
Y2443699D3*
Y2343699D3*
Y2243699D3*
Y2143699D3*
Y2043699D3*
Y1943699D3*
X3893701D3*
Y2043699D3*
Y2143699D3*
Y2243699D3*
Y2343699D3*
Y2443699D3*
Y2543699D3*
Y2643699D3*
D19*
X844488Y3294093D3*
X1344488D3*
D42*
X4793898Y3193306D3*
X4693898Y3293306D3*
X4793898Y3393306D3*
D26*
X5793701Y543699D3*
D27*
X5893701D3*
X5993701D3*
X6093701D3*
D17*
X7593701Y3143701D3*
D18*
X7293701D3*
D108*
X7055906Y2711022D3*
X7130709D3*
D20*
X7893701Y1143699D3*
D21*
X7793701D3*
X7693701D3*
X7593701D3*
X7493701D3*
X7393701D3*
X7293701D3*
X7193701D3*
X7093701D3*
X6993701D3*
X6893701D3*
X6793701D3*
X6693701D3*
X6593701D3*
Y543699D3*
X6693701D3*
X6793701D3*
X6893701D3*
X6993701D3*
X7093701D3*
X7193701D3*
X7293701D3*
X7393701D3*
X7493701D3*
X7593701D3*
X7693701D3*
X7793701D3*
X7893701D3*
D43*
X7518504Y1917715D3*
X7427953D3*
D44*
Y1669684D3*
D43*
X7337402Y1917715D3*
D20*
X1793701Y943699D3*
D21*
X1893701D3*
X1993701D3*
X2093701D3*
X2193701D3*
X2293701D3*
D19*
X10143701Y3143701D3*
X10242126D3*
X4443701Y2543699D3*
Y2043699D3*
X2993504Y1593699D3*
Y2743699D3*
D23*
X5393701Y3443699D3*
D26*
X9093701Y2693699D3*
D27*
X9193701D3*
M02*
