%TF.GenerationSoftware,Novarm,DipTrace,4.3.0.5*%
%TF.CreationDate,2023-08-20T22:22:43+01:00*%
%FSLAX26Y26*%
%MOIN*%
%TF.FileFunction,Copper,L2,Bot*%
%TF.Part,Single*%
%TA.AperFunction,Conductor*%
%ADD13C,0.009843*%
%TA.AperFunction,ComponentPad*%
%ADD14C,0.03937*%
%ADD17C,0.055118*%
%ADD18C,0.055118*%
%ADD19R,0.062992X0.062992*%
%ADD20C,0.062992*%
%ADD21C,0.062992*%
%ADD22C,0.06*%
%ADD23C,0.137795*%
%ADD24R,0.051181X0.051181*%
%ADD25C,0.051181*%
%ADD26R,0.066929X0.066929*%
%ADD27C,0.066929*%
%ADD28R,0.056693X0.056693*%
%ADD29C,0.056693*%
%ADD30O,0.137795X0.07874*%
%ADD31O,0.07874X0.15748*%
%ADD32C,0.066929*%
%ADD33R,0.181102X0.07874*%
%ADD34O,0.165354X0.07874*%
%ADD35O,0.07874X0.165354*%
%ADD36R,0.075X0.07874*%
%ADD37O,0.075X0.07874*%
%ADD38R,0.041339X0.059055*%
%ADD39O,0.041339X0.059055*%
%ADD40R,0.082677X0.082677*%
%ADD41C,0.082677*%
%ADD42C,0.056693*%
%TA.AperFunction,ViaPad*%
%ADD45C,0.04*%
G75*
G01*
%LPD*%
X6593701Y1744390D2*
D13*
Y1605439D1*
X6643701Y1555439D1*
Y1444391D1*
X7477953Y2144390D2*
X7477952Y1775023D1*
X1743504Y2644390D2*
X1557165Y2830729D1*
Y3077884D1*
X1537477Y3097572D1*
X1041700D1*
X844488Y3294784D1*
X9693701Y1794390D2*
X9651374Y1836716D1*
Y2102064D1*
X9693701Y2144390D1*
X5643701Y1144391D2*
Y913486D1*
X5663385Y893802D1*
X5874016D1*
X5893701Y874117D1*
Y544390D1*
X8843701Y2894390D2*
X8691933Y3046157D1*
Y3345961D1*
X8643701Y3394193D1*
X4993701Y944391D2*
X5144094Y1094785D1*
Y1394587D1*
X1793701Y944390D2*
Y871269D1*
X1893110Y771860D1*
Y644390D1*
X7843504Y1494193D2*
X7793701Y1444390D1*
Y1144390D1*
X7293701Y3144391D2*
Y2902633D1*
X7277952Y2886885D1*
Y2677267D1*
X4593701Y2644390D2*
Y2993800D1*
X4793898Y3193996D1*
X2043701Y2644587D2*
X2043700Y3090653D1*
X9593701Y2644390D2*
X9243701Y2994390D1*
X9143701D1*
X9693701Y2144390D2*
X9593701Y2244390D1*
Y2644390D1*
X5144094Y1394587D2*
X5097047Y1441634D1*
Y2398327D1*
X5143307Y2444587D1*
X7277952Y2677267D2*
X7277953Y2144390D1*
X2943543Y3222039D2*
X2893700D1*
X2893701Y3294390D2*
X2910079D1*
X2943543Y3260926D1*
Y3222039D1*
X8443504Y3194193D2*
X8215972D1*
X7967544Y3442621D1*
X6298149D1*
X6278464Y3422936D1*
Y1490653D1*
X3293701Y2544390D2*
X3447438Y2390653D1*
X3839964D1*
X3893701Y2444390D1*
X4293701Y2244390D2*
X4366148D1*
X4379334Y2231204D1*
X4400200Y2210338D1*
X4470275D1*
X4489960Y2230023D1*
Y2340650D1*
X4593701Y2444390D1*
X3133901Y2590653D2*
Y3218026D1*
X3141929Y3226054D1*
Y3346161D1*
X3093701Y3394390D1*
X4379334Y2231204D2*
X4359649Y2211519D1*
Y1490653D1*
X6278464D2*
Y1387145D1*
X6587165Y1078444D1*
X6627755D1*
X6693701Y1144390D1*
X3893701Y2444390D2*
X3955043Y2383047D1*
Y2244393D1*
X1743504Y1544390D2*
X1689767Y1490653D1*
X1207126D1*
X1187439Y1510340D1*
Y1851045D1*
X793701Y2244784D1*
X2612677Y777227D2*
X2389763Y1000141D1*
Y1494590D1*
X4818389Y1079869D2*
Y1224704D1*
X4838077Y1244391D1*
X4993701D1*
X2389763Y1494590D2*
Y1670968D1*
X2370078Y1690653D1*
X2316925D1*
X2297240Y1710338D1*
Y1770968D1*
X2316925Y1790653D1*
X2526102D1*
X2545787Y1810338D1*
Y2196477D1*
X2693701Y2344390D1*
X2512771Y1413212D2*
Y1699066D1*
X2565472Y1751767D1*
Y2124704D1*
X2585159Y2144390D1*
X2693701D1*
X1662476Y1413208D2*
X1165893D1*
X1146208Y1432893D1*
Y1692276D1*
X793701Y2044784D1*
X1743504Y1444390D2*
Y1429625D1*
X1712007Y1398129D1*
X1682476D1*
X1667397Y1413208D1*
X1662476D1*
X2693701Y1844390D2*
X2647441Y1890649D1*
Y1970968D1*
X2667126Y1990653D1*
X2723354D1*
X2923354Y2190653D1*
X3593701Y2244390D2*
X3518067Y2244393D1*
X2343504Y1644390D2*
X2248858Y1549745D1*
Y1343684D1*
X793701Y1744784D2*
X908157Y1630327D1*
Y1343684D1*
X3293701Y1644390D2*
X2863906D1*
X2810168Y1590653D1*
X2647444D1*
X2627759Y1570968D1*
Y1398133D1*
X2608074Y1378448D1*
X2444212D1*
X2424527Y1398133D1*
Y1724704D1*
X2404841Y1744390D1*
X2343504D1*
X4106893Y2190653D2*
Y1614633D1*
X2693701Y2444390D2*
X2526102Y2276792D1*
Y1864078D1*
X2506415Y1844390D1*
X2343504D1*
X3483303Y2355889D2*
X3374728D1*
X4863425Y2710338D2*
Y2474667D1*
X4993701Y2344391D1*
X6318149Y2894905D2*
Y2640810D1*
X3293701Y2444390D2*
X3339964Y2398126D1*
Y2310338D1*
X3359649Y2290653D1*
X3839964D1*
X3893701Y2344390D1*
X1743504Y2444390D2*
X1554619D1*
X1455012Y2344784D1*
X1393701D1*
X4694413Y2344393D2*
Y2625416D1*
X8443504Y3094193D2*
X8299295Y3094192D1*
X6318149Y2640810D2*
Y1419941D1*
X6593701Y1144390D1*
X8443504Y2994193D2*
X8334059Y2994192D1*
X1743504Y2244390D2*
X1668150D1*
X1568543Y2144784D1*
X1393701D1*
X1743504Y2144390D2*
X1804842D1*
Y2225416D1*
X3114118Y2144712D2*
X3293701Y2144390D1*
X1743504Y1944390D2*
X1643898Y1844784D1*
X1393701D1*
X1743504Y1844390D2*
X1643898Y1744784D1*
X1393701D1*
X2248858Y1890653D2*
X2370791D1*
X2424527Y1944389D1*
X4993701Y1444391D2*
X4993700Y1651991D1*
X2693701Y1944390D2*
X2774728Y1863362D1*
Y1779157D1*
X1743504Y1644390D2*
X1789763Y1598131D1*
Y1378444D1*
X1770078Y1358759D1*
X1008629D1*
X988944Y1378444D1*
Y1749540D1*
X793701Y1944784D1*
X2693701Y2044390D2*
X2604843D1*
X2585157Y2024705D1*
Y1690653D1*
X4857759Y1828999D2*
Y1480333D1*
X4993701Y1344391D1*
X8543701Y544390D2*
Y461990D1*
X8524016Y442306D1*
X7359645D1*
X7339960Y461991D1*
Y790192D1*
X7393701Y843932D1*
Y1144390D1*
X6793701D2*
Y1262074D1*
X6813385Y1281759D1*
X7100590D1*
X7120275Y1301444D1*
Y1986713D1*
X7177953Y2044390D1*
Y3110138D1*
X6893701Y3394390D1*
X6693701Y1744390D2*
X6645476Y1792614D1*
Y2446456D1*
X6793701Y2594680D1*
Y3394390D1*
X3893701Y2044390D2*
X3443924Y1594614D1*
Y1417814D1*
X3424239Y1398129D1*
X3247441D1*
Y1490653D1*
X3320279D1*
X3339964Y1510338D1*
Y1570968D1*
X3320279Y1590653D1*
X3112539D1*
X3066277Y1544390D1*
X2693701D1*
X3893701Y1944390D2*
Y1637550D1*
X3874013Y1617863D1*
X3515700D1*
X3496015Y1598178D1*
Y1378444D1*
X3476330Y1358759D1*
X3227755D1*
X3208070Y1378444D1*
Y1524703D1*
X3227758Y1544390D1*
X3293701D1*
X3593701Y2044390D2*
X3539964Y1990653D1*
X3205944D1*
X3186259Y1970968D1*
Y1710338D1*
X3166574Y1690653D1*
X2739964D1*
X2693701Y1644390D1*
X3593701Y2144390D2*
X3639964Y2098126D1*
Y1849721D1*
X3384519Y1594276D1*
Y1464078D1*
X3364832Y1444390D1*
X3293701D1*
X4293701Y944390D2*
X4490354Y1141044D1*
Y2041044D1*
X4593701Y2144390D1*
X4694413Y2244389D2*
Y945103D1*
X4593701Y844390D1*
X6243701Y1144391D2*
Y3070179D1*
X6224015Y3089865D1*
X5013389D1*
X4993701Y3070176D1*
Y2644391D1*
X8578035Y2140456D2*
X8593114Y2125377D1*
Y839078D1*
X8612802Y819390D1*
X9093701D1*
X3293701Y3294390D2*
Y3241728D1*
X3274011Y3222039D1*
X3223115D1*
X3203429Y3202353D1*
Y2734661D1*
X3293701Y2644390D1*
X4593701Y2544390D2*
X4639964Y2498126D1*
Y2211519D1*
X4619098Y2190653D1*
X4639964Y2169787D1*
Y2090654D1*
X4593701Y2044390D1*
X8789960Y1093802D2*
Y1994905D1*
X6943543Y640495D2*
Y594233D1*
X6893701Y544390D1*
X4619098Y2190653D2*
X4414098D1*
X4394413Y2170968D1*
Y1110338D1*
X4374728Y1090653D1*
X4266291D1*
X4246606Y1070968D1*
Y781834D1*
X4266291Y762149D1*
X4818389D1*
X3293701Y2644390D2*
X3447438Y2490653D1*
X3763090D1*
X3816828Y2544390D1*
X3893701D1*
X8647563Y954157D2*
Y2390134D1*
X8443504Y2594193D1*
X5480511Y1617227D2*
Y514668D1*
X5500196Y494983D1*
X6944294D1*
X6993701Y544390D1*
X3293701Y3394390D2*
X3341929Y3346161D1*
Y3206960D1*
X3322244Y3187275D1*
X3247441D1*
X4293701Y2644390D2*
X4347438Y2590653D1*
X4639964D1*
X4659649Y2570968D1*
Y2010339D1*
X4593701Y1944390D1*
X2603704Y2544389D2*
X2649968Y2590653D1*
X2739964D1*
X2759649Y2610338D1*
Y3187275D1*
X6993701Y544390D2*
Y590653D1*
X7037074D1*
X3293701Y2744390D2*
X3399206D1*
X3499206Y2644390D1*
X3593701D1*
X3247441Y3187275D2*
Y2790649D1*
X3293701Y2744390D1*
X4593701Y1944390D2*
X4593704Y1617227D1*
X6920275Y2290653D2*
Y1638204D1*
X6739960Y1457889D1*
Y1117814D1*
X6759645Y1098129D1*
X6820275D1*
X6839960Y1117814D1*
Y1193802D1*
X6859645Y1213487D1*
X7120275D1*
X7139960Y1193802D1*
Y590650D1*
X7093701Y544390D1*
X2343504Y2444390D2*
X2294094Y2394981D1*
Y2010338D1*
X2313779Y1990653D1*
X2486732D1*
X2506417Y2010338D1*
Y2470968D1*
X2526102Y2490653D1*
X2912484D1*
X2932169Y2510338D1*
Y2979157D1*
X3593701Y2544390D2*
X3639964Y2590654D1*
Y2690653D1*
X3538578D1*
X3518893Y2710338D1*
Y2759751D1*
X3393700Y2884944D1*
X3353147Y2844390D1*
X3293701D1*
X4293701Y2544390D2*
X4339964Y2498126D1*
Y2390653D1*
X3393700Y2884944D2*
Y2979157D1*
X4339964Y2390653D2*
X4266291D1*
X4246606Y2370968D1*
Y2210338D1*
X4266291Y2190653D1*
X4320279D1*
X4339964Y2170968D1*
Y2090654D1*
X4293701Y2044390D1*
X3393700Y2979157D2*
X3393701Y3294390D1*
Y3394390D2*
X3441929Y3346161D1*
Y3102192D1*
X2343504Y2344390D2*
X2409448Y2410335D1*
Y2923526D1*
X2430315Y2944393D1*
Y3374117D1*
X2410630Y3393802D1*
X813385D1*
X793701Y3374117D1*
Y2844784D1*
X7212716Y2475023D2*
Y2107657D1*
X7243110Y2077263D1*
Y593800D1*
X7193701Y544390D1*
X4729177Y1925416D2*
Y2445102D1*
X4293701Y2444390D2*
X4246606D1*
X4226921Y2424706D1*
Y2164078D1*
X4246609Y2144390D1*
X4293701D1*
X2693701Y2944390D2*
X2430315Y2944393D1*
X7243110Y2077263D2*
X7304527D1*
X7324212Y2096948D1*
Y2243133D1*
X3939964Y2495574D2*
X3835240D1*
X3784057Y2444390D1*
X3593701D1*
X3441929Y3102192D2*
Y2956538D1*
X3587480Y2810987D1*
Y2730023D1*
X3607165Y2710338D1*
X3920279D1*
X3939964Y2690653D1*
Y2495574D1*
X4293701Y2144390D2*
Y2090653D1*
X4266291D1*
X4246606Y2070968D1*
Y1898527D1*
X7422637Y2929668D2*
Y2347735D1*
X2447362Y2793802D2*
Y2348249D1*
X2343504Y2244390D1*
X3493701Y3294390D2*
X3493700Y3048684D1*
X7762480Y2475220D2*
X7797244Y2440456D1*
X8136654D1*
X8282917Y2294193D1*
X8443504D1*
X7422637Y2347735D2*
Y1824727D1*
X7343897Y1745987D1*
Y886673D1*
X7293701Y836476D1*
Y544390D1*
X2693701Y2744390D2*
X2486733D1*
X2467047Y2724705D1*
Y2267934D1*
X2343504Y2144390D1*
X3641929Y2790649D2*
Y2898133D1*
X8443504Y2194193D2*
X8489763Y2147934D1*
Y481676D1*
X8470078Y461991D1*
X7476100D1*
X7393701Y544390D1*
X3641929Y2898133D2*
Y3322936D1*
X3622244Y3342621D1*
X3545470D1*
X3493701Y3394390D1*
X8443504Y2094193D2*
X8397241Y2140456D1*
X7818106D1*
X7797240Y2119590D1*
Y2060141D1*
X7816925Y2040456D1*
X7870078D1*
X7889763Y2020771D1*
Y1863290D1*
X7870078Y1843605D1*
X7662007D1*
X7642322Y1823920D1*
Y1121479D1*
X7493701Y972857D1*
Y544390D1*
X2558228Y2993802D2*
X2612677Y3048251D1*
X2720279D1*
X2739964Y3028566D1*
Y2690654D1*
X2693701Y2644390D1*
X7797240Y2119590D2*
X7710039Y2206791D1*
Y3201479D1*
X7690039Y3221479D1*
X7671559D1*
X1428464Y2993802D2*
X1242719D1*
X793701Y2544784D1*
X3593700Y3114629D2*
X3593701Y3294390D1*
X2693701Y2644390D2*
X2506418D1*
X2486732Y2624705D1*
Y2187619D1*
X2343504Y2044390D1*
X3183744Y2544393D2*
Y3222039D1*
X3203429Y3241724D1*
X3225393D1*
X3245078Y3261409D1*
Y3422936D1*
X3264763Y3442621D1*
X3522244D1*
X3541929Y3422936D1*
Y3394390D1*
X3593701D1*
X2248858Y2090649D2*
Y1964078D1*
X2268546Y1944390D1*
X2343504D1*
X8053110Y758767D2*
Y1720255D1*
X8072797Y1739942D1*
X8342063D1*
X8361751Y1759630D1*
Y1912441D1*
X8443504Y1994193D1*
X7593701Y544390D2*
X7593700Y708924D1*
X6728464D2*
X6212795D1*
X6193110Y728609D1*
Y1993318D1*
X5515275Y2671153D1*
Y3035416D1*
X4091815Y3083448D2*
Y3462306D1*
X4072130Y3481991D1*
X730905D1*
X711220Y3462306D1*
Y2307582D1*
X730905Y2287897D1*
X856496D1*
Y2381988D1*
X793701Y2444784D1*
X3593701Y3394390D2*
Y3442621D1*
X3989807D1*
X4009492Y3422936D1*
Y2890302D1*
X4029177Y2870617D1*
X4072130D1*
X4091815Y2890302D1*
Y3083448D1*
X7593700Y708924D2*
Y758767D1*
X1393701Y2844784D2*
X1330905Y2781988D1*
Y1711519D1*
X1351771Y1690653D1*
X1789763D1*
X1809448Y1670968D1*
Y1102183D1*
X1725193Y1017928D1*
Y712307D1*
X1793110Y644390D1*
X3793701Y3394390D2*
X3861614Y3326476D1*
Y2965968D1*
X3989807Y2837775D1*
Y1990653D1*
X2793701Y3394390D2*
X2845078Y3343012D1*
Y3140818D1*
X2993504Y2992392D1*
Y2744390D1*
X7093701Y1144390D2*
Y1022813D1*
X6814567Y743679D1*
X6794881Y763365D1*
X6324727D1*
X6243701Y844391D1*
X9455906Y2644390D2*
X9214567D1*
X9193701Y2623524D1*
Y2444390D1*
X4993701Y744391D2*
X4910281D1*
X4853153Y801519D1*
X4804492D1*
X4783626Y822385D1*
Y1024239D1*
X4804492Y1045105D1*
X4833468D1*
X4853153Y1064790D1*
Y1124704D1*
X4872841Y1144391D1*
X4993701D1*
X10093701Y2907185D2*
Y2788680D1*
X10041929Y2736909D1*
Y2492619D1*
X9993701Y2444390D1*
X8132204Y1208881D2*
X8194291D1*
Y593799D1*
X8243701Y544390D1*
X4444094Y894587D2*
X4556848Y781834D1*
X4773783D1*
X4793468Y801519D1*
X4804492D1*
X7843504Y3394193D2*
X7792024D1*
X7717420Y3319590D1*
X7344090D1*
X7318895D1*
X7244094Y3394390D1*
X3743701Y2043996D2*
X3844094Y2144390D1*
X3893701D1*
X1393701Y1544784D2*
X1330905Y1607579D1*
Y1669787D1*
X1351771Y1690653D1*
X5579208Y793802D2*
X5774016D1*
X5793701Y774117D1*
Y544390D1*
X7376378Y2144390D2*
Y2261755D1*
X7344094Y2294039D1*
Y2393996D1*
X8643701Y3294193D2*
X8643700Y3135531D1*
X3861614Y2965968D2*
X3840748Y2945102D1*
X3764724D1*
X4993701Y1744391D2*
X4874329Y1863763D1*
X4803311D1*
X4783626Y1844078D1*
Y1698133D1*
X6693700Y2377893D2*
X6728464Y2343129D1*
Y2290983D1*
X6693701Y2256219D1*
Y2044390D1*
X4443701D2*
X4443700Y1698133D1*
X9193701Y2944390D2*
Y2694390D1*
X6693701Y544390D2*
X6793701D1*
X9193701Y2194390D2*
Y1419390D1*
X9093701Y1319390D1*
X9193701Y2444390D2*
Y2194390D1*
X9993701Y2444390D2*
Y2178642D1*
X10043701Y2128642D1*
X7344094Y2693996D2*
X7344090Y3319590D1*
X7344094Y2593996D2*
Y2693996D1*
Y2493996D2*
Y2593996D1*
Y2393996D2*
Y2493996D1*
X4783626Y1698133D2*
Y1064790D1*
X4803311Y1045105D1*
X4804492D1*
X9193701Y2694390D2*
Y2644390D1*
X9214567D1*
X6793701Y544390D2*
Y722813D1*
X6814567Y743679D1*
X7593701Y3144391D2*
Y2544390D1*
X7644094Y2493996D1*
Y2440259D1*
X7617515D1*
X7597830Y2420574D1*
Y2276192D1*
X7622637Y2251385D1*
Y1913881D1*
X7642325Y1894193D1*
X7843504D1*
X7593701Y3244391D2*
X7690354Y3147738D1*
Y2440256D1*
X7644094Y2393996D1*
Y2013880D1*
X7663781Y1994193D1*
X7843504D1*
X4993701Y1044391D2*
X5039964D1*
X5059649Y1064077D1*
Y2524703D1*
X5079338Y2544391D1*
X5293701D1*
X4947441Y3481397D2*
Y2590651D1*
X4993701Y2544391D1*
X5039964Y2590655D1*
Y2940145D1*
X5059649Y2959830D1*
X5355043D1*
X5374728Y2940145D1*
Y2410338D1*
X5355043Y2390653D1*
X5189566D1*
X5169881Y2370968D1*
Y2032555D1*
X5190354Y2012082D1*
Y1147738D1*
X5293701Y1044391D1*
X8352952Y2340456D2*
Y2474507D1*
X8333266Y2494193D1*
X7843504D1*
X8717090Y2340456D2*
Y2049353D1*
X8736775Y2029668D1*
X8981260D1*
X9000945Y2009983D1*
Y1212145D1*
X9093701Y1119390D1*
X8682326Y2440456D2*
Y1039078D1*
X8702014Y1019390D1*
X9093701D1*
X7843504Y2394193D2*
X8070063Y2394192D1*
X6594094Y2493996D2*
X6354331Y2733760D1*
Y2994391D1*
X2193701Y944390D2*
X2239960Y990650D1*
Y1169208D1*
X2194409Y1214759D1*
Y2924704D1*
X2214096Y2944390D1*
X2343504D1*
X1743504Y3244390D2*
X2074012D1*
X2093701Y3224701D1*
Y944390D1*
X2293701D2*
Y1191549D1*
X2214094Y1271156D1*
Y2874117D1*
X2233779Y2893802D1*
X2370078D1*
X2389763Y2913487D1*
Y2970968D1*
X2370078Y2990653D1*
X2297240D1*
X2277555Y3010338D1*
Y3078442D1*
X2343504Y3144390D1*
X8843701Y2094390D2*
X8911849Y2162539D1*
Y2262539D1*
X9093701Y2444390D1*
Y2194390D2*
X9093696Y1410338D1*
X7074724Y1336208D2*
X6977953Y1432979D1*
Y1744390D1*
X7843504Y2594193D2*
X8155760D1*
X8302022Y2740456D1*
X8972244D1*
X8991929Y2760141D1*
Y3342422D1*
X9043701Y3394193D1*
X8443504D2*
X8511420Y3462109D1*
X9072244D1*
X9091929Y3442424D1*
Y3345965D1*
X9143701Y3294193D1*
X7843504Y3094193D2*
X7782161Y3094192D1*
X7843504Y2994193D2*
X7889964Y3040653D1*
X8556098D1*
X8575783Y3060338D1*
Y3422739D1*
X8595468Y3442424D1*
X8795470D1*
X8843701Y3394193D1*
X7843504Y2894193D2*
X7897241Y2840456D1*
X8496401D1*
X8524161Y2812696D1*
X8924011D1*
X8943701Y2832385D1*
Y3294193D1*
Y3394193D2*
X8891929Y3342422D1*
Y2871751D1*
X8872244Y2852066D1*
X8634240D1*
X8545850Y2940456D1*
X7816925D1*
X7797240Y2920771D1*
Y2840457D1*
X7843504Y2794193D1*
X9043701Y3294193D2*
Y2665849D1*
X9024015Y2646164D1*
X8398176D1*
X8292468Y2540456D1*
X7797240D1*
X7777555Y2560141D1*
Y2628245D1*
X7843504Y2694193D1*
X4783626Y712306D2*
X4763941Y692621D1*
X4072133D1*
X4052448Y712306D1*
Y1594948D1*
X4032763Y1614633D1*
X4002602D1*
X3982917Y1594948D1*
Y1433607D1*
X3893701Y1344390D1*
X8264086Y1840456D2*
X8129322Y1975220D1*
X7979330D1*
X7959645Y1955535D1*
Y813216D1*
X7939960Y793531D1*
X7611248D1*
X7591563Y813216D1*
Y990653D1*
X9933465Y2128642D2*
X9855440Y2050618D1*
X9849929D1*
X9693701Y1894390D1*
Y1840456D1*
X9734291D1*
X4187551Y2755885D2*
Y1350539D1*
X4293701Y1244390D1*
X8717090Y2540456D2*
X8824011D1*
X8843701Y2520766D1*
Y2394390D1*
X6877953Y2044390D2*
Y1864078D1*
X6858265Y1844390D1*
X6693701D1*
X3893701Y844390D2*
X3847441Y890649D1*
Y1098131D1*
X3893701Y1144390D1*
Y944390D2*
X3939964Y898126D1*
Y672936D1*
X3959649Y653251D1*
X5323429D1*
X5343114Y672936D1*
Y1794978D1*
X5293701Y1844391D1*
X2174724Y1090653D2*
Y3170968D1*
X2194409Y3190653D1*
X2370078D1*
X2389763Y3170968D1*
Y3090650D1*
X2343504Y3044390D1*
X3774897Y1055889D2*
Y1170968D1*
X3794582Y1190653D1*
X3920279D1*
X3939964Y1170968D1*
Y1090654D1*
X3893701Y1044390D1*
X5993701Y544390D2*
Y903680D1*
X5974602Y922779D1*
X5893110Y1004271D1*
Y1174117D1*
X5873425Y1193802D1*
X5528811D1*
X3893701Y1244390D2*
X3955043Y1244389D1*
X7739960Y1187763D2*
Y1490650D1*
X7843504Y1594193D1*
X5974602Y922779D2*
X5995468Y943645D1*
X6143547D1*
X6093701Y544390D2*
X6093704Y908881D1*
X7843504Y2094193D2*
X7920275D1*
X7939960Y2074508D1*
Y1089904D1*
X7758937Y908881D1*
X5339964Y2925066D2*
Y2490655D1*
X5293701Y2444391D1*
X4057051Y2925066D2*
Y3442621D1*
X4037366Y3462306D1*
X770275D1*
X750590Y3442621D1*
Y2387894D1*
X793701Y2344784D1*
X8443504Y1594193D2*
X8246533D1*
X8097441Y1445102D1*
X4993701Y1944391D2*
X4795783Y2142309D1*
Y3013920D1*
X2503937Y2893802D2*
Y2790653D1*
X2343504Y2744390D2*
X2274413Y2813481D1*
Y2859039D1*
X1997437Y2744389D2*
Y1167156D1*
X2041338Y1123255D1*
Y692618D1*
X1993110Y644390D1*
X8097441Y1445102D2*
Y748131D1*
X7893701Y544390D1*
X9093701Y919390D2*
X8632484D1*
X8612799Y939075D1*
Y2220771D1*
X8593114Y2240456D1*
X7897241D1*
X7843504Y2294193D1*
X4993701Y1844391D2*
X5039964Y1798128D1*
Y1110338D1*
X5020279Y1090653D1*
X4947441D1*
X4927756Y1070968D1*
Y913487D1*
X4947441Y893802D1*
X5020374D1*
X5065850Y848326D1*
X5170669D1*
X5190354Y868011D1*
Y924704D1*
X5210042Y944391D1*
X5293701D1*
X10155906Y2264469D2*
X10241534D1*
X10261220Y2244783D1*
Y2014469D1*
X10241535Y1994784D1*
X10187402D1*
Y1813881D1*
X10155906Y1782385D1*
Y1725099D1*
X7693701Y544390D2*
X7756415Y481676D1*
X8423814D1*
X8443504Y501365D1*
Y1494193D1*
X1893701Y944390D2*
Y2894193D1*
X1743504Y3044390D1*
Y2844390D2*
X1839960Y2747934D1*
Y917814D1*
X1859645Y898129D1*
X1947440D1*
X1993701Y944390D1*
X2093110Y644390D2*
X2029924Y581204D1*
X770275D1*
X750590Y600889D1*
Y2101673D1*
X793701Y2144784D1*
X2993701Y3394390D2*
X3041929Y3346161D1*
Y3221719D1*
X3094216Y3169432D1*
Y2244389D1*
X5204645Y2093802D2*
Y2255336D1*
X5293701Y2344391D1*
X3948153Y1863763D2*
Y1510338D1*
X3928468Y1490653D1*
X3659649D1*
X3639964Y1470968D1*
Y1290654D1*
X3593701Y1244390D1*
X3094216Y2244389D2*
X3147952Y2190653D1*
X3928468D1*
X3948153Y2170968D1*
Y1863763D1*
X8443504Y2794193D2*
X8216394D1*
X8162656Y2740456D1*
X7749409D1*
X7729724Y2760141D1*
Y3267031D1*
X7710039Y3286716D1*
X7543897D1*
X7524212Y3267031D1*
Y1647971D1*
X7593701Y1578482D1*
Y1144390D1*
X2493110Y644390D2*
X2405509Y731991D1*
X2159645D1*
X2139960Y751676D1*
Y3324704D1*
X2159647Y3344390D1*
X2343504D1*
X4293701Y1444390D2*
Y1344390D1*
X4748862Y998133D2*
Y1870968D1*
X4768547Y1890653D1*
X5020279D1*
X5039964Y1910338D1*
Y2398128D1*
X4993701Y2444391D1*
X4293701Y1344390D2*
X4339964Y1298126D1*
Y1210338D1*
X4320279Y1190653D1*
X4217602D1*
X4197917Y1170968D1*
Y727385D1*
X2693701Y1744390D2*
X3020083D1*
X3039767Y1764075D1*
Y3125354D1*
X2993701Y3171420D1*
Y3294390D1*
X4017685Y1579869D2*
Y1310338D1*
X3998000Y1290653D1*
X3839964D1*
X3593701Y1044390D1*
X5239409Y1579869D2*
Y2190100D1*
X5293701Y2244391D1*
X3593701Y1044390D2*
X2795594D1*
Y615846D1*
X2775909Y596161D1*
X2241339D1*
X2193110Y644390D1*
X2795594Y1044390D2*
X2755043Y1084941D1*
Y1479157D1*
X5293701Y2144391D2*
X5382484Y2055608D1*
Y600889D1*
X5362799Y581204D1*
X3632484D1*
X3608070Y556790D1*
X2161024D1*
X2141338Y576476D1*
Y672936D1*
X2161023Y692621D1*
X2244879D1*
X2293110Y644390D1*
X8018346Y1940456D2*
Y769036D1*
X7793701Y544390D1*
D45*
X7477952Y1775023D3*
X2043700Y3090653D3*
X2893700Y3222039D3*
X2943543D3*
X7277952Y2677267D3*
X3955043Y2244393D3*
X4359649Y1490653D3*
X6278464D3*
X3133901Y2590653D3*
X4818389Y1079869D3*
X2612677Y777227D3*
X2389763Y1494590D3*
X2512771Y1413212D3*
X1662476Y1413208D3*
X2923354Y2190653D3*
X3518067Y2244393D3*
X2248858Y1343684D3*
X908157D3*
X4106893Y1614633D3*
Y2190653D3*
X3374728Y2355889D3*
X3483303D3*
X4863425Y2710338D3*
X6318149Y2640810D3*
X4694413Y2625416D3*
Y2344393D3*
X6318149Y2894905D3*
X8299295Y3094192D3*
X8334059Y2994192D3*
X1804842Y2225416D3*
X3114118Y2144712D3*
X2424527Y1944389D3*
X2248858Y1890653D3*
X4993700Y1651991D3*
X2774728Y1779157D3*
X2585157Y1690653D3*
X4857759Y1828999D3*
X4694413Y2244389D3*
X8578035Y2140456D3*
X8789960Y1994905D3*
Y1093802D3*
X6943543Y640495D3*
X4818389Y762149D3*
X8647563Y954157D3*
X7037074Y590653D3*
X2759649Y3187275D3*
X2603704Y2544389D3*
X4593704Y1617227D3*
X5480511D3*
X3247441Y3187275D3*
X6920275Y2290653D3*
X2932169Y2979157D3*
X3393700D3*
X4339964Y2390653D3*
X7212716Y2475023D3*
X4729177Y2445102D3*
Y1925416D3*
X4246606Y1898527D3*
X7324212Y2243133D3*
X3939964Y2495574D3*
X3441929Y3102192D3*
X7762480Y2475220D3*
X7422637Y2929668D3*
X3493700Y3048684D3*
X7422637Y2347735D3*
X2447362Y2793802D3*
X3641929Y2790649D3*
Y2898133D3*
X2558228Y2993802D3*
X7671559Y3221479D3*
X1428464Y2993802D3*
X3593700Y3114629D3*
X2248858Y2090649D3*
X3183744Y2544393D3*
X8053110Y758767D3*
X7593700D3*
X4091815Y3083448D3*
X5515275Y3035416D3*
X6728464Y708924D3*
X7593700D3*
X3989807Y1990653D3*
X5579208Y793802D3*
X8643700Y3135531D3*
X3764724Y2945102D3*
X6693700Y2377893D3*
X4443700Y1698133D3*
X4783626D3*
X8132204Y1208881D3*
X4947441Y3481397D3*
X8352952Y2340456D3*
X8717090D3*
X8682326Y2440456D3*
X8070063Y2394192D3*
X9093696Y1410338D3*
X7074724Y1336208D3*
X7782161Y3094192D3*
X4783626Y712306D3*
X7591563Y990653D3*
X8264086Y1840456D3*
X9734291D3*
X4187551Y2755885D3*
X8717090Y2540456D3*
X2174724Y1090653D3*
X3774897Y1055889D3*
X5528811Y1193802D3*
X3955043Y1244389D3*
X7739960Y1187763D3*
X6143547Y943645D3*
X6093704Y908881D3*
X7758937D3*
X5339964Y2925066D3*
X4057051D3*
X4795783Y3013920D3*
X2503937Y2790653D3*
Y2893802D3*
X2274413Y2859039D3*
X1997437Y2744389D3*
X8097441Y1445102D3*
X3948153Y1863763D3*
X5204645Y2093802D3*
X3094216Y2244389D3*
X4197917Y727385D3*
X4748862Y998133D3*
X4017685Y1579869D3*
X5239409D3*
X2755043Y1479157D3*
X8018346Y1940456D3*
D17*
X6977953Y1744390D3*
D18*
Y2044390D3*
D19*
X8243701Y1144390D3*
D20*
Y1044390D3*
Y944390D3*
Y844390D3*
Y744390D3*
Y644390D3*
Y544390D3*
X8543701D3*
Y644390D3*
Y744390D3*
Y844390D3*
Y944390D3*
Y1044390D3*
Y1144390D3*
D19*
X3293701Y1444390D3*
D20*
Y1544390D3*
Y1644390D3*
Y1744390D3*
Y1844390D3*
Y1944390D3*
Y2044390D3*
Y2144390D3*
Y2244390D3*
Y2344390D3*
Y2444390D3*
Y2544390D3*
Y2644390D3*
Y2744390D3*
Y2844390D3*
Y2944390D3*
X2693701D3*
Y2844390D3*
Y2744390D3*
Y2644390D3*
Y2544390D3*
Y2444390D3*
Y2344390D3*
Y2244390D3*
Y2144390D3*
Y2044390D3*
Y1944390D3*
Y1844390D3*
Y1744390D3*
Y1644390D3*
Y1544390D3*
Y1444390D3*
D17*
X6877953Y2044390D3*
D18*
Y1744390D3*
D19*
X6693701D3*
D21*
Y1844390D3*
D22*
Y1944390D3*
D19*
Y2044390D3*
D21*
X6593701D3*
Y1944390D3*
Y1844390D3*
Y1744390D3*
D19*
X7843504Y3394193D3*
D20*
Y3294193D3*
Y3194193D3*
Y3094193D3*
Y2994193D3*
Y2894193D3*
Y2794193D3*
Y2694193D3*
Y2594193D3*
Y2494193D3*
Y2394193D3*
Y2294193D3*
Y2194193D3*
Y2094193D3*
Y1994193D3*
Y1894193D3*
Y1794193D3*
Y1694193D3*
Y1594193D3*
Y1494193D3*
X8443504D3*
Y1594193D3*
Y1694193D3*
Y1794193D3*
Y1894193D3*
Y1994193D3*
Y2094193D3*
Y2194193D3*
Y2294193D3*
Y2394193D3*
Y2494193D3*
Y2594193D3*
Y2694193D3*
Y2794193D3*
Y2894193D3*
Y2994193D3*
Y3094193D3*
Y3194193D3*
Y3294193D3*
Y3394193D3*
D19*
X9593701Y2644390D3*
D21*
X9455906D3*
D19*
X4143701Y3206595D3*
D21*
Y3344390D3*
D23*
X5393701Y494390D3*
D24*
X9093701Y2944390D3*
D25*
X9143701Y2994390D3*
X9193701Y2944390D3*
D21*
X7277953Y2144390D3*
X7376378D3*
D23*
X493701Y494390D3*
D26*
X7244094Y3394390D3*
D27*
X7344094D3*
X7444094D3*
X7544094D3*
D26*
X2793701Y3294390D3*
D27*
Y3394390D3*
X2893701Y3294390D3*
Y3394390D3*
X2993701Y3294390D3*
Y3394390D3*
X3093701Y3294390D3*
Y3394390D3*
X3193701Y3294390D3*
Y3394390D3*
X3293701Y3294390D3*
Y3394390D3*
X3393701Y3294390D3*
Y3394390D3*
X3493701Y3294390D3*
Y3394390D3*
X3593701Y3294390D3*
Y3394390D3*
X3693701Y3294390D3*
Y3394390D3*
X3793701Y3294390D3*
Y3394390D3*
D19*
X6594094Y2693996D3*
D20*
Y2593996D3*
Y2493996D3*
Y2393996D3*
X6894094D3*
Y2493996D3*
Y2593996D3*
Y2693996D3*
D21*
X3743701Y1394390D3*
Y894390D3*
D19*
X1743504Y3344390D3*
D20*
Y3244390D3*
Y3144390D3*
Y3044390D3*
Y2944390D3*
Y2844390D3*
Y2744390D3*
Y2644390D3*
Y2544390D3*
Y2444390D3*
Y2344390D3*
Y2244390D3*
Y2144390D3*
Y2044390D3*
Y1944390D3*
Y1844390D3*
Y1744390D3*
Y1644390D3*
Y1544390D3*
Y1444390D3*
X2343504D3*
Y1544390D3*
Y1644390D3*
Y1744390D3*
Y1844390D3*
Y1944390D3*
Y2044390D3*
Y2144390D3*
Y2244390D3*
Y2344390D3*
Y2444390D3*
Y2544390D3*
Y2644390D3*
Y2744390D3*
Y2844390D3*
Y2944390D3*
Y3044390D3*
Y3144390D3*
Y3244390D3*
Y3344390D3*
D19*
X8743701Y1344390D3*
D21*
X8881496D3*
D17*
X7593701Y3244391D3*
D18*
X7293701D3*
D21*
X6693701Y844390D3*
X7843701D3*
D17*
X7077953Y2044390D3*
D18*
Y1744390D3*
D21*
X7477953Y2144390D3*
X7576378D3*
D19*
X3593701Y1444390D3*
D20*
Y1344390D3*
Y1244390D3*
Y1144390D3*
Y1044390D3*
Y944390D3*
Y844390D3*
X3893701D3*
Y944390D3*
Y1044390D3*
Y1144390D3*
Y1244390D3*
Y1344390D3*
Y1444390D3*
D23*
X10293701Y3444390D3*
D17*
X8843701Y2894390D3*
D18*
Y2594390D3*
D17*
X9693701Y2244390D3*
D18*
Y2144390D3*
D28*
X1393701Y1544784D3*
D29*
Y1644784D3*
Y1744784D3*
Y1844784D3*
Y1944784D3*
Y2044784D3*
Y2144784D3*
Y2244784D3*
Y2344784D3*
Y2444784D3*
Y2544784D3*
Y2644784D3*
Y2744784D3*
Y2844784D3*
X793701D3*
Y2744784D3*
Y2644784D3*
Y2544784D3*
Y2444784D3*
Y2344784D3*
Y2244784D3*
Y2144784D3*
Y2044784D3*
Y1944784D3*
Y1844784D3*
Y1744784D3*
Y1644784D3*
Y1544784D3*
D19*
X5643701Y844391D3*
D20*
X5743701D3*
X5843701D3*
X5943701D3*
X6043701D3*
X6143701D3*
X6243701D3*
Y1144391D3*
X6143701D3*
X6043701D3*
X5943701D3*
X5843701D3*
X5743701D3*
X5643701D3*
D26*
X9093701Y2194390D3*
D27*
X9193701D3*
D19*
X10043701Y2045965D3*
D21*
Y1943603D3*
Y2128642D3*
Y1860925D3*
X9933465Y2128642D3*
Y1860925D3*
D30*
X10155906Y1725099D3*
D31*
X10187402Y1994784D3*
D30*
X10155906Y2264469D3*
D17*
X8843701Y2394390D3*
D18*
Y2094390D3*
D17*
X6777953Y2044390D3*
D18*
Y1744390D3*
D21*
X2043701Y2644587D3*
Y1494587D3*
D26*
X8643701Y3294193D3*
D27*
Y3394193D3*
X8743701Y3294193D3*
Y3394193D3*
X8843701Y3294193D3*
Y3394193D3*
X8943701Y3294193D3*
Y3394193D3*
X9043701Y3294193D3*
Y3394193D3*
X9143701Y3294193D3*
Y3394193D3*
D23*
X493701Y3444390D3*
D26*
X9093701Y1319390D3*
D32*
Y1219390D3*
Y1119390D3*
Y1019390D3*
Y919390D3*
Y819390D3*
D21*
X9943701Y3144391D3*
X10042126D3*
D33*
X9619291Y3198821D3*
D34*
Y3446852D3*
D35*
X9430315Y3312994D3*
D21*
X4444094Y1394587D3*
Y894587D3*
D36*
X9993701Y2907185D3*
D37*
X10093701D3*
X10193701D3*
D21*
X5144094Y1394587D3*
Y894587D3*
D19*
X4293701Y1444390D3*
D20*
Y1344390D3*
Y1244390D3*
Y1144390D3*
Y1044390D3*
Y944390D3*
Y844390D3*
X4593701D3*
Y944390D3*
Y1044390D3*
Y1144390D3*
Y1244390D3*
Y1344390D3*
Y1444390D3*
D38*
X6693701Y1444391D3*
D39*
X6643701D3*
X6593701D3*
D17*
X9693701Y1894390D3*
D18*
Y1794390D3*
D21*
X3743701Y2543996D3*
Y2043996D3*
D26*
X9093701Y2444390D3*
D27*
X9193701D3*
D19*
X4293701Y2644390D3*
D20*
Y2544390D3*
Y2444390D3*
Y2344390D3*
Y2244390D3*
Y2144390D3*
Y2044390D3*
Y1944390D3*
X4593701D3*
Y2044390D3*
Y2144390D3*
Y2244390D3*
Y2344390D3*
Y2444390D3*
Y2544390D3*
Y2644390D3*
D40*
X6354331Y2994391D3*
D41*
X5586614D3*
D23*
X10293701Y494390D3*
D17*
X7177953Y2044390D3*
D18*
Y1744390D3*
D19*
X4993701Y2644391D3*
D20*
Y2544391D3*
Y2444391D3*
Y2344391D3*
Y2244391D3*
Y2144391D3*
Y2044391D3*
Y1944391D3*
Y1844391D3*
Y1744391D3*
X5293701D3*
Y1844391D3*
Y1944391D3*
Y2044391D3*
Y2144391D3*
Y2244391D3*
Y2344391D3*
Y2444391D3*
Y2544391D3*
Y2644391D3*
D26*
X1793110Y644390D3*
D27*
X1893110D3*
X1993110D3*
X2093110D3*
X2193110D3*
X2293110D3*
X2393110D3*
X2493110D3*
D26*
X9993701Y2694390D3*
D27*
X10093701D3*
D19*
X7344094Y2693996D3*
D20*
Y2593996D3*
Y2493996D3*
Y2393996D3*
X7644094D3*
Y2493996D3*
Y2593996D3*
Y2693996D3*
D21*
X8143701Y1844390D3*
Y2994390D3*
D19*
X4993701Y1444391D3*
D20*
Y1344391D3*
Y1244391D3*
Y1144391D3*
Y1044391D3*
Y944391D3*
Y844391D3*
Y744391D3*
X5293701D3*
Y844391D3*
Y944391D3*
Y1044391D3*
Y1144391D3*
Y1244391D3*
Y1344391D3*
Y1444391D3*
D26*
X6593701Y3394390D3*
D27*
X6693701D3*
X6793701D3*
X6893701D3*
D21*
X5143307Y2444587D3*
Y1944587D3*
D26*
X9993701Y2444390D3*
D27*
X10093701D3*
D19*
X3593701Y2644390D3*
D20*
Y2544390D3*
Y2444390D3*
Y2344390D3*
Y2244390D3*
Y2144390D3*
Y2044390D3*
Y1944390D3*
X3893701D3*
Y2044390D3*
Y2144390D3*
Y2244390D3*
Y2344390D3*
Y2444390D3*
Y2544390D3*
Y2644390D3*
D21*
X844488Y3294784D3*
X1344488D3*
D42*
X4793898Y3193996D3*
X4693898Y3293996D3*
X4793898Y3393996D3*
D26*
X5793701Y544390D3*
D27*
X5893701D3*
X5993701D3*
X6093701D3*
D17*
X7593701Y3144391D3*
D18*
X7293701D3*
D14*
X7055906Y2711713D3*
X7130709D3*
D19*
X7893701Y1144390D3*
D20*
X7793701D3*
X7693701D3*
X7593701D3*
X7493701D3*
X7393701D3*
X7293701D3*
X7193701D3*
X7093701D3*
X6993701D3*
X6893701D3*
X6793701D3*
X6693701D3*
X6593701D3*
Y544390D3*
X6693701D3*
X6793701D3*
X6893701D3*
X6993701D3*
X7093701D3*
X7193701D3*
X7293701D3*
X7393701D3*
X7493701D3*
X7593701D3*
X7693701D3*
X7793701D3*
X7893701D3*
D19*
X1793701Y944390D3*
D20*
X1893701D3*
X1993701D3*
X2093701D3*
X2193701D3*
X2293701D3*
D21*
X10143701Y3144391D3*
X10242126D3*
X4443701Y2544390D3*
Y2044390D3*
X2993504Y1594390D3*
Y2744390D3*
D23*
X5393701Y3444390D3*
D26*
X9093701Y2694390D3*
D27*
X9193701D3*
M02*
