%TF.GenerationSoftware,Novarm,DipTrace,4.3.0.5*%
%TF.CreationDate,2023-08-20T23:12:24+01:00*%
%FSLAX26Y26*%
%MOIN*%
%TF.FileFunction,Soldermask,Bot*%
%TF.Part,Single*%
%ADD17C,0.055118*%
%ADD26R,0.066929X0.066929*%
%ADD27C,0.066929*%
%ADD32C,0.066929*%
%ADD52C,0.043307*%
%ADD61C,0.06063*%
%ADD63C,0.086614*%
%ADD64R,0.086614X0.086614*%
%ADD66O,0.045276X0.062992*%
%ADD68R,0.045276X0.062992*%
%ADD70O,0.078937X0.082677*%
%ADD72R,0.078937X0.082677*%
%ADD74O,0.082677X0.169291*%
%ADD76O,0.169291X0.082677*%
%ADD78R,0.185039X0.082677*%
%ADD80C,0.070866*%
%ADD81O,0.082677X0.161417*%
%ADD83O,0.141732X0.082677*%
%ADD85C,0.06063*%
%ADD87R,0.06063X0.06063*%
%ADD89C,0.070866*%
%ADD90R,0.070866X0.070866*%
%ADD92R,0.055118X0.055118*%
%ADD94C,0.141732*%
%ADD96C,0.063937*%
%ADD98C,0.059055*%
%ADD100C,0.059055*%
G75*
G01*
%LPD*%
D100*
X6977953Y1743699D3*
D98*
Y2043699D3*
D32*
X8493701Y993699D3*
Y693699D3*
D26*
X8193701D3*
D27*
X8293701D3*
X8393701D3*
D32*
X8593701D3*
X8693701D3*
X8793701D3*
Y993699D3*
X8693701D3*
X8593701D3*
X8393701D3*
X8293701D3*
X8193701D3*
D26*
X3293701Y1443699D3*
D27*
Y1543699D3*
Y1643699D3*
Y1743699D3*
Y1843699D3*
Y1943699D3*
Y2043699D3*
Y2143699D3*
Y2243699D3*
Y2343699D3*
Y2443699D3*
Y2543699D3*
Y2643699D3*
Y2743699D3*
Y2843699D3*
Y2943699D3*
X2693701D3*
Y2843699D3*
Y2743699D3*
Y2643699D3*
Y2543699D3*
Y2443699D3*
Y2343699D3*
Y2243699D3*
Y2143699D3*
Y2043699D3*
Y1943699D3*
Y1843699D3*
Y1743699D3*
Y1643699D3*
Y1543699D3*
Y1443699D3*
D100*
X6877953Y2043699D3*
D98*
Y1743699D3*
D26*
X6693701D3*
D32*
Y1843699D3*
D96*
Y1943699D3*
D26*
Y2043699D3*
D32*
X6593701D3*
Y1943699D3*
Y1843699D3*
Y1743699D3*
D26*
X7843504Y3393503D3*
D27*
Y3293503D3*
Y3193503D3*
Y3093503D3*
Y2993503D3*
Y2893503D3*
Y2793503D3*
Y2693503D3*
Y2593503D3*
Y2493503D3*
Y2393503D3*
Y2293503D3*
Y2193503D3*
Y2093503D3*
Y1993503D3*
Y1893503D3*
Y1793503D3*
Y1693503D3*
Y1593503D3*
Y1493503D3*
X8443504D3*
Y1593503D3*
Y1693503D3*
Y1793503D3*
Y1893503D3*
Y1993503D3*
Y2093503D3*
Y2193503D3*
Y2293503D3*
Y2393503D3*
Y2493503D3*
Y2593503D3*
Y2693503D3*
Y2793503D3*
Y2893503D3*
Y2993503D3*
Y3093503D3*
Y3193503D3*
Y3293503D3*
Y3393503D3*
D26*
X9593701Y2643699D3*
D32*
X9455906D3*
D26*
X4143701Y3205904D3*
D32*
Y3343699D3*
D94*
X5393701Y493699D3*
D92*
X9093701Y2943699D3*
D17*
X9143701Y2993699D3*
X9193701Y2943699D3*
D32*
X7277953Y2143699D3*
X7376378D3*
D94*
X493701Y493699D3*
D90*
X7244094Y3393699D3*
D89*
X7344094D3*
X7444094D3*
X7544094D3*
D90*
X2793701Y3293699D3*
D89*
Y3393699D3*
X2893701Y3293699D3*
Y3393699D3*
X2993701Y3293699D3*
Y3393699D3*
X3093701Y3293699D3*
Y3393699D3*
X3193701Y3293699D3*
Y3393699D3*
X3293701Y3293699D3*
Y3393699D3*
X3393701Y3293699D3*
Y3393699D3*
X3493701Y3293699D3*
Y3393699D3*
X3593701Y3293699D3*
Y3393699D3*
X3693701Y3293699D3*
Y3393699D3*
X3793701Y3293699D3*
Y3393699D3*
D26*
X6594094Y2693306D3*
D27*
Y2593306D3*
Y2493306D3*
Y2393306D3*
X6894094D3*
Y2493306D3*
Y2593306D3*
Y2693306D3*
D32*
X3743701Y1393699D3*
Y893699D3*
D26*
X1743504Y3343699D3*
D27*
Y3243699D3*
Y3143699D3*
Y3043699D3*
Y2943699D3*
Y2843699D3*
Y2743699D3*
Y2643699D3*
Y2543699D3*
Y2443699D3*
Y2343699D3*
Y2243699D3*
Y2143699D3*
Y2043699D3*
Y1943699D3*
Y1843699D3*
Y1743699D3*
Y1643699D3*
Y1543699D3*
Y1443699D3*
X2343504D3*
Y1543699D3*
Y1643699D3*
Y1743699D3*
Y1843699D3*
Y1943699D3*
Y2043699D3*
Y2143699D3*
Y2243699D3*
Y2343699D3*
Y2443699D3*
Y2543699D3*
Y2643699D3*
Y2743699D3*
Y2843699D3*
Y2943699D3*
Y3043699D3*
Y3143699D3*
Y3243699D3*
Y3343699D3*
D26*
X8743701Y1343699D3*
D32*
X8881496D3*
D100*
X7593701Y3243701D3*
D98*
X7293701D3*
D32*
X6693701Y843699D3*
X7843701D3*
D100*
X7077953Y2043699D3*
D98*
Y1743699D3*
D32*
X7477953Y2143699D3*
X7576378D3*
D26*
X3593701Y1443699D3*
D27*
Y1343699D3*
Y1243699D3*
Y1143699D3*
Y1043699D3*
Y943699D3*
Y843699D3*
X3893701D3*
Y943699D3*
Y1043699D3*
Y1143699D3*
Y1243699D3*
Y1343699D3*
Y1443699D3*
D94*
X10293701Y3443699D3*
D100*
X8843701Y2893699D3*
D98*
Y2593699D3*
D100*
X9693701Y2243699D3*
D98*
Y2143699D3*
D87*
X1393701Y1544093D3*
D85*
Y1644093D3*
Y1744093D3*
Y1844093D3*
Y1944093D3*
Y2044093D3*
Y2144093D3*
Y2244093D3*
Y2344093D3*
Y2444093D3*
Y2544093D3*
Y2644093D3*
Y2744093D3*
Y2844093D3*
X793701D3*
Y2744093D3*
Y2644093D3*
Y2544093D3*
Y2444093D3*
Y2344093D3*
Y2244093D3*
Y2144093D3*
Y2044093D3*
Y1944093D3*
Y1844093D3*
Y1744093D3*
Y1644093D3*
Y1544093D3*
D32*
X5793701Y1093699D3*
X6093701D3*
D26*
Y793699D3*
D27*
Y893699D3*
Y993699D3*
D32*
Y1193699D3*
Y1293699D3*
Y1393699D3*
X5793701D3*
Y1293699D3*
Y1193699D3*
Y993699D3*
Y893699D3*
Y793699D3*
D90*
X9093701Y2193699D3*
D89*
X9193701D3*
D26*
X10043701Y2045274D3*
D32*
Y1942912D3*
Y2127951D3*
Y1860235D3*
X9933465Y2127951D3*
Y1860235D3*
D83*
X10155906Y1724408D3*
D81*
X10187402Y1994093D3*
D83*
X10155906Y2263778D3*
D100*
X8843701Y2393699D3*
D98*
Y2093699D3*
D100*
X6777953Y2043699D3*
D98*
Y1743699D3*
D32*
X2043701Y2643896D3*
Y1493896D3*
D90*
X8643701Y3293503D3*
D89*
Y3393503D3*
X8743701Y3293503D3*
Y3393503D3*
X8843701Y3293503D3*
Y3393503D3*
X8943701Y3293503D3*
Y3393503D3*
X9043701Y3293503D3*
Y3393503D3*
X9143701Y3293503D3*
Y3393503D3*
D94*
X493701Y3443699D3*
D90*
X9093701Y1318699D3*
D80*
Y1218699D3*
Y1118699D3*
Y1018699D3*
Y918699D3*
Y818699D3*
D32*
X9943701Y3143701D3*
X10042126D3*
D78*
X9619291Y3198130D3*
D76*
Y3446161D3*
D74*
X9430315Y3312303D3*
D32*
X4444094Y1393896D3*
Y893896D3*
D72*
X9993701Y2906495D3*
D70*
X10093701D3*
X10193701D3*
D32*
X5144094Y1393896D3*
Y893896D3*
D26*
X4293701Y1443699D3*
D27*
Y1343699D3*
Y1243699D3*
Y1143699D3*
Y1043699D3*
Y943699D3*
Y843699D3*
X4593701D3*
Y943699D3*
Y1043699D3*
Y1143699D3*
Y1243699D3*
Y1343699D3*
Y1443699D3*
D68*
X6693701Y1443701D3*
D66*
X6643701D3*
X6593701D3*
D100*
X9693701Y1893699D3*
D98*
Y1793699D3*
D32*
X3743701Y2543306D3*
Y2043306D3*
D90*
X9093701Y2443699D3*
D89*
X9193701D3*
D26*
X4293701Y2643699D3*
D27*
Y2543699D3*
Y2443699D3*
Y2343699D3*
Y2243699D3*
Y2143699D3*
Y2043699D3*
Y1943699D3*
X4593701D3*
Y2043699D3*
Y2143699D3*
Y2243699D3*
Y2343699D3*
Y2443699D3*
Y2543699D3*
Y2643699D3*
D64*
X6354331Y2993701D3*
D63*
X5586614D3*
D94*
X10293701Y493699D3*
D100*
X7177953Y2043699D3*
D98*
Y1743699D3*
D26*
X4993701Y2643701D3*
D27*
Y2543701D3*
Y2443701D3*
Y2343701D3*
Y2243701D3*
Y2143701D3*
Y2043701D3*
Y1943701D3*
Y1843701D3*
Y1743701D3*
X5293701D3*
Y1843701D3*
Y1943701D3*
Y2043701D3*
Y2143701D3*
Y2243701D3*
Y2343701D3*
Y2443701D3*
Y2543701D3*
Y2643701D3*
D90*
X1793110Y643699D3*
D89*
X1893110D3*
X1993110D3*
X2093110D3*
X2193110D3*
X2293110D3*
X2393110D3*
X2493110D3*
D90*
X9993701Y2693699D3*
D89*
X10093701D3*
D26*
X7344094Y2693306D3*
D27*
Y2593306D3*
Y2493306D3*
Y2393306D3*
X7644094D3*
Y2493306D3*
Y2593306D3*
Y2693306D3*
D32*
X8143701Y1843699D3*
Y2993699D3*
D26*
X4993701Y1443701D3*
D27*
Y1343701D3*
Y1243701D3*
Y1143701D3*
Y1043701D3*
Y943701D3*
Y843701D3*
Y743701D3*
X5293701D3*
Y843701D3*
Y943701D3*
Y1043701D3*
Y1143701D3*
Y1243701D3*
Y1343701D3*
Y1443701D3*
D90*
X6593701Y3393699D3*
D89*
X6693701D3*
X6793701D3*
X6893701D3*
D32*
X5143307Y2443896D3*
Y1943896D3*
D90*
X9993701Y2443699D3*
D89*
X10093701D3*
D26*
X3593701Y2643699D3*
D27*
Y2543699D3*
Y2443699D3*
Y2343699D3*
Y2243699D3*
Y2143699D3*
Y2043699D3*
Y1943699D3*
X3893701D3*
Y2043699D3*
Y2143699D3*
Y2243699D3*
Y2343699D3*
Y2443699D3*
Y2543699D3*
Y2643699D3*
D32*
X844488Y3294093D3*
X1344488D3*
D61*
X4793898Y3193306D3*
X4693898Y3293306D3*
X4793898Y3393306D3*
D90*
X5793701Y543699D3*
D89*
X5893701D3*
X5993701D3*
X6093701D3*
D100*
X7593701Y3143701D3*
D98*
X7293701D3*
D52*
X7055906Y2711022D3*
X7130709D3*
D26*
X7893701Y1143699D3*
D27*
X7793701D3*
X7693701D3*
X7593701D3*
X7493701D3*
X7393701D3*
X7293701D3*
X7193701D3*
X7093701D3*
X6993701D3*
X6893701D3*
X6793701D3*
X6693701D3*
X6593701D3*
Y543699D3*
X6693701D3*
X6793701D3*
X6893701D3*
X6993701D3*
X7093701D3*
X7193701D3*
X7293701D3*
X7393701D3*
X7493701D3*
X7593701D3*
X7693701D3*
X7793701D3*
X7893701D3*
D26*
X1793701Y943699D3*
D27*
X1893701D3*
X1993701D3*
X2093701D3*
X2193701D3*
X2293701D3*
D32*
X10143701Y3143701D3*
X10242126D3*
X4443701Y2543699D3*
Y2043699D3*
X2993504Y1593699D3*
Y2743699D3*
D94*
X5393701Y3443699D3*
D90*
X9093701Y2693699D3*
D89*
X9193701D3*
M02*
