%TF.GenerationSoftware,Novarm,DipTrace,4.3.0.5*%
%TF.CreationDate,2023-08-20T22:22:37+01:00*%
%FSLAX26Y26*%
%MOIN*%
%TF.FileFunction,Copper,L1,Top*%
%TF.Part,Single*%
%TA.AperFunction,Conductor*%
%ADD13C,0.009843*%
%ADD14C,0.03937*%
%TA.AperFunction,ComponentPad*%
%ADD17C,0.055118*%
%ADD18C,0.055118*%
%ADD19R,0.062992X0.062992*%
%ADD20C,0.062992*%
%ADD21C,0.062992*%
%ADD22C,0.06*%
%ADD23C,0.137795*%
%ADD24R,0.051181X0.051181*%
%ADD25C,0.051181*%
%ADD26R,0.066929X0.066929*%
%ADD27C,0.066929*%
%ADD28R,0.056693X0.056693*%
%ADD29C,0.056693*%
%ADD30O,0.137795X0.07874*%
%ADD31O,0.07874X0.15748*%
%ADD32C,0.066929*%
%ADD33R,0.181102X0.07874*%
%ADD34O,0.165354X0.07874*%
%ADD35O,0.07874X0.165354*%
%ADD36R,0.075X0.07874*%
%ADD37O,0.075X0.07874*%
%ADD38R,0.041339X0.059055*%
%ADD39O,0.041339X0.059055*%
%ADD40R,0.082677X0.082677*%
%ADD41C,0.082677*%
%ADD42C,0.056693*%
%ADD43R,0.059055X0.07874*%
%ADD44R,0.149606X0.07874*%
%TA.AperFunction,ViaPad*%
%ADD45C,0.04*%
%TA.AperFunction,ComponentPad*%
%ADD108C,0.03937*%
G75*
G01*
%LPD*%
X7427953Y1670374D2*
D13*
X7251969D1*
X7177953Y1744390D1*
X7427953Y1918406D2*
Y2094390D1*
X7477953Y2144390D1*
X6777953Y1744390D2*
X6733661Y1788681D1*
X6637992D1*
X6593701Y1744390D1*
X6877953D2*
X6777953D1*
X7077953D2*
X7037600Y1704037D1*
X6918306D1*
X6877953Y1744390D1*
X7177953D2*
X7077953D1*
X7427953Y1670374D2*
Y1775023D1*
X7477952D1*
X7293701Y3144391D2*
D14*
Y3244391D1*
X793701Y1544784D2*
D13*
X693701Y1644784D1*
Y3143996D1*
X844488Y3294784D1*
X5293701Y2644391D2*
X5243112D1*
X5143307Y2544587D1*
Y2490850D1*
Y2444587D1*
X8743701Y1344390D2*
D14*
X8868701Y1219390D1*
X9093701D1*
X8143701Y1844390D2*
D13*
Y1794390D1*
X7843504Y1494193D1*
X7277953Y2144390D2*
Y1977855D1*
X7337402Y1918406D1*
X4593701Y1444390D2*
X4493898D1*
X4444094Y1394587D1*
X2993504Y1594390D2*
X2843504Y1444390D1*
X2693701D1*
X4793898Y3193996D2*
X4143701D1*
Y3206595D1*
X9593701Y2644390D2*
D14*
X9643701Y2594390D1*
X10143701D1*
X10193701Y2644390D1*
Y2907185D1*
X6693701Y844390D2*
D13*
X6593701Y744390D1*
Y592621D1*
Y544390D1*
X3893701Y2644390D2*
X3844094D1*
X3743701Y2543996D1*
X4593701Y2644390D2*
X4543701D1*
X4443701Y2544390D1*
X1743504Y2644390D2*
X2043701Y2644587D1*
X3893701Y1444390D2*
X3793701D1*
X3743701Y1394390D1*
X5293701Y1444391D2*
X5193899D1*
X5144094Y1394587D1*
X7293701Y3244391D2*
D14*
X7344094Y3294785D1*
Y3394390D1*
X3793701Y3294390D2*
D13*
X3693701D1*
X4143701Y3206595D2*
Y3194391D1*
X4043702Y3294390D1*
X3793701D1*
X10193701Y2907185D2*
D14*
Y3095966D1*
X10242126Y3144391D1*
X2693701Y1444390D2*
D13*
X2513389Y1264078D1*
X2113389D1*
X1793701Y944390D1*
X6693701Y844390D2*
X7774016D1*
X7793701Y864075D1*
Y1144390D1*
X3743701Y1394390D2*
X3543701Y1594390D1*
X2993504D1*
X4593701Y2644390D2*
X4747241Y2490850D1*
X5143307D1*
X5643701Y1144391D2*
Y1424703D1*
X5624013Y1444391D1*
X5293701D1*
X8143701Y1844390D2*
X7357087D1*
X7337402Y1864076D1*
Y1918406D1*
X3693701Y3294390D2*
X3621350Y3222039D1*
X2943543D1*
X3893701Y2644390D2*
X3947438Y2590653D1*
X4397438D1*
X4443701Y2544390D1*
X9093701Y1219390D2*
X9181299Y1306989D1*
Y1719590D1*
X9160433Y1740456D1*
X9214368Y1794390D1*
X9693701D1*
X8743701Y1344390D2*
X8563390D1*
X8543701Y1324701D1*
Y1144390D1*
X5893701Y544390D2*
X5941932Y592621D1*
X6593701D1*
X9143701Y2994390D2*
X8943701D1*
X8843701Y2894390D1*
X5144094Y1394587D2*
X4643504D1*
X4593701Y1444390D1*
X3893701D2*
X3943504Y1394587D1*
X4444094D1*
X9160433Y1740456D2*
X8497241D1*
X8443504Y1794193D1*
X2893700Y3222039D2*
X2729775D1*
X2598389Y3090653D1*
X2043700D1*
X7293701Y3244391D2*
X6843699D1*
X6693701Y3394390D1*
X6894094Y2693996D2*
X6966900D1*
X7019067Y2746164D1*
X7222323D1*
X7243189Y2725298D1*
Y2712030D1*
X7277952Y2677267D1*
X7644094Y2693996D2*
X7547657D1*
X7495489Y2746164D1*
X7257948D1*
X7243189Y2731405D1*
Y2725298D1*
X9693701Y1794390D2*
X9977165D1*
X10043701Y1860925D1*
X8443504Y1794193D2*
X8295969D1*
X8295772Y1794390D1*
X8143701D1*
X9943701Y3144391D2*
D14*
X9993701Y3094391D1*
Y2907185D1*
X10093701Y2807185D1*
Y2694390D1*
X3293701Y2544390D2*
D13*
X3247438Y2590653D1*
X3133901D1*
X4293701Y2244390D2*
X3955043Y2244393D1*
X6278464Y1490653D2*
X4359649D1*
X1743504Y2544390D2*
X1493307D1*
X1393701Y2444784D1*
X3133901Y2590653D2*
X1789767D1*
X1743504Y2544390D1*
Y1544390D2*
X2249339D1*
X2299139Y1494590D1*
X2389763D1*
X2612677Y777227D2*
X4639963D1*
X4659649Y796913D1*
Y1060184D1*
X4679334Y1079869D1*
X4818389D1*
X1662476Y1413208D2*
X1697236Y1378448D1*
X2478007D1*
X2512771Y1413212D1*
X1393701Y1644784D2*
X1447832Y1590653D1*
X2297241D1*
X2343504Y1544390D1*
X3293701Y1744390D2*
X4872839D1*
X4892523Y1764075D1*
Y1943214D1*
X4993701Y2044391D1*
X2343504Y1544390D2*
X2627754D1*
X2647441Y1564078D1*
Y1770968D1*
X2667126Y1790653D1*
X2728331D1*
X2751598Y1813920D1*
X3064340D1*
X3133870Y1744390D1*
X3293701D1*
X3593701Y2244390D2*
X3747438Y2090653D1*
X4791457D1*
X4845196Y2144391D1*
X4993701D1*
X2693701Y1844390D2*
X2639607D1*
X2619921Y1824705D1*
Y1664078D1*
X2600234Y1644390D1*
X2343504D1*
X3518067Y2244393D2*
X3464327Y2190653D1*
X2923354D1*
X908157Y1343684D2*
X2248858D1*
X2343504Y1744390D2*
X1847815D1*
X1794077Y1690653D1*
X839570D1*
X793701Y1644784D1*
X4993701Y2244391D2*
X4939962Y2190653D1*
X4106893D1*
X3293701Y1644390D2*
X4037563D1*
X4067320Y1614633D1*
X4106893D1*
Y2190653D2*
X3827755D1*
X3674018Y2344390D1*
X3593701D1*
X2693701Y2444390D2*
X2860142D1*
X2913879Y2390653D1*
X3339964D1*
X3374728Y2355889D1*
X4863425Y2710338D2*
X3502988D1*
X3483303Y2690653D1*
Y2355889D1*
X3293701Y2444390D2*
X3247438Y2490653D1*
X2192425D1*
X2146163Y2444390D1*
X1743504D1*
X4694413Y2625416D2*
X4865570D1*
X4930807Y2690653D1*
X6268306D1*
X6318149Y2640810D1*
X8299295Y3094192D2*
Y2953251D1*
X8279610Y2933566D1*
X8095618D1*
X7988728Y3040456D1*
X7779094D1*
X7633543Y2894905D1*
X6318149D1*
X4293701Y2344390D2*
X3893701D1*
X4593701D2*
X4293701D1*
X4694413Y2344393D2*
X4593701Y2344390D1*
X8334059Y2994192D2*
Y2933566D1*
X8314374Y2913881D1*
X7967023D1*
X7940448Y2940456D1*
X7811571D1*
X7731256Y2860141D1*
X3429177D1*
X3409492Y2840456D1*
Y2340810D1*
X3389807Y2321125D1*
X3359649D1*
X3339964Y2340810D1*
Y2344390D1*
X3293701D1*
X1743504D2*
X1643898Y2244784D1*
X1393701D1*
X3293701Y2344390D2*
X2816374D1*
X2770111Y2390653D1*
X2300689D1*
X2254427Y2344390D1*
X1743504D1*
Y2244390D2*
X1789767Y2290653D1*
X3247438D1*
X3293701Y2244390D1*
X3409493D1*
X3429177Y2264075D1*
Y2820771D1*
X3448862Y2840456D1*
X8389767D1*
X8443504Y2894193D1*
X1743504Y2144390D2*
X1596572D1*
X1496965Y2044784D1*
X1393701D1*
X3114118Y2144712D2*
X2843413D1*
X2797472Y2190653D1*
X2192479D1*
X2157716Y2225416D1*
X1804842D1*
X3293701Y2044390D2*
X3247438Y2090653D1*
X2306751D1*
X2260489Y2044390D1*
X1743504D1*
X1643898Y1944784D1*
X1393701D1*
X1743504Y1944390D2*
X1789767Y1990653D1*
X2827700D1*
X2873963Y1944390D1*
X3293701D1*
X1743504Y1844390D2*
X2260488D1*
X2306750Y1890653D1*
X3247438D1*
X3293701Y1844390D1*
X1743504Y1744390D2*
X1692653Y1795241D1*
Y1869787D1*
X1671787Y1890653D1*
X839570D1*
X793701Y1844784D1*
X2693701Y1944390D2*
X2424527Y1944389D1*
X1692653Y1869787D2*
X1713519Y1890653D1*
X2248858D1*
X2774728Y1779157D2*
X2863232Y1690653D1*
X4369920D1*
X4408582Y1651991D1*
X4993700D1*
X1743504Y1644390D2*
X1909666D1*
X1955928Y1690653D1*
X2585157D1*
X2693701Y2044390D2*
X3154657D1*
X3208394Y1990653D1*
X3365039D1*
X3526693Y1828999D1*
X4857759D1*
X6593701Y1444391D2*
Y1344390D1*
X6793701Y1144390D1*
X6693701Y1744390D2*
X6993701Y1444390D1*
Y1144390D1*
X5293701Y1144391D2*
X5451910D1*
X5536660Y1059641D1*
X7523425D1*
X7543110Y1079326D1*
Y1170968D1*
X7562795Y1190653D1*
X7647438D1*
X7693701Y1144390D1*
X5293701Y1344391D2*
X5243111Y1293802D1*
X3744289D1*
X3593701Y1444390D1*
X4593701Y2244390D2*
X4547438Y2290653D1*
X3939964D1*
X3893701Y2244390D1*
X4694413Y2244389D2*
X4593701Y2244390D1*
X8578035Y2140456D2*
X7897241D1*
X7843504Y2194193D1*
X3293701Y2644390D2*
X2909850D1*
X2863587Y2690653D1*
X2455417D1*
X2409155Y2644390D1*
X2343504D1*
X8789960Y1994905D2*
Y2674507D1*
X8770274Y2694193D1*
X8443504D1*
X4818389Y762149D2*
X4887913Y692625D1*
X5415310D1*
X5626259Y481676D1*
X6620275D1*
X6639960Y501361D1*
Y620810D1*
X6659645Y640495D1*
X6943543D1*
X4593701Y2544390D2*
X4539964Y2490653D1*
X4254625D1*
X4200888Y2544390D1*
X3893701D1*
X2343504Y2644390D2*
X2297044Y2690850D1*
X1539767D1*
X1393701Y2544784D1*
X6943543Y640495D2*
X8125878D1*
X8145565Y660182D1*
Y1074117D1*
X8165250Y1093802D1*
X8789960D1*
X7037074Y590653D2*
X8627878D1*
X8647563Y610338D1*
Y954157D1*
X4293701Y2644390D2*
X4247438Y2690653D1*
X3639964D1*
X3593701Y2644390D1*
X3247441Y3187275D2*
X2759649D1*
X5480511Y1617227D2*
X4593704D1*
X2343504Y2544390D2*
X1940374D1*
X1886636Y2490653D1*
X1624590D1*
X1521834Y2387897D1*
X1370275D1*
X1350590Y2407582D1*
Y2601673D1*
X1393701Y2644784D1*
X2603704Y2544389D2*
X2343504Y2544390D1*
X3593701D2*
X3747438Y2390653D1*
X4339964D1*
X2343504Y2444390D2*
X2262244D1*
X2208506Y2390653D1*
X1688240D1*
X1585484Y2287897D1*
X1330905D1*
X1311220Y2307582D1*
Y2662303D1*
X1393701Y2744784D1*
X3393700Y2979157D2*
X3345712D1*
X3334216Y2990653D1*
X2943665D1*
X2932169Y2979157D1*
X6920275Y2290653D2*
X7729933D1*
X7749618Y2310338D1*
Y2420771D1*
X7769303Y2440456D1*
X8023504D1*
X8077242Y2494193D1*
X8443504D1*
X4339964Y2390653D2*
X4729177D1*
X4829177Y2290653D1*
X6920275D1*
X2693701Y2944390D2*
X2781295Y3031985D1*
Y3082507D1*
X2800980Y3102192D1*
X3441929D1*
X4293701Y2444390D2*
X3991148D1*
X3939964Y2495574D1*
X4729177Y2445102D2*
X4917066D1*
X4971515Y2390653D1*
X5647665D1*
X5697271Y2440259D1*
X6957189D1*
X6976874Y2459944D1*
X7197637D1*
X7212716Y2475023D1*
X4246606Y1898527D2*
X4261685Y1883448D1*
X4687209D1*
X4729177Y1925416D1*
X7324212Y2243133D2*
X8167129D1*
X8318190Y2394193D1*
X8443504D1*
X793701Y2744784D2*
X842719Y2793802D1*
X2447362D1*
X7422637Y2347735D2*
X7684500D1*
X7704185Y2367420D1*
Y2455535D1*
X7723870Y2475220D1*
X7762480D1*
X3493700Y3048684D2*
X5415456D1*
X5534472Y2929668D1*
X7422637D1*
X2693701Y2844390D2*
X2800980Y2951670D1*
Y3028999D1*
X2820665Y3048684D1*
X3493700D1*
X2447362Y2793802D2*
X2497951Y2844390D1*
X2693701D1*
X2343504Y2144390D2*
X1812898D1*
X1766635Y2190653D1*
X1247832D1*
X793701Y2644784D1*
X2693701Y2744390D2*
X2879531D1*
X2933268Y2690653D1*
X3320279D1*
X3339964Y2710338D1*
Y2878448D1*
X3359649Y2898133D1*
X3641929D1*
X8443504Y2194193D2*
X8732170D1*
X8751854Y2213878D1*
Y2620771D1*
X8732169Y2640456D1*
X7763240D1*
X7743555Y2660141D1*
Y2770964D1*
X7723870Y2790649D1*
X3641929D1*
X7671559Y3221479D2*
Y3442621D1*
X7651874Y3462306D1*
X5715865D1*
X5371771Y3118212D1*
X4025811D1*
X4022228Y3114629D1*
X3593700D1*
X2558228Y2993802D2*
X1428464D1*
X3593700Y3114629D2*
X3539630D1*
X3517303Y3136956D1*
X2770910D1*
X2627756Y2993802D1*
X2558228D1*
X793701Y2444784D2*
X1250588Y1987897D1*
X1551283D1*
X1654035Y2090649D1*
X2248858D1*
X2693701Y2544390D2*
X3183744Y2544393D1*
X7593700Y758767D2*
X8053110D1*
X5515275Y3035416D2*
Y3083448D1*
X4091815D1*
X7593700Y708924D2*
X6728464D1*
X7893701Y1144390D2*
Y894390D1*
X7843701Y844390D1*
X9455906Y2644390D2*
D14*
X9501181Y2689666D1*
Y3324311D1*
X9619291Y3442422D1*
Y3446852D1*
X3593701Y1944390D2*
D13*
X3644094D1*
X3743701Y2043996D1*
X3593701Y844390D2*
X3693701D1*
X3743701Y894390D1*
X7376378Y2144390D2*
X7420669Y2188681D1*
X7532087D1*
X7576378Y2144390D1*
X4143701Y3344390D2*
X4093701Y3394390D1*
X3793701D1*
X7843504Y3394193D2*
X8143701Y3093996D1*
Y2994390D1*
X4993701Y1744391D2*
X5143307Y1893998D1*
Y1944587D1*
X4993701Y744391D2*
X5142913Y893603D1*
X5144094Y894587D1*
X4293701Y844390D2*
X4393898D1*
X4444094Y894587D1*
X2343504Y1444390D2*
X2093898D1*
X2043701Y1494587D1*
X9093701Y1319390D2*
D14*
X8906496D1*
X8881496Y1344390D1*
X10042126Y3144391D2*
X10093701Y3092817D1*
Y3094391D1*
X10143701Y3144391D1*
X1393701Y2844784D2*
D13*
Y3245571D1*
X1344488Y3294784D1*
X2993504Y2744390D2*
X3193504Y2944390D1*
X3293701D1*
X4293701Y1944390D2*
X4343701D1*
X4443701Y2044390D1*
X10093701Y3094391D2*
D14*
Y2907185D1*
X9619291Y3442422D2*
X9744096D1*
X10042126Y3144391D1*
X7576378Y2144390D2*
D13*
X7518504Y2086516D1*
Y1918406D1*
X7244094Y3394390D2*
X7195864Y3442621D1*
X6641932D1*
X6593701Y3394390D1*
X2793701D2*
X1444094D1*
X1344488Y3294784D1*
X6243701Y844391D2*
X6193111Y793802D1*
X5579208D1*
X8881496Y1344390D2*
X8835233Y1390653D1*
X8313976D1*
X8132204Y1208881D1*
X1393701Y1544784D2*
X1443898Y1494587D1*
X2043701D1*
X3743701Y894390D2*
X4243701D1*
X4293701Y844390D1*
X8143701Y2994390D2*
X8195563D1*
X8215251Y3014079D1*
Y3120771D1*
X8234936Y3140456D1*
X8526870D1*
X8531795Y3135531D1*
X8643700D1*
X7344094Y2393996D2*
X7293231Y2343133D1*
X6831370D1*
X6796610Y2377893D1*
X6693700D1*
X3293701Y2944390D2*
X3764724Y2945102D1*
X4783626Y1698133D2*
X4443700D1*
X4993701Y1744391D2*
X5293701D1*
X7344094Y2593996D2*
X7644094D1*
X6593701Y3394390D2*
X5986613D1*
X5586614Y2994391D1*
X3989807Y1990653D2*
X4247438D1*
X4293701Y1944390D1*
X3743701Y2043996D2*
X3758466D1*
X3811809Y1990653D1*
X3989807D1*
X5579208Y793802D2*
X5478423Y894587D1*
X5144094D1*
X7893701Y1144390D2*
X7808068Y1230023D1*
X7179334D1*
X7093701Y1144390D1*
X8132204Y1208881D2*
X8067714Y1144390D1*
X7893701D1*
X8643700Y3135531D2*
X9174015D1*
X9193701Y3115845D1*
Y2944390D1*
X6693700Y2377893D2*
X6677597Y2393996D1*
X6594094D1*
X7444094Y3394390D2*
Y3293998D1*
X7593701Y3144391D1*
X7644094Y2493996D2*
X7578146D1*
X7531883Y2540259D1*
X7128268D1*
X7082006Y2493996D1*
X6894094D1*
X7544094Y3394390D2*
Y3293998D1*
X7593701Y3244391D1*
X7644094Y2393996D2*
X7470129D1*
X7423866Y2440259D1*
X7122024D1*
X7075762Y2393996D1*
X6894094D1*
X4947441Y3481397D2*
X2861020D1*
X2841929Y3462306D1*
Y3365456D1*
X2861614Y3345771D1*
X3042320D1*
X3093701Y3294390D1*
X8717090Y2340456D2*
X8352952D1*
X8070063Y2394192D2*
X8116327Y2440456D1*
X8682326D1*
X9993701Y2694390D2*
D14*
X9943701D1*
X9619291Y3018801D1*
Y3198821D1*
X8843701Y2594390D2*
D13*
X8943701Y2694390D1*
X9093701D1*
X7074724Y1336208D2*
X8158464D1*
X8232594Y1410338D1*
X9093696D1*
X8443504Y3294193D2*
X8497241Y3240456D1*
X9072244D1*
X9091929Y3260141D1*
Y3342422D1*
X9143701Y3394193D1*
X7843504Y3294193D2*
X7785055Y3352642D1*
Y3420771D1*
X7804740Y3440456D1*
X8328538D1*
X8426570Y3342424D1*
X8695470D1*
X8743701Y3294193D1*
X7843504Y3194193D2*
X7747401Y3290296D1*
Y3440456D1*
X7767086Y3460141D1*
X8677753D1*
X8743701Y3394193D1*
X7782161Y3094192D2*
X7726000Y3150353D1*
Y3460141D1*
X7745685Y3479826D1*
X8772244D1*
X8791929Y3460141D1*
Y3345965D1*
X8843701Y3294193D1*
X3693701Y3394390D2*
X3741932Y3442621D1*
X4745273D1*
X4793898Y3393996D1*
X2893701Y3394390D2*
X2961617Y3462306D1*
X4837008D1*
X4856693Y3442621D1*
Y3313684D1*
X4837006Y3293996D1*
X4693898D1*
X7591563Y990653D2*
X4936256D1*
X4783626Y838023D1*
Y712306D1*
X9734291Y1840456D2*
X8264086D1*
X6693701Y1444391D2*
Y1453248D1*
X6549409Y1597540D1*
Y2000099D1*
X6593701Y2044390D1*
X6639964Y2090653D1*
X7031690D1*
X7077953Y2044390D1*
X8717090Y2540456D2*
X7743555D1*
X7723870Y2560141D1*
Y2746165D1*
X7704185Y2765850D1*
X4197516D1*
X4187551Y2755885D1*
X6593701Y1944390D2*
X6639964Y1990653D1*
X6724216D1*
X6777953Y2044390D1*
X6977953D2*
X6877953Y1944390D1*
X6693701D1*
X4593701Y944390D2*
X4639964Y990654D1*
Y1070968D1*
X4620279Y1090653D1*
X4347438D1*
X4293701Y1144390D1*
X3963098D1*
X3916835Y1190653D1*
X3747438D1*
X3593701Y1344390D1*
Y1144390D2*
X3732563D1*
X3786300Y1090653D1*
X4017082D1*
X4063345Y1044390D1*
X4293701D1*
X3593701Y944390D2*
X3639964Y990653D1*
X4539964D1*
X4593701Y1044390D1*
X6594094Y2693996D2*
X6644682Y2643409D1*
X6987601D1*
X7055906Y2711713D1*
X6594094Y2593996D2*
X6647832Y2540259D1*
X6954094D1*
X6996950Y2583115D1*
X7002111D1*
X7130709Y2711713D1*
X3774897Y1055889D2*
X3697457D1*
X3662693Y1090653D1*
X2174724D1*
X3955043Y1244389D2*
X4123676D1*
X4174263Y1193802D1*
X5528811D1*
X6143547Y943645D2*
X7720275D1*
X7739960Y963330D1*
Y1187763D1*
X7843504Y2094193D2*
X8255276D1*
X8409013Y1940456D1*
X9066287D1*
X9146401Y2020570D1*
X9736023D1*
Y2202067D1*
X9693701Y2244390D1*
X9736023Y2020570D2*
X9756889Y1999704D1*
X9997440D1*
X10043701Y2045965D1*
X7758937Y908881D2*
X6093704D1*
X4057051Y2925066D2*
X5339964D1*
X4993701Y1944391D2*
X5043111Y1993802D1*
X5882212D1*
X6018433Y2130023D1*
X7200590D1*
X7220275Y2110338D1*
Y1829472D1*
X7239960Y1809787D1*
X7750098D1*
X7769784Y1790101D1*
Y1464787D1*
X7789469Y1445102D1*
X8097441D1*
X2503937Y2790653D2*
X2840485D1*
X2860172Y2810340D1*
Y2994235D1*
X2879857Y3013920D1*
X4795783D1*
X2274413Y2859039D2*
X2309176Y2893802D1*
X2503937D1*
X2343504Y2744390D2*
X1997437Y2744389D1*
X5293701Y1244391D2*
X5543890D1*
X5563574Y1224707D1*
Y1099011D1*
X5583259Y1079326D1*
X7020275D1*
X7039960Y1099011D1*
Y1351287D1*
X7059645Y1370972D1*
X8112519D1*
X8132204Y1390657D1*
Y1674506D1*
X8151892Y1694193D1*
X8443504D1*
X7693701Y544390D2*
X7611302Y461991D1*
X5614681D1*
X5480511Y596161D1*
X2393110D1*
Y644390D1*
X1893701Y944390D2*
X1941338Y896752D1*
Y615846D1*
X1961023Y596161D1*
X2393110D1*
X3593701Y1244390D2*
X2159646D1*
X2139960Y1224705D1*
Y914078D1*
X2093110Y867228D1*
Y644390D1*
X3094216Y2244389D2*
X2782488D1*
X2782487Y2244390D1*
X2693701D1*
X5204645Y2093802D2*
X4972716D1*
X4742677Y1863763D1*
X3948153D1*
X8443504Y2794193D2*
X9072834D1*
X9093700Y2815060D1*
X9370275D1*
X9389960Y2795375D1*
Y2571755D1*
X9409645Y2552070D1*
X9986021D1*
X10093701Y2444390D1*
X7593701Y1144390D2*
Y1059641D1*
X7574015Y1039956D1*
X5499953D1*
X5449256Y1090653D1*
X4900626D1*
X4808106Y998133D1*
X4748862D1*
X9093700Y2815060D2*
X9093701Y2944390D1*
X4197917Y727385D2*
X2576105D1*
X2493110Y644390D1*
X4748862Y998133D2*
Y747070D1*
X4729177Y727385D1*
X4197917D1*
X5239409Y1579869D2*
X4017685D1*
X2693701Y1744390D2*
X2755043Y1683047D1*
Y1479157D1*
X5293701Y2144391D2*
X5357678Y2208369D1*
X7754535D1*
X7774222Y2188682D1*
Y1960141D1*
X7793907Y1940456D1*
X8018346D1*
X8064609Y1894193D1*
X8443504D1*
D45*
X7477952Y1775023D3*
X2043700Y3090653D3*
X2893700Y3222039D3*
X2943543D3*
X7277952Y2677267D3*
X3955043Y2244393D3*
X4359649Y1490653D3*
X6278464D3*
X3133901Y2590653D3*
X4818389Y1079869D3*
X2612677Y777227D3*
X2389763Y1494590D3*
X2512771Y1413212D3*
X1662476Y1413208D3*
X2923354Y2190653D3*
X3518067Y2244393D3*
X2248858Y1343684D3*
X908157D3*
X4106893Y1614633D3*
Y2190653D3*
X3374728Y2355889D3*
X3483303D3*
X4863425Y2710338D3*
X6318149Y2640810D3*
X4694413Y2625416D3*
Y2344393D3*
X6318149Y2894905D3*
X8299295Y3094192D3*
X8334059Y2994192D3*
X1804842Y2225416D3*
X3114118Y2144712D3*
X2424527Y1944389D3*
X2248858Y1890653D3*
X4993700Y1651991D3*
X2774728Y1779157D3*
X2585157Y1690653D3*
X4857759Y1828999D3*
X4694413Y2244389D3*
X8578035Y2140456D3*
X8789960Y1994905D3*
Y1093802D3*
X6943543Y640495D3*
X4818389Y762149D3*
X8647563Y954157D3*
X7037074Y590653D3*
X2759649Y3187275D3*
X2603704Y2544389D3*
X4593704Y1617227D3*
X5480511D3*
X3247441Y3187275D3*
X6920275Y2290653D3*
X2932169Y2979157D3*
X3393700D3*
X4339964Y2390653D3*
X7212716Y2475023D3*
X4729177Y2445102D3*
Y1925416D3*
X4246606Y1898527D3*
X7324212Y2243133D3*
X3939964Y2495574D3*
X3441929Y3102192D3*
X7762480Y2475220D3*
X7422637Y2929668D3*
X3493700Y3048684D3*
X7422637Y2347735D3*
X2447362Y2793802D3*
X3641929Y2790649D3*
Y2898133D3*
X2558228Y2993802D3*
X7671559Y3221479D3*
X1428464Y2993802D3*
X3593700Y3114629D3*
X2248858Y2090649D3*
X3183744Y2544393D3*
X8053110Y758767D3*
X7593700D3*
X4091815Y3083448D3*
X5515275Y3035416D3*
X6728464Y708924D3*
X7593700D3*
X3989807Y1990653D3*
X5579208Y793802D3*
X8643700Y3135531D3*
X3764724Y2945102D3*
X6693700Y2377893D3*
X4443700Y1698133D3*
X4783626D3*
X8132204Y1208881D3*
X4947441Y3481397D3*
X8352952Y2340456D3*
X8717090D3*
X8682326Y2440456D3*
X8070063Y2394192D3*
X9093696Y1410338D3*
X7074724Y1336208D3*
X7782161Y3094192D3*
X4783626Y712306D3*
X7591563Y990653D3*
X8264086Y1840456D3*
X9734291D3*
X4187551Y2755885D3*
X8717090Y2540456D3*
X2174724Y1090653D3*
X3774897Y1055889D3*
X5528811Y1193802D3*
X3955043Y1244389D3*
X7739960Y1187763D3*
X6143547Y943645D3*
X6093704Y908881D3*
X7758937D3*
X5339964Y2925066D3*
X4057051D3*
X4795783Y3013920D3*
X2503937Y2790653D3*
Y2893802D3*
X2274413Y2859039D3*
X1997437Y2744389D3*
X8097441Y1445102D3*
X3948153Y1863763D3*
X5204645Y2093802D3*
X3094216Y2244389D3*
X4197917Y727385D3*
X4748862Y998133D3*
X4017685Y1579869D3*
X5239409D3*
X2755043Y1479157D3*
X8018346Y1940456D3*
D17*
X6977953Y1744390D3*
D18*
Y2044390D3*
D19*
X8243701Y1144390D3*
D20*
Y1044390D3*
Y944390D3*
Y844390D3*
Y744390D3*
Y644390D3*
Y544390D3*
X8543701D3*
Y644390D3*
Y744390D3*
Y844390D3*
Y944390D3*
Y1044390D3*
Y1144390D3*
D19*
X3293701Y1444390D3*
D20*
Y1544390D3*
Y1644390D3*
Y1744390D3*
Y1844390D3*
Y1944390D3*
Y2044390D3*
Y2144390D3*
Y2244390D3*
Y2344390D3*
Y2444390D3*
Y2544390D3*
Y2644390D3*
Y2744390D3*
Y2844390D3*
Y2944390D3*
X2693701D3*
Y2844390D3*
Y2744390D3*
Y2644390D3*
Y2544390D3*
Y2444390D3*
Y2344390D3*
Y2244390D3*
Y2144390D3*
Y2044390D3*
Y1944390D3*
Y1844390D3*
Y1744390D3*
Y1644390D3*
Y1544390D3*
Y1444390D3*
D17*
X6877953Y2044390D3*
D18*
Y1744390D3*
D19*
X6693701D3*
D21*
Y1844390D3*
D22*
Y1944390D3*
D19*
Y2044390D3*
D21*
X6593701D3*
Y1944390D3*
Y1844390D3*
Y1744390D3*
D19*
X7843504Y3394193D3*
D20*
Y3294193D3*
Y3194193D3*
Y3094193D3*
Y2994193D3*
Y2894193D3*
Y2794193D3*
Y2694193D3*
Y2594193D3*
Y2494193D3*
Y2394193D3*
Y2294193D3*
Y2194193D3*
Y2094193D3*
Y1994193D3*
Y1894193D3*
Y1794193D3*
Y1694193D3*
Y1594193D3*
Y1494193D3*
X8443504D3*
Y1594193D3*
Y1694193D3*
Y1794193D3*
Y1894193D3*
Y1994193D3*
Y2094193D3*
Y2194193D3*
Y2294193D3*
Y2394193D3*
Y2494193D3*
Y2594193D3*
Y2694193D3*
Y2794193D3*
Y2894193D3*
Y2994193D3*
Y3094193D3*
Y3194193D3*
Y3294193D3*
Y3394193D3*
D19*
X9593701Y2644390D3*
D21*
X9455906D3*
D19*
X4143701Y3206595D3*
D21*
Y3344390D3*
D23*
X5393701Y494390D3*
D24*
X9093701Y2944390D3*
D25*
X9143701Y2994390D3*
X9193701Y2944390D3*
D21*
X7277953Y2144390D3*
X7376378D3*
D23*
X493701Y494390D3*
D26*
X7244094Y3394390D3*
D27*
X7344094D3*
X7444094D3*
X7544094D3*
D26*
X2793701Y3294390D3*
D27*
Y3394390D3*
X2893701Y3294390D3*
Y3394390D3*
X2993701Y3294390D3*
Y3394390D3*
X3093701Y3294390D3*
Y3394390D3*
X3193701Y3294390D3*
Y3394390D3*
X3293701Y3294390D3*
Y3394390D3*
X3393701Y3294390D3*
Y3394390D3*
X3493701Y3294390D3*
Y3394390D3*
X3593701Y3294390D3*
Y3394390D3*
X3693701Y3294390D3*
Y3394390D3*
X3793701Y3294390D3*
Y3394390D3*
D19*
X6594094Y2693996D3*
D20*
Y2593996D3*
Y2493996D3*
Y2393996D3*
X6894094D3*
Y2493996D3*
Y2593996D3*
Y2693996D3*
D21*
X3743701Y1394390D3*
Y894390D3*
D19*
X1743504Y3344390D3*
D20*
Y3244390D3*
Y3144390D3*
Y3044390D3*
Y2944390D3*
Y2844390D3*
Y2744390D3*
Y2644390D3*
Y2544390D3*
Y2444390D3*
Y2344390D3*
Y2244390D3*
Y2144390D3*
Y2044390D3*
Y1944390D3*
Y1844390D3*
Y1744390D3*
Y1644390D3*
Y1544390D3*
Y1444390D3*
X2343504D3*
Y1544390D3*
Y1644390D3*
Y1744390D3*
Y1844390D3*
Y1944390D3*
Y2044390D3*
Y2144390D3*
Y2244390D3*
Y2344390D3*
Y2444390D3*
Y2544390D3*
Y2644390D3*
Y2744390D3*
Y2844390D3*
Y2944390D3*
Y3044390D3*
Y3144390D3*
Y3244390D3*
Y3344390D3*
D19*
X8743701Y1344390D3*
D21*
X8881496D3*
D17*
X7593701Y3244391D3*
D18*
X7293701D3*
D21*
X6693701Y844390D3*
X7843701D3*
D17*
X7077953Y2044390D3*
D18*
Y1744390D3*
D21*
X7477953Y2144390D3*
X7576378D3*
D19*
X3593701Y1444390D3*
D20*
Y1344390D3*
Y1244390D3*
Y1144390D3*
Y1044390D3*
Y944390D3*
Y844390D3*
X3893701D3*
Y944390D3*
Y1044390D3*
Y1144390D3*
Y1244390D3*
Y1344390D3*
Y1444390D3*
D23*
X10293701Y3444390D3*
D17*
X8843701Y2894390D3*
D18*
Y2594390D3*
D17*
X9693701Y2244390D3*
D18*
Y2144390D3*
D28*
X1393701Y1544784D3*
D29*
Y1644784D3*
Y1744784D3*
Y1844784D3*
Y1944784D3*
Y2044784D3*
Y2144784D3*
Y2244784D3*
Y2344784D3*
Y2444784D3*
Y2544784D3*
Y2644784D3*
Y2744784D3*
Y2844784D3*
X793701D3*
Y2744784D3*
Y2644784D3*
Y2544784D3*
Y2444784D3*
Y2344784D3*
Y2244784D3*
Y2144784D3*
Y2044784D3*
Y1944784D3*
Y1844784D3*
Y1744784D3*
Y1644784D3*
Y1544784D3*
D19*
X5643701Y844391D3*
D20*
X5743701D3*
X5843701D3*
X5943701D3*
X6043701D3*
X6143701D3*
X6243701D3*
Y1144391D3*
X6143701D3*
X6043701D3*
X5943701D3*
X5843701D3*
X5743701D3*
X5643701D3*
D26*
X9093701Y2194390D3*
D27*
X9193701D3*
D19*
X10043701Y2045965D3*
D21*
Y1943603D3*
Y2128642D3*
Y1860925D3*
X9933465Y2128642D3*
Y1860925D3*
D30*
X10155906Y1725099D3*
D31*
X10187402Y1994784D3*
D30*
X10155906Y2264469D3*
D17*
X8843701Y2394390D3*
D18*
Y2094390D3*
D17*
X6777953Y2044390D3*
D18*
Y1744390D3*
D21*
X2043701Y2644587D3*
Y1494587D3*
D26*
X8643701Y3294193D3*
D27*
Y3394193D3*
X8743701Y3294193D3*
Y3394193D3*
X8843701Y3294193D3*
Y3394193D3*
X8943701Y3294193D3*
Y3394193D3*
X9043701Y3294193D3*
Y3394193D3*
X9143701Y3294193D3*
Y3394193D3*
D23*
X493701Y3444390D3*
D26*
X9093701Y1319390D3*
D32*
Y1219390D3*
Y1119390D3*
Y1019390D3*
Y919390D3*
Y819390D3*
D21*
X9943701Y3144391D3*
X10042126D3*
D33*
X9619291Y3198821D3*
D34*
Y3446852D3*
D35*
X9430315Y3312994D3*
D21*
X4444094Y1394587D3*
Y894587D3*
D36*
X9993701Y2907185D3*
D37*
X10093701D3*
X10193701D3*
D21*
X5144094Y1394587D3*
Y894587D3*
D19*
X4293701Y1444390D3*
D20*
Y1344390D3*
Y1244390D3*
Y1144390D3*
Y1044390D3*
Y944390D3*
Y844390D3*
X4593701D3*
Y944390D3*
Y1044390D3*
Y1144390D3*
Y1244390D3*
Y1344390D3*
Y1444390D3*
D38*
X6693701Y1444391D3*
D39*
X6643701D3*
X6593701D3*
D17*
X9693701Y1894390D3*
D18*
Y1794390D3*
D21*
X3743701Y2543996D3*
Y2043996D3*
D26*
X9093701Y2444390D3*
D27*
X9193701D3*
D19*
X4293701Y2644390D3*
D20*
Y2544390D3*
Y2444390D3*
Y2344390D3*
Y2244390D3*
Y2144390D3*
Y2044390D3*
Y1944390D3*
X4593701D3*
Y2044390D3*
Y2144390D3*
Y2244390D3*
Y2344390D3*
Y2444390D3*
Y2544390D3*
Y2644390D3*
D40*
X6354331Y2994391D3*
D41*
X5586614D3*
D23*
X10293701Y494390D3*
D17*
X7177953Y2044390D3*
D18*
Y1744390D3*
D19*
X4993701Y2644391D3*
D20*
Y2544391D3*
Y2444391D3*
Y2344391D3*
Y2244391D3*
Y2144391D3*
Y2044391D3*
Y1944391D3*
Y1844391D3*
Y1744391D3*
X5293701D3*
Y1844391D3*
Y1944391D3*
Y2044391D3*
Y2144391D3*
Y2244391D3*
Y2344391D3*
Y2444391D3*
Y2544391D3*
Y2644391D3*
D26*
X1793110Y644390D3*
D27*
X1893110D3*
X1993110D3*
X2093110D3*
X2193110D3*
X2293110D3*
X2393110D3*
X2493110D3*
D26*
X9993701Y2694390D3*
D27*
X10093701D3*
D19*
X7344094Y2693996D3*
D20*
Y2593996D3*
Y2493996D3*
Y2393996D3*
X7644094D3*
Y2493996D3*
Y2593996D3*
Y2693996D3*
D21*
X8143701Y1844390D3*
Y2994390D3*
D19*
X4993701Y1444391D3*
D20*
Y1344391D3*
Y1244391D3*
Y1144391D3*
Y1044391D3*
Y944391D3*
Y844391D3*
Y744391D3*
X5293701D3*
Y844391D3*
Y944391D3*
Y1044391D3*
Y1144391D3*
Y1244391D3*
Y1344391D3*
Y1444391D3*
D26*
X6593701Y3394390D3*
D27*
X6693701D3*
X6793701D3*
X6893701D3*
D21*
X5143307Y2444587D3*
Y1944587D3*
D26*
X9993701Y2444390D3*
D27*
X10093701D3*
D19*
X3593701Y2644390D3*
D20*
Y2544390D3*
Y2444390D3*
Y2344390D3*
Y2244390D3*
Y2144390D3*
Y2044390D3*
Y1944390D3*
X3893701D3*
Y2044390D3*
Y2144390D3*
Y2244390D3*
Y2344390D3*
Y2444390D3*
Y2544390D3*
Y2644390D3*
D21*
X844488Y3294784D3*
X1344488D3*
D42*
X4793898Y3193996D3*
X4693898Y3293996D3*
X4793898Y3393996D3*
D26*
X5793701Y544390D3*
D27*
X5893701D3*
X5993701D3*
X6093701D3*
D17*
X7593701Y3144391D3*
D18*
X7293701D3*
D108*
X7055906Y2711713D3*
X7130709D3*
D19*
X7893701Y1144390D3*
D20*
X7793701D3*
X7693701D3*
X7593701D3*
X7493701D3*
X7393701D3*
X7293701D3*
X7193701D3*
X7093701D3*
X6993701D3*
X6893701D3*
X6793701D3*
X6693701D3*
X6593701D3*
Y544390D3*
X6693701D3*
X6793701D3*
X6893701D3*
X6993701D3*
X7093701D3*
X7193701D3*
X7293701D3*
X7393701D3*
X7493701D3*
X7593701D3*
X7693701D3*
X7793701D3*
X7893701D3*
D43*
X7518504Y1918406D3*
X7427953D3*
D44*
Y1670374D3*
D43*
X7337402Y1918406D3*
D19*
X1793701Y944390D3*
D20*
X1893701D3*
X1993701D3*
X2093701D3*
X2193701D3*
X2293701D3*
D21*
X10143701Y3144391D3*
X10242126D3*
X4443701Y2544390D3*
Y2044390D3*
X2993504Y1594390D3*
Y2744390D3*
D23*
X5393701Y3444390D3*
D26*
X9093701Y2694390D3*
D27*
X9193701D3*
M02*
