%TF.GenerationSoftware,Novarm,DipTrace,4.3.0.5*%
%TF.CreationDate,2023-08-20T23:12:20+01:00*%
%FSLAX26Y26*%
%MOIN*%
%TF.FileFunction,Drawing,Top*%
%TF.Part,Single*%
%ADD16C,0.003937*%
G75*
G01*
%LPD*%
X6977953Y1743699D2*
D16*
Y1822833D1*
X6946457D2*
X7009449D1*
Y1964566D1*
X6946457D2*
Y1822833D1*
X7009449Y1964566D2*
X6946457D1*
X6977953Y2043699D2*
Y1964566D1*
X8086220Y593699D2*
Y1068109D1*
Y593699D2*
X8875591D1*
X8111811Y1093699D2*
X8875591D1*
X8125591Y633070D2*
Y1040550D1*
Y633070D2*
X8848031D1*
X8139370Y1054329D2*
X8848031D1*
X8861811Y646849D2*
Y1040550D1*
X8901181Y1068109D2*
Y619290D1*
X8111811Y1093699D2*
G02X8111811Y1093699I0J0D01*
G01*
X8139370Y1054329D2*
G02X8139370Y1054329I0J0D01*
G01*
X8861811Y1040550D2*
G02X8861811Y1040550I0J0D01*
G01*
X8848031Y633070D2*
G02X8848031Y633070I0J0D01*
G01*
X8901181Y1068109D2*
G02X8901181Y1068109I0J0D01*
G01*
X8875591Y593699D2*
G02X8875591Y593699I0J0D01*
G01*
X3343701Y1391337D2*
Y2996062D1*
X2643701D1*
X3283661Y1433070D2*
X3244291Y1393699D1*
X3283661Y2993699D2*
Y1433070D1*
X3244291Y1393699D2*
X2703740D1*
Y2993699D1*
X3283661D1*
X2643701Y1391337D2*
X3343701D1*
X2643701Y2996062D2*
Y1391337D1*
X6877953Y2043699D2*
Y1964566D1*
X6909449D2*
X6846457D1*
Y1822833D1*
X6909449D2*
Y1964566D1*
X6846457Y1822833D2*
X6909449D1*
X6877953Y1743699D2*
Y1822833D1*
X6535827Y1608266D2*
X7520079D1*
Y2179133D1*
X6535827D1*
Y1608266D1*
X7793504Y3445865D2*
Y1441140D1*
X8493504D1*
X7853543Y3404133D2*
X7892913Y3443503D1*
X7853543Y1443503D2*
Y3404133D1*
X7892913Y3443503D2*
X8433465D1*
Y1443503D1*
X7853543D1*
X8493504Y3445865D2*
X7793504D1*
X8493504Y1441140D2*
Y3445865D1*
X9659714Y2574900D2*
X9628218D1*
X9643966Y2559152D2*
Y2590648D1*
X9367323Y2643699D2*
G02X9367323Y2643699I157480J0D01*
G01*
X4074902Y3139891D2*
Y3171387D1*
X4059154Y3155639D2*
X4090650D1*
X3986220Y3274802D2*
G02X3986220Y3274802I157480J0D01*
G01*
X9074016Y2874802D2*
X9211811D1*
X9143701Y3041337D2*
G02X9143701Y3041337I0J0D01*
G01*
X9212741Y2874659D2*
G02X9212741Y2874659I0J0D01*
G01*
X7268110Y2183070D2*
Y2104329D1*
X7386220D1*
Y2183070D2*
X7268110D1*
X7386220Y2104329D2*
Y2183070D1*
X7219094Y3343699D2*
X7194094Y3368699D1*
X7594094Y3343699D2*
X7219094D1*
X7194094Y3368699D2*
Y3443699D1*
X7594094D1*
Y3343699D1*
X2793701Y3243699D2*
X2743701Y3293699D1*
X3843701Y3243699D2*
X2793701D1*
X2743701Y3293699D2*
Y3443699D1*
X3843701D1*
Y3243699D1*
X6544094Y2745668D2*
Y2340944D1*
X6944094D1*
X6619094Y2703936D2*
X6658465Y2743306D1*
X6619094Y2343306D2*
Y2703936D1*
X6658465Y2743306D2*
X6869094D1*
Y2343306D1*
X6619094D1*
X6944094Y2745668D2*
X6544094D1*
X6944094Y2340944D2*
Y2745668D1*
X3775197Y1403542D2*
X3712205D1*
Y885432D1*
X3775197D2*
Y1403542D1*
X3712205Y885432D2*
X3775197D1*
X1693504Y3396062D2*
Y1391337D1*
X2393504D1*
X1753543Y3354329D2*
X1792913Y3393699D1*
X1753543Y1393699D2*
Y3354329D1*
X1792913Y3393699D2*
X2333465D1*
Y1393699D1*
X1753543D1*
X2393504Y3396062D2*
X1693504D1*
X2393504Y1391337D2*
Y3396062D1*
X8677688Y1412499D2*
X8709184D1*
X8693436Y1428247D2*
Y1396751D1*
X8655118Y1343699D2*
G02X8655118Y1343699I157480J0D01*
G01*
X7593701Y3243701D2*
X7514567D1*
Y3212205D2*
Y3275197D1*
X7372835D1*
Y3212205D2*
X7514567D1*
X7372835Y3275197D2*
Y3212205D1*
X7293701Y3243701D2*
X7372835D1*
X6743701Y875196D2*
Y812203D1*
X7793701D1*
Y875196D2*
X6743701D1*
X7793701Y812203D2*
Y875196D1*
X7077953Y2043699D2*
Y1964566D1*
X7109449D2*
X7046457D1*
Y1822833D1*
X7109449D2*
Y1964566D1*
X7046457Y1822833D2*
X7109449D1*
X7077953Y1743699D2*
Y1822833D1*
X7468110Y2183070D2*
Y2104329D1*
X7586220D1*
Y2183070D2*
X7468110D1*
X7586220Y2104329D2*
Y2183070D1*
X3543701Y1496062D2*
Y791337D1*
X3943701D1*
X3618701Y1454329D2*
X3658071Y1493699D1*
X3618701Y793699D2*
Y1454329D1*
X3658071Y1493699D2*
X3868701D1*
Y793699D1*
X3618701D1*
X3943701Y1496062D2*
X3543701D1*
X3943701Y791337D2*
Y1496062D1*
X8843701Y2893699D2*
Y2814566D1*
X8875197D2*
X8812205D1*
Y2672833D1*
X8875197D2*
Y2814566D1*
X8812205Y2672833D2*
X8875197D1*
X8843701Y2593699D2*
Y2672833D1*
X9693701Y2243699D2*
Y2143699D1*
X9662205Y2243699D2*
G02X9662205Y2243699I31496J0D01*
G01*
X1590551Y699211D2*
Y840944D1*
Y699211D2*
X1539370Y644093D1*
X1590551Y840944D2*
X1531496Y919684D1*
X1590551Y840944D2*
X1409449D1*
X1544488Y1174014D2*
X1505906Y1128345D1*
X1544488Y3112597D2*
Y1174014D1*
X1539370Y644093D2*
X1460630D1*
X1531496Y919684D2*
X1468504D1*
X1531496Y1160235D2*
Y919684D1*
X1505906Y1128345D2*
X642913D1*
X1468504Y919684D2*
Y1128345D1*
X1460630Y644093D2*
X1409449Y699211D1*
X1590551D1*
X1409449Y840944D2*
X1468504Y919684D1*
X1409449Y840944D2*
Y699211D1*
X642913Y1128345D2*
Y3112597D1*
X1544488D1*
X6193701Y686219D2*
X5719291D1*
X6193701D2*
Y1475589D1*
X5693701Y711810D2*
Y1475589D1*
X6154331Y725589D2*
X5746850D1*
X6154331D2*
Y1448030D1*
X5733071Y739369D2*
Y1448030D1*
X6140551Y1461810D2*
X5746850D1*
X5719291Y1501180D2*
X6168110D1*
X5693701Y711810D2*
G02X5693701Y711810I0J0D01*
G01*
X5733071Y739369D2*
G02X5733071Y739369I0J0D01*
G01*
X5746850Y1461810D2*
G02X5746850Y1461810I0J0D01*
G01*
X6154331Y1448030D2*
G02X6154331Y1448030I0J0D01*
G01*
X5719291Y1501180D2*
G02X5719291Y1501180I0J0D01*
G01*
X6193701Y1475589D2*
G02X6193701Y1475589I0J0D01*
G01*
X9068701Y2143699D2*
X9043701Y2168699D1*
X9243701Y2143699D2*
X9068701D1*
X9043701Y2168699D2*
Y2243699D1*
X9243701D1*
Y2143699D1*
X9874409Y1679133D2*
Y2309054D1*
X10378346Y1679133D2*
X9874409D1*
Y2309054D2*
X10378346D1*
Y1679133D1*
X8843701Y2393699D2*
Y2314566D1*
X8875197D2*
X8812205D1*
Y2172833D1*
X8875197D2*
Y2314566D1*
X8812205Y2172833D2*
X8875197D1*
X8843701Y2093699D2*
Y2172833D1*
X6777953Y2043699D2*
Y1964566D1*
X6809449D2*
X6746457D1*
Y1822833D1*
X6809449D2*
Y1964566D1*
X6746457Y1822833D2*
X6809449D1*
X6777953Y1743699D2*
Y1822833D1*
X2075197Y2593896D2*
X2012205D1*
Y1543896D1*
X2075197D2*
Y2593896D1*
X2012205Y1543896D2*
X2075197D1*
X8643701Y3243503D2*
X8593701Y3293503D1*
X9193701Y3243503D2*
X8643701D1*
X8593701Y3293503D2*
Y3443503D1*
X9193701D1*
Y3243503D1*
X8993701Y1543699D2*
X10607874D1*
X8993701Y598818D2*
Y1543699D1*
X10371654Y1071259D2*
X10607874Y835038D1*
Y1543699D2*
Y598818D1*
Y1307479D2*
X10371654Y1071259D1*
X10607874Y598818D2*
X8993701D1*
X9933858Y3183071D2*
Y3104331D1*
X10051969D1*
Y3183071D2*
X9933858D1*
X10051969Y3104331D2*
Y3183071D1*
X9796457Y3213878D2*
X9757087Y3174508D1*
X9796457Y3737500D2*
Y3213878D1*
X9442126Y3174508D2*
X9757087D1*
X9442126D2*
Y3737500D1*
X9796457D1*
X4475591Y1403739D2*
X4412598D1*
Y885629D1*
X4475591D2*
Y1403739D1*
X4412598Y885629D2*
X4475591D1*
X9896850Y3030510D2*
Y2857282D1*
Y2980510D2*
X10290551D1*
X9896850Y2857282D2*
X10290551D1*
X10020866Y3030510D2*
Y2980510D1*
X10166535Y3030510D2*
Y2980510D1*
X10290551Y3030510D2*
X9896850D1*
X10290551Y2857282D2*
Y3030510D1*
X5175591Y1403739D2*
X5112598D1*
Y885629D1*
X5175591D2*
Y1403739D1*
X5112598Y885629D2*
X5175591D1*
X4243701Y1496062D2*
Y791337D1*
X4643701D1*
X4318701Y1454329D2*
X4358071Y1493699D1*
X4318701Y793699D2*
Y1454329D1*
X4358071Y1493699D2*
X4568701D1*
Y793699D1*
X4318701D1*
X4643701Y1496062D2*
X4243701D1*
X4643701Y791337D2*
Y1496062D1*
X6713386Y1512598D2*
X6575591D1*
X6643701Y1346063D2*
G02X6643701Y1346063I0J0D01*
G01*
X6574660Y1512741D2*
G02X6574660Y1512741I0J0D01*
G01*
X9693701Y1893699D2*
Y1793699D1*
X9662205Y1893699D2*
G02X9662205Y1893699I31496J0D01*
G01*
X3775197Y2553148D2*
X3712205D1*
Y2035038D1*
X3775197D2*
Y2553148D1*
X3712205Y2035038D2*
X3775197D1*
X9068701Y2393699D2*
X9043701Y2418699D1*
X9243701Y2393699D2*
X9068701D1*
X9043701Y2418699D2*
Y2493699D1*
X9243701D1*
Y2393699D1*
X4243701Y2696062D2*
Y1891337D1*
X4643701D1*
X4318701Y2654329D2*
X4358071Y2693699D1*
X4318701Y1893699D2*
Y2654329D1*
X4358071Y2693699D2*
X4568701D1*
Y1893699D1*
X4318701D1*
X4643701Y2696062D2*
X4243701D1*
X4643701Y1891337D2*
Y2696062D1*
X7177953Y2043699D2*
Y1964566D1*
X7209449D2*
X7146457D1*
Y1822833D1*
X7209449D2*
Y1964566D1*
X7146457Y1822833D2*
X7209449D1*
X7177953Y1743699D2*
Y1822833D1*
X2043701Y3243701D2*
Y3093701D1*
X2193701Y3243701D1*
X2043701Y843701D2*
X2193701Y693701D1*
X2043701D2*
Y843701D1*
X2193701Y3243701D2*
X2043701D1*
X2193701Y693701D2*
X2043701D1*
X8993701Y3243701D2*
X9143701Y3093701D1*
X8993701Y693701D2*
X9143701D1*
Y3243701D2*
X8993701D1*
X9143701Y3093701D2*
Y3243701D1*
Y843701D2*
X8993701Y693701D1*
X9143701D2*
Y843701D1*
X2043701Y3243701D2*
Y684646D1*
X9130315D1*
Y3243701D1*
X2043701D1*
X2732677Y3046850D2*
Y881496D1*
X8441339D1*
Y3046850D1*
X2732677D1*
X8835039Y2771260D2*
Y1688583D1*
X9012205D1*
Y2771260D1*
X8835039D1*
X2024016Y3027165D2*
G02X2024016Y3027165I98425J0D01*
G01*
Y901181D2*
G02X2024016Y901181I98425J0D01*
G01*
X8953150Y3027165D2*
G02X8953150Y3027165I98425J0D01*
G01*
Y901181D2*
G02X8953150Y901181I98425J0D01*
G01*
X4943701Y2696063D2*
Y1691339D1*
X5343701D1*
X5018701Y2654331D2*
X5058071Y2693701D1*
X5018701Y1693701D2*
Y2654331D1*
X5058071Y2693701D2*
X5268701D1*
Y1693701D1*
X5018701D1*
X5343701Y2696063D2*
X4943701D1*
X5343701Y1691339D2*
Y2696063D1*
X1768110Y593699D2*
X1743110Y618699D1*
X2543110Y593699D2*
X1768110D1*
X1743110Y618699D2*
Y693699D1*
X2543110D1*
Y593699D1*
X9968701Y2643699D2*
X9943701Y2668699D1*
X10143701Y2643699D2*
X9968701D1*
X9943701Y2668699D2*
Y2743699D1*
X10143701D1*
Y2643699D1*
X7294094Y2745668D2*
Y2340944D1*
X7694094D1*
X7369094Y2703936D2*
X7408465Y2743306D1*
X7369094Y2343306D2*
Y2703936D1*
X7408465Y2743306D2*
X7619094D1*
Y2343306D1*
X7369094D1*
X7694094Y2745668D2*
X7294094D1*
X7694094Y2340944D2*
Y2745668D1*
X8112205Y1893699D2*
X8175197D1*
Y2943699D1*
X8112205D2*
Y1893699D1*
X8175197Y2943699D2*
X8112205D1*
X4943701Y1496063D2*
Y691339D1*
X5343701D1*
X5018701Y1454331D2*
X5058071Y1493701D1*
X5018701Y693701D2*
Y1454331D1*
X5058071Y1493701D2*
X5268701D1*
Y693701D1*
X5018701D1*
X5343701Y1496063D2*
X4943701D1*
X5343701Y691339D2*
Y1496063D1*
X6568701Y3343699D2*
X6543701Y3368699D1*
X6943701Y3343699D2*
X6568701D1*
X6543701Y3368699D2*
Y3443699D1*
X6943701D1*
Y3343699D1*
X5174803Y2453739D2*
X5111811D1*
Y1935629D1*
X5174803D2*
Y2453739D1*
X5111811Y1935629D2*
X5174803D1*
X9968701Y2393699D2*
X9943701Y2418699D1*
X10143701Y2393699D2*
X9968701D1*
X9943701Y2418699D2*
Y2493699D1*
X10143701D1*
Y2393699D1*
X3543701Y2696062D2*
Y1891337D1*
X3943701D1*
X3618701Y2654329D2*
X3658071Y2693699D1*
X3618701Y1893699D2*
Y2654329D1*
X3658071Y2693699D2*
X3868701D1*
Y1893699D1*
X3618701D1*
X3943701Y2696062D2*
X3543701D1*
X3943701Y1891337D2*
Y2696062D1*
X834646Y3325589D2*
Y3262597D1*
X1352756D1*
Y3325589D2*
X834646D1*
X1352756Y3262597D2*
Y3325589D1*
X4838780Y3480904D2*
X4648622D1*
Y3105707D1*
X4655906Y3155707D2*
X4741299Y3155668D1*
X4655906Y3155707D2*
X4741299Y3155668D1*
X4838780Y3105707D2*
Y3480904D1*
X4648622Y3105707D2*
X4838780D1*
X4655512Y3155707D2*
G02X4655512Y3155707I43110J0D01*
G01*
X5768701Y493699D2*
X5743701Y518699D1*
X6143701Y493699D2*
X5768701D1*
X5743701Y518699D2*
Y593699D1*
X6143701D1*
Y493699D1*
X7593701Y3143701D2*
X7514567D1*
Y3112205D2*
Y3175197D1*
X7372835D1*
Y3112205D2*
X7514567D1*
X7372835Y3175197D2*
Y3112205D1*
X7293701Y3143701D2*
X7372835D1*
X7052756Y2632282D2*
Y2376377D1*
X7133858D1*
X7055906Y2671652D2*
Y2711022D1*
X7079528Y2632282D2*
X7055906Y2671652D1*
X7107087Y2632282D2*
X7130709Y2671652D1*
Y2711022D1*
X7133858Y2632282D2*
X7052756D1*
X7133858Y2376377D2*
Y2632282D1*
X7946063Y1193699D2*
X6541339D1*
Y493699D1*
X7904331Y1133660D2*
X7943701Y1094290D1*
X6543701Y1133660D2*
X7904331D1*
X7943701Y1094290D2*
Y553739D1*
X6543701D1*
Y1133660D1*
X7946063Y493699D2*
Y1193699D1*
X6541339Y493699D2*
X7946063D1*
X7520472Y1866534D2*
X7296063D1*
X7520472D2*
X7559843Y1827164D1*
X7296063Y1866534D2*
Y1720865D1*
X7559843Y1827164D2*
Y1720865D1*
X7296063D1*
X1742913Y992912D2*
Y894487D1*
X2344488D1*
X1843701Y992912D2*
Y894487D1*
X2344488Y992912D2*
X1742913D1*
X2344488Y894487D2*
Y992912D1*
X10133858Y3183071D2*
Y3104331D1*
X10251969D1*
Y3183071D2*
X10133858D1*
X10251969Y3104331D2*
Y3183071D1*
X4475197Y2553542D2*
X4412205D1*
Y2035432D1*
X4475197D2*
Y2553542D1*
X4412205Y2035432D2*
X4475197D1*
X2962008Y1643699D2*
X3025000D1*
Y2693699D1*
X2962008D2*
Y1643699D1*
X3025000Y2693699D2*
X2962008D1*
X9068701Y2643699D2*
X9043701Y2668699D1*
X9243701Y2643699D2*
X9068701D1*
X9043701Y2668699D2*
Y2743699D1*
X9243701D1*
Y2643699D1*
M02*
