%TF.GenerationSoftware,KiCad,Pcbnew,7.0.6*%
%TF.CreationDate,2023-07-28T20:51:14+03:00*%
%TF.ProjectId,main,6d61696e-2e6b-4696-9361-645f70636258,rev?*%
%TF.SameCoordinates,Original*%
%TF.FileFunction,AssemblyDrawing,Top*%
%FSLAX46Y46*%
G04 Gerber Fmt 4.6, Leading zero omitted, Abs format (unit mm)*
G04 Created by KiCad (PCBNEW 7.0.6) date 2023-07-28 20:51:14*
%MOMM*%
%LPD*%
G01*
G04 APERTURE LIST*
%ADD10C,0.100000*%
%ADD11C,0.150000*%
G04 APERTURE END LIST*
D10*
%TO.C,R12*%
X177400000Y124460000D02*
X177400000Y126470000D01*
X176600000Y126470000D02*
X178200000Y126470000D01*
X178200000Y126470000D02*
X178200000Y130070000D01*
X176600000Y130070000D02*
X176600000Y126470000D01*
X178200000Y130070000D02*
X176600000Y130070000D01*
X177400000Y132080000D02*
X177400000Y130070000D01*
D11*
%TO.C,SW17*%
X75050000Y48130000D02*
X90050000Y48130000D01*
X75050000Y33130000D02*
X75050000Y48130000D01*
X90050000Y48130000D02*
X90050000Y33130000D01*
X90050000Y33130000D02*
X75050000Y33130000D01*
D10*
X73800000Y48880000D02*
X74900000Y48880000D01*
X75300000Y48880000D02*
X76400000Y48880000D01*
X76800000Y48880000D02*
X77900000Y48880000D01*
X78300000Y48880000D02*
X79400000Y48880000D01*
X79800000Y48880000D02*
X80900000Y48880000D01*
X81300000Y48880000D02*
X82400000Y48880000D01*
X82800000Y48880000D02*
X83900000Y48880000D01*
X84300000Y48880000D02*
X85400000Y48880000D01*
X85800000Y48880000D02*
X86900000Y48880000D01*
X87300000Y48880000D02*
X88400000Y48880000D01*
X88800000Y48880000D02*
X89900000Y48880000D01*
X90300000Y48880000D02*
X91300000Y48880000D01*
X91300000Y48880000D02*
X91300000Y47780000D01*
X91300000Y47380000D02*
X91300000Y46280000D01*
X91300000Y45880000D02*
X91300000Y44780000D01*
X91300000Y44380000D02*
X91300000Y43280000D01*
X91300000Y42880000D02*
X91300000Y41780000D01*
X91300000Y41380000D02*
X91300000Y40280000D01*
X91300000Y39880000D02*
X91300000Y38780000D01*
X91300000Y38380000D02*
X91300000Y37280000D01*
X91300000Y36880000D02*
X91300000Y35780000D01*
X91300000Y35380000D02*
X91300000Y34280000D01*
X91300000Y33880000D02*
X91300000Y32780000D01*
X91300000Y32380000D02*
X91300000Y32380000D01*
X91300000Y32380000D02*
X90200000Y32380000D01*
X89800000Y32380000D02*
X88700000Y32380000D01*
X88300000Y32380000D02*
X87200000Y32380000D01*
X86800000Y32380000D02*
X85700000Y32380000D01*
X85300000Y32380000D02*
X84200000Y32380000D01*
X83800000Y32380000D02*
X82700000Y32380000D01*
X82300000Y32380000D02*
X81200000Y32380000D01*
X80800000Y32380000D02*
X79700000Y32380000D01*
X79300000Y32380000D02*
X78200000Y32380000D01*
X77800000Y32380000D02*
X76700000Y32380000D01*
X76300000Y32380000D02*
X75200000Y32380000D01*
X74800000Y32380000D02*
X73800000Y32380000D01*
X73800000Y32380000D02*
X73800000Y33480000D01*
X73800000Y33880000D02*
X73800000Y34980000D01*
X73800000Y35380000D02*
X73800000Y36480000D01*
X73800000Y36880000D02*
X73800000Y37980000D01*
X73800000Y38380000D02*
X73800000Y39480000D01*
X73800000Y39880000D02*
X73800000Y40980000D01*
X73800000Y41380000D02*
X73800000Y42480000D01*
X73800000Y42880000D02*
X73800000Y43980000D01*
X73800000Y44380000D02*
X73800000Y45480000D01*
X73800000Y45880000D02*
X73800000Y46980000D01*
X73800000Y47380000D02*
X73800000Y48480000D01*
X73800000Y48880000D02*
X73800000Y48880000D01*
%TO.C,X2*%
X208280000Y110550000D02*
X208280000Y92650000D01*
X208280000Y92650000D02*
X218440000Y92650000D01*
X210185000Y109490000D02*
X211185000Y110490000D01*
X210185000Y92710000D02*
X210185000Y109490000D01*
X211185000Y110490000D02*
X216535000Y110490000D01*
X216535000Y110490000D02*
X216535000Y92710000D01*
X216535000Y92710000D02*
X210185000Y92710000D01*
X218440000Y110550000D02*
X208280000Y110550000D01*
X218440000Y92650000D02*
X218440000Y110550000D01*
%TO.C,RAM1*%
X85090000Y115510000D02*
X85090000Y156270000D01*
X85090000Y156270000D02*
X67310000Y156270000D01*
X83565000Y116570000D02*
X82565000Y115570000D01*
X83565000Y156210000D02*
X83565000Y116570000D01*
X82565000Y115570000D02*
X68835000Y115570000D01*
X68835000Y115570000D02*
X68835000Y156210000D01*
X68835000Y156210000D02*
X83565000Y156210000D01*
X67310000Y115510000D02*
X85090000Y115510000D01*
X67310000Y156270000D02*
X67310000Y115510000D01*
%TO.C,R11*%
X174860000Y132080000D02*
X174860000Y130070000D01*
X175660000Y130070000D02*
X174060000Y130070000D01*
X174060000Y130070000D02*
X174060000Y126470000D01*
X175660000Y126470000D02*
X175660000Y130070000D01*
X174060000Y126470000D02*
X175660000Y126470000D01*
X174860000Y124460000D02*
X174860000Y126470000D01*
D11*
%TO.C,SW42*%
X203320000Y29080000D02*
X218320000Y29080000D01*
X203320000Y14080000D02*
X203320000Y29080000D01*
X218320000Y29080000D02*
X218320000Y14080000D01*
X218320000Y14080000D02*
X203320000Y14080000D01*
D10*
X202070000Y29830000D02*
X203170000Y29830000D01*
X203570000Y29830000D02*
X204670000Y29830000D01*
X205070000Y29830000D02*
X206170000Y29830000D01*
X206570000Y29830000D02*
X207670000Y29830000D01*
X208070000Y29830000D02*
X209170000Y29830000D01*
X209570000Y29830000D02*
X210670000Y29830000D01*
X211070000Y29830000D02*
X212170000Y29830000D01*
X212570000Y29830000D02*
X213670000Y29830000D01*
X214070000Y29830000D02*
X215170000Y29830000D01*
X215570000Y29830000D02*
X216670000Y29830000D01*
X217070000Y29830000D02*
X218170000Y29830000D01*
X218570000Y29830000D02*
X219570000Y29830000D01*
X219570000Y29830000D02*
X219570000Y28730000D01*
X219570000Y28330000D02*
X219570000Y27230000D01*
X219570000Y26830000D02*
X219570000Y25730000D01*
X219570000Y25330000D02*
X219570000Y24230000D01*
X219570000Y23830000D02*
X219570000Y22730000D01*
X219570000Y22330000D02*
X219570000Y21230000D01*
X219570000Y20830000D02*
X219570000Y19730000D01*
X219570000Y19330000D02*
X219570000Y18230000D01*
X219570000Y17830000D02*
X219570000Y16730000D01*
X219570000Y16330000D02*
X219570000Y15230000D01*
X219570000Y14830000D02*
X219570000Y13730000D01*
X219570000Y13330000D02*
X219570000Y13330000D01*
X219570000Y13330000D02*
X218470000Y13330000D01*
X218070000Y13330000D02*
X216970000Y13330000D01*
X216570000Y13330000D02*
X215470000Y13330000D01*
X215070000Y13330000D02*
X213970000Y13330000D01*
X213570000Y13330000D02*
X212470000Y13330000D01*
X212070000Y13330000D02*
X210970000Y13330000D01*
X210570000Y13330000D02*
X209470000Y13330000D01*
X209070000Y13330000D02*
X207970000Y13330000D01*
X207570000Y13330000D02*
X206470000Y13330000D01*
X206070000Y13330000D02*
X204970000Y13330000D01*
X204570000Y13330000D02*
X203470000Y13330000D01*
X203070000Y13330000D02*
X202070000Y13330000D01*
X202070000Y13330000D02*
X202070000Y14430000D01*
X202070000Y14830000D02*
X202070000Y15930000D01*
X202070000Y16330000D02*
X202070000Y17430000D01*
X202070000Y17830000D02*
X202070000Y18930000D01*
X202070000Y19330000D02*
X202070000Y20430000D01*
X202070000Y20830000D02*
X202070000Y21930000D01*
X202070000Y22330000D02*
X202070000Y23430000D01*
X202070000Y23830000D02*
X202070000Y24930000D01*
X202070000Y25330000D02*
X202070000Y26430000D01*
X202070000Y26830000D02*
X202070000Y27930000D01*
X202070000Y28330000D02*
X202070000Y29430000D01*
X202070000Y29830000D02*
X202070000Y29830000D01*
%TO.C,U10*%
X166170000Y121020000D02*
X191170000Y121020000D01*
X191170000Y121020000D02*
X191170000Y135520000D01*
X191170000Y135520000D02*
X166170000Y135520000D01*
X166170000Y135520000D02*
X166170000Y121020000D01*
%TO.C,U9*%
X109230000Y151185000D02*
X109230000Y125665000D01*
X109230000Y125665000D02*
X119390000Y125665000D01*
X111135000Y150125000D02*
X112135000Y151125000D01*
X111135000Y125725000D02*
X111135000Y150125000D01*
X112135000Y151125000D02*
X117485000Y151125000D01*
X117485000Y151125000D02*
X117485000Y125725000D01*
X117485000Y125725000D02*
X111135000Y125725000D01*
X119390000Y151185000D02*
X109230000Y151185000D01*
X119390000Y125665000D02*
X119390000Y151185000D01*
%TO.C,VIA1*%
X198115000Y167695000D02*
X198115000Y116775000D01*
X198115000Y116775000D02*
X215895000Y116775000D01*
X199640000Y166635000D02*
X200640000Y167635000D01*
X199640000Y116835000D02*
X199640000Y166635000D01*
X200640000Y167635000D02*
X214370000Y167635000D01*
X214370000Y167635000D02*
X214370000Y116835000D01*
X214370000Y116835000D02*
X199640000Y116835000D01*
X215895000Y167695000D02*
X198115000Y167695000D01*
X215895000Y116775000D02*
X215895000Y167695000D01*
D11*
%TO.C,SW16*%
X75050000Y67180000D02*
X90050000Y67180000D01*
X75050000Y52180000D02*
X75050000Y67180000D01*
X90050000Y67180000D02*
X90050000Y52180000D01*
X90050000Y52180000D02*
X75050000Y52180000D01*
D10*
X73800000Y67930000D02*
X74900000Y67930000D01*
X75300000Y67930000D02*
X76400000Y67930000D01*
X76800000Y67930000D02*
X77900000Y67930000D01*
X78300000Y67930000D02*
X79400000Y67930000D01*
X79800000Y67930000D02*
X80900000Y67930000D01*
X81300000Y67930000D02*
X82400000Y67930000D01*
X82800000Y67930000D02*
X83900000Y67930000D01*
X84300000Y67930000D02*
X85400000Y67930000D01*
X85800000Y67930000D02*
X86900000Y67930000D01*
X87300000Y67930000D02*
X88400000Y67930000D01*
X88800000Y67930000D02*
X89900000Y67930000D01*
X90300000Y67930000D02*
X91300000Y67930000D01*
X91300000Y67930000D02*
X91300000Y66830000D01*
X91300000Y66430000D02*
X91300000Y65330000D01*
X91300000Y64930000D02*
X91300000Y63830000D01*
X91300000Y63430000D02*
X91300000Y62330000D01*
X91300000Y61930000D02*
X91300000Y60830000D01*
X91300000Y60430000D02*
X91300000Y59330000D01*
X91300000Y58930000D02*
X91300000Y57830000D01*
X91300000Y57430000D02*
X91300000Y56330000D01*
X91300000Y55930000D02*
X91300000Y54830000D01*
X91300000Y54430000D02*
X91300000Y53330000D01*
X91300000Y52930000D02*
X91300000Y51830000D01*
X91300000Y51430000D02*
X91300000Y51430000D01*
X91300000Y51430000D02*
X90200000Y51430000D01*
X89800000Y51430000D02*
X88700000Y51430000D01*
X88300000Y51430000D02*
X87200000Y51430000D01*
X86800000Y51430000D02*
X85700000Y51430000D01*
X85300000Y51430000D02*
X84200000Y51430000D01*
X83800000Y51430000D02*
X82700000Y51430000D01*
X82300000Y51430000D02*
X81200000Y51430000D01*
X80800000Y51430000D02*
X79700000Y51430000D01*
X79300000Y51430000D02*
X78200000Y51430000D01*
X77800000Y51430000D02*
X76700000Y51430000D01*
X76300000Y51430000D02*
X75200000Y51430000D01*
X74800000Y51430000D02*
X73800000Y51430000D01*
X73800000Y51430000D02*
X73800000Y52530000D01*
X73800000Y52930000D02*
X73800000Y54030000D01*
X73800000Y54430000D02*
X73800000Y55530000D01*
X73800000Y55930000D02*
X73800000Y57030000D01*
X73800000Y57430000D02*
X73800000Y58530000D01*
X73800000Y58930000D02*
X73800000Y60030000D01*
X73800000Y60430000D02*
X73800000Y61530000D01*
X73800000Y61930000D02*
X73800000Y63030000D01*
X73800000Y63430000D02*
X73800000Y64530000D01*
X73800000Y64930000D02*
X73800000Y66030000D01*
X73800000Y66430000D02*
X73800000Y67530000D01*
X73800000Y67930000D02*
X73800000Y67930000D01*
%TO.C,Y2*%
X134025000Y23905000D02*
X140275000Y23905000D01*
X134025000Y19255000D02*
X140275000Y19255000D01*
X134150000Y23580000D02*
X140150000Y23580000D01*
X134150000Y19580000D02*
X140150000Y19580000D01*
X134025000Y23905000D02*
G75*
G03*
X134025000Y19255000I0J-2325000D01*
G01*
X134150000Y23580000D02*
G75*
G03*
X134150000Y19580000I0J-2000000D01*
G01*
X140150000Y19580000D02*
G75*
G03*
X140150000Y23580000I0J2000000D01*
G01*
X140275000Y19255000D02*
G75*
G03*
X140275000Y23905000I0J2325000D01*
G01*
%TO.C,C17*%
X248056759Y145572500D02*
X247256759Y145572500D01*
X247656759Y145172500D02*
X247656759Y145972500D01*
X248630000Y147320000D02*
G75*
G03*
X248630000Y147320000I-4000000J0D01*
G01*
D11*
%TO.C,SW20*%
X94100000Y67180000D02*
X109100000Y67180000D01*
X94100000Y52180000D02*
X94100000Y67180000D01*
X109100000Y67180000D02*
X109100000Y52180000D01*
X109100000Y52180000D02*
X94100000Y52180000D01*
D10*
X92850000Y67930000D02*
X93950000Y67930000D01*
X94350000Y67930000D02*
X95450000Y67930000D01*
X95850000Y67930000D02*
X96950000Y67930000D01*
X97350000Y67930000D02*
X98450000Y67930000D01*
X98850000Y67930000D02*
X99950000Y67930000D01*
X100350000Y67930000D02*
X101450000Y67930000D01*
X101850000Y67930000D02*
X102950000Y67930000D01*
X103350000Y67930000D02*
X104450000Y67930000D01*
X104850000Y67930000D02*
X105950000Y67930000D01*
X106350000Y67930000D02*
X107450000Y67930000D01*
X107850000Y67930000D02*
X108950000Y67930000D01*
X109350000Y67930000D02*
X110350000Y67930000D01*
X110350000Y67930000D02*
X110350000Y66830000D01*
X110350000Y66430000D02*
X110350000Y65330000D01*
X110350000Y64930000D02*
X110350000Y63830000D01*
X110350000Y63430000D02*
X110350000Y62330000D01*
X110350000Y61930000D02*
X110350000Y60830000D01*
X110350000Y60430000D02*
X110350000Y59330000D01*
X110350000Y58930000D02*
X110350000Y57830000D01*
X110350000Y57430000D02*
X110350000Y56330000D01*
X110350000Y55930000D02*
X110350000Y54830000D01*
X110350000Y54430000D02*
X110350000Y53330000D01*
X110350000Y52930000D02*
X110350000Y51830000D01*
X110350000Y51430000D02*
X110350000Y51430000D01*
X110350000Y51430000D02*
X109250000Y51430000D01*
X108850000Y51430000D02*
X107750000Y51430000D01*
X107350000Y51430000D02*
X106250000Y51430000D01*
X105850000Y51430000D02*
X104750000Y51430000D01*
X104350000Y51430000D02*
X103250000Y51430000D01*
X102850000Y51430000D02*
X101750000Y51430000D01*
X101350000Y51430000D02*
X100250000Y51430000D01*
X99850000Y51430000D02*
X98750000Y51430000D01*
X98350000Y51430000D02*
X97250000Y51430000D01*
X96850000Y51430000D02*
X95750000Y51430000D01*
X95350000Y51430000D02*
X94250000Y51430000D01*
X93850000Y51430000D02*
X92850000Y51430000D01*
X92850000Y51430000D02*
X92850000Y52530000D01*
X92850000Y52930000D02*
X92850000Y54030000D01*
X92850000Y54430000D02*
X92850000Y55530000D01*
X92850000Y55930000D02*
X92850000Y57030000D01*
X92850000Y57430000D02*
X92850000Y58530000D01*
X92850000Y58930000D02*
X92850000Y60030000D01*
X92850000Y60430000D02*
X92850000Y61530000D01*
X92850000Y61930000D02*
X92850000Y63030000D01*
X92850000Y63430000D02*
X92850000Y64530000D01*
X92850000Y64930000D02*
X92850000Y66030000D01*
X92850000Y66430000D02*
X92850000Y67530000D01*
X92850000Y67930000D02*
X92850000Y67930000D01*
D11*
%TO.C,SW35*%
X184270000Y86230000D02*
X199270000Y86230000D01*
X184270000Y71230000D02*
X184270000Y86230000D01*
X199270000Y86230000D02*
X199270000Y71230000D01*
X199270000Y71230000D02*
X184270000Y71230000D01*
D10*
X183020000Y86980000D02*
X184120000Y86980000D01*
X184520000Y86980000D02*
X185620000Y86980000D01*
X186020000Y86980000D02*
X187120000Y86980000D01*
X187520000Y86980000D02*
X188620000Y86980000D01*
X189020000Y86980000D02*
X190120000Y86980000D01*
X190520000Y86980000D02*
X191620000Y86980000D01*
X192020000Y86980000D02*
X193120000Y86980000D01*
X193520000Y86980000D02*
X194620000Y86980000D01*
X195020000Y86980000D02*
X196120000Y86980000D01*
X196520000Y86980000D02*
X197620000Y86980000D01*
X198020000Y86980000D02*
X199120000Y86980000D01*
X199520000Y86980000D02*
X200520000Y86980000D01*
X200520000Y86980000D02*
X200520000Y85880000D01*
X200520000Y85480000D02*
X200520000Y84380000D01*
X200520000Y83980000D02*
X200520000Y82880000D01*
X200520000Y82480000D02*
X200520000Y81380000D01*
X200520000Y80980000D02*
X200520000Y79880000D01*
X200520000Y79480000D02*
X200520000Y78380000D01*
X200520000Y77980000D02*
X200520000Y76880000D01*
X200520000Y76480000D02*
X200520000Y75380000D01*
X200520000Y74980000D02*
X200520000Y73880000D01*
X200520000Y73480000D02*
X200520000Y72380000D01*
X200520000Y71980000D02*
X200520000Y70880000D01*
X200520000Y70480000D02*
X200520000Y70480000D01*
X200520000Y70480000D02*
X199420000Y70480000D01*
X199020000Y70480000D02*
X197920000Y70480000D01*
X197520000Y70480000D02*
X196420000Y70480000D01*
X196020000Y70480000D02*
X194920000Y70480000D01*
X194520000Y70480000D02*
X193420000Y70480000D01*
X193020000Y70480000D02*
X191920000Y70480000D01*
X191520000Y70480000D02*
X190420000Y70480000D01*
X190020000Y70480000D02*
X188920000Y70480000D01*
X188520000Y70480000D02*
X187420000Y70480000D01*
X187020000Y70480000D02*
X185920000Y70480000D01*
X185520000Y70480000D02*
X184420000Y70480000D01*
X184020000Y70480000D02*
X183020000Y70480000D01*
X183020000Y70480000D02*
X183020000Y71580000D01*
X183020000Y71980000D02*
X183020000Y73080000D01*
X183020000Y73480000D02*
X183020000Y74580000D01*
X183020000Y74980000D02*
X183020000Y76080000D01*
X183020000Y76480000D02*
X183020000Y77580000D01*
X183020000Y77980000D02*
X183020000Y79080000D01*
X183020000Y79480000D02*
X183020000Y80580000D01*
X183020000Y80980000D02*
X183020000Y82080000D01*
X183020000Y82480000D02*
X183020000Y83580000D01*
X183020000Y83980000D02*
X183020000Y85080000D01*
X183020000Y85480000D02*
X183020000Y86580000D01*
X183020000Y86980000D02*
X183020000Y86980000D01*
D11*
%TO.C,SW45*%
X222370000Y48130000D02*
X237370000Y48130000D01*
X222370000Y33130000D02*
X222370000Y48130000D01*
X237370000Y48130000D02*
X237370000Y33130000D01*
X237370000Y33130000D02*
X222370000Y33130000D01*
D10*
X221120000Y48880000D02*
X222220000Y48880000D01*
X222620000Y48880000D02*
X223720000Y48880000D01*
X224120000Y48880000D02*
X225220000Y48880000D01*
X225620000Y48880000D02*
X226720000Y48880000D01*
X227120000Y48880000D02*
X228220000Y48880000D01*
X228620000Y48880000D02*
X229720000Y48880000D01*
X230120000Y48880000D02*
X231220000Y48880000D01*
X231620000Y48880000D02*
X232720000Y48880000D01*
X233120000Y48880000D02*
X234220000Y48880000D01*
X234620000Y48880000D02*
X235720000Y48880000D01*
X236120000Y48880000D02*
X237220000Y48880000D01*
X237620000Y48880000D02*
X238620000Y48880000D01*
X238620000Y48880000D02*
X238620000Y47780000D01*
X238620000Y47380000D02*
X238620000Y46280000D01*
X238620000Y45880000D02*
X238620000Y44780000D01*
X238620000Y44380000D02*
X238620000Y43280000D01*
X238620000Y42880000D02*
X238620000Y41780000D01*
X238620000Y41380000D02*
X238620000Y40280000D01*
X238620000Y39880000D02*
X238620000Y38780000D01*
X238620000Y38380000D02*
X238620000Y37280000D01*
X238620000Y36880000D02*
X238620000Y35780000D01*
X238620000Y35380000D02*
X238620000Y34280000D01*
X238620000Y33880000D02*
X238620000Y32780000D01*
X238620000Y32380000D02*
X238620000Y32380000D01*
X238620000Y32380000D02*
X237520000Y32380000D01*
X237120000Y32380000D02*
X236020000Y32380000D01*
X235620000Y32380000D02*
X234520000Y32380000D01*
X234120000Y32380000D02*
X233020000Y32380000D01*
X232620000Y32380000D02*
X231520000Y32380000D01*
X231120000Y32380000D02*
X230020000Y32380000D01*
X229620000Y32380000D02*
X228520000Y32380000D01*
X228120000Y32380000D02*
X227020000Y32380000D01*
X226620000Y32380000D02*
X225520000Y32380000D01*
X225120000Y32380000D02*
X224020000Y32380000D01*
X223620000Y32380000D02*
X222520000Y32380000D01*
X222120000Y32380000D02*
X221120000Y32380000D01*
X221120000Y32380000D02*
X221120000Y33480000D01*
X221120000Y33880000D02*
X221120000Y34980000D01*
X221120000Y35380000D02*
X221120000Y36480000D01*
X221120000Y36880000D02*
X221120000Y37980000D01*
X221120000Y38380000D02*
X221120000Y39480000D01*
X221120000Y39880000D02*
X221120000Y40980000D01*
X221120000Y41380000D02*
X221120000Y42480000D01*
X221120000Y42880000D02*
X221120000Y43980000D01*
X221120000Y44380000D02*
X221120000Y45480000D01*
X221120000Y45880000D02*
X221120000Y46980000D01*
X221120000Y47380000D02*
X221120000Y48480000D01*
X221120000Y48880000D02*
X221120000Y48880000D01*
%TO.C,C18*%
X101193241Y165577500D02*
X101993241Y165577500D01*
X101593241Y165977500D02*
X101593241Y165177500D01*
X108620000Y163830000D02*
G75*
G03*
X108620000Y163830000I-4000000J0D01*
G01*
D11*
%TO.C,SW37*%
X184270000Y48130000D02*
X199270000Y48130000D01*
X184270000Y33130000D02*
X184270000Y48130000D01*
X199270000Y48130000D02*
X199270000Y33130000D01*
X199270000Y33130000D02*
X184270000Y33130000D01*
D10*
X183020000Y48880000D02*
X184120000Y48880000D01*
X184520000Y48880000D02*
X185620000Y48880000D01*
X186020000Y48880000D02*
X187120000Y48880000D01*
X187520000Y48880000D02*
X188620000Y48880000D01*
X189020000Y48880000D02*
X190120000Y48880000D01*
X190520000Y48880000D02*
X191620000Y48880000D01*
X192020000Y48880000D02*
X193120000Y48880000D01*
X193520000Y48880000D02*
X194620000Y48880000D01*
X195020000Y48880000D02*
X196120000Y48880000D01*
X196520000Y48880000D02*
X197620000Y48880000D01*
X198020000Y48880000D02*
X199120000Y48880000D01*
X199520000Y48880000D02*
X200520000Y48880000D01*
X200520000Y48880000D02*
X200520000Y47780000D01*
X200520000Y47380000D02*
X200520000Y46280000D01*
X200520000Y45880000D02*
X200520000Y44780000D01*
X200520000Y44380000D02*
X200520000Y43280000D01*
X200520000Y42880000D02*
X200520000Y41780000D01*
X200520000Y41380000D02*
X200520000Y40280000D01*
X200520000Y39880000D02*
X200520000Y38780000D01*
X200520000Y38380000D02*
X200520000Y37280000D01*
X200520000Y36880000D02*
X200520000Y35780000D01*
X200520000Y35380000D02*
X200520000Y34280000D01*
X200520000Y33880000D02*
X200520000Y32780000D01*
X200520000Y32380000D02*
X200520000Y32380000D01*
X200520000Y32380000D02*
X199420000Y32380000D01*
X199020000Y32380000D02*
X197920000Y32380000D01*
X197520000Y32380000D02*
X196420000Y32380000D01*
X196020000Y32380000D02*
X194920000Y32380000D01*
X194520000Y32380000D02*
X193420000Y32380000D01*
X193020000Y32380000D02*
X191920000Y32380000D01*
X191520000Y32380000D02*
X190420000Y32380000D01*
X190020000Y32380000D02*
X188920000Y32380000D01*
X188520000Y32380000D02*
X187420000Y32380000D01*
X187020000Y32380000D02*
X185920000Y32380000D01*
X185520000Y32380000D02*
X184420000Y32380000D01*
X184020000Y32380000D02*
X183020000Y32380000D01*
X183020000Y32380000D02*
X183020000Y33480000D01*
X183020000Y33880000D02*
X183020000Y34980000D01*
X183020000Y35380000D02*
X183020000Y36480000D01*
X183020000Y36880000D02*
X183020000Y37980000D01*
X183020000Y38380000D02*
X183020000Y39480000D01*
X183020000Y39880000D02*
X183020000Y40980000D01*
X183020000Y41380000D02*
X183020000Y42480000D01*
X183020000Y42880000D02*
X183020000Y43980000D01*
X183020000Y44380000D02*
X183020000Y45480000D01*
X183020000Y45880000D02*
X183020000Y46980000D01*
X183020000Y47380000D02*
X183020000Y48480000D01*
X183020000Y48880000D02*
X183020000Y48880000D01*
D11*
%TO.C,SW25*%
X113150000Y48130000D02*
X128150000Y48130000D01*
X113150000Y33130000D02*
X113150000Y48130000D01*
X128150000Y48130000D02*
X128150000Y33130000D01*
X128150000Y33130000D02*
X113150000Y33130000D01*
D10*
X111900000Y48880000D02*
X113000000Y48880000D01*
X113400000Y48880000D02*
X114500000Y48880000D01*
X114900000Y48880000D02*
X116000000Y48880000D01*
X116400000Y48880000D02*
X117500000Y48880000D01*
X117900000Y48880000D02*
X119000000Y48880000D01*
X119400000Y48880000D02*
X120500000Y48880000D01*
X120900000Y48880000D02*
X122000000Y48880000D01*
X122400000Y48880000D02*
X123500000Y48880000D01*
X123900000Y48880000D02*
X125000000Y48880000D01*
X125400000Y48880000D02*
X126500000Y48880000D01*
X126900000Y48880000D02*
X128000000Y48880000D01*
X128400000Y48880000D02*
X129400000Y48880000D01*
X129400000Y48880000D02*
X129400000Y47780000D01*
X129400000Y47380000D02*
X129400000Y46280000D01*
X129400000Y45880000D02*
X129400000Y44780000D01*
X129400000Y44380000D02*
X129400000Y43280000D01*
X129400000Y42880000D02*
X129400000Y41780000D01*
X129400000Y41380000D02*
X129400000Y40280000D01*
X129400000Y39880000D02*
X129400000Y38780000D01*
X129400000Y38380000D02*
X129400000Y37280000D01*
X129400000Y36880000D02*
X129400000Y35780000D01*
X129400000Y35380000D02*
X129400000Y34280000D01*
X129400000Y33880000D02*
X129400000Y32780000D01*
X129400000Y32380000D02*
X129400000Y32380000D01*
X129400000Y32380000D02*
X128300000Y32380000D01*
X127900000Y32380000D02*
X126800000Y32380000D01*
X126400000Y32380000D02*
X125300000Y32380000D01*
X124900000Y32380000D02*
X123800000Y32380000D01*
X123400000Y32380000D02*
X122300000Y32380000D01*
X121900000Y32380000D02*
X120800000Y32380000D01*
X120400000Y32380000D02*
X119300000Y32380000D01*
X118900000Y32380000D02*
X117800000Y32380000D01*
X117400000Y32380000D02*
X116300000Y32380000D01*
X115900000Y32380000D02*
X114800000Y32380000D01*
X114400000Y32380000D02*
X113300000Y32380000D01*
X112900000Y32380000D02*
X111900000Y32380000D01*
X111900000Y32380000D02*
X111900000Y33480000D01*
X111900000Y33880000D02*
X111900000Y34980000D01*
X111900000Y35380000D02*
X111900000Y36480000D01*
X111900000Y36880000D02*
X111900000Y37980000D01*
X111900000Y38380000D02*
X111900000Y39480000D01*
X111900000Y39880000D02*
X111900000Y40980000D01*
X111900000Y41380000D02*
X111900000Y42480000D01*
X111900000Y42880000D02*
X111900000Y43980000D01*
X111900000Y44380000D02*
X111900000Y45480000D01*
X111900000Y45880000D02*
X111900000Y46980000D01*
X111900000Y47380000D02*
X111900000Y48480000D01*
X111900000Y48880000D02*
X111900000Y48880000D01*
D11*
%TO.C,SW15*%
X75050000Y86230000D02*
X90050000Y86230000D01*
X75050000Y71230000D02*
X75050000Y86230000D01*
X90050000Y86230000D02*
X90050000Y71230000D01*
X90050000Y71230000D02*
X75050000Y71230000D01*
D10*
X73800000Y86980000D02*
X74900000Y86980000D01*
X75300000Y86980000D02*
X76400000Y86980000D01*
X76800000Y86980000D02*
X77900000Y86980000D01*
X78300000Y86980000D02*
X79400000Y86980000D01*
X79800000Y86980000D02*
X80900000Y86980000D01*
X81300000Y86980000D02*
X82400000Y86980000D01*
X82800000Y86980000D02*
X83900000Y86980000D01*
X84300000Y86980000D02*
X85400000Y86980000D01*
X85800000Y86980000D02*
X86900000Y86980000D01*
X87300000Y86980000D02*
X88400000Y86980000D01*
X88800000Y86980000D02*
X89900000Y86980000D01*
X90300000Y86980000D02*
X91300000Y86980000D01*
X91300000Y86980000D02*
X91300000Y85880000D01*
X91300000Y85480000D02*
X91300000Y84380000D01*
X91300000Y83980000D02*
X91300000Y82880000D01*
X91300000Y82480000D02*
X91300000Y81380000D01*
X91300000Y80980000D02*
X91300000Y79880000D01*
X91300000Y79480000D02*
X91300000Y78380000D01*
X91300000Y77980000D02*
X91300000Y76880000D01*
X91300000Y76480000D02*
X91300000Y75380000D01*
X91300000Y74980000D02*
X91300000Y73880000D01*
X91300000Y73480000D02*
X91300000Y72380000D01*
X91300000Y71980000D02*
X91300000Y70880000D01*
X91300000Y70480000D02*
X91300000Y70480000D01*
X91300000Y70480000D02*
X90200000Y70480000D01*
X89800000Y70480000D02*
X88700000Y70480000D01*
X88300000Y70480000D02*
X87200000Y70480000D01*
X86800000Y70480000D02*
X85700000Y70480000D01*
X85300000Y70480000D02*
X84200000Y70480000D01*
X83800000Y70480000D02*
X82700000Y70480000D01*
X82300000Y70480000D02*
X81200000Y70480000D01*
X80800000Y70480000D02*
X79700000Y70480000D01*
X79300000Y70480000D02*
X78200000Y70480000D01*
X77800000Y70480000D02*
X76700000Y70480000D01*
X76300000Y70480000D02*
X75200000Y70480000D01*
X74800000Y70480000D02*
X73800000Y70480000D01*
X73800000Y70480000D02*
X73800000Y71580000D01*
X73800000Y71980000D02*
X73800000Y73080000D01*
X73800000Y73480000D02*
X73800000Y74580000D01*
X73800000Y74980000D02*
X73800000Y76080000D01*
X73800000Y76480000D02*
X73800000Y77580000D01*
X73800000Y77980000D02*
X73800000Y79080000D01*
X73800000Y79480000D02*
X73800000Y80580000D01*
X73800000Y80980000D02*
X73800000Y82080000D01*
X73800000Y82480000D02*
X73800000Y83580000D01*
X73800000Y83980000D02*
X73800000Y85080000D01*
X73800000Y85480000D02*
X73800000Y86580000D01*
X73800000Y86980000D02*
X73800000Y86980000D01*
D11*
%TO.C,SW36*%
X184270000Y67180000D02*
X199270000Y67180000D01*
X184270000Y52180000D02*
X184270000Y67180000D01*
X199270000Y67180000D02*
X199270000Y52180000D01*
X199270000Y52180000D02*
X184270000Y52180000D01*
D10*
X183020000Y67930000D02*
X184120000Y67930000D01*
X184520000Y67930000D02*
X185620000Y67930000D01*
X186020000Y67930000D02*
X187120000Y67930000D01*
X187520000Y67930000D02*
X188620000Y67930000D01*
X189020000Y67930000D02*
X190120000Y67930000D01*
X190520000Y67930000D02*
X191620000Y67930000D01*
X192020000Y67930000D02*
X193120000Y67930000D01*
X193520000Y67930000D02*
X194620000Y67930000D01*
X195020000Y67930000D02*
X196120000Y67930000D01*
X196520000Y67930000D02*
X197620000Y67930000D01*
X198020000Y67930000D02*
X199120000Y67930000D01*
X199520000Y67930000D02*
X200520000Y67930000D01*
X200520000Y67930000D02*
X200520000Y66830000D01*
X200520000Y66430000D02*
X200520000Y65330000D01*
X200520000Y64930000D02*
X200520000Y63830000D01*
X200520000Y63430000D02*
X200520000Y62330000D01*
X200520000Y61930000D02*
X200520000Y60830000D01*
X200520000Y60430000D02*
X200520000Y59330000D01*
X200520000Y58930000D02*
X200520000Y57830000D01*
X200520000Y57430000D02*
X200520000Y56330000D01*
X200520000Y55930000D02*
X200520000Y54830000D01*
X200520000Y54430000D02*
X200520000Y53330000D01*
X200520000Y52930000D02*
X200520000Y51830000D01*
X200520000Y51430000D02*
X200520000Y51430000D01*
X200520000Y51430000D02*
X199420000Y51430000D01*
X199020000Y51430000D02*
X197920000Y51430000D01*
X197520000Y51430000D02*
X196420000Y51430000D01*
X196020000Y51430000D02*
X194920000Y51430000D01*
X194520000Y51430000D02*
X193420000Y51430000D01*
X193020000Y51430000D02*
X191920000Y51430000D01*
X191520000Y51430000D02*
X190420000Y51430000D01*
X190020000Y51430000D02*
X188920000Y51430000D01*
X188520000Y51430000D02*
X187420000Y51430000D01*
X187020000Y51430000D02*
X185920000Y51430000D01*
X185520000Y51430000D02*
X184420000Y51430000D01*
X184020000Y51430000D02*
X183020000Y51430000D01*
X183020000Y51430000D02*
X183020000Y52530000D01*
X183020000Y52930000D02*
X183020000Y54030000D01*
X183020000Y54430000D02*
X183020000Y55530000D01*
X183020000Y55930000D02*
X183020000Y57030000D01*
X183020000Y57430000D02*
X183020000Y58530000D01*
X183020000Y58930000D02*
X183020000Y60030000D01*
X183020000Y60430000D02*
X183020000Y61530000D01*
X183020000Y61930000D02*
X183020000Y63030000D01*
X183020000Y63430000D02*
X183020000Y64530000D01*
X183020000Y64930000D02*
X183020000Y66030000D01*
X183020000Y66430000D02*
X183020000Y67530000D01*
X183020000Y67930000D02*
X183020000Y67930000D01*
D11*
%TO.C,SW48*%
X241420000Y67180000D02*
X256420000Y67180000D01*
X241420000Y52180000D02*
X241420000Y67180000D01*
X256420000Y67180000D02*
X256420000Y52180000D01*
X256420000Y52180000D02*
X241420000Y52180000D01*
D10*
X240170000Y67930000D02*
X241270000Y67930000D01*
X241670000Y67930000D02*
X242770000Y67930000D01*
X243170000Y67930000D02*
X244270000Y67930000D01*
X244670000Y67930000D02*
X245770000Y67930000D01*
X246170000Y67930000D02*
X247270000Y67930000D01*
X247670000Y67930000D02*
X248770000Y67930000D01*
X249170000Y67930000D02*
X250270000Y67930000D01*
X250670000Y67930000D02*
X251770000Y67930000D01*
X252170000Y67930000D02*
X253270000Y67930000D01*
X253670000Y67930000D02*
X254770000Y67930000D01*
X255170000Y67930000D02*
X256270000Y67930000D01*
X256670000Y67930000D02*
X257670000Y67930000D01*
X257670000Y67930000D02*
X257670000Y66830000D01*
X257670000Y66430000D02*
X257670000Y65330000D01*
X257670000Y64930000D02*
X257670000Y63830000D01*
X257670000Y63430000D02*
X257670000Y62330000D01*
X257670000Y61930000D02*
X257670000Y60830000D01*
X257670000Y60430000D02*
X257670000Y59330000D01*
X257670000Y58930000D02*
X257670000Y57830000D01*
X257670000Y57430000D02*
X257670000Y56330000D01*
X257670000Y55930000D02*
X257670000Y54830000D01*
X257670000Y54430000D02*
X257670000Y53330000D01*
X257670000Y52930000D02*
X257670000Y51830000D01*
X257670000Y51430000D02*
X257670000Y51430000D01*
X257670000Y51430000D02*
X256570000Y51430000D01*
X256170000Y51430000D02*
X255070000Y51430000D01*
X254670000Y51430000D02*
X253570000Y51430000D01*
X253170000Y51430000D02*
X252070000Y51430000D01*
X251670000Y51430000D02*
X250570000Y51430000D01*
X250170000Y51430000D02*
X249070000Y51430000D01*
X248670000Y51430000D02*
X247570000Y51430000D01*
X247170000Y51430000D02*
X246070000Y51430000D01*
X245670000Y51430000D02*
X244570000Y51430000D01*
X244170000Y51430000D02*
X243070000Y51430000D01*
X242670000Y51430000D02*
X241570000Y51430000D01*
X241170000Y51430000D02*
X240170000Y51430000D01*
X240170000Y51430000D02*
X240170000Y52530000D01*
X240170000Y52930000D02*
X240170000Y54030000D01*
X240170000Y54430000D02*
X240170000Y55530000D01*
X240170000Y55930000D02*
X240170000Y57030000D01*
X240170000Y57430000D02*
X240170000Y58530000D01*
X240170000Y58930000D02*
X240170000Y60030000D01*
X240170000Y60430000D02*
X240170000Y61530000D01*
X240170000Y61930000D02*
X240170000Y63030000D01*
X240170000Y63430000D02*
X240170000Y64530000D01*
X240170000Y64930000D02*
X240170000Y66030000D01*
X240170000Y66430000D02*
X240170000Y67530000D01*
X240170000Y67930000D02*
X240170000Y67930000D01*
%TO.C,RES1*%
X230640000Y153190000D02*
X234140000Y153190000D01*
X232410000Y157420000D02*
G75*
G03*
X230656375Y153186375I0J-2480000D01*
G01*
X234163625Y153186375D02*
G75*
G03*
X232410000Y157420000I-1753625J1753625D01*
G01*
%TO.C,C3*%
X184770000Y133080000D02*
X184770000Y131080000D01*
X184770000Y131080000D02*
X187770000Y131080000D01*
X187770000Y133080000D02*
X184770000Y133080000D01*
X187770000Y131080000D02*
X187770000Y133080000D01*
D11*
%TO.C,SW29*%
X146170000Y48130000D02*
X161170000Y48130000D01*
X146170000Y33130000D02*
X146170000Y48130000D01*
X161170000Y48130000D02*
X161170000Y33130000D01*
X161170000Y33130000D02*
X146170000Y33130000D01*
D10*
X144920000Y48880000D02*
X146020000Y48880000D01*
X146420000Y48880000D02*
X147520000Y48880000D01*
X147920000Y48880000D02*
X149020000Y48880000D01*
X149420000Y48880000D02*
X150520000Y48880000D01*
X150920000Y48880000D02*
X152020000Y48880000D01*
X152420000Y48880000D02*
X153520000Y48880000D01*
X153920000Y48880000D02*
X155020000Y48880000D01*
X155420000Y48880000D02*
X156520000Y48880000D01*
X156920000Y48880000D02*
X158020000Y48880000D01*
X158420000Y48880000D02*
X159520000Y48880000D01*
X159920000Y48880000D02*
X161020000Y48880000D01*
X161420000Y48880000D02*
X162420000Y48880000D01*
X162420000Y48880000D02*
X162420000Y47780000D01*
X162420000Y47380000D02*
X162420000Y46280000D01*
X162420000Y45880000D02*
X162420000Y44780000D01*
X162420000Y44380000D02*
X162420000Y43280000D01*
X162420000Y42880000D02*
X162420000Y41780000D01*
X162420000Y41380000D02*
X162420000Y40280000D01*
X162420000Y39880000D02*
X162420000Y38780000D01*
X162420000Y38380000D02*
X162420000Y37280000D01*
X162420000Y36880000D02*
X162420000Y35780000D01*
X162420000Y35380000D02*
X162420000Y34280000D01*
X162420000Y33880000D02*
X162420000Y32780000D01*
X162420000Y32380000D02*
X162420000Y32380000D01*
X162420000Y32380000D02*
X161320000Y32380000D01*
X160920000Y32380000D02*
X159820000Y32380000D01*
X159420000Y32380000D02*
X158320000Y32380000D01*
X157920000Y32380000D02*
X156820000Y32380000D01*
X156420000Y32380000D02*
X155320000Y32380000D01*
X154920000Y32380000D02*
X153820000Y32380000D01*
X153420000Y32380000D02*
X152320000Y32380000D01*
X151920000Y32380000D02*
X150820000Y32380000D01*
X150420000Y32380000D02*
X149320000Y32380000D01*
X148920000Y32380000D02*
X147820000Y32380000D01*
X147420000Y32380000D02*
X146320000Y32380000D01*
X145920000Y32380000D02*
X144920000Y32380000D01*
X144920000Y32380000D02*
X144920000Y33480000D01*
X144920000Y33880000D02*
X144920000Y34980000D01*
X144920000Y35380000D02*
X144920000Y36480000D01*
X144920000Y36880000D02*
X144920000Y37980000D01*
X144920000Y38380000D02*
X144920000Y39480000D01*
X144920000Y39880000D02*
X144920000Y40980000D01*
X144920000Y41380000D02*
X144920000Y42480000D01*
X144920000Y42880000D02*
X144920000Y43980000D01*
X144920000Y44380000D02*
X144920000Y45480000D01*
X144920000Y45880000D02*
X144920000Y46980000D01*
X144920000Y47380000D02*
X144920000Y48480000D01*
X144920000Y48880000D02*
X144920000Y48880000D01*
D11*
%TO.C,SW21*%
X94100000Y48130000D02*
X109100000Y48130000D01*
X94100000Y33130000D02*
X94100000Y48130000D01*
X109100000Y48130000D02*
X109100000Y33130000D01*
X109100000Y33130000D02*
X94100000Y33130000D01*
D10*
X92850000Y48880000D02*
X93950000Y48880000D01*
X94350000Y48880000D02*
X95450000Y48880000D01*
X95850000Y48880000D02*
X96950000Y48880000D01*
X97350000Y48880000D02*
X98450000Y48880000D01*
X98850000Y48880000D02*
X99950000Y48880000D01*
X100350000Y48880000D02*
X101450000Y48880000D01*
X101850000Y48880000D02*
X102950000Y48880000D01*
X103350000Y48880000D02*
X104450000Y48880000D01*
X104850000Y48880000D02*
X105950000Y48880000D01*
X106350000Y48880000D02*
X107450000Y48880000D01*
X107850000Y48880000D02*
X108950000Y48880000D01*
X109350000Y48880000D02*
X110350000Y48880000D01*
X110350000Y48880000D02*
X110350000Y47780000D01*
X110350000Y47380000D02*
X110350000Y46280000D01*
X110350000Y45880000D02*
X110350000Y44780000D01*
X110350000Y44380000D02*
X110350000Y43280000D01*
X110350000Y42880000D02*
X110350000Y41780000D01*
X110350000Y41380000D02*
X110350000Y40280000D01*
X110350000Y39880000D02*
X110350000Y38780000D01*
X110350000Y38380000D02*
X110350000Y37280000D01*
X110350000Y36880000D02*
X110350000Y35780000D01*
X110350000Y35380000D02*
X110350000Y34280000D01*
X110350000Y33880000D02*
X110350000Y32780000D01*
X110350000Y32380000D02*
X110350000Y32380000D01*
X110350000Y32380000D02*
X109250000Y32380000D01*
X108850000Y32380000D02*
X107750000Y32380000D01*
X107350000Y32380000D02*
X106250000Y32380000D01*
X105850000Y32380000D02*
X104750000Y32380000D01*
X104350000Y32380000D02*
X103250000Y32380000D01*
X102850000Y32380000D02*
X101750000Y32380000D01*
X101350000Y32380000D02*
X100250000Y32380000D01*
X99850000Y32380000D02*
X98750000Y32380000D01*
X98350000Y32380000D02*
X97250000Y32380000D01*
X96850000Y32380000D02*
X95750000Y32380000D01*
X95350000Y32380000D02*
X94250000Y32380000D01*
X93850000Y32380000D02*
X92850000Y32380000D01*
X92850000Y32380000D02*
X92850000Y33480000D01*
X92850000Y33880000D02*
X92850000Y34980000D01*
X92850000Y35380000D02*
X92850000Y36480000D01*
X92850000Y36880000D02*
X92850000Y37980000D01*
X92850000Y38380000D02*
X92850000Y39480000D01*
X92850000Y39880000D02*
X92850000Y40980000D01*
X92850000Y41380000D02*
X92850000Y42480000D01*
X92850000Y42880000D02*
X92850000Y43980000D01*
X92850000Y44380000D02*
X92850000Y45480000D01*
X92850000Y45880000D02*
X92850000Y46980000D01*
X92850000Y47380000D02*
X92850000Y48480000D01*
X92850000Y48880000D02*
X92850000Y48880000D01*
%TO.C,C25*%
X131830000Y35280000D02*
X131830000Y33280000D01*
X131830000Y33280000D02*
X134830000Y33280000D01*
X134830000Y35280000D02*
X131830000Y35280000D01*
X134830000Y33280000D02*
X134830000Y35280000D01*
D11*
%TO.C,SW22*%
X94100000Y29080000D02*
X109100000Y29080000D01*
X94100000Y14080000D02*
X94100000Y29080000D01*
X109100000Y29080000D02*
X109100000Y14080000D01*
X109100000Y14080000D02*
X94100000Y14080000D01*
D10*
X92850000Y29830000D02*
X93950000Y29830000D01*
X94350000Y29830000D02*
X95450000Y29830000D01*
X95850000Y29830000D02*
X96950000Y29830000D01*
X97350000Y29830000D02*
X98450000Y29830000D01*
X98850000Y29830000D02*
X99950000Y29830000D01*
X100350000Y29830000D02*
X101450000Y29830000D01*
X101850000Y29830000D02*
X102950000Y29830000D01*
X103350000Y29830000D02*
X104450000Y29830000D01*
X104850000Y29830000D02*
X105950000Y29830000D01*
X106350000Y29830000D02*
X107450000Y29830000D01*
X107850000Y29830000D02*
X108950000Y29830000D01*
X109350000Y29830000D02*
X110350000Y29830000D01*
X110350000Y29830000D02*
X110350000Y28730000D01*
X110350000Y28330000D02*
X110350000Y27230000D01*
X110350000Y26830000D02*
X110350000Y25730000D01*
X110350000Y25330000D02*
X110350000Y24230000D01*
X110350000Y23830000D02*
X110350000Y22730000D01*
X110350000Y22330000D02*
X110350000Y21230000D01*
X110350000Y20830000D02*
X110350000Y19730000D01*
X110350000Y19330000D02*
X110350000Y18230000D01*
X110350000Y17830000D02*
X110350000Y16730000D01*
X110350000Y16330000D02*
X110350000Y15230000D01*
X110350000Y14830000D02*
X110350000Y13730000D01*
X110350000Y13330000D02*
X110350000Y13330000D01*
X110350000Y13330000D02*
X109250000Y13330000D01*
X108850000Y13330000D02*
X107750000Y13330000D01*
X107350000Y13330000D02*
X106250000Y13330000D01*
X105850000Y13330000D02*
X104750000Y13330000D01*
X104350000Y13330000D02*
X103250000Y13330000D01*
X102850000Y13330000D02*
X101750000Y13330000D01*
X101350000Y13330000D02*
X100250000Y13330000D01*
X99850000Y13330000D02*
X98750000Y13330000D01*
X98350000Y13330000D02*
X97250000Y13330000D01*
X96850000Y13330000D02*
X95750000Y13330000D01*
X95350000Y13330000D02*
X94250000Y13330000D01*
X93850000Y13330000D02*
X92850000Y13330000D01*
X92850000Y13330000D02*
X92850000Y14430000D01*
X92850000Y14830000D02*
X92850000Y15930000D01*
X92850000Y16330000D02*
X92850000Y17430000D01*
X92850000Y17830000D02*
X92850000Y18930000D01*
X92850000Y19330000D02*
X92850000Y20430000D01*
X92850000Y20830000D02*
X92850000Y21930000D01*
X92850000Y22330000D02*
X92850000Y23430000D01*
X92850000Y23830000D02*
X92850000Y24930000D01*
X92850000Y25330000D02*
X92850000Y26430000D01*
X92850000Y26830000D02*
X92850000Y27930000D01*
X92850000Y28330000D02*
X92850000Y29430000D01*
X92850000Y29830000D02*
X92850000Y29830000D01*
%TO.C,J5*%
X183525000Y165100000D02*
X182890000Y165735000D01*
X193050000Y165100000D02*
X183525000Y165100000D01*
X182890000Y165735000D02*
X182890000Y167640000D01*
X182890000Y167640000D02*
X193050000Y167640000D01*
X193050000Y167640000D02*
X193050000Y165100000D01*
D11*
%TO.C,SW7*%
X36950000Y86230000D02*
X51950000Y86230000D01*
X36950000Y71230000D02*
X36950000Y86230000D01*
X51950000Y86230000D02*
X51950000Y71230000D01*
X51950000Y71230000D02*
X36950000Y71230000D01*
D10*
X35700000Y86980000D02*
X36800000Y86980000D01*
X37200000Y86980000D02*
X38300000Y86980000D01*
X38700000Y86980000D02*
X39800000Y86980000D01*
X40200000Y86980000D02*
X41300000Y86980000D01*
X41700000Y86980000D02*
X42800000Y86980000D01*
X43200000Y86980000D02*
X44300000Y86980000D01*
X44700000Y86980000D02*
X45800000Y86980000D01*
X46200000Y86980000D02*
X47300000Y86980000D01*
X47700000Y86980000D02*
X48800000Y86980000D01*
X49200000Y86980000D02*
X50300000Y86980000D01*
X50700000Y86980000D02*
X51800000Y86980000D01*
X52200000Y86980000D02*
X53200000Y86980000D01*
X53200000Y86980000D02*
X53200000Y85880000D01*
X53200000Y85480000D02*
X53200000Y84380000D01*
X53200000Y83980000D02*
X53200000Y82880000D01*
X53200000Y82480000D02*
X53200000Y81380000D01*
X53200000Y80980000D02*
X53200000Y79880000D01*
X53200000Y79480000D02*
X53200000Y78380000D01*
X53200000Y77980000D02*
X53200000Y76880000D01*
X53200000Y76480000D02*
X53200000Y75380000D01*
X53200000Y74980000D02*
X53200000Y73880000D01*
X53200000Y73480000D02*
X53200000Y72380000D01*
X53200000Y71980000D02*
X53200000Y70880000D01*
X53200000Y70480000D02*
X53200000Y70480000D01*
X53200000Y70480000D02*
X52100000Y70480000D01*
X51700000Y70480000D02*
X50600000Y70480000D01*
X50200000Y70480000D02*
X49100000Y70480000D01*
X48700000Y70480000D02*
X47600000Y70480000D01*
X47200000Y70480000D02*
X46100000Y70480000D01*
X45700000Y70480000D02*
X44600000Y70480000D01*
X44200000Y70480000D02*
X43100000Y70480000D01*
X42700000Y70480000D02*
X41600000Y70480000D01*
X41200000Y70480000D02*
X40100000Y70480000D01*
X39700000Y70480000D02*
X38600000Y70480000D01*
X38200000Y70480000D02*
X37100000Y70480000D01*
X36700000Y70480000D02*
X35700000Y70480000D01*
X35700000Y70480000D02*
X35700000Y71580000D01*
X35700000Y71980000D02*
X35700000Y73080000D01*
X35700000Y73480000D02*
X35700000Y74580000D01*
X35700000Y74980000D02*
X35700000Y76080000D01*
X35700000Y76480000D02*
X35700000Y77580000D01*
X35700000Y77980000D02*
X35700000Y79080000D01*
X35700000Y79480000D02*
X35700000Y80580000D01*
X35700000Y80980000D02*
X35700000Y82080000D01*
X35700000Y82480000D02*
X35700000Y83580000D01*
X35700000Y83980000D02*
X35700000Y85080000D01*
X35700000Y85480000D02*
X35700000Y86580000D01*
X35700000Y86980000D02*
X35700000Y86980000D01*
%TO.C,J8*%
X71120000Y162560000D02*
X69850000Y163830000D01*
X97790000Y162560000D02*
X71120000Y162560000D01*
X69850000Y163830000D02*
X69850000Y167640000D01*
X69850000Y167640000D02*
X97790000Y167640000D01*
X97790000Y167640000D02*
X97790000Y162560000D01*
%TO.C,J9*%
X132715000Y81270000D02*
X132080000Y81905000D01*
X142240000Y81270000D02*
X132715000Y81270000D01*
X132080000Y81905000D02*
X132080000Y83810000D01*
X132080000Y83810000D02*
X142240000Y83810000D01*
X142240000Y83810000D02*
X142240000Y81270000D01*
D11*
%TO.C,SW41*%
X203320000Y48130000D02*
X218320000Y48130000D01*
X203320000Y33130000D02*
X203320000Y48130000D01*
X218320000Y48130000D02*
X218320000Y33130000D01*
X218320000Y33130000D02*
X203320000Y33130000D01*
D10*
X202070000Y48880000D02*
X203170000Y48880000D01*
X203570000Y48880000D02*
X204670000Y48880000D01*
X205070000Y48880000D02*
X206170000Y48880000D01*
X206570000Y48880000D02*
X207670000Y48880000D01*
X208070000Y48880000D02*
X209170000Y48880000D01*
X209570000Y48880000D02*
X210670000Y48880000D01*
X211070000Y48880000D02*
X212170000Y48880000D01*
X212570000Y48880000D02*
X213670000Y48880000D01*
X214070000Y48880000D02*
X215170000Y48880000D01*
X215570000Y48880000D02*
X216670000Y48880000D01*
X217070000Y48880000D02*
X218170000Y48880000D01*
X218570000Y48880000D02*
X219570000Y48880000D01*
X219570000Y48880000D02*
X219570000Y47780000D01*
X219570000Y47380000D02*
X219570000Y46280000D01*
X219570000Y45880000D02*
X219570000Y44780000D01*
X219570000Y44380000D02*
X219570000Y43280000D01*
X219570000Y42880000D02*
X219570000Y41780000D01*
X219570000Y41380000D02*
X219570000Y40280000D01*
X219570000Y39880000D02*
X219570000Y38780000D01*
X219570000Y38380000D02*
X219570000Y37280000D01*
X219570000Y36880000D02*
X219570000Y35780000D01*
X219570000Y35380000D02*
X219570000Y34280000D01*
X219570000Y33880000D02*
X219570000Y32780000D01*
X219570000Y32380000D02*
X219570000Y32380000D01*
X219570000Y32380000D02*
X218470000Y32380000D01*
X218070000Y32380000D02*
X216970000Y32380000D01*
X216570000Y32380000D02*
X215470000Y32380000D01*
X215070000Y32380000D02*
X213970000Y32380000D01*
X213570000Y32380000D02*
X212470000Y32380000D01*
X212070000Y32380000D02*
X210970000Y32380000D01*
X210570000Y32380000D02*
X209470000Y32380000D01*
X209070000Y32380000D02*
X207970000Y32380000D01*
X207570000Y32380000D02*
X206470000Y32380000D01*
X206070000Y32380000D02*
X204970000Y32380000D01*
X204570000Y32380000D02*
X203470000Y32380000D01*
X203070000Y32380000D02*
X202070000Y32380000D01*
X202070000Y32380000D02*
X202070000Y33480000D01*
X202070000Y33880000D02*
X202070000Y34980000D01*
X202070000Y35380000D02*
X202070000Y36480000D01*
X202070000Y36880000D02*
X202070000Y37980000D01*
X202070000Y38380000D02*
X202070000Y39480000D01*
X202070000Y39880000D02*
X202070000Y40980000D01*
X202070000Y41380000D02*
X202070000Y42480000D01*
X202070000Y42880000D02*
X202070000Y43980000D01*
X202070000Y44380000D02*
X202070000Y45480000D01*
X202070000Y45880000D02*
X202070000Y46980000D01*
X202070000Y47380000D02*
X202070000Y48480000D01*
X202070000Y48880000D02*
X202070000Y48880000D01*
%TO.C,U7*%
X168285000Y148850000D02*
X169285000Y149850000D01*
X168285000Y139690000D02*
X168285000Y148850000D01*
X169285000Y149850000D02*
X174635000Y149850000D01*
X174635000Y149850000D02*
X174635000Y139690000D01*
X174635000Y139690000D02*
X168285000Y139690000D01*
D11*
%TO.C,SW43*%
X222370000Y86230000D02*
X237370000Y86230000D01*
X222370000Y71230000D02*
X222370000Y86230000D01*
X237370000Y86230000D02*
X237370000Y71230000D01*
X237370000Y71230000D02*
X222370000Y71230000D01*
D10*
X221120000Y86980000D02*
X222220000Y86980000D01*
X222620000Y86980000D02*
X223720000Y86980000D01*
X224120000Y86980000D02*
X225220000Y86980000D01*
X225620000Y86980000D02*
X226720000Y86980000D01*
X227120000Y86980000D02*
X228220000Y86980000D01*
X228620000Y86980000D02*
X229720000Y86980000D01*
X230120000Y86980000D02*
X231220000Y86980000D01*
X231620000Y86980000D02*
X232720000Y86980000D01*
X233120000Y86980000D02*
X234220000Y86980000D01*
X234620000Y86980000D02*
X235720000Y86980000D01*
X236120000Y86980000D02*
X237220000Y86980000D01*
X237620000Y86980000D02*
X238620000Y86980000D01*
X238620000Y86980000D02*
X238620000Y85880000D01*
X238620000Y85480000D02*
X238620000Y84380000D01*
X238620000Y83980000D02*
X238620000Y82880000D01*
X238620000Y82480000D02*
X238620000Y81380000D01*
X238620000Y80980000D02*
X238620000Y79880000D01*
X238620000Y79480000D02*
X238620000Y78380000D01*
X238620000Y77980000D02*
X238620000Y76880000D01*
X238620000Y76480000D02*
X238620000Y75380000D01*
X238620000Y74980000D02*
X238620000Y73880000D01*
X238620000Y73480000D02*
X238620000Y72380000D01*
X238620000Y71980000D02*
X238620000Y70880000D01*
X238620000Y70480000D02*
X238620000Y70480000D01*
X238620000Y70480000D02*
X237520000Y70480000D01*
X237120000Y70480000D02*
X236020000Y70480000D01*
X235620000Y70480000D02*
X234520000Y70480000D01*
X234120000Y70480000D02*
X233020000Y70480000D01*
X232620000Y70480000D02*
X231520000Y70480000D01*
X231120000Y70480000D02*
X230020000Y70480000D01*
X229620000Y70480000D02*
X228520000Y70480000D01*
X228120000Y70480000D02*
X227020000Y70480000D01*
X226620000Y70480000D02*
X225520000Y70480000D01*
X225120000Y70480000D02*
X224020000Y70480000D01*
X223620000Y70480000D02*
X222520000Y70480000D01*
X222120000Y70480000D02*
X221120000Y70480000D01*
X221120000Y70480000D02*
X221120000Y71580000D01*
X221120000Y71980000D02*
X221120000Y73080000D01*
X221120000Y73480000D02*
X221120000Y74580000D01*
X221120000Y74980000D02*
X221120000Y76080000D01*
X221120000Y76480000D02*
X221120000Y77580000D01*
X221120000Y77980000D02*
X221120000Y79080000D01*
X221120000Y79480000D02*
X221120000Y80580000D01*
X221120000Y80980000D02*
X221120000Y82080000D01*
X221120000Y82480000D02*
X221120000Y83580000D01*
X221120000Y83980000D02*
X221120000Y85080000D01*
X221120000Y85480000D02*
X221120000Y86580000D01*
X221120000Y86980000D02*
X221120000Y86980000D01*
%TO.C,C11*%
X99860000Y113280000D02*
X98260000Y113280000D01*
X98260000Y113280000D02*
X98260000Y100120000D01*
X99860000Y100120000D02*
X99860000Y113280000D01*
X98260000Y100120000D02*
X99860000Y100120000D01*
D11*
%TO.C,SW10*%
X36950000Y29080000D02*
X51950000Y29080000D01*
X36950000Y14080000D02*
X36950000Y29080000D01*
X51950000Y29080000D02*
X51950000Y14080000D01*
X51950000Y14080000D02*
X36950000Y14080000D01*
D10*
X35700000Y29830000D02*
X36800000Y29830000D01*
X37200000Y29830000D02*
X38300000Y29830000D01*
X38700000Y29830000D02*
X39800000Y29830000D01*
X40200000Y29830000D02*
X41300000Y29830000D01*
X41700000Y29830000D02*
X42800000Y29830000D01*
X43200000Y29830000D02*
X44300000Y29830000D01*
X44700000Y29830000D02*
X45800000Y29830000D01*
X46200000Y29830000D02*
X47300000Y29830000D01*
X47700000Y29830000D02*
X48800000Y29830000D01*
X49200000Y29830000D02*
X50300000Y29830000D01*
X50700000Y29830000D02*
X51800000Y29830000D01*
X52200000Y29830000D02*
X53200000Y29830000D01*
X53200000Y29830000D02*
X53200000Y28730000D01*
X53200000Y28330000D02*
X53200000Y27230000D01*
X53200000Y26830000D02*
X53200000Y25730000D01*
X53200000Y25330000D02*
X53200000Y24230000D01*
X53200000Y23830000D02*
X53200000Y22730000D01*
X53200000Y22330000D02*
X53200000Y21230000D01*
X53200000Y20830000D02*
X53200000Y19730000D01*
X53200000Y19330000D02*
X53200000Y18230000D01*
X53200000Y17830000D02*
X53200000Y16730000D01*
X53200000Y16330000D02*
X53200000Y15230000D01*
X53200000Y14830000D02*
X53200000Y13730000D01*
X53200000Y13330000D02*
X53200000Y13330000D01*
X53200000Y13330000D02*
X52100000Y13330000D01*
X51700000Y13330000D02*
X50600000Y13330000D01*
X50200000Y13330000D02*
X49100000Y13330000D01*
X48700000Y13330000D02*
X47600000Y13330000D01*
X47200000Y13330000D02*
X46100000Y13330000D01*
X45700000Y13330000D02*
X44600000Y13330000D01*
X44200000Y13330000D02*
X43100000Y13330000D01*
X42700000Y13330000D02*
X41600000Y13330000D01*
X41200000Y13330000D02*
X40100000Y13330000D01*
X39700000Y13330000D02*
X38600000Y13330000D01*
X38200000Y13330000D02*
X37100000Y13330000D01*
X36700000Y13330000D02*
X35700000Y13330000D01*
X35700000Y13330000D02*
X35700000Y14430000D01*
X35700000Y14830000D02*
X35700000Y15930000D01*
X35700000Y16330000D02*
X35700000Y17430000D01*
X35700000Y17830000D02*
X35700000Y18930000D01*
X35700000Y19330000D02*
X35700000Y20430000D01*
X35700000Y20830000D02*
X35700000Y21930000D01*
X35700000Y22330000D02*
X35700000Y23430000D01*
X35700000Y23830000D02*
X35700000Y24930000D01*
X35700000Y25330000D02*
X35700000Y26430000D01*
X35700000Y26830000D02*
X35700000Y27930000D01*
X35700000Y28330000D02*
X35700000Y29430000D01*
X35700000Y29830000D02*
X35700000Y29830000D01*
%TO.C,CPU1*%
X43175000Y166430000D02*
X43175000Y115510000D01*
X43175000Y115510000D02*
X60955000Y115510000D01*
X44700000Y165370000D02*
X45700000Y166370000D01*
X44700000Y115570000D02*
X44700000Y165370000D01*
X45700000Y166370000D02*
X59430000Y166370000D01*
X59430000Y166370000D02*
X59430000Y115570000D01*
X59430000Y115570000D02*
X44700000Y115570000D01*
X60955000Y166430000D02*
X43175000Y166430000D01*
X60955000Y115510000D02*
X60955000Y166430000D01*
D11*
%TO.C,SW27*%
X146170000Y86230000D02*
X161170000Y86230000D01*
X146170000Y71230000D02*
X146170000Y86230000D01*
X161170000Y86230000D02*
X161170000Y71230000D01*
X161170000Y71230000D02*
X146170000Y71230000D01*
D10*
X144920000Y86980000D02*
X146020000Y86980000D01*
X146420000Y86980000D02*
X147520000Y86980000D01*
X147920000Y86980000D02*
X149020000Y86980000D01*
X149420000Y86980000D02*
X150520000Y86980000D01*
X150920000Y86980000D02*
X152020000Y86980000D01*
X152420000Y86980000D02*
X153520000Y86980000D01*
X153920000Y86980000D02*
X155020000Y86980000D01*
X155420000Y86980000D02*
X156520000Y86980000D01*
X156920000Y86980000D02*
X158020000Y86980000D01*
X158420000Y86980000D02*
X159520000Y86980000D01*
X159920000Y86980000D02*
X161020000Y86980000D01*
X161420000Y86980000D02*
X162420000Y86980000D01*
X162420000Y86980000D02*
X162420000Y85880000D01*
X162420000Y85480000D02*
X162420000Y84380000D01*
X162420000Y83980000D02*
X162420000Y82880000D01*
X162420000Y82480000D02*
X162420000Y81380000D01*
X162420000Y80980000D02*
X162420000Y79880000D01*
X162420000Y79480000D02*
X162420000Y78380000D01*
X162420000Y77980000D02*
X162420000Y76880000D01*
X162420000Y76480000D02*
X162420000Y75380000D01*
X162420000Y74980000D02*
X162420000Y73880000D01*
X162420000Y73480000D02*
X162420000Y72380000D01*
X162420000Y71980000D02*
X162420000Y70880000D01*
X162420000Y70480000D02*
X162420000Y70480000D01*
X162420000Y70480000D02*
X161320000Y70480000D01*
X160920000Y70480000D02*
X159820000Y70480000D01*
X159420000Y70480000D02*
X158320000Y70480000D01*
X157920000Y70480000D02*
X156820000Y70480000D01*
X156420000Y70480000D02*
X155320000Y70480000D01*
X154920000Y70480000D02*
X153820000Y70480000D01*
X153420000Y70480000D02*
X152320000Y70480000D01*
X151920000Y70480000D02*
X150820000Y70480000D01*
X150420000Y70480000D02*
X149320000Y70480000D01*
X148920000Y70480000D02*
X147820000Y70480000D01*
X147420000Y70480000D02*
X146320000Y70480000D01*
X145920000Y70480000D02*
X144920000Y70480000D01*
X144920000Y70480000D02*
X144920000Y71580000D01*
X144920000Y71980000D02*
X144920000Y73080000D01*
X144920000Y73480000D02*
X144920000Y74580000D01*
X144920000Y74980000D02*
X144920000Y76080000D01*
X144920000Y76480000D02*
X144920000Y77580000D01*
X144920000Y77980000D02*
X144920000Y79080000D01*
X144920000Y79480000D02*
X144920000Y80580000D01*
X144920000Y80980000D02*
X144920000Y82080000D01*
X144920000Y82480000D02*
X144920000Y83580000D01*
X144920000Y83980000D02*
X144920000Y85080000D01*
X144920000Y85480000D02*
X144920000Y86580000D01*
X144920000Y86980000D02*
X144920000Y86980000D01*
D11*
%TO.C,SW31*%
X165220000Y86230000D02*
X180220000Y86230000D01*
X165220000Y71230000D02*
X165220000Y86230000D01*
X180220000Y86230000D02*
X180220000Y71230000D01*
X180220000Y71230000D02*
X165220000Y71230000D01*
D10*
X163970000Y86980000D02*
X165070000Y86980000D01*
X165470000Y86980000D02*
X166570000Y86980000D01*
X166970000Y86980000D02*
X168070000Y86980000D01*
X168470000Y86980000D02*
X169570000Y86980000D01*
X169970000Y86980000D02*
X171070000Y86980000D01*
X171470000Y86980000D02*
X172570000Y86980000D01*
X172970000Y86980000D02*
X174070000Y86980000D01*
X174470000Y86980000D02*
X175570000Y86980000D01*
X175970000Y86980000D02*
X177070000Y86980000D01*
X177470000Y86980000D02*
X178570000Y86980000D01*
X178970000Y86980000D02*
X180070000Y86980000D01*
X180470000Y86980000D02*
X181470000Y86980000D01*
X181470000Y86980000D02*
X181470000Y85880000D01*
X181470000Y85480000D02*
X181470000Y84380000D01*
X181470000Y83980000D02*
X181470000Y82880000D01*
X181470000Y82480000D02*
X181470000Y81380000D01*
X181470000Y80980000D02*
X181470000Y79880000D01*
X181470000Y79480000D02*
X181470000Y78380000D01*
X181470000Y77980000D02*
X181470000Y76880000D01*
X181470000Y76480000D02*
X181470000Y75380000D01*
X181470000Y74980000D02*
X181470000Y73880000D01*
X181470000Y73480000D02*
X181470000Y72380000D01*
X181470000Y71980000D02*
X181470000Y70880000D01*
X181470000Y70480000D02*
X181470000Y70480000D01*
X181470000Y70480000D02*
X180370000Y70480000D01*
X179970000Y70480000D02*
X178870000Y70480000D01*
X178470000Y70480000D02*
X177370000Y70480000D01*
X176970000Y70480000D02*
X175870000Y70480000D01*
X175470000Y70480000D02*
X174370000Y70480000D01*
X173970000Y70480000D02*
X172870000Y70480000D01*
X172470000Y70480000D02*
X171370000Y70480000D01*
X170970000Y70480000D02*
X169870000Y70480000D01*
X169470000Y70480000D02*
X168370000Y70480000D01*
X167970000Y70480000D02*
X166870000Y70480000D01*
X166470000Y70480000D02*
X165370000Y70480000D01*
X164970000Y70480000D02*
X163970000Y70480000D01*
X163970000Y70480000D02*
X163970000Y71580000D01*
X163970000Y71980000D02*
X163970000Y73080000D01*
X163970000Y73480000D02*
X163970000Y74580000D01*
X163970000Y74980000D02*
X163970000Y76080000D01*
X163970000Y76480000D02*
X163970000Y77580000D01*
X163970000Y77980000D02*
X163970000Y79080000D01*
X163970000Y79480000D02*
X163970000Y80580000D01*
X163970000Y80980000D02*
X163970000Y82080000D01*
X163970000Y82480000D02*
X163970000Y83580000D01*
X163970000Y83980000D02*
X163970000Y85080000D01*
X163970000Y85480000D02*
X163970000Y86580000D01*
X163970000Y86980000D02*
X163970000Y86980000D01*
%TO.C,C19*%
X219303241Y117317500D02*
X220103241Y117317500D01*
X219703241Y117717500D02*
X219703241Y116917500D01*
X226730000Y115570000D02*
G75*
G03*
X226730000Y115570000I-4000000J0D01*
G01*
%TO.C,R14*%
X193040000Y162560000D02*
X191030000Y162560000D01*
X191030000Y161760000D02*
X191030000Y163360000D01*
X191030000Y163360000D02*
X187430000Y163360000D01*
X187430000Y161760000D02*
X191030000Y161760000D01*
X187430000Y163360000D02*
X187430000Y161760000D01*
X185420000Y162560000D02*
X187430000Y162560000D01*
%TO.C,C15*%
X182510000Y102400000D02*
X182510000Y100800000D01*
X182510000Y100800000D02*
X195670000Y100800000D01*
X195670000Y102400000D02*
X182510000Y102400000D01*
X195670000Y100800000D02*
X195670000Y102400000D01*
%TO.C,U11*%
X132080000Y76250000D02*
X132080000Y40570000D01*
X132080000Y40570000D02*
X142240000Y40570000D01*
X133985000Y75190000D02*
X134985000Y76190000D01*
X133985000Y40630000D02*
X133985000Y75190000D01*
X134985000Y76190000D02*
X140335000Y76190000D01*
X140335000Y76190000D02*
X140335000Y40630000D01*
X140335000Y40630000D02*
X133985000Y40630000D01*
X142240000Y76250000D02*
X132080000Y76250000D01*
X142240000Y40570000D02*
X142240000Y76250000D01*
%TO.C,R13*%
X179940000Y132080000D02*
X179940000Y130070000D01*
X180740000Y130070000D02*
X179140000Y130070000D01*
X179140000Y130070000D02*
X179140000Y126470000D01*
X180740000Y126470000D02*
X180740000Y130070000D01*
X179140000Y126470000D02*
X180740000Y126470000D01*
X179940000Y124460000D02*
X179940000Y126470000D01*
%TO.C,C6*%
X189850000Y133080000D02*
X189850000Y131080000D01*
X189850000Y131080000D02*
X192850000Y131080000D01*
X192850000Y133080000D02*
X189850000Y133080000D01*
X192850000Y131080000D02*
X192850000Y133080000D01*
D11*
%TO.C,SW23*%
X113150000Y86230000D02*
X128150000Y86230000D01*
X113150000Y71230000D02*
X113150000Y86230000D01*
X128150000Y86230000D02*
X128150000Y71230000D01*
X128150000Y71230000D02*
X113150000Y71230000D01*
D10*
X111900000Y86980000D02*
X113000000Y86980000D01*
X113400000Y86980000D02*
X114500000Y86980000D01*
X114900000Y86980000D02*
X116000000Y86980000D01*
X116400000Y86980000D02*
X117500000Y86980000D01*
X117900000Y86980000D02*
X119000000Y86980000D01*
X119400000Y86980000D02*
X120500000Y86980000D01*
X120900000Y86980000D02*
X122000000Y86980000D01*
X122400000Y86980000D02*
X123500000Y86980000D01*
X123900000Y86980000D02*
X125000000Y86980000D01*
X125400000Y86980000D02*
X126500000Y86980000D01*
X126900000Y86980000D02*
X128000000Y86980000D01*
X128400000Y86980000D02*
X129400000Y86980000D01*
X129400000Y86980000D02*
X129400000Y85880000D01*
X129400000Y85480000D02*
X129400000Y84380000D01*
X129400000Y83980000D02*
X129400000Y82880000D01*
X129400000Y82480000D02*
X129400000Y81380000D01*
X129400000Y80980000D02*
X129400000Y79880000D01*
X129400000Y79480000D02*
X129400000Y78380000D01*
X129400000Y77980000D02*
X129400000Y76880000D01*
X129400000Y76480000D02*
X129400000Y75380000D01*
X129400000Y74980000D02*
X129400000Y73880000D01*
X129400000Y73480000D02*
X129400000Y72380000D01*
X129400000Y71980000D02*
X129400000Y70880000D01*
X129400000Y70480000D02*
X129400000Y70480000D01*
X129400000Y70480000D02*
X128300000Y70480000D01*
X127900000Y70480000D02*
X126800000Y70480000D01*
X126400000Y70480000D02*
X125300000Y70480000D01*
X124900000Y70480000D02*
X123800000Y70480000D01*
X123400000Y70480000D02*
X122300000Y70480000D01*
X121900000Y70480000D02*
X120800000Y70480000D01*
X120400000Y70480000D02*
X119300000Y70480000D01*
X118900000Y70480000D02*
X117800000Y70480000D01*
X117400000Y70480000D02*
X116300000Y70480000D01*
X115900000Y70480000D02*
X114800000Y70480000D01*
X114400000Y70480000D02*
X113300000Y70480000D01*
X112900000Y70480000D02*
X111900000Y70480000D01*
X111900000Y70480000D02*
X111900000Y71580000D01*
X111900000Y71980000D02*
X111900000Y73080000D01*
X111900000Y73480000D02*
X111900000Y74580000D01*
X111900000Y74980000D02*
X111900000Y76080000D01*
X111900000Y76480000D02*
X111900000Y77580000D01*
X111900000Y77980000D02*
X111900000Y79080000D01*
X111900000Y79480000D02*
X111900000Y80580000D01*
X111900000Y80980000D02*
X111900000Y82080000D01*
X111900000Y82480000D02*
X111900000Y83580000D01*
X111900000Y83980000D02*
X111900000Y85080000D01*
X111900000Y85480000D02*
X111900000Y86580000D01*
X111900000Y86980000D02*
X111900000Y86980000D01*
D11*
%TO.C,SW44*%
X222370000Y67180000D02*
X237370000Y67180000D01*
X222370000Y52180000D02*
X222370000Y67180000D01*
X237370000Y67180000D02*
X237370000Y52180000D01*
X237370000Y52180000D02*
X222370000Y52180000D01*
D10*
X221120000Y67930000D02*
X222220000Y67930000D01*
X222620000Y67930000D02*
X223720000Y67930000D01*
X224120000Y67930000D02*
X225220000Y67930000D01*
X225620000Y67930000D02*
X226720000Y67930000D01*
X227120000Y67930000D02*
X228220000Y67930000D01*
X228620000Y67930000D02*
X229720000Y67930000D01*
X230120000Y67930000D02*
X231220000Y67930000D01*
X231620000Y67930000D02*
X232720000Y67930000D01*
X233120000Y67930000D02*
X234220000Y67930000D01*
X234620000Y67930000D02*
X235720000Y67930000D01*
X236120000Y67930000D02*
X237220000Y67930000D01*
X237620000Y67930000D02*
X238620000Y67930000D01*
X238620000Y67930000D02*
X238620000Y66830000D01*
X238620000Y66430000D02*
X238620000Y65330000D01*
X238620000Y64930000D02*
X238620000Y63830000D01*
X238620000Y63430000D02*
X238620000Y62330000D01*
X238620000Y61930000D02*
X238620000Y60830000D01*
X238620000Y60430000D02*
X238620000Y59330000D01*
X238620000Y58930000D02*
X238620000Y57830000D01*
X238620000Y57430000D02*
X238620000Y56330000D01*
X238620000Y55930000D02*
X238620000Y54830000D01*
X238620000Y54430000D02*
X238620000Y53330000D01*
X238620000Y52930000D02*
X238620000Y51830000D01*
X238620000Y51430000D02*
X238620000Y51430000D01*
X238620000Y51430000D02*
X237520000Y51430000D01*
X237120000Y51430000D02*
X236020000Y51430000D01*
X235620000Y51430000D02*
X234520000Y51430000D01*
X234120000Y51430000D02*
X233020000Y51430000D01*
X232620000Y51430000D02*
X231520000Y51430000D01*
X231120000Y51430000D02*
X230020000Y51430000D01*
X229620000Y51430000D02*
X228520000Y51430000D01*
X228120000Y51430000D02*
X227020000Y51430000D01*
X226620000Y51430000D02*
X225520000Y51430000D01*
X225120000Y51430000D02*
X224020000Y51430000D01*
X223620000Y51430000D02*
X222520000Y51430000D01*
X222120000Y51430000D02*
X221120000Y51430000D01*
X221120000Y51430000D02*
X221120000Y52530000D01*
X221120000Y52930000D02*
X221120000Y54030000D01*
X221120000Y54430000D02*
X221120000Y55530000D01*
X221120000Y55930000D02*
X221120000Y57030000D01*
X221120000Y57430000D02*
X221120000Y58530000D01*
X221120000Y58930000D02*
X221120000Y60030000D01*
X221120000Y60430000D02*
X221120000Y61530000D01*
X221120000Y61930000D02*
X221120000Y63030000D01*
X221120000Y63430000D02*
X221120000Y64530000D01*
X221120000Y64930000D02*
X221120000Y66030000D01*
X221120000Y66430000D02*
X221120000Y67530000D01*
X221120000Y67930000D02*
X221120000Y67930000D01*
%TO.C,U2*%
X93980000Y115630000D02*
X93980000Y97730000D01*
X93980000Y97730000D02*
X104140000Y97730000D01*
X95885000Y114570000D02*
X96885000Y115570000D01*
X95885000Y97790000D02*
X95885000Y114570000D01*
X96885000Y115570000D02*
X102235000Y115570000D01*
X102235000Y115570000D02*
X102235000Y97790000D01*
X102235000Y97790000D02*
X95885000Y97790000D01*
X104140000Y115630000D02*
X93980000Y115630000D01*
X104140000Y97730000D02*
X104140000Y115630000D01*
%TO.C,R7*%
X224790000Y153670000D02*
X224790000Y151660000D01*
X225590000Y151660000D02*
X223990000Y151660000D01*
X223990000Y151660000D02*
X223990000Y148060000D01*
X225590000Y148060000D02*
X225590000Y151660000D01*
X223990000Y148060000D02*
X225590000Y148060000D01*
X224790000Y146050000D02*
X224790000Y148060000D01*
%TO.C,R8*%
X246380000Y137160000D02*
X246380000Y134620000D01*
X247180000Y137160000D02*
G75*
G03*
X247180000Y137160000I-800000J0D01*
G01*
%TO.C,ROM1*%
X40560000Y97930000D02*
X40560000Y101530000D01*
X40560000Y97930000D02*
X39260000Y96530000D01*
X40560000Y101530000D02*
X39060000Y103530000D01*
X40560000Y101530000D02*
X35960000Y101530000D01*
X39390000Y109990000D02*
X38410000Y108830000D01*
X39390000Y159230000D02*
X39390000Y109990000D01*
X39260000Y96530000D02*
X37260000Y96530000D01*
X39060000Y103530000D02*
X37460000Y103530000D01*
X39060000Y109640000D02*
X39060000Y103530000D01*
X38410000Y108830000D02*
X16490000Y108830000D01*
X37460000Y103530000D02*
X37460000Y108830000D01*
X37260000Y96530000D02*
X35960000Y97930000D01*
X35960000Y97930000D02*
X40560000Y97930000D01*
X35960000Y101530000D02*
X37460000Y103530000D01*
X35960000Y101530000D02*
X35960000Y97930000D01*
X16490000Y108830000D02*
X16490000Y159230000D01*
X16490000Y159230000D02*
X39390000Y159230000D01*
D11*
%TO.C,SW8*%
X36950000Y67180000D02*
X51950000Y67180000D01*
X36950000Y52180000D02*
X36950000Y67180000D01*
X51950000Y67180000D02*
X51950000Y52180000D01*
X51950000Y52180000D02*
X36950000Y52180000D01*
D10*
X35700000Y67930000D02*
X36800000Y67930000D01*
X37200000Y67930000D02*
X38300000Y67930000D01*
X38700000Y67930000D02*
X39800000Y67930000D01*
X40200000Y67930000D02*
X41300000Y67930000D01*
X41700000Y67930000D02*
X42800000Y67930000D01*
X43200000Y67930000D02*
X44300000Y67930000D01*
X44700000Y67930000D02*
X45800000Y67930000D01*
X46200000Y67930000D02*
X47300000Y67930000D01*
X47700000Y67930000D02*
X48800000Y67930000D01*
X49200000Y67930000D02*
X50300000Y67930000D01*
X50700000Y67930000D02*
X51800000Y67930000D01*
X52200000Y67930000D02*
X53200000Y67930000D01*
X53200000Y67930000D02*
X53200000Y66830000D01*
X53200000Y66430000D02*
X53200000Y65330000D01*
X53200000Y64930000D02*
X53200000Y63830000D01*
X53200000Y63430000D02*
X53200000Y62330000D01*
X53200000Y61930000D02*
X53200000Y60830000D01*
X53200000Y60430000D02*
X53200000Y59330000D01*
X53200000Y58930000D02*
X53200000Y57830000D01*
X53200000Y57430000D02*
X53200000Y56330000D01*
X53200000Y55930000D02*
X53200000Y54830000D01*
X53200000Y54430000D02*
X53200000Y53330000D01*
X53200000Y52930000D02*
X53200000Y51830000D01*
X53200000Y51430000D02*
X53200000Y51430000D01*
X53200000Y51430000D02*
X52100000Y51430000D01*
X51700000Y51430000D02*
X50600000Y51430000D01*
X50200000Y51430000D02*
X49100000Y51430000D01*
X48700000Y51430000D02*
X47600000Y51430000D01*
X47200000Y51430000D02*
X46100000Y51430000D01*
X45700000Y51430000D02*
X44600000Y51430000D01*
X44200000Y51430000D02*
X43100000Y51430000D01*
X42700000Y51430000D02*
X41600000Y51430000D01*
X41200000Y51430000D02*
X40100000Y51430000D01*
X39700000Y51430000D02*
X38600000Y51430000D01*
X38200000Y51430000D02*
X37100000Y51430000D01*
X36700000Y51430000D02*
X35700000Y51430000D01*
X35700000Y51430000D02*
X35700000Y52530000D01*
X35700000Y52930000D02*
X35700000Y54030000D01*
X35700000Y54430000D02*
X35700000Y55530000D01*
X35700000Y55930000D02*
X35700000Y57030000D01*
X35700000Y57430000D02*
X35700000Y58530000D01*
X35700000Y58930000D02*
X35700000Y60030000D01*
X35700000Y60430000D02*
X35700000Y61530000D01*
X35700000Y61930000D02*
X35700000Y63030000D01*
X35700000Y63430000D02*
X35700000Y64530000D01*
X35700000Y64930000D02*
X35700000Y66030000D01*
X35700000Y66430000D02*
X35700000Y67530000D01*
X35700000Y67930000D02*
X35700000Y67930000D01*
D11*
%TO.C,SW9*%
X36950000Y48130000D02*
X51950000Y48130000D01*
X36950000Y33130000D02*
X36950000Y48130000D01*
X51950000Y48130000D02*
X51950000Y33130000D01*
X51950000Y33130000D02*
X36950000Y33130000D01*
D10*
X35700000Y48880000D02*
X36800000Y48880000D01*
X37200000Y48880000D02*
X38300000Y48880000D01*
X38700000Y48880000D02*
X39800000Y48880000D01*
X40200000Y48880000D02*
X41300000Y48880000D01*
X41700000Y48880000D02*
X42800000Y48880000D01*
X43200000Y48880000D02*
X44300000Y48880000D01*
X44700000Y48880000D02*
X45800000Y48880000D01*
X46200000Y48880000D02*
X47300000Y48880000D01*
X47700000Y48880000D02*
X48800000Y48880000D01*
X49200000Y48880000D02*
X50300000Y48880000D01*
X50700000Y48880000D02*
X51800000Y48880000D01*
X52200000Y48880000D02*
X53200000Y48880000D01*
X53200000Y48880000D02*
X53200000Y47780000D01*
X53200000Y47380000D02*
X53200000Y46280000D01*
X53200000Y45880000D02*
X53200000Y44780000D01*
X53200000Y44380000D02*
X53200000Y43280000D01*
X53200000Y42880000D02*
X53200000Y41780000D01*
X53200000Y41380000D02*
X53200000Y40280000D01*
X53200000Y39880000D02*
X53200000Y38780000D01*
X53200000Y38380000D02*
X53200000Y37280000D01*
X53200000Y36880000D02*
X53200000Y35780000D01*
X53200000Y35380000D02*
X53200000Y34280000D01*
X53200000Y33880000D02*
X53200000Y32780000D01*
X53200000Y32380000D02*
X53200000Y32380000D01*
X53200000Y32380000D02*
X52100000Y32380000D01*
X51700000Y32380000D02*
X50600000Y32380000D01*
X50200000Y32380000D02*
X49100000Y32380000D01*
X48700000Y32380000D02*
X47600000Y32380000D01*
X47200000Y32380000D02*
X46100000Y32380000D01*
X45700000Y32380000D02*
X44600000Y32380000D01*
X44200000Y32380000D02*
X43100000Y32380000D01*
X42700000Y32380000D02*
X41600000Y32380000D01*
X41200000Y32380000D02*
X40100000Y32380000D01*
X39700000Y32380000D02*
X38600000Y32380000D01*
X38200000Y32380000D02*
X37100000Y32380000D01*
X36700000Y32380000D02*
X35700000Y32380000D01*
X35700000Y32380000D02*
X35700000Y33480000D01*
X35700000Y33880000D02*
X35700000Y34980000D01*
X35700000Y35380000D02*
X35700000Y36480000D01*
X35700000Y36880000D02*
X35700000Y37980000D01*
X35700000Y38380000D02*
X35700000Y39480000D01*
X35700000Y39880000D02*
X35700000Y40980000D01*
X35700000Y41380000D02*
X35700000Y42480000D01*
X35700000Y42880000D02*
X35700000Y43980000D01*
X35700000Y44380000D02*
X35700000Y45480000D01*
X35700000Y45880000D02*
X35700000Y46980000D01*
X35700000Y47380000D02*
X35700000Y48480000D01*
X35700000Y48880000D02*
X35700000Y48880000D01*
%TO.C,X1*%
X142180000Y100330000D02*
X160080000Y100330000D01*
X160080000Y100330000D02*
X160080000Y110490000D01*
X143240000Y102235000D02*
X142240000Y103235000D01*
X160020000Y102235000D02*
X143240000Y102235000D01*
X142240000Y103235000D02*
X142240000Y108585000D01*
X142240000Y108585000D02*
X160020000Y108585000D01*
X160020000Y108585000D02*
X160020000Y102235000D01*
X142180000Y110490000D02*
X142180000Y100330000D01*
X160080000Y110490000D02*
X142180000Y110490000D01*
D11*
%TO.C,SW46*%
X222370000Y29080000D02*
X237370000Y29080000D01*
X222370000Y14080000D02*
X222370000Y29080000D01*
X237370000Y29080000D02*
X237370000Y14080000D01*
X237370000Y14080000D02*
X222370000Y14080000D01*
D10*
X221120000Y29830000D02*
X222220000Y29830000D01*
X222620000Y29830000D02*
X223720000Y29830000D01*
X224120000Y29830000D02*
X225220000Y29830000D01*
X225620000Y29830000D02*
X226720000Y29830000D01*
X227120000Y29830000D02*
X228220000Y29830000D01*
X228620000Y29830000D02*
X229720000Y29830000D01*
X230120000Y29830000D02*
X231220000Y29830000D01*
X231620000Y29830000D02*
X232720000Y29830000D01*
X233120000Y29830000D02*
X234220000Y29830000D01*
X234620000Y29830000D02*
X235720000Y29830000D01*
X236120000Y29830000D02*
X237220000Y29830000D01*
X237620000Y29830000D02*
X238620000Y29830000D01*
X238620000Y29830000D02*
X238620000Y28730000D01*
X238620000Y28330000D02*
X238620000Y27230000D01*
X238620000Y26830000D02*
X238620000Y25730000D01*
X238620000Y25330000D02*
X238620000Y24230000D01*
X238620000Y23830000D02*
X238620000Y22730000D01*
X238620000Y22330000D02*
X238620000Y21230000D01*
X238620000Y20830000D02*
X238620000Y19730000D01*
X238620000Y19330000D02*
X238620000Y18230000D01*
X238620000Y17830000D02*
X238620000Y16730000D01*
X238620000Y16330000D02*
X238620000Y15230000D01*
X238620000Y14830000D02*
X238620000Y13730000D01*
X238620000Y13330000D02*
X238620000Y13330000D01*
X238620000Y13330000D02*
X237520000Y13330000D01*
X237120000Y13330000D02*
X236020000Y13330000D01*
X235620000Y13330000D02*
X234520000Y13330000D01*
X234120000Y13330000D02*
X233020000Y13330000D01*
X232620000Y13330000D02*
X231520000Y13330000D01*
X231120000Y13330000D02*
X230020000Y13330000D01*
X229620000Y13330000D02*
X228520000Y13330000D01*
X228120000Y13330000D02*
X227020000Y13330000D01*
X226620000Y13330000D02*
X225520000Y13330000D01*
X225120000Y13330000D02*
X224020000Y13330000D01*
X223620000Y13330000D02*
X222520000Y13330000D01*
X222120000Y13330000D02*
X221120000Y13330000D01*
X221120000Y13330000D02*
X221120000Y14430000D01*
X221120000Y14830000D02*
X221120000Y15930000D01*
X221120000Y16330000D02*
X221120000Y17430000D01*
X221120000Y17830000D02*
X221120000Y18930000D01*
X221120000Y19330000D02*
X221120000Y20430000D01*
X221120000Y20830000D02*
X221120000Y21930000D01*
X221120000Y22330000D02*
X221120000Y23430000D01*
X221120000Y23830000D02*
X221120000Y24930000D01*
X221120000Y25330000D02*
X221120000Y26430000D01*
X221120000Y26830000D02*
X221120000Y27930000D01*
X221120000Y28330000D02*
X221120000Y29430000D01*
X221120000Y29830000D02*
X221120000Y29830000D01*
%TO.C,J15*%
X230505000Y134620000D02*
X229870000Y135255000D01*
X234950000Y134620000D02*
X230505000Y134620000D01*
X229870000Y135255000D02*
X229870000Y137160000D01*
X229870000Y137160000D02*
X234950000Y137160000D01*
X234950000Y137160000D02*
X234950000Y134620000D01*
%TO.C,U8*%
X93980000Y151190000D02*
X93980000Y125670000D01*
X93980000Y125670000D02*
X104140000Y125670000D01*
X95885000Y150130000D02*
X96885000Y151130000D01*
X95885000Y125730000D02*
X95885000Y150130000D01*
X96885000Y151130000D02*
X102235000Y151130000D01*
X102235000Y151130000D02*
X102235000Y125730000D01*
X102235000Y125730000D02*
X95885000Y125730000D01*
X104140000Y151190000D02*
X93980000Y151190000D01*
X104140000Y125670000D02*
X104140000Y151190000D01*
D11*
%TO.C,SW11*%
X56000000Y86230000D02*
X71000000Y86230000D01*
X56000000Y71230000D02*
X56000000Y86230000D01*
X71000000Y86230000D02*
X71000000Y71230000D01*
X71000000Y71230000D02*
X56000000Y71230000D01*
D10*
X54750000Y86980000D02*
X55850000Y86980000D01*
X56250000Y86980000D02*
X57350000Y86980000D01*
X57750000Y86980000D02*
X58850000Y86980000D01*
X59250000Y86980000D02*
X60350000Y86980000D01*
X60750000Y86980000D02*
X61850000Y86980000D01*
X62250000Y86980000D02*
X63350000Y86980000D01*
X63750000Y86980000D02*
X64850000Y86980000D01*
X65250000Y86980000D02*
X66350000Y86980000D01*
X66750000Y86980000D02*
X67850000Y86980000D01*
X68250000Y86980000D02*
X69350000Y86980000D01*
X69750000Y86980000D02*
X70850000Y86980000D01*
X71250000Y86980000D02*
X72250000Y86980000D01*
X72250000Y86980000D02*
X72250000Y85880000D01*
X72250000Y85480000D02*
X72250000Y84380000D01*
X72250000Y83980000D02*
X72250000Y82880000D01*
X72250000Y82480000D02*
X72250000Y81380000D01*
X72250000Y80980000D02*
X72250000Y79880000D01*
X72250000Y79480000D02*
X72250000Y78380000D01*
X72250000Y77980000D02*
X72250000Y76880000D01*
X72250000Y76480000D02*
X72250000Y75380000D01*
X72250000Y74980000D02*
X72250000Y73880000D01*
X72250000Y73480000D02*
X72250000Y72380000D01*
X72250000Y71980000D02*
X72250000Y70880000D01*
X72250000Y70480000D02*
X72250000Y70480000D01*
X72250000Y70480000D02*
X71150000Y70480000D01*
X70750000Y70480000D02*
X69650000Y70480000D01*
X69250000Y70480000D02*
X68150000Y70480000D01*
X67750000Y70480000D02*
X66650000Y70480000D01*
X66250000Y70480000D02*
X65150000Y70480000D01*
X64750000Y70480000D02*
X63650000Y70480000D01*
X63250000Y70480000D02*
X62150000Y70480000D01*
X61750000Y70480000D02*
X60650000Y70480000D01*
X60250000Y70480000D02*
X59150000Y70480000D01*
X58750000Y70480000D02*
X57650000Y70480000D01*
X57250000Y70480000D02*
X56150000Y70480000D01*
X55750000Y70480000D02*
X54750000Y70480000D01*
X54750000Y70480000D02*
X54750000Y71580000D01*
X54750000Y71980000D02*
X54750000Y73080000D01*
X54750000Y73480000D02*
X54750000Y74580000D01*
X54750000Y74980000D02*
X54750000Y76080000D01*
X54750000Y76480000D02*
X54750000Y77580000D01*
X54750000Y77980000D02*
X54750000Y79080000D01*
X54750000Y79480000D02*
X54750000Y80580000D01*
X54750000Y80980000D02*
X54750000Y82080000D01*
X54750000Y82480000D02*
X54750000Y83580000D01*
X54750000Y83980000D02*
X54750000Y85080000D01*
X54750000Y85480000D02*
X54750000Y86580000D01*
X54750000Y86980000D02*
X54750000Y86980000D01*
%TO.C,P1*%
X250970000Y122820000D02*
X250970000Y138820000D01*
X263770000Y122820000D02*
X250970000Y122820000D01*
X250970000Y138820000D02*
X263770000Y138820000D01*
X263770000Y138820000D02*
X263770000Y122820000D01*
D11*
%TO.C,SW18*%
X75050000Y29080000D02*
X90050000Y29080000D01*
X75050000Y14080000D02*
X75050000Y29080000D01*
X90050000Y29080000D02*
X90050000Y14080000D01*
X90050000Y14080000D02*
X75050000Y14080000D01*
D10*
X73800000Y29830000D02*
X74900000Y29830000D01*
X75300000Y29830000D02*
X76400000Y29830000D01*
X76800000Y29830000D02*
X77900000Y29830000D01*
X78300000Y29830000D02*
X79400000Y29830000D01*
X79800000Y29830000D02*
X80900000Y29830000D01*
X81300000Y29830000D02*
X82400000Y29830000D01*
X82800000Y29830000D02*
X83900000Y29830000D01*
X84300000Y29830000D02*
X85400000Y29830000D01*
X85800000Y29830000D02*
X86900000Y29830000D01*
X87300000Y29830000D02*
X88400000Y29830000D01*
X88800000Y29830000D02*
X89900000Y29830000D01*
X90300000Y29830000D02*
X91300000Y29830000D01*
X91300000Y29830000D02*
X91300000Y28730000D01*
X91300000Y28330000D02*
X91300000Y27230000D01*
X91300000Y26830000D02*
X91300000Y25730000D01*
X91300000Y25330000D02*
X91300000Y24230000D01*
X91300000Y23830000D02*
X91300000Y22730000D01*
X91300000Y22330000D02*
X91300000Y21230000D01*
X91300000Y20830000D02*
X91300000Y19730000D01*
X91300000Y19330000D02*
X91300000Y18230000D01*
X91300000Y17830000D02*
X91300000Y16730000D01*
X91300000Y16330000D02*
X91300000Y15230000D01*
X91300000Y14830000D02*
X91300000Y13730000D01*
X91300000Y13330000D02*
X91300000Y13330000D01*
X91300000Y13330000D02*
X90200000Y13330000D01*
X89800000Y13330000D02*
X88700000Y13330000D01*
X88300000Y13330000D02*
X87200000Y13330000D01*
X86800000Y13330000D02*
X85700000Y13330000D01*
X85300000Y13330000D02*
X84200000Y13330000D01*
X83800000Y13330000D02*
X82700000Y13330000D01*
X82300000Y13330000D02*
X81200000Y13330000D01*
X80800000Y13330000D02*
X79700000Y13330000D01*
X79300000Y13330000D02*
X78200000Y13330000D01*
X77800000Y13330000D02*
X76700000Y13330000D01*
X76300000Y13330000D02*
X75200000Y13330000D01*
X74800000Y13330000D02*
X73800000Y13330000D01*
X73800000Y13330000D02*
X73800000Y14430000D01*
X73800000Y14830000D02*
X73800000Y15930000D01*
X73800000Y16330000D02*
X73800000Y17430000D01*
X73800000Y17830000D02*
X73800000Y18930000D01*
X73800000Y19330000D02*
X73800000Y20430000D01*
X73800000Y20830000D02*
X73800000Y21930000D01*
X73800000Y22330000D02*
X73800000Y23430000D01*
X73800000Y23830000D02*
X73800000Y24930000D01*
X73800000Y25330000D02*
X73800000Y26430000D01*
X73800000Y26830000D02*
X73800000Y27930000D01*
X73800000Y28330000D02*
X73800000Y29430000D01*
X73800000Y29830000D02*
X73800000Y29830000D01*
%TO.C,R9*%
X224790000Y140970000D02*
X224790000Y138960000D01*
X225590000Y138960000D02*
X223990000Y138960000D01*
X223990000Y138960000D02*
X223990000Y135360000D01*
X225590000Y135360000D02*
X225590000Y138960000D01*
X223990000Y135360000D02*
X225590000Y135360000D01*
X224790000Y133350000D02*
X224790000Y135360000D01*
%TO.C,R10*%
X172320000Y132080000D02*
X172320000Y130070000D01*
X173120000Y130070000D02*
X171520000Y130070000D01*
X171520000Y130070000D02*
X171520000Y126470000D01*
X173120000Y126470000D02*
X173120000Y130070000D01*
X171520000Y126470000D02*
X173120000Y126470000D01*
X172320000Y124460000D02*
X172320000Y126470000D01*
%TO.C,C2*%
X52865000Y138660000D02*
X51265000Y138660000D01*
X51265000Y138660000D02*
X51265000Y125500000D01*
X52865000Y125500000D02*
X52865000Y138660000D01*
X51265000Y125500000D02*
X52865000Y125500000D01*
D11*
%TO.C,SW26*%
X113150000Y29080000D02*
X128150000Y29080000D01*
X113150000Y14080000D02*
X113150000Y29080000D01*
X128150000Y29080000D02*
X128150000Y14080000D01*
X128150000Y14080000D02*
X113150000Y14080000D01*
D10*
X111900000Y29830000D02*
X113000000Y29830000D01*
X113400000Y29830000D02*
X114500000Y29830000D01*
X114900000Y29830000D02*
X116000000Y29830000D01*
X116400000Y29830000D02*
X117500000Y29830000D01*
X117900000Y29830000D02*
X119000000Y29830000D01*
X119400000Y29830000D02*
X120500000Y29830000D01*
X120900000Y29830000D02*
X122000000Y29830000D01*
X122400000Y29830000D02*
X123500000Y29830000D01*
X123900000Y29830000D02*
X125000000Y29830000D01*
X125400000Y29830000D02*
X126500000Y29830000D01*
X126900000Y29830000D02*
X128000000Y29830000D01*
X128400000Y29830000D02*
X129400000Y29830000D01*
X129400000Y29830000D02*
X129400000Y28730000D01*
X129400000Y28330000D02*
X129400000Y27230000D01*
X129400000Y26830000D02*
X129400000Y25730000D01*
X129400000Y25330000D02*
X129400000Y24230000D01*
X129400000Y23830000D02*
X129400000Y22730000D01*
X129400000Y22330000D02*
X129400000Y21230000D01*
X129400000Y20830000D02*
X129400000Y19730000D01*
X129400000Y19330000D02*
X129400000Y18230000D01*
X129400000Y17830000D02*
X129400000Y16730000D01*
X129400000Y16330000D02*
X129400000Y15230000D01*
X129400000Y14830000D02*
X129400000Y13730000D01*
X129400000Y13330000D02*
X129400000Y13330000D01*
X129400000Y13330000D02*
X128300000Y13330000D01*
X127900000Y13330000D02*
X126800000Y13330000D01*
X126400000Y13330000D02*
X125300000Y13330000D01*
X124900000Y13330000D02*
X123800000Y13330000D01*
X123400000Y13330000D02*
X122300000Y13330000D01*
X121900000Y13330000D02*
X120800000Y13330000D01*
X120400000Y13330000D02*
X119300000Y13330000D01*
X118900000Y13330000D02*
X117800000Y13330000D01*
X117400000Y13330000D02*
X116300000Y13330000D01*
X115900000Y13330000D02*
X114800000Y13330000D01*
X114400000Y13330000D02*
X113300000Y13330000D01*
X112900000Y13330000D02*
X111900000Y13330000D01*
X111900000Y13330000D02*
X111900000Y14430000D01*
X111900000Y14830000D02*
X111900000Y15930000D01*
X111900000Y16330000D02*
X111900000Y17430000D01*
X111900000Y17830000D02*
X111900000Y18930000D01*
X111900000Y19330000D02*
X111900000Y20430000D01*
X111900000Y20830000D02*
X111900000Y21930000D01*
X111900000Y22330000D02*
X111900000Y23430000D01*
X111900000Y23830000D02*
X111900000Y24930000D01*
X111900000Y25330000D02*
X111900000Y26430000D01*
X111900000Y26830000D02*
X111900000Y27930000D01*
X111900000Y28330000D02*
X111900000Y29430000D01*
X111900000Y29830000D02*
X111900000Y29830000D01*
D11*
%TO.C,SW13*%
X56000000Y48130000D02*
X71000000Y48130000D01*
X56000000Y33130000D02*
X56000000Y48130000D01*
X71000000Y48130000D02*
X71000000Y33130000D01*
X71000000Y33130000D02*
X56000000Y33130000D01*
D10*
X54750000Y48880000D02*
X55850000Y48880000D01*
X56250000Y48880000D02*
X57350000Y48880000D01*
X57750000Y48880000D02*
X58850000Y48880000D01*
X59250000Y48880000D02*
X60350000Y48880000D01*
X60750000Y48880000D02*
X61850000Y48880000D01*
X62250000Y48880000D02*
X63350000Y48880000D01*
X63750000Y48880000D02*
X64850000Y48880000D01*
X65250000Y48880000D02*
X66350000Y48880000D01*
X66750000Y48880000D02*
X67850000Y48880000D01*
X68250000Y48880000D02*
X69350000Y48880000D01*
X69750000Y48880000D02*
X70850000Y48880000D01*
X71250000Y48880000D02*
X72250000Y48880000D01*
X72250000Y48880000D02*
X72250000Y47780000D01*
X72250000Y47380000D02*
X72250000Y46280000D01*
X72250000Y45880000D02*
X72250000Y44780000D01*
X72250000Y44380000D02*
X72250000Y43280000D01*
X72250000Y42880000D02*
X72250000Y41780000D01*
X72250000Y41380000D02*
X72250000Y40280000D01*
X72250000Y39880000D02*
X72250000Y38780000D01*
X72250000Y38380000D02*
X72250000Y37280000D01*
X72250000Y36880000D02*
X72250000Y35780000D01*
X72250000Y35380000D02*
X72250000Y34280000D01*
X72250000Y33880000D02*
X72250000Y32780000D01*
X72250000Y32380000D02*
X72250000Y32380000D01*
X72250000Y32380000D02*
X71150000Y32380000D01*
X70750000Y32380000D02*
X69650000Y32380000D01*
X69250000Y32380000D02*
X68150000Y32380000D01*
X67750000Y32380000D02*
X66650000Y32380000D01*
X66250000Y32380000D02*
X65150000Y32380000D01*
X64750000Y32380000D02*
X63650000Y32380000D01*
X63250000Y32380000D02*
X62150000Y32380000D01*
X61750000Y32380000D02*
X60650000Y32380000D01*
X60250000Y32380000D02*
X59150000Y32380000D01*
X58750000Y32380000D02*
X57650000Y32380000D01*
X57250000Y32380000D02*
X56150000Y32380000D01*
X55750000Y32380000D02*
X54750000Y32380000D01*
X54750000Y32380000D02*
X54750000Y33480000D01*
X54750000Y33880000D02*
X54750000Y34980000D01*
X54750000Y35380000D02*
X54750000Y36480000D01*
X54750000Y36880000D02*
X54750000Y37980000D01*
X54750000Y38380000D02*
X54750000Y39480000D01*
X54750000Y39880000D02*
X54750000Y40980000D01*
X54750000Y41380000D02*
X54750000Y42480000D01*
X54750000Y42880000D02*
X54750000Y43980000D01*
X54750000Y44380000D02*
X54750000Y45480000D01*
X54750000Y45880000D02*
X54750000Y46980000D01*
X54750000Y47380000D02*
X54750000Y48480000D01*
X54750000Y48880000D02*
X54750000Y48880000D01*
%TO.C,J2*%
X219710000Y162555000D02*
X218440000Y163825000D01*
X233680000Y162555000D02*
X219710000Y162555000D01*
X218440000Y163825000D02*
X218440000Y167635000D01*
X218440000Y167635000D02*
X233680000Y167635000D01*
X233680000Y167635000D02*
X233680000Y162555000D01*
%TO.C,J7*%
X228600000Y119380000D02*
X269600000Y119380000D01*
X228600000Y95380000D02*
X228600000Y119380000D01*
X263600000Y107380000D02*
X269600000Y101380000D01*
X269600000Y119380000D02*
X269600000Y95380000D01*
X269600000Y113380000D02*
X263600000Y107380000D01*
X269600000Y95380000D02*
X228600000Y95380000D01*
D11*
%TO.C,SW39*%
X203320000Y86230000D02*
X218320000Y86230000D01*
X203320000Y71230000D02*
X203320000Y86230000D01*
X218320000Y86230000D02*
X218320000Y71230000D01*
X218320000Y71230000D02*
X203320000Y71230000D01*
D10*
X202070000Y86980000D02*
X203170000Y86980000D01*
X203570000Y86980000D02*
X204670000Y86980000D01*
X205070000Y86980000D02*
X206170000Y86980000D01*
X206570000Y86980000D02*
X207670000Y86980000D01*
X208070000Y86980000D02*
X209170000Y86980000D01*
X209570000Y86980000D02*
X210670000Y86980000D01*
X211070000Y86980000D02*
X212170000Y86980000D01*
X212570000Y86980000D02*
X213670000Y86980000D01*
X214070000Y86980000D02*
X215170000Y86980000D01*
X215570000Y86980000D02*
X216670000Y86980000D01*
X217070000Y86980000D02*
X218170000Y86980000D01*
X218570000Y86980000D02*
X219570000Y86980000D01*
X219570000Y86980000D02*
X219570000Y85880000D01*
X219570000Y85480000D02*
X219570000Y84380000D01*
X219570000Y83980000D02*
X219570000Y82880000D01*
X219570000Y82480000D02*
X219570000Y81380000D01*
X219570000Y80980000D02*
X219570000Y79880000D01*
X219570000Y79480000D02*
X219570000Y78380000D01*
X219570000Y77980000D02*
X219570000Y76880000D01*
X219570000Y76480000D02*
X219570000Y75380000D01*
X219570000Y74980000D02*
X219570000Y73880000D01*
X219570000Y73480000D02*
X219570000Y72380000D01*
X219570000Y71980000D02*
X219570000Y70880000D01*
X219570000Y70480000D02*
X219570000Y70480000D01*
X219570000Y70480000D02*
X218470000Y70480000D01*
X218070000Y70480000D02*
X216970000Y70480000D01*
X216570000Y70480000D02*
X215470000Y70480000D01*
X215070000Y70480000D02*
X213970000Y70480000D01*
X213570000Y70480000D02*
X212470000Y70480000D01*
X212070000Y70480000D02*
X210970000Y70480000D01*
X210570000Y70480000D02*
X209470000Y70480000D01*
X209070000Y70480000D02*
X207970000Y70480000D01*
X207570000Y70480000D02*
X206470000Y70480000D01*
X206070000Y70480000D02*
X204970000Y70480000D01*
X204570000Y70480000D02*
X203470000Y70480000D01*
X203070000Y70480000D02*
X202070000Y70480000D01*
X202070000Y70480000D02*
X202070000Y71580000D01*
X202070000Y71980000D02*
X202070000Y73080000D01*
X202070000Y73480000D02*
X202070000Y74580000D01*
X202070000Y74980000D02*
X202070000Y76080000D01*
X202070000Y76480000D02*
X202070000Y77580000D01*
X202070000Y77980000D02*
X202070000Y79080000D01*
X202070000Y79480000D02*
X202070000Y80580000D01*
X202070000Y80980000D02*
X202070000Y82080000D01*
X202070000Y82480000D02*
X202070000Y83580000D01*
X202070000Y83980000D02*
X202070000Y85080000D01*
X202070000Y85480000D02*
X202070000Y86580000D01*
X202070000Y86980000D02*
X202070000Y86980000D01*
D11*
%TO.C,SW50*%
X241420000Y29080000D02*
X256420000Y29080000D01*
X241420000Y14080000D02*
X241420000Y29080000D01*
X256420000Y29080000D02*
X256420000Y14080000D01*
X256420000Y14080000D02*
X241420000Y14080000D01*
D10*
X240170000Y29830000D02*
X241270000Y29830000D01*
X241670000Y29830000D02*
X242770000Y29830000D01*
X243170000Y29830000D02*
X244270000Y29830000D01*
X244670000Y29830000D02*
X245770000Y29830000D01*
X246170000Y29830000D02*
X247270000Y29830000D01*
X247670000Y29830000D02*
X248770000Y29830000D01*
X249170000Y29830000D02*
X250270000Y29830000D01*
X250670000Y29830000D02*
X251770000Y29830000D01*
X252170000Y29830000D02*
X253270000Y29830000D01*
X253670000Y29830000D02*
X254770000Y29830000D01*
X255170000Y29830000D02*
X256270000Y29830000D01*
X256670000Y29830000D02*
X257670000Y29830000D01*
X257670000Y29830000D02*
X257670000Y28730000D01*
X257670000Y28330000D02*
X257670000Y27230000D01*
X257670000Y26830000D02*
X257670000Y25730000D01*
X257670000Y25330000D02*
X257670000Y24230000D01*
X257670000Y23830000D02*
X257670000Y22730000D01*
X257670000Y22330000D02*
X257670000Y21230000D01*
X257670000Y20830000D02*
X257670000Y19730000D01*
X257670000Y19330000D02*
X257670000Y18230000D01*
X257670000Y17830000D02*
X257670000Y16730000D01*
X257670000Y16330000D02*
X257670000Y15230000D01*
X257670000Y14830000D02*
X257670000Y13730000D01*
X257670000Y13330000D02*
X257670000Y13330000D01*
X257670000Y13330000D02*
X256570000Y13330000D01*
X256170000Y13330000D02*
X255070000Y13330000D01*
X254670000Y13330000D02*
X253570000Y13330000D01*
X253170000Y13330000D02*
X252070000Y13330000D01*
X251670000Y13330000D02*
X250570000Y13330000D01*
X250170000Y13330000D02*
X249070000Y13330000D01*
X248670000Y13330000D02*
X247570000Y13330000D01*
X247170000Y13330000D02*
X246070000Y13330000D01*
X245670000Y13330000D02*
X244570000Y13330000D01*
X244170000Y13330000D02*
X243070000Y13330000D01*
X242670000Y13330000D02*
X241570000Y13330000D01*
X241170000Y13330000D02*
X240170000Y13330000D01*
X240170000Y13330000D02*
X240170000Y14430000D01*
X240170000Y14830000D02*
X240170000Y15930000D01*
X240170000Y16330000D02*
X240170000Y17430000D01*
X240170000Y17830000D02*
X240170000Y18930000D01*
X240170000Y19330000D02*
X240170000Y20430000D01*
X240170000Y20830000D02*
X240170000Y21930000D01*
X240170000Y22330000D02*
X240170000Y23430000D01*
X240170000Y23830000D02*
X240170000Y24930000D01*
X240170000Y25330000D02*
X240170000Y26430000D01*
X240170000Y26830000D02*
X240170000Y27930000D01*
X240170000Y28330000D02*
X240170000Y29430000D01*
X240170000Y29830000D02*
X240170000Y29830000D01*
%TO.C,C5*%
X252480000Y161020000D02*
X252480000Y159020000D01*
X252480000Y159020000D02*
X255480000Y159020000D01*
X255480000Y161020000D02*
X252480000Y161020000D01*
X255480000Y159020000D02*
X255480000Y161020000D01*
D11*
%TO.C,SW5*%
X17900000Y48130000D02*
X32900000Y48130000D01*
X17900000Y33130000D02*
X17900000Y48130000D01*
X32900000Y48130000D02*
X32900000Y33130000D01*
X32900000Y33130000D02*
X17900000Y33130000D01*
D10*
X16650000Y48880000D02*
X17750000Y48880000D01*
X18150000Y48880000D02*
X19250000Y48880000D01*
X19650000Y48880000D02*
X20750000Y48880000D01*
X21150000Y48880000D02*
X22250000Y48880000D01*
X22650000Y48880000D02*
X23750000Y48880000D01*
X24150000Y48880000D02*
X25250000Y48880000D01*
X25650000Y48880000D02*
X26750000Y48880000D01*
X27150000Y48880000D02*
X28250000Y48880000D01*
X28650000Y48880000D02*
X29750000Y48880000D01*
X30150000Y48880000D02*
X31250000Y48880000D01*
X31650000Y48880000D02*
X32750000Y48880000D01*
X33150000Y48880000D02*
X34150000Y48880000D01*
X34150000Y48880000D02*
X34150000Y47780000D01*
X34150000Y47380000D02*
X34150000Y46280000D01*
X34150000Y45880000D02*
X34150000Y44780000D01*
X34150000Y44380000D02*
X34150000Y43280000D01*
X34150000Y42880000D02*
X34150000Y41780000D01*
X34150000Y41380000D02*
X34150000Y40280000D01*
X34150000Y39880000D02*
X34150000Y38780000D01*
X34150000Y38380000D02*
X34150000Y37280000D01*
X34150000Y36880000D02*
X34150000Y35780000D01*
X34150000Y35380000D02*
X34150000Y34280000D01*
X34150000Y33880000D02*
X34150000Y32780000D01*
X34150000Y32380000D02*
X34150000Y32380000D01*
X34150000Y32380000D02*
X33050000Y32380000D01*
X32650000Y32380000D02*
X31550000Y32380000D01*
X31150000Y32380000D02*
X30050000Y32380000D01*
X29650000Y32380000D02*
X28550000Y32380000D01*
X28150000Y32380000D02*
X27050000Y32380000D01*
X26650000Y32380000D02*
X25550000Y32380000D01*
X25150000Y32380000D02*
X24050000Y32380000D01*
X23650000Y32380000D02*
X22550000Y32380000D01*
X22150000Y32380000D02*
X21050000Y32380000D01*
X20650000Y32380000D02*
X19550000Y32380000D01*
X19150000Y32380000D02*
X18050000Y32380000D01*
X17650000Y32380000D02*
X16650000Y32380000D01*
X16650000Y32380000D02*
X16650000Y33480000D01*
X16650000Y33880000D02*
X16650000Y34980000D01*
X16650000Y35380000D02*
X16650000Y36480000D01*
X16650000Y36880000D02*
X16650000Y37980000D01*
X16650000Y38380000D02*
X16650000Y39480000D01*
X16650000Y39880000D02*
X16650000Y40980000D01*
X16650000Y41380000D02*
X16650000Y42480000D01*
X16650000Y42880000D02*
X16650000Y43980000D01*
X16650000Y44380000D02*
X16650000Y45480000D01*
X16650000Y45880000D02*
X16650000Y46980000D01*
X16650000Y47380000D02*
X16650000Y48480000D01*
X16650000Y48880000D02*
X16650000Y48880000D01*
%TO.C,J1*%
X248990000Y156610000D02*
X247990000Y155610000D01*
X248990000Y169910000D02*
X248990000Y156610000D01*
X239990000Y155610000D02*
X247990000Y155610000D01*
X239990000Y155610000D02*
X239990000Y169910000D01*
X239990000Y169910000D02*
X248990000Y169910000D01*
D11*
%TO.C,SW24*%
X113150000Y67180000D02*
X128150000Y67180000D01*
X113150000Y52180000D02*
X113150000Y67180000D01*
X128150000Y67180000D02*
X128150000Y52180000D01*
X128150000Y52180000D02*
X113150000Y52180000D01*
D10*
X111900000Y67930000D02*
X113000000Y67930000D01*
X113400000Y67930000D02*
X114500000Y67930000D01*
X114900000Y67930000D02*
X116000000Y67930000D01*
X116400000Y67930000D02*
X117500000Y67930000D01*
X117900000Y67930000D02*
X119000000Y67930000D01*
X119400000Y67930000D02*
X120500000Y67930000D01*
X120900000Y67930000D02*
X122000000Y67930000D01*
X122400000Y67930000D02*
X123500000Y67930000D01*
X123900000Y67930000D02*
X125000000Y67930000D01*
X125400000Y67930000D02*
X126500000Y67930000D01*
X126900000Y67930000D02*
X128000000Y67930000D01*
X128400000Y67930000D02*
X129400000Y67930000D01*
X129400000Y67930000D02*
X129400000Y66830000D01*
X129400000Y66430000D02*
X129400000Y65330000D01*
X129400000Y64930000D02*
X129400000Y63830000D01*
X129400000Y63430000D02*
X129400000Y62330000D01*
X129400000Y61930000D02*
X129400000Y60830000D01*
X129400000Y60430000D02*
X129400000Y59330000D01*
X129400000Y58930000D02*
X129400000Y57830000D01*
X129400000Y57430000D02*
X129400000Y56330000D01*
X129400000Y55930000D02*
X129400000Y54830000D01*
X129400000Y54430000D02*
X129400000Y53330000D01*
X129400000Y52930000D02*
X129400000Y51830000D01*
X129400000Y51430000D02*
X129400000Y51430000D01*
X129400000Y51430000D02*
X128300000Y51430000D01*
X127900000Y51430000D02*
X126800000Y51430000D01*
X126400000Y51430000D02*
X125300000Y51430000D01*
X124900000Y51430000D02*
X123800000Y51430000D01*
X123400000Y51430000D02*
X122300000Y51430000D01*
X121900000Y51430000D02*
X120800000Y51430000D01*
X120400000Y51430000D02*
X119300000Y51430000D01*
X118900000Y51430000D02*
X117800000Y51430000D01*
X117400000Y51430000D02*
X116300000Y51430000D01*
X115900000Y51430000D02*
X114800000Y51430000D01*
X114400000Y51430000D02*
X113300000Y51430000D01*
X112900000Y51430000D02*
X111900000Y51430000D01*
X111900000Y51430000D02*
X111900000Y52530000D01*
X111900000Y52930000D02*
X111900000Y54030000D01*
X111900000Y54430000D02*
X111900000Y55530000D01*
X111900000Y55930000D02*
X111900000Y57030000D01*
X111900000Y57430000D02*
X111900000Y58530000D01*
X111900000Y58930000D02*
X111900000Y60030000D01*
X111900000Y60430000D02*
X111900000Y61530000D01*
X111900000Y61930000D02*
X111900000Y63030000D01*
X111900000Y63430000D02*
X111900000Y64530000D01*
X111900000Y64930000D02*
X111900000Y66030000D01*
X111900000Y66430000D02*
X111900000Y67530000D01*
X111900000Y67930000D02*
X111900000Y67930000D01*
%TO.C,C12*%
X115100000Y113280000D02*
X113500000Y113280000D01*
X113500000Y113280000D02*
X113500000Y100120000D01*
X115100000Y100120000D02*
X115100000Y113280000D01*
X113500000Y100120000D02*
X115100000Y100120000D01*
%TO.C,REG1*%
X251540000Y157145000D02*
X251540000Y152745000D01*
X251540000Y155875000D02*
X261540000Y155875000D01*
X251540000Y152745000D02*
X261540000Y152745000D01*
X254690000Y157145000D02*
X254690000Y155875000D01*
X258390000Y157145000D02*
X258390000Y155875000D01*
X261540000Y157145000D02*
X251540000Y157145000D01*
X261540000Y152745000D02*
X261540000Y157145000D01*
%TO.C,C13*%
X130340000Y113280000D02*
X128740000Y113280000D01*
X128740000Y113280000D02*
X128740000Y100120000D01*
X130340000Y100120000D02*
X130340000Y113280000D01*
X128740000Y100120000D02*
X130340000Y100120000D01*
D11*
%TO.C,SW33*%
X165220000Y48130000D02*
X180220000Y48130000D01*
X165220000Y33130000D02*
X165220000Y48130000D01*
X180220000Y48130000D02*
X180220000Y33130000D01*
X180220000Y33130000D02*
X165220000Y33130000D01*
D10*
X163970000Y48880000D02*
X165070000Y48880000D01*
X165470000Y48880000D02*
X166570000Y48880000D01*
X166970000Y48880000D02*
X168070000Y48880000D01*
X168470000Y48880000D02*
X169570000Y48880000D01*
X169970000Y48880000D02*
X171070000Y48880000D01*
X171470000Y48880000D02*
X172570000Y48880000D01*
X172970000Y48880000D02*
X174070000Y48880000D01*
X174470000Y48880000D02*
X175570000Y48880000D01*
X175970000Y48880000D02*
X177070000Y48880000D01*
X177470000Y48880000D02*
X178570000Y48880000D01*
X178970000Y48880000D02*
X180070000Y48880000D01*
X180470000Y48880000D02*
X181470000Y48880000D01*
X181470000Y48880000D02*
X181470000Y47780000D01*
X181470000Y47380000D02*
X181470000Y46280000D01*
X181470000Y45880000D02*
X181470000Y44780000D01*
X181470000Y44380000D02*
X181470000Y43280000D01*
X181470000Y42880000D02*
X181470000Y41780000D01*
X181470000Y41380000D02*
X181470000Y40280000D01*
X181470000Y39880000D02*
X181470000Y38780000D01*
X181470000Y38380000D02*
X181470000Y37280000D01*
X181470000Y36880000D02*
X181470000Y35780000D01*
X181470000Y35380000D02*
X181470000Y34280000D01*
X181470000Y33880000D02*
X181470000Y32780000D01*
X181470000Y32380000D02*
X181470000Y32380000D01*
X181470000Y32380000D02*
X180370000Y32380000D01*
X179970000Y32380000D02*
X178870000Y32380000D01*
X178470000Y32380000D02*
X177370000Y32380000D01*
X176970000Y32380000D02*
X175870000Y32380000D01*
X175470000Y32380000D02*
X174370000Y32380000D01*
X173970000Y32380000D02*
X172870000Y32380000D01*
X172470000Y32380000D02*
X171370000Y32380000D01*
X170970000Y32380000D02*
X169870000Y32380000D01*
X169470000Y32380000D02*
X168370000Y32380000D01*
X167970000Y32380000D02*
X166870000Y32380000D01*
X166470000Y32380000D02*
X165370000Y32380000D01*
X164970000Y32380000D02*
X163970000Y32380000D01*
X163970000Y32380000D02*
X163970000Y33480000D01*
X163970000Y33880000D02*
X163970000Y34980000D01*
X163970000Y35380000D02*
X163970000Y36480000D01*
X163970000Y36880000D02*
X163970000Y37980000D01*
X163970000Y38380000D02*
X163970000Y39480000D01*
X163970000Y39880000D02*
X163970000Y40980000D01*
X163970000Y41380000D02*
X163970000Y42480000D01*
X163970000Y42880000D02*
X163970000Y43980000D01*
X163970000Y44380000D02*
X163970000Y45480000D01*
X163970000Y45880000D02*
X163970000Y46980000D01*
X163970000Y47380000D02*
X163970000Y48480000D01*
X163970000Y48880000D02*
X163970000Y48880000D01*
%TO.C,U5*%
X109210000Y115625000D02*
X109210000Y97725000D01*
X109210000Y97725000D02*
X119370000Y97725000D01*
X111115000Y114565000D02*
X112115000Y115565000D01*
X111115000Y97785000D02*
X111115000Y114565000D01*
X112115000Y115565000D02*
X117465000Y115565000D01*
X117465000Y115565000D02*
X117465000Y97785000D01*
X117465000Y97785000D02*
X111115000Y97785000D01*
X119370000Y115625000D02*
X109210000Y115625000D01*
X119370000Y97725000D02*
X119370000Y115625000D01*
%TO.C,C26*%
X139450000Y28930000D02*
X139450000Y26930000D01*
X139450000Y26930000D02*
X142450000Y26930000D01*
X142450000Y28930000D02*
X139450000Y28930000D01*
X142450000Y26930000D02*
X142450000Y28930000D01*
D11*
%TO.C,SW34*%
X165220000Y29080000D02*
X180220000Y29080000D01*
X165220000Y14080000D02*
X165220000Y29080000D01*
X180220000Y29080000D02*
X180220000Y14080000D01*
X180220000Y14080000D02*
X165220000Y14080000D01*
D10*
X163970000Y29830000D02*
X165070000Y29830000D01*
X165470000Y29830000D02*
X166570000Y29830000D01*
X166970000Y29830000D02*
X168070000Y29830000D01*
X168470000Y29830000D02*
X169570000Y29830000D01*
X169970000Y29830000D02*
X171070000Y29830000D01*
X171470000Y29830000D02*
X172570000Y29830000D01*
X172970000Y29830000D02*
X174070000Y29830000D01*
X174470000Y29830000D02*
X175570000Y29830000D01*
X175970000Y29830000D02*
X177070000Y29830000D01*
X177470000Y29830000D02*
X178570000Y29830000D01*
X178970000Y29830000D02*
X180070000Y29830000D01*
X180470000Y29830000D02*
X181470000Y29830000D01*
X181470000Y29830000D02*
X181470000Y28730000D01*
X181470000Y28330000D02*
X181470000Y27230000D01*
X181470000Y26830000D02*
X181470000Y25730000D01*
X181470000Y25330000D02*
X181470000Y24230000D01*
X181470000Y23830000D02*
X181470000Y22730000D01*
X181470000Y22330000D02*
X181470000Y21230000D01*
X181470000Y20830000D02*
X181470000Y19730000D01*
X181470000Y19330000D02*
X181470000Y18230000D01*
X181470000Y17830000D02*
X181470000Y16730000D01*
X181470000Y16330000D02*
X181470000Y15230000D01*
X181470000Y14830000D02*
X181470000Y13730000D01*
X181470000Y13330000D02*
X181470000Y13330000D01*
X181470000Y13330000D02*
X180370000Y13330000D01*
X179970000Y13330000D02*
X178870000Y13330000D01*
X178470000Y13330000D02*
X177370000Y13330000D01*
X176970000Y13330000D02*
X175870000Y13330000D01*
X175470000Y13330000D02*
X174370000Y13330000D01*
X173970000Y13330000D02*
X172870000Y13330000D01*
X172470000Y13330000D02*
X171370000Y13330000D01*
X170970000Y13330000D02*
X169870000Y13330000D01*
X169470000Y13330000D02*
X168370000Y13330000D01*
X167970000Y13330000D02*
X166870000Y13330000D01*
X166470000Y13330000D02*
X165370000Y13330000D01*
X164970000Y13330000D02*
X163970000Y13330000D01*
X163970000Y13330000D02*
X163970000Y14430000D01*
X163970000Y14830000D02*
X163970000Y15930000D01*
X163970000Y16330000D02*
X163970000Y17430000D01*
X163970000Y17830000D02*
X163970000Y18930000D01*
X163970000Y19330000D02*
X163970000Y20430000D01*
X163970000Y20830000D02*
X163970000Y21930000D01*
X163970000Y22330000D02*
X163970000Y23430000D01*
X163970000Y23830000D02*
X163970000Y24930000D01*
X163970000Y25330000D02*
X163970000Y26430000D01*
X163970000Y26830000D02*
X163970000Y27930000D01*
X163970000Y28330000D02*
X163970000Y29430000D01*
X163970000Y29830000D02*
X163970000Y29830000D01*
%TO.C,Q1*%
X170680000Y118590000D02*
X167180000Y118590000D01*
X168910000Y114360000D02*
G75*
G03*
X170663625Y118593625I0J2480000D01*
G01*
X167156375Y118593625D02*
G75*
G03*
X168910000Y114360000I1753625J-1753625D01*
G01*
%TO.C,R6*%
X246380000Y128270000D02*
X246380000Y125730000D01*
X247180000Y128270000D02*
G75*
G03*
X247180000Y128270000I-800000J0D01*
G01*
%TO.C,C7*%
X99860000Y147570000D02*
X98260000Y147570000D01*
X98260000Y147570000D02*
X98260000Y134410000D01*
X99860000Y134410000D02*
X99860000Y147570000D01*
X98260000Y134410000D02*
X99860000Y134410000D01*
%TO.C,J14*%
X230505000Y140970000D02*
X229870000Y141605000D01*
X234950000Y140970000D02*
X230505000Y140970000D01*
X229870000Y141605000D02*
X229870000Y143510000D01*
X229870000Y143510000D02*
X234950000Y143510000D01*
X234950000Y143510000D02*
X234950000Y140970000D01*
D11*
%TO.C,SW30*%
X146170000Y29080000D02*
X161170000Y29080000D01*
X146170000Y14080000D02*
X146170000Y29080000D01*
X161170000Y29080000D02*
X161170000Y14080000D01*
X161170000Y14080000D02*
X146170000Y14080000D01*
D10*
X144920000Y29830000D02*
X146020000Y29830000D01*
X146420000Y29830000D02*
X147520000Y29830000D01*
X147920000Y29830000D02*
X149020000Y29830000D01*
X149420000Y29830000D02*
X150520000Y29830000D01*
X150920000Y29830000D02*
X152020000Y29830000D01*
X152420000Y29830000D02*
X153520000Y29830000D01*
X153920000Y29830000D02*
X155020000Y29830000D01*
X155420000Y29830000D02*
X156520000Y29830000D01*
X156920000Y29830000D02*
X158020000Y29830000D01*
X158420000Y29830000D02*
X159520000Y29830000D01*
X159920000Y29830000D02*
X161020000Y29830000D01*
X161420000Y29830000D02*
X162420000Y29830000D01*
X162420000Y29830000D02*
X162420000Y28730000D01*
X162420000Y28330000D02*
X162420000Y27230000D01*
X162420000Y26830000D02*
X162420000Y25730000D01*
X162420000Y25330000D02*
X162420000Y24230000D01*
X162420000Y23830000D02*
X162420000Y22730000D01*
X162420000Y22330000D02*
X162420000Y21230000D01*
X162420000Y20830000D02*
X162420000Y19730000D01*
X162420000Y19330000D02*
X162420000Y18230000D01*
X162420000Y17830000D02*
X162420000Y16730000D01*
X162420000Y16330000D02*
X162420000Y15230000D01*
X162420000Y14830000D02*
X162420000Y13730000D01*
X162420000Y13330000D02*
X162420000Y13330000D01*
X162420000Y13330000D02*
X161320000Y13330000D01*
X160920000Y13330000D02*
X159820000Y13330000D01*
X159420000Y13330000D02*
X158320000Y13330000D01*
X157920000Y13330000D02*
X156820000Y13330000D01*
X156420000Y13330000D02*
X155320000Y13330000D01*
X154920000Y13330000D02*
X153820000Y13330000D01*
X153420000Y13330000D02*
X152320000Y13330000D01*
X151920000Y13330000D02*
X150820000Y13330000D01*
X150420000Y13330000D02*
X149320000Y13330000D01*
X148920000Y13330000D02*
X147820000Y13330000D01*
X147420000Y13330000D02*
X146320000Y13330000D01*
X145920000Y13330000D02*
X144920000Y13330000D01*
X144920000Y13330000D02*
X144920000Y14430000D01*
X144920000Y14830000D02*
X144920000Y15930000D01*
X144920000Y16330000D02*
X144920000Y17430000D01*
X144920000Y17830000D02*
X144920000Y18930000D01*
X144920000Y19330000D02*
X144920000Y20430000D01*
X144920000Y20830000D02*
X144920000Y21930000D01*
X144920000Y22330000D02*
X144920000Y23430000D01*
X144920000Y23830000D02*
X144920000Y24930000D01*
X144920000Y25330000D02*
X144920000Y26430000D01*
X144920000Y26830000D02*
X144920000Y27930000D01*
X144920000Y28330000D02*
X144920000Y29430000D01*
X144920000Y29830000D02*
X144920000Y29830000D01*
%TO.C,R16*%
X182480000Y132080000D02*
X182480000Y130070000D01*
X183280000Y130070000D02*
X181680000Y130070000D01*
X181680000Y130070000D02*
X181680000Y126470000D01*
X183280000Y126470000D02*
X183280000Y130070000D01*
X181680000Y126470000D02*
X183280000Y126470000D01*
X182480000Y124460000D02*
X182480000Y126470000D01*
%TO.C,H1*%
X46990000Y162560000D02*
X46990000Y158750000D01*
X46990000Y158750000D02*
X50800000Y162560000D01*
X46990000Y101600000D02*
X50800000Y97790000D01*
X46990000Y97790000D02*
X46990000Y101600000D01*
X50800000Y162560000D02*
X46990000Y162560000D01*
X50800000Y97790000D02*
X46990000Y97790000D01*
X223520000Y162560000D02*
X227330000Y158750000D01*
X223520000Y97790000D02*
X227330000Y97790000D01*
X227330000Y162560000D02*
X223520000Y162560000D01*
X227330000Y158750000D02*
X227330000Y162560000D01*
X227330000Y101600000D02*
X223520000Y97790000D01*
X227330000Y97790000D02*
X227330000Y101600000D01*
X46990000Y162560000D02*
X226990000Y162560000D01*
X226990000Y162560000D02*
X226990000Y97560000D01*
X226990000Y97560000D02*
X46990000Y97560000D01*
X46990000Y97560000D02*
X46990000Y162560000D01*
X64490000Y157560000D02*
X209490000Y157560000D01*
X209490000Y157560000D02*
X209490000Y102560000D01*
X209490000Y102560000D02*
X64490000Y102560000D01*
X64490000Y102560000D02*
X64490000Y157560000D01*
X219490000Y150560000D02*
X223990000Y150560000D01*
X223990000Y150560000D02*
X223990000Y123060000D01*
X223990000Y123060000D02*
X219490000Y123060000D01*
X219490000Y123060000D02*
X219490000Y150560000D01*
X51490000Y157060000D02*
G75*
G03*
X51490000Y157060000I-2500000J0D01*
G01*
X51490000Y103060000D02*
G75*
G03*
X51490000Y103060000I-2500000J0D01*
G01*
X227490000Y157060000D02*
G75*
G03*
X227490000Y157060000I-2500000J0D01*
G01*
X227490000Y103060000D02*
G75*
G03*
X227490000Y103060000I-2500000J0D01*
G01*
%TO.C,U3*%
X124470000Y151185000D02*
X124470000Y125665000D01*
X124470000Y125665000D02*
X134630000Y125665000D01*
X126375000Y150125000D02*
X127375000Y151125000D01*
X126375000Y125725000D02*
X126375000Y150125000D01*
X127375000Y151125000D02*
X132725000Y151125000D01*
X132725000Y151125000D02*
X132725000Y125725000D01*
X132725000Y125725000D02*
X126375000Y125725000D01*
X134630000Y151185000D02*
X124470000Y151185000D01*
X134630000Y125665000D02*
X134630000Y151185000D01*
D11*
%TO.C,SW3*%
X17900000Y86230000D02*
X32900000Y86230000D01*
X17900000Y71230000D02*
X17900000Y86230000D01*
X32900000Y86230000D02*
X32900000Y71230000D01*
X32900000Y71230000D02*
X17900000Y71230000D01*
D10*
X16650000Y86980000D02*
X17750000Y86980000D01*
X18150000Y86980000D02*
X19250000Y86980000D01*
X19650000Y86980000D02*
X20750000Y86980000D01*
X21150000Y86980000D02*
X22250000Y86980000D01*
X22650000Y86980000D02*
X23750000Y86980000D01*
X24150000Y86980000D02*
X25250000Y86980000D01*
X25650000Y86980000D02*
X26750000Y86980000D01*
X27150000Y86980000D02*
X28250000Y86980000D01*
X28650000Y86980000D02*
X29750000Y86980000D01*
X30150000Y86980000D02*
X31250000Y86980000D01*
X31650000Y86980000D02*
X32750000Y86980000D01*
X33150000Y86980000D02*
X34150000Y86980000D01*
X34150000Y86980000D02*
X34150000Y85880000D01*
X34150000Y85480000D02*
X34150000Y84380000D01*
X34150000Y83980000D02*
X34150000Y82880000D01*
X34150000Y82480000D02*
X34150000Y81380000D01*
X34150000Y80980000D02*
X34150000Y79880000D01*
X34150000Y79480000D02*
X34150000Y78380000D01*
X34150000Y77980000D02*
X34150000Y76880000D01*
X34150000Y76480000D02*
X34150000Y75380000D01*
X34150000Y74980000D02*
X34150000Y73880000D01*
X34150000Y73480000D02*
X34150000Y72380000D01*
X34150000Y71980000D02*
X34150000Y70880000D01*
X34150000Y70480000D02*
X34150000Y70480000D01*
X34150000Y70480000D02*
X33050000Y70480000D01*
X32650000Y70480000D02*
X31550000Y70480000D01*
X31150000Y70480000D02*
X30050000Y70480000D01*
X29650000Y70480000D02*
X28550000Y70480000D01*
X28150000Y70480000D02*
X27050000Y70480000D01*
X26650000Y70480000D02*
X25550000Y70480000D01*
X25150000Y70480000D02*
X24050000Y70480000D01*
X23650000Y70480000D02*
X22550000Y70480000D01*
X22150000Y70480000D02*
X21050000Y70480000D01*
X20650000Y70480000D02*
X19550000Y70480000D01*
X19150000Y70480000D02*
X18050000Y70480000D01*
X17650000Y70480000D02*
X16650000Y70480000D01*
X16650000Y70480000D02*
X16650000Y71580000D01*
X16650000Y71980000D02*
X16650000Y73080000D01*
X16650000Y73480000D02*
X16650000Y74580000D01*
X16650000Y74980000D02*
X16650000Y76080000D01*
X16650000Y76480000D02*
X16650000Y77580000D01*
X16650000Y77980000D02*
X16650000Y79080000D01*
X16650000Y79480000D02*
X16650000Y80580000D01*
X16650000Y80980000D02*
X16650000Y82080000D01*
X16650000Y82480000D02*
X16650000Y83580000D01*
X16650000Y83980000D02*
X16650000Y85080000D01*
X16650000Y85480000D02*
X16650000Y86580000D01*
X16650000Y86980000D02*
X16650000Y86980000D01*
%TO.C,J6*%
X45070000Y95250000D02*
X44435000Y95885000D01*
X64755000Y95250000D02*
X45070000Y95250000D01*
X44435000Y95885000D02*
X44435000Y97790000D01*
X44435000Y97790000D02*
X64755000Y97790000D01*
X64755000Y97790000D02*
X64755000Y95250000D01*
D11*
%TO.C,SW40*%
X203320000Y67180000D02*
X218320000Y67180000D01*
X203320000Y52180000D02*
X203320000Y67180000D01*
X218320000Y67180000D02*
X218320000Y52180000D01*
X218320000Y52180000D02*
X203320000Y52180000D01*
D10*
X202070000Y67930000D02*
X203170000Y67930000D01*
X203570000Y67930000D02*
X204670000Y67930000D01*
X205070000Y67930000D02*
X206170000Y67930000D01*
X206570000Y67930000D02*
X207670000Y67930000D01*
X208070000Y67930000D02*
X209170000Y67930000D01*
X209570000Y67930000D02*
X210670000Y67930000D01*
X211070000Y67930000D02*
X212170000Y67930000D01*
X212570000Y67930000D02*
X213670000Y67930000D01*
X214070000Y67930000D02*
X215170000Y67930000D01*
X215570000Y67930000D02*
X216670000Y67930000D01*
X217070000Y67930000D02*
X218170000Y67930000D01*
X218570000Y67930000D02*
X219570000Y67930000D01*
X219570000Y67930000D02*
X219570000Y66830000D01*
X219570000Y66430000D02*
X219570000Y65330000D01*
X219570000Y64930000D02*
X219570000Y63830000D01*
X219570000Y63430000D02*
X219570000Y62330000D01*
X219570000Y61930000D02*
X219570000Y60830000D01*
X219570000Y60430000D02*
X219570000Y59330000D01*
X219570000Y58930000D02*
X219570000Y57830000D01*
X219570000Y57430000D02*
X219570000Y56330000D01*
X219570000Y55930000D02*
X219570000Y54830000D01*
X219570000Y54430000D02*
X219570000Y53330000D01*
X219570000Y52930000D02*
X219570000Y51830000D01*
X219570000Y51430000D02*
X219570000Y51430000D01*
X219570000Y51430000D02*
X218470000Y51430000D01*
X218070000Y51430000D02*
X216970000Y51430000D01*
X216570000Y51430000D02*
X215470000Y51430000D01*
X215070000Y51430000D02*
X213970000Y51430000D01*
X213570000Y51430000D02*
X212470000Y51430000D01*
X212070000Y51430000D02*
X210970000Y51430000D01*
X210570000Y51430000D02*
X209470000Y51430000D01*
X209070000Y51430000D02*
X207970000Y51430000D01*
X207570000Y51430000D02*
X206470000Y51430000D01*
X206070000Y51430000D02*
X204970000Y51430000D01*
X204570000Y51430000D02*
X203470000Y51430000D01*
X203070000Y51430000D02*
X202070000Y51430000D01*
X202070000Y51430000D02*
X202070000Y52530000D01*
X202070000Y52930000D02*
X202070000Y54030000D01*
X202070000Y54430000D02*
X202070000Y55530000D01*
X202070000Y55930000D02*
X202070000Y57030000D01*
X202070000Y57430000D02*
X202070000Y58530000D01*
X202070000Y58930000D02*
X202070000Y60030000D01*
X202070000Y60430000D02*
X202070000Y61530000D01*
X202070000Y61930000D02*
X202070000Y63030000D01*
X202070000Y63430000D02*
X202070000Y64530000D01*
X202070000Y64930000D02*
X202070000Y66030000D01*
X202070000Y66430000D02*
X202070000Y67530000D01*
X202070000Y67930000D02*
X202070000Y67930000D01*
%TO.C,J11*%
X253365000Y147320000D02*
X252730000Y147955000D01*
X257810000Y147320000D02*
X253365000Y147320000D01*
X252730000Y147955000D02*
X252730000Y149860000D01*
X252730000Y149860000D02*
X257810000Y149860000D01*
X257810000Y149860000D02*
X257810000Y147320000D01*
D11*
%TO.C,SW38*%
X184270000Y29080000D02*
X199270000Y29080000D01*
X184270000Y14080000D02*
X184270000Y29080000D01*
X199270000Y29080000D02*
X199270000Y14080000D01*
X199270000Y14080000D02*
X184270000Y14080000D01*
D10*
X183020000Y29830000D02*
X184120000Y29830000D01*
X184520000Y29830000D02*
X185620000Y29830000D01*
X186020000Y29830000D02*
X187120000Y29830000D01*
X187520000Y29830000D02*
X188620000Y29830000D01*
X189020000Y29830000D02*
X190120000Y29830000D01*
X190520000Y29830000D02*
X191620000Y29830000D01*
X192020000Y29830000D02*
X193120000Y29830000D01*
X193520000Y29830000D02*
X194620000Y29830000D01*
X195020000Y29830000D02*
X196120000Y29830000D01*
X196520000Y29830000D02*
X197620000Y29830000D01*
X198020000Y29830000D02*
X199120000Y29830000D01*
X199520000Y29830000D02*
X200520000Y29830000D01*
X200520000Y29830000D02*
X200520000Y28730000D01*
X200520000Y28330000D02*
X200520000Y27230000D01*
X200520000Y26830000D02*
X200520000Y25730000D01*
X200520000Y25330000D02*
X200520000Y24230000D01*
X200520000Y23830000D02*
X200520000Y22730000D01*
X200520000Y22330000D02*
X200520000Y21230000D01*
X200520000Y20830000D02*
X200520000Y19730000D01*
X200520000Y19330000D02*
X200520000Y18230000D01*
X200520000Y17830000D02*
X200520000Y16730000D01*
X200520000Y16330000D02*
X200520000Y15230000D01*
X200520000Y14830000D02*
X200520000Y13730000D01*
X200520000Y13330000D02*
X200520000Y13330000D01*
X200520000Y13330000D02*
X199420000Y13330000D01*
X199020000Y13330000D02*
X197920000Y13330000D01*
X197520000Y13330000D02*
X196420000Y13330000D01*
X196020000Y13330000D02*
X194920000Y13330000D01*
X194520000Y13330000D02*
X193420000Y13330000D01*
X193020000Y13330000D02*
X191920000Y13330000D01*
X191520000Y13330000D02*
X190420000Y13330000D01*
X190020000Y13330000D02*
X188920000Y13330000D01*
X188520000Y13330000D02*
X187420000Y13330000D01*
X187020000Y13330000D02*
X185920000Y13330000D01*
X185520000Y13330000D02*
X184420000Y13330000D01*
X184020000Y13330000D02*
X183020000Y13330000D01*
X183020000Y13330000D02*
X183020000Y14430000D01*
X183020000Y14830000D02*
X183020000Y15930000D01*
X183020000Y16330000D02*
X183020000Y17430000D01*
X183020000Y17830000D02*
X183020000Y18930000D01*
X183020000Y19330000D02*
X183020000Y20430000D01*
X183020000Y20830000D02*
X183020000Y21930000D01*
X183020000Y22330000D02*
X183020000Y23430000D01*
X183020000Y23830000D02*
X183020000Y24930000D01*
X183020000Y25330000D02*
X183020000Y26430000D01*
X183020000Y26830000D02*
X183020000Y27930000D01*
X183020000Y28330000D02*
X183020000Y29430000D01*
X183020000Y29830000D02*
X183020000Y29830000D01*
%TO.C,U6*%
X185430000Y149910000D02*
X185430000Y139630000D01*
X185430000Y139630000D02*
X195590000Y139630000D01*
X187335000Y148850000D02*
X188335000Y149850000D01*
X187335000Y139690000D02*
X187335000Y148850000D01*
X188335000Y149850000D02*
X193685000Y149850000D01*
X193685000Y149850000D02*
X193685000Y139690000D01*
X193685000Y139690000D02*
X187335000Y139690000D01*
X195590000Y149910000D02*
X185430000Y149910000D01*
X195590000Y139630000D02*
X195590000Y149910000D01*
D11*
%TO.C,SW28*%
X146170000Y67180000D02*
X161170000Y67180000D01*
X146170000Y52180000D02*
X146170000Y67180000D01*
X161170000Y67180000D02*
X161170000Y52180000D01*
X161170000Y52180000D02*
X146170000Y52180000D01*
D10*
X144920000Y67930000D02*
X146020000Y67930000D01*
X146420000Y67930000D02*
X147520000Y67930000D01*
X147920000Y67930000D02*
X149020000Y67930000D01*
X149420000Y67930000D02*
X150520000Y67930000D01*
X150920000Y67930000D02*
X152020000Y67930000D01*
X152420000Y67930000D02*
X153520000Y67930000D01*
X153920000Y67930000D02*
X155020000Y67930000D01*
X155420000Y67930000D02*
X156520000Y67930000D01*
X156920000Y67930000D02*
X158020000Y67930000D01*
X158420000Y67930000D02*
X159520000Y67930000D01*
X159920000Y67930000D02*
X161020000Y67930000D01*
X161420000Y67930000D02*
X162420000Y67930000D01*
X162420000Y67930000D02*
X162420000Y66830000D01*
X162420000Y66430000D02*
X162420000Y65330000D01*
X162420000Y64930000D02*
X162420000Y63830000D01*
X162420000Y63430000D02*
X162420000Y62330000D01*
X162420000Y61930000D02*
X162420000Y60830000D01*
X162420000Y60430000D02*
X162420000Y59330000D01*
X162420000Y58930000D02*
X162420000Y57830000D01*
X162420000Y57430000D02*
X162420000Y56330000D01*
X162420000Y55930000D02*
X162420000Y54830000D01*
X162420000Y54430000D02*
X162420000Y53330000D01*
X162420000Y52930000D02*
X162420000Y51830000D01*
X162420000Y51430000D02*
X162420000Y51430000D01*
X162420000Y51430000D02*
X161320000Y51430000D01*
X160920000Y51430000D02*
X159820000Y51430000D01*
X159420000Y51430000D02*
X158320000Y51430000D01*
X157920000Y51430000D02*
X156820000Y51430000D01*
X156420000Y51430000D02*
X155320000Y51430000D01*
X154920000Y51430000D02*
X153820000Y51430000D01*
X153420000Y51430000D02*
X152320000Y51430000D01*
X151920000Y51430000D02*
X150820000Y51430000D01*
X150420000Y51430000D02*
X149320000Y51430000D01*
X148920000Y51430000D02*
X147820000Y51430000D01*
X147420000Y51430000D02*
X146320000Y51430000D01*
X145920000Y51430000D02*
X144920000Y51430000D01*
X144920000Y51430000D02*
X144920000Y52530000D01*
X144920000Y52930000D02*
X144920000Y54030000D01*
X144920000Y54430000D02*
X144920000Y55530000D01*
X144920000Y55930000D02*
X144920000Y57030000D01*
X144920000Y57430000D02*
X144920000Y58530000D01*
X144920000Y58930000D02*
X144920000Y60030000D01*
X144920000Y60430000D02*
X144920000Y61530000D01*
X144920000Y61930000D02*
X144920000Y63030000D01*
X144920000Y63430000D02*
X144920000Y64530000D01*
X144920000Y64930000D02*
X144920000Y66030000D01*
X144920000Y66430000D02*
X144920000Y67530000D01*
X144920000Y67930000D02*
X144920000Y67930000D01*
%TO.C,C14*%
X206210000Y136930000D02*
X207810000Y136930000D01*
X207810000Y136930000D02*
X207810000Y150090000D01*
X206210000Y150090000D02*
X206210000Y136930000D01*
X207810000Y150090000D02*
X206210000Y150090000D01*
%TO.C,IO1*%
X124450000Y115625000D02*
X124450000Y95185000D01*
X124450000Y95185000D02*
X134610000Y95185000D01*
X126355000Y114565000D02*
X127355000Y115565000D01*
X126355000Y95245000D02*
X126355000Y114565000D01*
X127355000Y115565000D02*
X132705000Y115565000D01*
X132705000Y115565000D02*
X132705000Y95245000D01*
X132705000Y95245000D02*
X126355000Y95245000D01*
X134610000Y115625000D02*
X124450000Y115625000D01*
X134610000Y95185000D02*
X134610000Y115625000D01*
%TO.C,J3*%
X167005000Y165100000D02*
X166370000Y165735000D01*
X176530000Y165100000D02*
X167005000Y165100000D01*
X166370000Y165735000D02*
X166370000Y167640000D01*
X166370000Y167640000D02*
X176530000Y167640000D01*
X176530000Y167640000D02*
X176530000Y165100000D01*
D11*
%TO.C,SW19*%
X94100000Y86230000D02*
X109100000Y86230000D01*
X94100000Y71230000D02*
X94100000Y86230000D01*
X109100000Y86230000D02*
X109100000Y71230000D01*
X109100000Y71230000D02*
X94100000Y71230000D01*
D10*
X92850000Y86980000D02*
X93950000Y86980000D01*
X94350000Y86980000D02*
X95450000Y86980000D01*
X95850000Y86980000D02*
X96950000Y86980000D01*
X97350000Y86980000D02*
X98450000Y86980000D01*
X98850000Y86980000D02*
X99950000Y86980000D01*
X100350000Y86980000D02*
X101450000Y86980000D01*
X101850000Y86980000D02*
X102950000Y86980000D01*
X103350000Y86980000D02*
X104450000Y86980000D01*
X104850000Y86980000D02*
X105950000Y86980000D01*
X106350000Y86980000D02*
X107450000Y86980000D01*
X107850000Y86980000D02*
X108950000Y86980000D01*
X109350000Y86980000D02*
X110350000Y86980000D01*
X110350000Y86980000D02*
X110350000Y85880000D01*
X110350000Y85480000D02*
X110350000Y84380000D01*
X110350000Y83980000D02*
X110350000Y82880000D01*
X110350000Y82480000D02*
X110350000Y81380000D01*
X110350000Y80980000D02*
X110350000Y79880000D01*
X110350000Y79480000D02*
X110350000Y78380000D01*
X110350000Y77980000D02*
X110350000Y76880000D01*
X110350000Y76480000D02*
X110350000Y75380000D01*
X110350000Y74980000D02*
X110350000Y73880000D01*
X110350000Y73480000D02*
X110350000Y72380000D01*
X110350000Y71980000D02*
X110350000Y70880000D01*
X110350000Y70480000D02*
X110350000Y70480000D01*
X110350000Y70480000D02*
X109250000Y70480000D01*
X108850000Y70480000D02*
X107750000Y70480000D01*
X107350000Y70480000D02*
X106250000Y70480000D01*
X105850000Y70480000D02*
X104750000Y70480000D01*
X104350000Y70480000D02*
X103250000Y70480000D01*
X102850000Y70480000D02*
X101750000Y70480000D01*
X101350000Y70480000D02*
X100250000Y70480000D01*
X99850000Y70480000D02*
X98750000Y70480000D01*
X98350000Y70480000D02*
X97250000Y70480000D01*
X96850000Y70480000D02*
X95750000Y70480000D01*
X95350000Y70480000D02*
X94250000Y70480000D01*
X93850000Y70480000D02*
X92850000Y70480000D01*
X92850000Y70480000D02*
X92850000Y71580000D01*
X92850000Y71980000D02*
X92850000Y73080000D01*
X92850000Y73480000D02*
X92850000Y74580000D01*
X92850000Y74980000D02*
X92850000Y76080000D01*
X92850000Y76480000D02*
X92850000Y77580000D01*
X92850000Y77980000D02*
X92850000Y79080000D01*
X92850000Y79480000D02*
X92850000Y80580000D01*
X92850000Y80980000D02*
X92850000Y82080000D01*
X92850000Y82480000D02*
X92850000Y83580000D01*
X92850000Y83980000D02*
X92850000Y85080000D01*
X92850000Y85480000D02*
X92850000Y86580000D01*
X92850000Y86980000D02*
X92850000Y86980000D01*
%TO.C,C10*%
X130340000Y147570000D02*
X128740000Y147570000D01*
X128740000Y147570000D02*
X128740000Y134410000D01*
X130340000Y134410000D02*
X130340000Y147570000D01*
X128740000Y134410000D02*
X130340000Y134410000D01*
%TO.C,J12*%
X253365000Y140970000D02*
X252730000Y141605000D01*
X257810000Y140970000D02*
X253365000Y140970000D01*
X252730000Y141605000D02*
X252730000Y143510000D01*
X252730000Y143510000D02*
X257810000Y143510000D01*
X257810000Y143510000D02*
X257810000Y140970000D01*
%TO.C,C1*%
X21360000Y164640000D02*
X21360000Y163040000D01*
X21360000Y163040000D02*
X34520000Y163040000D01*
X34520000Y164640000D02*
X21360000Y164640000D01*
X34520000Y163040000D02*
X34520000Y164640000D01*
D11*
%TO.C,SW12*%
X56000000Y67180000D02*
X71000000Y67180000D01*
X56000000Y52180000D02*
X56000000Y67180000D01*
X71000000Y67180000D02*
X71000000Y52180000D01*
X71000000Y52180000D02*
X56000000Y52180000D01*
D10*
X54750000Y67930000D02*
X55850000Y67930000D01*
X56250000Y67930000D02*
X57350000Y67930000D01*
X57750000Y67930000D02*
X58850000Y67930000D01*
X59250000Y67930000D02*
X60350000Y67930000D01*
X60750000Y67930000D02*
X61850000Y67930000D01*
X62250000Y67930000D02*
X63350000Y67930000D01*
X63750000Y67930000D02*
X64850000Y67930000D01*
X65250000Y67930000D02*
X66350000Y67930000D01*
X66750000Y67930000D02*
X67850000Y67930000D01*
X68250000Y67930000D02*
X69350000Y67930000D01*
X69750000Y67930000D02*
X70850000Y67930000D01*
X71250000Y67930000D02*
X72250000Y67930000D01*
X72250000Y67930000D02*
X72250000Y66830000D01*
X72250000Y66430000D02*
X72250000Y65330000D01*
X72250000Y64930000D02*
X72250000Y63830000D01*
X72250000Y63430000D02*
X72250000Y62330000D01*
X72250000Y61930000D02*
X72250000Y60830000D01*
X72250000Y60430000D02*
X72250000Y59330000D01*
X72250000Y58930000D02*
X72250000Y57830000D01*
X72250000Y57430000D02*
X72250000Y56330000D01*
X72250000Y55930000D02*
X72250000Y54830000D01*
X72250000Y54430000D02*
X72250000Y53330000D01*
X72250000Y52930000D02*
X72250000Y51830000D01*
X72250000Y51430000D02*
X72250000Y51430000D01*
X72250000Y51430000D02*
X71150000Y51430000D01*
X70750000Y51430000D02*
X69650000Y51430000D01*
X69250000Y51430000D02*
X68150000Y51430000D01*
X67750000Y51430000D02*
X66650000Y51430000D01*
X66250000Y51430000D02*
X65150000Y51430000D01*
X64750000Y51430000D02*
X63650000Y51430000D01*
X63250000Y51430000D02*
X62150000Y51430000D01*
X61750000Y51430000D02*
X60650000Y51430000D01*
X60250000Y51430000D02*
X59150000Y51430000D01*
X58750000Y51430000D02*
X57650000Y51430000D01*
X57250000Y51430000D02*
X56150000Y51430000D01*
X55750000Y51430000D02*
X54750000Y51430000D01*
X54750000Y51430000D02*
X54750000Y52530000D01*
X54750000Y52930000D02*
X54750000Y54030000D01*
X54750000Y54430000D02*
X54750000Y55530000D01*
X54750000Y55930000D02*
X54750000Y57030000D01*
X54750000Y57430000D02*
X54750000Y58530000D01*
X54750000Y58930000D02*
X54750000Y60030000D01*
X54750000Y60430000D02*
X54750000Y61530000D01*
X54750000Y61930000D02*
X54750000Y63030000D01*
X54750000Y63430000D02*
X54750000Y64530000D01*
X54750000Y64930000D02*
X54750000Y66030000D01*
X54750000Y66430000D02*
X54750000Y67530000D01*
X54750000Y67930000D02*
X54750000Y67930000D01*
D11*
%TO.C,SW14*%
X56000000Y29080000D02*
X71000000Y29080000D01*
X56000000Y14080000D02*
X56000000Y29080000D01*
X71000000Y29080000D02*
X71000000Y14080000D01*
X71000000Y14080000D02*
X56000000Y14080000D01*
D10*
X54750000Y29830000D02*
X55850000Y29830000D01*
X56250000Y29830000D02*
X57350000Y29830000D01*
X57750000Y29830000D02*
X58850000Y29830000D01*
X59250000Y29830000D02*
X60350000Y29830000D01*
X60750000Y29830000D02*
X61850000Y29830000D01*
X62250000Y29830000D02*
X63350000Y29830000D01*
X63750000Y29830000D02*
X64850000Y29830000D01*
X65250000Y29830000D02*
X66350000Y29830000D01*
X66750000Y29830000D02*
X67850000Y29830000D01*
X68250000Y29830000D02*
X69350000Y29830000D01*
X69750000Y29830000D02*
X70850000Y29830000D01*
X71250000Y29830000D02*
X72250000Y29830000D01*
X72250000Y29830000D02*
X72250000Y28730000D01*
X72250000Y28330000D02*
X72250000Y27230000D01*
X72250000Y26830000D02*
X72250000Y25730000D01*
X72250000Y25330000D02*
X72250000Y24230000D01*
X72250000Y23830000D02*
X72250000Y22730000D01*
X72250000Y22330000D02*
X72250000Y21230000D01*
X72250000Y20830000D02*
X72250000Y19730000D01*
X72250000Y19330000D02*
X72250000Y18230000D01*
X72250000Y17830000D02*
X72250000Y16730000D01*
X72250000Y16330000D02*
X72250000Y15230000D01*
X72250000Y14830000D02*
X72250000Y13730000D01*
X72250000Y13330000D02*
X72250000Y13330000D01*
X72250000Y13330000D02*
X71150000Y13330000D01*
X70750000Y13330000D02*
X69650000Y13330000D01*
X69250000Y13330000D02*
X68150000Y13330000D01*
X67750000Y13330000D02*
X66650000Y13330000D01*
X66250000Y13330000D02*
X65150000Y13330000D01*
X64750000Y13330000D02*
X63650000Y13330000D01*
X63250000Y13330000D02*
X62150000Y13330000D01*
X61750000Y13330000D02*
X60650000Y13330000D01*
X60250000Y13330000D02*
X59150000Y13330000D01*
X58750000Y13330000D02*
X57650000Y13330000D01*
X57250000Y13330000D02*
X56150000Y13330000D01*
X55750000Y13330000D02*
X54750000Y13330000D01*
X54750000Y13330000D02*
X54750000Y14430000D01*
X54750000Y14830000D02*
X54750000Y15930000D01*
X54750000Y16330000D02*
X54750000Y17430000D01*
X54750000Y17830000D02*
X54750000Y18930000D01*
X54750000Y19330000D02*
X54750000Y20430000D01*
X54750000Y20830000D02*
X54750000Y21930000D01*
X54750000Y22330000D02*
X54750000Y23430000D01*
X54750000Y23830000D02*
X54750000Y24930000D01*
X54750000Y25330000D02*
X54750000Y26430000D01*
X54750000Y26830000D02*
X54750000Y27930000D01*
X54750000Y28330000D02*
X54750000Y29430000D01*
X54750000Y29830000D02*
X54750000Y29830000D01*
%TO.C,R17*%
X139700000Y34280000D02*
X142240000Y34280000D01*
X140500000Y34280000D02*
G75*
G03*
X140500000Y34280000I-800000J0D01*
G01*
%TO.C,RV1*%
X116710000Y168595000D02*
X111880000Y168595000D01*
X111880000Y168595000D02*
X111880000Y159065000D01*
X112065000Y160335000D02*
X114234000Y160334000D01*
X112065000Y160335000D02*
X114234000Y160334000D01*
X116710000Y159065000D02*
X116710000Y168595000D01*
X111880000Y159065000D02*
X116710000Y159065000D01*
X114245000Y160335000D02*
G75*
G03*
X114245000Y160335000I-1095000J0D01*
G01*
%TO.C,J10*%
X146685000Y92710000D02*
X146050000Y93345000D01*
X156210000Y92710000D02*
X146685000Y92710000D01*
X146050000Y93345000D02*
X146050000Y95250000D01*
X146050000Y95250000D02*
X156210000Y95250000D01*
X156210000Y95250000D02*
X156210000Y92710000D01*
D11*
%TO.C,SW49*%
X241420000Y48130000D02*
X256420000Y48130000D01*
X241420000Y33130000D02*
X241420000Y48130000D01*
X256420000Y48130000D02*
X256420000Y33130000D01*
X256420000Y33130000D02*
X241420000Y33130000D01*
D10*
X240170000Y48880000D02*
X241270000Y48880000D01*
X241670000Y48880000D02*
X242770000Y48880000D01*
X243170000Y48880000D02*
X244270000Y48880000D01*
X244670000Y48880000D02*
X245770000Y48880000D01*
X246170000Y48880000D02*
X247270000Y48880000D01*
X247670000Y48880000D02*
X248770000Y48880000D01*
X249170000Y48880000D02*
X250270000Y48880000D01*
X250670000Y48880000D02*
X251770000Y48880000D01*
X252170000Y48880000D02*
X253270000Y48880000D01*
X253670000Y48880000D02*
X254770000Y48880000D01*
X255170000Y48880000D02*
X256270000Y48880000D01*
X256670000Y48880000D02*
X257670000Y48880000D01*
X257670000Y48880000D02*
X257670000Y47780000D01*
X257670000Y47380000D02*
X257670000Y46280000D01*
X257670000Y45880000D02*
X257670000Y44780000D01*
X257670000Y44380000D02*
X257670000Y43280000D01*
X257670000Y42880000D02*
X257670000Y41780000D01*
X257670000Y41380000D02*
X257670000Y40280000D01*
X257670000Y39880000D02*
X257670000Y38780000D01*
X257670000Y38380000D02*
X257670000Y37280000D01*
X257670000Y36880000D02*
X257670000Y35780000D01*
X257670000Y35380000D02*
X257670000Y34280000D01*
X257670000Y33880000D02*
X257670000Y32780000D01*
X257670000Y32380000D02*
X257670000Y32380000D01*
X257670000Y32380000D02*
X256570000Y32380000D01*
X256170000Y32380000D02*
X255070000Y32380000D01*
X254670000Y32380000D02*
X253570000Y32380000D01*
X253170000Y32380000D02*
X252070000Y32380000D01*
X251670000Y32380000D02*
X250570000Y32380000D01*
X250170000Y32380000D02*
X249070000Y32380000D01*
X248670000Y32380000D02*
X247570000Y32380000D01*
X247170000Y32380000D02*
X246070000Y32380000D01*
X245670000Y32380000D02*
X244570000Y32380000D01*
X244170000Y32380000D02*
X243070000Y32380000D01*
X242670000Y32380000D02*
X241570000Y32380000D01*
X241170000Y32380000D02*
X240170000Y32380000D01*
X240170000Y32380000D02*
X240170000Y33480000D01*
X240170000Y33880000D02*
X240170000Y34980000D01*
X240170000Y35380000D02*
X240170000Y36480000D01*
X240170000Y36880000D02*
X240170000Y37980000D01*
X240170000Y38380000D02*
X240170000Y39480000D01*
X240170000Y39880000D02*
X240170000Y40980000D01*
X240170000Y41380000D02*
X240170000Y42480000D01*
X240170000Y42880000D02*
X240170000Y43980000D01*
X240170000Y44380000D02*
X240170000Y45480000D01*
X240170000Y45880000D02*
X240170000Y46980000D01*
X240170000Y47380000D02*
X240170000Y48480000D01*
X240170000Y48880000D02*
X240170000Y48880000D01*
%TO.C,R15*%
X193040000Y160020000D02*
X191030000Y160020000D01*
X191030000Y159220000D02*
X191030000Y160820000D01*
X191030000Y160820000D02*
X187430000Y160820000D01*
X187430000Y159220000D02*
X191030000Y159220000D01*
X187430000Y160820000D02*
X187430000Y159220000D01*
X185420000Y160020000D02*
X187430000Y160020000D01*
%TO.C,Y1*%
X179300000Y147030000D02*
X179300000Y140530000D01*
X179300000Y140530000D02*
X181360000Y140530000D01*
X179380000Y148030000D02*
X179380000Y149030000D01*
X179980000Y147030000D02*
X179380000Y148030000D01*
X180680000Y147030000D02*
X181280000Y148030000D01*
X181280000Y148030000D02*
X181280000Y149030000D01*
X181360000Y147030000D02*
X179300000Y147030000D01*
X181360000Y140530000D02*
X181360000Y147030000D01*
%TO.C,ACIA1*%
X201990000Y110490000D02*
X166310000Y110490000D01*
X166310000Y110490000D02*
X166310000Y92710000D01*
X200930000Y108965000D02*
X201930000Y107965000D01*
X166370000Y108965000D02*
X200930000Y108965000D01*
X201930000Y107965000D02*
X201930000Y94235000D01*
X201930000Y94235000D02*
X166370000Y94235000D01*
X166370000Y94235000D02*
X166370000Y108965000D01*
X201990000Y92710000D02*
X201990000Y110490000D01*
X166310000Y92710000D02*
X201990000Y92710000D01*
%TO.C,U1*%
X191180000Y127580000D02*
X185480000Y127580000D01*
X191180000Y127580000D02*
X192180000Y126580000D01*
X185480000Y127580000D02*
X185480000Y123880000D01*
X192180000Y126580000D02*
X192180000Y123880000D01*
X192180000Y123880000D02*
X185480000Y123880000D01*
%TO.C,RN1*%
X44430000Y105390000D02*
X44430000Y102890000D01*
X44430000Y102890000D02*
X59710000Y102890000D01*
X46990000Y105390000D02*
X46990000Y102890000D01*
X59710000Y105390000D02*
X44430000Y105390000D01*
X59710000Y102890000D02*
X59710000Y105390000D01*
%TO.C,C27*%
X131830000Y28930000D02*
X131830000Y26930000D01*
X131830000Y26930000D02*
X134830000Y26930000D01*
X134830000Y28930000D02*
X131830000Y28930000D01*
X134830000Y26930000D02*
X134830000Y28930000D01*
%TO.C,C9*%
X257560000Y161020000D02*
X257560000Y159020000D01*
X257560000Y159020000D02*
X260560000Y159020000D01*
X260560000Y161020000D02*
X257560000Y161020000D01*
X260560000Y159020000D02*
X260560000Y161020000D01*
D11*
%TO.C,SW47*%
X241420000Y86230000D02*
X256420000Y86230000D01*
X241420000Y71230000D02*
X241420000Y86230000D01*
X256420000Y86230000D02*
X256420000Y71230000D01*
X256420000Y71230000D02*
X241420000Y71230000D01*
D10*
X240170000Y86980000D02*
X241270000Y86980000D01*
X241670000Y86980000D02*
X242770000Y86980000D01*
X243170000Y86980000D02*
X244270000Y86980000D01*
X244670000Y86980000D02*
X245770000Y86980000D01*
X246170000Y86980000D02*
X247270000Y86980000D01*
X247670000Y86980000D02*
X248770000Y86980000D01*
X249170000Y86980000D02*
X250270000Y86980000D01*
X250670000Y86980000D02*
X251770000Y86980000D01*
X252170000Y86980000D02*
X253270000Y86980000D01*
X253670000Y86980000D02*
X254770000Y86980000D01*
X255170000Y86980000D02*
X256270000Y86980000D01*
X256670000Y86980000D02*
X257670000Y86980000D01*
X257670000Y86980000D02*
X257670000Y85880000D01*
X257670000Y85480000D02*
X257670000Y84380000D01*
X257670000Y83980000D02*
X257670000Y82880000D01*
X257670000Y82480000D02*
X257670000Y81380000D01*
X257670000Y80980000D02*
X257670000Y79880000D01*
X257670000Y79480000D02*
X257670000Y78380000D01*
X257670000Y77980000D02*
X257670000Y76880000D01*
X257670000Y76480000D02*
X257670000Y75380000D01*
X257670000Y74980000D02*
X257670000Y73880000D01*
X257670000Y73480000D02*
X257670000Y72380000D01*
X257670000Y71980000D02*
X257670000Y70880000D01*
X257670000Y70480000D02*
X257670000Y70480000D01*
X257670000Y70480000D02*
X256570000Y70480000D01*
X256170000Y70480000D02*
X255070000Y70480000D01*
X254670000Y70480000D02*
X253570000Y70480000D01*
X253170000Y70480000D02*
X252070000Y70480000D01*
X251670000Y70480000D02*
X250570000Y70480000D01*
X250170000Y70480000D02*
X249070000Y70480000D01*
X248670000Y70480000D02*
X247570000Y70480000D01*
X247170000Y70480000D02*
X246070000Y70480000D01*
X245670000Y70480000D02*
X244570000Y70480000D01*
X244170000Y70480000D02*
X243070000Y70480000D01*
X242670000Y70480000D02*
X241570000Y70480000D01*
X241170000Y70480000D02*
X240170000Y70480000D01*
X240170000Y70480000D02*
X240170000Y71580000D01*
X240170000Y71980000D02*
X240170000Y73080000D01*
X240170000Y73480000D02*
X240170000Y74580000D01*
X240170000Y74980000D02*
X240170000Y76080000D01*
X240170000Y76480000D02*
X240170000Y77580000D01*
X240170000Y77980000D02*
X240170000Y79080000D01*
X240170000Y79480000D02*
X240170000Y80580000D01*
X240170000Y80980000D02*
X240170000Y82080000D01*
X240170000Y82480000D02*
X240170000Y83580000D01*
X240170000Y83980000D02*
X240170000Y85080000D01*
X240170000Y85480000D02*
X240170000Y86580000D01*
X240170000Y86980000D02*
X240170000Y86980000D01*
%TO.C,C8*%
X115100000Y147570000D02*
X113500000Y147570000D01*
X113500000Y147570000D02*
X113500000Y134410000D01*
X115100000Y134410000D02*
X115100000Y147570000D01*
X113500000Y134410000D02*
X115100000Y134410000D01*
D11*
%TO.C,SW4*%
X17900000Y67180000D02*
X32900000Y67180000D01*
X17900000Y52180000D02*
X17900000Y67180000D01*
X32900000Y67180000D02*
X32900000Y52180000D01*
X32900000Y52180000D02*
X17900000Y52180000D01*
D10*
X16650000Y67930000D02*
X17750000Y67930000D01*
X18150000Y67930000D02*
X19250000Y67930000D01*
X19650000Y67930000D02*
X20750000Y67930000D01*
X21150000Y67930000D02*
X22250000Y67930000D01*
X22650000Y67930000D02*
X23750000Y67930000D01*
X24150000Y67930000D02*
X25250000Y67930000D01*
X25650000Y67930000D02*
X26750000Y67930000D01*
X27150000Y67930000D02*
X28250000Y67930000D01*
X28650000Y67930000D02*
X29750000Y67930000D01*
X30150000Y67930000D02*
X31250000Y67930000D01*
X31650000Y67930000D02*
X32750000Y67930000D01*
X33150000Y67930000D02*
X34150000Y67930000D01*
X34150000Y67930000D02*
X34150000Y66830000D01*
X34150000Y66430000D02*
X34150000Y65330000D01*
X34150000Y64930000D02*
X34150000Y63830000D01*
X34150000Y63430000D02*
X34150000Y62330000D01*
X34150000Y61930000D02*
X34150000Y60830000D01*
X34150000Y60430000D02*
X34150000Y59330000D01*
X34150000Y58930000D02*
X34150000Y57830000D01*
X34150000Y57430000D02*
X34150000Y56330000D01*
X34150000Y55930000D02*
X34150000Y54830000D01*
X34150000Y54430000D02*
X34150000Y53330000D01*
X34150000Y52930000D02*
X34150000Y51830000D01*
X34150000Y51430000D02*
X34150000Y51430000D01*
X34150000Y51430000D02*
X33050000Y51430000D01*
X32650000Y51430000D02*
X31550000Y51430000D01*
X31150000Y51430000D02*
X30050000Y51430000D01*
X29650000Y51430000D02*
X28550000Y51430000D01*
X28150000Y51430000D02*
X27050000Y51430000D01*
X26650000Y51430000D02*
X25550000Y51430000D01*
X25150000Y51430000D02*
X24050000Y51430000D01*
X23650000Y51430000D02*
X22550000Y51430000D01*
X22150000Y51430000D02*
X21050000Y51430000D01*
X20650000Y51430000D02*
X19550000Y51430000D01*
X19150000Y51430000D02*
X18050000Y51430000D01*
X17650000Y51430000D02*
X16650000Y51430000D01*
X16650000Y51430000D02*
X16650000Y52530000D01*
X16650000Y52930000D02*
X16650000Y54030000D01*
X16650000Y54430000D02*
X16650000Y55530000D01*
X16650000Y55930000D02*
X16650000Y57030000D01*
X16650000Y57430000D02*
X16650000Y58530000D01*
X16650000Y58930000D02*
X16650000Y60030000D01*
X16650000Y60430000D02*
X16650000Y61530000D01*
X16650000Y61930000D02*
X16650000Y63030000D01*
X16650000Y63430000D02*
X16650000Y64530000D01*
X16650000Y64930000D02*
X16650000Y66030000D01*
X16650000Y66430000D02*
X16650000Y67530000D01*
X16650000Y67930000D02*
X16650000Y67930000D01*
D11*
%TO.C,SW6*%
X17900000Y29080000D02*
X32900000Y29080000D01*
X17900000Y14080000D02*
X17900000Y29080000D01*
X32900000Y29080000D02*
X32900000Y14080000D01*
X32900000Y14080000D02*
X17900000Y14080000D01*
D10*
X16650000Y29830000D02*
X17750000Y29830000D01*
X18150000Y29830000D02*
X19250000Y29830000D01*
X19650000Y29830000D02*
X20750000Y29830000D01*
X21150000Y29830000D02*
X22250000Y29830000D01*
X22650000Y29830000D02*
X23750000Y29830000D01*
X24150000Y29830000D02*
X25250000Y29830000D01*
X25650000Y29830000D02*
X26750000Y29830000D01*
X27150000Y29830000D02*
X28250000Y29830000D01*
X28650000Y29830000D02*
X29750000Y29830000D01*
X30150000Y29830000D02*
X31250000Y29830000D01*
X31650000Y29830000D02*
X32750000Y29830000D01*
X33150000Y29830000D02*
X34150000Y29830000D01*
X34150000Y29830000D02*
X34150000Y28730000D01*
X34150000Y28330000D02*
X34150000Y27230000D01*
X34150000Y26830000D02*
X34150000Y25730000D01*
X34150000Y25330000D02*
X34150000Y24230000D01*
X34150000Y23830000D02*
X34150000Y22730000D01*
X34150000Y22330000D02*
X34150000Y21230000D01*
X34150000Y20830000D02*
X34150000Y19730000D01*
X34150000Y19330000D02*
X34150000Y18230000D01*
X34150000Y17830000D02*
X34150000Y16730000D01*
X34150000Y16330000D02*
X34150000Y15230000D01*
X34150000Y14830000D02*
X34150000Y13730000D01*
X34150000Y13330000D02*
X34150000Y13330000D01*
X34150000Y13330000D02*
X33050000Y13330000D01*
X32650000Y13330000D02*
X31550000Y13330000D01*
X31150000Y13330000D02*
X30050000Y13330000D01*
X29650000Y13330000D02*
X28550000Y13330000D01*
X28150000Y13330000D02*
X27050000Y13330000D01*
X26650000Y13330000D02*
X25550000Y13330000D01*
X25150000Y13330000D02*
X24050000Y13330000D01*
X23650000Y13330000D02*
X22550000Y13330000D01*
X22150000Y13330000D02*
X21050000Y13330000D01*
X20650000Y13330000D02*
X19550000Y13330000D01*
X19150000Y13330000D02*
X18050000Y13330000D01*
X17650000Y13330000D02*
X16650000Y13330000D01*
X16650000Y13330000D02*
X16650000Y14430000D01*
X16650000Y14830000D02*
X16650000Y15930000D01*
X16650000Y16330000D02*
X16650000Y17430000D01*
X16650000Y17830000D02*
X16650000Y18930000D01*
X16650000Y19330000D02*
X16650000Y20430000D01*
X16650000Y20830000D02*
X16650000Y21930000D01*
X16650000Y22330000D02*
X16650000Y23430000D01*
X16650000Y23830000D02*
X16650000Y24930000D01*
X16650000Y25330000D02*
X16650000Y26430000D01*
X16650000Y26830000D02*
X16650000Y27930000D01*
X16650000Y28330000D02*
X16650000Y29430000D01*
X16650000Y29830000D02*
X16650000Y29830000D01*
%TO.C,C4*%
X75395000Y133100000D02*
X76995000Y133100000D01*
X76995000Y133100000D02*
X76995000Y146260000D01*
X75395000Y146260000D02*
X75395000Y133100000D01*
X76995000Y146260000D02*
X75395000Y146260000D01*
%TO.C,J13*%
X230505000Y147320000D02*
X229870000Y147955000D01*
X234950000Y147320000D02*
X230505000Y147320000D01*
X229870000Y147955000D02*
X229870000Y149860000D01*
X229870000Y149860000D02*
X234950000Y149860000D01*
X234950000Y149860000D02*
X234950000Y147320000D01*
D11*
%TO.C,SW32*%
X165220000Y67180000D02*
X180220000Y67180000D01*
X165220000Y52180000D02*
X165220000Y67180000D01*
X180220000Y67180000D02*
X180220000Y52180000D01*
X180220000Y52180000D02*
X165220000Y52180000D01*
D10*
X163970000Y67930000D02*
X165070000Y67930000D01*
X165470000Y67930000D02*
X166570000Y67930000D01*
X166970000Y67930000D02*
X168070000Y67930000D01*
X168470000Y67930000D02*
X169570000Y67930000D01*
X169970000Y67930000D02*
X171070000Y67930000D01*
X171470000Y67930000D02*
X172570000Y67930000D01*
X172970000Y67930000D02*
X174070000Y67930000D01*
X174470000Y67930000D02*
X175570000Y67930000D01*
X175970000Y67930000D02*
X177070000Y67930000D01*
X177470000Y67930000D02*
X178570000Y67930000D01*
X178970000Y67930000D02*
X180070000Y67930000D01*
X180470000Y67930000D02*
X181470000Y67930000D01*
X181470000Y67930000D02*
X181470000Y66830000D01*
X181470000Y66430000D02*
X181470000Y65330000D01*
X181470000Y64930000D02*
X181470000Y63830000D01*
X181470000Y63430000D02*
X181470000Y62330000D01*
X181470000Y61930000D02*
X181470000Y60830000D01*
X181470000Y60430000D02*
X181470000Y59330000D01*
X181470000Y58930000D02*
X181470000Y57830000D01*
X181470000Y57430000D02*
X181470000Y56330000D01*
X181470000Y55930000D02*
X181470000Y54830000D01*
X181470000Y54430000D02*
X181470000Y53330000D01*
X181470000Y52930000D02*
X181470000Y51830000D01*
X181470000Y51430000D02*
X181470000Y51430000D01*
X181470000Y51430000D02*
X180370000Y51430000D01*
X179970000Y51430000D02*
X178870000Y51430000D01*
X178470000Y51430000D02*
X177370000Y51430000D01*
X176970000Y51430000D02*
X175870000Y51430000D01*
X175470000Y51430000D02*
X174370000Y51430000D01*
X173970000Y51430000D02*
X172870000Y51430000D01*
X172470000Y51430000D02*
X171370000Y51430000D01*
X170970000Y51430000D02*
X169870000Y51430000D01*
X169470000Y51430000D02*
X168370000Y51430000D01*
X167970000Y51430000D02*
X166870000Y51430000D01*
X166470000Y51430000D02*
X165370000Y51430000D01*
X164970000Y51430000D02*
X163970000Y51430000D01*
X163970000Y51430000D02*
X163970000Y52530000D01*
X163970000Y52930000D02*
X163970000Y54030000D01*
X163970000Y54430000D02*
X163970000Y55530000D01*
X163970000Y55930000D02*
X163970000Y57030000D01*
X163970000Y57430000D02*
X163970000Y58530000D01*
X163970000Y58930000D02*
X163970000Y60030000D01*
X163970000Y60430000D02*
X163970000Y61530000D01*
X163970000Y61930000D02*
X163970000Y63030000D01*
X163970000Y63430000D02*
X163970000Y64530000D01*
X163970000Y64930000D02*
X163970000Y66030000D01*
X163970000Y66430000D02*
X163970000Y67530000D01*
X163970000Y67930000D02*
X163970000Y67930000D01*
%TD*%
M02*
