  0
SECTION
  2
HEADER
  9
$ANGBASE
  50
0.0
  9
$ANGDIR
  70
1
  9
$MEASUREMENT
  70
0
  0
ENDSEC
  0
SECTION
  2
TABLES
  0
TABLE
  2
LTYPE
  70
4
  0
LTYPE
  5
40F
  2
CONTINUOUS
  70
0
  3
Solid line
  72
65
  73
0
  40
0.0
  0
LTYPE
  5
410
  2
DASHDOT
 70
0
  3
Dash Dot ____ _ ____ _
 72
65
 73
4
 40
2.0
 49
1.25
 49
-0.25
 49
0.25
 49
-0.25
  0
LTYPE
  5
411
  2
DASHED
 70
0
  3
Dashed __ __ __ __ __
 72
65
 73
2
 40
0.75
 49
0.5
 49
-0.25
  0
LTYPE
  5
43B
  2
DOTTED
 70
0
  3
Dotted .  .  .  .
 72
65
 73
2
 40
0.2
 49
0.0
 49
-0.2
  0
ENDTAB
  0
TABLE
  2
STYLE
  70
4
  0
STYLE
  2
KICAD
  70
0
  40
0
  41
1
  42
1
  50
0
  71
0
  3
isocp.shx
  0
STYLE
  2
KICADB
  70
0
  40
0
  41
1
  42
1
  50
0
  71
0
  3
isocp.shx
  0
STYLE
  2
KICADI
  70
0
  40
0
  41
1
  42
1
  50
15
  71
0
  3
isocp.shx
  0
STYLE
  2
KICADBI
  70
0
  40
0
  41
1
  42
1
  50
15
  71
0
  3
isocp.shx
  0
ENDTAB
  0
TABLE
  2
LAYER
  70
1
  0
LAYER
  2
BLACK
  70
0
  62
7
  6
CONTINUOUS
  0
ENDTAB
  0
ENDSEC
  0
SECTION
  2
ENTITIES
0
LINE
8
BLACK
6
CONTINUOUS
10
5.4145
20
-1.07778
11
5.41455
21
-1.07779
0
LINE
8
BLACK
6
CONTINUOUS
10
5.41455
20
-1.07779
11
5.41456
21
-1.07782
0
LINE
8
BLACK
6
CONTINUOUS
10
5.41456
20
-1.07782
11
5.41459
21
-1.07783
0
LINE
8
BLACK
6
CONTINUOUS
10
5.41459
20
-1.07783
11
5.4146
21
-1.07788
0
LINE
8
BLACK
6
CONTINUOUS
10
5.4146
20
-1.07788
11
5.41463
21
-1.07793
0
LINE
8
BLACK
6
CONTINUOUS
10
5.41463
20
-1.07793
11
5.42658
21
-1.17242
0
LINE
8
BLACK
6
CONTINUOUS
10
5.42658
20
-1.17242
11
5.42657
21
-1.17243
0
LINE
8
BLACK
6
CONTINUOUS
10
5.42657
20
-1.17243
11
5.42658
21
-1.17244
0
LINE
8
BLACK
6
CONTINUOUS
10
5.42658
20
-1.17244
11
5.42658
21
-1.49643
0
LINE
8
BLACK
6
CONTINUOUS
10
5.42658
20
-1.49643
11
5.61518
21
-1.13691
0
LINE
8
BLACK
6
CONTINUOUS
10
5.61518
20
-1.13691
11
5.6152
21
-1.13689
0
LINE
8
BLACK
6
CONTINUOUS
10
5.6152
20
-1.13689
11
5.61521
21
-1.13687
0
LINE
8
BLACK
6
CONTINUOUS
10
5.61521
20
-1.13687
11
5.61526
21
-1.13685
0
LINE
8
BLACK
6
CONTINUOUS
10
5.61526
20
-1.13685
11
5.61529
21
-1.13682
0
LINE
8
BLACK
6
CONTINUOUS
10
5.61529
20
-1.13682
11
5.61533
21
-1.13682
0
LINE
8
BLACK
6
CONTINUOUS
10
5.61533
20
-1.13682
11
5.61535
21
-1.13681
0
LINE
8
BLACK
6
CONTINUOUS
10
5.61535
20
-1.13681
11
5.6154
21
-1.13683
0
LINE
8
BLACK
6
CONTINUOUS
10
5.6154
20
-1.13683
11
5.61545
21
-1.13683
0
LINE
8
BLACK
6
CONTINUOUS
10
5.61545
20
-1.13683
11
5.61547
21
-1.13685
0
LINE
8
BLACK
6
CONTINUOUS
10
5.61547
20
-1.13685
11
5.6155
21
-1.13687
0
LINE
8
BLACK
6
CONTINUOUS
10
5.6155
20
-1.13687
11
5.61551
21
-1.13691
0
LINE
8
BLACK
6
CONTINUOUS
10
5.61551
20
-1.13691
11
5.61555
21
-1.13695
0
LINE
8
BLACK
6
CONTINUOUS
10
5.61555
20
-1.13695
11
5.61554
21
-1.13698
0
LINE
8
BLACK
6
CONTINUOUS
10
5.61554
20
-1.13698
11
5.61555
21
-1.13701
0
LINE
8
BLACK
6
CONTINUOUS
10
5.61555
20
-1.13701
11
5.61555
21
-1.65669
0
LINE
8
BLACK
6
CONTINUOUS
10
5.61555
20
-1.65669
11
5.6155
21
-1.65683
0
LINE
8
BLACK
6
CONTINUOUS
10
5.6155
20
-1.65683
11
5.61535
21
-1.65689
0
LINE
8
BLACK
6
CONTINUOUS
10
5.61535
20
-1.65689
11
5.46784
21
-1.65689
0
LINE
8
BLACK
6
CONTINUOUS
10
5.46784
20
-1.65689
11
5.41475
21
-1.76308
0
LINE
8
BLACK
6
CONTINUOUS
10
5.41475
20
-1.76308
11
5.4147
21
-1.76312
0
LINE
8
BLACK
6
CONTINUOUS
10
5.4147
20
-1.76312
11
5.41466
21
-1.76317
0
LINE
8
BLACK
6
CONTINUOUS
10
5.41466
20
-1.76317
11
5.41464
21
-1.76317
0
LINE
8
BLACK
6
CONTINUOUS
10
5.41464
20
-1.76317
11
5.41463
21
-1.76318
0
LINE
8
BLACK
6
CONTINUOUS
10
5.41463
20
-1.76318
11
5.41457
21
-1.76318
0
LINE
8
BLACK
6
CONTINUOUS
10
5.41457
20
-1.76318
11
5.4145
21
-1.76318
0
LINE
8
BLACK
6
CONTINUOUS
10
5.4145
20
-1.76318
11
5.41449
21
-1.76317
0
LINE
8
BLACK
6
CONTINUOUS
10
5.41449
20
-1.76317
11
5.41448
21
-1.76317
0
LINE
8
BLACK
6
CONTINUOUS
10
5.41448
20
-1.76317
11
5.41444
21
-1.76312
0
LINE
8
BLACK
6
CONTINUOUS
10
5.41444
20
-1.76312
11
5.41439
21
-1.76308
0
LINE
8
BLACK
6
CONTINUOUS
10
5.41439
20
-1.76308
11
5.36129
21
-1.65689
0
LINE
8
BLACK
6
CONTINUOUS
10
5.36129
20
-1.65689
11
5.38536
21
-1.65689
0
LINE
8
BLACK
6
CONTINUOUS
10
5.38536
20
-1.65689
11
5.40256
21
-1.69128
0
LINE
8
BLACK
6
CONTINUOUS
10
5.40256
20
-1.69128
11
5.40256
21
-1.69128
0
LINE
8
BLACK
6
CONTINUOUS
10
5.40256
20
-1.69128
11
5.42658
21
-1.69128
0
LINE
8
BLACK
6
CONTINUOUS
10
5.42658
20
-1.69128
11
5.44377
21
-1.65689
0
LINE
8
BLACK
6
CONTINUOUS
10
5.44377
20
-1.65689
11
5.43827
21
-1.65689
0
LINE
8
BLACK
6
CONTINUOUS
10
5.43827
20
-1.65689
11
5.42658
21
-1.66859
0
LINE
8
BLACK
6
CONTINUOUS
10
5.42658
20
-1.66859
11
5.42658
21
-1.69128
0
LINE
8
BLACK
6
CONTINUOUS
10
5.42658
20
-1.69128
11
5.40256
21
-1.69128
0
LINE
8
BLACK
6
CONTINUOUS
10
5.40256
20
-1.69128
11
5.40256
21
-1.66859
0
LINE
8
BLACK
6
CONTINUOUS
10
5.40256
20
-1.66859
11
5.39086
21
-1.65689
0
LINE
8
BLACK
6
CONTINUOUS
10
5.39086
20
-1.65689
11
5.38536
21
-1.65689
0
LINE
8
BLACK
6
CONTINUOUS
10
5.38536
20
-1.65689
11
5.36129
21
-1.65689
0
LINE
8
BLACK
6
CONTINUOUS
10
5.36129
20
-1.65689
11
5.36129
21
-1.65689
0
LINE
8
BLACK
6
CONTINUOUS
10
5.36129
20
-1.65689
11
5.21378
21
-1.65689
0
LINE
8
BLACK
6
CONTINUOUS
10
5.21378
20
-1.65689
11
5.21364
21
-1.65683
0
LINE
8
BLACK
6
CONTINUOUS
10
5.21364
20
-1.65683
11
5.21358
21
-1.65669
0
LINE
8
BLACK
6
CONTINUOUS
10
5.21358
20
-1.65669
11
5.21358
21
-1.65669
0
LINE
8
BLACK
6
CONTINUOUS
10
5.21358
20
-1.65669
11
5.21358
21
-1.63307
0
LINE
8
BLACK
6
CONTINUOUS
10
5.21358
20
-1.63307
11
5.21358
21
-1.63307
0
LINE
8
BLACK
6
CONTINUOUS
10
5.21358
20
-1.63307
11
5.21358
21
-1.63287
0
LINE
8
BLACK
6
CONTINUOUS
10
5.21358
20
-1.63287
11
5.27376
21
-1.63287
0
LINE
8
BLACK
6
CONTINUOUS
10
5.27376
20
-1.63287
11
5.36684
21
-1.63287
0
LINE
8
BLACK
6
CONTINUOUS
10
5.36684
20
-1.63287
11
5.33775
21
-1.60378
0
LINE
8
BLACK
6
CONTINUOUS
10
5.33775
20
-1.60378
11
5.27376
21
-1.63287
0
LINE
8
BLACK
6
CONTINUOUS
10
5.27376
20
-1.63287
11
5.21358
21
-1.63287
0
LINE
8
BLACK
6
CONTINUOUS
10
5.21358
20
-1.63287
11
5.21358
21
-1.50951
0
LINE
8
BLACK
6
CONTINUOUS
10
5.21358
20
-1.50951
11
5.2376
21
-1.50951
0
LINE
8
BLACK
6
CONTINUOUS
10
5.2376
20
-1.50951
11
5.2376
21
-1.62684
0
LINE
8
BLACK
6
CONTINUOUS
10
5.2376
20
-1.62684
11
5.30771
21
-1.59179
0
LINE
8
BLACK
6
CONTINUOUS
10
5.30771
20
-1.59179
11
5.35585
21
-1.59179
0
LINE
8
BLACK
6
CONTINUOUS
10
5.35585
20
-1.59179
11
5.39693
21
-1.63287
0
LINE
8
BLACK
6
CONTINUOUS
10
5.39693
20
-1.63287
11
5.40256
21
-1.63287
0
LINE
8
BLACK
6
CONTINUOUS
10
5.40256
20
-1.63287
11
5.40256
21
-1.56843
0
LINE
8
BLACK
6
CONTINUOUS
10
5.40256
20
-1.56843
11
5.42658
21
-1.56843
0
LINE
8
BLACK
6
CONTINUOUS
10
5.42658
20
-1.56843
11
5.42658
21
-1.63287
0
LINE
8
BLACK
6
CONTINUOUS
10
5.42658
20
-1.63287
11
5.4322
21
-1.63287
0
LINE
8
BLACK
6
CONTINUOUS
10
5.4322
20
-1.63287
11
5.46229
21
-1.63287
0
LINE
8
BLACK
6
CONTINUOUS
10
5.46229
20
-1.63287
11
5.55538
21
-1.63287
0
LINE
8
BLACK
6
CONTINUOUS
10
5.55538
20
-1.63287
11
5.49138
21
-1.60378
0
LINE
8
BLACK
6
CONTINUOUS
10
5.49138
20
-1.60378
11
5.46229
21
-1.63287
0
LINE
8
BLACK
6
CONTINUOUS
10
5.46229
20
-1.63287
11
5.4322
21
-1.63287
0
LINE
8
BLACK
6
CONTINUOUS
10
5.4322
20
-1.63287
11
5.47328
21
-1.59179
0
LINE
8
BLACK
6
CONTINUOUS
10
5.47328
20
-1.59179
11
5.46172
21
-1.58601
0
LINE
8
BLACK
6
CONTINUOUS
10
5.46172
20
-1.58601
11
5.46126
21
-1.58578
0
LINE
8
BLACK
6
CONTINUOUS
10
5.46126
20
-1.58578
11
5.5094
21
-1.58578
0
LINE
8
BLACK
6
CONTINUOUS
10
5.5094
20
-1.58578
11
5.59153
21
-1.62684
0
LINE
8
BLACK
6
CONTINUOUS
10
5.59153
20
-1.62684
11
5.59153
21
-1.50951
0
LINE
8
BLACK
6
CONTINUOUS
10
5.59153
20
-1.50951
11
5.5094
21
-1.58578
0
LINE
8
BLACK
6
CONTINUOUS
10
5.5094
20
-1.58578
11
5.46126
21
-1.58578
0
LINE
8
BLACK
6
CONTINUOUS
10
5.46126
20
-1.58578
11
5.42658
21
-1.56843
0
LINE
8
BLACK
6
CONTINUOUS
10
5.42658
20
-1.56843
11
5.40256
21
-1.56843
0
LINE
8
BLACK
6
CONTINUOUS
10
5.40256
20
-1.56843
11
5.35585
21
-1.59179
0
LINE
8
BLACK
6
CONTINUOUS
10
5.35585
20
-1.59179
11
5.30771
21
-1.59179
0
LINE
8
BLACK
6
CONTINUOUS
10
5.30771
20
-1.59179
11
5.30818
21
-1.59155
0
LINE
8
BLACK
6
CONTINUOUS
10
5.30818
20
-1.59155
11
5.30818
21
-1.59155
0
LINE
8
BLACK
6
CONTINUOUS
10
5.30818
20
-1.59155
11
5.31973
21
-1.58578
0
LINE
8
BLACK
6
CONTINUOUS
10
5.31973
20
-1.58578
11
5.2376
21
-1.50951
0
LINE
8
BLACK
6
CONTINUOUS
10
5.2376
20
-1.50951
11
5.21358
21
-1.50951
0
LINE
8
BLACK
6
CONTINUOUS
10
5.21358
20
-1.50951
11
5.21358
21
-1.50906
0
LINE
8
BLACK
6
CONTINUOUS
10
5.21358
20
-1.50906
11
5.21358
21
-1.50905
0
LINE
8
BLACK
6
CONTINUOUS
10
5.21358
20
-1.50905
11
5.21358
21
-1.47953
0
LINE
8
BLACK
6
CONTINUOUS
10
5.21358
20
-1.47953
11
5.21358
21
-1.47953
0
LINE
8
BLACK
6
CONTINUOUS
10
5.21358
20
-1.47953
11
5.21358
21
-1.2323
0
LINE
8
BLACK
6
CONTINUOUS
10
5.21358
20
-1.2323
11
5.2376
21
-1.2323
0
LINE
8
BLACK
6
CONTINUOUS
10
5.2376
20
-1.2323
11
5.2376
21
-1.47944
0
LINE
8
BLACK
6
CONTINUOUS
10
5.2376
20
-1.47944
11
5.33783
21
-1.57378
0
LINE
8
BLACK
6
CONTINUOUS
10
5.33783
20
-1.57378
11
5.40248
21
-1.54439
0
LINE
8
BLACK
6
CONTINUOUS
10
5.40248
20
-1.54439
11
5.42665
21
-1.54439
0
LINE
8
BLACK
6
CONTINUOUS
10
5.42665
20
-1.54439
11
5.4913
21
-1.57378
0
LINE
8
BLACK
6
CONTINUOUS
10
5.4913
20
-1.57378
11
5.59153
21
-1.47944
0
LINE
8
BLACK
6
CONTINUOUS
10
5.59153
20
-1.47944
11
5.59153
21
-1.2323
0
LINE
8
BLACK
6
CONTINUOUS
10
5.59153
20
-1.2323
11
5.42665
21
-1.54439
0
LINE
8
BLACK
6
CONTINUOUS
10
5.42665
20
-1.54439
11
5.40248
21
-1.54439
0
LINE
8
BLACK
6
CONTINUOUS
10
5.40248
20
-1.54439
11
5.2376
21
-1.2323
0
LINE
8
BLACK
6
CONTINUOUS
10
5.2376
20
-1.2323
11
5.21358
21
-1.2323
0
LINE
8
BLACK
6
CONTINUOUS
10
5.21358
20
-1.2323
11
5.21358
21
-1.13701
0
LINE
8
BLACK
6
CONTINUOUS
10
5.21358
20
-1.13701
11
5.21359
21
-1.13698
0
LINE
8
BLACK
6
CONTINUOUS
10
5.21359
20
-1.13698
11
5.21359
21
-1.13695
0
LINE
8
BLACK
6
CONTINUOUS
10
5.21359
20
-1.13695
11
5.21362
21
-1.13691
0
LINE
8
BLACK
6
CONTINUOUS
10
5.21362
20
-1.13691
11
5.21364
21
-1.13687
0
LINE
8
BLACK
6
CONTINUOUS
10
5.21364
20
-1.13687
11
5.21367
21
-1.13685
0
LINE
8
BLACK
6
CONTINUOUS
10
5.21367
20
-1.13685
11
5.21369
21
-1.13683
0
LINE
8
BLACK
6
CONTINUOUS
10
5.21369
20
-1.13683
11
5.21373
21
-1.13683
0
LINE
8
BLACK
6
CONTINUOUS
10
5.21373
20
-1.13683
11
5.21378
21
-1.13681
0
LINE
8
BLACK
6
CONTINUOUS
10
5.21378
20
-1.13681
11
5.21381
21
-1.13682
0
LINE
8
BLACK
6
CONTINUOUS
10
5.21381
20
-1.13682
11
5.21384
21
-1.13682
0
LINE
8
BLACK
6
CONTINUOUS
10
5.21384
20
-1.13682
11
5.21388
21
-1.13685
0
LINE
8
BLACK
6
CONTINUOUS
10
5.21388
20
-1.13685
11
5.21392
21
-1.13687
0
LINE
8
BLACK
6
CONTINUOUS
10
5.21392
20
-1.13687
11
5.21393
21
-1.13689
0
LINE
8
BLACK
6
CONTINUOUS
10
5.21393
20
-1.13689
11
5.21396
21
-1.13691
0
LINE
8
BLACK
6
CONTINUOUS
10
5.21396
20
-1.13691
11
5.40256
21
-1.49643
0
LINE
8
BLACK
6
CONTINUOUS
10
5.40256
20
-1.49643
11
5.40256
21
-1.17244
0
LINE
8
BLACK
6
CONTINUOUS
10
5.40256
20
-1.17244
11
5.40256
21
-1.17243
0
LINE
8
BLACK
6
CONTINUOUS
10
5.40256
20
-1.17243
11
5.40256
21
-1.17242
0
LINE
8
BLACK
6
CONTINUOUS
10
5.40256
20
-1.17242
11
5.41423
21
-1.07793
0
LINE
8
BLACK
6
CONTINUOUS
10
5.41423
20
-1.07793
11
5.41426
21
-1.07788
0
LINE
8
BLACK
6
CONTINUOUS
10
5.41426
20
-1.07788
11
5.41427
21
-1.07783
0
LINE
8
BLACK
6
CONTINUOUS
10
5.41427
20
-1.07783
11
5.41429
21
-1.07782
0
LINE
8
BLACK
6
CONTINUOUS
10
5.41429
20
-1.07782
11
5.41431
21
-1.0778
0
LINE
8
BLACK
6
CONTINUOUS
10
5.41431
20
-1.0778
11
5.41436
21
-1.07778
0
LINE
8
BLACK
6
CONTINUOUS
10
5.41436
20
-1.07778
11
5.4144
21
-1.07775
0
LINE
8
BLACK
6
CONTINUOUS
10
5.4144
20
-1.07775
11
5.41443
21
-1.07776
0
LINE
8
BLACK
6
CONTINUOUS
10
5.41443
20
-1.07776
11
5.41445
21
-1.07775
0
LINE
8
BLACK
6
CONTINUOUS
10
5.41445
20
-1.07775
11
5.4145
21
-1.07778
0
LINE
8
BLACK
6
CONTINUOUS
10
1.64428
20
-3.05638
11
1.62554
21
-3.0695
0
LINE
8
BLACK
6
CONTINUOUS
10
1.64428
20
-3.07888
11
1.60491
21
-3.07888
0
LINE
8
BLACK
6
CONTINUOUS
10
1.60491
20
-3.07888
11
1.60491
21
-3.06388
0
LINE
8
BLACK
6
CONTINUOUS
10
1.60491
20
-3.06388
11
1.60679
21
-3.06013
0
LINE
8
BLACK
6
CONTINUOUS
10
1.60679
20
-3.06013
11
1.60866
21
-3.05825
0
LINE
8
BLACK
6
CONTINUOUS
10
1.60866
20
-3.05825
11
1.61241
21
-3.05638
0
LINE
8
BLACK
6
CONTINUOUS
10
1.61241
20
-3.05638
11
1.61804
21
-3.05638
0
LINE
8
BLACK
6
CONTINUOUS
10
1.61804
20
-3.05638
11
1.62179
21
-3.05825
0
LINE
8
BLACK
6
CONTINUOUS
10
1.62179
20
-3.05825
11
1.62366
21
-3.06013
0
LINE
8
BLACK
6
CONTINUOUS
10
1.62366
20
-3.06013
11
1.62554
21
-3.06388
0
LINE
8
BLACK
6
CONTINUOUS
10
1.62554
20
-3.06388
11
1.62554
21
-3.07888
0
LINE
8
BLACK
6
CONTINUOUS
10
1.60491
20
-3.04326
11
1.64428
21
-3.03388
0
LINE
8
BLACK
6
CONTINUOUS
10
1.64428
20
-3.03388
11
1.61616
21
-3.02638
0
LINE
8
BLACK
6
CONTINUOUS
10
1.61616
20
-3.02638
11
1.64428
21
-3.01888
0
LINE
8
BLACK
6
CONTINUOUS
10
1.64428
20
-3.01888
11
1.60491
21
-3.00951
0
LINE
8
BLACK
6
CONTINUOUS
10
1.59398
20
-3.08431
11
1.59398
21
-3.00782
0
LINE
8
BLACK
6
CONTINUOUS
10
1.38517
20
-3.04113
11
1.38329
21
-3.043
0
LINE
8
BLACK
6
CONTINUOUS
10
1.38329
20
-3.043
11
1.37767
21
-3.04487
0
LINE
8
BLACK
6
CONTINUOUS
10
1.37767
20
-3.04487
11
1.37392
21
-3.04487
0
LINE
8
BLACK
6
CONTINUOUS
10
1.37392
20
-3.04487
11
1.36829
21
-3.043
0
LINE
8
BLACK
6
CONTINUOUS
10
1.36829
20
-3.043
11
1.36454
21
-3.03925
0
LINE
8
BLACK
6
CONTINUOUS
10
1.36454
20
-3.03925
11
1.36267
21
-3.0355
0
LINE
8
BLACK
6
CONTINUOUS
10
1.36267
20
-3.0355
11
1.36079
21
-3.028
0
LINE
8
BLACK
6
CONTINUOUS
10
1.36079
20
-3.028
11
1.36079
21
-3.02238
0
LINE
8
BLACK
6
CONTINUOUS
10
1.36079
20
-3.02238
11
1.36267
21
-3.01488
0
LINE
8
BLACK
6
CONTINUOUS
10
1.36267
20
-3.01488
11
1.36454
21
-3.01113
0
LINE
8
BLACK
6
CONTINUOUS
10
1.36454
20
-3.01113
11
1.36829
21
-3.00738
0
LINE
8
BLACK
6
CONTINUOUS
10
1.36829
20
-3.00738
11
1.37392
21
-3.0055
0
LINE
8
BLACK
6
CONTINUOUS
10
1.37392
20
-3.0055
11
1.37767
21
-3.0055
0
LINE
8
BLACK
6
CONTINUOUS
10
1.37767
20
-3.0055
11
1.38329
21
-3.00738
0
LINE
8
BLACK
6
CONTINUOUS
10
1.38329
20
-3.00738
11
1.38517
21
-3.00925
0
LINE
8
BLACK
6
CONTINUOUS
10
1.40766
20
-3.04487
11
1.40391
21
-3.043
0
LINE
8
BLACK
6
CONTINUOUS
10
1.40391
20
-3.043
11
1.40204
21
-3.04113
0
LINE
8
BLACK
6
CONTINUOUS
10
1.40204
20
-3.04113
11
1.40016
21
-3.03738
0
LINE
8
BLACK
6
CONTINUOUS
10
1.40016
20
-3.03738
11
1.40016
21
-3.02613
0
LINE
8
BLACK
6
CONTINUOUS
10
1.40016
20
-3.02613
11
1.40204
21
-3.02238
0
LINE
8
BLACK
6
CONTINUOUS
10
1.40204
20
-3.02238
11
1.40391
21
-3.0205
0
LINE
8
BLACK
6
CONTINUOUS
10
1.40391
20
-3.0205
11
1.40766
21
-3.01863
0
LINE
8
BLACK
6
CONTINUOUS
10
1.40766
20
-3.01863
11
1.41329
21
-3.01863
0
LINE
8
BLACK
6
CONTINUOUS
10
1.41329
20
-3.01863
11
1.41704
21
-3.0205
0
LINE
8
BLACK
6
CONTINUOUS
10
1.41704
20
-3.0205
11
1.41891
21
-3.02238
0
LINE
8
BLACK
6
CONTINUOUS
10
1.41891
20
-3.02238
11
1.42079
21
-3.02613
0
LINE
8
BLACK
6
CONTINUOUS
10
1.42079
20
-3.02613
11
1.42079
21
-3.03738
0
LINE
8
BLACK
6
CONTINUOUS
10
1.42079
20
-3.03738
11
1.41891
21
-3.04113
0
LINE
8
BLACK
6
CONTINUOUS
10
1.41891
20
-3.04113
11
1.41704
21
-3.043
0
LINE
8
BLACK
6
CONTINUOUS
10
1.41704
20
-3.043
11
1.41329
21
-3.04487
0
LINE
8
BLACK
6
CONTINUOUS
10
1.41329
20
-3.04487
11
1.40766
21
-3.04487
0
LINE
8
BLACK
6
CONTINUOUS
10
1.43766
20
-3.01863
11
1.43766
21
-3.04487
0
LINE
8
BLACK
6
CONTINUOUS
10
1.43766
20
-3.02238
11
1.43953
21
-3.0205
0
LINE
8
BLACK
6
CONTINUOUS
10
1.43953
20
-3.0205
11
1.44328
21
-3.01863
0
LINE
8
BLACK
6
CONTINUOUS
10
1.44328
20
-3.01863
11
1.44891
21
-3.01863
0
LINE
8
BLACK
6
CONTINUOUS
10
1.44891
20
-3.01863
11
1.45266
21
-3.0205
0
LINE
8
BLACK
6
CONTINUOUS
10
1.45266
20
-3.0205
11
1.45453
21
-3.02425
0
LINE
8
BLACK
6
CONTINUOUS
10
1.45453
20
-3.02425
11
1.45453
21
-3.04487
0
LINE
8
BLACK
6
CONTINUOUS
10
1.46766
20
-3.01863
11
1.48265
21
-3.01863
0
LINE
8
BLACK
6
CONTINUOUS
10
1.47328
20
-3.0055
11
1.47328
21
-3.03925
0
LINE
8
BLACK
6
CONTINUOUS
10
1.47328
20
-3.03925
11
1.47515
21
-3.043
0
LINE
8
BLACK
6
CONTINUOUS
10
1.47515
20
-3.043
11
1.4789
21
-3.04487
0
LINE
8
BLACK
6
CONTINUOUS
10
1.4789
20
-3.04487
11
1.48265
21
-3.04487
0
LINE
8
BLACK
6
CONTINUOUS
10
1.49578
20
-3.04487
11
1.49578
21
-3.01863
0
LINE
8
BLACK
6
CONTINUOUS
10
1.49578
20
-3.02613
11
1.49765
21
-3.02238
0
LINE
8
BLACK
6
CONTINUOUS
10
1.49765
20
-3.02238
11
1.49953
21
-3.0205
0
LINE
8
BLACK
6
CONTINUOUS
10
1.49953
20
-3.0205
11
1.50328
21
-3.01863
0
LINE
8
BLACK
6
CONTINUOUS
10
1.50328
20
-3.01863
11
1.50703
21
-3.01863
0
LINE
8
BLACK
6
CONTINUOUS
10
1.52577
20
-3.04487
11
1.52202
21
-3.043
0
LINE
8
BLACK
6
CONTINUOUS
10
1.52202
20
-3.043
11
1.52015
21
-3.04113
0
LINE
8
BLACK
6
CONTINUOUS
10
1.52015
20
-3.04113
11
1.51827
21
-3.03738
0
LINE
8
BLACK
6
CONTINUOUS
10
1.51827
20
-3.03738
11
1.51827
21
-3.02613
0
LINE
8
BLACK
6
CONTINUOUS
10
1.51827
20
-3.02613
11
1.52015
21
-3.02238
0
LINE
8
BLACK
6
CONTINUOUS
10
1.52015
20
-3.02238
11
1.52202
21
-3.0205
0
LINE
8
BLACK
6
CONTINUOUS
10
1.52202
20
-3.0205
11
1.52577
21
-3.01863
0
LINE
8
BLACK
6
CONTINUOUS
10
1.52577
20
-3.01863
11
1.5314
21
-3.01863
0
LINE
8
BLACK
6
CONTINUOUS
10
1.5314
20
-3.01863
11
1.53515
21
-3.0205
0
LINE
8
BLACK
6
CONTINUOUS
10
1.53515
20
-3.0205
11
1.53702
21
-3.02238
0
LINE
8
BLACK
6
CONTINUOUS
10
1.53702
20
-3.02238
11
1.5389
21
-3.02613
0
LINE
8
BLACK
6
CONTINUOUS
10
1.5389
20
-3.02613
11
1.5389
21
-3.03738
0
LINE
8
BLACK
6
CONTINUOUS
10
1.5389
20
-3.03738
11
1.53702
21
-3.04113
0
LINE
8
BLACK
6
CONTINUOUS
10
1.53702
20
-3.04113
11
1.53515
21
-3.043
0
LINE
8
BLACK
6
CONTINUOUS
10
1.53515
20
-3.043
11
1.5314
21
-3.04487
0
LINE
8
BLACK
6
CONTINUOUS
10
1.5314
20
-3.04487
11
1.52577
21
-3.04487
0
LINE
8
BLACK
6
CONTINUOUS
10
1.56139
20
-3.04487
11
1.55764
21
-3.043
0
LINE
8
BLACK
6
CONTINUOUS
10
1.55764
20
-3.043
11
1.55577
21
-3.03925
0
LINE
8
BLACK
6
CONTINUOUS
10
1.55577
20
-3.03925
11
1.55577
21
-3.0055
0
LINE
8
BLACK
6
CONTINUOUS
10
1.80491
20
-3.08263
11
1.84428
21
-3.07325
0
LINE
8
BLACK
6
CONTINUOUS
10
1.84428
20
-3.07325
11
1.81616
21
-3.06575
0
LINE
8
BLACK
6
CONTINUOUS
10
1.81616
20
-3.06575
11
1.84428
21
-3.05825
0
LINE
8
BLACK
6
CONTINUOUS
10
1.84428
20
-3.05825
11
1.80491
21
-3.04888
0
LINE
8
BLACK
6
CONTINUOUS
10
1.84428
20
-3.03388
11
1.80491
21
-3.03388
0
LINE
8
BLACK
6
CONTINUOUS
10
1.80491
20
-3.03388
11
1.80491
21
-3.02451
0
LINE
8
BLACK
6
CONTINUOUS
10
1.80491
20
-3.02451
11
1.80679
21
-3.01888
0
LINE
8
BLACK
6
CONTINUOUS
10
1.80679
20
-3.01888
11
1.81054
21
-3.01513
0
LINE
8
BLACK
6
CONTINUOUS
10
1.81054
20
-3.01513
11
1.81429
21
-3.01326
0
LINE
8
BLACK
6
CONTINUOUS
10
1.81429
20
-3.01326
11
1.82179
21
-3.01138
0
LINE
8
BLACK
6
CONTINUOUS
10
1.82179
20
-3.01138
11
1.82741
21
-3.01138
0
LINE
8
BLACK
6
CONTINUOUS
10
1.82741
20
-3.01138
11
1.83491
21
-3.01326
0
LINE
8
BLACK
6
CONTINUOUS
10
1.83491
20
-3.01326
11
1.83866
21
-3.01513
0
LINE
8
BLACK
6
CONTINUOUS
10
1.83866
20
-3.01513
11
1.84241
21
-3.01888
0
LINE
8
BLACK
6
CONTINUOUS
10
1.84241
20
-3.01888
11
1.84428
21
-3.02451
0
LINE
8
BLACK
6
CONTINUOUS
10
1.84428
20
-3.02451
11
1.84428
21
-3.03388
0
LINE
8
BLACK
6
CONTINUOUS
10
1.79398
20
-3.08431
11
1.79398
21
-3.00782
0
LINE
8
BLACK
6
CONTINUOUS
10
5.20172
20
-1.96091
11
5.20664
21
-1.92154
0
LINE
8
BLACK
6
CONTINUOUS
10
5.20477
20
-1.93654
11
5.20875
21
-1.93467
0
LINE
8
BLACK
6
CONTINUOUS
10
5.20875
20
-1.93467
11
5.21625
21
-1.93467
0
LINE
8
BLACK
6
CONTINUOUS
10
5.21625
20
-1.93467
11
5.21977
21
-1.93654
0
LINE
8
BLACK
6
CONTINUOUS
10
5.21977
20
-1.93654
11
5.22141
21
-1.93842
0
LINE
8
BLACK
6
CONTINUOUS
10
5.22141
20
-1.93842
11
5.22281
21
-1.94217
0
LINE
8
BLACK
6
CONTINUOUS
10
5.22281
20
-1.94217
11
5.22141
21
-1.95341
0
LINE
8
BLACK
6
CONTINUOUS
10
5.22141
20
-1.95341
11
5.21906
21
-1.95716
0
LINE
8
BLACK
6
CONTINUOUS
10
5.21906
20
-1.95716
11
5.21695
21
-1.95904
0
LINE
8
BLACK
6
CONTINUOUS
10
5.21695
20
-1.95904
11
5.21297
21
-1.96091
0
LINE
8
BLACK
6
CONTINUOUS
10
5.21297
20
-1.96091
11
5.20547
21
-1.96091
0
LINE
8
BLACK
6
CONTINUOUS
10
5.20547
20
-1.96091
11
5.20196
21
-1.95904
0
LINE
8
BLACK
6
CONTINUOUS
10
5.23687
20
-1.93467
11
5.24297
21
-1.96091
0
LINE
8
BLACK
6
CONTINUOUS
10
5.25562
20
-1.93467
11
5.24297
21
-1.96091
0
LINE
8
BLACK
6
CONTINUOUS
10
5.24297
20
-1.96091
11
5.23804
21
-1.97029
0
LINE
8
BLACK
6
CONTINUOUS
10
5.23804
20
-1.97029
11
5.23594
21
-1.97216
0
LINE
8
BLACK
6
CONTINUOUS
10
5.23594
20
-1.97216
11
5.23195
21
-1.97404
0
LINE
8
BLACK
6
CONTINUOUS
10
5.29687
20
-1.94967
11
5.31561
21
-1.94967
0
LINE
8
BLACK
6
CONTINUOUS
10
5.29171
20
-1.96091
11
5.30975
21
-1.92154
0
LINE
8
BLACK
6
CONTINUOUS
10
5.30975
20
-1.92154
11
5.31796
21
-1.96091
0
LINE
8
BLACK
6
CONTINUOUS
10
5.33436
20
-1.93467
11
5.33108
21
-1.96091
0
LINE
8
BLACK
6
CONTINUOUS
10
5.33389
20
-1.93842
11
5.336
21
-1.93654
0
LINE
8
BLACK
6
CONTINUOUS
10
5.336
20
-1.93654
11
5.33999
21
-1.93467
0
LINE
8
BLACK
6
CONTINUOUS
10
5.33999
20
-1.93467
11
5.34561
21
-1.93467
0
LINE
8
BLACK
6
CONTINUOUS
10
5.34561
20
-1.93467
11
5.34912
21
-1.93654
0
LINE
8
BLACK
6
CONTINUOUS
10
5.34912
20
-1.93654
11
5.35053
21
-1.94029
0
LINE
8
BLACK
6
CONTINUOUS
10
5.35053
20
-1.94029
11
5.34795
21
-1.96091
0
LINE
8
BLACK
6
CONTINUOUS
10
5.38357
20
-1.96091
11
5.38849
21
-1.92154
0
LINE
8
BLACK
6
CONTINUOUS
10
5.38381
20
-1.95904
11
5.37982
21
-1.96091
0
LINE
8
BLACK
6
CONTINUOUS
10
5.37982
20
-1.96091
11
5.37233
21
-1.96091
0
LINE
8
BLACK
6
CONTINUOUS
10
5.37233
20
-1.96091
11
5.36881
21
-1.95904
0
LINE
8
BLACK
6
CONTINUOUS
10
5.36881
20
-1.95904
11
5.36717
21
-1.95716
0
LINE
8
BLACK
6
CONTINUOUS
10
5.36717
20
-1.95716
11
5.36576
21
-1.95341
0
LINE
8
BLACK
6
CONTINUOUS
10
5.36576
20
-1.95341
11
5.36717
21
-1.94217
0
LINE
8
BLACK
6
CONTINUOUS
10
5.36717
20
-1.94217
11
5.36951
21
-1.93842
0
LINE
8
BLACK
6
CONTINUOUS
10
5.36951
20
-1.93842
11
5.37162
21
-1.93654
0
LINE
8
BLACK
6
CONTINUOUS
10
5.37162
20
-1.93654
11
5.37561
21
-1.93467
0
LINE
8
BLACK
6
CONTINUOUS
10
5.37561
20
-1.93467
11
5.3831
21
-1.93467
0
LINE
8
BLACK
6
CONTINUOUS
10
5.3831
20
-1.93467
11
5.38662
21
-1.93654
0
LINE
8
BLACK
6
CONTINUOUS
10
5.40232
20
-1.96091
11
5.4056
21
-1.93467
0
LINE
8
BLACK
6
CONTINUOUS
10
5.40466
20
-1.94217
11
5.40701
21
-1.93842
0
LINE
8
BLACK
6
CONTINUOUS
10
5.40701
20
-1.93842
11
5.40912
21
-1.93654
0
LINE
8
BLACK
6
CONTINUOUS
10
5.40912
20
-1.93654
11
5.4131
21
-1.93467
0
LINE
8
BLACK
6
CONTINUOUS
10
5.4131
20
-1.93467
11
5.41685
21
-1.93467
0
LINE
8
BLACK
6
CONTINUOUS
10
5.44193
20
-1.95904
11
5.43794
21
-1.96091
0
LINE
8
BLACK
6
CONTINUOUS
10
5.43794
20
-1.96091
11
5.43044
21
-1.96091
0
LINE
8
BLACK
6
CONTINUOUS
10
5.43044
20
-1.96091
11
5.42693
21
-1.95904
0
LINE
8
BLACK
6
CONTINUOUS
10
5.42693
20
-1.95904
11
5.42552
21
-1.95529
0
LINE
8
BLACK
6
CONTINUOUS
10
5.42552
20
-1.95529
11
5.4274
21
-1.94029
0
LINE
8
BLACK
6
CONTINUOUS
10
5.4274
20
-1.94029
11
5.42974
21
-1.93654
0
LINE
8
BLACK
6
CONTINUOUS
10
5.42974
20
-1.93654
11
5.43372
21
-1.93467
0
LINE
8
BLACK
6
CONTINUOUS
10
5.43372
20
-1.93467
11
5.44122
21
-1.93467
0
LINE
8
BLACK
6
CONTINUOUS
10
5.44122
20
-1.93467
11
5.44474
21
-1.93654
0
LINE
8
BLACK
6
CONTINUOUS
10
5.44474
20
-1.93654
11
5.44614
21
-1.94029
0
LINE
8
BLACK
6
CONTINUOUS
10
5.44614
20
-1.94029
11
5.44568
21
-1.94404
0
LINE
8
BLACK
6
CONTINUOUS
10
5.44568
20
-1.94404
11
5.42646
21
-1.94779
0
LINE
8
BLACK
6
CONTINUOUS
10
5.45997
20
-1.93467
11
5.46419
21
-1.96091
0
LINE
8
BLACK
6
CONTINUOUS
10
5.46419
20
-1.96091
11
5.47403
21
-1.94217
0
LINE
8
BLACK
6
CONTINUOUS
10
5.47403
20
-1.94217
11
5.47919
21
-1.96091
0
LINE
8
BLACK
6
CONTINUOUS
10
5.47919
20
-1.96091
11
5.48997
21
-1.93467
0
LINE
8
BLACK
6
CONTINUOUS
10
5.53168
20
-1.96091
11
5.5366
21
-1.92154
0
LINE
8
BLACK
6
CONTINUOUS
10
5.5366
20
-1.92154
11
5.54598
21
-1.92154
0
LINE
8
BLACK
6
CONTINUOUS
10
5.54598
20
-1.92154
11
5.55137
21
-1.92342
0
LINE
8
BLACK
6
CONTINUOUS
10
5.55137
20
-1.92342
11
5.55465
21
-1.92717
0
LINE
8
BLACK
6
CONTINUOUS
10
5.55465
20
-1.92717
11
5.55605
21
-1.93092
0
LINE
8
BLACK
6
CONTINUOUS
10
5.55605
20
-1.93092
11
5.55699
21
-1.93842
0
LINE
8
BLACK
6
CONTINUOUS
10
5.55699
20
-1.93842
11
5.55629
21
-1.94404
0
LINE
8
BLACK
6
CONTINUOUS
10
5.55629
20
-1.94404
11
5.55347
21
-1.95154
0
LINE
8
BLACK
6
CONTINUOUS
10
5.55347
20
-1.95154
11
5.55113
21
-1.95529
0
LINE
8
BLACK
6
CONTINUOUS
10
5.55113
20
-1.95529
11
5.54691
21
-1.95904
0
LINE
8
BLACK
6
CONTINUOUS
10
5.54691
20
-1.95904
11
5.54105
21
-1.96091
0
LINE
8
BLACK
6
CONTINUOUS
10
5.54105
20
-1.96091
11
5.53168
21
-1.96091
0
LINE
8
BLACK
6
CONTINUOUS
10
5.5912
20
-1.93467
11
5.58792
21
-1.96091
0
LINE
8
BLACK
6
CONTINUOUS
10
5.57433
20
-1.93467
11
5.57175
21
-1.95529
0
LINE
8
BLACK
6
CONTINUOUS
10
5.57175
20
-1.95529
11
5.57316
21
-1.95904
0
LINE
8
BLACK
6
CONTINUOUS
10
5.57316
20
-1.95904
11
5.57667
21
-1.96091
0
LINE
8
BLACK
6
CONTINUOUS
10
5.57667
20
-1.96091
11
5.5823
21
-1.96091
0
LINE
8
BLACK
6
CONTINUOUS
10
5.5823
20
-1.96091
11
5.58628
21
-1.95904
0
LINE
8
BLACK
6
CONTINUOUS
10
5.58628
20
-1.95904
11
5.58839
21
-1.95716
0
LINE
8
BLACK
6
CONTINUOUS
10
5.60995
20
-1.93467
11
5.60667
21
-1.96091
0
LINE
8
BLACK
6
CONTINUOUS
10
5.60948
20
-1.93842
11
5.61159
21
-1.93654
0
LINE
8
BLACK
6
CONTINUOUS
10
5.61159
20
-1.93654
11
5.61558
21
-1.93467
0
LINE
8
BLACK
6
CONTINUOUS
10
5.61558
20
-1.93467
11
5.6212
21
-1.93467
0
LINE
8
BLACK
6
CONTINUOUS
10
5.6212
20
-1.93467
11
5.62472
21
-1.93654
0
LINE
8
BLACK
6
CONTINUOUS
10
5.62472
20
-1.93654
11
5.62612
21
-1.94029
0
LINE
8
BLACK
6
CONTINUOUS
10
5.62612
20
-1.94029
11
5.62354
21
-1.96091
0
LINE
8
BLACK
6
CONTINUOUS
10
5.65916
20
-1.96091
11
5.66174
21
-1.94029
0
LINE
8
BLACK
6
CONTINUOUS
10
5.66174
20
-1.94029
11
5.66034
21
-1.93654
0
LINE
8
BLACK
6
CONTINUOUS
10
5.66034
20
-1.93654
11
5.65682
21
-1.93467
0
LINE
8
BLACK
6
CONTINUOUS
10
5.65682
20
-1.93467
11
5.64932
21
-1.93467
0
LINE
8
BLACK
6
CONTINUOUS
10
5.64932
20
-1.93467
11
5.64534
21
-1.93654
0
LINE
8
BLACK
6
CONTINUOUS
10
5.6594
20
-1.95904
11
5.65541
21
-1.96091
0
LINE
8
BLACK
6
CONTINUOUS
10
5.65541
20
-1.96091
11
5.64604
21
-1.96091
0
LINE
8
BLACK
6
CONTINUOUS
10
5.64604
20
-1.96091
11
5.64253
21
-1.95904
0
LINE
8
BLACK
6
CONTINUOUS
10
5.64253
20
-1.95904
11
5.64112
21
-1.95529
0
LINE
8
BLACK
6
CONTINUOUS
10
5.64112
20
-1.95529
11
5.64159
21
-1.95154
0
LINE
8
BLACK
6
CONTINUOUS
10
5.64159
20
-1.95154
11
5.64393
21
-1.94779
0
LINE
8
BLACK
6
CONTINUOUS
10
5.64393
20
-1.94779
11
5.64792
21
-1.94592
0
LINE
8
BLACK
6
CONTINUOUS
10
5.64792
20
-1.94592
11
5.65729
21
-1.94592
0
LINE
8
BLACK
6
CONTINUOUS
10
5.65729
20
-1.94592
11
5.66127
21
-1.94404
0
LINE
8
BLACK
6
CONTINUOUS
10
5.67791
20
-1.96091
11
5.68119
21
-1.93467
0
LINE
8
BLACK
6
CONTINUOUS
10
5.68283
20
-1.92154
11
5.68072
21
-1.92342
0
LINE
8
BLACK
6
CONTINUOUS
10
5.68072
20
-1.92342
11
5.68236
21
-1.92529
0
LINE
8
BLACK
6
CONTINUOUS
10
5.68236
20
-1.92529
11
5.68447
21
-1.92342
0
LINE
8
BLACK
6
CONTINUOUS
10
5.68447
20
-1.92342
11
5.68283
21
-1.92154
0
LINE
8
BLACK
6
CONTINUOUS
10
5.68283
20
-1.92154
11
5.68236
21
-1.92529
0
LINE
8
BLACK
6
CONTINUOUS
10
5.23359
20
-2.0243
11
5.23172
21
-2.0243
0
LINE
8
BLACK
6
CONTINUOUS
10
5.23172
20
-2.0243
11
5.2282
21
-2.02243
0
LINE
8
BLACK
6
CONTINUOUS
10
5.2282
20
-2.02243
11
5.22328
21
-2.0168
0
LINE
8
BLACK
6
CONTINUOUS
10
5.22328
20
-2.0168
11
5.21531
21
-2.00555
0
LINE
8
BLACK
6
CONTINUOUS
10
5.21531
20
-2.00555
11
5.21227
21
-1.99993
0
LINE
8
BLACK
6
CONTINUOUS
10
5.21227
20
-1.99993
11
5.2111
21
-1.9943
0
LINE
8
BLACK
6
CONTINUOUS
10
5.2111
20
-1.9943
11
5.21156
21
-1.99055
0
LINE
8
BLACK
6
CONTINUOUS
10
5.21156
20
-1.99055
11
5.21391
21
-1.9868
0
LINE
8
BLACK
6
CONTINUOUS
10
5.21391
20
-1.9868
11
5.21789
21
-1.98493
0
LINE
8
BLACK
6
CONTINUOUS
10
5.21789
20
-1.98493
11
5.21977
21
-1.98493
0
LINE
8
BLACK
6
CONTINUOUS
10
5.21977
20
-1.98493
11
5.22328
21
-1.9868
0
LINE
8
BLACK
6
CONTINUOUS
10
5.22328
20
-1.9868
11
5.22469
21
-1.99055
0
LINE
8
BLACK
6
CONTINUOUS
10
5.22469
20
-1.99055
11
5.22445
21
-1.99243
0
LINE
8
BLACK
6
CONTINUOUS
10
5.22445
20
-1.99243
11
5.22211
21
-1.99618
0
LINE
8
BLACK
6
CONTINUOUS
10
5.22211
20
-1.99618
11
5.22
21
-1.99805
0
LINE
8
BLACK
6
CONTINUOUS
10
5.22
20
-1.99805
11
5.20781
21
-2.00555
0
LINE
8
BLACK
6
CONTINUOUS
10
5.20781
20
-2.00555
11
5.20571
21
-2.00743
0
LINE
8
BLACK
6
CONTINUOUS
10
5.20571
20
-2.00743
11
5.20336
21
-2.01118
0
LINE
8
BLACK
6
CONTINUOUS
10
5.20336
20
-2.01118
11
5.20266
21
-2.0168
0
LINE
8
BLACK
6
CONTINUOUS
10
5.20266
20
-2.0168
11
5.20406
21
-2.02055
0
LINE
8
BLACK
6
CONTINUOUS
10
5.20406
20
-2.02055
11
5.20571
21
-2.02243
0
LINE
8
BLACK
6
CONTINUOUS
10
5.20571
20
-2.02243
11
5.20922
21
-2.0243
0
LINE
8
BLACK
6
CONTINUOUS
10
5.20922
20
-2.0243
11
5.21484
21
-2.0243
0
LINE
8
BLACK
6
CONTINUOUS
10
5.21484
20
-2.0243
11
5.21883
21
-2.02243
0
LINE
8
BLACK
6
CONTINUOUS
10
5.21883
20
-2.02243
11
5.22094
21
-2.02055
0
LINE
8
BLACK
6
CONTINUOUS
10
5.22094
20
-2.02055
11
5.2275
21
-2.01305
0
LINE
8
BLACK
6
CONTINUOUS
10
5.2275
20
-2.01305
11
5.23008
21
-2.00743
0
LINE
8
BLACK
6
CONTINUOUS
10
5.23008
20
-2.00743
11
5.23055
21
-2.00368
0
LINE
8
BLACK
6
CONTINUOUS
10
5.30226
20
-1.98493
11
5.29476
21
-1.98493
0
LINE
8
BLACK
6
CONTINUOUS
10
5.29476
20
-1.98493
11
5.29077
21
-1.9868
0
LINE
8
BLACK
6
CONTINUOUS
10
5.29077
20
-1.9868
11
5.28866
21
-1.98868
0
LINE
8
BLACK
6
CONTINUOUS
10
5.28866
20
-1.98868
11
5.28421
21
-1.9943
0
LINE
8
BLACK
6
CONTINUOUS
10
5.28421
20
-1.9943
11
5.2814
21
-2.0018
0
LINE
8
BLACK
6
CONTINUOUS
10
5.2814
20
-2.0018
11
5.27952
21
-2.0168
0
LINE
8
BLACK
6
CONTINUOUS
10
5.27952
20
-2.0168
11
5.28093
21
-2.02055
0
LINE
8
BLACK
6
CONTINUOUS
10
5.28093
20
-2.02055
11
5.28257
21
-2.02243
0
LINE
8
BLACK
6
CONTINUOUS
10
5.28257
20
-2.02243
11
5.28609
21
-2.0243
0
LINE
8
BLACK
6
CONTINUOUS
10
5.28609
20
-2.0243
11
5.29358
21
-2.0243
0
LINE
8
BLACK
6
CONTINUOUS
10
5.29358
20
-2.0243
11
5.29757
21
-2.02243
0
LINE
8
BLACK
6
CONTINUOUS
10
5.29757
20
-2.02243
11
5.29968
21
-2.02055
0
LINE
8
BLACK
6
CONTINUOUS
10
5.29968
20
-2.02055
11
5.30202
21
-2.0168
0
LINE
8
BLACK
6
CONTINUOUS
10
5.30202
20
-2.0168
11
5.30319
21
-2.00743
0
LINE
8
BLACK
6
CONTINUOUS
10
5.30319
20
-2.00743
11
5.30179
21
-2.00368
0
LINE
8
BLACK
6
CONTINUOUS
10
5.30179
20
-2.00368
11
5.30015
21
-2.0018
0
LINE
8
BLACK
6
CONTINUOUS
10
5.30015
20
-2.0018
11
5.29663
21
-1.99993
0
LINE
8
BLACK
6
CONTINUOUS
10
5.29663
20
-1.99993
11
5.28913
21
-1.99993
0
LINE
8
BLACK
6
CONTINUOUS
10
5.28913
20
-1.99993
11
5.28515
21
-2.0018
0
LINE
8
BLACK
6
CONTINUOUS
10
5.28515
20
-2.0018
11
5.28304
21
-2.00368
0
LINE
8
BLACK
6
CONTINUOUS
10
5.28304
20
-2.00368
11
5.2807
21
-2.00743
0
LINE
8
BLACK
6
CONTINUOUS
10
5.34163
20
-1.98493
11
5.32288
21
-1.98493
0
LINE
8
BLACK
6
CONTINUOUS
10
5.32288
20
-1.98493
11
5.31866
21
-2.00368
0
LINE
8
BLACK
6
CONTINUOUS
10
5.31866
20
-2.00368
11
5.32077
21
-2.0018
0
LINE
8
BLACK
6
CONTINUOUS
10
5.32077
20
-2.0018
11
5.32475
21
-1.99993
0
LINE
8
BLACK
6
CONTINUOUS
10
5.32475
20
-1.99993
11
5.33413
21
-1.99993
0
LINE
8
BLACK
6
CONTINUOUS
10
5.33413
20
-1.99993
11
5.33764
21
-2.0018
0
LINE
8
BLACK
6
CONTINUOUS
10
5.33764
20
-2.0018
11
5.33928
21
-2.00368
0
LINE
8
BLACK
6
CONTINUOUS
10
5.33928
20
-2.00368
11
5.34069
21
-2.00743
0
LINE
8
BLACK
6
CONTINUOUS
10
5.34069
20
-2.00743
11
5.33952
21
-2.0168
0
LINE
8
BLACK
6
CONTINUOUS
10
5.33952
20
-2.0168
11
5.33717
21
-2.02055
0
LINE
8
BLACK
6
CONTINUOUS
10
5.33717
20
-2.02055
11
5.33506
21
-2.02243
0
LINE
8
BLACK
6
CONTINUOUS
10
5.33506
20
-2.02243
11
5.33108
21
-2.0243
0
LINE
8
BLACK
6
CONTINUOUS
10
5.33108
20
-2.0243
11
5.32171
21
-2.0243
0
LINE
8
BLACK
6
CONTINUOUS
10
5.32171
20
-2.0243
11
5.31819
21
-2.02243
0
LINE
8
BLACK
6
CONTINUOUS
10
5.31819
20
-2.02243
11
5.31655
21
-2.02055
0
LINE
8
BLACK
6
CONTINUOUS
10
5.36787
20
-1.98493
11
5.37162
21
-1.98493
0
LINE
8
BLACK
6
CONTINUOUS
10
5.37162
20
-1.98493
11
5.37514
21
-1.9868
0
LINE
8
BLACK
6
CONTINUOUS
10
5.37514
20
-1.9868
11
5.37678
21
-1.98868
0
LINE
8
BLACK
6
CONTINUOUS
10
5.37678
20
-1.98868
11
5.37818
21
-1.99243
0
LINE
8
BLACK
6
CONTINUOUS
10
5.37818
20
-1.99243
11
5.37912
21
-1.99993
0
LINE
8
BLACK
6
CONTINUOUS
10
5.37912
20
-1.99993
11
5.37795
21
-2.0093
0
LINE
8
BLACK
6
CONTINUOUS
10
5.37795
20
-2.0093
11
5.37514
21
-2.0168
0
LINE
8
BLACK
6
CONTINUOUS
10
5.37514
20
-2.0168
11
5.37279
21
-2.02055
0
LINE
8
BLACK
6
CONTINUOUS
10
5.37279
20
-2.02055
11
5.37068
21
-2.02243
0
LINE
8
BLACK
6
CONTINUOUS
10
5.37068
20
-2.02243
11
5.3667
21
-2.0243
0
LINE
8
BLACK
6
CONTINUOUS
10
5.3667
20
-2.0243
11
5.36295
21
-2.0243
0
LINE
8
BLACK
6
CONTINUOUS
10
5.36295
20
-2.0243
11
5.35944
21
-2.02243
0
LINE
8
BLACK
6
CONTINUOUS
10
5.35944
20
-2.02243
11
5.3578
21
-2.02055
0
LINE
8
BLACK
6
CONTINUOUS
10
5.3578
20
-2.02055
11
5.35639
21
-2.0168
0
LINE
8
BLACK
6
CONTINUOUS
10
5.35639
20
-2.0168
11
5.35545
21
-2.0093
0
LINE
8
BLACK
6
CONTINUOUS
10
5.35545
20
-2.0093
11
5.35662
21
-1.99993
0
LINE
8
BLACK
6
CONTINUOUS
10
5.35662
20
-1.99993
11
5.35944
21
-1.99243
0
LINE
8
BLACK
6
CONTINUOUS
10
5.35944
20
-1.99243
11
5.36178
21
-1.98868
0
LINE
8
BLACK
6
CONTINUOUS
10
5.36178
20
-1.98868
11
5.36389
21
-1.9868
0
LINE
8
BLACK
6
CONTINUOUS
10
5.36389
20
-1.9868
11
5.36787
21
-1.98493
0
LINE
8
BLACK
6
CONTINUOUS
10
5.39553
20
-1.98868
11
5.39763
21
-1.9868
0
LINE
8
BLACK
6
CONTINUOUS
10
5.39763
20
-1.9868
11
5.40162
21
-1.98493
0
LINE
8
BLACK
6
CONTINUOUS
10
5.40162
20
-1.98493
11
5.41099
21
-1.98493
0
LINE
8
BLACK
6
CONTINUOUS
10
5.41099
20
-1.98493
11
5.41451
21
-1.9868
0
LINE
8
BLACK
6
CONTINUOUS
10
5.41451
20
-1.9868
11
5.41615
21
-1.98868
0
LINE
8
BLACK
6
CONTINUOUS
10
5.41615
20
-1.98868
11
5.41755
21
-1.99243
0
LINE
8
BLACK
6
CONTINUOUS
10
5.41755
20
-1.99243
11
5.41709
21
-1.99618
0
LINE
8
BLACK
6
CONTINUOUS
10
5.41709
20
-1.99618
11
5.41451
21
-2.0018
0
LINE
8
BLACK
6
CONTINUOUS
10
5.41451
20
-2.0018
11
5.3892
21
-2.0243
0
LINE
8
BLACK
6
CONTINUOUS
10
5.3892
20
-2.0243
11
5.41357
21
-2.0243
0
LINE
8
BLACK
6
CONTINUOUS
10
5.43091
20
-2.02055
11
5.43255
21
-2.02243
0
LINE
8
BLACK
6
CONTINUOUS
10
5.43255
20
-2.02243
11
5.43044
21
-2.0243
0
LINE
8
BLACK
6
CONTINUOUS
10
5.43044
20
-2.0243
11
5.4288
21
-2.02243
0
LINE
8
BLACK
6
CONTINUOUS
10
5.4288
20
-2.02243
11
5.43091
21
-2.02055
0
LINE
8
BLACK
6
CONTINUOUS
10
5.43091
20
-2.02055
11
5.43044
21
-2.0243
0
LINE
8
BLACK
6
CONTINUOUS
10
5.45481
20
-2.0243
11
5.4513
21
-2.02243
0
LINE
8
BLACK
6
CONTINUOUS
10
5.4513
20
-2.02243
11
5.44966
21
-2.02055
0
LINE
8
BLACK
6
CONTINUOUS
10
5.44966
20
-2.02055
11
5.44825
21
-2.0168
0
LINE
8
BLACK
6
CONTINUOUS
10
5.44825
20
-2.0168
11
5.44966
21
-2.00555
0
LINE
8
BLACK
6
CONTINUOUS
10
5.44966
20
-2.00555
11
5.452
21
-2.0018
0
LINE
8
BLACK
6
CONTINUOUS
10
5.452
20
-2.0018
11
5.45411
21
-1.99993
0
LINE
8
BLACK
6
CONTINUOUS
10
5.45411
20
-1.99993
11
5.4581
21
-1.99805
0
LINE
8
BLACK
6
CONTINUOUS
10
5.4581
20
-1.99805
11
5.46372
21
-1.99805
0
LINE
8
BLACK
6
CONTINUOUS
10
5.46372
20
-1.99805
11
5.46723
21
-1.99993
0
LINE
8
BLACK
6
CONTINUOUS
10
5.46723
20
-1.99993
11
5.46888
21
-2.0018
0
LINE
8
BLACK
6
CONTINUOUS
10
5.46888
20
-2.0018
11
5.47028
21
-2.00555
0
LINE
8
BLACK
6
CONTINUOUS
10
5.47028
20
-2.00555
11
5.46888
21
-2.0168
0
LINE
8
BLACK
6
CONTINUOUS
10
5.46888
20
-2.0168
11
5.46653
21
-2.02055
0
LINE
8
BLACK
6
CONTINUOUS
10
5.46653
20
-2.02055
11
5.46442
21
-2.02243
0
LINE
8
BLACK
6
CONTINUOUS
10
5.46442
20
-2.02243
11
5.46044
21
-2.0243
0
LINE
8
BLACK
6
CONTINUOUS
10
5.46044
20
-2.0243
11
5.45481
21
-2.0243
0
LINE
8
BLACK
6
CONTINUOUS
10
5.48481
20
-2.0243
11
5.48809
21
-1.99805
0
LINE
8
BLACK
6
CONTINUOUS
10
5.48715
20
-2.00555
11
5.4895
21
-2.0018
0
LINE
8
BLACK
6
CONTINUOUS
10
5.4895
20
-2.0018
11
5.49161
21
-1.99993
0
LINE
8
BLACK
6
CONTINUOUS
10
5.49161
20
-1.99993
11
5.49559
21
-1.99805
0
LINE
8
BLACK
6
CONTINUOUS
10
5.49559
20
-1.99805
11
5.49934
21
-1.99805
0
LINE
8
BLACK
6
CONTINUOUS
10
5.52934
20
-1.99805
11
5.52535
21
-2.02992
0
LINE
8
BLACK
6
CONTINUOUS
10
5.52535
20
-2.02992
11
5.52301
21
-2.03367
0
LINE
8
BLACK
6
CONTINUOUS
10
5.52301
20
-2.03367
11
5.5209
21
-2.03555
0
LINE
8
BLACK
6
CONTINUOUS
10
5.5209
20
-2.03555
11
5.51692
21
-2.03742
0
LINE
8
BLACK
6
CONTINUOUS
10
5.51692
20
-2.03742
11
5.51129
21
-2.03742
0
LINE
8
BLACK
6
CONTINUOUS
10
5.51129
20
-2.03742
11
5.50778
21
-2.03555
0
LINE
8
BLACK
6
CONTINUOUS
10
5.52629
20
-2.02243
11
5.52231
21
-2.0243
0
LINE
8
BLACK
6
CONTINUOUS
10
5.52231
20
-2.0243
11
5.51481
21
-2.0243
0
LINE
8
BLACK
6
CONTINUOUS
10
5.51481
20
-2.0243
11
5.51129
21
-2.02243
0
LINE
8
BLACK
6
CONTINUOUS
10
5.51129
20
-2.02243
11
5.50965
21
-2.02055
0
LINE
8
BLACK
6
CONTINUOUS
10
5.50965
20
-2.02055
11
5.50825
21
-2.0168
0
LINE
8
BLACK
6
CONTINUOUS
10
5.50825
20
-2.0168
11
5.50965
21
-2.00555
0
LINE
8
BLACK
6
CONTINUOUS
10
5.50965
20
-2.00555
11
5.51199
21
-2.0018
0
LINE
8
BLACK
6
CONTINUOUS
10
5.51199
20
-2.0018
11
5.5141
21
-1.99993
0
LINE
8
BLACK
6
CONTINUOUS
10
5.5141
20
-1.99993
11
5.51809
21
-1.99805
0
LINE
8
BLACK
6
CONTINUOUS
10
5.51809
20
-1.99805
11
5.52559
21
-1.99805
0
LINE
8
BLACK
6
CONTINUOUS
10
5.52559
20
-1.99805
11
5.5291
21
-1.99993
0
LINE
8
BLACK
6
CONTINUOUS
10
5.59191
20
-2.02243
11
5.58792
21
-2.0243
0
LINE
8
BLACK
6
CONTINUOUS
10
5.58792
20
-2.0243
11
5.58042
21
-2.0243
0
LINE
8
BLACK
6
CONTINUOUS
10
5.58042
20
-2.0243
11
5.57691
21
-2.02243
0
LINE
8
BLACK
6
CONTINUOUS
10
5.57691
20
-2.02243
11
5.57527
21
-2.02055
0
LINE
8
BLACK
6
CONTINUOUS
10
5.57527
20
-2.02055
11
5.57386
21
-2.0168
0
LINE
8
BLACK
6
CONTINUOUS
10
5.57386
20
-2.0168
11
5.57527
21
-2.00555
0
LINE
8
BLACK
6
CONTINUOUS
10
5.57527
20
-2.00555
11
5.57761
21
-2.0018
0
LINE
8
BLACK
6
CONTINUOUS
10
5.57761
20
-2.0018
11
5.57972
21
-1.99993
0
LINE
8
BLACK
6
CONTINUOUS
10
5.57972
20
-1.99993
11
5.5837
21
-1.99805
0
LINE
8
BLACK
6
CONTINUOUS
10
5.5837
20
-1.99805
11
5.5912
21
-1.99805
0
LINE
8
BLACK
6
CONTINUOUS
10
5.5912
20
-1.99805
11
5.59472
21
-1.99993
0
LINE
8
BLACK
6
CONTINUOUS
10
5.61417
20
-2.0243
11
5.61065
21
-2.02243
0
LINE
8
BLACK
6
CONTINUOUS
10
5.61065
20
-2.02243
11
5.60901
21
-2.02055
0
LINE
8
BLACK
6
CONTINUOUS
10
5.60901
20
-2.02055
11
5.60761
21
-2.0168
0
LINE
8
BLACK
6
CONTINUOUS
10
5.60761
20
-2.0168
11
5.60901
21
-2.00555
0
LINE
8
BLACK
6
CONTINUOUS
10
5.60901
20
-2.00555
11
5.61136
21
-2.0018
0
LINE
8
BLACK
6
CONTINUOUS
10
5.61136
20
-2.0018
11
5.61347
21
-1.99993
0
LINE
8
BLACK
6
CONTINUOUS
10
5.61347
20
-1.99993
11
5.61745
21
-1.99805
0
LINE
8
BLACK
6
CONTINUOUS
10
5.61745
20
-1.99805
11
5.62307
21
-1.99805
0
LINE
8
BLACK
6
CONTINUOUS
10
5.62307
20
-1.99805
11
5.62659
21
-1.99993
0
LINE
8
BLACK
6
CONTINUOUS
10
5.62659
20
-1.99993
11
5.62823
21
-2.0018
0
LINE
8
BLACK
6
CONTINUOUS
10
5.62823
20
-2.0018
11
5.62964
21
-2.00555
0
LINE
8
BLACK
6
CONTINUOUS
10
5.62964
20
-2.00555
11
5.62823
21
-2.0168
0
LINE
8
BLACK
6
CONTINUOUS
10
5.62823
20
-2.0168
11
5.62589
21
-2.02055
0
LINE
8
BLACK
6
CONTINUOUS
10
5.62589
20
-2.02055
11
5.62378
21
-2.02243
0
LINE
8
BLACK
6
CONTINUOUS
10
5.62378
20
-2.02243
11
5.61979
21
-2.0243
0
LINE
8
BLACK
6
CONTINUOUS
10
5.61979
20
-2.0243
11
5.61417
21
-2.0243
0
LINE
8
BLACK
6
CONTINUOUS
10
5.64417
20
-2.0243
11
5.64745
21
-1.99805
0
LINE
8
BLACK
6
CONTINUOUS
10
5.64698
20
-2.0018
11
5.64909
21
-1.99993
0
LINE
8
BLACK
6
CONTINUOUS
10
5.64909
20
-1.99993
11
5.65307
21
-1.99805
0
LINE
8
BLACK
6
CONTINUOUS
10
5.65307
20
-1.99805
11
5.6587
21
-1.99805
0
LINE
8
BLACK
6
CONTINUOUS
10
5.6587
20
-1.99805
11
5.66221
21
-1.99993
0
LINE
8
BLACK
6
CONTINUOUS
10
5.66221
20
-1.99993
11
5.66362
21
-2.00368
0
LINE
8
BLACK
6
CONTINUOUS
10
5.66362
20
-2.00368
11
5.66104
21
-2.0243
0
LINE
8
BLACK
6
CONTINUOUS
10
5.66362
20
-2.00368
11
5.66596
21
-1.99993
0
LINE
8
BLACK
6
CONTINUOUS
10
5.66596
20
-1.99993
11
5.66994
21
-1.99805
0
LINE
8
BLACK
6
CONTINUOUS
10
5.66994
20
-1.99805
11
5.67557
21
-1.99805
0
LINE
8
BLACK
6
CONTINUOUS
10
5.67557
20
-1.99805
11
5.67908
21
-1.99993
0
LINE
8
BLACK
6
CONTINUOUS
10
5.67908
20
-1.99993
11
5.68049
21
-2.00368
0
LINE
8
BLACK
6
CONTINUOUS
10
5.68049
20
-2.00368
11
5.67791
21
-2.0243
0
LINE
8
BLACK
6
CONTINUOUS
10
5.69666
20
-2.0243
11
5.69994
21
-1.99805
0
LINE
8
BLACK
6
CONTINUOUS
10
5.69947
20
-2.0018
11
5.70158
21
-1.99993
0
LINE
8
BLACK
6
CONTINUOUS
10
5.70158
20
-1.99993
11
5.70556
21
-1.99805
0
LINE
8
BLACK
6
CONTINUOUS
10
5.70556
20
-1.99805
11
5.71119
21
-1.99805
0
LINE
8
BLACK
6
CONTINUOUS
10
5.71119
20
-1.99805
11
5.7147
21
-1.99993
0
LINE
8
BLACK
6
CONTINUOUS
10
5.7147
20
-1.99993
11
5.71611
21
-2.00368
0
LINE
8
BLACK
6
CONTINUOUS
10
5.71611
20
-2.00368
11
5.71353
21
-2.0243
0
LINE
8
BLACK
6
CONTINUOUS
10
5.71611
20
-2.00368
11
5.71845
21
-1.99993
0
LINE
8
BLACK
6
CONTINUOUS
10
5.71845
20
-1.99993
11
5.72244
21
-1.99805
0
LINE
8
BLACK
6
CONTINUOUS
10
5.72244
20
-1.99805
11
5.72806
21
-1.99805
0
LINE
8
BLACK
6
CONTINUOUS
10
5.72806
20
-1.99805
11
5.73158
21
-1.99993
0
LINE
8
BLACK
6
CONTINUOUS
10
5.73158
20
-1.99993
11
5.73298
21
-2.00368
0
LINE
8
BLACK
6
CONTINUOUS
10
5.73298
20
-2.00368
11
5.73041
21
-2.0243
0
LINE
8
BLACK
6
CONTINUOUS
10
5.76931
20
-1.99805
11
5.76603
21
-2.0243
0
LINE
8
BLACK
6
CONTINUOUS
10
5.75243
20
-1.99805
11
5.74986
21
-2.01868
0
LINE
8
BLACK
6
CONTINUOUS
10
5.74986
20
-2.01868
11
5.75126
21
-2.02243
0
LINE
8
BLACK
6
CONTINUOUS
10
5.75126
20
-2.02243
11
5.75478
21
-2.0243
0
LINE
8
BLACK
6
CONTINUOUS
10
5.75478
20
-2.0243
11
5.7604
21
-2.0243
0
LINE
8
BLACK
6
CONTINUOUS
10
5.7604
20
-2.0243
11
5.76439
21
-2.02243
0
LINE
8
BLACK
6
CONTINUOUS
10
5.76439
20
-2.02243
11
5.76649
21
-2.02055
0
LINE
8
BLACK
6
CONTINUOUS
10
5.78805
20
-1.99805
11
5.78477
21
-2.0243
0
LINE
8
BLACK
6
CONTINUOUS
10
5.78759
20
-2.0018
11
5.78969
21
-1.99993
0
LINE
8
BLACK
6
CONTINUOUS
10
5.78969
20
-1.99993
11
5.79368
21
-1.99805
0
LINE
8
BLACK
6
CONTINUOUS
10
5.79368
20
-1.99805
11
5.7993
21
-1.99805
0
LINE
8
BLACK
6
CONTINUOUS
10
5.7993
20
-1.99805
11
5.80282
21
-1.99993
0
LINE
8
BLACK
6
CONTINUOUS
10
5.80282
20
-1.99993
11
5.80422
21
-2.00368
0
LINE
8
BLACK
6
CONTINUOUS
10
5.80422
20
-2.00368
11
5.80165
21
-2.0243
0
LINE
8
BLACK
6
CONTINUOUS
10
5.82039
20
-2.0243
11
5.82367
21
-1.99805
0
LINE
8
BLACK
6
CONTINUOUS
10
5.82532
20
-1.98493
11
5.82321
21
-1.9868
0
LINE
8
BLACK
6
CONTINUOUS
10
5.82321
20
-1.9868
11
5.82485
21
-1.98868
0
LINE
8
BLACK
6
CONTINUOUS
10
5.82485
20
-1.98868
11
5.82696
21
-1.9868
0
LINE
8
BLACK
6
CONTINUOUS
10
5.82696
20
-1.9868
11
5.82532
21
-1.98493
0
LINE
8
BLACK
6
CONTINUOUS
10
5.82532
20
-1.98493
11
5.82485
21
-1.98868
0
LINE
8
BLACK
6
CONTINUOUS
10
5.8368
20
-1.99805
11
5.8518
21
-1.99805
0
LINE
8
BLACK
6
CONTINUOUS
10
5.84406
20
-1.98493
11
5.83984
21
-2.01868
0
LINE
8
BLACK
6
CONTINUOUS
10
5.83984
20
-2.01868
11
5.84125
21
-2.02243
0
LINE
8
BLACK
6
CONTINUOUS
10
5.84125
20
-2.02243
11
5.84477
21
-2.0243
0
LINE
8
BLACK
6
CONTINUOUS
10
5.84477
20
-2.0243
11
5.84852
21
-2.0243
0
LINE
8
BLACK
6
CONTINUOUS
10
5.86117
20
-1.99805
11
5.86726
21
-2.0243
0
LINE
8
BLACK
6
CONTINUOUS
10
5.87992
20
-1.99805
11
5.86726
21
-2.0243
0
LINE
8
BLACK
6
CONTINUOUS
10
5.86726
20
-2.0243
11
5.86234
21
-2.03367
0
LINE
8
BLACK
6
CONTINUOUS
10
5.86234
20
-2.03367
11
5.86023
21
-2.03555
0
LINE
8
BLACK
6
CONTINUOUS
10
5.86023
20
-2.03555
11
5.85625
21
-2.03742
0
LINE
8
BLACK
6
CONTINUOUS
10
2.04428
20
-3.09387
11
2.00491
21
-3.09387
0
LINE
8
BLACK
6
CONTINUOUS
10
2.04428
20
-3.05263
11
2.02554
21
-3.06575
0
LINE
8
BLACK
6
CONTINUOUS
10
2.04428
20
-3.07513
11
2.00491
21
-3.07513
0
LINE
8
BLACK
6
CONTINUOUS
10
2.00491
20
-3.07513
11
2.00491
21
-3.06013
0
LINE
8
BLACK
6
CONTINUOUS
10
2.00491
20
-3.06013
11
2.00679
21
-3.05638
0
LINE
8
BLACK
6
CONTINUOUS
10
2.00679
20
-3.05638
11
2.00866
21
-3.0545
0
LINE
8
BLACK
6
CONTINUOUS
10
2.00866
20
-3.0545
11
2.01241
21
-3.05263
0
LINE
8
BLACK
6
CONTINUOUS
10
2.01241
20
-3.05263
11
2.01804
21
-3.05263
0
LINE
8
BLACK
6
CONTINUOUS
10
2.01804
20
-3.05263
11
2.02179
21
-3.0545
0
LINE
8
BLACK
6
CONTINUOUS
10
2.02179
20
-3.0545
11
2.02366
21
-3.05638
0
LINE
8
BLACK
6
CONTINUOUS
10
2.02366
20
-3.05638
11
2.02554
21
-3.06013
0
LINE
8
BLACK
6
CONTINUOUS
10
2.02554
20
-3.06013
11
2.02554
21
-3.07513
0
LINE
8
BLACK
6
CONTINUOUS
10
2.04803
20
-3.00951
11
2.04616
21
-3.01326
0
LINE
8
BLACK
6
CONTINUOUS
10
2.04616
20
-3.01326
11
2.04241
21
-3.01701
0
LINE
8
BLACK
6
CONTINUOUS
10
2.04241
20
-3.01701
11
2.03679
21
-3.02263
0
LINE
8
BLACK
6
CONTINUOUS
10
2.03679
20
-3.02263
11
2.03491
21
-3.02638
0
LINE
8
BLACK
6
CONTINUOUS
10
2.03491
20
-3.02638
11
2.03491
21
-3.03013
0
LINE
8
BLACK
6
CONTINUOUS
10
2.04428
20
-3.02826
11
2.04241
21
-3.03201
0
LINE
8
BLACK
6
CONTINUOUS
10
2.04241
20
-3.03201
11
2.03866
21
-3.03576
0
LINE
8
BLACK
6
CONTINUOUS
10
2.03866
20
-3.03576
11
2.03116
21
-3.03763
0
LINE
8
BLACK
6
CONTINUOUS
10
2.03116
20
-3.03763
11
2.01804
21
-3.03763
0
LINE
8
BLACK
6
CONTINUOUS
10
2.01804
20
-3.03763
11
2.01054
21
-3.03576
0
LINE
8
BLACK
6
CONTINUOUS
10
2.01054
20
-3.03576
11
2.00679
21
-3.03201
0
LINE
8
BLACK
6
CONTINUOUS
10
2.00679
20
-3.03201
11
2.00491
21
-3.02826
0
LINE
8
BLACK
6
CONTINUOUS
10
2.00491
20
-3.02826
11
2.00491
21
-3.02076
0
LINE
8
BLACK
6
CONTINUOUS
10
2.00491
20
-3.02076
11
2.00679
21
-3.01701
0
LINE
8
BLACK
6
CONTINUOUS
10
2.00679
20
-3.01701
11
2.01054
21
-3.01326
0
LINE
8
BLACK
6
CONTINUOUS
10
2.01054
20
-3.01326
11
2.01804
21
-3.01138
0
LINE
8
BLACK
6
CONTINUOUS
10
2.01804
20
-3.01138
11
2.03116
21
-3.01138
0
LINE
8
BLACK
6
CONTINUOUS
10
2.03116
20
-3.01138
11
2.03866
21
-3.01326
0
LINE
8
BLACK
6
CONTINUOUS
10
2.03866
20
-3.01326
11
2.04241
21
-3.01701
0
LINE
8
BLACK
6
CONTINUOUS
10
2.04241
20
-3.01701
11
2.04428
21
-3.02076
0
LINE
8
BLACK
6
CONTINUOUS
10
2.04428
20
-3.02076
11
2.04428
21
-3.02826
0
LINE
8
BLACK
6
CONTINUOUS
10
1.99398
20
-3.09931
11
1.99398
21
-3.00782
0
LINE
8
BLACK
6
CONTINUOUS
10
5.84473
20
-1.61591
11
5.8841
21
-1.60185
0
LINE
8
BLACK
6
CONTINUOUS
10
5.8841
20
-1.60185
11
5.84473
21
-1.58779
0
LINE
8
BLACK
6
CONTINUOUS
10
5.83066
20
-1.5681
11
5.82785
21
-1.56529
0
LINE
8
BLACK
6
CONTINUOUS
10
5.82785
20
-1.56529
11
5.82504
21
-1.55967
0
LINE
8
BLACK
6
CONTINUOUS
10
5.82504
20
-1.55967
11
5.82504
21
-1.54561
0
LINE
8
BLACK
6
CONTINUOUS
10
5.82504
20
-1.54561
11
5.82785
21
-1.53998
0
LINE
8
BLACK
6
CONTINUOUS
10
5.82785
20
-1.53998
11
5.83066
21
-1.53717
0
LINE
8
BLACK
6
CONTINUOUS
10
5.83066
20
-1.53717
11
5.83629
21
-1.53436
0
LINE
8
BLACK
6
CONTINUOUS
10
5.83629
20
-1.53436
11
5.84191
21
-1.53436
0
LINE
8
BLACK
6
CONTINUOUS
10
5.84191
20
-1.53436
11
5.85035
21
-1.53717
0
LINE
8
BLACK
6
CONTINUOUS
10
5.85035
20
-1.53717
11
5.8841
21
-1.57092
0
LINE
8
BLACK
6
CONTINUOUS
10
5.8841
20
-1.57092
11
5.8841
21
-1.53436
0
LINE
8
BLACK
6
CONTINUOUS
10
5.87847
20
-1.50905
11
5.88128
21
-1.50624
0
LINE
8
BLACK
6
CONTINUOUS
10
5.88128
20
-1.50624
11
5.8841
21
-1.50905
0
LINE
8
BLACK
6
CONTINUOUS
10
5.8841
20
-1.50905
11
5.88128
21
-1.51186
0
LINE
8
BLACK
6
CONTINUOUS
10
5.88128
20
-1.51186
11
5.87847
21
-1.50905
0
LINE
8
BLACK
6
CONTINUOUS
10
5.87847
20
-1.50905
11
5.8841
21
-1.50905
0
LINE
8
BLACK
6
CONTINUOUS
10
5.82504
20
-1.46968
11
5.82504
21
-1.46405
0
LINE
8
BLACK
6
CONTINUOUS
10
5.82504
20
-1.46405
11
5.82785
21
-1.45843
0
LINE
8
BLACK
6
CONTINUOUS
10
5.82785
20
-1.45843
11
5.83066
21
-1.45562
0
LINE
8
BLACK
6
CONTINUOUS
10
5.83066
20
-1.45562
11
5.83629
21
-1.45281
0
LINE
8
BLACK
6
CONTINUOUS
10
5.83629
20
-1.45281
11
5.84754
21
-1.44999
0
LINE
8
BLACK
6
CONTINUOUS
10
5.84754
20
-1.44999
11
5.8616
21
-1.44999
0
LINE
8
BLACK
6
CONTINUOUS
10
5.8616
20
-1.44999
11
5.87285
21
-1.45281
0
LINE
8
BLACK
6
CONTINUOUS
10
5.87285
20
-1.45281
11
5.87847
21
-1.45562
0
LINE
8
BLACK
6
CONTINUOUS
10
5.87847
20
-1.45562
11
5.88128
21
-1.45843
0
LINE
8
BLACK
6
CONTINUOUS
10
5.88128
20
-1.45843
11
5.8841
21
-1.46405
0
LINE
8
BLACK
6
CONTINUOUS
10
5.8841
20
-1.46405
11
5.8841
21
-1.46968
0
LINE
8
BLACK
6
CONTINUOUS
10
5.8841
20
-1.46968
11
5.88128
21
-1.4753
0
LINE
8
BLACK
6
CONTINUOUS
10
5.88128
20
-1.4753
11
5.87847
21
-1.47812
0
LINE
8
BLACK
6
CONTINUOUS
10
5.87847
20
-1.47812
11
5.87285
21
-1.48093
0
LINE
8
BLACK
6
CONTINUOUS
10
5.87285
20
-1.48093
11
5.8616
21
-1.48374
0
LINE
8
BLACK
6
CONTINUOUS
10
5.8616
20
-1.48374
11
5.84754
21
-1.48374
0
LINE
8
BLACK
6
CONTINUOUS
10
5.84754
20
-1.48374
11
5.83629
21
-1.48093
0
LINE
8
BLACK
6
CONTINUOUS
10
5.83629
20
-1.48093
11
5.83066
21
-1.47812
0
LINE
8
BLACK
6
CONTINUOUS
10
5.83066
20
-1.47812
11
5.82785
21
-1.4753
0
LINE
8
BLACK
6
CONTINUOUS
10
5.82785
20
-1.4753
11
5.82504
21
-1.46968
0
LINE
8
BLACK
6
CONTINUOUS
10
5.77083
20
-1.64667
11
5.77646
21
-1.6298
0
LINE
8
BLACK
6
CONTINUOUS
10
5.77646
20
-1.6298
11
5.77646
21
-1.60168
0
LINE
8
BLACK
6
CONTINUOUS
10
5.77646
20
-1.60168
11
5.77083
21
-1.59043
0
LINE
8
BLACK
6
CONTINUOUS
10
5.77083
20
-1.59043
11
5.76521
21
-1.5848
0
LINE
8
BLACK
6
CONTINUOUS
10
5.76521
20
-1.5848
11
5.75396
21
-1.57918
0
LINE
8
BLACK
6
CONTINUOUS
10
5.75396
20
-1.57918
11
5.74271
21
-1.57918
0
LINE
8
BLACK
6
CONTINUOUS
10
5.74271
20
-1.57918
11
5.73146
21
-1.5848
0
LINE
8
BLACK
6
CONTINUOUS
10
5.73146
20
-1.5848
11
5.72584
21
-1.59043
0
LINE
8
BLACK
6
CONTINUOUS
10
5.72584
20
-1.59043
11
5.72022
21
-1.60168
0
LINE
8
BLACK
6
CONTINUOUS
10
5.72022
20
-1.60168
11
5.71459
21
-1.62417
0
LINE
8
BLACK
6
CONTINUOUS
10
5.71459
20
-1.62417
11
5.70897
21
-1.63542
0
LINE
8
BLACK
6
CONTINUOUS
10
5.70897
20
-1.63542
11
5.70334
21
-1.64105
0
LINE
8
BLACK
6
CONTINUOUS
10
5.70334
20
-1.64105
11
5.69209
21
-1.64667
0
LINE
8
BLACK
6
CONTINUOUS
10
5.69209
20
-1.64667
11
5.68085
21
-1.64667
0
LINE
8
BLACK
6
CONTINUOUS
10
5.68085
20
-1.64667
11
5.6696
21
-1.64105
0
LINE
8
BLACK
6
CONTINUOUS
10
5.6696
20
-1.64105
11
5.66397
21
-1.63542
0
LINE
8
BLACK
6
CONTINUOUS
10
5.66397
20
-1.63542
11
5.65835
21
-1.62417
0
LINE
8
BLACK
6
CONTINUOUS
10
5.65835
20
-1.62417
11
5.65835
21
-1.59605
0
LINE
8
BLACK
6
CONTINUOUS
10
5.65835
20
-1.59605
11
5.66397
21
-1.57918
0
LINE
8
BLACK
6
CONTINUOUS
10
5.77646
20
-1.51169
11
5.77083
21
-1.52294
0
LINE
8
BLACK
6
CONTINUOUS
10
5.77083
20
-1.52294
11
5.75959
21
-1.52856
0
LINE
8
BLACK
6
CONTINUOUS
10
5.75959
20
-1.52856
11
5.65835
21
-1.52856
0
LINE
8
BLACK
6
CONTINUOUS
10
5.77646
20
-1.41607
11
5.71459
21
-1.41607
0
LINE
8
BLACK
6
CONTINUOUS
10
5.71459
20
-1.41607
11
5.70334
21
-1.4217
0
LINE
8
BLACK
6
CONTINUOUS
10
5.70334
20
-1.4217
11
5.69772
21
-1.43295
0
LINE
8
BLACK
6
CONTINUOUS
10
5.69772
20
-1.43295
11
5.69772
21
-1.45544
0
LINE
8
BLACK
6
CONTINUOUS
10
5.69772
20
-1.45544
11
5.70334
21
-1.46669
0
LINE
8
BLACK
6
CONTINUOUS
10
5.77083
20
-1.41607
11
5.77646
21
-1.42732
0
LINE
8
BLACK
6
CONTINUOUS
10
5.77646
20
-1.42732
11
5.77646
21
-1.45544
0
LINE
8
BLACK
6
CONTINUOUS
10
5.77646
20
-1.45544
11
5.77083
21
-1.46669
0
LINE
8
BLACK
6
CONTINUOUS
10
5.77083
20
-1.46669
11
5.75959
21
-1.47232
0
LINE
8
BLACK
6
CONTINUOUS
10
5.75959
20
-1.47232
11
5.74834
21
-1.47232
0
LINE
8
BLACK
6
CONTINUOUS
10
5.74834
20
-1.47232
11
5.73709
21
-1.46669
0
LINE
8
BLACK
6
CONTINUOUS
10
5.73709
20
-1.46669
11
5.73146
21
-1.45544
0
LINE
8
BLACK
6
CONTINUOUS
10
5.73146
20
-1.45544
11
5.73146
21
-1.42732
0
LINE
8
BLACK
6
CONTINUOUS
10
5.73146
20
-1.42732
11
5.72584
21
-1.41607
0
LINE
8
BLACK
6
CONTINUOUS
10
5.77646
20
-1.35983
11
5.65835
21
-1.35983
0
LINE
8
BLACK
6
CONTINUOUS
10
5.70334
20
-1.35983
11
5.69772
21
-1.34858
0
LINE
8
BLACK
6
CONTINUOUS
10
5.69772
20
-1.34858
11
5.69772
21
-1.32608
0
LINE
8
BLACK
6
CONTINUOUS
10
5.69772
20
-1.32608
11
5.70334
21
-1.31484
0
LINE
8
BLACK
6
CONTINUOUS
10
5.70334
20
-1.31484
11
5.70897
21
-1.30921
0
LINE
8
BLACK
6
CONTINUOUS
10
5.70897
20
-1.30921
11
5.72022
21
-1.30359
0
LINE
8
BLACK
6
CONTINUOUS
10
5.72022
20
-1.30359
11
5.75396
21
-1.30359
0
LINE
8
BLACK
6
CONTINUOUS
10
5.75396
20
-1.30359
11
5.76521
21
-1.30921
0
LINE
8
BLACK
6
CONTINUOUS
10
5.76521
20
-1.30921
11
5.77083
21
-1.31484
0
LINE
8
BLACK
6
CONTINUOUS
10
5.77083
20
-1.31484
11
5.77646
21
-1.32608
0
LINE
8
BLACK
6
CONTINUOUS
10
5.77646
20
-1.32608
11
5.77646
21
-1.34858
0
LINE
8
BLACK
6
CONTINUOUS
10
5.77646
20
-1.34858
11
5.77083
21
-1.35983
0
LINE
8
BLACK
6
CONTINUOUS
10
5.65835
20
-1.20235
11
5.65835
21
-1.22485
0
LINE
8
BLACK
6
CONTINUOUS
10
5.65835
20
-1.22485
11
5.66397
21
-1.2361
0
LINE
8
BLACK
6
CONTINUOUS
10
5.66397
20
-1.2361
11
5.6696
21
-1.24172
0
LINE
8
BLACK
6
CONTINUOUS
10
5.6696
20
-1.24172
11
5.68647
21
-1.25297
0
LINE
8
BLACK
6
CONTINUOUS
10
5.68647
20
-1.25297
11
5.70897
21
-1.25859
0
LINE
8
BLACK
6
CONTINUOUS
10
5.70897
20
-1.25859
11
5.75396
21
-1.25859
0
LINE
8
BLACK
6
CONTINUOUS
10
5.75396
20
-1.25859
11
5.76521
21
-1.25297
0
LINE
8
BLACK
6
CONTINUOUS
10
5.76521
20
-1.25297
11
5.77083
21
-1.24734
0
LINE
8
BLACK
6
CONTINUOUS
10
5.77083
20
-1.24734
11
5.77646
21
-1.2361
0
LINE
8
BLACK
6
CONTINUOUS
10
5.77646
20
-1.2361
11
5.77646
21
-1.2136
0
LINE
8
BLACK
6
CONTINUOUS
10
5.77646
20
-1.2136
11
5.77083
21
-1.20235
0
LINE
8
BLACK
6
CONTINUOUS
10
5.77083
20
-1.20235
11
5.76521
21
-1.19673
0
LINE
8
BLACK
6
CONTINUOUS
10
5.76521
20
-1.19673
11
5.75396
21
-1.1911
0
LINE
8
BLACK
6
CONTINUOUS
10
5.75396
20
-1.1911
11
5.72584
21
-1.1911
0
LINE
8
BLACK
6
CONTINUOUS
10
5.72584
20
-1.1911
11
5.71459
21
-1.19673
0
LINE
8
BLACK
6
CONTINUOUS
10
5.71459
20
-1.19673
11
5.70897
21
-1.20235
0
LINE
8
BLACK
6
CONTINUOUS
10
5.70897
20
-1.20235
11
5.70334
21
-1.2136
0
LINE
8
BLACK
6
CONTINUOUS
10
5.70334
20
-1.2136
11
5.70334
21
-1.2361
0
LINE
8
BLACK
6
CONTINUOUS
10
5.70334
20
-1.2361
11
5.70897
21
-1.24734
0
LINE
8
BLACK
6
CONTINUOUS
10
5.70897
20
-1.24734
11
5.71459
21
-1.25297
0
LINE
8
BLACK
6
CONTINUOUS
10
5.71459
20
-1.25297
11
5.72584
21
-1.25859
0
LINE
8
BLACK
6
CONTINUOUS
10
5.65835
20
-1.08424
11
5.65835
21
-1.14048
0
LINE
8
BLACK
6
CONTINUOUS
10
5.65835
20
-1.14048
11
5.71459
21
-1.14611
0
LINE
8
BLACK
6
CONTINUOUS
10
5.71459
20
-1.14611
11
5.70897
21
-1.14048
0
LINE
8
BLACK
6
CONTINUOUS
10
5.70897
20
-1.14048
11
5.70334
21
-1.12923
0
LINE
8
BLACK
6
CONTINUOUS
10
5.70334
20
-1.12923
11
5.70334
21
-1.10111
0
LINE
8
BLACK
6
CONTINUOUS
10
5.70334
20
-1.10111
11
5.70897
21
-1.08986
0
LINE
8
BLACK
6
CONTINUOUS
10
5.70897
20
-1.08986
11
5.71459
21
-1.08424
0
LINE
8
BLACK
6
CONTINUOUS
10
5.71459
20
-1.08424
11
5.72584
21
-1.07862
0
LINE
8
BLACK
6
CONTINUOUS
10
5.72584
20
-1.07862
11
5.75396
21
-1.07862
0
LINE
8
BLACK
6
CONTINUOUS
10
5.75396
20
-1.07862
11
5.76521
21
-1.08424
0
LINE
8
BLACK
6
CONTINUOUS
10
5.76521
20
-1.08424
11
5.77083
21
-1.08986
0
LINE
8
BLACK
6
CONTINUOUS
10
5.77083
20
-1.08986
11
5.77646
21
-1.10111
0
LINE
8
BLACK
6
CONTINUOUS
10
5.77646
20
-1.10111
11
5.77646
21
-1.12923
0
LINE
8
BLACK
6
CONTINUOUS
10
5.77646
20
-1.12923
11
5.77083
21
-1.14048
0
LINE
8
BLACK
6
CONTINUOUS
10
5.77083
20
-1.14048
11
5.76521
21
-1.14611
0
LINE
8
BLACK
6
CONTINUOUS
10
1.74428
20
-3.05075
11
1.72554
21
-3.06388
0
LINE
8
BLACK
6
CONTINUOUS
10
1.74428
20
-3.07325
11
1.70491
21
-3.07325
0
LINE
8
BLACK
6
CONTINUOUS
10
1.70491
20
-3.07325
11
1.70491
21
-3.05825
0
LINE
8
BLACK
6
CONTINUOUS
10
1.70491
20
-3.05825
11
1.70679
21
-3.0545
0
LINE
8
BLACK
6
CONTINUOUS
10
1.70679
20
-3.0545
11
1.70866
21
-3.05263
0
LINE
8
BLACK
6
CONTINUOUS
10
1.70866
20
-3.05263
11
1.71241
21
-3.05075
0
LINE
8
BLACK
6
CONTINUOUS
10
1.71241
20
-3.05075
11
1.71804
21
-3.05075
0
LINE
8
BLACK
6
CONTINUOUS
10
1.71804
20
-3.05075
11
1.72179
21
-3.05263
0
LINE
8
BLACK
6
CONTINUOUS
10
1.72179
20
-3.05263
11
1.72366
21
-3.0545
0
LINE
8
BLACK
6
CONTINUOUS
10
1.72366
20
-3.0545
11
1.72554
21
-3.05825
0
LINE
8
BLACK
6
CONTINUOUS
10
1.72554
20
-3.05825
11
1.72554
21
-3.07325
0
LINE
8
BLACK
6
CONTINUOUS
10
1.74428
20
-3.03388
11
1.70491
21
-3.03388
0
LINE
8
BLACK
6
CONTINUOUS
10
1.70491
20
-3.03388
11
1.70491
21
-3.02451
0
LINE
8
BLACK
6
CONTINUOUS
10
1.70491
20
-3.02451
11
1.70679
21
-3.01888
0
LINE
8
BLACK
6
CONTINUOUS
10
1.70679
20
-3.01888
11
1.71054
21
-3.01513
0
LINE
8
BLACK
6
CONTINUOUS
10
1.71054
20
-3.01513
11
1.71429
21
-3.01326
0
LINE
8
BLACK
6
CONTINUOUS
10
1.71429
20
-3.01326
11
1.72179
21
-3.01138
0
LINE
8
BLACK
6
CONTINUOUS
10
1.72179
20
-3.01138
11
1.72741
21
-3.01138
0
LINE
8
BLACK
6
CONTINUOUS
10
1.72741
20
-3.01138
11
1.73491
21
-3.01326
0
LINE
8
BLACK
6
CONTINUOUS
10
1.73491
20
-3.01326
11
1.73866
21
-3.01513
0
LINE
8
BLACK
6
CONTINUOUS
10
1.73866
20
-3.01513
11
1.74241
21
-3.01888
0
LINE
8
BLACK
6
CONTINUOUS
10
1.74241
20
-3.01888
11
1.74428
21
-3.02451
0
LINE
8
BLACK
6
CONTINUOUS
10
1.74428
20
-3.02451
11
1.74428
21
-3.03388
0
LINE
8
BLACK
6
CONTINUOUS
10
1.69398
20
-3.07869
11
1.69398
21
-3.00782
0
LINE
8
BLACK
6
CONTINUOUS
10
1.94428
20
-3.062
11
1.90491
21
-3.062
0
LINE
8
BLACK
6
CONTINUOUS
10
1.91054
20
-3.06575
11
1.91054
21
-3.05825
0
LINE
8
BLACK
6
CONTINUOUS
10
1.91054
20
-3.05825
11
1.91241
21
-3.05263
0
LINE
8
BLACK
6
CONTINUOUS
10
1.91241
20
-3.05263
11
1.91616
21
-3.04888
0
LINE
8
BLACK
6
CONTINUOUS
10
1.91616
20
-3.04888
11
1.91991
21
-3.047
0
LINE
8
BLACK
6
CONTINUOUS
10
1.91991
20
-3.047
11
1.92741
21
-3.047
0
LINE
8
BLACK
6
CONTINUOUS
10
1.92741
20
-3.047
11
1.93116
21
-3.04888
0
LINE
8
BLACK
6
CONTINUOUS
10
1.93116
20
-3.04888
11
1.93491
21
-3.05263
0
LINE
8
BLACK
6
CONTINUOUS
10
1.93491
20
-3.05263
11
1.93679
21
-3.05825
0
LINE
8
BLACK
6
CONTINUOUS
10
1.93679
20
-3.05825
11
1.93679
21
-3.06575
0
LINE
8
BLACK
6
CONTINUOUS
10
1.93679
20
-3.06575
11
1.93491
21
-3.07138
0
LINE
8
BLACK
6
CONTINUOUS
10
1.93491
20
-3.07138
11
1.93116
21
-3.07513
0
LINE
8
BLACK
6
CONTINUOUS
10
1.93116
20
-3.07513
11
1.92741
21
-3.077
0
LINE
8
BLACK
6
CONTINUOUS
10
1.92741
20
-3.077
11
1.91991
21
-3.077
0
LINE
8
BLACK
6
CONTINUOUS
10
1.91991
20
-3.077
11
1.91616
21
-3.07513
0
LINE
8
BLACK
6
CONTINUOUS
10
1.91616
20
-3.07513
11
1.91241
21
-3.07138
0
LINE
8
BLACK
6
CONTINUOUS
10
1.91241
20
-3.07138
11
1.91054
21
-3.06575
0
LINE
8
BLACK
6
CONTINUOUS
10
1.90866
20
-3.03388
11
1.90679
21
-3.03201
0
LINE
8
BLACK
6
CONTINUOUS
10
1.90679
20
-3.03201
11
1.90491
21
-3.02826
0
LINE
8
BLACK
6
CONTINUOUS
10
1.90491
20
-3.02826
11
1.90491
21
-3.01888
0
LINE
8
BLACK
6
CONTINUOUS
10
1.90491
20
-3.01888
11
1.90679
21
-3.01513
0
LINE
8
BLACK
6
CONTINUOUS
10
1.90679
20
-3.01513
11
1.90866
21
-3.01326
0
LINE
8
BLACK
6
CONTINUOUS
10
1.90866
20
-3.01326
11
1.91241
21
-3.01138
0
LINE
8
BLACK
6
CONTINUOUS
10
1.91241
20
-3.01138
11
1.91616
21
-3.01138
0
LINE
8
BLACK
6
CONTINUOUS
10
1.91616
20
-3.01138
11
1.92179
21
-3.01326
0
LINE
8
BLACK
6
CONTINUOUS
10
1.92179
20
-3.01326
11
1.94428
21
-3.03576
0
LINE
8
BLACK
6
CONTINUOUS
10
1.94428
20
-3.03576
11
1.94428
21
-3.01138
0
LINE
8
BLACK
6
CONTINUOUS
10
5.22445
20
-1.87055
11
5.22258
21
-1.87243
0
LINE
8
BLACK
6
CONTINUOUS
10
5.22258
20
-1.87243
11
5.21695
21
-1.8743
0
LINE
8
BLACK
6
CONTINUOUS
10
5.21695
20
-1.8743
11
5.2132
21
-1.8743
0
LINE
8
BLACK
6
CONTINUOUS
10
5.2132
20
-1.8743
11
5.20758
21
-1.87243
0
LINE
8
BLACK
6
CONTINUOUS
10
5.20758
20
-1.87243
11
5.20383
21
-1.86868
0
LINE
8
BLACK
6
CONTINUOUS
10
5.20383
20
-1.86868
11
5.20196
21
-1.86493
0
LINE
8
BLACK
6
CONTINUOUS
10
5.20196
20
-1.86493
11
5.20008
21
-1.85743
0
LINE
8
BLACK
6
CONTINUOUS
10
5.20008
20
-1.85743
11
5.20008
21
-1.8518
0
LINE
8
BLACK
6
CONTINUOUS
10
5.20008
20
-1.8518
11
5.20196
21
-1.8443
0
LINE
8
BLACK
6
CONTINUOUS
10
5.20196
20
-1.8443
11
5.20383
21
-1.84055
0
LINE
8
BLACK
6
CONTINUOUS
10
5.20383
20
-1.84055
11
5.20758
21
-1.8368
0
LINE
8
BLACK
6
CONTINUOUS
10
5.20758
20
-1.8368
11
5.2132
21
-1.83493
0
LINE
8
BLACK
6
CONTINUOUS
10
5.2132
20
-1.83493
11
5.21695
21
-1.83493
0
LINE
8
BLACK
6
CONTINUOUS
10
5.21695
20
-1.83493
11
5.22258
21
-1.8368
0
LINE
8
BLACK
6
CONTINUOUS
10
5.22258
20
-1.8368
11
5.22445
21
-1.83868
0
LINE
8
BLACK
6
CONTINUOUS
10
5.24133
20
-1.8743
11
5.24133
21
-1.84805
0
LINE
8
BLACK
6
CONTINUOUS
10
5.24133
20
-1.84805
11
5.2582
21
-1.84805
0
LINE
8
BLACK
6
CONTINUOUS
10
5.2582
20
-1.84805
11
5.2582
21
-1.8743
0
LINE
8
BLACK
6
CONTINUOUS
10
5.27695
20
-1.84805
11
5.27695
21
-1.88742
0
LINE
8
BLACK
6
CONTINUOUS
10
5.27695
20
-1.84993
11
5.2807
21
-1.84805
0
LINE
8
BLACK
6
CONTINUOUS
10
5.2807
20
-1.84805
11
5.28819
21
-1.84805
0
LINE
8
BLACK
6
CONTINUOUS
10
5.28819
20
-1.84805
11
5.29194
21
-1.84993
0
LINE
8
BLACK
6
CONTINUOUS
10
5.29194
20
-1.84993
11
5.29382
21
-1.8518
0
LINE
8
BLACK
6
CONTINUOUS
10
5.29382
20
-1.8518
11
5.29569
21
-1.85555
0
LINE
8
BLACK
6
CONTINUOUS
10
5.29569
20
-1.85555
11
5.29569
21
-1.8668
0
LINE
8
BLACK
6
CONTINUOUS
10
5.29569
20
-1.8668
11
5.29382
21
-1.87055
0
LINE
8
BLACK
6
CONTINUOUS
10
5.29382
20
-1.87055
11
5.29194
21
-1.87243
0
LINE
8
BLACK
6
CONTINUOUS
10
5.29194
20
-1.87243
11
5.28819
21
-1.8743
0
LINE
8
BLACK
6
CONTINUOUS
10
5.28819
20
-1.8743
11
5.2807
21
-1.8743
0
LINE
8
BLACK
6
CONTINUOUS
10
5.2807
20
-1.8743
11
5.27695
21
-1.87243
0
LINE
8
BLACK
6
CONTINUOUS
10
5.31819
20
-1.8743
11
5.31444
21
-1.87243
0
LINE
8
BLACK
6
CONTINUOUS
10
5.31444
20
-1.87243
11
5.31257
21
-1.87055
0
LINE
8
BLACK
6
CONTINUOUS
10
5.31257
20
-1.87055
11
5.31069
21
-1.8668
0
LINE
8
BLACK
6
CONTINUOUS
10
5.31069
20
-1.8668
11
5.31069
21
-1.85555
0
LINE
8
BLACK
6
CONTINUOUS
10
5.31069
20
-1.85555
11
5.31257
21
-1.8518
0
LINE
8
BLACK
6
CONTINUOUS
10
5.31257
20
-1.8518
11
5.31444
21
-1.84993
0
LINE
8
BLACK
6
CONTINUOUS
10
5.31444
20
-1.84993
11
5.31819
21
-1.84805
0
LINE
8
BLACK
6
CONTINUOUS
10
5.31819
20
-1.84805
11
5.32382
21
-1.84805
0
LINE
8
BLACK
6
CONTINUOUS
10
5.32382
20
-1.84805
11
5.32756
21
-1.84993
0
LINE
8
BLACK
6
CONTINUOUS
10
5.32756
20
-1.84993
11
5.32944
21
-1.8518
0
LINE
8
BLACK
6
CONTINUOUS
10
5.32944
20
-1.8518
11
5.33131
21
-1.85555
0
LINE
8
BLACK
6
CONTINUOUS
10
5.33131
20
-1.85555
11
5.33131
21
-1.8668
0
LINE
8
BLACK
6
CONTINUOUS
10
5.33131
20
-1.8668
11
5.32944
21
-1.87055
0
LINE
8
BLACK
6
CONTINUOUS
10
5.32944
20
-1.87055
11
5.32756
21
-1.87243
0
LINE
8
BLACK
6
CONTINUOUS
10
5.32756
20
-1.87243
11
5.32382
21
-1.8743
0
LINE
8
BLACK
6
CONTINUOUS
10
5.32382
20
-1.8743
11
5.31819
21
-1.8743
0
LINE
8
BLACK
6
CONTINUOUS
10
5.36319
20
-1.87243
11
5.35944
21
-1.8743
0
LINE
8
BLACK
6
CONTINUOUS
10
5.35944
20
-1.8743
11
5.35194
21
-1.8743
0
LINE
8
BLACK
6
CONTINUOUS
10
5.35194
20
-1.8743
11
5.34819
21
-1.87243
0
LINE
8
BLACK
6
CONTINUOUS
10
5.34819
20
-1.87243
11
5.34631
21
-1.86868
0
LINE
8
BLACK
6
CONTINUOUS
10
5.34631
20
-1.86868
11
5.34631
21
-1.85368
0
LINE
8
BLACK
6
CONTINUOUS
10
5.34631
20
-1.85368
11
5.34819
21
-1.84993
0
LINE
8
BLACK
6
CONTINUOUS
10
5.34819
20
-1.84993
11
5.35194
21
-1.84805
0
LINE
8
BLACK
6
CONTINUOUS
10
5.35194
20
-1.84805
11
5.35944
21
-1.84805
0
LINE
8
BLACK
6
CONTINUOUS
10
5.35944
20
-1.84805
11
5.36319
21
-1.84993
0
LINE
8
BLACK
6
CONTINUOUS
10
5.36319
20
-1.84993
11
5.36506
21
-1.85368
0
LINE
8
BLACK
6
CONTINUOUS
10
5.36506
20
-1.85368
11
5.36506
21
-1.85743
0
LINE
8
BLACK
6
CONTINUOUS
10
5.36506
20
-1.85743
11
5.34631
21
-1.86118
0
LINE
8
BLACK
6
CONTINUOUS
10
5.38193
20
-1.84805
11
5.38193
21
-1.8743
0
LINE
8
BLACK
6
CONTINUOUS
10
5.38568
20
-1.8593
11
5.39693
21
-1.8743
0
LINE
8
BLACK
6
CONTINUOUS
10
5.39693
20
-1.84805
11
5.38193
21
-1.86305
0
LINE
8
BLACK
6
CONTINUOUS
10
5.40818
20
-1.84805
11
5.42693
21
-1.84805
0
LINE
8
BLACK
6
CONTINUOUS
10
5.41755
20
-1.84805
11
5.41755
21
-1.8743
0
LINE
8
BLACK
6
CONTINUOUS
10
5.44568
20
-1.8743
11
5.44193
21
-1.87243
0
LINE
8
BLACK
6
CONTINUOUS
10
5.44193
20
-1.87243
11
5.44005
21
-1.87055
0
LINE
8
BLACK
6
CONTINUOUS
10
5.44005
20
-1.87055
11
5.43818
21
-1.8668
0
LINE
8
BLACK
6
CONTINUOUS
10
5.43818
20
-1.8668
11
5.43818
21
-1.85555
0
LINE
8
BLACK
6
CONTINUOUS
10
5.43818
20
-1.85555
11
5.44005
21
-1.8518
0
LINE
8
BLACK
6
CONTINUOUS
10
5.44005
20
-1.8518
11
5.44193
21
-1.84993
0
LINE
8
BLACK
6
CONTINUOUS
10
5.44193
20
-1.84993
11
5.44568
21
-1.84805
0
LINE
8
BLACK
6
CONTINUOUS
10
5.44568
20
-1.84805
11
5.4513
21
-1.84805
0
LINE
8
BLACK
6
CONTINUOUS
10
5.4513
20
-1.84805
11
5.45505
21
-1.84993
0
LINE
8
BLACK
6
CONTINUOUS
10
5.45505
20
-1.84993
11
5.45692
21
-1.8518
0
LINE
8
BLACK
6
CONTINUOUS
10
5.45692
20
-1.8518
11
5.4588
21
-1.85555
0
LINE
8
BLACK
6
CONTINUOUS
10
5.4588
20
-1.85555
11
5.4588
21
-1.8668
0
LINE
8
BLACK
6
CONTINUOUS
10
5.4588
20
-1.8668
11
5.45692
21
-1.87055
0
LINE
8
BLACK
6
CONTINUOUS
10
5.45692
20
-1.87055
11
5.45505
21
-1.87243
0
LINE
8
BLACK
6
CONTINUOUS
10
5.45505
20
-1.87243
11
5.4513
21
-1.8743
0
LINE
8
BLACK
6
CONTINUOUS
10
5.4513
20
-1.8743
11
5.44568
21
-1.8743
0
LINE
8
BLACK
6
CONTINUOUS
10
5.48505
20
-1.86118
11
5.49067
21
-1.86305
0
LINE
8
BLACK
6
CONTINUOUS
10
5.49067
20
-1.86305
11
5.49254
21
-1.8668
0
LINE
8
BLACK
6
CONTINUOUS
10
5.49254
20
-1.8668
11
5.49254
21
-1.86868
0
LINE
8
BLACK
6
CONTINUOUS
10
5.49254
20
-1.86868
11
5.49067
21
-1.87243
0
LINE
8
BLACK
6
CONTINUOUS
10
5.49067
20
-1.87243
11
5.48692
21
-1.8743
0
LINE
8
BLACK
6
CONTINUOUS
10
5.48692
20
-1.8743
11
5.47567
21
-1.8743
0
LINE
8
BLACK
6
CONTINUOUS
10
5.47567
20
-1.8743
11
5.47567
21
-1.84805
0
LINE
8
BLACK
6
CONTINUOUS
10
5.47567
20
-1.84805
11
5.48505
21
-1.84805
0
LINE
8
BLACK
6
CONTINUOUS
10
5.48505
20
-1.84805
11
5.48879
21
-1.84993
0
LINE
8
BLACK
6
CONTINUOUS
10
5.48879
20
-1.84993
11
5.49067
21
-1.85368
0
LINE
8
BLACK
6
CONTINUOUS
10
5.49067
20
-1.85368
11
5.49067
21
-1.85555
0
LINE
8
BLACK
6
CONTINUOUS
10
5.49067
20
-1.85555
11
5.48879
21
-1.8593
0
LINE
8
BLACK
6
CONTINUOUS
10
5.48879
20
-1.8593
11
5.48505
21
-1.86118
0
LINE
8
BLACK
6
CONTINUOUS
10
5.48505
20
-1.86118
11
5.47567
21
-1.86118
0
LINE
8
BLACK
6
CONTINUOUS
10
5.52629
20
-1.8743
11
5.52629
21
-1.85368
0
LINE
8
BLACK
6
CONTINUOUS
10
5.52629
20
-1.85368
11
5.52442
21
-1.84993
0
LINE
8
BLACK
6
CONTINUOUS
10
5.52442
20
-1.84993
11
5.52067
21
-1.84805
0
LINE
8
BLACK
6
CONTINUOUS
10
5.52067
20
-1.84805
11
5.51317
21
-1.84805
0
LINE
8
BLACK
6
CONTINUOUS
10
5.51317
20
-1.84805
11
5.50942
21
-1.84993
0
LINE
8
BLACK
6
CONTINUOUS
10
5.52629
20
-1.87243
11
5.52254
21
-1.8743
0
LINE
8
BLACK
6
CONTINUOUS
10
5.52254
20
-1.8743
11
5.51317
21
-1.8743
0
LINE
8
BLACK
6
CONTINUOUS
10
5.51317
20
-1.8743
11
5.50942
21
-1.87243
0
LINE
8
BLACK
6
CONTINUOUS
10
5.50942
20
-1.87243
11
5.50754
21
-1.86868
0
LINE
8
BLACK
6
CONTINUOUS
10
5.50754
20
-1.86868
11
5.50754
21
-1.86493
0
LINE
8
BLACK
6
CONTINUOUS
10
5.50754
20
-1.86493
11
5.50942
21
-1.86118
0
LINE
8
BLACK
6
CONTINUOUS
10
5.50942
20
-1.86118
11
5.51317
21
-1.8593
0
LINE
8
BLACK
6
CONTINUOUS
10
5.51317
20
-1.8593
11
5.52254
21
-1.8593
0
LINE
8
BLACK
6
CONTINUOUS
10
5.52254
20
-1.8593
11
5.52629
21
-1.85743
0
LINE
8
BLACK
6
CONTINUOUS
10
5.54504
20
-1.86118
11
5.56191
21
-1.86118
0
LINE
8
BLACK
6
CONTINUOUS
10
5.54504
20
-1.84805
11
5.54504
21
-1.8743
0
LINE
8
BLACK
6
CONTINUOUS
10
5.56191
20
-1.84805
11
5.56191
21
-1.8743
0
LINE
8
BLACK
6
CONTINUOUS
10
5.58628
20
-1.8743
11
5.58253
21
-1.87243
0
LINE
8
BLACK
6
CONTINUOUS
10
5.58253
20
-1.87243
11
5.58066
21
-1.87055
0
LINE
8
BLACK
6
CONTINUOUS
10
5.58066
20
-1.87055
11
5.57878
21
-1.8668
0
LINE
8
BLACK
6
CONTINUOUS
10
5.57878
20
-1.8668
11
5.57878
21
-1.85555
0
LINE
8
BLACK
6
CONTINUOUS
10
5.57878
20
-1.85555
11
5.58066
21
-1.8518
0
LINE
8
BLACK
6
CONTINUOUS
10
5.58066
20
-1.8518
11
5.58253
21
-1.84993
0
LINE
8
BLACK
6
CONTINUOUS
10
5.58253
20
-1.84993
11
5.58628
21
-1.84805
0
LINE
8
BLACK
6
CONTINUOUS
10
5.58628
20
-1.84805
11
5.59191
21
-1.84805
0
LINE
8
BLACK
6
CONTINUOUS
10
5.59191
20
-1.84805
11
5.59566
21
-1.84993
0
LINE
8
BLACK
6
CONTINUOUS
10
5.59566
20
-1.84993
11
5.59753
21
-1.8518
0
LINE
8
BLACK
6
CONTINUOUS
10
5.59753
20
-1.8518
11
5.59941
21
-1.85555
0
LINE
8
BLACK
6
CONTINUOUS
10
5.59941
20
-1.85555
11
5.59941
21
-1.8668
0
LINE
8
BLACK
6
CONTINUOUS
10
5.59941
20
-1.8668
11
5.59753
21
-1.87055
0
LINE
8
BLACK
6
CONTINUOUS
10
5.59753
20
-1.87055
11
5.59566
21
-1.87243
0
LINE
8
BLACK
6
CONTINUOUS
10
5.59566
20
-1.87243
11
5.59191
21
-1.8743
0
LINE
8
BLACK
6
CONTINUOUS
10
5.59191
20
-1.8743
11
5.58628
21
-1.8743
0
LINE
8
BLACK
6
CONTINUOUS
10
5.64253
20
-1.84805
11
5.6519
21
-1.8743
0
LINE
8
BLACK
6
CONTINUOUS
10
5.66127
20
-1.84805
11
5.6519
21
-1.8743
0
LINE
8
BLACK
6
CONTINUOUS
10
5.6519
20
-1.8743
11
5.64815
21
-1.88367
0
LINE
8
BLACK
6
CONTINUOUS
10
5.64815
20
-1.88367
11
5.64628
21
-1.88555
0
LINE
8
BLACK
6
CONTINUOUS
10
5.64628
20
-1.88555
11
5.64253
21
-1.88742
0
LINE
8
BLACK
6
CONTINUOUS
10
5.72876
20
-1.8743
11
5.72876
21
-1.83493
0
LINE
8
BLACK
6
CONTINUOUS
10
5.72876
20
-1.83493
11
5.72314
21
-1.83493
0
LINE
8
BLACK
6
CONTINUOUS
10
5.72314
20
-1.83493
11
5.71752
21
-1.8368
0
LINE
8
BLACK
6
CONTINUOUS
10
5.71752
20
-1.8368
11
5.71377
21
-1.84055
0
LINE
8
BLACK
6
CONTINUOUS
10
5.71377
20
-1.84055
11
5.71189
21
-1.84618
0
LINE
8
BLACK
6
CONTINUOUS
10
5.71189
20
-1.84618
11
5.70814
21
-1.86868
0
LINE
8
BLACK
6
CONTINUOUS
10
5.70814
20
-1.86868
11
5.70627
21
-1.87243
0
LINE
8
BLACK
6
CONTINUOUS
10
5.70627
20
-1.87243
11
5.70252
21
-1.8743
0
LINE
8
BLACK
6
CONTINUOUS
10
5.70252
20
-1.8743
11
5.70064
21
-1.8743
0
LINE
8
BLACK
6
CONTINUOUS
10
5.74751
20
-1.84805
11
5.74751
21
-1.8743
0
LINE
8
BLACK
6
CONTINUOUS
10
5.74751
20
-1.8743
11
5.75689
21
-1.8743
0
LINE
8
BLACK
6
CONTINUOUS
10
5.75689
20
-1.8743
11
5.76064
21
-1.87243
0
LINE
8
BLACK
6
CONTINUOUS
10
5.76064
20
-1.87243
11
5.76251
21
-1.86868
0
LINE
8
BLACK
6
CONTINUOUS
10
5.76251
20
-1.86868
11
5.76251
21
-1.86305
0
LINE
8
BLACK
6
CONTINUOUS
10
5.76251
20
-1.86305
11
5.76064
21
-1.8593
0
LINE
8
BLACK
6
CONTINUOUS
10
5.76064
20
-1.8593
11
5.75689
21
-1.85743
0
LINE
8
BLACK
6
CONTINUOUS
10
5.75689
20
-1.85743
11
5.74751
21
-1.85743
0
LINE
8
BLACK
6
CONTINUOUS
10
5.78876
20
-1.86118
11
5.79438
21
-1.86305
0
LINE
8
BLACK
6
CONTINUOUS
10
5.79438
20
-1.86305
11
5.79626
21
-1.8668
0
LINE
8
BLACK
6
CONTINUOUS
10
5.79626
20
-1.8668
11
5.79626
21
-1.86868
0
LINE
8
BLACK
6
CONTINUOUS
10
5.79626
20
-1.86868
11
5.79438
21
-1.87243
0
LINE
8
BLACK
6
CONTINUOUS
10
5.79438
20
-1.87243
11
5.79063
21
-1.8743
0
LINE
8
BLACK
6
CONTINUOUS
10
5.79063
20
-1.8743
11
5.77938
21
-1.8743
0
LINE
8
BLACK
6
CONTINUOUS
10
5.77938
20
-1.8743
11
5.77938
21
-1.84805
0
LINE
8
BLACK
6
CONTINUOUS
10
5.77938
20
-1.84805
11
5.78876
21
-1.84805
0
LINE
8
BLACK
6
CONTINUOUS
10
5.78876
20
-1.84805
11
5.79251
21
-1.84993
0
LINE
8
BLACK
6
CONTINUOUS
10
5.79251
20
-1.84993
11
5.79438
21
-1.85368
0
LINE
8
BLACK
6
CONTINUOUS
10
5.79438
20
-1.85368
11
5.79438
21
-1.85555
0
LINE
8
BLACK
6
CONTINUOUS
10
5.79438
20
-1.85555
11
5.79251
21
-1.8593
0
LINE
8
BLACK
6
CONTINUOUS
10
5.79251
20
-1.8593
11
5.78876
21
-1.86118
0
LINE
8
BLACK
6
CONTINUOUS
10
5.78876
20
-1.86118
11
5.77938
21
-1.86118
0
LINE
8
BLACK
6
CONTINUOUS
10
5.81875
20
-1.8743
11
5.815
21
-1.87243
0
LINE
8
BLACK
6
CONTINUOUS
10
5.815
20
-1.87243
11
5.81313
21
-1.87055
0
LINE
8
BLACK
6
CONTINUOUS
10
5.81313
20
-1.87055
11
5.81125
21
-1.8668
0
LINE
8
BLACK
6
CONTINUOUS
10
5.81125
20
-1.8668
11
5.81125
21
-1.85555
0
LINE
8
BLACK
6
CONTINUOUS
10
5.81125
20
-1.85555
11
5.81313
21
-1.8518
0
LINE
8
BLACK
6
CONTINUOUS
10
5.81313
20
-1.8518
11
5.815
21
-1.84993
0
LINE
8
BLACK
6
CONTINUOUS
10
5.815
20
-1.84993
11
5.81875
21
-1.84805
0
LINE
8
BLACK
6
CONTINUOUS
10
5.81875
20
-1.84805
11
5.82438
21
-1.84805
0
LINE
8
BLACK
6
CONTINUOUS
10
5.82438
20
-1.84805
11
5.82813
21
-1.84993
0
LINE
8
BLACK
6
CONTINUOUS
10
5.82813
20
-1.84993
11
5.83
21
-1.8518
0
LINE
8
BLACK
6
CONTINUOUS
10
5.83
20
-1.8518
11
5.83188
21
-1.85555
0
LINE
8
BLACK
6
CONTINUOUS
10
5.83188
20
-1.85555
11
5.83188
21
-1.8668
0
LINE
8
BLACK
6
CONTINUOUS
10
5.83188
20
-1.8668
11
5.83
21
-1.87055
0
LINE
8
BLACK
6
CONTINUOUS
10
5.83
20
-1.87055
11
5.82813
21
-1.87243
0
LINE
8
BLACK
6
CONTINUOUS
10
5.82813
20
-1.87243
11
5.82438
21
-1.8743
0
LINE
8
BLACK
6
CONTINUOUS
10
5.82438
20
-1.8743
11
5.81875
21
-1.8743
0
LINE
8
BLACK
6
CONTINUOUS
10
5.85812
20
-1.86118
11
5.86375
21
-1.86305
0
LINE
8
BLACK
6
CONTINUOUS
10
5.86375
20
-1.86305
11
5.86562
21
-1.8668
0
LINE
8
BLACK
6
CONTINUOUS
10
5.86562
20
-1.8668
11
5.86562
21
-1.86868
0
LINE
8
BLACK
6
CONTINUOUS
10
5.86562
20
-1.86868
11
5.86375
21
-1.87243
0
LINE
8
BLACK
6
CONTINUOUS
10
5.86375
20
-1.87243
11
5.86
21
-1.8743
0
LINE
8
BLACK
6
CONTINUOUS
10
5.86
20
-1.8743
11
5.84875
21
-1.8743
0
LINE
8
BLACK
6
CONTINUOUS
10
5.84875
20
-1.8743
11
5.84875
21
-1.84805
0
LINE
8
BLACK
6
CONTINUOUS
10
5.84875
20
-1.84805
11
5.85812
21
-1.84805
0
LINE
8
BLACK
6
CONTINUOUS
10
5.85812
20
-1.84805
11
5.86187
21
-1.84993
0
LINE
8
BLACK
6
CONTINUOUS
10
5.86187
20
-1.84993
11
5.86375
21
-1.85368
0
LINE
8
BLACK
6
CONTINUOUS
10
5.86375
20
-1.85368
11
5.86375
21
-1.85555
0
LINE
8
BLACK
6
CONTINUOUS
10
5.86375
20
-1.85555
11
5.86187
21
-1.8593
0
LINE
8
BLACK
6
CONTINUOUS
10
5.86187
20
-1.8593
11
5.85812
21
-1.86118
0
LINE
8
BLACK
6
CONTINUOUS
10
5.85812
20
-1.86118
11
5.84875
21
-1.86118
0
LINE
8
BLACK
6
CONTINUOUS
10
5.8825
20
-1.8743
11
5.8825
21
-1.84805
0
LINE
8
BLACK
6
CONTINUOUS
10
5.8825
20
-1.83493
11
5.88062
21
-1.8368
0
LINE
8
BLACK
6
CONTINUOUS
10
5.88062
20
-1.8368
11
5.8825
21
-1.83868
0
LINE
8
BLACK
6
CONTINUOUS
10
5.8825
20
-1.83868
11
5.88437
21
-1.8368
0
LINE
8
BLACK
6
CONTINUOUS
10
5.88437
20
-1.8368
11
5.8825
21
-1.83493
0
LINE
8
BLACK
6
CONTINUOUS
10
5.8825
20
-1.83493
11
5.8825
21
-1.83868
0
LINE
8
BLACK
6
CONTINUOUS
10
2.14428
20
-3.0845
11
2.12554
21
-3.09762
0
LINE
8
BLACK
6
CONTINUOUS
10
2.14428
20
-3.107
11
2.10491
21
-3.107
0
LINE
8
BLACK
6
CONTINUOUS
10
2.10491
20
-3.107
11
2.10491
21
-3.092
0
LINE
8
BLACK
6
CONTINUOUS
10
2.10491
20
-3.092
11
2.10679
21
-3.08825
0
LINE
8
BLACK
6
CONTINUOUS
10
2.10679
20
-3.08825
11
2.10866
21
-3.08637
0
LINE
8
BLACK
6
CONTINUOUS
10
2.10866
20
-3.08637
11
2.11241
21
-3.0845
0
LINE
8
BLACK
6
CONTINUOUS
10
2.11241
20
-3.0845
11
2.11804
21
-3.0845
0
LINE
8
BLACK
6
CONTINUOUS
10
2.11804
20
-3.0845
11
2.12179
21
-3.08637
0
LINE
8
BLACK
6
CONTINUOUS
10
2.12179
20
-3.08637
11
2.12366
21
-3.08825
0
LINE
8
BLACK
6
CONTINUOUS
10
2.12366
20
-3.08825
11
2.12554
21
-3.092
0
LINE
8
BLACK
6
CONTINUOUS
10
2.12554
20
-3.092
11
2.12554
21
-3.107
0
LINE
8
BLACK
6
CONTINUOUS
10
2.12366
20
-3.06763
11
2.12366
21
-3.0545
0
LINE
8
BLACK
6
CONTINUOUS
10
2.14428
20
-3.04888
11
2.14428
21
-3.06763
0
LINE
8
BLACK
6
CONTINUOUS
10
2.14428
20
-3.06763
11
2.10491
21
-3.06763
0
LINE
8
BLACK
6
CONTINUOUS
10
2.10491
20
-3.06763
11
2.10491
21
-3.04888
0
LINE
8
BLACK
6
CONTINUOUS
10
2.14241
20
-3.03388
11
2.14428
21
-3.02826
0
LINE
8
BLACK
6
CONTINUOUS
10
2.14428
20
-3.02826
11
2.14428
21
-3.01888
0
LINE
8
BLACK
6
CONTINUOUS
10
2.14428
20
-3.01888
11
2.14241
21
-3.01513
0
LINE
8
BLACK
6
CONTINUOUS
10
2.14241
20
-3.01513
11
2.14053
21
-3.01326
0
LINE
8
BLACK
6
CONTINUOUS
10
2.14053
20
-3.01326
11
2.13679
21
-3.01138
0
LINE
8
BLACK
6
CONTINUOUS
10
2.13679
20
-3.01138
11
2.13304
21
-3.01138
0
LINE
8
BLACK
6
CONTINUOUS
10
2.13304
20
-3.01138
11
2.12929
21
-3.01326
0
LINE
8
BLACK
6
CONTINUOUS
10
2.12929
20
-3.01326
11
2.12741
21
-3.01513
0
LINE
8
BLACK
6
CONTINUOUS
10
2.12741
20
-3.01513
11
2.12554
21
-3.01888
0
LINE
8
BLACK
6
CONTINUOUS
10
2.12554
20
-3.01888
11
2.12366
21
-3.02638
0
LINE
8
BLACK
6
CONTINUOUS
10
2.12366
20
-3.02638
11
2.12179
21
-3.03013
0
LINE
8
BLACK
6
CONTINUOUS
10
2.12179
20
-3.03013
11
2.11991
21
-3.03201
0
LINE
8
BLACK
6
CONTINUOUS
10
2.11991
20
-3.03201
11
2.11616
21
-3.03388
0
LINE
8
BLACK
6
CONTINUOUS
10
2.11616
20
-3.03388
11
2.11241
21
-3.03388
0
LINE
8
BLACK
6
CONTINUOUS
10
2.11241
20
-3.03388
11
2.10866
21
-3.03201
0
LINE
8
BLACK
6
CONTINUOUS
10
2.10866
20
-3.03201
11
2.10679
21
-3.03013
0
LINE
8
BLACK
6
CONTINUOUS
10
2.10679
20
-3.03013
11
2.10491
21
-3.02638
0
LINE
8
BLACK
6
CONTINUOUS
10
2.10491
20
-3.02638
11
2.10491
21
-3.01701
0
LINE
8
BLACK
6
CONTINUOUS
10
2.10491
20
-3.01701
11
2.10679
21
-3.01138
0
LINE
8
BLACK
6
CONTINUOUS
10
2.09398
20
-3.11243
11
2.09398
21
-3.00782
0
LINE
8
BLACK
6
CONTINUOUS
10
8.76196
20
-2.44498
11
8.76196
21
-2.40561
0
LINE
8
BLACK
6
CONTINUOUS
10
8.76196
20
-2.40561
11
8.77509
21
-2.43373
0
LINE
8
BLACK
6
CONTINUOUS
10
8.77509
20
-2.43373
11
8.78821
21
-2.40561
0
LINE
8
BLACK
6
CONTINUOUS
10
8.78821
20
-2.40561
11
8.78821
21
-2.44498
0
LINE
8
BLACK
6
CONTINUOUS
10
8.80696
20
-2.44498
11
8.80696
21
-2.40561
0
LINE
8
BLACK
6
CONTINUOUS
10
8.82383
20
-2.4431
11
8.82946
21
-2.44498
0
LINE
8
BLACK
6
CONTINUOUS
10
8.82946
20
-2.44498
11
8.83883
21
-2.44498
0
LINE
8
BLACK
6
CONTINUOUS
10
8.83883
20
-2.44498
11
8.84258
21
-2.4431
0
LINE
8
BLACK
6
CONTINUOUS
10
8.84258
20
-2.4431
11
8.84445
21
-2.44123
0
LINE
8
BLACK
6
CONTINUOUS
10
8.84445
20
-2.44123
11
8.84633
21
-2.43748
0
LINE
8
BLACK
6
CONTINUOUS
10
8.84633
20
-2.43748
11
8.84633
21
-2.43373
0
LINE
8
BLACK
6
CONTINUOUS
10
8.84633
20
-2.43373
11
8.84445
21
-2.42998
0
LINE
8
BLACK
6
CONTINUOUS
10
8.84445
20
-2.42998
11
8.84258
21
-2.4281
0
LINE
8
BLACK
6
CONTINUOUS
10
8.84258
20
-2.4281
11
8.83883
21
-2.42623
0
LINE
8
BLACK
6
CONTINUOUS
10
8.83883
20
-2.42623
11
8.83133
21
-2.42435
0
LINE
8
BLACK
6
CONTINUOUS
10
8.83133
20
-2.42435
11
8.82758
21
-2.42248
0
LINE
8
BLACK
6
CONTINUOUS
10
8.82758
20
-2.42248
11
8.82571
21
-2.42061
0
LINE
8
BLACK
6
CONTINUOUS
10
8.82571
20
-2.42061
11
8.82383
21
-2.41686
0
LINE
8
BLACK
6
CONTINUOUS
10
8.82383
20
-2.41686
11
8.82383
21
-2.41311
0
LINE
8
BLACK
6
CONTINUOUS
10
8.82383
20
-2.41311
11
8.82571
21
-2.40936
0
LINE
8
BLACK
6
CONTINUOUS
10
8.82571
20
-2.40936
11
8.82758
21
-2.40748
0
LINE
8
BLACK
6
CONTINUOUS
10
8.82758
20
-2.40748
11
8.83133
21
-2.40561
0
LINE
8
BLACK
6
CONTINUOUS
10
8.83133
20
-2.40561
11
8.8407
21
-2.40561
0
LINE
8
BLACK
6
CONTINUOUS
10
8.8407
20
-2.40561
11
8.84633
21
-2.40748
0
LINE
8
BLACK
6
CONTINUOUS
10
8.8707
20
-2.40561
11
8.8782
21
-2.40561
0
LINE
8
BLACK
6
CONTINUOUS
10
8.8782
20
-2.40561
11
8.88195
21
-2.40748
0
LINE
8
BLACK
6
CONTINUOUS
10
8.88195
20
-2.40748
11
8.8857
21
-2.41123
0
LINE
8
BLACK
6
CONTINUOUS
10
8.8857
20
-2.41123
11
8.88757
21
-2.41873
0
LINE
8
BLACK
6
CONTINUOUS
10
8.88757
20
-2.41873
11
8.88757
21
-2.43185
0
LINE
8
BLACK
6
CONTINUOUS
10
8.88757
20
-2.43185
11
8.8857
21
-2.43935
0
LINE
8
BLACK
6
CONTINUOUS
10
8.8857
20
-2.43935
11
8.88195
21
-2.4431
0
LINE
8
BLACK
6
CONTINUOUS
10
8.88195
20
-2.4431
11
8.8782
21
-2.44498
0
LINE
8
BLACK
6
CONTINUOUS
10
8.8782
20
-2.44498
11
8.8707
21
-2.44498
0
LINE
8
BLACK
6
CONTINUOUS
10
8.8707
20
-2.44498
11
8.86695
21
-2.4431
0
LINE
8
BLACK
6
CONTINUOUS
10
8.86695
20
-2.4431
11
8.8632
21
-2.43935
0
LINE
8
BLACK
6
CONTINUOUS
10
8.8632
20
-2.43935
11
8.86133
21
-2.43185
0
LINE
8
BLACK
6
CONTINUOUS
10
8.86133
20
-2.43185
11
8.86133
21
-2.41873
0
LINE
8
BLACK
6
CONTINUOUS
10
8.86133
20
-2.41873
11
8.8632
21
-2.41123
0
LINE
8
BLACK
6
CONTINUOUS
10
8.8632
20
-2.41123
11
8.86695
21
-2.40748
0
LINE
8
BLACK
6
CONTINUOUS
10
8.86695
20
-2.40748
11
8.8707
21
-2.40561
0
LINE
8
BLACK
6
CONTINUOUS
10
8.76196
20
-2.54498
11
8.76196
21
-2.50561
0
LINE
8
BLACK
6
CONTINUOUS
10
8.76196
20
-2.50561
11
8.77509
21
-2.53373
0
LINE
8
BLACK
6
CONTINUOUS
10
8.77509
20
-2.53373
11
8.78821
21
-2.50561
0
LINE
8
BLACK
6
CONTINUOUS
10
8.78821
20
-2.50561
11
8.78821
21
-2.54498
0
LINE
8
BLACK
6
CONTINUOUS
10
8.81446
20
-2.50561
11
8.82196
21
-2.50561
0
LINE
8
BLACK
6
CONTINUOUS
10
8.82196
20
-2.50561
11
8.82571
21
-2.50748
0
LINE
8
BLACK
6
CONTINUOUS
10
8.82571
20
-2.50748
11
8.82946
21
-2.51123
0
LINE
8
BLACK
6
CONTINUOUS
10
8.82946
20
-2.51123
11
8.83133
21
-2.51873
0
LINE
8
BLACK
6
CONTINUOUS
10
8.83133
20
-2.51873
11
8.83133
21
-2.53185
0
LINE
8
BLACK
6
CONTINUOUS
10
8.83133
20
-2.53185
11
8.82946
21
-2.53935
0
LINE
8
BLACK
6
CONTINUOUS
10
8.82946
20
-2.53935
11
8.82571
21
-2.5431
0
LINE
8
BLACK
6
CONTINUOUS
10
8.82571
20
-2.5431
11
8.82196
21
-2.54498
0
LINE
8
BLACK
6
CONTINUOUS
10
8.82196
20
-2.54498
11
8.81446
21
-2.54498
0
LINE
8
BLACK
6
CONTINUOUS
10
8.81446
20
-2.54498
11
8.81071
21
-2.5431
0
LINE
8
BLACK
6
CONTINUOUS
10
8.81071
20
-2.5431
11
8.80696
21
-2.53935
0
LINE
8
BLACK
6
CONTINUOUS
10
8.80696
20
-2.53935
11
8.80508
21
-2.53185
0
LINE
8
BLACK
6
CONTINUOUS
10
8.80508
20
-2.53185
11
8.80508
21
-2.51873
0
LINE
8
BLACK
6
CONTINUOUS
10
8.80508
20
-2.51873
11
8.80696
21
-2.51123
0
LINE
8
BLACK
6
CONTINUOUS
10
8.80696
20
-2.51123
11
8.81071
21
-2.50748
0
LINE
8
BLACK
6
CONTINUOUS
10
8.81071
20
-2.50748
11
8.81446
21
-2.50561
0
LINE
8
BLACK
6
CONTINUOUS
10
8.84633
20
-2.5431
11
8.85195
21
-2.54498
0
LINE
8
BLACK
6
CONTINUOUS
10
8.85195
20
-2.54498
11
8.86133
21
-2.54498
0
LINE
8
BLACK
6
CONTINUOUS
10
8.86133
20
-2.54498
11
8.86508
21
-2.5431
0
LINE
8
BLACK
6
CONTINUOUS
10
8.86508
20
-2.5431
11
8.86695
21
-2.54123
0
LINE
8
BLACK
6
CONTINUOUS
10
8.86695
20
-2.54123
11
8.86883
21
-2.53748
0
LINE
8
BLACK
6
CONTINUOUS
10
8.86883
20
-2.53748
11
8.86883
21
-2.53373
0
LINE
8
BLACK
6
CONTINUOUS
10
8.86883
20
-2.53373
11
8.86695
21
-2.52998
0
LINE
8
BLACK
6
CONTINUOUS
10
8.86695
20
-2.52998
11
8.86508
21
-2.5281
0
LINE
8
BLACK
6
CONTINUOUS
10
8.86508
20
-2.5281
11
8.86133
21
-2.52623
0
LINE
8
BLACK
6
CONTINUOUS
10
8.86133
20
-2.52623
11
8.85383
21
-2.52435
0
LINE
8
BLACK
6
CONTINUOUS
10
8.85383
20
-2.52435
11
8.85008
21
-2.52248
0
LINE
8
BLACK
6
CONTINUOUS
10
8.85008
20
-2.52248
11
8.8482
21
-2.52061
0
LINE
8
BLACK
6
CONTINUOUS
10
8.8482
20
-2.52061
11
8.84633
21
-2.51686
0
LINE
8
BLACK
6
CONTINUOUS
10
8.84633
20
-2.51686
11
8.84633
21
-2.51311
0
LINE
8
BLACK
6
CONTINUOUS
10
8.84633
20
-2.51311
11
8.8482
21
-2.50936
0
LINE
8
BLACK
6
CONTINUOUS
10
8.8482
20
-2.50936
11
8.85008
21
-2.50748
0
LINE
8
BLACK
6
CONTINUOUS
10
8.85008
20
-2.50748
11
8.85383
21
-2.50561
0
LINE
8
BLACK
6
CONTINUOUS
10
8.85383
20
-2.50561
11
8.8632
21
-2.50561
0
LINE
8
BLACK
6
CONTINUOUS
10
8.8632
20
-2.50561
11
8.86883
21
-2.50748
0
LINE
8
BLACK
6
CONTINUOUS
10
8.8857
20
-2.54498
11
8.8857
21
-2.50561
0
LINE
8
BLACK
6
CONTINUOUS
10
8.78259
20
-2.20748
11
8.77884
21
-2.20561
0
LINE
8
BLACK
6
CONTINUOUS
10
8.77884
20
-2.20561
11
8.77321
21
-2.20561
0
LINE
8
BLACK
6
CONTINUOUS
10
8.77321
20
-2.20561
11
8.76759
21
-2.20748
0
LINE
8
BLACK
6
CONTINUOUS
10
8.76759
20
-2.20748
11
8.76384
21
-2.21123
0
LINE
8
BLACK
6
CONTINUOUS
10
8.76384
20
-2.21123
11
8.76196
21
-2.21498
0
LINE
8
BLACK
6
CONTINUOUS
10
8.76196
20
-2.21498
11
8.76009
21
-2.22248
0
LINE
8
BLACK
6
CONTINUOUS
10
8.76009
20
-2.22248
11
8.76009
21
-2.2281
0
LINE
8
BLACK
6
CONTINUOUS
10
8.76009
20
-2.2281
11
8.76196
21
-2.2356
0
LINE
8
BLACK
6
CONTINUOUS
10
8.76196
20
-2.2356
11
8.76384
21
-2.23935
0
LINE
8
BLACK
6
CONTINUOUS
10
8.76384
20
-2.23935
11
8.76759
21
-2.2431
0
LINE
8
BLACK
6
CONTINUOUS
10
8.76759
20
-2.2431
11
8.77321
21
-2.24498
0
LINE
8
BLACK
6
CONTINUOUS
10
8.77321
20
-2.24498
11
8.77696
21
-2.24498
0
LINE
8
BLACK
6
CONTINUOUS
10
8.77696
20
-2.24498
11
8.78259
21
-2.2431
0
LINE
8
BLACK
6
CONTINUOUS
10
8.78259
20
-2.2431
11
8.78446
21
-2.24123
0
LINE
8
BLACK
6
CONTINUOUS
10
8.78446
20
-2.24123
11
8.78446
21
-2.2281
0
LINE
8
BLACK
6
CONTINUOUS
10
8.78446
20
-2.2281
11
8.77696
21
-2.2281
0
LINE
8
BLACK
6
CONTINUOUS
10
8.80133
20
-2.24498
11
8.80133
21
-2.20561
0
LINE
8
BLACK
6
CONTINUOUS
10
8.80133
20
-2.20561
11
8.82383
21
-2.24498
0
LINE
8
BLACK
6
CONTINUOUS
10
8.82383
20
-2.24498
11
8.82383
21
-2.20561
0
LINE
8
BLACK
6
CONTINUOUS
10
8.84258
20
-2.24498
11
8.84258
21
-2.20561
0
LINE
8
BLACK
6
CONTINUOUS
10
8.84258
20
-2.20561
11
8.85195
21
-2.20561
0
LINE
8
BLACK
6
CONTINUOUS
10
8.85195
20
-2.20561
11
8.85758
21
-2.20748
0
LINE
8
BLACK
6
CONTINUOUS
10
8.85758
20
-2.20748
11
8.86133
21
-2.21123
0
LINE
8
BLACK
6
CONTINUOUS
10
8.86133
20
-2.21123
11
8.8632
21
-2.21498
0
LINE
8
BLACK
6
CONTINUOUS
10
8.8632
20
-2.21498
11
8.86508
21
-2.22248
0
LINE
8
BLACK
6
CONTINUOUS
10
8.86508
20
-2.22248
11
8.86508
21
-2.2281
0
LINE
8
BLACK
6
CONTINUOUS
10
8.86508
20
-2.2281
11
8.8632
21
-2.2356
0
LINE
8
BLACK
6
CONTINUOUS
10
8.8632
20
-2.2356
11
8.86133
21
-2.23935
0
LINE
8
BLACK
6
CONTINUOUS
10
8.86133
20
-2.23935
11
8.85758
21
-2.2431
0
LINE
8
BLACK
6
CONTINUOUS
10
8.85758
20
-2.2431
11
8.85195
21
-2.24498
0
LINE
8
BLACK
6
CONTINUOUS
10
8.85195
20
-2.24498
11
8.84258
21
-2.24498
0
LINE
8
BLACK
6
CONTINUOUS
10
8.76009
20
-2.6431
11
8.76571
21
-2.64498
0
LINE
8
BLACK
6
CONTINUOUS
10
8.76571
20
-2.64498
11
8.77509
21
-2.64498
0
LINE
8
BLACK
6
CONTINUOUS
10
8.77509
20
-2.64498
11
8.77884
21
-2.6431
0
LINE
8
BLACK
6
CONTINUOUS
10
8.77884
20
-2.6431
11
8.78071
21
-2.64123
0
LINE
8
BLACK
6
CONTINUOUS
10
8.78071
20
-2.64123
11
8.78259
21
-2.63748
0
LINE
8
BLACK
6
CONTINUOUS
10
8.78259
20
-2.63748
11
8.78259
21
-2.63373
0
LINE
8
BLACK
6
CONTINUOUS
10
8.78259
20
-2.63373
11
8.78071
21
-2.62998
0
LINE
8
BLACK
6
CONTINUOUS
10
8.78071
20
-2.62998
11
8.77884
21
-2.6281
0
LINE
8
BLACK
6
CONTINUOUS
10
8.77884
20
-2.6281
11
8.77509
21
-2.62623
0
LINE
8
BLACK
6
CONTINUOUS
10
8.77509
20
-2.62623
11
8.76759
21
-2.62435
0
LINE
8
BLACK
6
CONTINUOUS
10
8.76759
20
-2.62435
11
8.76384
21
-2.62248
0
LINE
8
BLACK
6
CONTINUOUS
10
8.76384
20
-2.62248
11
8.76196
21
-2.62061
0
LINE
8
BLACK
6
CONTINUOUS
10
8.76196
20
-2.62061
11
8.76009
21
-2.61686
0
LINE
8
BLACK
6
CONTINUOUS
10
8.76009
20
-2.61686
11
8.76009
21
-2.61311
0
LINE
8
BLACK
6
CONTINUOUS
10
8.76009
20
-2.61311
11
8.76196
21
-2.60936
0
LINE
8
BLACK
6
CONTINUOUS
10
8.76196
20
-2.60936
11
8.76384
21
-2.60748
0
LINE
8
BLACK
6
CONTINUOUS
10
8.76384
20
-2.60748
11
8.76759
21
-2.60561
0
LINE
8
BLACK
6
CONTINUOUS
10
8.76759
20
-2.60561
11
8.77696
21
-2.60561
0
LINE
8
BLACK
6
CONTINUOUS
10
8.77696
20
-2.60561
11
8.78259
21
-2.60748
0
LINE
8
BLACK
6
CONTINUOUS
10
8.82196
20
-2.64123
11
8.82008
21
-2.6431
0
LINE
8
BLACK
6
CONTINUOUS
10
8.82008
20
-2.6431
11
8.81446
21
-2.64498
0
LINE
8
BLACK
6
CONTINUOUS
10
8.81446
20
-2.64498
11
8.81071
21
-2.64498
0
LINE
8
BLACK
6
CONTINUOUS
10
8.81071
20
-2.64498
11
8.80508
21
-2.6431
0
LINE
8
BLACK
6
CONTINUOUS
10
8.80508
20
-2.6431
11
8.80133
21
-2.63935
0
LINE
8
BLACK
6
CONTINUOUS
10
8.80133
20
-2.63935
11
8.79946
21
-2.6356
0
LINE
8
BLACK
6
CONTINUOUS
10
8.79946
20
-2.6356
11
8.79758
21
-2.6281
0
LINE
8
BLACK
6
CONTINUOUS
10
8.79758
20
-2.6281
11
8.79758
21
-2.62248
0
LINE
8
BLACK
6
CONTINUOUS
10
8.79758
20
-2.62248
11
8.79946
21
-2.61498
0
LINE
8
BLACK
6
CONTINUOUS
10
8.79946
20
-2.61498
11
8.80133
21
-2.61123
0
LINE
8
BLACK
6
CONTINUOUS
10
8.80133
20
-2.61123
11
8.80508
21
-2.60748
0
LINE
8
BLACK
6
CONTINUOUS
10
8.80508
20
-2.60748
11
8.81071
21
-2.60561
0
LINE
8
BLACK
6
CONTINUOUS
10
8.81071
20
-2.60561
11
8.81446
21
-2.60561
0
LINE
8
BLACK
6
CONTINUOUS
10
8.81446
20
-2.60561
11
8.82008
21
-2.60748
0
LINE
8
BLACK
6
CONTINUOUS
10
8.82008
20
-2.60748
11
8.82196
21
-2.60936
0
LINE
8
BLACK
6
CONTINUOUS
10
8.83883
20
-2.64498
11
8.83883
21
-2.60561
0
LINE
8
BLACK
6
CONTINUOUS
10
8.86133
20
-2.64498
11
8.84445
21
-2.62248
0
LINE
8
BLACK
6
CONTINUOUS
10
8.86133
20
-2.60561
11
8.83883
21
-2.6281
0
LINE
8
BLACK
6
CONTINUOUS
10
8.75634
20
-2.30561
11
8.76946
21
-2.34498
0
LINE
8
BLACK
6
CONTINUOUS
10
8.76946
20
-2.34498
11
8.78259
21
-2.30561
0
LINE
8
BLACK
6
CONTINUOUS
10
8.81821
20
-2.34123
11
8.81633
21
-2.3431
0
LINE
8
BLACK
6
CONTINUOUS
10
8.81633
20
-2.3431
11
8.81071
21
-2.34498
0
LINE
8
BLACK
6
CONTINUOUS
10
8.81071
20
-2.34498
11
8.80696
21
-2.34498
0
LINE
8
BLACK
6
CONTINUOUS
10
8.80696
20
-2.34498
11
8.80133
21
-2.3431
0
LINE
8
BLACK
6
CONTINUOUS
10
8.80133
20
-2.3431
11
8.79758
21
-2.33935
0
LINE
8
BLACK
6
CONTINUOUS
10
8.79758
20
-2.33935
11
8.79571
21
-2.3356
0
LINE
8
BLACK
6
CONTINUOUS
10
8.79571
20
-2.3356
11
8.79383
21
-2.3281
0
LINE
8
BLACK
6
CONTINUOUS
10
8.79383
20
-2.3281
11
8.79383
21
-2.32248
0
LINE
8
BLACK
6
CONTINUOUS
10
8.79383
20
-2.32248
11
8.79571
21
-2.31498
0
LINE
8
BLACK
6
CONTINUOUS
10
8.79571
20
-2.31498
11
8.79758
21
-2.31123
0
LINE
8
BLACK
6
CONTINUOUS
10
8.79758
20
-2.31123
11
8.80133
21
-2.30748
0
LINE
8
BLACK
6
CONTINUOUS
10
8.80133
20
-2.30748
11
8.80696
21
-2.30561
0
LINE
8
BLACK
6
CONTINUOUS
10
8.80696
20
-2.30561
11
8.81071
21
-2.30561
0
LINE
8
BLACK
6
CONTINUOUS
10
8.81071
20
-2.30561
11
8.81633
21
-2.30748
0
LINE
8
BLACK
6
CONTINUOUS
10
8.81633
20
-2.30748
11
8.81821
21
-2.30936
0
LINE
8
BLACK
6
CONTINUOUS
10
8.85758
20
-2.34123
11
8.8557
21
-2.3431
0
LINE
8
BLACK
6
CONTINUOUS
10
8.8557
20
-2.3431
11
8.85008
21
-2.34498
0
LINE
8
BLACK
6
CONTINUOUS
10
8.85008
20
-2.34498
11
8.84633
21
-2.34498
0
LINE
8
BLACK
6
CONTINUOUS
10
8.84633
20
-2.34498
11
8.8407
21
-2.3431
0
LINE
8
BLACK
6
CONTINUOUS
10
8.8407
20
-2.3431
11
8.83695
21
-2.33935
0
LINE
8
BLACK
6
CONTINUOUS
10
8.83695
20
-2.33935
11
8.83508
21
-2.3356
0
LINE
8
BLACK
6
CONTINUOUS
10
8.83508
20
-2.3356
11
8.83321
21
-2.3281
0
LINE
8
BLACK
6
CONTINUOUS
10
8.83321
20
-2.3281
11
8.83321
21
-2.32248
0
LINE
8
BLACK
6
CONTINUOUS
10
8.83321
20
-2.32248
11
8.83508
21
-2.31498
0
LINE
8
BLACK
6
CONTINUOUS
10
8.83508
20
-2.31498
11
8.83695
21
-2.31123
0
LINE
8
BLACK
6
CONTINUOUS
10
8.83695
20
-2.31123
11
8.8407
21
-2.30748
0
LINE
8
BLACK
6
CONTINUOUS
10
8.8407
20
-2.30748
11
8.84633
21
-2.30561
0
LINE
8
BLACK
6
CONTINUOUS
10
8.84633
20
-2.30561
11
8.85008
21
-2.30561
0
LINE
8
BLACK
6
CONTINUOUS
10
8.85008
20
-2.30561
11
8.8557
21
-2.30748
0
LINE
8
BLACK
6
CONTINUOUS
10
8.8557
20
-2.30748
11
8.85758
21
-2.30936
0
LINE
8
BLACK
6
CONTINUOUS
10
8.75634
20
-2.72998
11
8.75821
21
-2.7281
0
LINE
8
BLACK
6
CONTINUOUS
10
8.75821
20
-2.7281
11
8.76196
21
-2.72623
0
LINE
8
BLACK
6
CONTINUOUS
10
8.76196
20
-2.72623
11
8.76946
21
-2.72998
0
LINE
8
BLACK
6
CONTINUOUS
10
8.76946
20
-2.72998
11
8.77321
21
-2.7281
0
LINE
8
BLACK
6
CONTINUOUS
10
8.77321
20
-2.7281
11
8.77509
21
-2.72623
0
LINE
8
BLACK
6
CONTINUOUS
10
8.81258
20
-2.74123
11
8.81071
21
-2.7431
0
LINE
8
BLACK
6
CONTINUOUS
10
8.81071
20
-2.7431
11
8.80508
21
-2.74498
0
LINE
8
BLACK
6
CONTINUOUS
10
8.80508
20
-2.74498
11
8.80133
21
-2.74498
0
LINE
8
BLACK
6
CONTINUOUS
10
8.80133
20
-2.74498
11
8.79571
21
-2.7431
0
LINE
8
BLACK
6
CONTINUOUS
10
8.79571
20
-2.7431
11
8.79196
21
-2.73935
0
LINE
8
BLACK
6
CONTINUOUS
10
8.79196
20
-2.73935
11
8.79009
21
-2.7356
0
LINE
8
BLACK
6
CONTINUOUS
10
8.79009
20
-2.7356
11
8.78821
21
-2.7281
0
LINE
8
BLACK
6
CONTINUOUS
10
8.78821
20
-2.7281
11
8.78821
21
-2.72248
0
LINE
8
BLACK
6
CONTINUOUS
10
8.78821
20
-2.72248
11
8.79009
21
-2.71498
0
LINE
8
BLACK
6
CONTINUOUS
10
8.79009
20
-2.71498
11
8.79196
21
-2.71123
0
LINE
8
BLACK
6
CONTINUOUS
10
8.79196
20
-2.71123
11
8.79571
21
-2.70748
0
LINE
8
BLACK
6
CONTINUOUS
10
8.79571
20
-2.70748
11
8.80133
21
-2.70561
0
LINE
8
BLACK
6
CONTINUOUS
10
8.80133
20
-2.70561
11
8.80508
21
-2.70561
0
LINE
8
BLACK
6
CONTINUOUS
10
8.80508
20
-2.70561
11
8.81071
21
-2.70748
0
LINE
8
BLACK
6
CONTINUOUS
10
8.81071
20
-2.70748
11
8.81258
21
-2.70936
0
LINE
8
BLACK
6
CONTINUOUS
10
8.82758
20
-2.7431
11
8.83321
21
-2.74498
0
LINE
8
BLACK
6
CONTINUOUS
10
8.83321
20
-2.74498
11
8.84258
21
-2.74498
0
LINE
8
BLACK
6
CONTINUOUS
10
8.84258
20
-2.74498
11
8.84633
21
-2.7431
0
LINE
8
BLACK
6
CONTINUOUS
10
8.84633
20
-2.7431
11
8.8482
21
-2.74123
0
LINE
8
BLACK
6
CONTINUOUS
10
8.8482
20
-2.74123
11
8.85008
21
-2.73748
0
LINE
8
BLACK
6
CONTINUOUS
10
8.85008
20
-2.73748
11
8.85008
21
-2.73373
0
LINE
8
BLACK
6
CONTINUOUS
10
8.85008
20
-2.73373
11
8.8482
21
-2.72998
0
LINE
8
BLACK
6
CONTINUOUS
10
8.8482
20
-2.72998
11
8.84633
21
-2.7281
0
LINE
8
BLACK
6
CONTINUOUS
10
8.84633
20
-2.7281
11
8.84258
21
-2.72623
0
LINE
8
BLACK
6
CONTINUOUS
10
8.84258
20
-2.72623
11
8.83508
21
-2.72435
0
LINE
8
BLACK
6
CONTINUOUS
10
8.83508
20
-2.72435
11
8.83133
21
-2.72248
0
LINE
8
BLACK
6
CONTINUOUS
10
8.83133
20
-2.72248
11
8.82946
21
-2.72061
0
LINE
8
BLACK
6
CONTINUOUS
10
8.82946
20
-2.72061
11
8.82758
21
-2.71686
0
LINE
8
BLACK
6
CONTINUOUS
10
8.82758
20
-2.71686
11
8.82758
21
-2.71311
0
LINE
8
BLACK
6
CONTINUOUS
10
8.82758
20
-2.71311
11
8.82946
21
-2.70936
0
LINE
8
BLACK
6
CONTINUOUS
10
8.82946
20
-2.70936
11
8.83133
21
-2.70748
0
LINE
8
BLACK
6
CONTINUOUS
10
8.83133
20
-2.70748
11
8.83508
21
-2.70561
0
LINE
8
BLACK
6
CONTINUOUS
10
8.83508
20
-2.70561
11
8.84445
21
-2.70561
0
LINE
8
BLACK
6
CONTINUOUS
10
8.84445
20
-2.70561
11
8.85008
21
-2.70748
0
LINE
8
BLACK
6
CONTINUOUS
10
8.86133
20
-2.72998
11
8.8632
21
-2.7281
0
LINE
8
BLACK
6
CONTINUOUS
10
8.8632
20
-2.7281
11
8.86695
21
-2.72623
0
LINE
8
BLACK
6
CONTINUOUS
10
8.86695
20
-2.72623
11
8.87445
21
-2.72998
0
LINE
8
BLACK
6
CONTINUOUS
10
8.87445
20
-2.72998
11
8.8782
21
-2.7281
0
LINE
8
BLACK
6
CONTINUOUS
10
8.8782
20
-2.7281
11
8.88007
21
-2.72623
0
LINE
8
BLACK
6
CONTINUOUS
10
6.58425
20
-1.76299
11
6.58425
21
-1.72559
0
LINE
8
BLACK
6
CONTINUOUS
10
6.54803
20
-1.72559
11
6.62047
21
-1.72559
0
LINE
8
BLACK
6
CONTINUOUS
10
6.62047
20
-1.72559
11
6.62047
21
-1.57441
0
LINE
8
BLACK
6
CONTINUOUS
10
6.54803
20
-1.57441
11
6.54803
21
-1.72559
0
LINE
8
BLACK
6
CONTINUOUS
10
6.62047
20
-1.57441
11
6.54803
21
-1.57441
0
LINE
8
BLACK
6
CONTINUOUS
10
6.58425
20
-1.53701
11
6.58425
21
-1.57441
0
LINE
8
BLACK
6
CONTINUOUS
10
2.57441
20
-4.86417
11
2.57441
21
-4.8248
0
LINE
8
BLACK
6
CONTINUOUS
10
2.57441
20
-5.37598
11
2.57441
21
-5.33661
0
LINE
8
BLACK
6
CONTINUOUS
10
2.57441
20
-5.37598
11
2.61378
21
-5.37598
0
LINE
8
BLACK
6
CONTINUOUS
10
2.61378
20
-4.8248
11
2.57441
21
-4.8248
0
LINE
8
BLACK
6
CONTINUOUS
10
3.08622
20
-5.37598
11
3.12559
21
-5.37598
0
LINE
8
BLACK
6
CONTINUOUS
10
3.12559
20
-4.8248
11
3.08622
21
-4.8248
0
LINE
8
BLACK
6
CONTINUOUS
10
3.12559
20
-4.8248
11
3.12559
21
-4.86417
0
LINE
8
BLACK
6
CONTINUOUS
10
3.12559
20
-5.33661
11
3.12559
21
-5.37598
0
LINE
8
BLACK
6
CONTINUOUS
10
7.79764
20
-2.34528
11
7.79764
21
-3.05472
0
LINE
8
BLACK
6
CONTINUOUS
10
7.79764
20
-3.05472
11
8.20236
21
-3.05472
0
LINE
8
BLACK
6
CONTINUOUS
10
7.89567
20
-2.34764
11
7.89567
21
-3.05236
0
LINE
8
BLACK
6
CONTINUOUS
10
7.89567
20
-3.05236
11
8.10433
21
-3.05236
0
LINE
8
BLACK
6
CONTINUOUS
10
7.96063
20
-2.34764
11
7.89567
21
-2.34764
0
LINE
8
BLACK
6
CONTINUOUS
10
8.10433
20
-2.34764
11
8.03937
21
-2.34764
0
LINE
8
BLACK
6
CONTINUOUS
10
8.10433
20
-3.05236
11
8.10433
21
-2.34764
0
LINE
8
BLACK
6
CONTINUOUS
10
8.20236
20
-2.34528
11
7.79764
21
-2.34528
0
LINE
8
BLACK
6
CONTINUOUS
10
8.20236
20
-3.05472
11
8.20236
21
-2.34528
0
ARC
8
BLACK
10
8
20
-2.34764
40
0.0393701
50
-180
51
-0
0
LINE
8
BLACK
6
CONTINUOUS
10
2.95236
20
-2.15472
11
2.95236
21
-0.545276
0
LINE
8
BLACK
6
CONTINUOUS
10
2.95236
20
-0.545276
11
2.24764
21
-0.545276
0
LINE
8
BLACK
6
CONTINUOUS
10
2.85433
20
-2.15236
11
2.85433
21
-0.547638
0
LINE
8
BLACK
6
CONTINUOUS
10
2.85433
20
-0.547638
11
2.34567
21
-0.547638
0
LINE
8
BLACK
6
CONTINUOUS
10
2.63937
20
-2.15236
11
2.85433
21
-2.15236
0
LINE
8
BLACK
6
CONTINUOUS
10
2.34567
20
-2.15236
11
2.56063
21
-2.15236
0
LINE
8
BLACK
6
CONTINUOUS
10
2.34567
20
-0.547638
11
2.34567
21
-2.15236
0
LINE
8
BLACK
6
CONTINUOUS
10
2.24764
20
-2.15472
11
2.95236
21
-2.15472
0
LINE
8
BLACK
6
CONTINUOUS
10
2.24764
20
-0.545276
11
2.24764
21
-2.15472
0
ARC
8
BLACK
10
2.6
20
-2.15236
40
0.0393701
50
-0
51
180
0
LINE
8
BLACK
6
CONTINUOUS
10
6.48425
20
-1.53701
11
6.48425
21
-1.57441
0
LINE
8
BLACK
6
CONTINUOUS
10
6.52047
20
-1.57441
11
6.44803
21
-1.57441
0
LINE
8
BLACK
6
CONTINUOUS
10
6.44803
20
-1.57441
11
6.44803
21
-1.72559
0
LINE
8
BLACK
6
CONTINUOUS
10
6.52047
20
-1.72559
11
6.52047
21
-1.57441
0
LINE
8
BLACK
6
CONTINUOUS
10
6.44803
20
-1.72559
11
6.52047
21
-1.72559
0
LINE
8
BLACK
6
CONTINUOUS
10
6.48425
20
-1.76299
11
6.48425
21
-1.72559
0
LINE
8
BLACK
6
CONTINUOUS
10
7.62441
20
-5.61417
11
7.62441
21
-5.5748
0
LINE
8
BLACK
6
CONTINUOUS
10
7.62441
20
-6.12598
11
7.62441
21
-6.08661
0
LINE
8
BLACK
6
CONTINUOUS
10
7.62441
20
-6.12598
11
7.66378
21
-6.12598
0
LINE
8
BLACK
6
CONTINUOUS
10
7.66378
20
-5.5748
11
7.62441
21
-5.5748
0
LINE
8
BLACK
6
CONTINUOUS
10
8.13622
20
-6.12598
11
8.17559
21
-6.12598
0
LINE
8
BLACK
6
CONTINUOUS
10
8.17559
20
-5.5748
11
8.13622
21
-5.5748
0
LINE
8
BLACK
6
CONTINUOUS
10
8.17559
20
-5.5748
11
8.17559
21
-5.61417
0
LINE
8
BLACK
6
CONTINUOUS
10
8.17559
20
-6.08661
11
8.17559
21
-6.12598
0
ARC
8
BLACK
10
4.10039
20
-0.747835
40
0.0393701
50
-180
51
-0
0
LINE
8
BLACK
6
CONTINUOUS
10
4.30276
20
-1.75492
11
4.30276
21
-0.745472
0
LINE
8
BLACK
6
CONTINUOUS
10
4.30276
20
-0.745472
11
3.89803
21
-0.745472
0
LINE
8
BLACK
6
CONTINUOUS
10
4.20472
20
-1.75256
11
4.20472
21
-0.747835
0
LINE
8
BLACK
6
CONTINUOUS
10
4.20472
20
-0.747835
11
4.13976
21
-0.747835
0
LINE
8
BLACK
6
CONTINUOUS
10
4.06102
20
-0.747835
11
3.99606
21
-0.747835
0
LINE
8
BLACK
6
CONTINUOUS
10
3.99606
20
-1.75256
11
4.20472
21
-1.75256
0
LINE
8
BLACK
6
CONTINUOUS
10
3.99606
20
-0.747835
11
3.99606
21
-1.75256
0
LINE
8
BLACK
6
CONTINUOUS
10
3.89803
20
-1.75492
11
4.30276
21
-1.75492
0
LINE
8
BLACK
6
CONTINUOUS
10
3.89803
20
-0.745472
11
3.89803
21
-1.75492
0
ARC
8
BLACK
10
7.7498
20
-0.0978346
40
0.0393701
50
-180
51
-0
0
LINE
8
BLACK
6
CONTINUOUS
10
8.10217
20
-2.10492
11
8.10217
21
-0.0954724
0
LINE
8
BLACK
6
CONTINUOUS
10
8.10217
20
-0.0954724
11
7.39744
21
-0.0954724
0
LINE
8
BLACK
6
CONTINUOUS
10
8.00413
20
-2.10256
11
8.00413
21
-0.0978346
0
LINE
8
BLACK
6
CONTINUOUS
10
8.00413
20
-0.0978346
11
7.78917
21
-0.0978346
0
LINE
8
BLACK
6
CONTINUOUS
10
7.71043
20
-0.0978346
11
7.49547
21
-0.0978346
0
LINE
8
BLACK
6
CONTINUOUS
10
7.49547
20
-2.10256
11
8.00413
21
-2.10256
0
LINE
8
BLACK
6
CONTINUOUS
10
7.49547
20
-0.0978346
11
7.49547
21
-2.10256
0
LINE
8
BLACK
6
CONTINUOUS
10
7.39744
20
-2.10492
11
8.10217
21
-2.10492
0
LINE
8
BLACK
6
CONTINUOUS
10
7.39744
20
-0.0954724
11
7.39744
21
-2.10492
0
LINE
8
BLACK
6
CONTINUOUS
10
2.57441
20
-4.11417
11
2.57441
21
-4.0748
0
LINE
8
BLACK
6
CONTINUOUS
10
2.57441
20
-4.62598
11
2.57441
21
-4.58661
0
LINE
8
BLACK
6
CONTINUOUS
10
2.57441
20
-4.62598
11
2.61378
21
-4.62598
0
LINE
8
BLACK
6
CONTINUOUS
10
2.61378
20
-4.0748
11
2.57441
21
-4.0748
0
LINE
8
BLACK
6
CONTINUOUS
10
3.08622
20
-4.62598
11
3.12559
21
-4.62598
0
LINE
8
BLACK
6
CONTINUOUS
10
3.12559
20
-4.0748
11
3.08622
21
-4.0748
0
LINE
8
BLACK
6
CONTINUOUS
10
3.12559
20
-4.0748
11
3.12559
21
-4.11417
0
LINE
8
BLACK
6
CONTINUOUS
10
3.12559
20
-4.58661
11
3.12559
21
-4.62598
0
LINE
8
BLACK
6
CONTINUOUS
10
4.87657
20
-5.75098
11
5.12264
21
-5.75098
0
LINE
8
BLACK
6
CONTINUOUS
10
4.87657
20
-5.9498
11
5.12264
21
-5.9498
0
ARC
8
BLACK
10
4.87657
20
-5.85039
40
0.0994094
50
-270
51
-90
0
ARC
8
BLACK
10
5.12264
20
-5.85039
40
0.0994094
50
-90
51
90
0
LINE
8
BLACK
6
CONTINUOUS
10
9.40471
20
-0.991142
11
9.37322
21
-0.991142
0
LINE
8
BLACK
6
CONTINUOUS
10
9.38896
20
-1.00689
11
9.38896
21
-0.975394
0
LINE
8
BLACK
6
CONTINUOUS
10
9.2311
20
-1.06063
11
9.2311
21
-0.73937
0
LINE
8
BLACK
6
CONTINUOUS
10
9.22953
20
-1.06063
11
9.22953
21
-0.73937
0
LINE
8
BLACK
6
CONTINUOUS
10
9.22795
20
-1.06063
11
9.22795
21
-0.73937
0
LINE
8
BLACK
6
CONTINUOUS
10
9.22638
20
-1.06059
11
9.22638
21
-0.739409
0
LINE
8
BLACK
6
CONTINUOUS
10
9.2248
20
-1.06051
11
9.2248
21
-0.739488
0
LINE
8
BLACK
6
CONTINUOUS
10
9.22323
20
-1.06047
11
9.22323
21
-0.739528
0
LINE
8
BLACK
6
CONTINUOUS
10
9.22165
20
-1.06039
11
9.22165
21
-0.739606
0
LINE
8
BLACK
6
CONTINUOUS
10
9.22008
20
-1.06028
11
9.22008
21
-0.739724
0
LINE
8
BLACK
6
CONTINUOUS
10
9.2185
20
-1.06016
11
9.2185
21
-0.739843
0
LINE
8
BLACK
6
CONTINUOUS
10
9.21693
20
-1.06004
11
9.21693
21
-0.739961
0
LINE
8
BLACK
6
CONTINUOUS
10
9.21535
20
-1.05988
11
9.21535
21
-0.740118
0
LINE
8
BLACK
6
CONTINUOUS
10
9.21378
20
-1.05972
11
9.21378
21
-0.740276
0
LINE
8
BLACK
6
CONTINUOUS
10
9.2122
20
-1.05953
11
9.2122
21
-0.740472
0
LINE
8
BLACK
6
CONTINUOUS
10
9.21063
20
-1.05937
11
9.21063
21
-0.74063
0
LINE
8
BLACK
6
CONTINUOUS
10
9.20906
20
-1.05913
11
9.20906
21
-0.740866
0
LINE
8
BLACK
6
CONTINUOUS
10
9.20748
20
-1.05894
11
9.20748
21
-0.741063
0
LINE
8
BLACK
6
CONTINUOUS
10
9.20591
20
-1.05866
11
9.20591
21
-0.741339
0
LINE
8
BLACK
6
CONTINUOUS
10
9.20433
20
-1.05843
11
9.20433
21
-0.741575
0
LINE
8
BLACK
6
CONTINUOUS
10
9.20272
20
-1.05815
11
9.20272
21
-0.940945
0
LINE
8
BLACK
6
CONTINUOUS
10
9.20272
20
-0.859055
11
9.20272
21
-0.74185
0
LINE
8
BLACK
6
CONTINUOUS
10
9.20114
20
-1.05787
11
9.20114
21
-0.940945
0
LINE
8
BLACK
6
CONTINUOUS
10
9.20114
20
-0.859055
11
9.20114
21
-0.742126
0
LINE
8
BLACK
6
CONTINUOUS
10
9.19957
20
-1.05756
11
9.19957
21
-0.940945
0
LINE
8
BLACK
6
CONTINUOUS
10
9.19957
20
-0.859055
11
9.19957
21
-0.742441
0
LINE
8
BLACK
6
CONTINUOUS
10
9.19799
20
-1.05724
11
9.19799
21
-0.940945
0
LINE
8
BLACK
6
CONTINUOUS
10
9.19799
20
-0.859055
11
9.19799
21
-0.742756
0
LINE
8
BLACK
6
CONTINUOUS
10
9.19642
20
-1.05689
11
9.19642
21
-0.940945
0
LINE
8
BLACK
6
CONTINUOUS
10
9.19642
20
-0.859055
11
9.19642
21
-0.74311
0
LINE
8
BLACK
6
CONTINUOUS
10
9.19484
20
-1.05654
11
9.19484
21
-0.940945
0
LINE
8
BLACK
6
CONTINUOUS
10
9.19484
20
-0.859055
11
9.19484
21
-0.743465
0
LINE
8
BLACK
6
CONTINUOUS
10
9.19327
20
-1.05618
11
9.19327
21
-0.940945
0
LINE
8
BLACK
6
CONTINUOUS
10
9.19327
20
-0.859055
11
9.19327
21
-0.743819
0
LINE
8
BLACK
6
CONTINUOUS
10
9.19169
20
-1.05579
11
9.19169
21
-0.940945
0
LINE
8
BLACK
6
CONTINUOUS
10
9.19169
20
-0.859055
11
9.19169
21
-0.744213
0
LINE
8
BLACK
6
CONTINUOUS
10
9.19012
20
-1.05539
11
9.19012
21
-0.940945
0
LINE
8
BLACK
6
CONTINUOUS
10
9.19012
20
-0.859055
11
9.19012
21
-0.744606
0
LINE
8
BLACK
6
CONTINUOUS
10
9.18854
20
-1.05496
11
9.18854
21
-0.940945
0
LINE
8
BLACK
6
CONTINUOUS
10
9.18854
20
-0.859055
11
9.18854
21
-0.745039
0
LINE
8
BLACK
6
CONTINUOUS
10
9.18697
20
-1.05453
11
9.18697
21
-0.940945
0
LINE
8
BLACK
6
CONTINUOUS
10
9.18697
20
-0.859055
11
9.18697
21
-0.745472
0
LINE
8
BLACK
6
CONTINUOUS
10
9.18539
20
-1.05409
11
9.18539
21
-0.940945
0
LINE
8
BLACK
6
CONTINUOUS
10
9.18539
20
-0.859055
11
9.18539
21
-0.745906
0
LINE
8
BLACK
6
CONTINUOUS
10
9.18382
20
-1.05362
11
9.18382
21
-0.940945
0
LINE
8
BLACK
6
CONTINUOUS
10
9.18382
20
-0.859055
11
9.18382
21
-0.746378
0
LINE
8
BLACK
6
CONTINUOUS
10
9.18224
20
-1.05311
11
9.18224
21
-0.940945
0
LINE
8
BLACK
6
CONTINUOUS
10
9.18224
20
-0.859055
11
9.18224
21
-0.74689
0
LINE
8
BLACK
6
CONTINUOUS
10
9.18067
20
-1.05264
11
9.18067
21
-0.940945
0
LINE
8
BLACK
6
CONTINUOUS
10
9.18067
20
-0.859055
11
9.18067
21
-0.747362
0
LINE
8
BLACK
6
CONTINUOUS
10
9.17909
20
-1.05209
11
9.17909
21
-0.940945
0
LINE
8
BLACK
6
CONTINUOUS
10
9.17909
20
-0.859055
11
9.17909
21
-0.747913
0
LINE
8
BLACK
6
CONTINUOUS
10
9.17752
20
-1.05157
11
9.17752
21
-0.940945
0
LINE
8
BLACK
6
CONTINUOUS
10
9.17752
20
-0.859055
11
9.17752
21
-0.748425
0
LINE
8
BLACK
6
CONTINUOUS
10
9.17594
20
-1.05098
11
9.17594
21
-0.940945
0
LINE
8
BLACK
6
CONTINUOUS
10
9.17594
20
-0.859055
11
9.17594
21
-0.749016
0
LINE
8
BLACK
6
CONTINUOUS
10
9.17437
20
-1.05043
11
9.17437
21
-0.940945
0
LINE
8
BLACK
6
CONTINUOUS
10
9.17437
20
-0.859055
11
9.17437
21
-0.749567
0
LINE
8
BLACK
6
CONTINUOUS
10
9.1728
20
-1.0498
11
9.1728
21
-0.940945
0
LINE
8
BLACK
6
CONTINUOUS
10
9.1728
20
-0.859055
11
9.1728
21
-0.750197
0
LINE
8
BLACK
6
CONTINUOUS
10
9.17122
20
-1.04921
11
9.17122
21
-0.940945
0
LINE
8
BLACK
6
CONTINUOUS
10
9.17122
20
-0.859055
11
9.17122
21
-0.750787
0
LINE
8
BLACK
6
CONTINUOUS
10
9.16965
20
-1.04858
11
9.16965
21
-0.940945
0
LINE
8
BLACK
6
CONTINUOUS
10
9.16965
20
-0.859055
11
9.16965
21
-0.751417
0
LINE
8
BLACK
6
CONTINUOUS
10
9.16807
20
-1.04791
11
9.16807
21
-0.940945
0
LINE
8
BLACK
6
CONTINUOUS
10
9.16807
20
-0.859055
11
9.16807
21
-0.752087
0
LINE
8
BLACK
6
CONTINUOUS
10
9.1665
20
-1.04724
11
9.1665
21
-0.940945
0
LINE
8
BLACK
6
CONTINUOUS
10
9.1665
20
-0.859055
11
9.1665
21
-0.752756
0
LINE
8
BLACK
6
CONTINUOUS
10
9.16492
20
-1.04654
11
9.16492
21
-0.940945
0
LINE
8
BLACK
6
CONTINUOUS
10
9.16492
20
-0.859055
11
9.16492
21
-0.753465
0
LINE
8
BLACK
6
CONTINUOUS
10
9.16335
20
-1.04583
11
9.16335
21
-0.940945
0
LINE
8
BLACK
6
CONTINUOUS
10
9.16335
20
-0.859055
11
9.16335
21
-0.754173
0
LINE
8
BLACK
6
CONTINUOUS
10
9.16177
20
-1.04512
11
9.16177
21
-0.940945
0
LINE
8
BLACK
6
CONTINUOUS
10
9.16177
20
-0.859055
11
9.16177
21
-0.754882
0
LINE
8
BLACK
6
CONTINUOUS
10
9.1602
20
-1.04433
11
9.1602
21
-0.940945
0
LINE
8
BLACK
6
CONTINUOUS
10
9.1602
20
-0.859055
11
9.1602
21
-0.755669
0
LINE
8
BLACK
6
CONTINUOUS
10
9.15862
20
-1.04358
11
9.15862
21
-0.940945
0
LINE
8
BLACK
6
CONTINUOUS
10
9.15862
20
-0.859055
11
9.15862
21
-0.756417
0
LINE
8
BLACK
6
CONTINUOUS
10
9.15705
20
-1.0428
11
9.15705
21
-0.940945
0
LINE
8
BLACK
6
CONTINUOUS
10
9.15705
20
-0.859055
11
9.15705
21
-0.757205
0
LINE
8
BLACK
6
CONTINUOUS
10
9.15547
20
-1.04197
11
9.15547
21
-0.940945
0
LINE
8
BLACK
6
CONTINUOUS
10
9.15547
20
-0.859055
11
9.15547
21
-0.758031
0
LINE
8
BLACK
6
CONTINUOUS
10
9.1539
20
-1.0411
11
9.1539
21
-0.940945
0
LINE
8
BLACK
6
CONTINUOUS
10
9.1539
20
-0.859055
11
9.1539
21
-0.758898
0
LINE
8
BLACK
6
CONTINUOUS
10
9.15232
20
-1.04024
11
9.15232
21
-0.940945
0
LINE
8
BLACK
6
CONTINUOUS
10
9.15232
20
-0.859055
11
9.15232
21
-0.759764
0
LINE
8
BLACK
6
CONTINUOUS
10
9.15075
20
-1.03937
11
9.15075
21
-0.940945
0
LINE
8
BLACK
6
CONTINUOUS
10
9.15075
20
-0.859055
11
9.15075
21
-0.76063
0
LINE
8
BLACK
6
CONTINUOUS
10
9.14917
20
-1.03846
11
9.14917
21
-0.940945
0
LINE
8
BLACK
6
CONTINUOUS
10
9.14917
20
-0.859055
11
9.14917
21
-0.761535
0
LINE
8
BLACK
6
CONTINUOUS
10
9.1476
20
-1.03752
11
9.1476
21
-0.940945
0
LINE
8
BLACK
6
CONTINUOUS
10
9.1476
20
-0.859055
11
9.1476
21
-0.76248
0
LINE
8
BLACK
6
CONTINUOUS
10
9.14602
20
-1.03657
11
9.14602
21
-0.940945
0
LINE
8
BLACK
6
CONTINUOUS
10
9.14602
20
-0.859055
11
9.14602
21
-0.763425
0
LINE
8
BLACK
6
CONTINUOUS
10
9.14445
20
-1.03559
11
9.14445
21
-0.940945
0
LINE
8
BLACK
6
CONTINUOUS
10
9.14445
20
-0.859055
11
9.14445
21
-0.764409
0
LINE
8
BLACK
6
CONTINUOUS
10
9.14287
20
-1.03457
11
9.14287
21
-0.940945
0
LINE
8
BLACK
6
CONTINUOUS
10
9.14287
20
-0.859055
11
9.14287
21
-0.765433
0
LINE
8
BLACK
6
CONTINUOUS
10
9.1413
20
-1.03354
11
9.1413
21
-0.940945
0
LINE
8
BLACK
6
CONTINUOUS
10
9.1413
20
-0.859055
11
9.1413
21
-0.766457
0
LINE
8
BLACK
6
CONTINUOUS
10
9.13972
20
-1.03248
11
9.13972
21
-0.940945
0
LINE
8
BLACK
6
CONTINUOUS
10
9.13972
20
-0.859055
11
9.13972
21
-0.76752
0
LINE
8
BLACK
6
CONTINUOUS
10
9.13815
20
-1.03142
11
9.13815
21
-0.940945
0
LINE
8
BLACK
6
CONTINUOUS
10
9.13815
20
-0.859055
11
9.13815
21
-0.768583
0
LINE
8
BLACK
6
CONTINUOUS
10
9.13657
20
-1.03028
11
9.13657
21
-0.940945
0
LINE
8
BLACK
6
CONTINUOUS
10
9.13657
20
-0.859055
11
9.13657
21
-0.769724
0
LINE
8
BLACK
6
CONTINUOUS
10
9.135
20
-1.02913
11
9.135
21
-0.940945
0
LINE
8
BLACK
6
CONTINUOUS
10
9.135
20
-0.859055
11
9.135
21
-0.770866
0
LINE
8
BLACK
6
CONTINUOUS
10
9.13343
20
-1.02795
11
9.13343
21
-0.940945
0
LINE
8
BLACK
6
CONTINUOUS
10
9.13343
20
-0.859055
11
9.13343
21
-0.772047
0
LINE
8
BLACK
6
CONTINUOUS
10
9.13185
20
-1.02677
11
9.13185
21
-0.940945
0
LINE
8
BLACK
6
CONTINUOUS
10
9.13185
20
-0.859055
11
9.13185
21
-0.773228
0
LINE
8
BLACK
6
CONTINUOUS
10
9.13028
20
-1.02555
11
9.13028
21
-0.940945
0
LINE
8
BLACK
6
CONTINUOUS
10
9.13028
20
-0.859055
11
9.13028
21
-0.774449
0
LINE
8
BLACK
6
CONTINUOUS
10
9.1287
20
-1.02425
11
9.1287
21
-0.940945
0
LINE
8
BLACK
6
CONTINUOUS
10
9.1287
20
-0.859055
11
9.1287
21
-0.775748
0
LINE
8
BLACK
6
CONTINUOUS
10
9.12713
20
-1.02299
11
9.12713
21
-0.940945
0
LINE
8
BLACK
6
CONTINUOUS
10
9.12713
20
-0.859055
11
9.12713
21
-0.777008
0
LINE
8
BLACK
6
CONTINUOUS
10
9.12555
20
-1.02165
11
9.12555
21
-0.940945
0
LINE
8
BLACK
6
CONTINUOUS
10
9.12555
20
-0.859055
11
9.12555
21
-0.778346
0
LINE
8
BLACK
6
CONTINUOUS
10
9.12398
20
-1.02028
11
9.12398
21
-0.940945
0
LINE
8
BLACK
6
CONTINUOUS
10
9.12398
20
-0.859055
11
9.12398
21
-0.779724
0
LINE
8
BLACK
6
CONTINUOUS
10
9.1224
20
-1.01886
11
9.1224
21
-0.940945
0
LINE
8
BLACK
6
CONTINUOUS
10
9.1224
20
-0.859055
11
9.1224
21
-0.781142
0
LINE
8
BLACK
6
CONTINUOUS
10
9.12083
20
-1.01744
11
9.12083
21
-0.782559
0
LINE
8
BLACK
6
CONTINUOUS
10
9.11925
20
-1.01594
11
9.11925
21
-0.784055
0
LINE
8
BLACK
6
CONTINUOUS
10
9.11768
20
-1.01445
11
9.11768
21
-0.785551
0
LINE
8
BLACK
6
CONTINUOUS
10
9.1161
20
-1.01287
11
9.1161
21
-0.787126
0
LINE
8
BLACK
6
CONTINUOUS
10
9.11453
20
-1.01126
11
9.11453
21
-0.78874
0
LINE
8
BLACK
6
CONTINUOUS
10
9.11295
20
-1.00961
11
9.11295
21
-0.790394
0
LINE
8
BLACK
6
CONTINUOUS
10
9.11138
20
-1.00791
11
9.11138
21
-0.792087
0
LINE
8
BLACK
6
CONTINUOUS
10
9.1098
20
-1.00618
11
9.1098
21
-0.793819
0
LINE
8
BLACK
6
CONTINUOUS
10
9.10823
20
-1.00437
11
9.10823
21
-0.79563
0
LINE
8
BLACK
6
CONTINUOUS
10
9.10665
20
-1.00252
11
9.10665
21
-0.79748
0
LINE
8
BLACK
6
CONTINUOUS
10
9.10508
20
-1.00063
11
9.10508
21
-0.79937
0
LINE
8
BLACK
6
CONTINUOUS
10
9.1035
20
-0.998622
11
9.1035
21
-0.801378
0
LINE
8
BLACK
6
CONTINUOUS
10
9.10193
20
-0.996614
11
9.10193
21
-0.803386
0
LINE
8
BLACK
6
CONTINUOUS
10
9.10035
20
-0.994488
11
9.10035
21
-0.805512
0
LINE
8
BLACK
6
CONTINUOUS
10
9.09878
20
-0.992323
11
9.09878
21
-0.807677
0
LINE
8
BLACK
6
CONTINUOUS
10
9.0972
20
-0.990039
11
9.0972
21
-0.809961
0
LINE
8
BLACK
6
CONTINUOUS
10
9.09563
20
-0.987717
11
9.09563
21
-0.812283
0
LINE
8
BLACK
6
CONTINUOUS
10
9.09406
20
-0.985276
11
9.09406
21
-0.814724
0
LINE
8
BLACK
6
CONTINUOUS
10
9.09248
20
-0.982756
11
9.09248
21
-0.817244
0
LINE
8
BLACK
6
CONTINUOUS
10
9.09091
20
-0.980079
11
9.09091
21
-0.819921
0
LINE
8
BLACK
6
CONTINUOUS
10
9.08933
20
-0.977323
11
9.08933
21
-0.822677
0
LINE
8
BLACK
6
CONTINUOUS
10
9.08776
20
-0.974409
11
9.08776
21
-0.825591
0
LINE
8
BLACK
6
CONTINUOUS
10
9.08618
20
-0.971378
11
9.08618
21
-0.828622
0
LINE
8
BLACK
6
CONTINUOUS
10
9.08461
20
-0.96815
11
9.08461
21
-0.83185
0
LINE
8
BLACK
6
CONTINUOUS
10
9.08303
20
-0.964764
11
9.08303
21
-0.835236
0
LINE
8
BLACK
6
CONTINUOUS
10
9.08146
20
-0.961102
11
9.08146
21
-0.838898
0
LINE
8
BLACK
6
CONTINUOUS
10
9.07988
20
-0.957205
11
9.07988
21
-0.842795
0
LINE
8
BLACK
6
CONTINUOUS
10
9.07831
20
-0.952992
11
9.07831
21
-0.847008
0
LINE
8
BLACK
6
CONTINUOUS
10
9.07673
20
-0.948386
11
9.07673
21
-0.851614
0
LINE
8
BLACK
6
CONTINUOUS
10
9.07516
20
-0.943228
11
9.07516
21
-0.856772
0
LINE
8
BLACK
6
CONTINUOUS
10
9.07358
20
-0.937323
11
9.07358
21
-0.862677
0
LINE
8
BLACK
6
CONTINUOUS
10
9.07201
20
-0.930236
11
9.07201
21
-0.869764
0
LINE
8
BLACK
6
CONTINUOUS
10
9.07043
20
-0.920984
11
9.07043
21
-0.879016
0
CIRCLE
8
BLACK
10
9.2311
20
-0.9
40
0.162205
0
LINE
8
BLACK
6
CONTINUOUS
10
3.32441
20
-4.11417
11
3.32441
21
-4.0748
0
LINE
8
BLACK
6
CONTINUOUS
10
3.32441
20
-4.62598
11
3.32441
21
-4.58661
0
LINE
8
BLACK
6
CONTINUOUS
10
3.32441
20
-4.62598
11
3.36378
21
-4.62598
0
LINE
8
BLACK
6
CONTINUOUS
10
3.36378
20
-4.0748
11
3.32441
21
-4.0748
0
LINE
8
BLACK
6
CONTINUOUS
10
3.83622
20
-4.62598
11
3.87559
21
-4.62598
0
LINE
8
BLACK
6
CONTINUOUS
10
3.87559
20
-4.0748
11
3.83622
21
-4.0748
0
LINE
8
BLACK
6
CONTINUOUS
10
3.87559
20
-4.0748
11
3.87559
21
-4.11417
0
LINE
8
BLACK
6
CONTINUOUS
10
3.87559
20
-4.58661
11
3.87559
21
-4.62598
0
LINE
8
BLACK
6
CONTINUOUS
10
6.87441
20
-3.36417
11
6.87441
21
-3.3248
0
LINE
8
BLACK
6
CONTINUOUS
10
6.87441
20
-3.87598
11
6.87441
21
-3.83661
0
LINE
8
BLACK
6
CONTINUOUS
10
6.87441
20
-3.87598
11
6.91378
21
-3.87598
0
LINE
8
BLACK
6
CONTINUOUS
10
6.91378
20
-3.3248
11
6.87441
21
-3.3248
0
LINE
8
BLACK
6
CONTINUOUS
10
7.38622
20
-3.87598
11
7.42559
21
-3.87598
0
LINE
8
BLACK
6
CONTINUOUS
10
7.42559
20
-3.3248
11
7.38622
21
-3.3248
0
LINE
8
BLACK
6
CONTINUOUS
10
7.42559
20
-3.3248
11
7.42559
21
-3.36417
0
LINE
8
BLACK
6
CONTINUOUS
10
7.42559
20
-3.83661
11
7.42559
21
-3.87598
0
LINE
8
BLACK
6
CONTINUOUS
10
8.37441
20
-4.86417
11
8.37441
21
-4.8248
0
LINE
8
BLACK
6
CONTINUOUS
10
8.37441
20
-5.37598
11
8.37441
21
-5.33661
0
LINE
8
BLACK
6
CONTINUOUS
10
8.37441
20
-5.37598
11
8.41378
21
-5.37598
0
LINE
8
BLACK
6
CONTINUOUS
10
8.41378
20
-4.8248
11
8.37441
21
-4.8248
0
LINE
8
BLACK
6
CONTINUOUS
10
8.88622
20
-5.37598
11
8.92559
21
-5.37598
0
LINE
8
BLACK
6
CONTINUOUS
10
8.92559
20
-4.8248
11
8.88622
21
-4.8248
0
LINE
8
BLACK
6
CONTINUOUS
10
8.92559
20
-4.8248
11
8.92559
21
-4.86417
0
LINE
8
BLACK
6
CONTINUOUS
10
8.92559
20
-5.33661
11
8.92559
21
-5.37598
0
LINE
8
BLACK
6
CONTINUOUS
10
3.54529
20
-0.158858
11
3.57678
21
-0.158858
0
LINE
8
BLACK
6
CONTINUOUS
10
3.56104
20
-0.14311
11
3.56104
21
-0.174606
0
LINE
8
BLACK
6
CONTINUOUS
10
3.7189
20
-0.0893701
11
3.7189
21
-0.41063
0
LINE
8
BLACK
6
CONTINUOUS
10
3.72047
20
-0.0893701
11
3.72047
21
-0.41063
0
LINE
8
BLACK
6
CONTINUOUS
10
3.72205
20
-0.0893701
11
3.72205
21
-0.41063
0
LINE
8
BLACK
6
CONTINUOUS
10
3.72362
20
-0.0894094
11
3.72362
21
-0.410591
0
LINE
8
BLACK
6
CONTINUOUS
10
3.7252
20
-0.0894882
11
3.7252
21
-0.410512
0
LINE
8
BLACK
6
CONTINUOUS
10
3.72677
20
-0.0895276
11
3.72677
21
-0.410472
0
LINE
8
BLACK
6
CONTINUOUS
10
3.72835
20
-0.0896063
11
3.72835
21
-0.410394
0
LINE
8
BLACK
6
CONTINUOUS
10
3.72992
20
-0.0897244
11
3.72992
21
-0.410276
0
LINE
8
BLACK
6
CONTINUOUS
10
3.7315
20
-0.0898425
11
3.7315
21
-0.410157
0
LINE
8
BLACK
6
CONTINUOUS
10
3.73307
20
-0.0899606
11
3.73307
21
-0.410039
0
LINE
8
BLACK
6
CONTINUOUS
10
3.73465
20
-0.0901181
11
3.73465
21
-0.409882
0
LINE
8
BLACK
6
CONTINUOUS
10
3.73622
20
-0.0902756
11
3.73622
21
-0.409724
0
LINE
8
BLACK
6
CONTINUOUS
10
3.7378
20
-0.0904724
11
3.7378
21
-0.409528
0
LINE
8
BLACK
6
CONTINUOUS
10
3.73937
20
-0.0906299
11
3.73937
21
-0.40937
0
LINE
8
BLACK
6
CONTINUOUS
10
3.74094
20
-0.0908661
11
3.74094
21
-0.409134
0
LINE
8
BLACK
6
CONTINUOUS
10
3.74252
20
-0.091063
11
3.74252
21
-0.408937
0
LINE
8
BLACK
6
CONTINUOUS
10
3.74409
20
-0.0913386
11
3.74409
21
-0.408661
0
LINE
8
BLACK
6
CONTINUOUS
10
3.74567
20
-0.0915748
11
3.74567
21
-0.408425
0
LINE
8
BLACK
6
CONTINUOUS
10
3.74728
20
-0.0918504
11
3.74728
21
-0.209055
0
LINE
8
BLACK
6
CONTINUOUS
10
3.74728
20
-0.290945
11
3.74728
21
-0.40815
0
LINE
8
BLACK
6
CONTINUOUS
10
3.74886
20
-0.092126
11
3.74886
21
-0.209055
0
LINE
8
BLACK
6
CONTINUOUS
10
3.74886
20
-0.290945
11
3.74886
21
-0.407874
0
LINE
8
BLACK
6
CONTINUOUS
10
3.75043
20
-0.0924409
11
3.75043
21
-0.209055
0
LINE
8
BLACK
6
CONTINUOUS
10
3.75043
20
-0.290945
11
3.75043
21
-0.407559
0
LINE
8
BLACK
6
CONTINUOUS
10
3.75201
20
-0.0927559
11
3.75201
21
-0.209055
0
LINE
8
BLACK
6
CONTINUOUS
10
3.75201
20
-0.290945
11
3.75201
21
-0.407244
0
LINE
8
BLACK
6
CONTINUOUS
10
3.75358
20
-0.0931102
11
3.75358
21
-0.209055
0
LINE
8
BLACK
6
CONTINUOUS
10
3.75358
20
-0.290945
11
3.75358
21
-0.40689
0
LINE
8
BLACK
6
CONTINUOUS
10
3.75516
20
-0.0934646
11
3.75516
21
-0.209055
0
LINE
8
BLACK
6
CONTINUOUS
10
3.75516
20
-0.290945
11
3.75516
21
-0.406535
0
LINE
8
BLACK
6
CONTINUOUS
10
3.75673
20
-0.0938189
11
3.75673
21
-0.209055
0
LINE
8
BLACK
6
CONTINUOUS
10
3.75673
20
-0.290945
11
3.75673
21
-0.406181
0
LINE
8
BLACK
6
CONTINUOUS
10
3.75831
20
-0.0942126
11
3.75831
21
-0.209055
0
LINE
8
BLACK
6
CONTINUOUS
10
3.75831
20
-0.290945
11
3.75831
21
-0.405787
0
LINE
8
BLACK
6
CONTINUOUS
10
3.75988
20
-0.0946063
11
3.75988
21
-0.209055
0
LINE
8
BLACK
6
CONTINUOUS
10
3.75988
20
-0.290945
11
3.75988
21
-0.405394
0
LINE
8
BLACK
6
CONTINUOUS
10
3.76146
20
-0.0950394
11
3.76146
21
-0.209055
0
LINE
8
BLACK
6
CONTINUOUS
10
3.76146
20
-0.290945
11
3.76146
21
-0.404961
0
LINE
8
BLACK
6
CONTINUOUS
10
3.76303
20
-0.0954724
11
3.76303
21
-0.209055
0
LINE
8
BLACK
6
CONTINUOUS
10
3.76303
20
-0.290945
11
3.76303
21
-0.404528
0
LINE
8
BLACK
6
CONTINUOUS
10
3.76461
20
-0.0959055
11
3.76461
21
-0.209055
0
LINE
8
BLACK
6
CONTINUOUS
10
3.76461
20
-0.290945
11
3.76461
21
-0.404094
0
LINE
8
BLACK
6
CONTINUOUS
10
3.76618
20
-0.096378
11
3.76618
21
-0.209055
0
LINE
8
BLACK
6
CONTINUOUS
10
3.76618
20
-0.290945
11
3.76618
21
-0.403622
0
LINE
8
BLACK
6
CONTINUOUS
10
3.76776
20
-0.0968898
11
3.76776
21
-0.209055
0
LINE
8
BLACK
6
CONTINUOUS
10
3.76776
20
-0.290945
11
3.76776
21
-0.40311
0
LINE
8
BLACK
6
CONTINUOUS
10
3.76933
20
-0.0973622
11
3.76933
21
-0.209055
0
LINE
8
BLACK
6
CONTINUOUS
10
3.76933
20
-0.290945
11
3.76933
21
-0.402638
0
LINE
8
BLACK
6
CONTINUOUS
10
3.77091
20
-0.0979134
11
3.77091
21
-0.209055
0
LINE
8
BLACK
6
CONTINUOUS
10
3.77091
20
-0.290945
11
3.77091
21
-0.402087
0
LINE
8
BLACK
6
CONTINUOUS
10
3.77248
20
-0.0984252
11
3.77248
21
-0.209055
0
LINE
8
BLACK
6
CONTINUOUS
10
3.77248
20
-0.290945
11
3.77248
21
-0.401575
0
LINE
8
BLACK
6
CONTINUOUS
10
3.77406
20
-0.0990157
11
3.77406
21
-0.209055
0
LINE
8
BLACK
6
CONTINUOUS
10
3.77406
20
-0.290945
11
3.77406
21
-0.400984
0
LINE
8
BLACK
6
CONTINUOUS
10
3.77563
20
-0.0995669
11
3.77563
21
-0.209055
0
LINE
8
BLACK
6
CONTINUOUS
10
3.77563
20
-0.290945
11
3.77563
21
-0.400433
0
LINE
8
BLACK
6
CONTINUOUS
10
3.7772
20
-0.100197
11
3.7772
21
-0.209055
0
LINE
8
BLACK
6
CONTINUOUS
10
3.7772
20
-0.290945
11
3.7772
21
-0.399803
0
LINE
8
BLACK
6
CONTINUOUS
10
3.77878
20
-0.100787
11
3.77878
21
-0.209055
0
LINE
8
BLACK
6
CONTINUOUS
10
3.77878
20
-0.290945
11
3.77878
21
-0.399213
0
LINE
8
BLACK
6
CONTINUOUS
10
3.78035
20
-0.101417
11
3.78035
21
-0.209055
0
LINE
8
BLACK
6
CONTINUOUS
10
3.78035
20
-0.290945
11
3.78035
21
-0.398583
0
LINE
8
BLACK
6
CONTINUOUS
10
3.78193
20
-0.102087
11
3.78193
21
-0.209055
0
LINE
8
BLACK
6
CONTINUOUS
10
3.78193
20
-0.290945
11
3.78193
21
-0.397913
0
LINE
8
BLACK
6
CONTINUOUS
10
3.7835
20
-0.102756
11
3.7835
21
-0.209055
0
LINE
8
BLACK
6
CONTINUOUS
10
3.7835
20
-0.290945
11
3.7835
21
-0.397244
0
LINE
8
BLACK
6
CONTINUOUS
10
3.78508
20
-0.103465
11
3.78508
21
-0.209055
0
LINE
8
BLACK
6
CONTINUOUS
10
3.78508
20
-0.290945
11
3.78508
21
-0.396535
0
LINE
8
BLACK
6
CONTINUOUS
10
3.78665
20
-0.104173
11
3.78665
21
-0.209055
0
LINE
8
BLACK
6
CONTINUOUS
10
3.78665
20
-0.290945
11
3.78665
21
-0.395827
0
LINE
8
BLACK
6
CONTINUOUS
10
3.78823
20
-0.104882
11
3.78823
21
-0.209055
0
LINE
8
BLACK
6
CONTINUOUS
10
3.78823
20
-0.290945
11
3.78823
21
-0.395118
0
LINE
8
BLACK
6
CONTINUOUS
10
3.7898
20
-0.105669
11
3.7898
21
-0.209055
0
LINE
8
BLACK
6
CONTINUOUS
10
3.7898
20
-0.290945
11
3.7898
21
-0.394331
0
LINE
8
BLACK
6
CONTINUOUS
10
3.79138
20
-0.106417
11
3.79138
21
-0.209055
0
LINE
8
BLACK
6
CONTINUOUS
10
3.79138
20
-0.290945
11
3.79138
21
-0.393583
0
LINE
8
BLACK
6
CONTINUOUS
10
3.79295
20
-0.107205
11
3.79295
21
-0.209055
0
LINE
8
BLACK
6
CONTINUOUS
10
3.79295
20
-0.290945
11
3.79295
21
-0.392795
0
LINE
8
BLACK
6
CONTINUOUS
10
3.79453
20
-0.108031
11
3.79453
21
-0.209055
0
LINE
8
BLACK
6
CONTINUOUS
10
3.79453
20
-0.290945
11
3.79453
21
-0.391969
0
LINE
8
BLACK
6
CONTINUOUS
10
3.7961
20
-0.108898
11
3.7961
21
-0.209055
0
LINE
8
BLACK
6
CONTINUOUS
10
3.7961
20
-0.290945
11
3.7961
21
-0.391102
0
LINE
8
BLACK
6
CONTINUOUS
10
3.79768
20
-0.109764
11
3.79768
21
-0.209055
0
LINE
8
BLACK
6
CONTINUOUS
10
3.79768
20
-0.290945
11
3.79768
21
-0.390236
0
LINE
8
BLACK
6
CONTINUOUS
10
3.79925
20
-0.11063
11
3.79925
21
-0.209055
0
LINE
8
BLACK
6
CONTINUOUS
10
3.79925
20
-0.290945
11
3.79925
21
-0.38937
0
LINE
8
BLACK
6
CONTINUOUS
10
3.80083
20
-0.111535
11
3.80083
21
-0.209055
0
LINE
8
BLACK
6
CONTINUOUS
10
3.80083
20
-0.290945
11
3.80083
21
-0.388465
0
LINE
8
BLACK
6
CONTINUOUS
10
3.8024
20
-0.11248
11
3.8024
21
-0.209055
0
LINE
8
BLACK
6
CONTINUOUS
10
3.8024
20
-0.290945
11
3.8024
21
-0.38752
0
LINE
8
BLACK
6
CONTINUOUS
10
3.80398
20
-0.113425
11
3.80398
21
-0.209055
0
LINE
8
BLACK
6
CONTINUOUS
10
3.80398
20
-0.290945
11
3.80398
21
-0.386575
0
LINE
8
BLACK
6
CONTINUOUS
10
3.80555
20
-0.114409
11
3.80555
21
-0.209055
0
LINE
8
BLACK
6
CONTINUOUS
10
3.80555
20
-0.290945
11
3.80555
21
-0.385591
0
LINE
8
BLACK
6
CONTINUOUS
10
3.80713
20
-0.115433
11
3.80713
21
-0.209055
0
LINE
8
BLACK
6
CONTINUOUS
10
3.80713
20
-0.290945
11
3.80713
21
-0.384567
0
LINE
8
BLACK
6
CONTINUOUS
10
3.8087
20
-0.116457
11
3.8087
21
-0.209055
0
LINE
8
BLACK
6
CONTINUOUS
10
3.8087
20
-0.290945
11
3.8087
21
-0.383543
0
LINE
8
BLACK
6
CONTINUOUS
10
3.81028
20
-0.11752
11
3.81028
21
-0.209055
0
LINE
8
BLACK
6
CONTINUOUS
10
3.81028
20
-0.290945
11
3.81028
21
-0.38248
0
LINE
8
BLACK
6
CONTINUOUS
10
3.81185
20
-0.118583
11
3.81185
21
-0.209055
0
LINE
8
BLACK
6
CONTINUOUS
10
3.81185
20
-0.290945
11
3.81185
21
-0.381417
0
LINE
8
BLACK
6
CONTINUOUS
10
3.81343
20
-0.119724
11
3.81343
21
-0.209055
0
LINE
8
BLACK
6
CONTINUOUS
10
3.81343
20
-0.290945
11
3.81343
21
-0.380276
0
LINE
8
BLACK
6
CONTINUOUS
10
3.815
20
-0.120866
11
3.815
21
-0.209055
0
LINE
8
BLACK
6
CONTINUOUS
10
3.815
20
-0.290945
11
3.815
21
-0.379134
0
LINE
8
BLACK
6
CONTINUOUS
10
3.81657
20
-0.122047
11
3.81657
21
-0.209055
0
LINE
8
BLACK
6
CONTINUOUS
10
3.81657
20
-0.290945
11
3.81657
21
-0.377953
0
LINE
8
BLACK
6
CONTINUOUS
10
3.81815
20
-0.123228
11
3.81815
21
-0.209055
0
LINE
8
BLACK
6
CONTINUOUS
10
3.81815
20
-0.290945
11
3.81815
21
-0.376772
0
LINE
8
BLACK
6
CONTINUOUS
10
3.81972
20
-0.124449
11
3.81972
21
-0.209055
0
LINE
8
BLACK
6
CONTINUOUS
10
3.81972
20
-0.290945
11
3.81972
21
-0.375551
0
LINE
8
BLACK
6
CONTINUOUS
10
3.8213
20
-0.125748
11
3.8213
21
-0.209055
0
LINE
8
BLACK
6
CONTINUOUS
10
3.8213
20
-0.290945
11
3.8213
21
-0.374252
0
LINE
8
BLACK
6
CONTINUOUS
10
3.82287
20
-0.127008
11
3.82287
21
-0.209055
0
LINE
8
BLACK
6
CONTINUOUS
10
3.82287
20
-0.290945
11
3.82287
21
-0.372992
0
LINE
8
BLACK
6
CONTINUOUS
10
3.82445
20
-0.128346
11
3.82445
21
-0.209055
0
LINE
8
BLACK
6
CONTINUOUS
10
3.82445
20
-0.290945
11
3.82445
21
-0.371654
0
LINE
8
BLACK
6
CONTINUOUS
10
3.82602
20
-0.129724
11
3.82602
21
-0.209055
0
LINE
8
BLACK
6
CONTINUOUS
10
3.82602
20
-0.290945
11
3.82602
21
-0.370276
0
LINE
8
BLACK
6
CONTINUOUS
10
3.8276
20
-0.131142
11
3.8276
21
-0.209055
0
LINE
8
BLACK
6
CONTINUOUS
10
3.8276
20
-0.290945
11
3.8276
21
-0.368858
0
LINE
8
BLACK
6
CONTINUOUS
10
3.82917
20
-0.132559
11
3.82917
21
-0.367441
0
LINE
8
BLACK
6
CONTINUOUS
10
3.83075
20
-0.134055
11
3.83075
21
-0.365945
0
LINE
8
BLACK
6
CONTINUOUS
10
3.83232
20
-0.135551
11
3.83232
21
-0.364449
0
LINE
8
BLACK
6
CONTINUOUS
10
3.8339
20
-0.137126
11
3.8339
21
-0.362874
0
LINE
8
BLACK
6
CONTINUOUS
10
3.83547
20
-0.13874
11
3.83547
21
-0.36126
0
LINE
8
BLACK
6
CONTINUOUS
10
3.83705
20
-0.140394
11
3.83705
21
-0.359606
0
LINE
8
BLACK
6
CONTINUOUS
10
3.83862
20
-0.142087
11
3.83862
21
-0.357913
0
LINE
8
BLACK
6
CONTINUOUS
10
3.8402
20
-0.143819
11
3.8402
21
-0.356181
0
LINE
8
BLACK
6
CONTINUOUS
10
3.84177
20
-0.14563
11
3.84177
21
-0.35437
0
LINE
8
BLACK
6
CONTINUOUS
10
3.84335
20
-0.14748
11
3.84335
21
-0.35252
0
LINE
8
BLACK
6
CONTINUOUS
10
3.84492
20
-0.14937
11
3.84492
21
-0.35063
0
LINE
8
BLACK
6
CONTINUOUS
10
3.8465
20
-0.151378
11
3.8465
21
-0.348622
0
LINE
8
BLACK
6
CONTINUOUS
10
3.84807
20
-0.153386
11
3.84807
21
-0.346614
0
LINE
8
BLACK
6
CONTINUOUS
10
3.84965
20
-0.155512
11
3.84965
21
-0.344488
0
LINE
8
BLACK
6
CONTINUOUS
10
3.85122
20
-0.157677
11
3.85122
21
-0.342323
0
LINE
8
BLACK
6
CONTINUOUS
10
3.8528
20
-0.159961
11
3.8528
21
-0.340039
0
LINE
8
BLACK
6
CONTINUOUS
10
3.85437
20
-0.162283
11
3.85437
21
-0.337717
0
LINE
8
BLACK
6
CONTINUOUS
10
3.85594
20
-0.164724
11
3.85594
21
-0.335276
0
LINE
8
BLACK
6
CONTINUOUS
10
3.85752
20
-0.167244
11
3.85752
21
-0.332756
0
LINE
8
BLACK
6
CONTINUOUS
10
3.85909
20
-0.169921
11
3.85909
21
-0.330079
0
LINE
8
BLACK
6
CONTINUOUS
10
3.86067
20
-0.172677
11
3.86067
21
-0.327323
0
LINE
8
BLACK
6
CONTINUOUS
10
3.86224
20
-0.175591
11
3.86224
21
-0.324409
0
LINE
8
BLACK
6
CONTINUOUS
10
3.86382
20
-0.178622
11
3.86382
21
-0.321378
0
LINE
8
BLACK
6
CONTINUOUS
10
3.86539
20
-0.18185
11
3.86539
21
-0.31815
0
LINE
8
BLACK
6
CONTINUOUS
10
3.86697
20
-0.185236
11
3.86697
21
-0.314764
0
LINE
8
BLACK
6
CONTINUOUS
10
3.86854
20
-0.188898
11
3.86854
21
-0.311102
0
LINE
8
BLACK
6
CONTINUOUS
10
3.87012
20
-0.192795
11
3.87012
21
-0.307205
0
LINE
8
BLACK
6
CONTINUOUS
10
3.87169
20
-0.197008
11
3.87169
21
-0.302992
0
LINE
8
BLACK
6
CONTINUOUS
10
3.87327
20
-0.201614
11
3.87327
21
-0.298386
0
LINE
8
BLACK
6
CONTINUOUS
10
3.87484
20
-0.206772
11
3.87484
21
-0.293228
0
LINE
8
BLACK
6
CONTINUOUS
10
3.87642
20
-0.212677
11
3.87642
21
-0.287323
0
LINE
8
BLACK
6
CONTINUOUS
10
3.87799
20
-0.219764
11
3.87799
21
-0.280236
0
LINE
8
BLACK
6
CONTINUOUS
10
3.87957
20
-0.229016
11
3.87957
21
-0.270984
0
CIRCLE
8
BLACK
10
3.7189
20
-0.25
40
0.162205
0
LINE
8
BLACK
6
CONTINUOUS
10
6.87441
20
-4.86417
11
6.87441
21
-4.8248
0
LINE
8
BLACK
6
CONTINUOUS
10
6.87441
20
-5.37598
11
6.87441
21
-5.33661
0
LINE
8
BLACK
6
CONTINUOUS
10
6.87441
20
-5.37598
11
6.91378
21
-5.37598
0
LINE
8
BLACK
6
CONTINUOUS
10
6.91378
20
-4.8248
11
6.87441
21
-4.8248
0
LINE
8
BLACK
6
CONTINUOUS
10
7.38622
20
-5.37598
11
7.42559
21
-5.37598
0
LINE
8
BLACK
6
CONTINUOUS
10
7.42559
20
-4.8248
11
7.38622
21
-4.8248
0
LINE
8
BLACK
6
CONTINUOUS
10
7.42559
20
-4.8248
11
7.42559
21
-4.86417
0
LINE
8
BLACK
6
CONTINUOUS
10
7.42559
20
-5.33661
11
7.42559
21
-5.37598
0
LINE
8
BLACK
6
CONTINUOUS
10
4.07441
20
-4.86417
11
4.07441
21
-4.8248
0
LINE
8
BLACK
6
CONTINUOUS
10
4.07441
20
-5.37598
11
4.07441
21
-5.33661
0
LINE
8
BLACK
6
CONTINUOUS
10
4.07441
20
-5.37598
11
4.11378
21
-5.37598
0
LINE
8
BLACK
6
CONTINUOUS
10
4.11378
20
-4.8248
11
4.07441
21
-4.8248
0
LINE
8
BLACK
6
CONTINUOUS
10
4.58622
20
-5.37598
11
4.62559
21
-5.37598
0
LINE
8
BLACK
6
CONTINUOUS
10
4.62559
20
-4.8248
11
4.58622
21
-4.8248
0
LINE
8
BLACK
6
CONTINUOUS
10
4.62559
20
-4.8248
11
4.62559
21
-4.86417
0
LINE
8
BLACK
6
CONTINUOUS
10
4.62559
20
-5.33661
11
4.62559
21
-5.37598
0
LINE
8
BLACK
6
CONTINUOUS
10
2.57441
20
-3.36417
11
2.57441
21
-3.3248
0
LINE
8
BLACK
6
CONTINUOUS
10
2.57441
20
-3.87598
11
2.57441
21
-3.83661
0
LINE
8
BLACK
6
CONTINUOUS
10
2.57441
20
-3.87598
11
2.61378
21
-3.87598
0
LINE
8
BLACK
6
CONTINUOUS
10
2.61378
20
-3.3248
11
2.57441
21
-3.3248
0
LINE
8
BLACK
6
CONTINUOUS
10
3.08622
20
-3.87598
11
3.12559
21
-3.87598
0
LINE
8
BLACK
6
CONTINUOUS
10
3.12559
20
-3.3248
11
3.08622
21
-3.3248
0
LINE
8
BLACK
6
CONTINUOUS
10
3.12559
20
-3.3248
11
3.12559
21
-3.36417
0
LINE
8
BLACK
6
CONTINUOUS
10
3.12559
20
-3.83661
11
3.12559
21
-3.87598
0
LINE
8
BLACK
6
CONTINUOUS
10
6.87441
20
-4.11417
11
6.87441
21
-4.0748
0
LINE
8
BLACK
6
CONTINUOUS
10
6.87441
20
-4.62598
11
6.87441
21
-4.58661
0
LINE
8
BLACK
6
CONTINUOUS
10
6.87441
20
-4.62598
11
6.91378
21
-4.62598
0
LINE
8
BLACK
6
CONTINUOUS
10
6.91378
20
-4.0748
11
6.87441
21
-4.0748
0
LINE
8
BLACK
6
CONTINUOUS
10
7.38622
20
-4.62598
11
7.42559
21
-4.62598
0
LINE
8
BLACK
6
CONTINUOUS
10
7.42559
20
-4.0748
11
7.38622
21
-4.0748
0
LINE
8
BLACK
6
CONTINUOUS
10
7.42559
20
-4.0748
11
7.42559
21
-4.11417
0
LINE
8
BLACK
6
CONTINUOUS
10
7.42559
20
-4.58661
11
7.42559
21
-4.62598
0
LINE
8
BLACK
6
CONTINUOUS
10
9.67559
20
-4.58661
11
9.67559
21
-4.62598
0
LINE
8
BLACK
6
CONTINUOUS
10
9.67559
20
-4.0748
11
9.67559
21
-4.11417
0
LINE
8
BLACK
6
CONTINUOUS
10
9.67559
20
-4.0748
11
9.63622
21
-4.0748
0
LINE
8
BLACK
6
CONTINUOUS
10
9.63622
20
-4.62598
11
9.67559
21
-4.62598
0
LINE
8
BLACK
6
CONTINUOUS
10
9.16378
20
-4.0748
11
9.12441
21
-4.0748
0
LINE
8
BLACK
6
CONTINUOUS
10
9.12441
20
-4.62598
11
9.16378
21
-4.62598
0
LINE
8
BLACK
6
CONTINUOUS
10
9.12441
20
-4.62598
11
9.12441
21
-4.58661
0
LINE
8
BLACK
6
CONTINUOUS
10
9.12441
20
-4.11417
11
9.12441
21
-4.0748
0
LINE
8
BLACK
6
CONTINUOUS
10
8.67913
20
-0.672835
11
8.82087
21
-0.672835
0
ARC
8
BLACK
10
8.75
20
-0.6
40
0.102362
50
-270
51
-135
0
ARC
8
BLACK
10
8.75
20
-0.6
40
0.102362
50
-45
51
90
0
LINE
8
BLACK
6
CONTINUOUS
10
6.86969
20
-1.45591
11
6.86969
21
-1.45846
0
LINE
8
BLACK
6
CONTINUOUS
10
6.86969
20
-1.45591
11
6.99724
21
-1.45591
0
LINE
8
BLACK
6
CONTINUOUS
10
6.86969
20
-1.54154
11
6.86969
21
-1.54409
0
LINE
8
BLACK
6
CONTINUOUS
10
6.86969
20
-1.54409
11
6.99724
21
-1.54409
0
LINE
8
BLACK
6
CONTINUOUS
10
6.99724
20
-1.45591
11
6.99724
21
-1.45846
0
LINE
8
BLACK
6
CONTINUOUS
10
6.99724
20
-1.54154
11
6.99724
21
-1.54409
0
LINE
8
BLACK
6
CONTINUOUS
10
5.37441
20
-4.86417
11
5.37441
21
-4.8248
0
LINE
8
BLACK
6
CONTINUOUS
10
5.37441
20
-5.37598
11
5.37441
21
-5.33661
0
LINE
8
BLACK
6
CONTINUOUS
10
5.37441
20
-5.37598
11
5.41378
21
-5.37598
0
LINE
8
BLACK
6
CONTINUOUS
10
5.41378
20
-4.8248
11
5.37441
21
-4.8248
0
LINE
8
BLACK
6
CONTINUOUS
10
5.88622
20
-5.37598
11
5.92559
21
-5.37598
0
LINE
8
BLACK
6
CONTINUOUS
10
5.92559
20
-4.8248
11
5.88622
21
-4.8248
0
LINE
8
BLACK
6
CONTINUOUS
10
5.92559
20
-4.8248
11
5.92559
21
-4.86417
0
LINE
8
BLACK
6
CONTINUOUS
10
5.92559
20
-5.33661
11
5.92559
21
-5.37598
0
LINE
8
BLACK
6
CONTINUOUS
10
3.32441
20
-4.86417
11
3.32441
21
-4.8248
0
LINE
8
BLACK
6
CONTINUOUS
10
3.32441
20
-5.37598
11
3.32441
21
-5.33661
0
LINE
8
BLACK
6
CONTINUOUS
10
3.32441
20
-5.37598
11
3.36378
21
-5.37598
0
LINE
8
BLACK
6
CONTINUOUS
10
3.36378
20
-4.8248
11
3.32441
21
-4.8248
0
LINE
8
BLACK
6
CONTINUOUS
10
3.83622
20
-5.37598
11
3.87559
21
-5.37598
0
LINE
8
BLACK
6
CONTINUOUS
10
3.87559
20
-4.8248
11
3.83622
21
-4.8248
0
LINE
8
BLACK
6
CONTINUOUS
10
3.87559
20
-4.8248
11
3.87559
21
-4.86417
0
LINE
8
BLACK
6
CONTINUOUS
10
3.87559
20
-5.33661
11
3.87559
21
-5.37598
0
LINE
8
BLACK
6
CONTINUOUS
10
4.78543
20
-5.3063
11
4.78543
21
-5.30886
0
LINE
8
BLACK
6
CONTINUOUS
10
4.78543
20
-5.3063
11
4.91299
21
-5.3063
0
LINE
8
BLACK
6
CONTINUOUS
10
4.78543
20
-5.39193
11
4.78543
21
-5.39449
0
LINE
8
BLACK
6
CONTINUOUS
10
4.78543
20
-5.39449
11
4.91299
21
-5.39449
0
LINE
8
BLACK
6
CONTINUOUS
10
4.91299
20
-5.3063
11
4.91299
21
-5.30886
0
LINE
8
BLACK
6
CONTINUOUS
10
4.91299
20
-5.39193
11
4.91299
21
-5.39449
0
LINE
8
BLACK
6
CONTINUOUS
10
3.32441
20
-5.61417
11
3.32441
21
-5.5748
0
LINE
8
BLACK
6
CONTINUOUS
10
3.32441
20
-6.12598
11
3.32441
21
-6.08661
0
LINE
8
BLACK
6
CONTINUOUS
10
3.32441
20
-6.12598
11
3.36378
21
-6.12598
0
LINE
8
BLACK
6
CONTINUOUS
10
3.36378
20
-5.5748
11
3.32441
21
-5.5748
0
LINE
8
BLACK
6
CONTINUOUS
10
3.83622
20
-6.12598
11
3.87559
21
-6.12598
0
LINE
8
BLACK
6
CONTINUOUS
10
3.87559
20
-5.5748
11
3.83622
21
-5.5748
0
LINE
8
BLACK
6
CONTINUOUS
10
3.87559
20
-5.5748
11
3.87559
21
-5.61417
0
LINE
8
BLACK
6
CONTINUOUS
10
3.87559
20
-6.08661
11
3.87559
21
-6.12598
0
LINE
8
BLACK
6
CONTINUOUS
10
6.79803
20
-0.202362
11
6.79803
21
-0.15
0
LINE
8
BLACK
6
CONTINUOUS
10
6.85039
20
-0.202362
11
6.79803
21
-0.202362
0
LINE
8
BLACK
6
CONTINUOUS
10
6.90039
20
-0.202362
11
7.20276
21
-0.202362
0
LINE
8
BLACK
6
CONTINUOUS
10
6.90039
20
-0.202362
11
6.90039
21
-0.0976378
0
LINE
8
BLACK
6
CONTINUOUS
10
7.20276
20
-0.202362
11
7.20276
21
-0.0976378
0
LINE
8
BLACK
6
CONTINUOUS
10
6.90039
20
-0.0976378
11
7.20276
21
-0.0976378
0
LINE
8
BLACK
6
CONTINUOUS
10
1.07441
20
-3.36417
11
1.07441
21
-3.3248
0
LINE
8
BLACK
6
CONTINUOUS
10
1.07441
20
-3.87598
11
1.07441
21
-3.83661
0
LINE
8
BLACK
6
CONTINUOUS
10
1.07441
20
-3.87598
11
1.11378
21
-3.87598
0
LINE
8
BLACK
6
CONTINUOUS
10
1.11378
20
-3.3248
11
1.07441
21
-3.3248
0
LINE
8
BLACK
6
CONTINUOUS
10
1.58622
20
-3.87598
11
1.62559
21
-3.87598
0
LINE
8
BLACK
6
CONTINUOUS
10
1.62559
20
-3.3248
11
1.58622
21
-3.3248
0
LINE
8
BLACK
6
CONTINUOUS
10
1.62559
20
-3.3248
11
1.62559
21
-3.36417
0
LINE
8
BLACK
6
CONTINUOUS
10
1.62559
20
-3.83661
11
1.62559
21
-3.87598
0
LINE
8
BLACK
6
CONTINUOUS
10
2.34764
20
-0.302362
11
2.34764
21
-0.25
0
LINE
8
BLACK
6
CONTINUOUS
10
2.4
20
-0.302362
11
2.34764
21
-0.302362
0
LINE
8
BLACK
6
CONTINUOUS
10
2.45
20
-0.302362
11
3.45236
21
-0.302362
0
LINE
8
BLACK
6
CONTINUOUS
10
2.45
20
-0.302362
11
2.45
21
-0.2
0
LINE
8
BLACK
6
CONTINUOUS
10
3.45236
20
-0.302362
11
3.45236
21
-0.0976378
0
LINE
8
BLACK
6
CONTINUOUS
10
2.34764
20
-0.2
11
2.34764
21
-0.0976378
0
LINE
8
BLACK
6
CONTINUOUS
10
2.45
20
-0.2
11
2.34764
21
-0.2
0
LINE
8
BLACK
6
CONTINUOUS
10
2.34764
20
-0.0976378
11
3.45236
21
-0.0976378
0
LINE
8
BLACK
6
CONTINUOUS
10
4.79764
20
-3.50276
11
4.79764
21
-3.45039
0
LINE
8
BLACK
6
CONTINUOUS
10
4.85
20
-3.50276
11
4.79764
21
-3.50276
0
LINE
8
BLACK
6
CONTINUOUS
10
4.9
20
-3.50276
11
5.20236
21
-3.50276
0
LINE
8
BLACK
6
CONTINUOUS
10
4.9
20
-3.50276
11
4.9
21
-3.39803
0
LINE
8
BLACK
6
CONTINUOUS
10
5.20236
20
-3.50276
11
5.20236
21
-3.39803
0
LINE
8
BLACK
6
CONTINUOUS
10
4.9
20
-3.39803
11
5.20236
21
-3.39803
0
LINE
8
BLACK
6
CONTINUOUS
10
7.62441
20
-4.86417
11
7.62441
21
-4.8248
0
LINE
8
BLACK
6
CONTINUOUS
10
7.62441
20
-5.37598
11
7.62441
21
-5.33661
0
LINE
8
BLACK
6
CONTINUOUS
10
7.62441
20
-5.37598
11
7.66378
21
-5.37598
0
LINE
8
BLACK
6
CONTINUOUS
10
7.66378
20
-4.8248
11
7.62441
21
-4.8248
0
LINE
8
BLACK
6
CONTINUOUS
10
8.13622
20
-5.37598
11
8.17559
21
-5.37598
0
LINE
8
BLACK
6
CONTINUOUS
10
8.17559
20
-4.8248
11
8.13622
21
-4.8248
0
LINE
8
BLACK
6
CONTINUOUS
10
8.17559
20
-4.8248
11
8.17559
21
-4.86417
0
LINE
8
BLACK
6
CONTINUOUS
10
8.17559
20
-5.33661
11
8.17559
21
-5.37598
0
LINE
8
BLACK
6
CONTINUOUS
10
6.24606
20
-0.798031
11
6.24606
21
-1.20276
0
LINE
8
BLACK
6
CONTINUOUS
10
6.24606
20
-1.20276
11
6.45472
21
-1.20276
0
LINE
8
BLACK
6
CONTINUOUS
10
6.31102
20
-0.798031
11
6.24606
21
-0.798031
0
LINE
8
BLACK
6
CONTINUOUS
10
6.45472
20
-0.798031
11
6.38976
21
-0.798031
0
LINE
8
BLACK
6
CONTINUOUS
10
6.45472
20
-1.20276
11
6.45472
21
-0.798031
0
ARC
8
BLACK
10
6.35039
20
-0.798031
40
0.0393701
50
-180
51
-0
0
LINE
8
BLACK
6
CONTINUOUS
10
8.37441
20
-3.36417
11
8.37441
21
-3.3248
0
LINE
8
BLACK
6
CONTINUOUS
10
8.37441
20
-3.87598
11
8.37441
21
-3.83661
0
LINE
8
BLACK
6
CONTINUOUS
10
8.37441
20
-3.87598
11
8.41378
21
-3.87598
0
LINE
8
BLACK
6
CONTINUOUS
10
8.41378
20
-3.3248
11
8.37441
21
-3.3248
0
LINE
8
BLACK
6
CONTINUOUS
10
8.88622
20
-3.87598
11
8.92559
21
-3.87598
0
LINE
8
BLACK
6
CONTINUOUS
10
8.92559
20
-3.3248
11
8.88622
21
-3.3248
0
LINE
8
BLACK
6
CONTINUOUS
10
8.92559
20
-3.3248
11
8.92559
21
-3.36417
0
LINE
8
BLACK
6
CONTINUOUS
10
8.92559
20
-3.83661
11
8.92559
21
-3.87598
0
LINE
8
BLACK
6
CONTINUOUS
10
3.53622
20
-2.28937
11
3.53622
21
-2.70276
0
LINE
8
BLACK
6
CONTINUOUS
10
3.46378
20
-2.28937
11
3.46378
21
-2.70276
0
LINE
8
BLACK
6
CONTINUOUS
10
1.07441
20
-5.61417
11
1.07441
21
-5.5748
0
LINE
8
BLACK
6
CONTINUOUS
10
1.07441
20
-6.12598
11
1.07441
21
-6.08661
0
LINE
8
BLACK
6
CONTINUOUS
10
1.07441
20
-6.12598
11
1.11378
21
-6.12598
0
LINE
8
BLACK
6
CONTINUOUS
10
1.11378
20
-5.5748
11
1.07441
21
-5.5748
0
LINE
8
BLACK
6
CONTINUOUS
10
1.58622
20
-6.12598
11
1.62559
21
-6.12598
0
LINE
8
BLACK
6
CONTINUOUS
10
1.62559
20
-5.5748
11
1.58622
21
-5.5748
0
LINE
8
BLACK
6
CONTINUOUS
10
1.62559
20
-5.5748
11
1.62559
21
-5.61417
0
LINE
8
BLACK
6
CONTINUOUS
10
1.62559
20
-6.08661
11
1.62559
21
-6.12598
0
ARC
8
BLACK
10
1.6498
20
-0.147638
40
0.0393701
50
-180
51
-0
0
LINE
8
BLACK
6
CONTINUOUS
10
2.00217
20
-2.15472
11
2.00217
21
-0.145276
0
LINE
8
BLACK
6
CONTINUOUS
10
2.00217
20
-0.145276
11
1.29744
21
-0.145276
0
LINE
8
BLACK
6
CONTINUOUS
10
1.90413
20
-2.15236
11
1.90413
21
-0.147638
0
LINE
8
BLACK
6
CONTINUOUS
10
1.90413
20
-0.147638
11
1.68917
21
-0.147638
0
LINE
8
BLACK
6
CONTINUOUS
10
1.61043
20
-0.147638
11
1.39547
21
-0.147638
0
LINE
8
BLACK
6
CONTINUOUS
10
1.39547
20
-2.15236
11
1.90413
21
-2.15236
0
LINE
8
BLACK
6
CONTINUOUS
10
1.39547
20
-0.147638
11
1.39547
21
-2.15236
0
LINE
8
BLACK
6
CONTINUOUS
10
1.29744
20
-2.15472
11
2.00217
21
-2.15472
0
LINE
8
BLACK
6
CONTINUOUS
10
1.29744
20
-0.145276
11
1.29744
21
-2.15472
0
LINE
8
BLACK
6
CONTINUOUS
10
5.37441
20
-3.36417
11
5.37441
21
-3.3248
0
LINE
8
BLACK
6
CONTINUOUS
10
5.37441
20
-3.87598
11
5.37441
21
-3.83661
0
LINE
8
BLACK
6
CONTINUOUS
10
5.37441
20
-3.87598
11
5.41378
21
-3.87598
0
LINE
8
BLACK
6
CONTINUOUS
10
5.41378
20
-3.3248
11
5.37441
21
-3.3248
0
LINE
8
BLACK
6
CONTINUOUS
10
5.88622
20
-3.87598
11
5.92559
21
-3.87598
0
LINE
8
BLACK
6
CONTINUOUS
10
5.92559
20
-3.3248
11
5.88622
21
-3.3248
0
LINE
8
BLACK
6
CONTINUOUS
10
5.92559
20
-3.3248
11
5.92559
21
-3.36417
0
LINE
8
BLACK
6
CONTINUOUS
10
5.92559
20
-3.83661
11
5.92559
21
-3.87598
0
LINE
8
BLACK
6
CONTINUOUS
10
6.12441
20
-3.36417
11
6.12441
21
-3.3248
0
LINE
8
BLACK
6
CONTINUOUS
10
6.12441
20
-3.87598
11
6.12441
21
-3.83661
0
LINE
8
BLACK
6
CONTINUOUS
10
6.12441
20
-3.87598
11
6.16378
21
-3.87598
0
LINE
8
BLACK
6
CONTINUOUS
10
6.16378
20
-3.3248
11
6.12441
21
-3.3248
0
LINE
8
BLACK
6
CONTINUOUS
10
6.63622
20
-3.87598
11
6.67559
21
-3.87598
0
LINE
8
BLACK
6
CONTINUOUS
10
6.67559
20
-3.3248
11
6.63622
21
-3.3248
0
LINE
8
BLACK
6
CONTINUOUS
10
6.67559
20
-3.3248
11
6.67559
21
-3.36417
0
LINE
8
BLACK
6
CONTINUOUS
10
6.67559
20
-3.83661
11
6.67559
21
-3.87598
0
CIRCLE
8
BLACK
10
8.3689
20
-2.15
40
0.162205
0
LINE
8
BLACK
6
CONTINUOUS
10
8.52957
20
-2.12902
11
8.52957
21
-2.17098
0
LINE
8
BLACK
6
CONTINUOUS
10
8.52799
20
-2.11976
11
8.52799
21
-2.18024
0
LINE
8
BLACK
6
CONTINUOUS
10
8.52642
20
-2.11268
11
8.52642
21
-2.18732
0
LINE
8
BLACK
6
CONTINUOUS
10
8.52484
20
-2.10677
11
8.52484
21
-2.19323
0
LINE
8
BLACK
6
CONTINUOUS
10
8.52327
20
-2.10161
11
8.52327
21
-2.19839
0
LINE
8
BLACK
6
CONTINUOUS
10
8.52169
20
-2.09701
11
8.52169
21
-2.20299
0
LINE
8
BLACK
6
CONTINUOUS
10
8.52012
20
-2.0928
11
8.52012
21
-2.2072
0
LINE
8
BLACK
6
CONTINUOUS
10
8.51854
20
-2.0889
11
8.51854
21
-2.2111
0
LINE
8
BLACK
6
CONTINUOUS
10
8.51697
20
-2.08524
11
8.51697
21
-2.21476
0
LINE
8
BLACK
6
CONTINUOUS
10
8.51539
20
-2.08185
11
8.51539
21
-2.21815
0
LINE
8
BLACK
6
CONTINUOUS
10
8.51382
20
-2.07862
11
8.51382
21
-2.22138
0
LINE
8
BLACK
6
CONTINUOUS
10
8.51224
20
-2.07559
11
8.51224
21
-2.22441
0
LINE
8
BLACK
6
CONTINUOUS
10
8.51067
20
-2.07268
11
8.51067
21
-2.22732
0
LINE
8
BLACK
6
CONTINUOUS
10
8.50909
20
-2.06992
11
8.50909
21
-2.23008
0
LINE
8
BLACK
6
CONTINUOUS
10
8.50752
20
-2.06724
11
8.50752
21
-2.23276
0
LINE
8
BLACK
6
CONTINUOUS
10
8.50594
20
-2.06472
11
8.50594
21
-2.23528
0
LINE
8
BLACK
6
CONTINUOUS
10
8.50437
20
-2.06228
11
8.50437
21
-2.23772
0
LINE
8
BLACK
6
CONTINUOUS
10
8.5028
20
-2.05996
11
8.5028
21
-2.24004
0
LINE
8
BLACK
6
CONTINUOUS
10
8.50122
20
-2.05768
11
8.50122
21
-2.24232
0
LINE
8
BLACK
6
CONTINUOUS
10
8.49965
20
-2.05551
11
8.49965
21
-2.24449
0
LINE
8
BLACK
6
CONTINUOUS
10
8.49807
20
-2.05339
11
8.49807
21
-2.24661
0
LINE
8
BLACK
6
CONTINUOUS
10
8.4965
20
-2.05138
11
8.4965
21
-2.24862
0
LINE
8
BLACK
6
CONTINUOUS
10
8.49492
20
-2.04937
11
8.49492
21
-2.25063
0
LINE
8
BLACK
6
CONTINUOUS
10
8.49335
20
-2.04748
11
8.49335
21
-2.25252
0
LINE
8
BLACK
6
CONTINUOUS
10
8.49177
20
-2.04563
11
8.49177
21
-2.25437
0
LINE
8
BLACK
6
CONTINUOUS
10
8.4902
20
-2.04382
11
8.4902
21
-2.25618
0
LINE
8
BLACK
6
CONTINUOUS
10
8.48862
20
-2.04209
11
8.48862
21
-2.25791
0
LINE
8
BLACK
6
CONTINUOUS
10
8.48705
20
-2.04039
11
8.48705
21
-2.25961
0
LINE
8
BLACK
6
CONTINUOUS
10
8.48547
20
-2.03874
11
8.48547
21
-2.26126
0
LINE
8
BLACK
6
CONTINUOUS
10
8.4839
20
-2.03713
11
8.4839
21
-2.26287
0
LINE
8
BLACK
6
CONTINUOUS
10
8.48232
20
-2.03555
11
8.48232
21
-2.26445
0
LINE
8
BLACK
6
CONTINUOUS
10
8.48075
20
-2.03406
11
8.48075
21
-2.26594
0
LINE
8
BLACK
6
CONTINUOUS
10
8.47917
20
-2.03256
11
8.47917
21
-2.26744
0
LINE
8
BLACK
6
CONTINUOUS
10
8.4776
20
-2.19094
11
8.4776
21
-2.26886
0
LINE
8
BLACK
6
CONTINUOUS
10
8.4776
20
-2.03114
11
8.4776
21
-2.10906
0
LINE
8
BLACK
6
CONTINUOUS
10
8.47602
20
-2.19094
11
8.47602
21
-2.27028
0
LINE
8
BLACK
6
CONTINUOUS
10
8.47602
20
-2.02972
11
8.47602
21
-2.10906
0
LINE
8
BLACK
6
CONTINUOUS
10
8.47445
20
-2.19094
11
8.47445
21
-2.27165
0
LINE
8
BLACK
6
CONTINUOUS
10
8.47445
20
-2.02835
11
8.47445
21
-2.10906
0
LINE
8
BLACK
6
CONTINUOUS
10
8.47287
20
-2.19094
11
8.47287
21
-2.27299
0
LINE
8
BLACK
6
CONTINUOUS
10
8.47287
20
-2.02701
11
8.47287
21
-2.10906
0
LINE
8
BLACK
6
CONTINUOUS
10
8.4713
20
-2.19094
11
8.4713
21
-2.27425
0
LINE
8
BLACK
6
CONTINUOUS
10
8.4713
20
-2.02575
11
8.4713
21
-2.10906
0
LINE
8
BLACK
6
CONTINUOUS
10
8.46972
20
-2.19094
11
8.46972
21
-2.27555
0
LINE
8
BLACK
6
CONTINUOUS
10
8.46972
20
-2.02445
11
8.46972
21
-2.10906
0
LINE
8
BLACK
6
CONTINUOUS
10
8.46815
20
-2.19094
11
8.46815
21
-2.27677
0
LINE
8
BLACK
6
CONTINUOUS
10
8.46815
20
-2.02323
11
8.46815
21
-2.10906
0
LINE
8
BLACK
6
CONTINUOUS
10
8.46657
20
-2.19094
11
8.46657
21
-2.27795
0
LINE
8
BLACK
6
CONTINUOUS
10
8.46657
20
-2.02205
11
8.46657
21
-2.10906
0
LINE
8
BLACK
6
CONTINUOUS
10
8.465
20
-2.19094
11
8.465
21
-2.27913
0
LINE
8
BLACK
6
CONTINUOUS
10
8.465
20
-2.02087
11
8.465
21
-2.10906
0
LINE
8
BLACK
6
CONTINUOUS
10
8.46343
20
-2.19094
11
8.46343
21
-2.28028
0
LINE
8
BLACK
6
CONTINUOUS
10
8.46343
20
-2.01972
11
8.46343
21
-2.10906
0
LINE
8
BLACK
6
CONTINUOUS
10
8.46185
20
-2.19094
11
8.46185
21
-2.28142
0
LINE
8
BLACK
6
CONTINUOUS
10
8.46185
20
-2.01858
11
8.46185
21
-2.10906
0
LINE
8
BLACK
6
CONTINUOUS
10
8.46028
20
-2.19094
11
8.46028
21
-2.28248
0
LINE
8
BLACK
6
CONTINUOUS
10
8.46028
20
-2.01752
11
8.46028
21
-2.10906
0
LINE
8
BLACK
6
CONTINUOUS
10
8.4587
20
-2.19094
11
8.4587
21
-2.28354
0
LINE
8
BLACK
6
CONTINUOUS
10
8.4587
20
-2.01646
11
8.4587
21
-2.10906
0
LINE
8
BLACK
6
CONTINUOUS
10
8.45713
20
-2.19094
11
8.45713
21
-2.28457
0
LINE
8
BLACK
6
CONTINUOUS
10
8.45713
20
-2.01543
11
8.45713
21
-2.10906
0
LINE
8
BLACK
6
CONTINUOUS
10
8.45555
20
-2.19094
11
8.45555
21
-2.28559
0
LINE
8
BLACK
6
CONTINUOUS
10
8.45555
20
-2.01441
11
8.45555
21
-2.10906
0
LINE
8
BLACK
6
CONTINUOUS
10
8.45398
20
-2.19094
11
8.45398
21
-2.28657
0
LINE
8
BLACK
6
CONTINUOUS
10
8.45398
20
-2.01343
11
8.45398
21
-2.10906
0
LINE
8
BLACK
6
CONTINUOUS
10
8.4524
20
-2.19094
11
8.4524
21
-2.28752
0
LINE
8
BLACK
6
CONTINUOUS
10
8.4524
20
-2.01248
11
8.4524
21
-2.10906
0
LINE
8
BLACK
6
CONTINUOUS
10
8.45083
20
-2.19094
11
8.45083
21
-2.28846
0
LINE
8
BLACK
6
CONTINUOUS
10
8.45083
20
-2.01154
11
8.45083
21
-2.10906
0
LINE
8
BLACK
6
CONTINUOUS
10
8.44925
20
-2.19094
11
8.44925
21
-2.28937
0
LINE
8
BLACK
6
CONTINUOUS
10
8.44925
20
-2.01063
11
8.44925
21
-2.10906
0
LINE
8
BLACK
6
CONTINUOUS
10
8.44768
20
-2.19094
11
8.44768
21
-2.29024
0
LINE
8
BLACK
6
CONTINUOUS
10
8.44768
20
-2.00976
11
8.44768
21
-2.10906
0
LINE
8
BLACK
6
CONTINUOUS
10
8.4461
20
-2.19094
11
8.4461
21
-2.2911
0
LINE
8
BLACK
6
CONTINUOUS
10
8.4461
20
-2.0089
11
8.4461
21
-2.10906
0
LINE
8
BLACK
6
CONTINUOUS
10
8.44453
20
-2.19094
11
8.44453
21
-2.29197
0
LINE
8
BLACK
6
CONTINUOUS
10
8.44453
20
-2.00803
11
8.44453
21
-2.10906
0
LINE
8
BLACK
6
CONTINUOUS
10
8.44295
20
-2.19094
11
8.44295
21
-2.2928
0
LINE
8
BLACK
6
CONTINUOUS
10
8.44295
20
-2.0072
11
8.44295
21
-2.10906
0
LINE
8
BLACK
6
CONTINUOUS
10
8.44138
20
-2.19094
11
8.44138
21
-2.29358
0
LINE
8
BLACK
6
CONTINUOUS
10
8.44138
20
-2.00642
11
8.44138
21
-2.10906
0
LINE
8
BLACK
6
CONTINUOUS
10
8.4398
20
-2.19094
11
8.4398
21
-2.29433
0
LINE
8
BLACK
6
CONTINUOUS
10
8.4398
20
-2.00567
11
8.4398
21
-2.10906
0
LINE
8
BLACK
6
CONTINUOUS
10
8.43823
20
-2.19094
11
8.43823
21
-2.29512
0
LINE
8
BLACK
6
CONTINUOUS
10
8.43823
20
-2.00488
11
8.43823
21
-2.10906
0
LINE
8
BLACK
6
CONTINUOUS
10
8.43665
20
-2.19094
11
8.43665
21
-2.29583
0
LINE
8
BLACK
6
CONTINUOUS
10
8.43665
20
-2.00417
11
8.43665
21
-2.10906
0
LINE
8
BLACK
6
CONTINUOUS
10
8.43508
20
-2.19094
11
8.43508
21
-2.29654
0
LINE
8
BLACK
6
CONTINUOUS
10
8.43508
20
-2.00346
11
8.43508
21
-2.10906
0
LINE
8
BLACK
6
CONTINUOUS
10
8.4335
20
-2.19094
11
8.4335
21
-2.29724
0
LINE
8
BLACK
6
CONTINUOUS
10
8.4335
20
-2.00276
11
8.4335
21
-2.10906
0
LINE
8
BLACK
6
CONTINUOUS
10
8.43193
20
-2.19094
11
8.43193
21
-2.29791
0
LINE
8
BLACK
6
CONTINUOUS
10
8.43193
20
-2.00209
11
8.43193
21
-2.10906
0
LINE
8
BLACK
6
CONTINUOUS
10
8.43035
20
-2.19094
11
8.43035
21
-2.29858
0
LINE
8
BLACK
6
CONTINUOUS
10
8.43035
20
-2.00142
11
8.43035
21
-2.10906
0
LINE
8
BLACK
6
CONTINUOUS
10
8.42878
20
-2.19094
11
8.42878
21
-2.29921
0
LINE
8
BLACK
6
CONTINUOUS
10
8.42878
20
-2.00079
11
8.42878
21
-2.10906
0
LINE
8
BLACK
6
CONTINUOUS
10
8.4272
20
-2.19094
11
8.4272
21
-2.2998
0
LINE
8
BLACK
6
CONTINUOUS
10
8.4272
20
-2.0002
11
8.4272
21
-2.10906
0
LINE
8
BLACK
6
CONTINUOUS
10
8.42563
20
-2.19094
11
8.42563
21
-2.30043
0
LINE
8
BLACK
6
CONTINUOUS
10
8.42563
20
-1.99957
11
8.42563
21
-2.10906
0
LINE
8
BLACK
6
CONTINUOUS
10
8.42406
20
-2.19094
11
8.42406
21
-2.30098
0
LINE
8
BLACK
6
CONTINUOUS
10
8.42406
20
-1.99902
11
8.42406
21
-2.10906
0
LINE
8
BLACK
6
CONTINUOUS
10
8.42248
20
-2.19094
11
8.42248
21
-2.30157
0
LINE
8
BLACK
6
CONTINUOUS
10
8.42248
20
-1.99843
11
8.42248
21
-2.10906
0
LINE
8
BLACK
6
CONTINUOUS
10
8.42091
20
-2.19094
11
8.42091
21
-2.30209
0
LINE
8
BLACK
6
CONTINUOUS
10
8.42091
20
-1.99791
11
8.42091
21
-2.10906
0
LINE
8
BLACK
6
CONTINUOUS
10
8.41933
20
-2.19094
11
8.41933
21
-2.30264
0
LINE
8
BLACK
6
CONTINUOUS
10
8.41933
20
-1.99736
11
8.41933
21
-2.10906
0
LINE
8
BLACK
6
CONTINUOUS
10
8.41776
20
-2.19094
11
8.41776
21
-2.30311
0
LINE
8
BLACK
6
CONTINUOUS
10
8.41776
20
-1.99689
11
8.41776
21
-2.10906
0
LINE
8
BLACK
6
CONTINUOUS
10
8.41618
20
-2.19094
11
8.41618
21
-2.30362
0
LINE
8
BLACK
6
CONTINUOUS
10
8.41618
20
-1.99638
11
8.41618
21
-2.10906
0
LINE
8
BLACK
6
CONTINUOUS
10
8.41461
20
-2.19094
11
8.41461
21
-2.30409
0
LINE
8
BLACK
6
CONTINUOUS
10
8.41461
20
-1.99591
11
8.41461
21
-2.10906
0
LINE
8
BLACK
6
CONTINUOUS
10
8.41303
20
-2.19094
11
8.41303
21
-2.30453
0
LINE
8
BLACK
6
CONTINUOUS
10
8.41303
20
-1.99547
11
8.41303
21
-2.10906
0
LINE
8
BLACK
6
CONTINUOUS
10
8.41146
20
-2.19094
11
8.41146
21
-2.30496
0
LINE
8
BLACK
6
CONTINUOUS
10
8.41146
20
-1.99504
11
8.41146
21
-2.10906
0
LINE
8
BLACK
6
CONTINUOUS
10
8.40988
20
-2.19094
11
8.40988
21
-2.30539
0
LINE
8
BLACK
6
CONTINUOUS
10
8.40988
20
-1.99461
11
8.40988
21
-2.10906
0
LINE
8
BLACK
6
CONTINUOUS
10
8.40831
20
-2.19094
11
8.40831
21
-2.30579
0
LINE
8
BLACK
6
CONTINUOUS
10
8.40831
20
-1.99421
11
8.40831
21
-2.10906
0
LINE
8
BLACK
6
CONTINUOUS
10
8.40673
20
-2.19094
11
8.40673
21
-2.30618
0
LINE
8
BLACK
6
CONTINUOUS
10
8.40673
20
-1.99382
11
8.40673
21
-2.10906
0
LINE
8
BLACK
6
CONTINUOUS
10
8.40516
20
-2.19094
11
8.40516
21
-2.30654
0
LINE
8
BLACK
6
CONTINUOUS
10
8.40516
20
-1.99346
11
8.40516
21
-2.10906
0
LINE
8
BLACK
6
CONTINUOUS
10
8.40358
20
-2.19094
11
8.40358
21
-2.30689
0
LINE
8
BLACK
6
CONTINUOUS
10
8.40358
20
-1.99311
11
8.40358
21
-2.10906
0
LINE
8
BLACK
6
CONTINUOUS
10
8.40201
20
-2.19094
11
8.40201
21
-2.30724
0
LINE
8
BLACK
6
CONTINUOUS
10
8.40201
20
-1.99276
11
8.40201
21
-2.10906
0
LINE
8
BLACK
6
CONTINUOUS
10
8.40043
20
-2.19094
11
8.40043
21
-2.30756
0
LINE
8
BLACK
6
CONTINUOUS
10
8.40043
20
-1.99244
11
8.40043
21
-2.10906
0
LINE
8
BLACK
6
CONTINUOUS
10
8.39886
20
-2.19094
11
8.39886
21
-2.30787
0
LINE
8
BLACK
6
CONTINUOUS
10
8.39886
20
-1.99213
11
8.39886
21
-2.10906
0
LINE
8
BLACK
6
CONTINUOUS
10
8.39728
20
-2.19094
11
8.39728
21
-2.30815
0
LINE
8
BLACK
6
CONTINUOUS
10
8.39728
20
-1.99185
11
8.39728
21
-2.10906
0
LINE
8
BLACK
6
CONTINUOUS
10
8.39567
20
-1.99157
11
8.39567
21
-2.30843
0
LINE
8
BLACK
6
CONTINUOUS
10
8.39409
20
-1.99134
11
8.39409
21
-2.30866
0
LINE
8
BLACK
6
CONTINUOUS
10
8.39252
20
-1.99106
11
8.39252
21
-2.30894
0
LINE
8
BLACK
6
CONTINUOUS
10
8.39094
20
-1.99087
11
8.39094
21
-2.30913
0
LINE
8
BLACK
6
CONTINUOUS
10
8.38937
20
-1.99063
11
8.38937
21
-2.30937
0
LINE
8
BLACK
6
CONTINUOUS
10
8.3878
20
-1.99047
11
8.3878
21
-2.30953
0
LINE
8
BLACK
6
CONTINUOUS
10
8.38622
20
-1.99028
11
8.38622
21
-2.30972
0
LINE
8
BLACK
6
CONTINUOUS
10
8.38465
20
-1.99012
11
8.38465
21
-2.30988
0
LINE
8
BLACK
6
CONTINUOUS
10
8.38307
20
-1.98996
11
8.38307
21
-2.31004
0
LINE
8
BLACK
6
CONTINUOUS
10
8.3815
20
-1.98984
11
8.3815
21
-2.31016
0
LINE
8
BLACK
6
CONTINUOUS
10
8.37992
20
-1.98972
11
8.37992
21
-2.31028
0
LINE
8
BLACK
6
CONTINUOUS
10
8.37835
20
-1.98961
11
8.37835
21
-2.31039
0
LINE
8
BLACK
6
CONTINUOUS
10
8.37677
20
-1.98953
11
8.37677
21
-2.31047
0
LINE
8
BLACK
6
CONTINUOUS
10
8.3752
20
-1.98949
11
8.3752
21
-2.31051
0
LINE
8
BLACK
6
CONTINUOUS
10
8.37362
20
-1.98941
11
8.37362
21
-2.31059
0
LINE
8
BLACK
6
CONTINUOUS
10
8.37205
20
-1.98937
11
8.37205
21
-2.31063
0
LINE
8
BLACK
6
CONTINUOUS
10
8.37047
20
-1.98937
11
8.37047
21
-2.31063
0
LINE
8
BLACK
6
CONTINUOUS
10
8.3689
20
-1.98937
11
8.3689
21
-2.31063
0
LINE
8
BLACK
6
CONTINUOUS
10
8.21104
20
-2.04311
11
8.21104
21
-2.07461
0
LINE
8
BLACK
6
CONTINUOUS
10
8.19529
20
-2.05886
11
8.22678
21
-2.05886
0
LINE
8
BLACK
6
CONTINUOUS
10
7.16299
20
-0.3
11
7.12559
21
-0.3
0
LINE
8
BLACK
6
CONTINUOUS
10
7.12559
20
-0.33622
11
7.12559
21
-0.26378
0
LINE
8
BLACK
6
CONTINUOUS
10
7.12559
20
-0.26378
11
6.97441
21
-0.26378
0
LINE
8
BLACK
6
CONTINUOUS
10
6.97441
20
-0.33622
11
7.12559
21
-0.33622
0
LINE
8
BLACK
6
CONTINUOUS
10
6.97441
20
-0.26378
11
6.97441
21
-0.33622
0
LINE
8
BLACK
6
CONTINUOUS
10
6.93701
20
-0.3
11
6.97441
21
-0.3
0
LINE
8
BLACK
6
CONTINUOUS
10
6.83465
20
-2.73622
11
7.24803
21
-2.73622
0
LINE
8
BLACK
6
CONTINUOUS
10
6.83465
20
-2.66378
11
7.24803
21
-2.66378
0
LINE
8
BLACK
6
CONTINUOUS
10
4.79764
20
-3.69567
11
4.79764
21
-5.10512
0
LINE
8
BLACK
6
CONTINUOUS
10
4.79764
20
-5.10512
11
5.20236
21
-5.10512
0
LINE
8
BLACK
6
CONTINUOUS
10
4.89567
20
-3.69803
11
4.89567
21
-5.10276
0
LINE
8
BLACK
6
CONTINUOUS
10
4.89567
20
-5.10276
11
5.10433
21
-5.10276
0
LINE
8
BLACK
6
CONTINUOUS
10
4.96063
20
-3.69803
11
4.89567
21
-3.69803
0
LINE
8
BLACK
6
CONTINUOUS
10
5.10433
20
-3.69803
11
5.03937
21
-3.69803
0
LINE
8
BLACK
6
CONTINUOUS
10
5.10433
20
-5.10276
11
5.10433
21
-3.69803
0
LINE
8
BLACK
6
CONTINUOUS
10
5.20236
20
-3.69567
11
4.79764
21
-3.69567
0
LINE
8
BLACK
6
CONTINUOUS
10
5.20236
20
-5.10512
11
5.20236
21
-3.69567
0
ARC
8
BLACK
10
5
20
-3.69803
40
0.0393701
50
-180
51
-0
0
LINE
8
BLACK
6
CONTINUOUS
10
6.68425
20
-1.53701
11
6.68425
21
-1.57441
0
LINE
8
BLACK
6
CONTINUOUS
10
6.72047
20
-1.57441
11
6.64803
21
-1.57441
0
LINE
8
BLACK
6
CONTINUOUS
10
6.64803
20
-1.57441
11
6.64803
21
-1.72559
0
LINE
8
BLACK
6
CONTINUOUS
10
6.72047
20
-1.72559
11
6.72047
21
-1.57441
0
LINE
8
BLACK
6
CONTINUOUS
10
6.64803
20
-1.72559
11
6.72047
21
-1.72559
0
LINE
8
BLACK
6
CONTINUOUS
10
6.68425
20
-1.76299
11
6.68425
21
-1.72559
0
LINE
8
BLACK
6
CONTINUOUS
10
7.06969
20
-1.45591
11
7.06969
21
-1.45846
0
LINE
8
BLACK
6
CONTINUOUS
10
7.06969
20
-1.45591
11
7.19724
21
-1.45591
0
LINE
8
BLACK
6
CONTINUOUS
10
7.06969
20
-1.54154
11
7.06969
21
-1.54409
0
LINE
8
BLACK
6
CONTINUOUS
10
7.06969
20
-1.54409
11
7.19724
21
-1.54409
0
LINE
8
BLACK
6
CONTINUOUS
10
7.19724
20
-1.45591
11
7.19724
21
-1.45846
0
LINE
8
BLACK
6
CONTINUOUS
10
7.19724
20
-1.54154
11
7.19724
21
-1.54409
0
LINE
8
BLACK
6
CONTINUOUS
10
4.07441
20
-3.36417
11
4.07441
21
-3.3248
0
LINE
8
BLACK
6
CONTINUOUS
10
4.07441
20
-3.87598
11
4.07441
21
-3.83661
0
LINE
8
BLACK
6
CONTINUOUS
10
4.07441
20
-3.87598
11
4.11378
21
-3.87598
0
LINE
8
BLACK
6
CONTINUOUS
10
4.11378
20
-3.3248
11
4.07441
21
-3.3248
0
LINE
8
BLACK
6
CONTINUOUS
10
4.58622
20
-3.87598
11
4.62559
21
-3.87598
0
LINE
8
BLACK
6
CONTINUOUS
10
4.62559
20
-3.3248
11
4.58622
21
-3.3248
0
LINE
8
BLACK
6
CONTINUOUS
10
4.62559
20
-3.3248
11
4.62559
21
-3.36417
0
LINE
8
BLACK
6
CONTINUOUS
10
4.62559
20
-3.83661
11
4.62559
21
-3.87598
0
LINE
8
BLACK
6
CONTINUOUS
10
8.37441
20
-4.11417
11
8.37441
21
-4.0748
0
LINE
8
BLACK
6
CONTINUOUS
10
8.37441
20
-4.62598
11
8.37441
21
-4.58661
0
LINE
8
BLACK
6
CONTINUOUS
10
8.37441
20
-4.62598
11
8.41378
21
-4.62598
0
LINE
8
BLACK
6
CONTINUOUS
10
8.41378
20
-4.0748
11
8.37441
21
-4.0748
0
LINE
8
BLACK
6
CONTINUOUS
10
8.88622
20
-4.62598
11
8.92559
21
-4.62598
0
LINE
8
BLACK
6
CONTINUOUS
10
8.92559
20
-4.0748
11
8.88622
21
-4.0748
0
LINE
8
BLACK
6
CONTINUOUS
10
8.92559
20
-4.0748
11
8.92559
21
-4.11417
0
LINE
8
BLACK
6
CONTINUOUS
10
8.92559
20
-4.58661
11
8.92559
21
-4.62598
0
ARC
8
BLACK
10
3.5
20
-2.14764
40
0.0393701
50
-180
51
-0
0
LINE
8
BLACK
6
CONTINUOUS
10
3.70236
20
-2.85472
11
3.70236
21
-2.14528
0
LINE
8
BLACK
6
CONTINUOUS
10
3.70236
20
-2.14528
11
3.29764
21
-2.14528
0
LINE
8
BLACK
6
CONTINUOUS
10
3.60433
20
-2.85236
11
3.60433
21
-2.14764
0
LINE
8
BLACK
6
CONTINUOUS
10
3.60433
20
-2.14764
11
3.53937
21
-2.14764
0
LINE
8
BLACK
6
CONTINUOUS
10
3.46063
20
-2.14764
11
3.39567
21
-2.14764
0
LINE
8
BLACK
6
CONTINUOUS
10
3.39567
20
-2.85236
11
3.60433
21
-2.85236
0
LINE
8
BLACK
6
CONTINUOUS
10
3.39567
20
-2.14764
11
3.39567
21
-2.85236
0
LINE
8
BLACK
6
CONTINUOUS
10
3.29764
20
-2.85472
11
3.70236
21
-2.85472
0
LINE
8
BLACK
6
CONTINUOUS
10
3.29764
20
-2.14528
11
3.29764
21
-2.85472
0
LINE
8
BLACK
6
CONTINUOUS
10
8.45
20
-0.687008
11
8.45
21
-0.724409
0
LINE
8
BLACK
6
CONTINUOUS
10
8.48622
20
-0.724409
11
8.41378
21
-0.724409
0
LINE
8
BLACK
6
CONTINUOUS
10
8.41378
20
-0.724409
11
8.41378
21
-0.875591
0
LINE
8
BLACK
6
CONTINUOUS
10
8.48622
20
-0.875591
11
8.48622
21
-0.724409
0
LINE
8
BLACK
6
CONTINUOUS
10
8.41378
20
-0.875591
11
8.48622
21
-0.875591
0
LINE
8
BLACK
6
CONTINUOUS
10
8.45
20
-0.912992
11
8.45
21
-0.875591
0
LINE
8
BLACK
6
CONTINUOUS
10
9.3
20
-1.33622
11
9.3
21
-1.36063
0
CIRCLE
8
BLACK
10
9.3
20
-1.3
40
0.0362205
0
LINE
8
BLACK
6
CONTINUOUS
10
1.19488
20
-1.94961
11
1.19488
21
-2.04961
0
LINE
8
BLACK
6
CONTINUOUS
10
1.15472
20
-2.41929
11
1.15472
21
-2.34606
0
LINE
8
BLACK
6
CONTINUOUS
10
1.15472
20
-2.15315
11
1.15472
21
-0.427165
0
LINE
8
BLACK
6
CONTINUOUS
10
1.15472
20
-0.427165
11
0.245276
21
-0.427165
0
LINE
8
BLACK
6
CONTINUOUS
10
1.06496
20
-2.41929
11
1.06496
21
-2.33031
0
LINE
8
BLACK
6
CONTINUOUS
10
0.245276
20
-2.41929
11
1.15472
21
-2.41929
0
LINE
8
BLACK
6
CONTINUOUS
10
0.245276
20
-0.427165
11
0.245276
21
-2.41929
0
CIRCLE
8
BLACK
10
1.12598
20
-2.24961
40
0.0354331
0
CIRCLE
8
BLACK
10
1.12598
20
-2.24961
40
0.100394
0
LINE
8
BLACK
6
CONTINUOUS
10
1.07441
20
-4.11417
11
1.07441
21
-4.0748
0
LINE
8
BLACK
6
CONTINUOUS
10
1.07441
20
-4.62598
11
1.07441
21
-4.58661
0
LINE
8
BLACK
6
CONTINUOUS
10
1.07441
20
-4.62598
11
1.11378
21
-4.62598
0
LINE
8
BLACK
6
CONTINUOUS
10
1.11378
20
-4.0748
11
1.07441
21
-4.0748
0
LINE
8
BLACK
6
CONTINUOUS
10
1.58622
20
-4.62598
11
1.62559
21
-4.62598
0
LINE
8
BLACK
6
CONTINUOUS
10
1.62559
20
-4.0748
11
1.58622
21
-4.0748
0
LINE
8
BLACK
6
CONTINUOUS
10
1.62559
20
-4.0748
11
1.62559
21
-4.11417
0
LINE
8
BLACK
6
CONTINUOUS
10
1.62559
20
-4.58661
11
1.62559
21
-4.62598
0
LINE
8
BLACK
6
CONTINUOUS
10
1.07441
20
-4.86417
11
1.07441
21
-4.8248
0
LINE
8
BLACK
6
CONTINUOUS
10
1.07441
20
-5.37598
11
1.07441
21
-5.33661
0
LINE
8
BLACK
6
CONTINUOUS
10
1.07441
20
-5.37598
11
1.11378
21
-5.37598
0
LINE
8
BLACK
6
CONTINUOUS
10
1.11378
20
-4.8248
11
1.07441
21
-4.8248
0
LINE
8
BLACK
6
CONTINUOUS
10
1.58622
20
-5.37598
11
1.62559
21
-5.37598
0
LINE
8
BLACK
6
CONTINUOUS
10
1.62559
20
-4.8248
11
1.58622
21
-4.8248
0
LINE
8
BLACK
6
CONTINUOUS
10
1.62559
20
-4.8248
11
1.62559
21
-4.86417
0
LINE
8
BLACK
6
CONTINUOUS
10
1.62559
20
-5.33661
11
1.62559
21
-5.37598
0
LINE
8
BLACK
6
CONTINUOUS
10
5.19528
20
-2.75236
11
5.90472
21
-2.75236
0
LINE
8
BLACK
6
CONTINUOUS
10
5.90472
20
-2.75236
11
5.90472
21
-2.34764
0
LINE
8
BLACK
6
CONTINUOUS
10
5.19764
20
-2.65433
11
5.90236
21
-2.65433
0
LINE
8
BLACK
6
CONTINUOUS
10
5.90236
20
-2.65433
11
5.90236
21
-2.44567
0
LINE
8
BLACK
6
CONTINUOUS
10
5.19764
20
-2.58937
11
5.19764
21
-2.65433
0
LINE
8
BLACK
6
CONTINUOUS
10
5.19764
20
-2.44567
11
5.19764
21
-2.51063
0
LINE
8
BLACK
6
CONTINUOUS
10
5.90236
20
-2.44567
11
5.19764
21
-2.44567
0
LINE
8
BLACK
6
CONTINUOUS
10
5.19528
20
-2.34764
11
5.19528
21
-2.75236
0
LINE
8
BLACK
6
CONTINUOUS
10
5.90472
20
-2.34764
11
5.19528
21
-2.34764
0
ARC
8
BLACK
10
5.19764
20
-2.55
40
0.0393701
50
-90
51
90
0
LINE
8
BLACK
6
CONTINUOUS
10
8.37441
20
-5.61417
11
8.37441
21
-5.5748
0
LINE
8
BLACK
6
CONTINUOUS
10
8.37441
20
-6.12598
11
8.37441
21
-6.08661
0
LINE
8
BLACK
6
CONTINUOUS
10
8.37441
20
-6.12598
11
8.41378
21
-6.12598
0
LINE
8
BLACK
6
CONTINUOUS
10
8.41378
20
-5.5748
11
8.37441
21
-5.5748
0
LINE
8
BLACK
6
CONTINUOUS
10
8.88622
20
-6.12598
11
8.92559
21
-6.12598
0
LINE
8
BLACK
6
CONTINUOUS
10
8.92559
20
-5.5748
11
8.88622
21
-5.5748
0
LINE
8
BLACK
6
CONTINUOUS
10
8.92559
20
-5.5748
11
8.92559
21
-5.61417
0
LINE
8
BLACK
6
CONTINUOUS
10
8.92559
20
-6.08661
11
8.92559
21
-6.12598
0
LINE
8
BLACK
6
CONTINUOUS
10
8.64764
20
-1.40236
11
8.64764
21
-1.35
0
LINE
8
BLACK
6
CONTINUOUS
10
8.7
20
-1.40236
11
8.64764
21
-1.40236
0
LINE
8
BLACK
6
CONTINUOUS
10
8.75
20
-1.40236
11
8.85236
21
-1.40236
0
LINE
8
BLACK
6
CONTINUOUS
10
8.75
20
-1.40236
11
8.75
21
-1.29764
0
LINE
8
BLACK
6
CONTINUOUS
10
8.85236
20
-1.40236
11
8.85236
21
-1.29764
0
LINE
8
BLACK
6
CONTINUOUS
10
8.75
20
-1.29764
11
8.85236
21
-1.29764
0
ARC
8
BLACK
10
3.5
20
-0.747638
40
0.0393701
50
-180
51
-0
0
LINE
8
BLACK
6
CONTINUOUS
10
3.70236
20
-1.75472
11
3.70236
21
-0.745276
0
LINE
8
BLACK
6
CONTINUOUS
10
3.70236
20
-0.745276
11
3.29764
21
-0.745276
0
LINE
8
BLACK
6
CONTINUOUS
10
3.60433
20
-1.75236
11
3.60433
21
-0.747638
0
LINE
8
BLACK
6
CONTINUOUS
10
3.60433
20
-0.747638
11
3.53937
21
-0.747638
0
LINE
8
BLACK
6
CONTINUOUS
10
3.46063
20
-0.747638
11
3.39567
21
-0.747638
0
LINE
8
BLACK
6
CONTINUOUS
10
3.39567
20
-1.75236
11
3.60433
21
-1.75236
0
LINE
8
BLACK
6
CONTINUOUS
10
3.39567
20
-0.747638
11
3.39567
21
-1.75236
0
LINE
8
BLACK
6
CONTINUOUS
10
3.29764
20
-1.75472
11
3.70236
21
-1.75472
0
LINE
8
BLACK
6
CONTINUOUS
10
3.29764
20
-0.745276
11
3.29764
21
-1.75472
0
LINE
8
BLACK
6
CONTINUOUS
10
1.82441
20
-3.36417
11
1.82441
21
-3.3248
0
LINE
8
BLACK
6
CONTINUOUS
10
1.82441
20
-3.87598
11
1.82441
21
-3.83661
0
LINE
8
BLACK
6
CONTINUOUS
10
1.82441
20
-3.87598
11
1.86378
21
-3.87598
0
LINE
8
BLACK
6
CONTINUOUS
10
1.86378
20
-3.3248
11
1.82441
21
-3.3248
0
LINE
8
BLACK
6
CONTINUOUS
10
2.33622
20
-3.87598
11
2.37559
21
-3.87598
0
LINE
8
BLACK
6
CONTINUOUS
10
2.37559
20
-3.3248
11
2.33622
21
-3.3248
0
LINE
8
BLACK
6
CONTINUOUS
10
2.37559
20
-3.3248
11
2.37559
21
-3.36417
0
LINE
8
BLACK
6
CONTINUOUS
10
2.37559
20
-3.83661
11
2.37559
21
-3.87598
0
LINE
8
BLACK
6
CONTINUOUS
10
9.47677
20
-1.8685
11
9.98858
21
-1.8685
0
LINE
8
BLACK
6
CONTINUOUS
10
9.47677
20
-1.8685
11
9.47677
21
-1.23071
0
LINE
8
BLACK
6
CONTINUOUS
10
9.98858
20
-1.8685
11
9.98858
21
-1.23071
0
LINE
8
BLACK
6
CONTINUOUS
10
9.47677
20
-1.23071
11
9.98858
21
-1.23071
0
LINE
8
BLACK
6
CONTINUOUS
10
2.57441
20
-5.61417
11
2.57441
21
-5.5748
0
LINE
8
BLACK
6
CONTINUOUS
10
2.57441
20
-6.12598
11
2.57441
21
-6.08661
0
LINE
8
BLACK
6
CONTINUOUS
10
2.57441
20
-6.12598
11
2.61378
21
-6.12598
0
LINE
8
BLACK
6
CONTINUOUS
10
2.61378
20
-5.5748
11
2.57441
21
-5.5748
0
LINE
8
BLACK
6
CONTINUOUS
10
3.08622
20
-6.12598
11
3.12559
21
-6.12598
0
LINE
8
BLACK
6
CONTINUOUS
10
3.12559
20
-5.5748
11
3.08622
21
-5.5748
0
LINE
8
BLACK
6
CONTINUOUS
10
3.12559
20
-5.5748
11
3.12559
21
-5.61417
0
LINE
8
BLACK
6
CONTINUOUS
10
3.12559
20
-6.08661
11
3.12559
21
-6.12598
0
LINE
8
BLACK
6
CONTINUOUS
10
8.45
20
-1.18701
11
8.45
21
-1.22441
0
LINE
8
BLACK
6
CONTINUOUS
10
8.48622
20
-1.22441
11
8.41378
21
-1.22441
0
LINE
8
BLACK
6
CONTINUOUS
10
8.41378
20
-1.22441
11
8.41378
21
-1.37559
0
LINE
8
BLACK
6
CONTINUOUS
10
8.48622
20
-1.37559
11
8.48622
21
-1.22441
0
LINE
8
BLACK
6
CONTINUOUS
10
8.41378
20
-1.37559
11
8.48622
21
-1.37559
0
LINE
8
BLACK
6
CONTINUOUS
10
8.45
20
-1.41299
11
8.45
21
-1.37559
0
LINE
8
BLACK
6
CONTINUOUS
10
6.38425
20
-1.53701
11
6.38425
21
-1.57441
0
LINE
8
BLACK
6
CONTINUOUS
10
6.42047
20
-1.57441
11
6.34803
21
-1.57441
0
LINE
8
BLACK
6
CONTINUOUS
10
6.34803
20
-1.57441
11
6.34803
21
-1.72559
0
LINE
8
BLACK
6
CONTINUOUS
10
6.42047
20
-1.72559
11
6.42047
21
-1.57441
0
LINE
8
BLACK
6
CONTINUOUS
10
6.34803
20
-1.72559
11
6.42047
21
-1.72559
0
LINE
8
BLACK
6
CONTINUOUS
10
6.38425
20
-1.76299
11
6.38425
21
-1.72559
0
LINE
8
BLACK
6
CONTINUOUS
10
1.68602
20
-1.29016
11
1.68602
21
-1.70354
0
LINE
8
BLACK
6
CONTINUOUS
10
1.61358
20
-1.29016
11
1.61358
21
-1.70354
0
LINE
8
BLACK
6
CONTINUOUS
10
4.07441
20
-5.61417
11
4.07441
21
-5.5748
0
LINE
8
BLACK
6
CONTINUOUS
10
4.07441
20
-6.12598
11
4.07441
21
-6.08661
0
LINE
8
BLACK
6
CONTINUOUS
10
4.07441
20
-6.12598
11
4.11378
21
-6.12598
0
LINE
8
BLACK
6
CONTINUOUS
10
4.11378
20
-5.5748
11
4.07441
21
-5.5748
0
LINE
8
BLACK
6
CONTINUOUS
10
4.58622
20
-6.12598
11
4.62559
21
-6.12598
0
LINE
8
BLACK
6
CONTINUOUS
10
4.62559
20
-5.5748
11
4.58622
21
-5.5748
0
LINE
8
BLACK
6
CONTINUOUS
10
4.62559
20
-5.5748
11
4.62559
21
-5.61417
0
LINE
8
BLACK
6
CONTINUOUS
10
4.62559
20
-6.08661
11
4.62559
21
-6.12598
0
LINE
8
BLACK
6
CONTINUOUS
10
1.82441
20
-4.86417
11
1.82441
21
-4.8248
0
LINE
8
BLACK
6
CONTINUOUS
10
1.82441
20
-5.37598
11
1.82441
21
-5.33661
0
LINE
8
BLACK
6
CONTINUOUS
10
1.82441
20
-5.37598
11
1.86378
21
-5.37598
0
LINE
8
BLACK
6
CONTINUOUS
10
1.86378
20
-4.8248
11
1.82441
21
-4.8248
0
LINE
8
BLACK
6
CONTINUOUS
10
2.33622
20
-5.37598
11
2.37559
21
-5.37598
0
LINE
8
BLACK
6
CONTINUOUS
10
2.37559
20
-4.8248
11
2.33622
21
-4.8248
0
LINE
8
BLACK
6
CONTINUOUS
10
2.37559
20
-4.8248
11
2.37559
21
-4.86417
0
LINE
8
BLACK
6
CONTINUOUS
10
2.37559
20
-5.33661
11
2.37559
21
-5.37598
0
LINE
8
BLACK
6
CONTINUOUS
10
8.19764
20
-0.302559
11
8.19764
21
-0.250197
0
LINE
8
BLACK
6
CONTINUOUS
10
8.25
20
-0.302559
11
8.19764
21
-0.302559
0
LINE
8
BLACK
6
CONTINUOUS
10
8.3
20
-0.302559
11
8.80236
21
-0.302559
0
LINE
8
BLACK
6
CONTINUOUS
10
8.3
20
-0.302559
11
8.3
21
-0.200197
0
LINE
8
BLACK
6
CONTINUOUS
10
8.80236
20
-0.302559
11
8.80236
21
-0.0978346
0
LINE
8
BLACK
6
CONTINUOUS
10
8.19764
20
-0.200197
11
8.19764
21
-0.0978346
0
LINE
8
BLACK
6
CONTINUOUS
10
8.3
20
-0.200197
11
8.19764
21
-0.200197
0
LINE
8
BLACK
6
CONTINUOUS
10
8.19764
20
-0.0978346
11
8.80236
21
-0.0978346
0
LINE
8
BLACK
6
CONTINUOUS
10
7.62441
20
-3.36417
11
7.62441
21
-3.3248
0
LINE
8
BLACK
6
CONTINUOUS
10
7.62441
20
-3.87598
11
7.62441
21
-3.83661
0
LINE
8
BLACK
6
CONTINUOUS
10
7.62441
20
-3.87598
11
7.66378
21
-3.87598
0
LINE
8
BLACK
6
CONTINUOUS
10
7.66378
20
-3.3248
11
7.62441
21
-3.3248
0
LINE
8
BLACK
6
CONTINUOUS
10
8.13622
20
-3.87598
11
8.17559
21
-3.87598
0
LINE
8
BLACK
6
CONTINUOUS
10
8.17559
20
-3.3248
11
8.13622
21
-3.3248
0
LINE
8
BLACK
6
CONTINUOUS
10
8.17559
20
-3.3248
11
8.17559
21
-3.36417
0
LINE
8
BLACK
6
CONTINUOUS
10
8.17559
20
-3.83661
11
8.17559
21
-3.87598
0
LINE
8
BLACK
6
CONTINUOUS
10
9.67559
20
-6.08661
11
9.67559
21
-6.12598
0
LINE
8
BLACK
6
CONTINUOUS
10
9.67559
20
-5.5748
11
9.67559
21
-5.61417
0
LINE
8
BLACK
6
CONTINUOUS
10
9.67559
20
-5.5748
11
9.63622
21
-5.5748
0
LINE
8
BLACK
6
CONTINUOUS
10
9.63622
20
-6.12598
11
9.67559
21
-6.12598
0
LINE
8
BLACK
6
CONTINUOUS
10
9.16378
20
-5.5748
11
9.12441
21
-5.5748
0
LINE
8
BLACK
6
CONTINUOUS
10
9.12441
20
-6.12598
11
9.16378
21
-6.12598
0
LINE
8
BLACK
6
CONTINUOUS
10
9.12441
20
-6.12598
11
9.12441
21
-6.08661
0
LINE
8
BLACK
6
CONTINUOUS
10
9.12441
20
-5.61417
11
9.12441
21
-5.5748
0
LINE
8
BLACK
6
CONTINUOUS
10
9.53543
20
-0.355906
11
9.53543
21
-0.358465
0
LINE
8
BLACK
6
CONTINUOUS
10
9.53543
20
-0.355906
11
9.66299
21
-0.355906
0
LINE
8
BLACK
6
CONTINUOUS
10
9.53543
20
-0.441535
11
9.53543
21
-0.444094
0
LINE
8
BLACK
6
CONTINUOUS
10
9.53543
20
-0.444094
11
9.66299
21
-0.444094
0
LINE
8
BLACK
6
CONTINUOUS
10
9.66299
20
-0.355906
11
9.66299
21
-0.358465
0
LINE
8
BLACK
6
CONTINUOUS
10
9.66299
20
-0.441535
11
9.66299
21
-0.444094
0
LINE
8
BLACK
6
CONTINUOUS
10
0.875591
20
-5.33661
11
0.875591
21
-5.37598
0
LINE
8
BLACK
6
CONTINUOUS
10
0.875591
20
-4.8248
11
0.875591
21
-4.86417
0
LINE
8
BLACK
6
CONTINUOUS
10
0.875591
20
-4.8248
11
0.83622
21
-4.8248
0
LINE
8
BLACK
6
CONTINUOUS
10
0.83622
20
-5.37598
11
0.875591
21
-5.37598
0
LINE
8
BLACK
6
CONTINUOUS
10
0.36378
20
-4.8248
11
0.324409
21
-4.8248
0
LINE
8
BLACK
6
CONTINUOUS
10
0.324409
20
-5.37598
11
0.36378
21
-5.37598
0
LINE
8
BLACK
6
CONTINUOUS
10
0.324409
20
-5.37598
11
0.324409
21
-5.33661
0
LINE
8
BLACK
6
CONTINUOUS
10
0.324409
20
-4.86417
11
0.324409
21
-4.8248
0
LINE
8
BLACK
6
CONTINUOUS
10
9.4185
20
-0.58937
11
9.4185
21
-0.538189
0
LINE
8
BLACK
6
CONTINUOUS
10
9.40669
20
-0.577559
11
9.32795
21
-0.577559
0
LINE
8
BLACK
6
CONTINUOUS
10
9.40669
20
-0.00669291
11
9.40669
21
-0.577559
0
LINE
8
BLACK
6
CONTINUOUS
10
9.35157
20
-0.58937
11
9.4185
21
-0.58937
0
LINE
8
BLACK
6
CONTINUOUS
10
9.12323
20
-0.577559
11
9.04449
21
-0.577559
0
LINE
8
BLACK
6
CONTINUOUS
10
9.04449
20
-0.577559
11
9.04449
21
-0.526378
0
LINE
8
BLACK
6
CONTINUOUS
10
9.04449
20
-0.345276
11
9.04449
21
-0.00669291
0
LINE
8
BLACK
6
CONTINUOUS
10
9.04449
20
-0.00669291
11
9.40669
21
-0.00669291
0
LINE
8
BLACK
6
CONTINUOUS
10
4.07441
20
-4.11417
11
4.07441
21
-4.0748
0
LINE
8
BLACK
6
CONTINUOUS
10
4.07441
20
-4.62598
11
4.07441
21
-4.58661
0
LINE
8
BLACK
6
CONTINUOUS
10
4.07441
20
-4.62598
11
4.11378
21
-4.62598
0
LINE
8
BLACK
6
CONTINUOUS
10
4.11378
20
-4.0748
11
4.07441
21
-4.0748
0
LINE
8
BLACK
6
CONTINUOUS
10
4.58622
20
-4.62598
11
4.62559
21
-4.62598
0
LINE
8
BLACK
6
CONTINUOUS
10
4.62559
20
-4.0748
11
4.58622
21
-4.0748
0
LINE
8
BLACK
6
CONTINUOUS
10
4.62559
20
-4.0748
11
4.62559
21
-4.11417
0
LINE
8
BLACK
6
CONTINUOUS
10
4.62559
20
-4.58661
11
4.62559
21
-4.62598
0
LINE
8
BLACK
6
CONTINUOUS
10
4.13622
20
-2.28937
11
4.13622
21
-2.70276
0
LINE
8
BLACK
6
CONTINUOUS
10
4.06378
20
-2.28937
11
4.06378
21
-2.70276
0
LINE
8
BLACK
6
CONTINUOUS
10
9.49843
20
-0.508465
11
9.49843
21
-0.691181
0
LINE
8
BLACK
6
CONTINUOUS
10
9.49843
20
-0.508465
11
9.90157
21
-0.508465
0
LINE
8
BLACK
6
CONTINUOUS
10
9.49843
20
-0.567913
11
9.90157
21
-0.567913
0
LINE
8
BLACK
6
CONTINUOUS
10
9.49843
20
-0.691181
11
9.90157
21
-0.691181
0
LINE
8
BLACK
6
CONTINUOUS
10
9.62717
20
-0.508465
11
9.62717
21
-0.567913
0
LINE
8
BLACK
6
CONTINUOUS
10
9.77287
20
-0.508465
11
9.77287
21
-0.567913
0
LINE
8
BLACK
6
CONTINUOUS
10
9.90157
20
-0.508465
11
9.90157
21
-0.691181
0
LINE
8
BLACK
6
CONTINUOUS
10
4.73622
20
-2.28937
11
4.73622
21
-2.70276
0
LINE
8
BLACK
6
CONTINUOUS
10
4.66378
20
-2.28937
11
4.66378
21
-2.70276
0
LINE
8
BLACK
6
CONTINUOUS
10
6.12441
20
-4.86417
11
6.12441
21
-4.8248
0
LINE
8
BLACK
6
CONTINUOUS
10
6.12441
20
-5.37598
11
6.12441
21
-5.33661
0
LINE
8
BLACK
6
CONTINUOUS
10
6.12441
20
-5.37598
11
6.16378
21
-5.37598
0
LINE
8
BLACK
6
CONTINUOUS
10
6.16378
20
-4.8248
11
6.12441
21
-4.8248
0
LINE
8
BLACK
6
CONTINUOUS
10
6.63622
20
-5.37598
11
6.67559
21
-5.37598
0
LINE
8
BLACK
6
CONTINUOUS
10
6.67559
20
-4.8248
11
6.63622
21
-4.8248
0
LINE
8
BLACK
6
CONTINUOUS
10
6.67559
20
-4.8248
11
6.67559
21
-4.86417
0
LINE
8
BLACK
6
CONTINUOUS
10
6.67559
20
-5.33661
11
6.67559
21
-5.37598
0
ARC
8
BLACK
10
4.09961
20
-2.14783
40
0.0393701
50
-180
51
-0
0
LINE
8
BLACK
6
CONTINUOUS
10
4.30197
20
-2.85492
11
4.30197
21
-2.14547
0
LINE
8
BLACK
6
CONTINUOUS
10
4.30197
20
-2.14547
11
3.89724
21
-2.14547
0
LINE
8
BLACK
6
CONTINUOUS
10
4.20394
20
-2.85256
11
4.20394
21
-2.14783
0
LINE
8
BLACK
6
CONTINUOUS
10
4.20394
20
-2.14783
11
4.13898
21
-2.14783
0
LINE
8
BLACK
6
CONTINUOUS
10
4.06024
20
-2.14783
11
3.99528
21
-2.14783
0
LINE
8
BLACK
6
CONTINUOUS
10
3.99528
20
-2.85256
11
4.20394
21
-2.85256
0
LINE
8
BLACK
6
CONTINUOUS
10
3.99528
20
-2.14783
11
3.99528
21
-2.85256
0
LINE
8
BLACK
6
CONTINUOUS
10
3.89724
20
-2.85492
11
4.30197
21
-2.85492
0
LINE
8
BLACK
6
CONTINUOUS
10
3.89724
20
-2.14547
11
3.89724
21
-2.85492
0
LINE
8
BLACK
6
CONTINUOUS
10
5.08543
20
-5.5563
11
5.08543
21
-5.55886
0
LINE
8
BLACK
6
CONTINUOUS
10
5.08543
20
-5.5563
11
5.21299
21
-5.5563
0
LINE
8
BLACK
6
CONTINUOUS
10
5.08543
20
-5.64193
11
5.08543
21
-5.64449
0
LINE
8
BLACK
6
CONTINUOUS
10
5.08543
20
-5.64449
11
5.21299
21
-5.64449
0
LINE
8
BLACK
6
CONTINUOUS
10
5.21299
20
-5.5563
11
5.21299
21
-5.55886
0
LINE
8
BLACK
6
CONTINUOUS
10
5.21299
20
-5.64193
11
5.21299
21
-5.64449
0
LINE
8
BLACK
6
CONTINUOUS
10
6.12441
20
-5.61417
11
6.12441
21
-5.5748
0
LINE
8
BLACK
6
CONTINUOUS
10
6.12441
20
-6.12598
11
6.12441
21
-6.08661
0
LINE
8
BLACK
6
CONTINUOUS
10
6.12441
20
-6.12598
11
6.16378
21
-6.12598
0
LINE
8
BLACK
6
CONTINUOUS
10
6.16378
20
-5.5748
11
6.12441
21
-5.5748
0
LINE
8
BLACK
6
CONTINUOUS
10
6.63622
20
-6.12598
11
6.67559
21
-6.12598
0
LINE
8
BLACK
6
CONTINUOUS
10
6.67559
20
-5.5748
11
6.63622
21
-5.5748
0
LINE
8
BLACK
6
CONTINUOUS
10
6.67559
20
-5.5748
11
6.67559
21
-5.61417
0
LINE
8
BLACK
6
CONTINUOUS
10
6.67559
20
-6.08661
11
6.67559
21
-6.12598
0
LINE
8
BLACK
6
CONTINUOUS
10
6.32087
20
-2.02717
11
6.17913
21
-2.02717
0
ARC
8
BLACK
10
6.25
20
-2.1
40
0.102362
50
-90
51
45
0
ARC
8
BLACK
10
6.25
20
-2.1
40
0.102362
50
-225
51
-90
0
LINE
8
BLACK
6
CONTINUOUS
10
9.3
20
-1.68622
11
9.3
21
-1.71063
0
CIRCLE
8
BLACK
10
9.3
20
-1.65
40
0.0362205
0
LINE
8
BLACK
6
CONTINUOUS
10
3.53622
20
-0.93937
11
3.53622
21
-1.35276
0
LINE
8
BLACK
6
CONTINUOUS
10
3.46378
20
-0.93937
11
3.46378
21
-1.35276
0
LINE
8
BLACK
6
CONTINUOUS
10
8.64764
20
-1.15236
11
8.64764
21
-1.1
0
LINE
8
BLACK
6
CONTINUOUS
10
8.7
20
-1.15236
11
8.64764
21
-1.15236
0
LINE
8
BLACK
6
CONTINUOUS
10
8.75
20
-1.15236
11
8.85236
21
-1.15236
0
LINE
8
BLACK
6
CONTINUOUS
10
8.75
20
-1.15236
11
8.75
21
-1.04764
0
LINE
8
BLACK
6
CONTINUOUS
10
8.85236
20
-1.15236
11
8.85236
21
-1.04764
0
LINE
8
BLACK
6
CONTINUOUS
10
8.75
20
-1.04764
11
8.85236
21
-1.04764
0
LINE
8
BLACK
6
CONTINUOUS
10
5.37441
20
-5.61417
11
5.37441
21
-5.5748
0
LINE
8
BLACK
6
CONTINUOUS
10
5.37441
20
-6.12598
11
5.37441
21
-6.08661
0
LINE
8
BLACK
6
CONTINUOUS
10
5.37441
20
-6.12598
11
5.41378
21
-6.12598
0
LINE
8
BLACK
6
CONTINUOUS
10
5.41378
20
-5.5748
11
5.37441
21
-5.5748
0
LINE
8
BLACK
6
CONTINUOUS
10
5.88622
20
-6.12598
11
5.92559
21
-6.12598
0
LINE
8
BLACK
6
CONTINUOUS
10
5.92559
20
-5.5748
11
5.88622
21
-5.5748
0
LINE
8
BLACK
6
CONTINUOUS
10
5.92559
20
-5.5748
11
5.92559
21
-5.61417
0
LINE
8
BLACK
6
CONTINUOUS
10
5.92559
20
-6.08661
11
5.92559
21
-6.12598
0
LINE
8
BLACK
6
CONTINUOUS
10
6.03937
20
-0.70748
11
6.03937
21
-0.39252
0
LINE
8
BLACK
6
CONTINUOUS
10
6.03937
20
-0.39252
11
5.92126
21
-0.39252
0
LINE
8
BLACK
6
CONTINUOUS
10
5.92126
20
-0.70748
11
6.03937
21
-0.70748
0
ARC
8
BLACK
10
5.50787
20
-0.55
40
0.442366
50
-339.146
51
-20.8545
0
LINE
8
BLACK
6
CONTINUOUS
10
6.78425
20
-1.53701
11
6.78425
21
-1.57441
0
LINE
8
BLACK
6
CONTINUOUS
10
6.82047
20
-1.57441
11
6.74803
21
-1.57441
0
LINE
8
BLACK
6
CONTINUOUS
10
6.74803
20
-1.57441
11
6.74803
21
-1.72559
0
LINE
8
BLACK
6
CONTINUOUS
10
6.82047
20
-1.72559
11
6.82047
21
-1.57441
0
LINE
8
BLACK
6
CONTINUOUS
10
6.74803
20
-1.72559
11
6.82047
21
-1.72559
0
LINE
8
BLACK
6
CONTINUOUS
10
6.78425
20
-1.76299
11
6.78425
21
-1.72559
0
ARC
8
BLACK
10
4.70039
20
-0.747835
40
0.0393701
50
-180
51
-0
0
LINE
8
BLACK
6
CONTINUOUS
10
4.90276
20
-1.75492
11
4.90276
21
-0.745472
0
LINE
8
BLACK
6
CONTINUOUS
10
4.90276
20
-0.745472
11
4.49803
21
-0.745472
0
LINE
8
BLACK
6
CONTINUOUS
10
4.80472
20
-1.75256
11
4.80472
21
-0.747835
0
LINE
8
BLACK
6
CONTINUOUS
10
4.80472
20
-0.747835
11
4.73976
21
-0.747835
0
LINE
8
BLACK
6
CONTINUOUS
10
4.66102
20
-0.747835
11
4.59606
21
-0.747835
0
LINE
8
BLACK
6
CONTINUOUS
10
4.59606
20
-1.75256
11
4.80472
21
-1.75256
0
LINE
8
BLACK
6
CONTINUOUS
10
4.59606
20
-0.747835
11
4.59606
21
-1.75256
0
LINE
8
BLACK
6
CONTINUOUS
10
4.49803
20
-1.75492
11
4.90276
21
-1.75492
0
LINE
8
BLACK
6
CONTINUOUS
10
4.49803
20
-0.745472
11
4.49803
21
-1.75492
0
LINE
8
BLACK
6
CONTINUOUS
10
0.875591
20
-3.83661
11
0.875591
21
-3.87598
0
LINE
8
BLACK
6
CONTINUOUS
10
0.875591
20
-3.3248
11
0.875591
21
-3.36417
0
LINE
8
BLACK
6
CONTINUOUS
10
0.875591
20
-3.3248
11
0.83622
21
-3.3248
0
LINE
8
BLACK
6
CONTINUOUS
10
0.83622
20
-3.87598
11
0.875591
21
-3.87598
0
LINE
8
BLACK
6
CONTINUOUS
10
0.36378
20
-3.3248
11
0.324409
21
-3.3248
0
LINE
8
BLACK
6
CONTINUOUS
10
0.324409
20
-3.87598
11
0.36378
21
-3.87598
0
LINE
8
BLACK
6
CONTINUOUS
10
0.324409
20
-3.87598
11
0.324409
21
-3.83661
0
LINE
8
BLACK
6
CONTINUOUS
10
0.324409
20
-3.36417
11
0.324409
21
-3.3248
0
LINE
8
BLACK
6
CONTINUOUS
10
1.34705
20
-2.95236
11
1.34705
21
-2.9
0
LINE
8
BLACK
6
CONTINUOUS
10
1.39941
20
-2.95236
11
1.34705
21
-2.95236
0
LINE
8
BLACK
6
CONTINUOUS
10
1.44941
20
-2.95236
11
2.15177
21
-2.95236
0
LINE
8
BLACK
6
CONTINUOUS
10
1.44941
20
-2.95236
11
1.44941
21
-2.84764
0
LINE
8
BLACK
6
CONTINUOUS
10
2.15177
20
-2.95236
11
2.15177
21
-2.84764
0
LINE
8
BLACK
6
CONTINUOUS
10
1.44941
20
-2.84764
11
2.15177
21
-2.84764
0
LINE
8
BLACK
6
CONTINUOUS
10
7.62441
20
-4.11417
11
7.62441
21
-4.0748
0
LINE
8
BLACK
6
CONTINUOUS
10
7.62441
20
-4.62598
11
7.62441
21
-4.58661
0
LINE
8
BLACK
6
CONTINUOUS
10
7.62441
20
-4.62598
11
7.66378
21
-4.62598
0
LINE
8
BLACK
6
CONTINUOUS
10
7.66378
20
-4.0748
11
7.62441
21
-4.0748
0
LINE
8
BLACK
6
CONTINUOUS
10
8.13622
20
-4.62598
11
8.17559
21
-4.62598
0
LINE
8
BLACK
6
CONTINUOUS
10
8.17559
20
-4.0748
11
8.13622
21
-4.0748
0
LINE
8
BLACK
6
CONTINUOUS
10
8.17559
20
-4.0748
11
8.17559
21
-4.11417
0
LINE
8
BLACK
6
CONTINUOUS
10
8.17559
20
-4.58661
11
8.17559
21
-4.62598
0
LINE
8
BLACK
6
CONTINUOUS
10
9.54764
20
-0.902362
11
9.54764
21
-0.85
0
LINE
8
BLACK
6
CONTINUOUS
10
9.6
20
-0.902362
11
9.54764
21
-0.902362
0
LINE
8
BLACK
6
CONTINUOUS
10
9.65
20
-0.902362
11
9.75236
21
-0.902362
0
LINE
8
BLACK
6
CONTINUOUS
10
9.65
20
-0.902362
11
9.65
21
-0.797638
0
LINE
8
BLACK
6
CONTINUOUS
10
9.75236
20
-0.902362
11
9.75236
21
-0.797638
0
LINE
8
BLACK
6
CONTINUOUS
10
9.65
20
-0.797638
11
9.75236
21
-0.797638
0
LINE
8
BLACK
6
CONTINUOUS
10
6.87441
20
-5.61417
11
6.87441
21
-5.5748
0
LINE
8
BLACK
6
CONTINUOUS
10
6.87441
20
-6.12598
11
6.87441
21
-6.08661
0
LINE
8
BLACK
6
CONTINUOUS
10
6.87441
20
-6.12598
11
6.91378
21
-6.12598
0
LINE
8
BLACK
6
CONTINUOUS
10
6.91378
20
-5.5748
11
6.87441
21
-5.5748
0
LINE
8
BLACK
6
CONTINUOUS
10
7.38622
20
-6.12598
11
7.42559
21
-6.12598
0
LINE
8
BLACK
6
CONTINUOUS
10
7.42559
20
-5.5748
11
7.38622
21
-5.5748
0
LINE
8
BLACK
6
CONTINUOUS
10
7.42559
20
-5.5748
11
7.42559
21
-5.61417
0
LINE
8
BLACK
6
CONTINUOUS
10
7.42559
20
-6.08661
11
7.42559
21
-6.12598
0
LINE
8
BLACK
6
CONTINUOUS
10
6.89803
20
-0.795669
11
6.89803
21
-1.20512
0
LINE
8
BLACK
6
CONTINUOUS
10
6.89803
20
-1.20512
11
7.30276
21
-1.20512
0
LINE
8
BLACK
6
CONTINUOUS
10
6.99606
20
-0.798031
11
6.99606
21
-1.20276
0
LINE
8
BLACK
6
CONTINUOUS
10
6.99606
20
-1.20276
11
7.20472
21
-1.20276
0
LINE
8
BLACK
6
CONTINUOUS
10
7.06102
20
-0.798031
11
6.99606
21
-0.798031
0
LINE
8
BLACK
6
CONTINUOUS
10
7.20472
20
-0.798031
11
7.13976
21
-0.798031
0
LINE
8
BLACK
6
CONTINUOUS
10
7.20472
20
-1.20276
11
7.20472
21
-0.798031
0
LINE
8
BLACK
6
CONTINUOUS
10
7.30276
20
-0.795669
11
6.89803
21
-0.795669
0
LINE
8
BLACK
6
CONTINUOUS
10
7.30276
20
-1.20512
11
7.30276
21
-0.795669
0
ARC
8
BLACK
10
7.10039
20
-0.798031
40
0.0393701
50
-180
51
-0
0
LINE
8
BLACK
6
CONTINUOUS
10
5.37441
20
-4.11417
11
5.37441
21
-4.0748
0
LINE
8
BLACK
6
CONTINUOUS
10
5.37441
20
-4.62598
11
5.37441
21
-4.58661
0
LINE
8
BLACK
6
CONTINUOUS
10
5.37441
20
-4.62598
11
5.41378
21
-4.62598
0
LINE
8
BLACK
6
CONTINUOUS
10
5.41378
20
-4.0748
11
5.37441
21
-4.0748
0
LINE
8
BLACK
6
CONTINUOUS
10
5.88622
20
-4.62598
11
5.92559
21
-4.62598
0
LINE
8
BLACK
6
CONTINUOUS
10
5.92559
20
-4.0748
11
5.88622
21
-4.0748
0
LINE
8
BLACK
6
CONTINUOUS
10
5.92559
20
-4.0748
11
5.92559
21
-4.11417
0
LINE
8
BLACK
6
CONTINUOUS
10
5.92559
20
-4.58661
11
5.92559
21
-4.62598
0
LINE
8
BLACK
6
CONTINUOUS
10
7.71378
20
-1.25984
11
7.71378
21
-0.846457
0
LINE
8
BLACK
6
CONTINUOUS
10
7.78622
20
-1.25984
11
7.78622
21
-0.846457
0
ARC
8
BLACK
10
4.69961
20
-2.14783
40
0.0393701
50
-180
51
-0
0
LINE
8
BLACK
6
CONTINUOUS
10
4.90197
20
-2.95492
11
4.90197
21
-2.14547
0
LINE
8
BLACK
6
CONTINUOUS
10
4.90197
20
-2.14547
11
4.49724
21
-2.14547
0
LINE
8
BLACK
6
CONTINUOUS
10
4.80394
20
-2.95256
11
4.80394
21
-2.14783
0
LINE
8
BLACK
6
CONTINUOUS
10
4.80394
20
-2.14783
11
4.73898
21
-2.14783
0
LINE
8
BLACK
6
CONTINUOUS
10
4.66024
20
-2.14783
11
4.59528
21
-2.14783
0
LINE
8
BLACK
6
CONTINUOUS
10
4.59528
20
-2.95256
11
4.80394
21
-2.95256
0
LINE
8
BLACK
6
CONTINUOUS
10
4.59528
20
-2.14783
11
4.59528
21
-2.95256
0
LINE
8
BLACK
6
CONTINUOUS
10
4.49724
20
-2.95492
11
4.90197
21
-2.95492
0
LINE
8
BLACK
6
CONTINUOUS
10
4.49724
20
-2.14547
11
4.49724
21
-2.95492
0
LINE
8
BLACK
6
CONTINUOUS
10
6.14764
20
-0.202362
11
6.14764
21
-0.15
0
LINE
8
BLACK
6
CONTINUOUS
10
6.2
20
-0.202362
11
6.14764
21
-0.202362
0
LINE
8
BLACK
6
CONTINUOUS
10
6.25
20
-0.202362
11
6.55236
21
-0.202362
0
LINE
8
BLACK
6
CONTINUOUS
10
6.25
20
-0.202362
11
6.25
21
-0.0976378
0
LINE
8
BLACK
6
CONTINUOUS
10
6.55236
20
-0.202362
11
6.55236
21
-0.0976378
0
LINE
8
BLACK
6
CONTINUOUS
10
6.25
20
-0.0976378
11
6.55236
21
-0.0976378
0
LINE
8
BLACK
6
CONTINUOUS
10
3.32441
20
-3.36417
11
3.32441
21
-3.3248
0
LINE
8
BLACK
6
CONTINUOUS
10
3.32441
20
-3.87598
11
3.32441
21
-3.83661
0
LINE
8
BLACK
6
CONTINUOUS
10
3.32441
20
-3.87598
11
3.36378
21
-3.87598
0
LINE
8
BLACK
6
CONTINUOUS
10
3.36378
20
-3.3248
11
3.32441
21
-3.3248
0
LINE
8
BLACK
6
CONTINUOUS
10
3.83622
20
-3.87598
11
3.87559
21
-3.87598
0
LINE
8
BLACK
6
CONTINUOUS
10
3.87559
20
-3.3248
11
3.83622
21
-3.3248
0
LINE
8
BLACK
6
CONTINUOUS
10
3.87559
20
-3.3248
11
3.87559
21
-3.36417
0
LINE
8
BLACK
6
CONTINUOUS
10
3.87559
20
-3.83661
11
3.87559
21
-3.87598
0
LINE
8
BLACK
6
CONTINUOUS
10
4.73622
20
-0.93937
11
4.73622
21
-1.35276
0
LINE
8
BLACK
6
CONTINUOUS
10
4.66378
20
-0.93937
11
4.66378
21
-1.35276
0
LINE
8
BLACK
6
CONTINUOUS
10
9.54764
20
-1.15236
11
9.54764
21
-1.1
0
LINE
8
BLACK
6
CONTINUOUS
10
9.6
20
-1.15236
11
9.54764
21
-1.15236
0
LINE
8
BLACK
6
CONTINUOUS
10
9.65
20
-1.15236
11
9.75236
21
-1.15236
0
LINE
8
BLACK
6
CONTINUOUS
10
9.65
20
-1.15236
11
9.65
21
-1.04764
0
LINE
8
BLACK
6
CONTINUOUS
10
9.75236
20
-1.15236
11
9.75236
21
-1.04764
0
LINE
8
BLACK
6
CONTINUOUS
10
9.65
20
-1.04764
11
9.75236
21
-1.04764
0
LINE
8
BLACK
6
CONTINUOUS
10
0.490157
20
-0.285827
11
0.903543
21
-0.285827
0
LINE
8
BLACK
6
CONTINUOUS
10
0.490157
20
-0.213386
11
0.903543
21
-0.213386
0
LINE
8
BLACK
6
CONTINUOUS
10
1.82441
20
-4.11417
11
1.82441
21
-4.0748
0
LINE
8
BLACK
6
CONTINUOUS
10
1.82441
20
-4.62598
11
1.82441
21
-4.58661
0
LINE
8
BLACK
6
CONTINUOUS
10
1.82441
20
-4.62598
11
1.86378
21
-4.62598
0
LINE
8
BLACK
6
CONTINUOUS
10
1.86378
20
-4.0748
11
1.82441
21
-4.0748
0
LINE
8
BLACK
6
CONTINUOUS
10
2.33622
20
-4.62598
11
2.37559
21
-4.62598
0
LINE
8
BLACK
6
CONTINUOUS
10
2.37559
20
-4.0748
11
2.33622
21
-4.0748
0
LINE
8
BLACK
6
CONTINUOUS
10
2.37559
20
-4.0748
11
2.37559
21
-4.11417
0
LINE
8
BLACK
6
CONTINUOUS
10
2.37559
20
-4.58661
11
2.37559
21
-4.62598
0
LINE
8
BLACK
6
CONTINUOUS
10
1.82441
20
-5.61417
11
1.82441
21
-5.5748
0
LINE
8
BLACK
6
CONTINUOUS
10
1.82441
20
-6.12598
11
1.82441
21
-6.08661
0
LINE
8
BLACK
6
CONTINUOUS
10
1.82441
20
-6.12598
11
1.86378
21
-6.12598
0
LINE
8
BLACK
6
CONTINUOUS
10
1.86378
20
-5.5748
11
1.82441
21
-5.5748
0
LINE
8
BLACK
6
CONTINUOUS
10
2.33622
20
-6.12598
11
2.37559
21
-6.12598
0
LINE
8
BLACK
6
CONTINUOUS
10
2.37559
20
-5.5748
11
2.33622
21
-5.5748
0
LINE
8
BLACK
6
CONTINUOUS
10
2.37559
20
-5.5748
11
2.37559
21
-5.61417
0
LINE
8
BLACK
6
CONTINUOUS
10
2.37559
20
-6.08661
11
2.37559
21
-6.12598
0
LINE
8
BLACK
6
CONTINUOUS
10
5.13622
20
-5.35039
11
5.16063
21
-5.35039
0
CIRCLE
8
BLACK
10
5.1
20
-5.35039
40
0.0362205
0
LINE
8
BLACK
6
CONTINUOUS
10
4.19961
20
-0.0576772
11
4
21
-0.0576772
0
LINE
8
BLACK
6
CONTINUOUS
10
4.19961
20
-0.0576772
11
4.19961
21
-0.442323
0
LINE
8
BLACK
6
CONTINUOUS
10
4
20
-0.0576772
11
4
21
-0.442323
0
LINE
8
BLACK
6
CONTINUOUS
10
4.19961
20
-0.442323
11
4
21
-0.442323
0
LINE
8
BLACK
6
CONTINUOUS
10
5.34764
20
-3.05236
11
5.34764
21
-3
0
LINE
8
BLACK
6
CONTINUOUS
10
5.4
20
-3.05236
11
5.34764
21
-3.05236
0
LINE
8
BLACK
6
CONTINUOUS
10
5.45
20
-3.05236
11
5.75236
21
-3.05236
0
LINE
8
BLACK
6
CONTINUOUS
10
5.45
20
-3.05236
11
5.45
21
-2.94764
0
LINE
8
BLACK
6
CONTINUOUS
10
5.75236
20
-3.05236
11
5.75236
21
-2.94764
0
LINE
8
BLACK
6
CONTINUOUS
10
5.45
20
-2.94764
11
5.75236
21
-2.94764
0
LINE
8
BLACK
6
CONTINUOUS
10
9.67559
20
-5.33661
11
9.67559
21
-5.37598
0
LINE
8
BLACK
6
CONTINUOUS
10
9.67559
20
-4.8248
11
9.67559
21
-4.86417
0
LINE
8
BLACK
6
CONTINUOUS
10
9.67559
20
-4.8248
11
9.63622
21
-4.8248
0
LINE
8
BLACK
6
CONTINUOUS
10
9.63622
20
-5.37598
11
9.67559
21
-5.37598
0
LINE
8
BLACK
6
CONTINUOUS
10
9.16378
20
-4.8248
11
9.12441
21
-4.8248
0
LINE
8
BLACK
6
CONTINUOUS
10
9.12441
20
-5.37598
11
9.16378
21
-5.37598
0
LINE
8
BLACK
6
CONTINUOUS
10
9.12441
20
-5.37598
11
9.12441
21
-5.33661
0
LINE
8
BLACK
6
CONTINUOUS
10
9.12441
20
-4.86417
11
9.12441
21
-4.8248
0
LINE
8
BLACK
6
CONTINUOUS
10
7.16299
20
-0.4
11
7.12559
21
-0.4
0
LINE
8
BLACK
6
CONTINUOUS
10
7.12559
20
-0.43622
11
7.12559
21
-0.36378
0
LINE
8
BLACK
6
CONTINUOUS
10
7.12559
20
-0.36378
11
6.97441
21
-0.36378
0
LINE
8
BLACK
6
CONTINUOUS
10
6.97441
20
-0.43622
11
7.12559
21
-0.43622
0
LINE
8
BLACK
6
CONTINUOUS
10
6.97441
20
-0.36378
11
6.97441
21
-0.43622
0
LINE
8
BLACK
6
CONTINUOUS
10
6.93701
20
-0.4
11
6.97441
21
-0.4
0
LINE
8
BLACK
6
CONTINUOUS
10
6.65118
20
-0.903543
11
6.65118
21
-1.1752
0
LINE
8
BLACK
6
CONTINUOUS
10
6.65118
20
-1.1752
11
6.74803
21
-1.1752
0
LINE
8
BLACK
6
CONTINUOUS
10
6.6622
20
-0.86811
11
6.6622
21
-0.860236
0
LINE
8
BLACK
6
CONTINUOUS
10
6.68583
20
-0.903543
11
6.6622
21
-0.86811
0
LINE
8
BLACK
6
CONTINUOUS
10
6.71339
20
-0.903543
11
6.73701
21
-0.86811
0
LINE
8
BLACK
6
CONTINUOUS
10
6.73701
20
-0.86811
11
6.73701
21
-0.860236
0
LINE
8
BLACK
6
CONTINUOUS
10
6.74803
20
-0.903543
11
6.65118
21
-0.903543
0
LINE
8
BLACK
6
CONTINUOUS
10
6.74803
20
-1.1752
11
6.74803
21
-0.903543
0
ARC
8
BLACK
10
7.55236
20
-2.7
40
0.0393701
50
-270
51
-90
0
LINE
8
BLACK
6
CONTINUOUS
10
6.14528
20
-3.05236
11
7.55472
21
-3.05236
0
LINE
8
BLACK
6
CONTINUOUS
10
7.55472
20
-3.05236
11
7.55472
21
-2.34764
0
LINE
8
BLACK
6
CONTINUOUS
10
6.14764
20
-2.95433
11
7.55236
21
-2.95433
0
LINE
8
BLACK
6
CONTINUOUS
10
7.55236
20
-2.95433
11
7.55236
21
-2.73937
0
LINE
8
BLACK
6
CONTINUOUS
10
7.55236
20
-2.66063
11
7.55236
21
-2.44567
0
LINE
8
BLACK
6
CONTINUOUS
10
6.14764
20
-2.44567
11
6.14764
21
-2.95433
0
LINE
8
BLACK
6
CONTINUOUS
10
7.55236
20
-2.44567
11
6.14764
21
-2.44567
0
LINE
8
BLACK
6
CONTINUOUS
10
6.14528
20
-2.34764
11
6.14528
21
-3.05236
0
LINE
8
BLACK
6
CONTINUOUS
10
7.55472
20
-2.34764
11
6.14528
21
-2.34764
0
LINE
8
BLACK
6
CONTINUOUS
10
7.1685
20
-1.58858
11
7.1685
21
-1.8252
0
LINE
8
BLACK
6
CONTINUOUS
10
6.9
20
-1.67717
11
6.9
21
-1.8252
0
LINE
8
BLACK
6
CONTINUOUS
10
7.1685
20
-1.8252
11
7.1189
21
-1.8252
0
LINE
8
BLACK
6
CONTINUOUS
10
6.9
20
-1.8252
11
6.94961
21
-1.8252
0
LINE
8
BLACK
6
CONTINUOUS
10
1.34331
20
-2.54488
11
1.34331
21
-2.65512
0
LINE
8
BLACK
6
CONTINUOUS
10
1.34331
20
-2.65512
11
1.95669
21
-2.65512
0
LINE
8
BLACK
6
CONTINUOUS
10
1.45
20
-2.54488
11
1.45
21
-2.65512
0
LINE
8
BLACK
6
CONTINUOUS
10
1.95669
20
-2.54488
11
1.34331
21
-2.54488
0
LINE
8
BLACK
6
CONTINUOUS
10
1.95669
20
-2.65512
11
1.95669
21
-2.54488
0
LINE
8
BLACK
6
CONTINUOUS
10
4.78543
20
-5.5563
11
4.78543
21
-5.55886
0
LINE
8
BLACK
6
CONTINUOUS
10
4.78543
20
-5.5563
11
4.91299
21
-5.5563
0
LINE
8
BLACK
6
CONTINUOUS
10
4.78543
20
-5.64193
11
4.78543
21
-5.64449
0
LINE
8
BLACK
6
CONTINUOUS
10
4.78543
20
-5.64449
11
4.91299
21
-5.64449
0
LINE
8
BLACK
6
CONTINUOUS
10
4.91299
20
-5.5563
11
4.91299
21
-5.55886
0
LINE
8
BLACK
6
CONTINUOUS
10
4.91299
20
-5.64193
11
4.91299
21
-5.64449
0
LINE
8
BLACK
6
CONTINUOUS
10
9.73543
20
-0.355906
11
9.73543
21
-0.358465
0
LINE
8
BLACK
6
CONTINUOUS
10
9.73543
20
-0.355906
11
9.86299
21
-0.355906
0
LINE
8
BLACK
6
CONTINUOUS
10
9.73543
20
-0.441535
11
9.73543
21
-0.444094
0
LINE
8
BLACK
6
CONTINUOUS
10
9.73543
20
-0.444094
11
9.86299
21
-0.444094
0
LINE
8
BLACK
6
CONTINUOUS
10
9.86299
20
-0.355906
11
9.86299
21
-0.358465
0
LINE
8
BLACK
6
CONTINUOUS
10
9.86299
20
-0.441535
11
9.86299
21
-0.444094
0
LINE
8
BLACK
6
CONTINUOUS
10
9.67559
20
-3.83661
11
9.67559
21
-3.87598
0
LINE
8
BLACK
6
CONTINUOUS
10
9.67559
20
-3.3248
11
9.67559
21
-3.36417
0
LINE
8
BLACK
6
CONTINUOUS
10
9.67559
20
-3.3248
11
9.63622
21
-3.3248
0
LINE
8
BLACK
6
CONTINUOUS
10
9.63622
20
-3.87598
11
9.67559
21
-3.87598
0
LINE
8
BLACK
6
CONTINUOUS
10
9.16378
20
-3.3248
11
9.12441
21
-3.3248
0
LINE
8
BLACK
6
CONTINUOUS
10
9.12441
20
-3.87598
11
9.16378
21
-3.87598
0
LINE
8
BLACK
6
CONTINUOUS
10
9.12441
20
-3.87598
11
9.12441
21
-3.83661
0
LINE
8
BLACK
6
CONTINUOUS
10
9.12441
20
-3.36417
11
9.12441
21
-3.3248
0
LINE
8
BLACK
6
CONTINUOUS
10
4.13622
20
-0.93937
11
4.13622
21
-1.35276
0
LINE
8
BLACK
6
CONTINUOUS
10
4.06378
20
-0.93937
11
4.06378
21
-1.35276
0
LINE
8
BLACK
6
CONTINUOUS
10
0.875591
20
-4.58661
11
0.875591
21
-4.62598
0
LINE
8
BLACK
6
CONTINUOUS
10
0.875591
20
-4.0748
11
0.875591
21
-4.11417
0
LINE
8
BLACK
6
CONTINUOUS
10
0.875591
20
-4.0748
11
0.83622
21
-4.0748
0
LINE
8
BLACK
6
CONTINUOUS
10
0.83622
20
-4.62598
11
0.875591
21
-4.62598
0
LINE
8
BLACK
6
CONTINUOUS
10
0.36378
20
-4.0748
11
0.324409
21
-4.0748
0
LINE
8
BLACK
6
CONTINUOUS
10
0.324409
20
-4.62598
11
0.36378
21
-4.62598
0
LINE
8
BLACK
6
CONTINUOUS
10
0.324409
20
-4.62598
11
0.324409
21
-4.58661
0
LINE
8
BLACK
6
CONTINUOUS
10
0.324409
20
-4.11417
11
0.324409
21
-4.0748
0
LINE
8
BLACK
6
CONTINUOUS
10
0.875591
20
-6.08661
11
0.875591
21
-6.12598
0
LINE
8
BLACK
6
CONTINUOUS
10
0.875591
20
-5.5748
11
0.875591
21
-5.61417
0
LINE
8
BLACK
6
CONTINUOUS
10
0.875591
20
-5.5748
11
0.83622
21
-5.5748
0
LINE
8
BLACK
6
CONTINUOUS
10
0.83622
20
-6.12598
11
0.875591
21
-6.12598
0
LINE
8
BLACK
6
CONTINUOUS
10
0.36378
20
-5.5748
11
0.324409
21
-5.5748
0
LINE
8
BLACK
6
CONTINUOUS
10
0.324409
20
-6.12598
11
0.36378
21
-6.12598
0
LINE
8
BLACK
6
CONTINUOUS
10
0.324409
20
-6.12598
11
0.324409
21
-6.08661
0
LINE
8
BLACK
6
CONTINUOUS
10
0.324409
20
-5.61417
11
0.324409
21
-5.5748
0
LINE
8
BLACK
6
CONTINUOUS
10
2.56358
20
-1.41063
11
2.56358
21
-0.997244
0
LINE
8
BLACK
6
CONTINUOUS
10
2.63602
20
-1.41063
11
2.63602
21
-0.997244
0
LINE
8
BLACK
6
CONTINUOUS
10
8.64764
20
-0.902362
11
8.64764
21
-0.85
0
LINE
8
BLACK
6
CONTINUOUS
10
8.7
20
-0.902362
11
8.64764
21
-0.902362
0
LINE
8
BLACK
6
CONTINUOUS
10
8.75
20
-0.902362
11
8.85236
21
-0.902362
0
LINE
8
BLACK
6
CONTINUOUS
10
8.75
20
-0.902362
11
8.75
21
-0.797638
0
LINE
8
BLACK
6
CONTINUOUS
10
8.85236
20
-0.902362
11
8.85236
21
-0.797638
0
LINE
8
BLACK
6
CONTINUOUS
10
8.75
20
-0.797638
11
8.85236
21
-0.797638
0
LINE
8
BLACK
6
CONTINUOUS
10
6.12441
20
-4.11417
11
6.12441
21
-4.0748
0
LINE
8
BLACK
6
CONTINUOUS
10
6.12441
20
-4.62598
11
6.12441
21
-4.58661
0
LINE
8
BLACK
6
CONTINUOUS
10
6.12441
20
-4.62598
11
6.16378
21
-4.62598
0
LINE
8
BLACK
6
CONTINUOUS
10
6.16378
20
-4.0748
11
6.12441
21
-4.0748
0
LINE
8
BLACK
6
CONTINUOUS
10
6.63622
20
-4.62598
11
6.67559
21
-4.62598
0
LINE
8
BLACK
6
CONTINUOUS
10
6.67559
20
-4.0748
11
6.63622
21
-4.0748
0
LINE
8
BLACK
6
CONTINUOUS
10
6.67559
20
-4.0748
11
6.67559
21
-4.11417
0
LINE
8
BLACK
6
CONTINUOUS
10
6.67559
20
-4.58661
11
6.67559
21
-4.62598
  0
ENDSEC
  0
EOF
