%TF.GenerationSoftware,Novarm,DipTrace,4.3.0.4*%
%TF.CreationDate,2023-02-28T02:37:25+01:00*%
%FSLAX26Y26*%
%MOIN*%
%TF.FileFunction,Soldermask,Bot*%
%TF.Part,Single*%
%ADD17R,0.062992X0.062992*%
%ADD19R,0.066929X0.066929*%
%ADD20C,0.066929*%
%ADD22C,0.062992*%
%ADD24C,0.059055*%
%ADD40R,0.070866X0.070866*%
%ADD54C,0.074803*%
%ADD55C,0.066929*%
%ADD56R,0.074803X0.074803*%
%ADD57C,0.057402*%
%ADD59R,0.057402X0.057402*%
%ADD61O,0.082677X0.169291*%
%ADD63O,0.169291X0.082677*%
%ADD65R,0.185039X0.082677*%
%ADD67O,0.082677X0.06063*%
%ADD69R,0.082677X0.06063*%
%ADD71C,0.059055*%
%ADD74C,0.06063*%
%ADD76C,0.200787*%
%ADD78C,0.11811*%
%ADD81C,0.082677*%
%ADD82C,0.070866*%
G75*
G01*
%LPD*%
D19*
X1100000Y3150000D3*
D20*
Y3050000D3*
Y2950000D3*
Y2850000D3*
Y2750000D3*
Y2650000D3*
Y2550000D3*
Y2450000D3*
Y2350000D3*
Y2250000D3*
Y2150000D3*
Y2050000D3*
Y1950000D3*
Y1850000D3*
Y1750000D3*
Y1650000D3*
X1700000D3*
Y1750000D3*
Y1850000D3*
Y1950000D3*
Y2050000D3*
Y2150000D3*
Y2250000D3*
Y2350000D3*
Y2450000D3*
Y2550000D3*
Y2650000D3*
Y2750000D3*
Y2850000D3*
Y2950000D3*
Y3050000D3*
Y3150000D3*
D19*
X3250197Y1250197D3*
D20*
Y1350197D3*
Y1450197D3*
Y1550197D3*
Y1650197D3*
Y1750197D3*
Y1850197D3*
Y1950197D3*
Y2050197D3*
Y2150197D3*
Y2250197D3*
Y2350197D3*
Y2450197D3*
Y2550197D3*
Y2650197D3*
Y2750197D3*
Y2850197D3*
Y2950197D3*
Y3050197D3*
Y3150197D3*
X2650197D3*
Y3050197D3*
Y2950197D3*
Y2850197D3*
Y2750197D3*
Y2650197D3*
Y2550197D3*
Y2450197D3*
Y2350197D3*
Y2250197D3*
Y2150197D3*
Y2050197D3*
Y1950197D3*
Y1850197D3*
Y1750197D3*
Y1650197D3*
Y1550197D3*
Y1450197D3*
Y1350197D3*
Y1250197D3*
D40*
X3700000Y1550591D3*
D82*
Y1650591D3*
Y1750591D3*
Y1850591D3*
Y1950591D3*
Y2050591D3*
Y2150591D3*
Y2250591D3*
D81*
X2761417Y402953D3*
Y147047D3*
X2938583D3*
Y402953D3*
D55*
X1150787Y675000D3*
X1249213D3*
D17*
X100000Y360827D3*
D22*
X200000D3*
X300000D3*
D55*
X1399213Y500000D3*
X1300787D3*
D78*
X150000Y150000D3*
D76*
D3*
D40*
X3750197Y950591D3*
D82*
X3650197D3*
X3750197Y1050591D3*
X3650197D3*
X3750197Y1150591D3*
X3650197D3*
D74*
X3050394Y3400197D3*
X2950394Y3300197D3*
X2850394Y3400197D3*
D19*
X1450000Y1400000D3*
D20*
Y1300000D3*
Y1200000D3*
Y1100000D3*
Y1000000D3*
Y900000D3*
Y800000D3*
X1750000D3*
Y900000D3*
Y1000000D3*
Y1100000D3*
Y1200000D3*
Y1300000D3*
Y1400000D3*
D19*
X2475197Y1250197D3*
D20*
Y1350197D3*
Y1450197D3*
Y1550197D3*
Y1650197D3*
Y1750197D3*
Y1850197D3*
Y1950197D3*
Y2050197D3*
Y2150197D3*
Y2250197D3*
Y2350197D3*
Y2450197D3*
Y2550197D3*
Y2650197D3*
Y2750197D3*
Y2850197D3*
Y2950197D3*
Y3050197D3*
Y3150197D3*
X1875197D3*
Y3050197D3*
Y2950197D3*
Y2850197D3*
Y2750197D3*
Y2650197D3*
Y2550197D3*
Y2450197D3*
Y2350197D3*
Y2250197D3*
Y2150197D3*
Y2050197D3*
Y1950197D3*
Y1850197D3*
Y1750197D3*
Y1650197D3*
Y1550197D3*
Y1450197D3*
Y1350197D3*
Y1250197D3*
D24*
X750000Y100000D3*
D71*
Y400000D3*
D55*
X1350787Y1525000D3*
X1449213D3*
D78*
X150000Y3350000D3*
D76*
D3*
D24*
X1925000Y475000D3*
D71*
Y175000D3*
D40*
X1075000Y3400000D3*
D82*
X1175000D3*
X1275000D3*
X1375000D3*
X1475000D3*
X1575000D3*
X1675000D3*
X1775000D3*
X1875000D3*
X1975000D3*
X2075000D3*
X2175000D3*
X2275000D3*
X2375000D3*
X2475000D3*
X2575000D3*
D69*
X175000Y2375000D3*
D67*
Y2275000D3*
Y2175000D3*
Y2075000D3*
Y1975000D3*
Y1875000D3*
Y1775000D3*
Y1675000D3*
Y1575000D3*
Y1475000D3*
Y1375000D3*
Y1275000D3*
Y1175000D3*
Y1075000D3*
X775000D3*
Y1175000D3*
Y1275000D3*
Y1375000D3*
Y1475000D3*
Y1575000D3*
Y1675000D3*
Y1775000D3*
Y1875000D3*
Y1975000D3*
Y2075000D3*
Y2175000D3*
Y2275000D3*
Y2375000D3*
D40*
X3500197Y2549803D3*
D82*
X3400197D3*
X3500197Y2649803D3*
X3400197D3*
X3500197Y2749803D3*
X3400197D3*
X3500197Y2849803D3*
X3400197D3*
X3500197Y2949803D3*
X3400197D3*
X3500197Y3049803D3*
X3400197D3*
X3500197Y3149803D3*
X3400197D3*
D40*
X3450000Y1550000D3*
D82*
Y1650000D3*
Y1750000D3*
Y1850000D3*
Y1950000D3*
Y2050000D3*
Y2150000D3*
Y2250000D3*
D19*
X2550000Y950000D3*
D55*
X1950000D3*
Y650000D3*
X2550000D3*
D40*
X2875000Y675591D3*
D82*
Y775591D3*
Y875591D3*
D81*
X2386417Y402953D3*
Y147047D3*
X2563583Y402953D3*
Y147047D3*
D40*
X3500000Y850000D3*
D82*
X3400000D3*
X3500000Y950000D3*
X3400000D3*
X3500000Y1050000D3*
X3400000D3*
X3500000Y1150000D3*
X3400000D3*
X3500000Y1250000D3*
X3400000D3*
D55*
X1649213Y675000D3*
X1550787D3*
D65*
X465000Y2925000D3*
D63*
Y3173031D3*
D61*
X276024Y3039173D3*
D59*
X893898Y2975000D3*
D57*
Y3075000D3*
Y3175000D3*
D24*
X1825000Y475000D3*
D71*
Y175000D3*
D24*
X650000Y100000D3*
D71*
Y400000D3*
D24*
X450000Y100000D3*
D71*
Y400000D3*
D55*
X900000Y3375000D3*
X801575D3*
D40*
X3750197Y2549803D3*
D82*
X3650197D3*
X3750197Y2649803D3*
X3650197D3*
X3750197Y2749803D3*
X3650197D3*
X3750197Y2849803D3*
X3650197D3*
X3750197Y2949803D3*
X3650197D3*
X3750197Y3049803D3*
X3650197D3*
X3750197Y3149803D3*
X3650197D3*
D55*
X550000Y725000D3*
X648425D3*
D19*
X1699409Y399606D3*
D20*
X1599409D3*
X1499409D3*
X1399409D3*
X1299409D3*
X1199409D3*
X1099409D3*
X999409D3*
Y99606D3*
X1099409D3*
X1199409D3*
X1299409D3*
X1399409D3*
X1499409D3*
X1599409D3*
X1699409D3*
D76*
X3700000Y150000D3*
D78*
D3*
D56*
X2099803Y175000D3*
D54*
X2199803D3*
D56*
X2099803Y400000D3*
D54*
X2199803D3*
D76*
X3700000Y3350000D3*
D78*
D3*
D17*
X100000Y610827D3*
D22*
X200000D3*
X300000D3*
D55*
X2900000Y1125000D3*
X2998425D3*
D24*
X550000Y100000D3*
D71*
Y400000D3*
D24*
X850000Y100000D3*
D71*
Y400000D3*
D55*
X2125984Y1125197D3*
X2224409D3*
X2725000Y750787D3*
Y849213D3*
D19*
X1025000Y1400000D3*
D20*
Y1300000D3*
Y1200000D3*
Y1100000D3*
Y1000000D3*
Y900000D3*
Y800000D3*
X1325000D3*
Y900000D3*
Y1000000D3*
Y1100000D3*
Y1200000D3*
Y1300000D3*
Y1400000D3*
M02*
