M48
INCH
T01C0.0191
T02C0.0276
T03C0.0315
T04C0.0335
T05C0.0354
T06C0.0394
T07C0.0433
T08C0.0984
%
T01
X+024213Y+016950
X+023836Y+018965
X+023141Y+019154
X+021564Y+020000
X+020104Y+020502
X+021564Y+021584
X+019759Y+022502
X+020672Y+023502
X+021839Y+024509
X+022232Y+025502
X+021232Y+026502
X+023836Y+025502
X+026936Y+025965
X+028054Y+024502
X+026965Y+023965
X+028401Y+022502
X+029135Y+023706
X+030420Y+021330
X+031889Y+021635
X+031889Y+019502
X+031298Y+018330
X+029528Y+019502
X+028749Y+020502
X+033660Y+023527
X+032965Y+024936
X+035156Y+024845
X+035504Y+024346
X+036226Y+024261
X+036744Y+024281
X+036744Y+023546
X+035967Y+020982
X+037482Y+019954
X+036314Y+018158
X+036662Y+013965
X+035850Y+005193
X+030775Y+002272
X+024867Y+005830
X+023291Y+003013
X+020021Y+003478
X+019326Y+003478
X+019982Y+006027
X+020497Y+006963
X+018037Y+007383
X+018270Y+010000
X+019447Y+010810
X+019100Y+011810
X+020497Y+012965
X+020998Y+009500
X+023141Y+009000
X+024139Y+012965
X+024318Y+013965
X+025365Y+012617
X+026039Y+014965
X+027929Y+010810
X+021260Y+016950
X+017659Y+015929
X+014098Y+016080
X+013111Y+015883
X+011211Y+015670
X+009243Y+018963
X+013111Y+019500
X+013459Y+020617
X+012416Y+021500
X+013459Y+022500
X+014098Y+023500
X+015170Y+025312
X+014654Y+028500
X+012763Y+027500
X+011981Y+029982
X+011633Y+030500
X+009393Y+029165
X+007189Y+026963
X+006644Y+025963
X+009393Y+024963
X+008895Y+023963
X+014445Y+019500
X+014445Y+018963
X+018007Y+019502
X+014974Y+010463
X+012416Y+009000
X+012492Y+007619
X+013008Y+007242
X+013992Y+006750
X+015457Y+005135
X+014457Y+002121
X+011119Y+008000
X+009617Y+007619
X+008500Y+009463
X+009617Y+011830
X+005982Y+008482
X+007500Y+006027
X+006500Y+002783
X+016387Y+030500
X+019385Y+030502
X+018750Y+032371
X+022232Y+031984
X+022580Y+032371
X+024139Y+030502
X+025244Y+031994
X+026498Y+032371
X+025989Y+030068
X+028749Y+028984
X+029181Y+030039
X+029181Y+027768
X+030617Y+025965
X+030563Y+033164
X+034002Y+033164
X+015170Y+033350
X+014268Y+032654
T02
X+007500Y+001000
X+006500Y+001000
X+005500Y+001000
X+004500Y+001000
X+004500Y+004000
X+005500Y+004000
X+006500Y+004000
X+007500Y+004000
X+008500Y+004000
X+008500Y+001000
X+018250Y+001750
X+019250Y+001750
X+019250Y+004750
X+018250Y+004750
T03
X+011000Y+031500
X+011000Y+030500
X+011000Y+029500
X+011000Y+028500
X+011000Y+027500
X+011000Y+026500
X+011000Y+025500
X+011000Y+024500
X+011000Y+023500
X+011000Y+022500
X+011000Y+021500
X+011000Y+020500
X+011000Y+019500
X+011000Y+018500
X+011000Y+017500
X+011000Y+016500
X+010250Y+014000
X+010250Y+013000
X+010250Y+012000
X+010250Y+011000
X+010250Y+010000
X+010250Y+009000
X+010250Y+008000
X+011508Y+006750
X+012492Y+006750
X+013250Y+008000
X+013250Y+009000
X+013250Y+010000
X+013250Y+011000
X+013250Y+012000
X+013250Y+013000
X+013250Y+014000
X+014500Y+014000
X+014500Y+013000
X+014500Y+012000
X+014500Y+011000
X+014500Y+010000
X+014500Y+009000
X+014500Y+008000
X+015508Y+006750
X+016492Y+006750
X+017500Y+008000
X+017500Y+009000
X+017500Y+010000
X+017500Y+011000
X+017500Y+012000
X+017500Y+013000
X+017500Y+014000
X+018752Y+013502
X+018752Y+014502
X+018752Y+015502
X+018752Y+016502
X+018752Y+017502
X+018752Y+018502
X+018752Y+019502
X+018752Y+020502
X+018752Y+021502
X+018752Y+022502
X+018752Y+023502
X+018752Y+024502
X+018752Y+025502
X+018752Y+026502
X+018752Y+027502
X+018752Y+028502
X+018752Y+029502
X+018752Y+030502
X+018752Y+031502
X+017000Y+031500
X+017000Y+030500
X+017000Y+029500
X+017000Y+028500
X+017000Y+027500
X+017000Y+026500
X+017000Y+025500
X+017000Y+024500
X+017000Y+023500
X+017000Y+022500
X+017000Y+021500
X+017000Y+020500
X+017000Y+019500
X+017000Y+018500
X+017000Y+017500
X+017000Y+016500
X+014492Y+015250
X+013508Y+015250
X+018752Y+012502
X+021260Y+011252
X+022244Y+011252
X+024752Y+012502
X+024752Y+013502
X+024752Y+014502
X+024752Y+015502
X+024752Y+016502
X+024752Y+017502
X+024752Y+018502
X+024752Y+019502
X+024752Y+020502
X+024752Y+021502
X+024752Y+022502
X+024752Y+023502
X+024752Y+024502
X+024752Y+025502
X+024752Y+026502
X+024752Y+027502
X+024752Y+028502
X+024752Y+029502
X+024752Y+030502
X+024752Y+031502
X+026502Y+031502
X+026502Y+030502
X+026502Y+029502
X+026502Y+028502
X+026502Y+027502
X+026502Y+026502
X+026502Y+025502
X+026502Y+024502
X+026502Y+023502
X+026502Y+022502
X+026502Y+021502
X+026502Y+020502
X+026502Y+019502
X+026502Y+018502
X+026502Y+017502
X+026502Y+016502
X+026502Y+015502
X+026502Y+014502
X+026502Y+013502
X+026502Y+012502
X+029000Y+011250
X+029984Y+011250
X+032502Y+012502
X+032502Y+013502
X+032502Y+014502
X+032502Y+015502
X+032502Y+016502
X+032502Y+017502
X+032502Y+018502
X+032502Y+019502
X+032502Y+020502
X+032502Y+021502
X+032502Y+022502
X+032502Y+023502
X+032502Y+024502
X+032502Y+025502
X+032502Y+026502
X+032502Y+027502
X+032502Y+028502
X+032502Y+029502
X+032502Y+030502
X+032502Y+031502
X+030504Y+034002
X+029504Y+033002
X+028504Y+034002
X+009000Y+033750
X+008016Y+033750
X+006484Y+007250
X+005500Y+007250
X+003000Y+006108
X+002000Y+006108
X+001000Y+006108
X+001000Y+003608
X+002000Y+003608
X+003000Y+003608
X+009994Y+003996
X+010994Y+003996
X+011994Y+003996
X+012994Y+003996
X+013994Y+003996
X+014994Y+003996
X+015994Y+003996
X+016994Y+003996
X+016994Y+000996
X+015994Y+000996
X+014994Y+000996
X+013994Y+000996
X+012994Y+000996
X+011994Y+000996
X+010994Y+000996
X+009994Y+000996
X+013008Y+005000
X+013992Y+005000
X+019500Y+006500
X+019500Y+009500
X+025500Y+009500
X+027250Y+008492
X+027250Y+007508
X+025500Y+006500
T04
X+008939Y+029750
X+008939Y+030750
X+008939Y+031750
T05
X+020998Y+001750
X+021998Y+001750
X+021998Y+004000
X+020998Y+004000
T06
X+037000Y+015506
X+037000Y+016506
X+037000Y+017506
X+037000Y+018506
X+037000Y+019506
X+037000Y+020506
X+037000Y+021506
X+037000Y+022506
X+034500Y+022500
X+034500Y+021500
X+034500Y+020500
X+034500Y+019500
X+034500Y+018500
X+034500Y+017500
X+034500Y+016500
X+034500Y+015500
X+035000Y+012500
X+035000Y+011500
X+035000Y+010500
X+035000Y+009500
X+035000Y+008500
X+034000Y+008500
X+034000Y+009500
X+034000Y+010500
X+034000Y+011500
X+034000Y+012500
X+036502Y+011506
X+037502Y+011506
X+037502Y+010506
X+036502Y+010506
X+036502Y+009506
X+037502Y+009506
X+028750Y+008756
X+028750Y+007756
X+028750Y+006756
X+034002Y+025498
X+034002Y+026498
X+035002Y+026498
X+035002Y+025498
X+036502Y+025498
X+036502Y+026498
X+037502Y+026498
X+037502Y+025498
X+037502Y+027498
X+037502Y+028498
X+037502Y+029498
X+036502Y+029498
X+036502Y+028498
X+036502Y+027498
X+035002Y+027498
X+035002Y+028498
X+035002Y+029498
X+034002Y+029498
X+034002Y+028498
X+034002Y+027498
X+034002Y+030498
X+034002Y+031498
X+035002Y+031498
X+035002Y+030498
X+036502Y+030498
X+036502Y+031498
X+037502Y+031498
X+037502Y+030498
X+025750Y+034000
X+024750Y+034000
X+023750Y+034000
X+022750Y+034000
X+021750Y+034000
X+020750Y+034000
X+019750Y+034000
X+018750Y+034000
X+017750Y+034000
X+016750Y+034000
X+015750Y+034000
X+014750Y+034000
X+013750Y+034000
X+012750Y+034000
X+011750Y+034000
X+010750Y+034000
X+001750Y+023750
X+001750Y+022750
X+001750Y+021750
X+001750Y+020750
X+001750Y+019750
X+001750Y+018750
X+001750Y+017750
X+001750Y+016750
X+001750Y+015750
X+001750Y+014750
X+001750Y+013750
X+001750Y+012750
X+001750Y+011750
X+001750Y+010750
X+007750Y+010750
X+007750Y+011750
X+007750Y+012750
X+007750Y+013750
X+007750Y+014750
X+007750Y+015750
X+007750Y+016750
X+007750Y+017750
X+007750Y+018750
X+007750Y+019750
X+007750Y+020750
X+007750Y+021750
X+007750Y+022750
X+007750Y+023750
T07
X+027614Y+004030
X+029386Y+004030
X+029386Y+001470
X+027614Y+001470
X+025636Y+001470
X+023864Y+001470
X+023864Y+004030
X+025636Y+004030
T08
X+001500Y+001500
X+001500Y+033500
X+037000Y+033500
X+037000Y+001500
T00
M30
