999
dxfrw 0.6.3
  0
SECTION
  2
HEADER
  9
$ACADVER
  1
AC1021
  9
$DWGCODEPAGE
  3
ANSI_1251
  9
$INSBASE
 10
0
 20
0
 30
0
  9
$EXTMIN
 10
-7.62
 20
-7.620000000000005
 30
0
  9
$EXTMAX
 10
261.62
 20
167.64
 30
0
  9
$LIMMIN
 10
0
 20
0
  9
$LIMMAX
 10
420
 20
297
  9
$ORTHOMODE
 70
    0
  9
$REGENMODE
 70
    1
  9
$FILLMODE
 70
    1
  9
$QTEXTMODE
 70
    0
  9
$MIRRTEXT
 70
    0
  9
$LTSCALE
 40
1
  9
$ATTMODE
 70
    0
  9
$TEXTSIZE
 40
2.5
  9
$TRACEWID
 40
15.68
  9
$TEXTSTYLE
  7
STANDARD
  9
$CLAYER
  8
0
  9
$CELTYPE
  6
BYLAYER
  9
$CECOLOR
 62
  256
  9
$CELTSCALE
 40
1
  9
$DISPSILH
 70
    0
  9
$DIMSCALE
 40
1
  9
$DIMASZ
 40
2.5
  9
$DIMEXO
 40
0.625
  9
$DIMDLI
 40
3.75
  9
$DIMRND
 40
0
  9
$DIMDLE
 40
0
  9
$DIMEXE
 40
1.25
  9
$DIMTP
 40
0
  9
$DIMTM
 40
0
  9
$DIMTXT
 40
2.5
  9
$DIMCEN
 40
2.5
  9
$DIMTSZ
 40
0
  9
$DIMTOL
 70
    0
  9
$DIMLIM
 70
    0
  9
$DIMTIH
 70
    0
  9
$DIMTOH
 70
    0
  9
$DIMSE1
 70
    0
  9
$DIMSE2
 70
    0
  9
$DIMTAD
 70
    1
  9
$DIMZIN
 70
    1
  9
$DIMBLK
  1

  9
$DIMASO
 70
    1
  9
$DIMSHO
 70
    1
  9
$DIMPOST
  1

  9
$DIMAPOST
  1

  9
$DIMALT
 70
    0
  9
$DIMALTD
 70
    3
  9
$DIMALTF
 40
0.03937
  9
$DIMLFAC
 40
1
  9
$DIMTOFL
 70
    1
  9
$DIMTVP
 40
0
  9
$DIMTIX
 70
    0
  9
$DIMSOXD
 70
    0
  9
$DIMSAH
 70
    0
  9
$DIMBLK1
  1

  9
$DIMBLK2
  1

  9
$DIMSTYLE
  2
STANDARD
  9
$DIMCLRD
 70
    0
  9
$DIMCLRE
 70
    0
  9
$DIMCLRT
 70
    0
  9
$DIMTFAC
 40
1
  9
$DIMGAP
 40
0.625
  9
$DIMJUST
 70
    0
  9
$DIMSD1
 70
    0
  9
$DIMSD2
 70
    0
  9
$DIMTOLJ
 70
    0
  9
$DIMTZIN
 70
    8
  9
$DIMALTZ
 70
    0
  9
$DIMALTTZ
 70
    0
  9
$DIMUPT
 70
    0
  9
$DIMDEC
 70
    4
  9
$DIMTDEC
 70
    2
  9
$DIMALTU
 70
    2
  9
$DIMALTTD
 70
    3
  9
$DIMTXSTY
  7
standard
  9
$DIMAUNIT
 70
    0
  9
$DIMADEC
 70
    2
  9
$DIMALTRND
 40
0
  9
$DIMAZIN
 70
    0
  9
$DIMDSEP
 70
    0
  9
$DIMATFIT
 70
    3
  9
$DIMFRAC
 70
    0
  9
$DIMLDRBLK
  1
STANDARD
  9
$DIMLUNIT
 70
    2
  9
$DIMLWD
 70
   -2
  9
$DIMLWE
 70
   -2
  9
$DIMTMOVE
 70
    0
  9
$DIMFXL
 40
1
  9
$DIMFXLON
 70
    0
  9
$DIMJOGANG
 40
0.7854
  9
$DIMTFILL
 70
    0
  9
$DIMTFILLCLR
 70
    0
  9
$DIMARCSYM
 70
    0
  9
$DIMLTYPE
  6

  9
$DIMLTEX1
  6

  9
$DIMLTEX2
  6

  9
$LUNITS
 70
    2
  9
$LUPREC
 70
    4
  9
$SKETCHINC
 40
1
  9
$FILLETRAD
 40
0
  9
$AUNITS
 70
    0
  9
$AUPREC
 70
    2
  9
$MENU
  1
.
  9
$ELEVATION
 40
0
  9
$PELEVATION
 40
0
  9
$THICKNESS
 40
0
  9
$LIMCHECK
 70
    0
  9
$CHAMFERA
 40
0
  9
$CHAMFERB
 40
0
  9
$CHAMFERC
 40
0
  9
$CHAMFERD
 40
0
  9
$SKPOLY
 70
    0
  9
$USRTIMER
 70
    1
  9
$ANGBASE
 50
0
  9
$ANGDIR
 70
    0
  9
$PDMODE
 70
   34
  9
$PDSIZE
 40
0
  9
$PLINEWID
 40
0
  9
$SPLFRAME
 70
    0
  9
$SPLINETYPE
 70
    2
  9
$SPLINESEGS
 70
    8
  9
$HANDSEED
  5
20000
  9
$SURFTAB1
 70
    6
  9
$SURFTAB2
 70
    6
  9
$SURFTYPE
 70
    6
  9
$SURFU
 70
    6
  9
$SURFV
 70
    6
  9
$UCSBASE
  2

  9
$UCSNAME
  2

  9
$UCSORG
 10
0
 20
0
 30
0
  9
$UCSXDIR
 10
1
 20
0
 30
0
  9
$UCSYDIR
 10
0
 20
1
 30
0
  9
$UCSORTHOREF
  2

  9
$UCSORTHOVIEW
 70
    0
  9
$UCSORGTOP
 10
0
 20
0
 30
0
  9
$UCSORGBOTTOM
 10
0
 20
0
 30
0
  9
$UCSORGLEFT
 10
0
 20
0
 30
0
  9
$UCSORGRIGHT
 10
0
 20
0
 30
0
  9
$UCSORGFRONT
 10
0
 20
0
 30
0
  9
$UCSORGBACK
 10
0
 20
0
 30
0
  9
$PUCSBASE
  2

  9
$PUCSNAME
  2

  9
$PUCSORG
 10
0
 20
0
 30
0
  9
$PUCSXDIR
 10
1
 20
0
 30
0
  9
$PUCSYDIR
 10
0
 20
1
 30
0
  9
$PUCSORTHOREF
  2

  9
$PUCSORTHOVIEW
 70
    0
  9
$PUCSORGTOP
 10
0
 20
0
 30
0
  9
$PUCSORGBOTTOM
 10
0
 20
0
 30
0
  9
$PUCSORGLEFT
 10
0
 20
0
 30
0
  9
$PUCSORGRIGHT
 10
0
 20
0
 30
0
  9
$PUCSORGFRONT
 10
0
 20
0
 30
0
  9
$PUCSORGBACK
 10
0
 20
0
 30
0
  9
$USERI1
 70
    0
  9
$USERI2
 70
    0
  9
$USERI3
 70
    0
  9
$USERI4
 70
    0
  9
$USERI5
 70
    0
  9
$USERR1
 40
0
  9
$USERR2
 40
0
  9
$USERR3
 40
0
  9
$USERR4
 40
0
  9
$USERR5
 40
0
  9
$WORLDVIEW
 70
    1
  9
$SHADEDGE
 70
    3
  9
$SHADEDIF
 70
   70
  9
$TILEMODE
 70
    1
  9
$MAXACTVP
 70
   64
  9
$PINSBASE
 10
0
 20
0
 30
0
  9
$PLIMCHECK
 70
    0
  9
$PEXTMIN
 10
0
 20
0
 30
0
  9
$PEXTMAX
 10
0
 20
0
 30
0
  9
$GRIDMODE
 70
    1
  9
$SNAPSTYLE
 70
    0
  9
$GRIDUNIT
 10
1.27
 20
1.27
  9
$PLIMMIN
 10
0
 20
0
  9
$PLIMMAX
 10
210
 20
297
  9
$UNITMODE
 70
    0
  9
$VISRETAIN
 70
    1
  9
$PLINEGEN
 70
    0
  9
$PSLTSCALE
 70
    1
  9
$TREEDEPTH
 70
 3020
  9
$CMLSTYLE
  2
Standard
  9
$CMLJUST
 70
    0
  9
$CMLSCALE
 40
20
  9
$PROXYGRAPHICS
 70
    1
  9
$MEASUREMENT
 70
    1
  9
$CELWEIGHT
370
   -1
  9
$ENDCAPS
280
    0
  9
$JOINSTYLE
280
    0
  9
$LWDISPLAY
290
    0
  9
$INSUNITS
 70
    4
  9
$HYPERLINKBASE
  1

  9
$STYLESHEET
  1

  9
$XEDIT
290
    1
  9
$CEPSNTYPE
380
    0
  9
$PSTYLEMODE
290
    1
  9
$EXTNAMES
290
    1
  9
$PSVPSCALE
 40
1
  9
$OLESTARTUP
290
    0
  9
$SORTENTS
280
  127
  9
$INDEXCTL
280
    0
  9
$HIDETEXT
280
    1
  9
$XCLIPFRAME
290
    0
  9
$HALOGAP
280
    0
  9
$OBSCOLOR
 70
  257
  9
$OBSLTYPE
280
    0
  9
$INTERSECTIONDISPLAY
280
    0
  9
$INTERSECTIONCOLOR
 70
  257
  9
$DIMASSOC
280
    1
  9
$PROJECTNAME
  1

  9
$CAMERADISPLAY
290
    0
  9
$LENSLENGTH
 40
50
  9
$CAMERAHEIGHT
 40
0
  9
$STEPSPERSEC
 40
2
  9
$STEPSIZE
 40
50
  9
$3DDWFPREC
 40
2
  9
$PSOLWIDTH
 40
5
  9
$PSOLHEIGHT
 40
80
  9
$LOFTANG1
 40
1.570796326794897
  9
$LOFTANG2
 40
1.570796326794897
  9
$LOFTMAG1
 40
0
  9
$LOFTMAG2
 40
0
  9
$LOFTPARAM
 70
    7
  9
$LOFTNORMALS
280
    1
  9
$LATITUDE
 40
1
  9
$LONGITUDE
 40
1
  9
$NORTHDIRECTION
 40
0
  9
$TIMEZONE
 70
-8000
  9
$LIGHTGLYPHDISPLAY
280
    1
  9
$TILEMODELIGHTSYNCH
280
    1
  9
$SOLIDHIST
280
    1
  9
$SHOWHIST
280
    1
  9
$DWFFRAME
280
    2
  9
$DGNFRAME
280
    0
  9
$REALWORLDSCALE
290
    1
  9
$INTERFERECOLOR
 62
    1
  9
$CSHADOW
280
    0
  9
$SHADOWPLANELOCATION
 40
0
  0
ENDSEC
  0
SECTION
  2
CLASSES
  0
ENDSEC
  0
SECTION
  2
TABLES
  0
TABLE
  2
VPORT
  5
8
330
0
100
AcDbSymbolTable
 70
    1
  0
VPORT
  5
31
330
2
100
AcDbSymbolTableRecord
100
AcDbViewportTableRecord
  2
*ACTIVE
 70
    0
 10
0
 20
0
 11
1
 21
1
 12
132.1611872146119
 22
86.79609132420092
 13
0
 23
0
 14
10
 24
10
 15
1.27
 25
1.27
 16
0
 26
0
 36
1
 17
0
 27
0
 37
0
 40
187.1156529680366
 41
1.465177398160315
 42
50
 43
0
 44
0
 50
0
 51
0
 71
    0
 72
  100
 73
    1
 74
    3
 75
    0
 76
    1
 77
    0
 78
    0
281
    0
 65
    1
110
0
120
0
130
0
111
1
121
0
131
0
112
0
122
1
132
0
 79
    0
146
0
348
10020
 60
    3
 61
    5
292
1
282
    1
141
0
142
0
 63
  250
421
3358443
  0
ENDTAB
  0
TABLE
  2
LTYPE
  5
5
330
0
100
AcDbSymbolTable
 70
    4
  0
LTYPE
  5
14
330
5
100
AcDbSymbolTableRecord
100
AcDbLinetypeTableRecord
  2
ByBlock
 70
    0
  3

 72
   65
 73
    0
 40
0
  0
LTYPE
  5
15
330
5
100
AcDbSymbolTableRecord
100
AcDbLinetypeTableRecord
  2
ByLayer
 70
    0
  3

 72
   65
 73
    0
 40
0
  0
LTYPE
  5
16
330
5
100
AcDbSymbolTableRecord
100
AcDbLinetypeTableRecord
  2
Continuous
 70
    0
  3
Solid line
 72
   65
 73
    0
 40
0
  0
LTYPE
  5
32
330
5
100
AcDbSymbolTableRecord
100
AcDbLinetypeTableRecord
  2
DOT
 70
    0
  3
Dot . . . . . . . . . . . . . . . . . . . . . .
 72
   65
 73
    2
 40
6.35
 49
0
 74
    0
 49
-6.35
 74
    0
  0
LTYPE
  5
33
330
5
100
AcDbSymbolTableRecord
100
AcDbLinetypeTableRecord
  2
DOTTINY
 70
    0
  3
Dot (.15x) .....................................
 72
   65
 73
    2
 40
0.9525
 49
0
 74
    0
 49
-0.9525
 74
    0
  0
LTYPE
  5
34
330
5
100
AcDbSymbolTableRecord
100
AcDbLinetypeTableRecord
  2
DOT2
 70
    0
  3
Dot (.5x) .....................................
 72
   65
 73
    2
 40
3.175
 49
0
 74
    0
 49
-3.175
 74
    0
  0
LTYPE
  5
35
330
5
100
AcDbSymbolTableRecord
100
AcDbLinetypeTableRecord
  2
DOTX2
 70
    0
  3
Dot (2x) .  .  .  .  .  .  .  .  .  .  .  .  .
 72
   65
 73
    2
 40
12.7
 49
0
 74
    0
 49
-12.7
 74
    0
  0
LTYPE
  5
36
330
5
100
AcDbSymbolTableRecord
100
AcDbLinetypeTableRecord
  2
DASHED
 70
    0
  3
Dashed _ _ _ _ _ _ _ _ _ _ _ _ _ _ _ _ _
 72
   65
 73
    2
 40
19.05
 49
12.7
 74
    0
 49
-6.35
 74
    0
  0
LTYPE
  5
37
330
5
100
AcDbSymbolTableRecord
100
AcDbLinetypeTableRecord
  2
DASHEDTINY
 70
    0
  3
Dashed (.15x) _ _ _ _ _ _ _ _ _ _ _ _ _ _ _ _ _
 72
   65
 73
    2
 40
2.8575
 49
1.905
 74
    0
 49
-0.9525
 74
    0
  0
LTYPE
  5
38
330
5
100
AcDbSymbolTableRecord
100
AcDbLinetypeTableRecord
  2
DASHED2
 70
    0
  3
Dashed (.5x) _ _ _ _ _ _ _ _ _ _ _ _ _ _ _ _ _
 72
   65
 73
    2
 40
9.524999999999999
 49
6.35
 74
    0
 49
-3.175
 74
    0
  0
LTYPE
  5
39
330
5
100
AcDbSymbolTableRecord
100
AcDbLinetypeTableRecord
  2
DASHEDX2
 70
    0
  3
Dashed (2x) ____  ____  ____  ____  ____  ___
 72
   65
 73
    2
 40
38.09999999999999
 49
25.4
 74
    0
 49
-12.7
 74
    0
  0
LTYPE
  5
3A
330
5
100
AcDbSymbolTableRecord
100
AcDbLinetypeTableRecord
  2
DASHDOT
 70
    0
  3
Dash dot __ . __ . __ . __ . __ . __ . __ . __
 72
   65
 73
    4
 40
25.4
 49
12.7
 74
    0
 49
-6.35
 74
    0
 49
0
 74
    0
 49
-6.35
 74
    0
  0
LTYPE
  5
3B
330
5
100
AcDbSymbolTableRecord
100
AcDbLinetypeTableRecord
  2
DASHDOTTINY
 70
    0
  3
Dash dot (.15x) _._._._._._._._._._._._._._._.
 72
   65
 73
    4
 40
3.81
 49
1.905
 74
    0
 49
-0.9525
 74
    0
 49
0
 74
    0
 49
-0.9525
 74
    0
  0
LTYPE
  5
3C
330
5
100
AcDbSymbolTableRecord
100
AcDbLinetypeTableRecord
  2
DASHDOT2
 70
    0
  3
Dash dot (.5x) _._._._._._._._._._._._._._._.
 72
   65
 73
    4
 40
12.7
 49
6.35
 74
    0
 49
-3.175
 74
    0
 49
0
 74
    0
 49
-3.175
 74
    0
  0
LTYPE
  5
3D
330
5
100
AcDbSymbolTableRecord
100
AcDbLinetypeTableRecord
  2
DASHDOTX2
 70
    0
  3
Dash dot (2x) ____  .  ____  .  ____  .  ___
 72
   65
 73
    4
 40
50.8
 49
25.4
 74
    0
 49
-12.7
 74
    0
 49
0
 74
    0
 49
-12.7
 74
    0
  0
LTYPE
  5
3E
330
5
100
AcDbSymbolTableRecord
100
AcDbLinetypeTableRecord
  2
DIVIDE
 70
    0
  3
Divide ____ . . ____ . . ____ . . ____ . . ____
 72
   65
 73
    6
 40
31.75
 49
12.7
 74
    0
 49
-6.35
 74
    0
 49
0
 74
    0
 49
-6.35
 74
    0
 49
0
 74
    0
 49
-6.35
 74
    0
  0
LTYPE
  5
3F
330
5
100
AcDbSymbolTableRecord
100
AcDbLinetypeTableRecord
  2
DIVIDETINY
 70
    0
  3
Divide (.15x) __..__..__..__..__..__..__..__.._
 72
   65
 73
    6
 40
4.7625
 49
1.905
 74
    0
 49
-0.9525
 74
    0
 49
0
 74
    0
 49
-0.9525
 74
    0
 49
0
 74
    0
 49
-0.9525
 74
    0
  0
LTYPE
  5
40
330
5
100
AcDbSymbolTableRecord
100
AcDbLinetypeTableRecord
  2
DIVIDE2
 70
    0
  3
Divide (.5x) __..__..__..__..__..__..__..__.._
 72
   65
 73
    6
 40
15.875
 49
6.35
 74
    0
 49
-3.175
 74
    0
 49
0
 74
    0
 49
-3.175
 74
    0
 49
0
 74
    0
 49
-3.175
 74
    0
  0
LTYPE
  5
41
330
5
100
AcDbSymbolTableRecord
100
AcDbLinetypeTableRecord
  2
DIVIDEX2
 70
    0
  3
Divide (2x) ________  .  .  ________  .  .  _
 72
   65
 73
    6
 40
63.5
 49
25.4
 74
    0
 49
-12.7
 74
    0
 49
0
 74
    0
 49
-12.7
 74
    0
 49
0
 74
    0
 49
-12.7
 74
    0
  0
LTYPE
  5
42
330
5
100
AcDbSymbolTableRecord
100
AcDbLinetypeTableRecord
  2
BORDER
 70
    0
  3
Border __ __ . __ __ . __ __ . __ __ . __ __ .
 72
   65
 73
    6
 40
44.45
 49
12.7
 74
    0
 49
-6.35
 74
    0
 49
12.7
 74
    0
 49
-6.35
 74
    0
 49
0
 74
    0
 49
-6.35
 74
    0
  0
LTYPE
  5
43
330
5
100
AcDbSymbolTableRecord
100
AcDbLinetypeTableRecord
  2
BORDERTINY
 70
    0
  3
Border (.15x) __.__.__.__.__.__.__.__.__.__.__.
 72
   65
 73
    6
 40
6.6675
 49
1.905
 74
    0
 49
-0.9525
 74
    0
 49
1.905
 74
    0
 49
-0.9525
 74
    0
 49
0
 74
    0
 49
-0.9525
 74
    0
  0
LTYPE
  5
44
330
5
100
AcDbSymbolTableRecord
100
AcDbLinetypeTableRecord
  2
BORDER2
 70
    0
  3
Border (.5x) __.__.__.__.__.__.__.__.__.__.__.
 72
   65
 73
    6
 40
22.225
 49
6.35
 74
    0
 49
-3.175
 74
    0
 49
6.35
 74
    0
 49
-3.175
 74
    0
 49
0
 74
    0
 49
-3.175
 74
    0
  0
LTYPE
  5
45
330
5
100
AcDbSymbolTableRecord
100
AcDbLinetypeTableRecord
  2
BORDERX2
 70
    0
  3
Border (2x) ____  ____  .  ____  ____  .  ___
 72
   65
 73
    6
 40
88.89999999999999
 49
25.4
 74
    0
 49
-12.7
 74
    0
 49
25.4
 74
    0
 49
-12.7
 74
    0
 49
0
 74
    0
 49
-12.7
 74
    0
  0
LTYPE
  5
46
330
5
100
AcDbSymbolTableRecord
100
AcDbLinetypeTableRecord
  2
CENTER
 70
    0
  3
Center ____ _ ____ _ ____ _ ____ _ ____ _ ____
 72
   65
 73
    4
 40
50.8
 49
31.75
 74
    0
 49
-6.35
 74
    0
 49
6.35
 74
    0
 49
-6.35
 74
    0
  0
LTYPE
  5
47
330
5
100
AcDbSymbolTableRecord
100
AcDbLinetypeTableRecord
  2
CENTERTINY
 70
    0
  3
Center (.15x) ___ _ ___ _ ___ _ ___ _ ___ _ ___
 72
   65
 73
    4
 40
7.619999999999999
 49
4.7625
 74
    0
 49
-0.9525
 74
    0
 49
0.9525
 74
    0
 49
-0.9525
 74
    0
  0
LTYPE
  5
48
330
5
100
AcDbSymbolTableRecord
100
AcDbLinetypeTableRecord
  2
CENTER2
 70
    0
  3
Center (.5x) ___ _ ___ _ ___ _ ___ _ ___ _ ___
 72
   65
 73
    4
 40
28.575
 49
19.05
 74
    0
 49
-3.175
 74
    0
 49
3.175
 74
    0
 49
-3.175
 74
    0
  0
LTYPE
  5
49
330
5
100
AcDbSymbolTableRecord
100
AcDbLinetypeTableRecord
  2
CENTERX2
 70
    0
  3
Center (2x) ________  __  ________  __  _____
 72
   65
 73
    4
 40
101.6
 49
63.5
 74
    0
 49
-12.7
 74
    0
 49
12.7
 74
    0
 49
-12.7
 74
    0
  0
ENDTAB
  0
TABLE
  2
LAYER
  5
2
330
0
100
AcDbSymbolTable
 70
    1
  0
LAYER
  5
10
330
2
100
AcDbSymbolTableRecord
100
AcDbLayerTableRecord
  2
0
 70
    0
 62
    7
  6
CONTINUOUS
370
    0
390
F
  0
LAYER
  5
4A
330
2
100
AcDbSymbolTableRecord
100
AcDbLayerTableRecord
  2
main
 70
    0
 62
    3
  6
CONTINUOUS
370
   -3
390
F
  0
ENDTAB
  0
TABLE
  2
STYLE
  5
3
330
0
100
AcDbSymbolTable
 70
    3
  0
STYLE
  5
4B
330
2
100
AcDbSymbolTableRecord
100
AcDbTextStyleTableRecord
  2
Standard
 70
    0
 40
0
 41
1
 50
0
 71
    0
 42
1
  3
txt
  4

  0
ENDTAB
  0
TABLE
  2
VIEW
  5
6
330
0
100
AcDbSymbolTable
 70
    0
  0
ENDTAB
  0
TABLE
  2
UCS
  5
7
330
0
100
AcDbSymbolTable
 70
    0
  0
ENDTAB
  0
TABLE
  2
APPID
  5
9
330
0
100
AcDbSymbolTable
 70
    1
  0
APPID
  5
12
330
9
100
AcDbSymbolTableRecord
100
AcDbRegAppTableRecord
  2
ACAD
 70
    0
  0
APPID
  5
4C
330
9
100
AcDbSymbolTableRecord
100
AcDbRegAppTableRecord
  2
LibreCad
 70
    0
  0
ENDTAB
  0
TABLE
  2
DIMSTYLE
  5
A
330
0
100
AcDbSymbolTable
 70
    1
100
AcDbDimStyleTable
 71
    1
  0
DIMSTYLE
105
4D
330
A
100
AcDbSymbolTableRecord
100
AcDbDimStyleTableRecord
  2
Standard
 70
    0
 40
1
 41
2.5
 42
0.625
 43
0.38
 44
1.25
 45
0
 46
0
 47
0
 48
0
 49
1
140
2.5
141
0.09
142
0
143
25.4
144
1
145
0
146
1
147
0.625
148
0
 71
    0
 72
    0
 73
    0
 74
    1
 75
    0
 76
    0
 77
    0
 78
    1
 79
    0
170
    0
171
    2
172
    0
173
    0
174
    0
175
    0
176
    0
177
    0
178
    0
179
    2
271
    4
272
    4
273
    2
274
    2
275
    0
276
    0
277
    2
278
    0
279
    0
280
    0
281
    0
282
    0
283
    1
284
    0
285
    0
286
    0
288
    0
289
    3
340
standard
341

371
   -2
372
   -2
  0
ENDTAB
  0
TABLE
  2
BLOCK_RECORD
  5
1
330
0
100
AcDbSymbolTable
 70
    2
  0
BLOCK_RECORD
  5
1F
330
1
100
AcDbSymbolTableRecord
100
AcDbBlockTableRecord
  2
*Model_Space
 70
    0
280
    1
281
    0
  0
BLOCK_RECORD
  5
1E
330
1
100
AcDbSymbolTableRecord
100
AcDbBlockTableRecord
  2
*Paper_Space
 70
    0
280
    1
281
    0
  0
BLOCK_RECORD
  5
4E
330
1
100
AcDbSymbolTableRecord
100
AcDbBlockTableRecord
  2
main-TopSilk
 70
    0
280
    1
281
    0
  0
BLOCK_RECORD
  5
51
330
1
100
AcDbSymbolTableRecord
100
AcDbBlockTableRecord
  2
main-TopSilk-0
 70
    0
280
    1
281
    0
  0
BLOCK_RECORD
  5
54
330
1
100
AcDbSymbolTableRecord
100
AcDbBlockTableRecord
  2
main-Board
 70
    0
280
    1
281
    0
  0
BLOCK_RECORD
  5
57
330
1
100
AcDbSymbolTableRecord
100
AcDbBlockTableRecord
  2
main-F_Fab
 70
    0
280
    1
281
    0
  0
BLOCK_RECORD
  5
5A
330
1
100
AcDbSymbolTableRecord
100
AcDbBlockTableRecord
  2
main-TopSilk-1
 70
    0
280
    1
281
    0
  0
BLOCK_RECORD
  5
5D
330
1
100
AcDbSymbolTableRecord
100
AcDbBlockTableRecord
  2
main-Board-0
 70
    0
280
    1
281
    0
  0
BLOCK_RECORD
  5
60
330
1
100
AcDbSymbolTableRecord
100
AcDbBlockTableRecord
  2
main-Board-1
 70
    0
280
    1
281
    0
  0
BLOCK_RECORD
  5
63
330
1
100
AcDbSymbolTableRecord
100
AcDbBlockTableRecord
  2
main-Board-2
 70
    0
280
    1
281
    0
  0
BLOCK_RECORD
  5
66
330
1
100
AcDbSymbolTableRecord
100
AcDbBlockTableRecord
  2
main-F_Fab-0
 70
    0
280
    1
281
    0
  0
BLOCK_RECORD
  5
69
330
1
100
AcDbSymbolTableRecord
100
AcDbBlockTableRecord
  2
main-F_Fab-1
 70
    0
280
    1
281
    0
  0
BLOCK_RECORD
  5
6C
330
1
100
AcDbSymbolTableRecord
100
AcDbBlockTableRecord
  2
main-TopSilk-2
 70
    0
280
    1
281
    0
  0
BLOCK_RECORD
  5
6F
330
1
100
AcDbSymbolTableRecord
100
AcDbBlockTableRecord
  2
main-Board-3
 70
    0
280
    1
281
    0
  0
BLOCK_RECORD
  5
72
330
1
100
AcDbSymbolTableRecord
100
AcDbBlockTableRecord
  2
main-F_Fab-2
 70
    0
280
    1
281
    0
  0
BLOCK_RECORD
  5
75
330
1
100
AcDbSymbolTableRecord
100
AcDbBlockTableRecord
  2
main-F_Fab-3
 70
    0
280
    1
281
    0
  0
BLOCK_RECORD
  5
78
330
1
100
AcDbSymbolTableRecord
100
AcDbBlockTableRecord
  2
main-F_Fab-4
 70
    0
280
    1
281
    0
  0
BLOCK_RECORD
  5
7B
330
1
100
AcDbSymbolTableRecord
100
AcDbBlockTableRecord
  2
main-F_Fab-5
 70
    0
280
    1
281
    0
  0
BLOCK_RECORD
  5
7E
330
1
100
AcDbSymbolTableRecord
100
AcDbBlockTableRecord
  2
main-Top
 70
    0
280
    1
281
    0
  0
BLOCK_RECORD
  5
81
330
1
100
AcDbSymbolTableRecord
100
AcDbBlockTableRecord
  2
main-TopSilk-3
 70
    0
280
    1
281
    0
  0
BLOCK_RECORD
  5
84
330
1
100
AcDbSymbolTableRecord
100
AcDbBlockTableRecord
  2
main-Top-0
 70
    0
280
    1
281
    0
  0
ENDTAB
  0
ENDSEC
  0
SECTION
  2
BLOCKS
  0
BLOCK
  5
20
330
1F
100
AcDbEntity
  8
0
100
AcDbBlockBegin
  2
*Model_Space
 70
    0
 10
0
 20
0
 30
0
  3
*Model_Space
  1

  0
ENDBLK
  5
21
330
1F
100
AcDbEntity
  8
0
100
AcDbBlockEnd
  0
BLOCK
  5
1C
330
1B
100
AcDbEntity
  8
0
100
AcDbBlockBegin
  2
*Paper_Space
 70
    0
 10
0
 20
0
 30
0
  3
*Paper_Space
  1

  0
ENDBLK
  5
1D
330
1F
100
AcDbEntity
  8
0
100
AcDbBlockEnd
  0
BLOCK
  5
4F
330
4E
100
AcDbEntity
  8
0
100
AcDbBlockBegin
  2
main-TopSilk
 70
    0
 10
0
 20
0
  3
main-TopSilk
  1

  0
ENDBLK
  5
50
330
4E
100
AcDbEntity
  8
0
100
AcDbBlockEnd
  0
BLOCK
  5
52
330
51
100
AcDbEntity
  8
0
100
AcDbBlockBegin
  2
main-TopSilk-0
 70
    0
 10
0
 20
0
  3
main-TopSilk-0
  1

  0
ENDBLK
  5
53
330
51
100
AcDbEntity
  8
0
100
AcDbBlockEnd
  0
BLOCK
  5
55
330
54
100
AcDbEntity
  8
0
100
AcDbBlockBegin
  2
main-Board
 70
    0
 10
0
 20
0
  3
main-Board
  1

  0
ENDBLK
  5
56
330
54
100
AcDbEntity
  8
0
100
AcDbBlockEnd
  0
BLOCK
  5
58
330
57
100
AcDbEntity
  8
0
100
AcDbBlockBegin
  2
main-F_Fab
 70
    0
 10
0
 20
0
  3
main-F_Fab
  1

  0
ENDBLK
  5
59
330
57
100
AcDbEntity
  8
0
100
AcDbBlockEnd
  0
BLOCK
  5
5B
330
5A
100
AcDbEntity
  8
0
100
AcDbBlockBegin
  2
main-TopSilk-1
 70
    0
 10
0
 20
0
  3
main-TopSilk-1
  1

  0
ENDBLK
  5
5C
330
5A
100
AcDbEntity
  8
0
100
AcDbBlockEnd
  0
BLOCK
  5
5E
330
5D
100
AcDbEntity
  8
0
100
AcDbBlockBegin
  2
main-Board-0
 70
    0
 10
0
 20
0
  3
main-Board-0
  1

  0
ENDBLK
  5
5F
330
5D
100
AcDbEntity
  8
0
100
AcDbBlockEnd
  0
BLOCK
  5
61
330
60
100
AcDbEntity
  8
0
100
AcDbBlockBegin
  2
main-Board-1
 70
    0
 10
0
 20
0
  3
main-Board-1
  1

  0
ENDBLK
  5
62
330
60
100
AcDbEntity
  8
0
100
AcDbBlockEnd
  0
BLOCK
  5
64
330
63
100
AcDbEntity
  8
0
100
AcDbBlockBegin
  2
main-Board-2
 70
    0
 10
0
 20
0
  3
main-Board-2
  1

  0
ENDBLK
  5
65
330
63
100
AcDbEntity
  8
0
100
AcDbBlockEnd
  0
BLOCK
  5
67
330
66
100
AcDbEntity
  8
0
100
AcDbBlockBegin
  2
main-F_Fab-0
 70
    0
 10
0
 20
0
  3
main-F_Fab-0
  1

  0
ENDBLK
  5
68
330
66
100
AcDbEntity
  8
0
100
AcDbBlockEnd
  0
BLOCK
  5
6A
330
69
100
AcDbEntity
  8
0
100
AcDbBlockBegin
  2
main-F_Fab-1
 70
    0
 10
0
 20
0
  3
main-F_Fab-1
  1

  0
ENDBLK
  5
6B
330
69
100
AcDbEntity
  8
0
100
AcDbBlockEnd
  0
BLOCK
  5
6D
330
6C
100
AcDbEntity
  8
0
100
AcDbBlockBegin
  2
main-TopSilk-2
 70
    0
 10
0
 20
0
  3
main-TopSilk-2
  1

  0
ENDBLK
  5
6E
330
6C
100
AcDbEntity
  8
0
100
AcDbBlockEnd
  0
BLOCK
  5
70
330
6F
100
AcDbEntity
  8
0
100
AcDbBlockBegin
  2
main-Board-3
 70
    0
 10
0
 20
0
  3
main-Board-3
  1

  0
ENDBLK
  5
71
330
6F
100
AcDbEntity
  8
0
100
AcDbBlockEnd
  0
BLOCK
  5
73
330
72
100
AcDbEntity
  8
0
100
AcDbBlockBegin
  2
main-F_Fab-2
 70
    0
 10
0
 20
0
  3
main-F_Fab-2
  1

  0
ENDBLK
  5
74
330
72
100
AcDbEntity
  8
0
100
AcDbBlockEnd
  0
BLOCK
  5
76
330
75
100
AcDbEntity
  8
0
100
AcDbBlockBegin
  2
main-F_Fab-3
 70
    0
 10
0
 20
0
  3
main-F_Fab-3
  1

  0
ENDBLK
  5
77
330
75
100
AcDbEntity
  8
0
100
AcDbBlockEnd
  0
BLOCK
  5
79
330
78
100
AcDbEntity
  8
0
100
AcDbBlockBegin
  2
main-F_Fab-4
 70
    0
 10
0
 20
0
  3
main-F_Fab-4
  1

  0
ENDBLK
  5
7A
330
78
100
AcDbEntity
  8
0
100
AcDbBlockEnd
  0
BLOCK
  5
7C
330
7B
100
AcDbEntity
  8
0
100
AcDbBlockBegin
  2
main-F_Fab-5
 70
    0
 10
0
 20
0
  3
main-F_Fab-5
  1

  0
ENDBLK
  5
7D
330
7B
100
AcDbEntity
  8
0
100
AcDbBlockEnd
  0
BLOCK
  5
7F
330
7E
100
AcDbEntity
  8
0
100
AcDbBlockBegin
  2
main-Top
 70
    0
 10
0
 20
0
  3
main-Top
  1

  0
ENDBLK
  5
80
330
7E
100
AcDbEntity
  8
0
100
AcDbBlockEnd
  0
BLOCK
  5
82
330
81
100
AcDbEntity
  8
0
100
AcDbBlockBegin
  2
main-TopSilk-3
 70
    0
 10
0
 20
0
  3
main-TopSilk-3
  1

  0
ENDBLK
  5
83
330
81
100
AcDbEntity
  8
0
100
AcDbBlockEnd
  0
BLOCK
  5
85
330
84
100
AcDbEntity
  8
0
100
AcDbBlockBegin
  2
main-Top-0
 70
    0
 10
0
 20
0
  3
main-Top-0
  1

  0
ENDBLK
  5
86
330
84
100
AcDbEntity
  8
0
100
AcDbBlockEnd
  0
ENDSEC
  0
SECTION
  2
ENTITIES
  0
LWPOLYLINE
  5
87
100
AcDbEntity
  8
main
  6
ByLayer
 62
  256
370
   -1
100
AcDbPolyline
 90
    5
 70
    0
 43
0
 10
53.34
 20
148.59
 10
200.66
 20
148.59
 10
200.66
 20
91.44000000000001
 10
53.34
 20
91.44000000000001
 10
53.34
 20
148.59
  0
CIRCLE
  5
88
100
AcDbEntity
  8
main
  6
ByLayer
 62
  256
370
   -1
100
AcDbCircle
 10
222.25
 20
125.73
 40
1
  0
CIRCLE
  5
89
100
AcDbEntity
  8
main
  6
ByLayer
 62
  256
370
   -1
100
AcDbCircle
 10
222.25
 20
132.08
 40
1
  0
CIRCLE
  5
8A
100
AcDbEntity
  8
main
  6
ByLayer
 62
  256
370
   -1
100
AcDbCircle
 10
222.25
 20
138.43
 40
1
  0
CIRCLE
  5
8B
100
AcDbEntity
  8
main
  6
ByLayer
 62
  256
370
   -1
100
AcDbCircle
 10
214.83
 20
146.9
 40
1.5
  0
CIRCLE
  5
8C
100
AcDbEntity
  8
main
  6
ByLayer
 62
  256
370
   -1
100
AcDbCircle
 10
214.83
 20
92.90000000000001
 40
1.5
  0
CIRCLE
  5
8D
100
AcDbEntity
  8
main
  6
ByLayer
 62
  256
370
   -1
100
AcDbCircle
 10
38.83
 20
92.90000000000001
 40
1.5
  0
CIRCLE
  5
8E
100
AcDbEntity
  8
main
  6
ByLayer
 62
  256
370
   -1
100
AcDbCircle
 10
38.83
 20
146.9
 40
1.5
  0
CIRCLE
  5
8F
100
AcDbEntity
  8
main
  6
ByLayer
 62
  256
370
   -1
100
AcDbCircle
 10
251.46
 20
77.47000000000001
 40
1
  0
CIRCLE
  5
90
100
AcDbEntity
  8
main
  6
ByLayer
 62
  256
370
   -1
100
AcDbCircle
 10
251.46
 20
2.54000000000002
 40
1
  0
CIRCLE
  5
91
100
AcDbEntity
  8
main
  6
ByLayer
 62
  256
370
   -1
100
AcDbCircle
 10
2.539999999999992
 20
2.54000000000002
 40
1
  0
CIRCLE
  5
92
100
AcDbEntity
  8
main
  6
ByLayer
 62
  256
370
   -1
100
AcDbCircle
 10
2.539999999999923
 20
77.47000000000003
 40
1
  0
INSERT
  5
93
100
AcDbEntity
  8
main
  6
ByLayer
 62
  256
370
   -1
100
AcDbBlockReference
  2
main-F_Fab-5
 10
0
 20
0
 30
0
 41
25.4
 42
25.4
 43
0
 50
0
 70
    1
 71
    1
 44
0
 45
0
  0
INSERT
  5
94
100
AcDbEntity
  8
0
  6
ByLayer
 62
  256
370
   -1
100
AcDbBlockReference
  2
main-Top-0
 10
0
 20
0
 30
0
 41
1
 42
1
 43
0
 50
0
 70
    1
 71
    1
 44
0
 45
0
  0
CIRCLE
  5
95
100
AcDbEntity
  8
main
  6
ByLayer
 62
  256
370
   -1
100
AcDbCircle
 10
127
 20
2.540000000000008
 40
1
  0
CIRCLE
  5
96
100
AcDbEntity
  8
main
  6
ByLayer
 62
  256
370
   -1
100
AcDbCircle
 10
127
 20
77.47000000000001
 40
1
  0
LWPOLYLINE
  5
97
100
AcDbEntity
  8
main
  6
ByLayer
 62
  256
370
   -1
100
AcDbPolyline
 90
    5
 70
    0
 43
0
 10
228.6
 20
143.51
 10
250.19
 20
148.59
 10
250.19
 20
149.86
 10
228.6
 20
144.78
 10
228.6
 20
143.51
  0
LWPOLYLINE
  5
98
100
AcDbEntity
  8
main
  6
ByLayer
 62
  256
370
   -1
100
AcDbPolyline
 90
    5
 70
    0
 43
0
 10
228.6
 20
140.97
 10
250.19
 20
146.05
 10
250.19
 20
147.32
 10
228.6
 20
142.24
 10
228.6
 20
140.97
  0
LWPOLYLINE
  5
99
100
AcDbEntity
  8
main
  6
ByLayer
 62
  256
370
   -1
100
AcDbPolyline
 90
    5
 70
    0
 43
0
 10
228.6
 20
138.43
 10
250.19
 20
143.51
 10
250.19
 20
144.78
 10
228.6
 20
139.7
 10
228.6
 20
138.43
  0
LWPOLYLINE
  5
9A
100
AcDbEntity
  8
main
  6
ByLayer
 62
  256
370
   -1
100
AcDbPolyline
 90
    5
 70
    0
 43
0
 10
228.6
 20
135.89
 10
250.19
 20
140.97
 10
250.19
 20
142.24
 10
228.6
 20
137.16
 10
228.6
 20
135.89
  0
LWPOLYLINE
  5
9B
100
AcDbEntity
  8
main
  6
ByLayer
 62
  256
370
   -1
100
AcDbPolyline
 90
    5
 70
    0
 43
0
 10
228.6
 20
130.81
 10
250.19
 20
135.89
 10
250.19
 20
137.16
 10
228.6
 20
132.08
 10
228.6
 20
130.81
  0
LWPOLYLINE
  5
9C
100
AcDbEntity
  8
main
  6
ByLayer
 62
  256
370
   -1
100
AcDbPolyline
 90
    5
 70
    0
 43
0
 10
228.6
 20
133.35
 10
250.19
 20
138.43
 10
250.19
 20
139.7
 10
228.6
 20
134.62
 10
228.6
 20
133.35
  0
LWPOLYLINE
  5
9D
100
AcDbEntity
  8
main
  6
ByLayer
 62
  256
370
   -1
100
AcDbPolyline
 90
    5
 70
    0
 43
0
 10
228.6
 20
123.19
 10
250.19
 20
128.27
 10
250.19
 20
129.54
 10
228.6
 20
124.46
 10
228.6
 20
123.19
  0
LWPOLYLINE
  5
9E
100
AcDbEntity
  8
main
  6
ByLayer
 62
  256
370
   -1
100
AcDbPolyline
 90
    5
 70
    0
 43
0
 10
228.6
 20
128.27
 10
250.19
 20
133.35
 10
250.19
 20
134.62
 10
228.6
 20
129.54
 10
228.6
 20
128.27
  0
LWPOLYLINE
  5
9F
100
AcDbEntity
  8
main
  6
ByLayer
 62
  256
370
   -1
100
AcDbPolyline
 90
    5
 70
    0
 43
0
 10
228.6
 20
125.73
 10
250.19
 20
130.81
 10
250.19
 20
132.08
 10
228.6
 20
127
 10
228.6
 20
125.73
  0
LWPOLYLINE
  5
A0
100
AcDbEntity
  8
main
  6
ByLayer
 62
  256
370
   -1
100
AcDbPolyline
 90
    5
 70
    0
 43
0
 10
228.6
 20
120.65
 10
250.19
 20
125.73
 10
250.19
 20
127
 10
228.6
 20
121.92
 10
228.6
 20
120.65
  0
LWPOLYLINE
  5
A1
100
AcDbEntity
  8
main
  6
CONTINUOUS
 62
    3
370
   35
100
AcDbPolyline
 90
   17
 70
    0
 43
0
 10
2.54
 20
74.93000000000001
 10
7.62
 20
80.01000000000001
 10
120.65
 20
80.01000000000001
 10
124.46
 20
74.93000000000001
 10
129.54
 20
74.93000000000001
 10
133.35
 20
80.01000000000001
 10
246.38
 20
80.01000000000001
 10
251.46
 20
74.93000000000001
 10
251.46
 20
5.08
 10
247.65
 20
1.27
 10
133.35
 20
1.27
 10
129.54
 20
5.08
 10
124.46
 20
5.08
 10
120.65
 20
1.27
 10
6.349999999999999
 20
1.27
 10
2.539999999999999
 20
5.08
 10
2.540000000000002
 20
74.93000000000001
  0
LWPOLYLINE
  5
A2
100
AcDbEntity
  8
main
  6
CONTINUOUS
 62
    3
370
   35
100
AcDbPolyline
 90
   10
 70
    0
 43
0
 10
2.540000000000002
 20
154.94
 10
5.080000000000002
 20
157.48
 10
30.48
 20
157.48
 10
33.02
 20
154.94
 10
33.02
 20
83.82000000000001
 10
19.05
 20
83.82000000000001
 10
16.51
 20
86.36000000000001
 10
5.08
 20
86.36
 10
2.54
 20
88.89999999999999
 10
2.540000000000002
 20
154.94
  0
CIRCLE
  5
A3
100
AcDbEntity
  8
main
  6
ByLayer
 62
  256
370
   -1
100
AcDbCircle
 10
-3.81
 20
163.83
 40
1
  0
LWPOLYLINE
  5
A4
100
AcDbEntity
  8
main
  6
ByLayer
 62
  256
370
   -1
100
AcDbPolyline
 90
    5
 70
    0
 43
0
 10
-7.62
 20
167.64
 10
261.62
 20
167.64
 10
261.62
 20
-7.620000000000005
 10
-7.619999999999999
 20
-7.619999999999999
 10
-7.62
 20
167.64
  0
CIRCLE
  5
A5
100
AcDbEntity
  8
main
  6
ByLayer
 62
  256
370
   -1
100
AcDbCircle
 10
257.81
 20
163.83
 40
1
  0
CIRCLE
  5
A6
100
AcDbEntity
  8
main
  6
ByLayer
 62
  256
370
   -1
100
AcDbCircle
 10
245.11
 20
163.83
 40
1
  0
CIRCLE
  5
A7
100
AcDbEntity
  8
main
  6
ByLayer
 62
  256
370
   -1
100
AcDbCircle
 10
257.81
 20
78.73999999999999
 40
1
  0
CIRCLE
  5
A8
100
AcDbEntity
  8
main
  6
ByLayer
 62
  256
370
   -1
100
AcDbCircle
 10
257.81
 20
-3.809999999999999
 40
1
  0
CIRCLE
  5
A9
100
AcDbEntity
  8
main
  6
ByLayer
 62
  256
370
   -1
100
AcDbCircle
 10
190.5
 20
-3.809999999999998
 40
1
  0
CIRCLE
  5
AA
100
AcDbEntity
  8
main
  6
ByLayer
 62
  256
370
   -1
100
AcDbCircle
 10
63.5
 20
-3.809999999999998
 40
1
  0
CIRCLE
  5
AB
100
AcDbEntity
  8
main
  6
ByLayer
 62
  256
370
   -1
100
AcDbCircle
 10
-3.810000000000001
 20
-3.809999999999999
 40
1
  0
CIRCLE
  5
AC
100
AcDbEntity
  8
main
  6
ByLayer
 62
  256
370
   -1
100
AcDbCircle
 10
-3.810000000000005
 20
80.01000000000001
 40
1
  0
CIRCLE
  5
AD
100
AcDbEntity
  8
main
  6
ByLayer
 62
  256
370
   -1
100
AcDbCircle
 10
63.50000000000001
 20
163.83
 40
1
  0
CIRCLE
  5
AE
100
AcDbEntity
  8
main
  6
ByLayer
 62
  256
370
   -1
100
AcDbCircle
 10
127
 20
163.83
 40
1
  0
CIRCLE
  5
AF
100
AcDbEntity
  8
main
  6
ByLayer
 62
  256
370
   -1
100
AcDbCircle
 10
149.86
 20
163.83
 40
1
  0
CIRCLE
  5
B0
100
AcDbEntity
  8
main
  6
ByLayer
 62
  256
370
   -1
100
AcDbCircle
 10
127
 20
-3.81
 40
1
  0
LWPOLYLINE
  5
B1
100
AcDbEntity
  8
main
  6
ByLayer
 62
  256
370
   -1
100
AcDbPolyline
 90
   53
 70
    1
 43
0
 10
230.7433333333333
 20
103.9891022222222
 10
230.7433333333333
 20
103.9891022222222
 10
230.7076411111111
 20
103.5254277777778
 10
230.6005633333333
 20
103.1001744444444
 10
230.4221011111111
 20
102.7133427777778
 10
230.1722538888889
 20
102.3649316666667
 10
230.1722538888889
 20
102.3649316666667
 10
230.1722538888889
 20
102.3649316666667
 10
229.80114
 20
102.0302744444444
 10
229.3601688888889
 20
101.7912327777778
 10
228.8493411111111
 20
101.6478083333333
 10
228.2686566666667
 20
101.6
 10
227.8826977777778
 20
101.6
 10
227.8826977777778
 20
102.5587844444444
 10
228.2337283333333
 20
102.5587844444444
 10
228.2337283333333
 20
102.5587844444444
 10
228.2337283333333
 20
102.5587844444444
 10
228.5639105555556
 20
102.58378
 10
228.8611294444445
 20
102.6587672222222
 10
229.1253844444444
 20
102.783745
 10
229.3566761111111
 20
102.9587144444444
 10
229.3566761111111
 20
102.9587144444444
 10
229.3566761111111
 20
102.9587144444444
 10
229.5408144444445
 20
103.17025
 10
229.6723416666667
 20
103.4101638888889
 10
229.7512577777778
 20
103.6784577777778
 10
229.7775633333333
 20
103.9751311111111
 10
229.7775633333333
 20
103.9751311111111
 10
229.7775633333333
 20
103.9751311111111
 10
229.7557327777778
 20
104.2797722222222
 10
229.6902422222222
 20
104.5492666666667
 10
229.5810911111111
 20
104.7836144444444
 10
229.4282794444445
 20
104.982815
 10
229.4282794444445
 20
104.982815
 10
229.4282794444445
 20
104.982815
 10
229.1905477777778
 20
105.17383
 10
228.8930016666667
 20
105.3102688888889
 10
228.5356405555556
 20
105.3921322222222
 10
228.1184644444445
 20
105.41942
 10
227.8896833333334
 20
105.41942
 10
227.8896833333334
 20
106.3782044444444
 10
228.2249961111111
 20
106.3782044444444
 10
228.2249961111111
 20
106.3782044444444
 10
228.2249961111111
 20
106.3782044444444
 10
228.7726077777778
 20
106.335745
 10
229.2628061111111
 20
106.2083655555555
 10
229.6955905555556
 20
105.9960661111111
 10
230.0709616666667
 20
105.6988472222222
 10
230.0709616666667
 20
105.6988472222222
 10
230.0709616666667
 20
105.6988472222222
 10
230.3651244444445
 20
105.3450883333333
 10
230.5752405555556
 20
104.9422111111111
 10
230.70131
 20
104.4902155555556
  0
LWPOLYLINE
  5
B2
100
AcDbEntity
  8
main
  6
ByLayer
 62
  256
370
   -1
100
AcDbPolyline
 90
    4
 70
    1
 43
0
 10
226.28647
 20
101.6
 10
226.28647
 20
106.3782044444444
 10
227.2592261111111
 20
106.3782044444444
 10
227.2592261111111
 20
101.6
  0
LWPOLYLINE
  5
B3
100
AcDbEntity
  8
main
  6
ByLayer
 62
  256
370
   -1
100
AcDbPolyline
 90
    4
 70
    1
 43
0
 10
234.0184527777778
 20
105.41942
 10
234.0184527777778
 20
106.3782044444444
 10
235.8347294444444
 20
106.3782044444444
 10
235.8347294444444
 20
105.41942
  0
LWPOLYLINE
  5
B4
100
AcDbEntity
  8
main
  6
ByLayer
 62
  256
370
   -1
100
AcDbPolyline
 90
    4
 70
    1
 43
0
 10
234.0184527777778
 20
103.5035977777778
 10
234.0184527777778
 20
104.4606355555556
 10
235.8347294444444
 20
104.4606355555556
 10
235.8347294444444
 20
103.5035977777778
  0
LWPOLYLINE
  5
B5
100
AcDbEntity
  8
main
  6
ByLayer
 62
  256
370
   -1
100
AcDbPolyline
 90
    4
 70
    1
 43
0
 10
234.0184527777778
 20
101.6
 10
234.0184527777778
 20
102.5587844444444
 10
235.8347294444444
 20
102.5587844444444
 10
235.8347294444444
 20
101.6
  0
LWPOLYLINE
  5
B6
100
AcDbEntity
  8
main
  6
ByLayer
 62
  256
370
   -1
100
AcDbPolyline
 90
    4
 70
    1
 43
0
 10
232.41
 20
101.6
 10
232.41
 20
106.3782044444444
 10
233.3827561111111
 20
106.3782044444444
 10
233.3827561111111
 20
101.6
  0
LWPOLYLINE
  5
B7
100
AcDbEntity
  8
main
  6
ByLayer
 62
  256
370
   -1
100
AcDbPolyline
 90
   20
 70
    1
 43
0
 10
241.2003133333334
 20
104.92693
 10
241.2003133333334
 20
104.92693
 10
241.2003133333334
 20
104.92693
 10
241.110045
 20
105.0345527777778
 10
241.0191222222222
 20
105.1286411111111
 10
240.9275444444445
 20
105.209195
 10
240.8353116666667
 20
105.2762138888889
 10
240.8353116666667
 20
105.2762138888889
 10
240.8353116666667
 20
105.2762138888889
 10
240.7304172222222
 20
105.3354827777778
 10
240.6095866666667
 20
105.3910411111111
 10
240.4728205555556
 20
105.4428877777778
 10
240.3201177777778
 20
105.4910233333333
 10
240.3201177777778
 20
106.5004538888889
 10
240.3201177777778
 20
106.5004538888889
 10
240.3201177777778
 20
106.5004538888889
 10
240.8034394444445
 20
106.3925033333333
 10
241.2387344444444
 20
106.1978866666667
 10
241.6260033333334
 20
105.9166038888889
 10
241.965245
 20
105.548655
  0
LWPOLYLINE
  5
B8
100
AcDbEntity
  8
main
  6
ByLayer
 62
  256
370
   -1
100
AcDbPolyline
 90
   25
 70
    1
 43
0
 10
241.9792166666667
 20
102.4155783333333
 10
241.9792166666667
 20
102.4155783333333
 10
241.8007544444445
 20
102.21343
 10
241.6303694444445
 20
102.0435905555556
 10
241.4680611111111
 20
101.90606
 10
241.3138305555556
 20
101.8008383333333
 10
241.3138305555556
 20
101.8008383333333
 10
241.3138305555556
 20
101.8008383333333
 10
241.1174677777778
 20
101.699655
 10
240.8863944444444
 20
101.610915
 10
240.6206111111111
 20
101.5346183333333
 10
240.3201177777778
 20
101.470765
 10
240.3201177777778
 20
102.4662244444444
 10
240.3201177777778
 20
102.4662244444444
 10
240.3201177777778
 20
102.4662244444444
 10
240.4779505555556
 20
102.5111944444444
 10
240.60915
 20
102.553545
 10
240.7137172222222
 20
102.5932761111111
 10
240.7916511111111
 20
102.6303877777778
 10
240.7916511111111
 20
102.6303877777778
 10
240.7916511111111
 20
102.6303877777778
 10
240.8925066666667
 20
102.6975155555556
 10
240.9942355555556
 20
102.7853822222222
 10
241.0968377777778
 20
102.8939877777778
 10
241.2003133333334
 20
103.0233322222222
  0
LWPOLYLINE
  5
B9
100
AcDbEntity
  8
main
  6
ByLayer
 62
  256
370
   -1
100
AcDbPolyline
 90
   49
 70
    1
 43
0
 10
239.68966
 20
101.4637794444444
 10
239.68966
 20
101.4637794444444
 10
239.2486888888889
 20
101.5596138888889
 10
238.8478855555556
 20
101.7178833333333
 10
238.48725
 20
101.9385872222222
 10
238.1667822222222
 20
102.2217255555556
 10
238.1667822222222
 20
102.2217255555556
 10
238.1667822222222
 20
102.2217255555556
 10
237.8756755555555
 20
102.59153
 10
237.6677427777778
 20
103.0058677777778
 10
237.5429827777778
 20
103.46474
 10
237.5013961111111
 20
103.9681455555556
 10
237.5013961111111
 20
103.9681455555556
 10
237.5013961111111
 20
103.9681455555556
 10
237.5389438888889
 20
104.4379322222222
 10
237.6515883333333
 20
104.8745372222222
 10
237.8393283333334
 20
105.27796
 10
238.1021644444444
 20
105.6482011111111
 10
238.1021644444444
 20
105.6482011111111
 10
238.1021644444444
 20
105.6482011111111
 10
238.4266711111111
 20
105.9669227777778
 10
238.7994227777778
 20
106.2140411111111
 10
239.2204188888889
 20
106.3895566666667
 10
239.68966
 20
106.4934683333333
 10
239.68966
 20
105.4980088888889
 10
239.68966
 20
105.4980088888889
 10
239.68966
 20
105.4980088888889
 10
239.4252961111111
 20
105.4073044444444
 10
239.1893111111111
 20
105.2853822222222
 10
238.981705
 20
105.1322433333333
 10
238.8024788888889
 20
104.9478866666667
 10
238.8024788888889
 20
104.9478866666667
 10
238.8024788888889
 20
104.9478866666667
 10
238.6588361111111
 20
104.7334044444444
 10
238.5562338888889
 20
104.4986205555555
 10
238.4946722222222
 20
104.2435338888889
 10
238.4741522222222
 20
103.9681455555556
 10
238.4741522222222
 20
103.9681455555556
 10
238.4741522222222
 20
103.9681455555556
 10
238.4942355555556
 20
103.7047633333333
 10
238.5544872222222
 20
103.4595005555556
 10
238.6549066666667
 20
103.2323566666667
 10
238.7954933333334
 20
103.0233322222222
 10
238.7954933333334
 20
103.0233322222222
 10
238.7954933333334
 20
103.0233322222222
 10
238.9725366666667
 20
102.8354827777778
 10
239.1805788888889
 20
102.6788511111111
 10
239.41962
 20
102.5534361111111
 10
239.68966
 20
102.4592383333333
  0
LWPOLYLINE
  5
BA
100
AcDbEntity
  8
main
  6
ByLayer
 62
  256
370
   -1
100
AcDbPolyline
 90
    4
 70
    1
 43
0
 10
246.4488872222222
 20
104.5392244444444
 10
245.8341472222222
 20
105.3617883333333
 10
246.5641511111111
 20
106.3782044444444
 10
247.7587022222222
 20
106.3782044444444
  0
LWPOLYLINE
  5
BB
100
AcDbEntity
  8
main
  6
ByLayer
 62
  256
370
   -1
100
AcDbPolyline
 90
    4
 70
    1
 43
0
 10
246.606065
 20
101.6
 10
244.8544061111111
 20
103.9821166666667
 10
245.4551744444444
 20
104.8256372222222
 10
247.8006161111111
 20
101.6
  0
LWPOLYLINE
  5
BC
100
AcDbEntity
  8
main
  6
ByLayer
 62
  256
370
   -1
100
AcDbPolyline
 90
    4
 70
    1
 43
0
 10
243.6458833333333
 20
101.6
 10
243.6458833333333
 20
106.3782044444444
 10
244.6186394444444
 20
106.3782044444444
 10
244.6186394444444
 20
101.6
  0
LWPOLYLINE
  5
BD
100
AcDbEntity
  8
main
  6
ByLayer
 62
  256
370
   -1
100
AcDbPolyline
 90
    4
 70
    1
 43
0
 10
227.5531084444444
 20
97.15009777777779
 10
226.809832
 20
97.15009777777779
 10
226.4996675555555
 20
100.3327733333333
 10
227.8632719999999
 20
100.3327733333333
  0
LWPOLYLINE
  5
BE
100
AcDbEntity
  8
main
  6
ByLayer
 62
  256
370
   -1
100
AcDbPolyline
 90
   43
 70
    1
 43
0
 10
236.0933333333333
 20
95.37573511111113
 10
236.0933333333333
 20
95.37573511111113
 10
236.0598026666666
 20
94.89966133333334
 10
235.9592088888889
 20
94.45502311111112
 10
235.791552
 20
94.04181955555556
 10
235.5568337777777
 20
93.66005244444446
 10
235.5568337777777
 20
93.66005244444446
 10
235.5568337777777
 20
93.66005244444446
 10
235.2161066666666
 20
93.27811022222222
 10
234.814256
 20
92.97894844444446
 10
234.35128
 20
92.76256711111112
 10
233.8271795555555
 20
92.62896622222223
 10
233.8271795555555
 20
94.23287822222224
 10
233.8271795555555
 20
94.23287822222224
 10
233.8271795555555
 20
94.23287822222224
 10
234.1572524444444
 20
94.41468
 10
234.3930195555555
 20
94.66389422222224
 10
234.5344791111111
 20
94.98052
 10
234.5816328888888
 20
95.36455822222223
 10
234.5816328888888
 20
95.36455822222223
 10
234.5816328888888
 20
95.36455822222223
 10
234.5716782222222
 20
95.55142488888889
 10
234.5418142222222
 20
95.72082755555556
 10
234.4920417777777
 20
95.87276622222222
 10
234.4223591111111
 20
96.0072408888889
 10
234.4223591111111
 20
96.0072408888889
 10
234.4223591111111
 20
96.0072408888889
 10
234.3046506666666
 20
96.15900444444445
 10
234.1471235555555
 20
96.30692622222223
 10
233.9497777777777
 20
96.45100622222222
 10
233.7126142222222
 20
96.59124355555556
 10
234.5033928888888
 20
97.92969955555557
 10
234.5033928888888
 20
97.92969955555557
 10
234.5033928888888
 20
97.92969955555557
 10
234.9064666666666
 20
97.66930844444445
 10
235.2466693333333
 20
97.40507466666668
 10
235.5240008888888
 20
97.137
 10
235.7384613333333
 20
96.86508177777777
 10
235.7384613333333
 20
96.86508177777777
 10
235.7384613333333
 20
96.86508177777777
 10
235.8937182222222
 20
96.56137955555556
 10
236.0046159999999
 20
96.2119208888889
 10
236.0711537777777
 20
95.81670666666668
  0
LWPOLYLINE
  5
BF
100
AcDbEntity
  8
main
  6
ByLayer
 62
  256
370
   -1
100
AcDbPolyline
 90
   40
 70
    1
 43
0
 10
232.4663688888888
 20
96.42917600000001
 10
232.4663688888888
 20
96.42917600000001
 10
232.4663688888888
 20
96.42917600000001
 10
232.2903297777777
 20
96.10661155555557
 10
232.1645875555555
 20
95.81234044444446
 10
232.0891422222222
 20
95.5463608888889
 10
232.0639937777777
 20
95.30867288888889
 10
232.0639937777777
 20
95.30867288888889
 10
232.0639937777777
 20
95.30867288888889
 10
232.1120204444444
 20
94.93231911111111
 10
232.2561004444444
 20
94.62756888888889
 10
232.4962328888889
 20
94.39442222222223
 10
232.8324186666666
 20
94.23287822222224
 10
232.8324186666666
 20
92.62896622222223
 10
232.8324186666666
 20
92.62896622222223
 10
232.8324186666666
 20
92.62896622222223
 10
232.3460408888888
 20
92.73759377777779
 10
231.906816
 20
92.92655644444446
 10
231.5147448888889
 20
93.19585422222224
 10
231.1698266666666
 20
93.54548711111111
 10
231.1698266666666
 20
93.54548711111111
 10
231.1698266666666
 20
93.54548711111111
 10
230.8898755555555
 20
93.94943377777778
 10
230.6899111111111
 20
94.3816728888889
 10
230.5699315555555
 20
94.84220355555557
 10
230.5299386666666
 20
95.33102666666667
 10
230.5299386666666
 20
95.33102666666667
 10
230.5299386666666
 20
95.33102666666667
 10
230.5364
 20
95.55439377777779
 10
230.5557857777777
 20
95.76623466666668
 10
230.5880942222222
 20
95.96654933333335
 10
230.6333271111111
 20
96.1553368888889
 10
230.6333271111111
 20
96.1553368888889
 10
230.6333271111111
 20
96.1553368888889
 10
230.6986426666666
 20
96.35617511111111
 10
230.8023804444444
 20
96.59264088888889
 10
230.9445386666666
 20
96.86473244444446
 10
231.1251182222222
 20
97.17245155555557
 10
233.0364
 20
100.4361617777778
 10
234.8107626666666
 20
100.4361617777778
  0
LWPOLYLINE
  5
C0
100
AcDbEntity
  8
main
  6
ByLayer
 62
  256
370
   -1
100
AcDbPolyline
 90
    4
 70
    1
 43
0
 10
241.7470764444444
 20
98.90210577777779
 10
241.7470764444444
 20
100.4361617777778
 10
243.6471813333333
 20
100.4361617777778
 10
243.6471813333333
 20
98.90210577777779
  0
LWPOLYLINE
  5
C1
100
AcDbEntity
  8
main
  6
ByLayer
 62
  256
370
   -1
100
AcDbPolyline
 90
   40
 70
    1
 43
0
 10
244.0020542222222
 20
95.21646133333334
 10
244.0020542222222
 20
95.21646133333334
 10
243.9685226666666
 20
94.7417848888889
 10
243.8679288888889
 20
94.30133777777779
 10
243.700272
 20
93.8951208888889
 10
243.4655537777777
 20
93.52313333333335
 10
243.4655537777777
 20
93.52313333333335
 10
243.4655537777777
 20
93.52313333333335
 10
243.14788
 20
93.18188266666667
 10
242.7788613333333
 20
92.91537866666667
 10
242.3584977777777
 20
92.72362222222223
 10
241.8867902222222
 20
92.60661155555557
 10
241.8867902222222
 20
94.24405511111112
 10
241.8867902222222
 20
94.24405511111112
 10
241.8867902222222
 20
94.24405511111112
 10
242.1361786666666
 20
94.43231911111111
 10
242.3143137777778
 20
94.65341600000001
 10
242.4211946666666
 20
94.90734577777779
 10
242.4568213333333
 20
95.19410755555558
 10
242.4568213333333
 20
95.19410755555558
 10
242.4568213333333
 20
95.19410755555558
 10
242.3495911111111
 20
95.69410755555558
 10
242.0279004444444
 20
96.05125066666668
 10
241.4917502222222
 20
96.26553600000001
 10
240.7411386666666
 20
96.33696444444446
 10
239.2182604444444
 20
96.33696444444446
 10
239.2182604444444
 20
100.4361617777778
 10
240.7411386666666
 20
100.4361617777778
 10
240.7411386666666
 20
97.88219733333334
 10
240.7411386666666
 20
97.88219733333334
 10
240.7411386666666
 20
97.88219733333334
 10
241.4847644444444
 20
97.84220355555557
 10
242.1368773333333
 20
97.72222488888889
 10
242.6974782222222
 20
97.52225955555556
 10
243.1665662222222
 20
97.24230844444446
 10
243.1665662222222
 20
97.24230844444446
 10
243.1665662222222
 20
97.24230844444446
 10
243.5320924444444
 20
96.871544
 10
243.7931822222222
 20
96.41031466666666
 10
243.9498355555555
 20
95.85862044444445
  0
LWPOLYLINE
  5
C2
100
AcDbEntity
  8
main
  6
ByLayer
 62
  256
370
   -1
100
AcDbPolyline
 90
   13
 70
    1
 43
0
 10
240.8780577777777
 20
92.60661155555557
 10
240.8780577777777
 20
92.60661155555557
 10
240.0939155555555
 20
92.87922844444445
 10
239.4795253333333
 20
93.34220355555557
 10
239.0348862222222
 20
93.99553955555555
 10
238.76
 20
94.83923466666667
 10
240.3303804444444
 20
95.05718844444445
 10
240.3303804444444
 20
95.05718844444445
 10
240.3303804444444
 20
95.05718844444445
 10
240.4243377777777
 20
94.79714666666668
 10
240.5469368888888
 20
94.57866933333335
 10
240.6981768888889
 20
94.40175733333334
 10
240.8780577777777
 20
94.2664097777778
  0
CIRCLE
  5
C3
100
AcDbEntity
  8
main
  6
ByLayer
 62
  256
370
   -1
100
AcDbCircle
 10
257.81
 20
146.05
 40
1
  0
ENDSEC
  0
SECTION
  2
OBJECTS
  0
DICTIONARY
  5
C
330
0
100
AcDbDictionary
281
    1
  3
ACAD_GROUP
350
D
  0
DICTIONARY
  5
D
330
C
100
AcDbDictionary
281
    1
  0
PLOTSETTINGS
  5
C4
100
AcDbPlotSettings
  6
1x1
 40
0
 41
0
 42
0
 43
0
  0
ENDSEC
  0
EOF
