%TF.GenerationSoftware,Novarm,DipTrace,4.3.0.4*%
%TF.CreationDate,2023-05-08T16:01:47+01:00*%
%FSLAX26Y26*%
%MOIN*%
%TF.FileFunction,Copper,L2,Bot*%
%TF.Part,Single*%
%TA.AperFunction,Conductor*%
%ADD13C,0.009843*%
%TA.AperFunction,ComponentPad*%
%ADD16R,0.062992X0.062992*%
%ADD17C,0.062992*%
%ADD18C,0.055118*%
%ADD19C,0.055118*%
%ADD20R,0.066929X0.066929*%
%ADD21C,0.066929*%
%ADD22C,0.07874*%
%ADD23R,0.051181X0.051181*%
%ADD24C,0.051181*%
%ADD25C,0.066929*%
%ADD26C,0.19685*%
%ADD27C,0.062992*%
%ADD28C,0.094488*%
%ADD29R,0.056693X0.056693*%
%ADD30C,0.056693*%
%ADD31O,0.137795X0.07874*%
%ADD32O,0.07874X0.15748*%
%ADD33R,0.070866X0.070866*%
%ADD34C,0.070866*%
%ADD35O,0.047244X0.06*%
%ADD36R,0.07874X0.181102*%
%ADD37O,0.07874X0.165354*%
%ADD38O,0.165354X0.07874*%
%ADD39R,0.07874X0.075*%
%ADD40O,0.07874X0.075*%
%ADD43C,0.056693*%
%ADD44C,0.06*%
%ADD45C,0.03937*%
%ADD46R,0.082677X0.082677*%
%ADD47C,0.082677*%
%TA.AperFunction,ViaPad*%
%ADD48C,0.04*%
G75*
G01*
%LPD*%
X7652756Y1395276D2*
D13*
X7586807Y1461225D1*
Y1524016D1*
X7606492Y1543701D1*
X7752756D1*
X7852756D1*
X7752756D2*
X7686807Y1609650D1*
Y2027752D1*
X7752756Y2093701D1*
X3802362Y3393701D2*
X3864374D1*
X3918115Y3339961D1*
X4148622D1*
X4168307Y3320276D1*
Y2813387D1*
X4187992Y2793701D1*
X4302756D1*
X1203150Y3793701D2*
X1367819Y3629032D1*
Y2913386D1*
X1304528Y2850095D1*
Y2796260D1*
X902756Y2394488D1*
X7792520Y4093701D2*
Y3929449D1*
X5402756Y2493701D2*
X5302756D1*
X5102756Y2293701D1*
X2068898Y1250984D2*
Y1316653D1*
X2156496Y1404252D1*
Y1741536D1*
X2157283Y1742323D1*
Y1843307D1*
X3502362Y3393701D2*
X3434296Y3461767D1*
Y3805197D1*
X7652756Y1195276D2*
X7581496Y1124016D1*
X7545079D1*
Y802559D1*
X7502756Y760236D1*
X6002756Y2793701D2*
Y2541929D1*
X5952599Y2491772D1*
X5932914Y2511457D1*
X5896185D1*
X5878429Y2493701D1*
X5876185D1*
X7352756Y1143701D2*
X7525393D1*
X7545079Y1124016D1*
X3002756Y2593701D2*
Y2393701D1*
X4602756Y2293701D2*
Y2493701D1*
X1503150Y2893701D2*
X1387503D1*
X1367819Y2913386D1*
X7403150Y2948425D2*
Y2848425D1*
X5902756Y2293701D2*
X5952599Y2343544D1*
Y2491772D1*
X4202559Y1793701D2*
X4248819Y1747441D1*
Y1247638D1*
X4302756Y1193701D1*
Y2593701D2*
X4202559Y2493504D1*
Y1793701D1*
X4302756Y2793701D2*
Y2736024D1*
X4280114D1*
X4260429Y2716339D1*
Y2636028D1*
X4302756Y2593701D1*
X7802756Y2893701D2*
X7881201D1*
X7949115Y2961615D1*
X8034842D1*
X8102756Y2893701D1*
X7802756Y3143701D2*
Y2893701D1*
X7852756Y3525984D2*
Y3143701D1*
X7802756D1*
X7792520Y3929449D2*
Y3874497D1*
X7797835Y3869182D1*
Y3580905D1*
X7852756Y3525984D1*
X2203150Y2693701D2*
Y2793701D1*
Y2593701D2*
Y2693701D1*
X2157283Y1843307D2*
Y1905319D1*
X2149016Y1913587D1*
Y2539567D1*
X2203150Y2593701D1*
X4602756Y2493701D2*
X4560429Y2536028D1*
Y2651374D1*
X4602756Y2693701D1*
X1052756Y593701D2*
X1153460Y492997D1*
X6731303D1*
X6750988Y512682D1*
Y1341933D1*
X6902756Y1493701D1*
X1052756Y793701D2*
Y593701D1*
X4049020Y2339961D2*
Y1839965D1*
X4384449Y2339961D2*
Y2855709D1*
X4364764Y2875394D1*
X4314248D1*
X4294563Y2895079D1*
Y3839961D1*
X2803150Y3693701D2*
X2722126D1*
Y3739961D1*
X5402756Y3893701D2*
X5028622D1*
X3633229Y1839965D2*
Y3293701D1*
X4049020Y1839965D2*
Y1139961D1*
X3961107D1*
X3941422Y1120276D1*
Y955039D1*
X3956500Y939961D1*
X4294563Y3839961D2*
X3419217D1*
X3399532Y3820276D1*
Y3693697D1*
X3502362Y2293701D2*
X3404138D1*
Y1959768D1*
X3423823Y1940083D1*
X3494174D1*
X2565158Y2339961D2*
Y3474012D1*
X2545468Y3493701D1*
X2203150D1*
X3423823Y1940083D2*
X3404138Y1920398D1*
Y1309174D1*
X2768898D2*
Y1250984D1*
X2714252Y2143859D2*
Y2072583D1*
X2649016Y2007347D1*
Y1429048D1*
X2568898Y1348929D1*
Y1250984D1*
X2430945Y2163548D2*
Y3065906D1*
X2203150Y3293701D1*
X2888701Y2138705D2*
Y2620316D1*
X2849410Y2659607D1*
Y2847441D1*
X2803150Y2893701D1*
X1848307Y2144256D2*
Y1118985D1*
X2168898Y798394D1*
Y650984D1*
X4102362Y2393701D2*
X4022445D1*
X4002756Y2374012D1*
Y1193701D1*
X2268898Y1250984D2*
Y1469591D1*
X2249410Y1489079D1*
Y2947441D1*
X2203150Y2993701D1*
X4002756Y793701D2*
X4088390Y879335D1*
Y993701D1*
X4068705Y1013386D1*
Y1113386D1*
X4088705Y1133386D1*
Y1343938D1*
X4148622D1*
X4088390Y993701D2*
X4302756D1*
X4068705Y1113386D2*
X4049020Y1093701D1*
X4002756D1*
X4148622Y1343938D2*
Y2447441D1*
X4102362Y2493701D1*
X3966307Y1279331D2*
Y2097997D1*
X3756209Y2543867D2*
Y2097997D1*
X2599922Y2543867D2*
Y3574012D1*
X2580232Y3593701D1*
X2203150D1*
X4194370Y1279331D2*
Y1202087D1*
X4302756Y1093701D1*
X3966307Y2097997D2*
Y2457645D1*
X4102362Y2593701D1*
X4302756Y1093701D2*
X4368705Y1027752D1*
Y859650D1*
X4302756Y793701D1*
X5402756Y993701D2*
Y1356830D1*
X5422442Y1376516D1*
X5531303D1*
X5550988Y1396201D1*
Y2137730D1*
X5483780Y2204938D1*
Y3320276D1*
X5464095Y3339961D1*
X4967599D1*
X4948622Y3358938D1*
X4918469D1*
X4913859Y3363548D1*
X2803150Y3593701D2*
X2658976D1*
X2639292Y3613386D1*
Y4122245D1*
X2619607Y4141930D1*
X1551378D1*
X1503150Y4093701D1*
X4998469Y3728465D2*
X5063705Y3793701D1*
X5402756D1*
X4928677Y3509969D2*
X4998469D1*
X3015839Y3593701D2*
Y3193701D1*
X2803150Y3493701D2*
X2869095Y3427756D1*
Y3344567D1*
Y3159646D1*
X2849410Y3139961D1*
X2776575D1*
X2756890Y3120276D1*
Y2448323D1*
X2849016Y2356197D1*
Y1312599D1*
X2812008Y1275591D1*
Y694094D1*
X2768898Y650984D1*
X5502756Y993701D2*
Y1322067D1*
X4893433Y3474725D2*
X5183780D1*
X5402756Y3693701D1*
X3195406Y3109489D2*
X3180327Y3124568D1*
Y3509489D1*
X3200012Y3529174D1*
X3240646D1*
X3260331Y3509489D1*
Y3383933D1*
X3299697Y3344567D1*
X3636839Y3455713D2*
Y3639961D1*
X2869095Y3344567D2*
X2962914Y3250748D1*
Y3109489D1*
X3434296Y3294729D2*
Y3161767D1*
X3502362Y3093701D1*
X5402756Y3693701D2*
X5751472D1*
X5771158Y3674016D1*
Y1772287D1*
X5850988Y1692457D1*
Y1322067D1*
X3299697Y3344567D2*
Y3639961D1*
X5602756Y993701D2*
X5650988Y1041933D1*
Y2170273D1*
X5581300Y2239961D1*
Y2289804D1*
X3161122Y2993701D2*
X3112008Y2944587D1*
Y952764D1*
X2668898D2*
Y650984D1*
X5581300Y2289804D2*
Y3574015D1*
X5561613Y3593701D1*
X5402756D1*
X2803150Y3293701D2*
X2696654D1*
X2676969Y3274016D1*
Y2187603D1*
X2549016Y2059650D1*
Y1514068D1*
X2512008Y1477060D1*
Y707874D1*
X2568898Y650984D1*
X2468898D2*
X2412008Y707874D1*
Y1609252D1*
X2449016Y1646260D1*
Y2079335D1*
X2642205Y2272524D1*
Y2839961D1*
X2961851Y1041930D2*
X2912008Y1091773D1*
Y1573111D1*
X2949016Y1610119D1*
Y2141044D1*
X2923544Y2166516D1*
Y2693701D1*
X2368898Y1022249D2*
Y650984D1*
X2923544Y2693701D2*
Y2973307D1*
X2803150Y3093701D1*
X3146772Y2293390D2*
Y2639961D1*
X2884174Y2728465D2*
Y2912677D1*
X2803150Y2993701D1*
X2268898Y650984D2*
Y826977D1*
X1937520Y1158355D1*
Y2293390D1*
X3146772Y2639961D2*
Y2728465D1*
X2368898Y1250984D2*
Y1309288D1*
X2349016Y1329170D1*
Y2074252D1*
X2361418Y2086654D1*
Y2513705D1*
X3502362Y2493701D2*
X3583386Y2412677D1*
Y2047126D1*
X5902756Y1993701D2*
X5841418D1*
X2361418Y2513705D2*
Y2935433D1*
X2203150Y3093701D1*
X2396181Y2436024D2*
Y3000670D1*
X2203150Y3193701D1*
X3598465Y1537445D2*
Y1962520D1*
X2468898Y1537445D2*
Y1250984D1*
X3502362Y2393701D2*
X3441020D1*
X3598465Y1962520D2*
X3548622Y2012363D1*
Y2347441D1*
X3502362Y2393701D1*
X1502756Y2394488D2*
X1588780Y2480512D1*
Y3208071D1*
X1503150Y3293701D1*
X6050988Y1728469D2*
Y2014079D1*
X6102756Y2065847D1*
Y2293701D1*
X3667992Y2439961D2*
Y1728469D1*
X1422268Y2993701D2*
X1503150D1*
X6402756Y2628784D2*
Y2793701D1*
X4937603Y2639961D2*
Y2874016D1*
X4917917Y2893701D1*
X4802756D1*
X6085748Y3393701D2*
Y3004458D1*
X6150985Y2939221D1*
Y1145472D1*
X6302756Y993701D1*
X2803150Y3793701D2*
X3045991D1*
X3065677Y3774016D1*
Y3633386D1*
X3923508Y3544886D2*
X3973351D1*
X5402756Y3393701D2*
X4963701D1*
X3065677Y3633386D2*
Y2327650D1*
X3012008Y2273981D1*
Y707874D1*
X3068898Y650984D1*
X3973351Y3544886D2*
Y3413386D1*
X3993035Y3393701D1*
X4102362D1*
X6720516Y3213386D2*
Y1961312D1*
X6650988Y1891784D1*
Y945469D1*
X6631303Y925784D1*
X6470673D1*
X6402756Y993701D1*
X2974122Y3394410D2*
Y3758934D1*
X2803150Y3893701D2*
X2974122D1*
X3384449Y3339961D2*
Y2383666D1*
X3312008Y2311225D1*
Y627560D1*
X3292323Y607875D1*
X3212007D1*
X3168898Y650984D1*
X7168284Y3229449D2*
Y3328741D1*
X7187968Y3348425D1*
X7303150D1*
X2869095Y4039961D2*
Y4161615D1*
X2849410Y4181300D1*
X856890D1*
X837205Y4161615D1*
Y3559646D1*
X856890Y3539961D1*
X949410D1*
X969095Y3559646D1*
Y3627756D1*
X903150Y3693701D1*
X4102362Y3293701D2*
X3869059D1*
X5402756D2*
X4950800D1*
X3268898Y650984D2*
X3212008Y707874D1*
Y2980548D1*
X3245248Y3013788D1*
Y3055040D1*
X3225563Y3074725D1*
X3165248D1*
X3145563Y3094410D1*
Y3974016D1*
X3125877Y3993701D1*
X2803150D1*
X6450985Y3168941D2*
Y2230315D1*
X6476575Y2204725D1*
Y2052761D1*
X6450988Y2027174D1*
Y1045469D1*
X6502756Y993701D1*
X4102362Y3193701D2*
X4011056D1*
X3961607Y3144252D1*
X3225563Y3074725D2*
X3245248Y3094410D1*
Y3144252D1*
X5402756Y3193701D2*
X4985563D1*
X2803150Y3993701D2*
X2737209Y4059642D1*
Y4141930D1*
X2717524Y4161615D1*
X876575D1*
X856890Y4141930D1*
Y3639961D1*
X903150Y3593701D1*
X4048406Y3139961D2*
X4070866D1*
X4102362Y3108464D1*
Y3093701D1*
X6602756Y993701D2*
X6550988Y1045469D1*
Y3074725D1*
X5402756Y3093701D2*
X5349016Y3039961D1*
X5067992D1*
X4423146Y3939961D2*
Y3074725D1*
X4102362Y3093701D2*
X4048410Y3039748D1*
Y2959646D1*
X4068095Y2939961D1*
X4128937D1*
X4148622Y2920276D1*
Y2659646D1*
X4128937Y2639961D1*
X3918823D1*
X3899138Y2620276D1*
Y1270670D1*
X3879452Y1250984D1*
X3368898D1*
X6550988Y3074725D2*
Y3369881D1*
X6570674Y3389567D1*
X6779725D1*
X6799410Y3409252D1*
Y3675001D1*
X6819095Y3694686D1*
X7329724D1*
X7349410Y3675000D1*
Y3294685D1*
X7303150Y3248425D1*
X7403150Y3148425D2*
X7356889Y3194686D1*
X7153202D1*
X7133517Y3214371D1*
Y3469881D1*
X7113831Y3489567D1*
X6893229D1*
X6873544Y3469882D1*
Y3013705D1*
X3225563Y3474725D2*
Y3294410D1*
X3280012Y3239961D1*
X4102362Y2993701D2*
X4148622Y3039960D1*
Y3220276D1*
X4128937Y3239961D1*
X3993957D1*
X5402756Y2993701D2*
X4977839D1*
Y3039961D1*
X1942441Y3539961D2*
Y3732992D1*
X2203150Y3993701D1*
X6873544Y3013705D2*
Y1561615D1*
X6702756Y1390827D1*
Y993701D1*
X3280012Y3239961D2*
Y2987272D1*
X3260429Y2967689D1*
Y1458674D1*
X3268898Y1450205D1*
Y1250984D1*
X6802756Y993701D2*
Y1104854D1*
X6950985Y1253083D1*
Y1521517D1*
X6991811Y1562343D1*
Y2893701D1*
X2014252Y2074729D2*
Y3589804D1*
X3168898Y2074729D2*
Y1250984D1*
X4102362Y2893701D2*
X3864374Y2655712D1*
Y2012363D1*
X1067008Y3539961D2*
Y3457559D1*
X903150Y3293701D1*
X6991811Y2893701D2*
Y3128741D1*
X7011495Y3148425D1*
X7303150D1*
X2014252Y3589804D2*
Y3704803D1*
X2203150Y3893701D1*
Y3793701D2*
X2249410Y3747441D1*
Y3659646D1*
X2599922D1*
X2619607Y3639961D1*
Y3559646D1*
X2639292Y3539961D1*
X2829725D1*
X2849410Y3559646D1*
Y3720276D1*
X2829725Y3739961D1*
X2776575D1*
X2756890Y3759646D1*
Y3820276D1*
X2776575Y3839961D1*
X3106193D1*
X3125878Y3820276D1*
Y3039961D1*
X7403150Y3048425D2*
X7356889Y3094686D1*
X7131635D1*
X7111949Y3075000D1*
Y2701890D1*
X1083465Y3828465D2*
X1101772Y3810158D1*
Y3392323D1*
X903150Y3193701D1*
X3125878Y3039961D2*
X3085363Y2999446D1*
Y1682422D1*
X3068898Y1665956D1*
Y1250984D1*
X7111949Y2701890D2*
Y1202894D1*
X6902756Y993701D1*
X2088071Y3339961D2*
Y3578622D1*
X2203150Y3693701D1*
X3008150Y2939961D2*
X2958307Y2890118D1*
Y2271410D1*
X2968898Y2260819D1*
Y1250984D1*
X7002756Y993701D2*
X7202252Y1193197D1*
Y2701615D1*
X4498925Y2505197D2*
Y2639961D1*
X7202252Y2701615D2*
X7349410D1*
Y3002165D1*
X7303150Y3048425D1*
X7652756Y1493701D2*
X7699015D1*
X7718701Y1474016D1*
X7979331D1*
X7999016Y1493701D1*
Y1993701D1*
Y2234749D1*
X7954528Y2279237D1*
Y2845473D1*
X8002756Y2893701D1*
X1203150Y3203150D2*
X1121457Y3284843D1*
Y3874016D1*
X1101771Y3893701D1*
X1155508Y3947438D1*
X1437204D1*
X1456889Y3927752D1*
X1476575Y3947438D1*
X1556493D1*
X1702756Y4093701D1*
X7841339Y593701D2*
Y849606D1*
X4802559Y1493701D2*
X4756299Y1447441D1*
X4668504D1*
X4648819Y1427756D1*
Y1059646D1*
X4668504Y1039961D1*
X4749020D1*
X4768705Y1020276D1*
Y759646D1*
X4749020Y739961D1*
X4676181D1*
X4656496Y720276D1*
Y654726D1*
X4702756Y608465D1*
Y593701D1*
X1052756Y893701D2*
X974020D1*
X954331Y874012D1*
Y768623D1*
X934646Y748938D1*
X479528D1*
Y793701D1*
X1456889Y3927752D2*
Y3639961D1*
X1503150Y3593701D1*
X5102756Y2884252D2*
X5016542Y2798038D1*
Y2459646D1*
X4996857Y2439961D1*
X4776182D1*
X4741418Y2405197D1*
X7702756Y2893701D2*
X7650201Y2946256D1*
Y3840517D1*
X7704370Y3894686D1*
X1503150Y2793701D2*
X1449016Y2739567D1*
Y2148228D1*
X1502756Y2094488D1*
X4102362Y2193701D2*
X4102363Y1693705D1*
X6602756Y1993701D2*
Y1541930D1*
X6685752Y3079729D2*
Y3275909D1*
X6753150Y3343307D1*
X5952599Y3139961D2*
Y2843544D1*
X5902756Y2793701D1*
X954331Y593701D2*
Y768623D1*
X2902756Y1693701D2*
Y1993701D1*
X3686681Y3658938D2*
Y2803154D1*
X903150Y3993701D2*
Y3893701D1*
X7002756Y1493701D2*
Y1393701D1*
X4668504Y1447441D2*
X4648819Y1467126D1*
Y1693705D1*
X7402756Y1093701D2*
Y624606D1*
X8052756Y1993701D2*
X7999016D1*
X7652756Y1293701D2*
Y1339965D1*
X7699016D1*
Y1454331D1*
X7718701Y1474016D1*
X7841339Y849606D2*
Y1105118D1*
X7652756Y1293701D1*
X4002756Y593701D2*
X3920374D1*
X3788091Y725984D1*
X4702756Y593701D2*
X4636810D1*
X4590551Y639961D1*
X4049016D1*
X4002756Y593701D1*
X903150Y3893701D2*
X1101771D1*
X954331Y768623D2*
D3*
X6943740Y2631457D2*
Y3333897D1*
X7053150Y3443307D1*
X4602756Y2593701D2*
X4645079Y2636024D1*
Y2875394D1*
X4625394Y2895079D1*
X4384453D1*
X4364768Y2914764D1*
Y3739961D1*
X4802756Y2693701D2*
X4704133D1*
X4684449Y2713386D1*
Y3590394D1*
X4634882Y3639961D1*
X5137520D2*
X4759382D1*
X6302756Y1493701D2*
X6249016Y1547441D1*
Y2239961D1*
X6302756Y2293701D1*
X6402756Y1493701D2*
X6350985Y1545472D1*
Y2028941D1*
X6328937Y2050989D1*
Y2160926D1*
X6402756Y2234745D1*
Y2293701D1*
X6202756D2*
Y2506441D1*
X6250985Y2554670D1*
Y3494686D1*
X6102756Y2937075D2*
Y2793701D1*
X5449016Y2937075D2*
Y3120276D1*
X5429331Y3139961D1*
X4856496D1*
X4802756Y3193701D1*
X6202756Y3039961D2*
Y2793701D1*
X5237292Y3093701D2*
X4802756D1*
X6753150Y3443307D2*
X6294564Y3901892D1*
X6152756D1*
X3441020Y2593701D2*
Y2639961D1*
X3578780D1*
X3598465Y2659646D1*
Y3674016D1*
X3618150Y3693701D1*
X4102362D1*
X3502362Y3993701D2*
X3548622Y4039961D1*
X4538961D1*
X4558646Y4020276D1*
Y3162548D1*
X4664764Y3056430D1*
Y2267130D1*
X4645079Y2247445D1*
X4349012D1*
X4302756Y2293701D1*
X4102362Y3893701D2*
X4056102Y3939961D1*
X3364764D1*
X3345079Y3920276D1*
Y2436024D1*
X3302756Y2393701D1*
X7202756Y760236D2*
X7283071D1*
X7302756Y740551D1*
Y624606D1*
X7502756Y871654D2*
X7443111Y812008D1*
Y684252D1*
X7502756Y624606D1*
X6302756Y1855044D2*
Y1993701D1*
X4448819Y1855044D2*
Y759646D1*
X4429134Y739961D1*
X4256496D1*
X4236811Y759646D1*
Y827756D1*
X4302756Y893701D1*
X652756Y951181D2*
Y1178346D1*
X802166Y1327756D1*
Y1399603D1*
X821855Y1419291D1*
X952756D1*
X479528Y951181D2*
Y1399602D1*
X499217Y1419291D1*
X704724D1*
X4883780Y2520280D2*
Y2820276D1*
X4864095Y2839961D1*
X4776181D1*
X4756496Y2859646D1*
Y3247441D1*
X4802756Y3293701D1*
X7702756Y2393701D2*
X7508464D1*
X7488780Y2413386D1*
Y3894686D1*
X7469095Y3914371D1*
X6958578D1*
X6779247Y4093701D1*
X5402756D1*
Y3993701D2*
X6768886D1*
X6867902Y3894686D1*
X7449409D1*
X7469095Y3875000D1*
Y2345469D1*
X7488780Y2325784D1*
X7734839D1*
X7802756Y2393701D1*
X7702756Y2793701D2*
X7578936D1*
X7559252Y2813386D1*
Y3934056D1*
X7539567Y3953741D1*
X7224310D1*
X7018405Y4159646D1*
X4968701D1*
X4802756Y3993701D1*
X7802756Y2793701D2*
X7754527Y2841930D1*
X7630516D1*
X7610831Y2861615D1*
Y3953741D1*
X7591146Y3973426D1*
X7308560D1*
X7102655Y4179331D1*
X4756496D1*
X4736811Y4159646D1*
Y3959646D1*
X4802756Y3893701D1*
X7702756Y2693701D2*
X7528149D1*
X7508465Y2713386D1*
Y3914371D1*
X7488780Y3934056D1*
X7059181D1*
X6853276Y4139961D1*
X5149016D1*
X4802756Y3793701D1*
X6350985Y3539961D2*
Y2741930D1*
X5207048Y3693701D2*
X4802756D1*
X6050985Y2541930D2*
Y3720276D1*
X6031300Y3739961D1*
X5324154D1*
X5177894Y3593701D1*
X4802756D1*
X5518544Y2374729D2*
Y3420276D1*
X5498859Y3439961D1*
X4856496D1*
X4802756Y3493701D1*
X7802756Y2593701D2*
X7866063D1*
X5446130Y3239961D2*
X4888386D1*
X4868701Y3259646D1*
Y3327756D1*
X4802756Y3393701D1*
X6485748Y2493701D2*
Y3239961D1*
X7702756Y2493701D2*
X7553973D1*
X6037524Y639008D2*
X5911198Y512682D1*
X4951894D1*
X4932209Y532367D1*
Y823154D1*
X5002756Y893701D1*
X6883217Y639008D2*
X7115863Y871654D1*
X7202756D1*
X4002756Y993701D2*
Y893701D1*
X4702756Y993701D2*
Y893701D1*
X6753150Y3643307D2*
X6735433Y3661024D1*
Y3856299D1*
X6753150Y3543307D2*
X6681296Y3615161D1*
Y3876965D1*
X6735433Y3931102D1*
X4763898Y1626536D2*
X4802559Y1665197D1*
Y1793701D1*
X7952756Y1843701D2*
X7899016Y1897441D1*
Y2039961D1*
X7952756Y2093701D1*
X7852756Y1843701D2*
X7799016Y1897441D1*
Y2039961D1*
X7852756Y2093701D1*
X3721445Y2239961D2*
Y3620276D1*
X3741130Y3639961D1*
X4128937D1*
X4148622Y3659646D1*
Y3747441D1*
X4102362Y3793701D1*
X2802756Y1993701D2*
Y2239961D1*
X7692520Y4193701D2*
X7742520Y4143701D1*
Y3793701D1*
X5841422Y3705197D2*
Y2134650D1*
X7852756Y3711024D2*
X7899016Y3757283D1*
Y3839961D1*
X7834843Y3904134D1*
Y4151378D1*
X7792520Y4193701D1*
X7750193Y4236028D1*
X7614764D1*
X7595079Y4216343D1*
Y4050197D1*
X7575394Y4030512D1*
X7412500D1*
X7243996Y4199016D1*
X4723819D1*
X4704134Y4179331D1*
Y2813386D1*
X4723818Y2793701D1*
X4802756D1*
X2868898Y1250984D2*
Y989355D1*
X2912008Y946245D1*
Y567123D1*
X2931693Y547438D1*
X4256493D1*
X4302756Y593701D1*
X2002756Y4093701D2*
X2056496Y4039961D1*
X2304264D1*
X4102362Y3493701D2*
X4235507D1*
X4255193Y3474016D1*
Y2875394D1*
X4274878Y2855709D1*
X4345079D1*
X4364764Y2836024D1*
Y2480127D1*
X4260429Y2375792D1*
Y2167126D1*
X4280114Y2147441D1*
X5234843D1*
Y2274016D1*
X5254528Y2293701D1*
X5402756D1*
X4702756Y1093701D2*
Y1193701D1*
X1789335Y3439961D2*
X1407189D1*
X1387504Y3459646D1*
Y3836028D1*
X1367819Y3855713D1*
X1160827D1*
X1141142Y3836028D1*
Y3422591D1*
X1284843Y3278890D1*
Y3175394D1*
X903150Y2793701D1*
X5234843Y2147441D2*
X5254528Y2127756D1*
Y1453615D1*
X5274213Y1433930D1*
X5442985D1*
X5502756Y1493701D1*
X4702756Y1193701D2*
X4848819Y1339764D1*
Y1467918D1*
X4868504Y1487603D1*
X5015032D1*
X5068705Y1433930D1*
Y859650D1*
X5002756Y793701D1*
X5254528Y1453615D2*
X5234843Y1433930D1*
X5068705D1*
X5336803Y2839965D2*
X5230508Y2946260D1*
X4850197D1*
X4802756Y2993701D1*
X1902756Y4093701D2*
Y3831997D1*
X1883071Y3812312D1*
Y3693701D1*
X1902756Y3674016D1*
Y1572209D1*
X7721571Y1661304D2*
X7706492Y1676383D1*
Y1947437D1*
X7752756Y1993701D1*
X1883071Y3693701D2*
X1503150D1*
X7964961Y3390157D2*
Y3444291D1*
X7996457Y3475787D1*
Y3659843D1*
X8050591D1*
X8070276Y3679528D1*
Y3909839D1*
X8050587Y3929528D1*
X7964961D1*
X3502362Y3793701D2*
Y3739961D1*
X3562363D1*
X5402756Y2193701D2*
Y1576693D1*
X5902756Y1493701D2*
Y1576693D1*
X3240650Y3739961D2*
Y4181300D1*
X3220965Y4200985D1*
X817520D1*
X797835Y4181300D1*
Y3099016D1*
X903150Y2993701D1*
X3562363Y3739961D2*
Y2906535D1*
X3563701Y2905197D1*
X3807461Y3593701D2*
X3992819D1*
X4012506Y3574014D1*
Y3459646D1*
X4032191Y3439961D1*
X4168307D1*
X4187992Y3420276D1*
Y2855709D1*
X4207677Y2836024D1*
X4325394D1*
X4345079Y2816339D1*
Y2736024D1*
X4302756Y2693701D1*
X2668898Y1250984D2*
X2723662Y1305748D1*
Y1402997D1*
X2485394Y3270788D2*
X2362480Y3393701D1*
X2203150D1*
X6819095Y1611461D2*
Y3575001D1*
X6838780Y3594686D1*
X7249410D1*
X7303150Y3648425D1*
X5103469Y1399166D2*
Y694414D1*
X5002756Y593701D1*
X5602756Y1493701D2*
Y1376515D1*
X5583072Y1356831D1*
X5470673D1*
X5450988Y1337146D1*
Y945469D1*
X5431303Y925784D1*
X5370673D1*
X5350988Y945469D1*
Y1151647D1*
X5103469Y1399166D1*
X5602760Y1611461D2*
X5602756Y1493701D1*
X2723662Y1402997D2*
Y1452839D1*
X2749016Y1478193D1*
Y1739965D1*
X2668701Y1820280D1*
Y1865162D1*
X2749016Y1945477D1*
Y2180572D1*
X2711733Y2217855D1*
Y3255709D1*
X5805922Y3493701D2*
Y1873587D1*
X6002756Y1676752D1*
Y1493701D1*
X2802756Y1693701D2*
Y1378701D1*
X5002756Y993701D2*
Y1093701D1*
X5402756Y3493701D2*
X5464095D1*
X7664173Y849606D2*
Y593701D1*
X1349016Y1739965D2*
Y2820276D1*
X1368701Y2839961D1*
X1529725D1*
X1549410Y2859646D1*
Y3047441D1*
X1503150Y3093701D1*
X6002756Y1493701D2*
Y1406099D1*
Y1093702D1*
X5002756Y1093701D2*
X4951894Y1144563D1*
Y1378701D1*
X4956776Y1452839D2*
X4868504Y1364567D1*
Y713386D1*
X4848819Y693701D1*
X4702756D1*
X7237016Y1443504D2*
Y2346437D1*
X7449410Y2558831D1*
Y3602165D1*
X7403150Y3648425D1*
X2049016Y1502682D2*
Y2739567D1*
X2203150Y2893701D1*
X5701634Y1767130D2*
Y1594823D1*
X5802756Y1493701D1*
X4702756Y793701D2*
X4548819Y947638D1*
Y1892993D1*
X5449016Y1767130D2*
Y2547441D1*
X5402756Y2593701D1*
X5802756Y1493701D2*
X5750988Y1441933D1*
Y552052D1*
X5731303Y532367D1*
X4971579D1*
X4951894Y552052D1*
Y642839D1*
X5002756Y693701D1*
D48*
X7792520Y3929449D3*
X3434296Y3805197D3*
X5876185Y2493701D3*
X3956500Y939961D3*
X3399532Y3693697D3*
X5028622Y3893701D3*
X4294563Y3839961D3*
X4384449Y2339961D3*
X4049020D3*
X3633229Y3293701D3*
Y1839965D3*
X4049020D3*
X2722126Y3739961D3*
X3494174Y1940083D3*
X2565158Y2339961D3*
X3404138Y1309174D3*
X2768898D3*
X2430945Y2163548D3*
X2714252Y2143859D3*
X1848307Y2144256D3*
X2888701Y2138705D3*
X4148622Y1343938D3*
X3966307Y2097997D3*
X3756209D3*
Y2543867D3*
X2599922D3*
X3966307Y1279331D3*
X4194370D3*
X4998469Y3728465D3*
Y3509969D3*
X4928677D3*
X4913859Y3363548D3*
X3015839Y3193701D3*
Y3593701D3*
X5502756Y1322067D3*
X5850988D3*
X3299697Y3639961D3*
X3636839D3*
Y3455713D3*
X4893433Y3474725D3*
X2962914Y3109489D3*
X3195406D3*
X3434296Y3294729D3*
X3299697Y3344567D3*
X5581300Y2289804D3*
X3112008Y952764D3*
X2668898D3*
X3161122Y2993701D3*
X2642205Y2839961D3*
X2923544Y2693701D3*
X2961851Y1041930D3*
X2368898Y1022249D3*
X3146772Y2728465D3*
X2884174D3*
X1937520Y2293390D3*
X3146772D3*
Y2639961D3*
X2361418Y2513705D3*
X3583386Y2047126D3*
X5841418Y1993701D3*
X2396181Y2436024D3*
X3441020Y2393701D3*
X3598465Y1537445D3*
X2468898D3*
X3598465Y1962520D3*
X6050988Y1728469D3*
X3667992D3*
Y2439961D3*
X1422268Y2993701D3*
X6402756Y2628784D3*
X4937603Y2639961D3*
X6085748Y3393701D3*
X4963701D3*
X3973351Y3544886D3*
X3923508D3*
X3065677Y3633386D3*
X6720516Y3213386D3*
X2974122Y3758934D3*
Y3893701D3*
X3384449Y3339961D3*
X7168284Y3229449D3*
X2869095Y4039961D3*
X2974122Y3394410D3*
X3869059Y3293701D3*
X4950800D3*
X6450985Y3168941D3*
X3961607Y3144252D3*
X3245248D3*
X4985563Y3193701D3*
X5067992Y3039961D3*
X4423146Y3074725D3*
X4048406Y3139961D3*
X4423146Y3939961D3*
X6550988Y3074725D3*
X6873544Y3013705D3*
X3280012Y3239961D3*
X3993957D3*
X4977839Y3039961D3*
X1942441Y3539961D3*
X3225563Y3474725D3*
X3864374Y2012363D3*
X2014252Y2074729D3*
X3168898D3*
X1067008Y3539961D3*
X6991811Y2893701D3*
X2014252Y3589804D3*
X1083465Y3828465D3*
X3125878Y3039961D3*
X7111949Y2701890D3*
X3008150Y2939961D3*
X7202252Y2701615D3*
X4498925Y2639961D3*
Y2505197D3*
X2088071Y3339961D3*
X4741418Y2405197D3*
X6602756Y1541930D3*
X6685752Y3079729D3*
X5952599Y3139961D3*
X3686681Y2803154D3*
Y3658938D3*
X4648819Y1693705D3*
X7704370Y3894686D3*
X4102363Y1693705D3*
X6943740Y2631457D3*
X4364768Y3739961D3*
X4759382Y3639961D3*
X5137520D3*
X4634882D3*
X6250985Y3494686D3*
X6102756Y2937075D3*
X5449016D3*
X6202756Y3039961D3*
X5237292Y3093701D3*
X3441020Y2593701D3*
X6302756Y1855044D3*
X4448819D3*
X4883780Y2520280D3*
X6350985Y2741930D3*
Y3539961D3*
X5207048Y3693701D3*
X6050985Y2541930D3*
X5518544Y2374729D3*
X7866063Y2593701D3*
X5446130Y3239961D3*
X6485748D3*
Y2493701D3*
X7553973D3*
X6037524Y639008D3*
X6883217D3*
X4763898Y1626536D3*
X3721445Y2239961D3*
X2802756D3*
X5841422Y2134650D3*
Y3705197D3*
X2304264Y4039961D3*
X1789335Y3439961D3*
X5336803Y2839965D3*
X1902756Y1572209D3*
X7721571Y1661304D3*
X3563701Y2905197D3*
X5402756Y1576693D3*
X5902756D3*
X3240650Y3739961D3*
X3562363D3*
X3807461Y3593701D3*
X2711733Y3255709D3*
X2485394Y3270788D3*
X2723662Y1402997D3*
X5103469Y1399166D3*
X5602760Y1611461D3*
X6819095D3*
X2802756Y1378701D3*
X4951894D3*
X5805922Y3493701D3*
X5464095D3*
X1349016Y1739965D3*
X6002756Y1093702D3*
X4956776Y1452839D3*
X7237016Y1443504D3*
X2049016Y1502682D3*
X4548819Y1892993D3*
X5701634Y1767130D3*
X5449016D3*
D16*
X902756Y2094488D3*
D17*
X1002756D3*
X1102756D3*
X1202756D3*
X1302756D3*
X1402756D3*
X1502756D3*
Y2394488D3*
X1402756D3*
X1302756D3*
X1202756D3*
X1102756D3*
X1002756D3*
X902756D3*
D16*
X2803150Y2593701D3*
D17*
Y2693701D3*
Y2793701D3*
Y2893701D3*
Y2993701D3*
Y3093701D3*
Y3193701D3*
Y3293701D3*
Y3393701D3*
Y3493701D3*
Y3593701D3*
Y3693701D3*
Y3793701D3*
Y3893701D3*
Y3993701D3*
Y4093701D3*
X2203150D3*
Y3993701D3*
Y3893701D3*
Y3793701D3*
Y3693701D3*
Y3593701D3*
Y3493701D3*
Y3393701D3*
Y3293701D3*
Y3193701D3*
Y3093701D3*
Y2993701D3*
Y2893701D3*
Y2793701D3*
Y2693701D3*
Y2593701D3*
D18*
X4602756D3*
D19*
X4302756D3*
D16*
X4802756Y4093701D3*
D17*
Y3993701D3*
Y3893701D3*
Y3793701D3*
Y3693701D3*
Y3593701D3*
Y3493701D3*
Y3393701D3*
Y3293701D3*
Y3193701D3*
Y3093701D3*
Y2993701D3*
Y2893701D3*
Y2793701D3*
Y2693701D3*
Y2593701D3*
Y2493701D3*
Y2393701D3*
Y2293701D3*
Y2193701D3*
X5402756D3*
Y2293701D3*
Y2393701D3*
Y2493701D3*
Y2593701D3*
Y2693701D3*
Y2793701D3*
Y2893701D3*
Y2993701D3*
Y3093701D3*
Y3193701D3*
Y3293701D3*
Y3393701D3*
Y3493701D3*
Y3593701D3*
Y3693701D3*
Y3793701D3*
Y3893701D3*
Y3993701D3*
Y4093701D3*
D20*
X6302756Y993701D3*
D21*
X6402756D3*
X6502756D3*
X6602756D3*
X6702756D3*
X6802756D3*
X6902756D3*
X7002756D3*
D22*
X7664173Y593701D3*
Y849606D3*
X7841339Y593701D3*
Y849606D3*
D20*
X7002756Y1393701D3*
D21*
X6902756D3*
X7002756Y1493701D3*
X6902756D3*
D23*
X7302756Y1093701D3*
D24*
X7352756Y1143701D3*
X7402756Y1093701D3*
D22*
X6402756Y2143701D3*
X6009055D3*
D20*
X7702756Y2893701D3*
D21*
X7802756D3*
X7702756Y2793701D3*
X7802756D3*
X7702756Y2693701D3*
X7802756D3*
X7702756Y2593701D3*
X7802756D3*
X7702756Y2493701D3*
X7802756D3*
X7702756Y2393701D3*
X7802756D3*
D20*
X5902756Y2793701D3*
D25*
X6002756D3*
X6102756D3*
X6202756D3*
X6302756D3*
X6402756D3*
D26*
X552756Y4143701D3*
Y2017717D3*
X7481890Y4143701D3*
Y2017717D3*
D16*
X7403150Y3848425D3*
D27*
X7303150D3*
X7403150Y3748425D3*
X7303150D3*
X7403150Y3648425D3*
X7303150D3*
X7403150Y3548425D3*
X7303150D3*
X7403150Y3448425D3*
X7303150D3*
X7403150Y3348425D3*
X7303150D3*
X7403150Y3248425D3*
X7303150D3*
X7403150Y3148425D3*
X7303150D3*
X7403150Y3048425D3*
X7303150D3*
X7403150Y2948425D3*
X7303150D3*
X7403150Y2848425D3*
X7303150D3*
D20*
X5302756Y1493701D3*
D21*
X5402756D3*
X5502756D3*
X5602756D3*
X5702756D3*
X5802756D3*
X5902756D3*
X6002756D3*
D18*
X7752756Y1843701D3*
D19*
Y1543701D3*
D16*
X4702756Y1193701D3*
D17*
Y1093701D3*
Y993701D3*
Y893701D3*
Y793701D3*
Y693701D3*
Y593701D3*
X5002756D3*
Y693701D3*
Y793701D3*
Y893701D3*
Y993701D3*
Y1093701D3*
Y1193701D3*
D16*
X3502362Y4093701D3*
D17*
Y3993701D3*
Y3893701D3*
Y3793701D3*
Y3693701D3*
Y3593701D3*
Y3493701D3*
Y3393701D3*
Y3293701D3*
Y3193701D3*
Y3093701D3*
Y2993701D3*
Y2893701D3*
Y2793701D3*
Y2693701D3*
Y2593701D3*
Y2493701D3*
Y2393701D3*
Y2293701D3*
Y2193701D3*
X4102362D3*
Y2293701D3*
Y2393701D3*
Y2493701D3*
Y2593701D3*
Y2693701D3*
Y2793701D3*
Y2893701D3*
Y2993701D3*
Y3093701D3*
Y3193701D3*
Y3293701D3*
Y3393701D3*
Y3493701D3*
Y3593701D3*
Y3693701D3*
Y3793701D3*
Y3893701D3*
Y3993701D3*
Y4093701D3*
D18*
X3002756Y2593701D3*
D19*
X3302756D3*
D28*
X2503150Y3193701D3*
Y3784252D3*
D18*
X8052756Y1543701D3*
D19*
Y1843701D3*
D18*
X7202756Y871654D3*
D19*
X7502756D3*
D18*
X7692520Y4193701D3*
D19*
Y4093701D3*
D20*
X6302756Y1493701D3*
D21*
X6402756D3*
D29*
X2068898Y650984D3*
D30*
X2168898D3*
X2268898D3*
X2368898D3*
X2468898D3*
X2568898D3*
X2668898D3*
X2768898D3*
X2868898D3*
X2968898D3*
X3068898D3*
X3168898D3*
X3268898D3*
X3368898D3*
Y1250984D3*
X3268898D3*
X3168898D3*
X3068898D3*
X2968898D3*
X2868898D3*
X2768898D3*
X2668898D3*
X2568898D3*
X2468898D3*
X2368898D3*
X2268898D3*
X2168898D3*
X2068898D3*
D16*
X4202559Y1493701D3*
D17*
X4302559D3*
X4402559D3*
X4502559D3*
X4602559D3*
X4702559D3*
X4802559D3*
Y1793701D3*
X4702559D3*
X4602559D3*
X4502559D3*
X4402559D3*
X4302559D3*
X4202559D3*
D16*
X7852756Y3711024D3*
D27*
Y3608661D3*
Y3793701D3*
Y3525984D3*
X7742520Y3793701D3*
Y3525984D3*
D31*
X7964961Y3390157D3*
D32*
X7996457Y3659843D3*
D31*
X7964961Y3929528D3*
D18*
X7792520Y4193701D3*
D19*
Y4093701D3*
D18*
X4602756Y2793701D3*
D19*
X4302756D3*
D16*
X2002756Y1693701D3*
D17*
X2102756D3*
X2202756D3*
X2302756D3*
X2402756D3*
X2502756D3*
X2602756D3*
X2702756D3*
X2802756D3*
X2902756D3*
Y1993701D3*
X2802756D3*
X2702756D3*
X2602756D3*
X2502756D3*
X2402756D3*
X2302756D3*
X2202756D3*
X2102756D3*
X2002756D3*
D18*
X7952756Y1843701D3*
D19*
Y1543701D3*
D26*
X552756Y543701D3*
D33*
X7302756Y1493701D3*
D34*
X7402756D3*
D28*
X1203150Y3793701D3*
Y3203150D3*
D20*
X1702756Y4093701D3*
D21*
X1802756D3*
X1902756D3*
X2002756D3*
D20*
X5302756Y993701D3*
D21*
X5402756D3*
X5502756D3*
X5602756D3*
X5702756D3*
X5802756D3*
X5902756D3*
X6002756D3*
D16*
X4002756Y1193701D3*
D17*
Y1093701D3*
Y993701D3*
Y893701D3*
Y793701D3*
Y693701D3*
Y593701D3*
X4302756D3*
Y693701D3*
Y793701D3*
Y893701D3*
Y993701D3*
Y1093701D3*
Y1193701D3*
D35*
X479528Y872441D3*
X652756D3*
X479528Y951181D3*
Y793701D3*
X652756Y951181D3*
Y793701D3*
D36*
X952756Y1419291D3*
D37*
X704724D3*
D38*
X838583Y1230315D3*
D39*
X1052756Y793701D3*
D40*
Y893701D3*
Y993701D3*
D27*
X7652756Y1195276D3*
Y1293701D3*
D18*
X7502756Y760236D3*
D19*
X7202756D3*
D28*
X2157283Y1843307D3*
X2747835D3*
D18*
X4602756Y2293701D3*
D19*
X4302756D3*
D18*
X4602756Y2493701D3*
D19*
X4302756D3*
D16*
X6753150Y3643307D3*
D17*
Y3543307D3*
Y3443307D3*
Y3343307D3*
X7053150D3*
Y3443307D3*
Y3543307D3*
Y3643307D3*
D27*
X1052756Y593701D3*
X954331D3*
D18*
X7852756Y1843701D3*
D19*
Y1543701D3*
D22*
X3788091Y725984D3*
Y1119685D3*
D16*
X5902756Y1993701D3*
D17*
X6002756D3*
X6102756D3*
X6202756D3*
X6302756D3*
X6402756D3*
X6502756D3*
X6602756D3*
Y2293701D3*
X6502756D3*
X6402756D3*
X6302756D3*
X6202756D3*
X6102756D3*
X6002756D3*
X5902756D3*
D33*
X7402756Y624606D3*
D34*
X7502756D3*
D26*
X8052756Y543701D3*
D33*
X7202756Y624606D3*
D34*
X7302756D3*
D43*
X7802756Y3143701D3*
X7902756Y3243701D3*
X8002756Y3143701D3*
D16*
X7752756Y1993701D3*
D27*
X7852756D3*
D44*
X7952756D3*
D16*
X8052756D3*
D27*
Y2093701D3*
X7952756D3*
X7852756D3*
X7752756D3*
D45*
X6735433Y3856299D3*
Y3931102D3*
D16*
X1503150Y2793701D3*
D17*
Y2893701D3*
Y2993701D3*
Y3093701D3*
Y3193701D3*
Y3293701D3*
Y3393701D3*
Y3493701D3*
Y3593701D3*
Y3693701D3*
Y3793701D3*
Y3893701D3*
Y3993701D3*
Y4093701D3*
X903150D3*
Y3993701D3*
Y3893701D3*
Y3793701D3*
Y3693701D3*
Y3593701D3*
Y3493701D3*
Y3393701D3*
Y3293701D3*
Y3193701D3*
Y3093701D3*
Y2993701D3*
Y2893701D3*
Y2793701D3*
D26*
X8052756Y4143701D3*
D20*
X8002756Y2893701D3*
D21*
X8102756D3*
X8002756Y2793701D3*
X8102756D3*
D28*
X5102756Y2293701D3*
Y2884252D3*
D18*
X4602756Y2693701D3*
D19*
X4302756D3*
D18*
X3002756Y2393701D3*
D19*
X3302756D3*
D28*
X3802362Y3393701D3*
Y2803150D3*
D27*
X7652756Y1395276D3*
Y1493701D3*
D46*
X6152756Y3901892D3*
D47*
Y3134176D3*
M02*
