%TF.GenerationSoftware,Novarm,DipTrace,4.3.0.4*%
%TF.CreationDate,2023-05-12T23:22:00+01:00*%
%FSLAX26Y26*%
%MOIN*%
%TF.FileFunction,Copper,L2,Bot*%
%TF.Part,Single*%
%TA.AperFunction,Conductor*%
%ADD13C,0.009843*%
%TA.AperFunction,ComponentPad*%
%ADD16C,0.055118*%
%ADD17C,0.055118*%
%ADD18R,0.062992X0.062992*%
%ADD19C,0.062992*%
%ADD20R,0.066929X0.066929*%
%ADD21C,0.066929*%
%ADD22C,0.07874*%
%ADD23R,0.051181X0.051181*%
%ADD24C,0.051181*%
%ADD25C,0.066929*%
%ADD26C,0.19685*%
%ADD27C,0.062992*%
%ADD28C,0.06*%
%ADD29C,0.094488*%
%ADD30R,0.056693X0.056693*%
%ADD31C,0.056693*%
%ADD32O,0.137795X0.07874*%
%ADD33O,0.07874X0.15748*%
%ADD34O,0.047244X0.06*%
%ADD35R,0.181102X0.07874*%
%ADD36O,0.165354X0.07874*%
%ADD37O,0.07874X0.165354*%
%ADD38R,0.07874X0.075*%
%ADD39O,0.07874X0.075*%
%ADD40R,0.070866X0.070866*%
%ADD41C,0.070866*%
%ADD42R,0.082677X0.082677*%
%ADD43C,0.082677*%
%ADD46C,0.056693*%
%ADD47C,0.03937*%
%TA.AperFunction,ViaPad*%
%ADD48C,0.04*%
G75*
G01*
%LPD*%
X7750000Y2100000D2*
D13*
X7796260Y2053740D1*
Y1946260D1*
X7750000Y1900000D1*
X7703744Y1853744D1*
Y1562284D1*
X7723429Y1542599D1*
Y1475004D1*
X7643701Y1395276D1*
X7723429Y1542599D2*
X7792599D1*
X7850000Y1600000D1*
X7683465Y4093701D2*
Y4034158D1*
X7678539Y4029233D1*
Y3837075D1*
X1193701Y2194488D2*
Y2269091D1*
X1618311Y2693702D1*
Y3549410D1*
X1574020Y3593701D1*
X1494094D1*
X678705Y2194489D2*
Y1413386D1*
X659020Y1393701D1*
X593701D1*
X6893701D2*
X6833071Y1454330D1*
Y1671643D1*
X6901102Y1739674D1*
Y2051102D1*
X6950000Y2100000D1*
X7394094Y2948425D2*
Y2848425D1*
X4143701Y1250000D2*
Y850000D1*
X4093701Y800000D1*
X7643701Y1195276D2*
X7572441Y1124016D1*
X7536027D1*
Y802563D1*
X7493701Y760236D1*
X3793307Y3393701D2*
X3703819Y3483189D1*
Y3705197D1*
X5393701Y2493701D2*
X5347437Y2447437D1*
Y2251697D1*
X1574020Y3593701D2*
X1593701Y3613382D1*
Y4193701D1*
X6800394Y2199606D2*
Y2446264D1*
X6206496Y2796850D2*
Y2565630D1*
X1618311Y2693702D2*
Y2693701D1*
X1794094D1*
X7343701Y1143701D2*
X7516342D1*
X7536027Y1124016D1*
X2993701Y2593701D2*
Y2393701D1*
X3188130Y3393701D2*
Y3239961D1*
X2194094Y2793701D2*
Y2693701D1*
X7100000Y2493701D2*
Y2404804D1*
X7793701Y3143701D2*
Y2893701D1*
X7678539Y3837075D2*
Y3748426D1*
X7793700Y3633265D1*
X7793701Y3525985D1*
Y3143701D1*
X4100000Y2000000D2*
X3993701Y1893701D1*
Y1400000D1*
X4100000Y2061343D2*
Y2000000D1*
X7394094Y2848425D2*
Y2744094D1*
X7250000Y2600000D1*
X7843701Y3525984D2*
X7793701Y3525985D1*
X5347437Y2251697D2*
Y1605524D1*
X5393701Y1559260D1*
Y1493701D1*
X4593701Y2493701D2*
X4531693Y2555708D1*
Y2631693D1*
X4593701Y2693701D1*
Y2293701D2*
Y2493701D1*
Y2061343D2*
Y2293701D1*
X6800394Y2446264D2*
Y2650870D1*
X6796811Y2654453D1*
X6341307D2*
Y2311500D1*
X6206496Y2565630D2*
Y2311500D1*
X2194094Y2693701D2*
Y2593701D1*
X893701Y1593701D2*
X832086Y1532086D1*
Y793701D1*
X793701D1*
X2775492Y625984D2*
Y458150D1*
X2795177Y438465D1*
X4978890D1*
X4998575Y458150D1*
Y993701D1*
X4959209Y1033067D1*
Y1943590D1*
X4662838Y2239961D1*
Y3824174D1*
X4682523Y3843859D1*
X5128464D1*
X3624177Y3644252D2*
X3452445D1*
X3432760Y3624567D1*
Y3354248D1*
X3493307Y3293701D1*
X3554649Y3874725D2*
X3624177D1*
X5350327Y3843859D2*
X5393701D1*
Y3893701D1*
X4998575Y993701D2*
X5293701D1*
X4662838Y3824174D2*
X4643153Y3843859D1*
X4427764D1*
X2575492Y1225984D2*
Y1998586D1*
X2583835Y2006930D1*
Y2203229D1*
Y3323292D1*
X2590866Y3330323D1*
Y3474016D1*
X2571181Y3493701D1*
X2194094D1*
X2375492Y1225984D2*
Y2193701D1*
Y3274016D1*
X2355807Y3293701D1*
X2194094D1*
X2973051Y2886918D2*
X3036024Y2823945D1*
Y1749906D1*
X3032382Y1746264D1*
X4093307Y2293701D2*
X4146264Y2240744D1*
Y1765949D1*
X4226579D1*
X4246264Y1746264D1*
Y1073426D1*
X4265949Y1053741D1*
X4420279D1*
X4439964Y1073426D1*
Y1146264D1*
X4459649Y1165949D1*
X4527752D1*
X4593701Y1100000D1*
X4146264Y1765949D2*
X4126579Y1746264D1*
X4038661D1*
X3032382D2*
Y765355D1*
X2918602Y651575D1*
Y582874D1*
X2898917Y563189D1*
X2838288D1*
X2818602Y582875D1*
Y669095D1*
X2798917Y688780D1*
X2738287D1*
X2718602Y669095D1*
Y563189D1*
X2698917Y543504D1*
X2057973D1*
X1975492Y625984D1*
X4093307Y2393701D2*
X3927756Y2228150D1*
Y1885319D1*
X2075492Y1225984D2*
Y1885319D1*
X3927756D2*
Y1258472D1*
X4039964Y1146264D1*
Y773426D1*
X4059649Y753741D1*
X4420275D1*
X4439960Y773426D1*
Y984658D1*
X4493701Y1038398D1*
Y1100000D1*
X2075492Y1885319D2*
Y3120276D1*
X2095177Y3139961D1*
X2220669D1*
X2240354Y3120276D1*
Y3039960D1*
X2194094Y2993701D1*
X4093307Y2493701D2*
X4165949Y2421059D1*
Y2247980D1*
X4346264Y2067665D1*
Y1147437D1*
X4393701Y1100000D1*
X2794094Y2793701D2*
X2722890Y2722496D1*
Y1535477D1*
X1975492D2*
Y1225984D1*
X3675909Y1161343D2*
Y2374020D1*
X2040728Y2439961D2*
Y3440334D1*
X2194094Y3593701D1*
X3675909Y2374020D2*
Y2665827D1*
X3695594Y2685512D1*
X3849984D1*
X4004433Y2839961D1*
X4119886D1*
X4139571Y2820276D1*
Y2639965D1*
X4093307Y2593701D1*
X2794094Y3593701D2*
X2506681D1*
X2260421Y3839961D1*
X1847835D1*
X1794094Y3893701D1*
X5393701Y993701D2*
Y945469D1*
X5413386Y925784D1*
X5622244D1*
X5641929Y945469D1*
Y3592441D1*
X5440669Y3793701D1*
X5393701D1*
X3363232Y3593701D2*
Y3213386D1*
X3382917Y3193701D1*
X3493307D1*
X5393701Y3793701D2*
X5310697D1*
X5291012Y3813386D1*
Y4120276D1*
X5271327Y4139961D1*
X3824177D1*
X3658941Y3974725D1*
X3493307Y3193701D2*
X3639256D1*
X3658941Y3213386D1*
Y3594410D1*
X4621161Y4039961D2*
X5232756D1*
X5252441Y4020276D1*
Y3713386D1*
X5272126Y3693701D1*
X5393701D1*
X3493307Y3093701D2*
X3835630D1*
X3855315Y3113386D1*
Y3620276D1*
X3875000Y3639961D1*
X4119885D1*
X4154649Y3674725D1*
X2575492Y625984D2*
Y1025425D1*
X2618602Y1068536D1*
Y1369197D1*
X2618598Y1369201D1*
Y3097599D1*
X5393701Y3693701D2*
X5541929Y3545472D1*
Y1041929D1*
X5493701Y993701D1*
X2618598Y3097599D2*
Y3318204D1*
X2794094Y3493701D1*
X5393701Y3593701D2*
X5439960Y3547441D1*
Y3359646D1*
X5506602Y3293004D1*
Y2387855D1*
X5441929Y2323182D1*
Y965154D1*
X5461614Y945469D1*
X5545469D1*
X5593701Y993701D1*
X5439960Y3359646D2*
X5420275Y3339961D1*
X5004008D1*
X2556102Y3393697D2*
Y2724178D1*
X2518602Y2686678D1*
Y669094D1*
X2475492Y625984D1*
X3493307Y2993701D2*
Y3008464D1*
X3524803Y3039961D1*
X3905157D1*
X3924842Y3059646D1*
Y3339961D1*
X2794094Y3293701D2*
X2738287D1*
X2718602Y3274016D1*
Y3039965D1*
X2723527Y897662D2*
X2618602Y792737D1*
Y602560D1*
X2598917Y582875D1*
X2418602D1*
X2375492Y625984D1*
X2718602Y3039965D2*
X2638283Y2959646D1*
Y1532937D1*
X2723527Y1447693D1*
Y897662D1*
X2840354Y1748485D2*
Y2837075D1*
X2275492Y625984D2*
Y800193D1*
X2418602Y943304D1*
Y1748485D1*
X2840354Y2837075D2*
Y3147441D1*
X2794094Y3193701D1*
X2175492Y625984D2*
Y844743D1*
X2325335Y994587D1*
Y2960997D1*
X2794094Y3093701D2*
X2738287Y3149508D1*
Y3220276D1*
X2757972Y3239961D1*
X2820669D1*
X2840354Y3259646D1*
Y3320276D1*
X2820669Y3339961D1*
X2750720D1*
X3355712Y3059650D2*
Y2831296D1*
X3493307Y2693701D1*
X5817964Y1797914D2*
X6022244D1*
X6041929Y1778229D1*
Y1041929D1*
X5993701Y993701D1*
X3493307Y2593701D2*
X3539571Y2547437D1*
Y1781028D1*
X2794094Y2993701D2*
X2673047Y2872653D1*
Y1579528D1*
X2118602D2*
Y669094D1*
X2075492Y625984D1*
X2194094Y3093701D2*
X2138287Y3037893D1*
Y2543544D1*
X2175492D1*
Y2493701D1*
X5782614Y2276737D2*
X6001496D1*
X6021181Y2296422D1*
Y2474138D1*
X2175492Y2493701D2*
Y1225984D1*
X2275492D2*
Y2371378D1*
Y3174016D1*
X2255807Y3193701D1*
X2194094D1*
X1794094Y3093701D2*
X1840354Y3047441D1*
Y2241142D1*
X1793701Y2194488D1*
X7953000Y4015434D2*
X8122244D1*
X8141929Y3995749D1*
Y2191929D1*
X8050000Y2100000D1*
X1794094Y3693701D2*
X1741929Y3745866D1*
Y4141929D1*
X1793701Y4193701D1*
X1980819D1*
X1986279Y1850556D2*
Y3301516D1*
X1794094Y3493701D1*
X1693701Y3594094D1*
Y4193701D1*
X7188897Y2154134D2*
Y2338897D1*
X7250000Y2400000D1*
X1875118Y2739961D2*
Y1953741D1*
X1750720Y2739961D2*
X1794094D1*
Y2793701D1*
X3993701Y1100000D2*
Y734056D1*
X4013386Y714371D1*
X4608071D1*
X4693701Y800000D1*
X5437075Y2739961D2*
X4760949D1*
X4741264Y2759646D1*
Y2841264D1*
X4793701Y2893701D1*
X6104882Y3393701D2*
X6154724Y3343859D1*
Y1132677D1*
X6293701Y993701D1*
X2794094Y3793701D2*
X2918602Y3669193D1*
Y3474725D1*
X5393701Y3393701D2*
X4986468D1*
X4093307D2*
Y3439961D1*
X4136681D1*
X2918602Y3474725D2*
Y785197D1*
X2875492Y742086D1*
Y625984D1*
X2794094Y3893701D2*
X3003209D1*
X3022894Y3874016D1*
Y3535669D1*
X3118602Y3439961D1*
X6189488Y3293701D2*
X6254728Y3228461D1*
Y2022879D1*
X6341929Y1935678D1*
Y1045472D1*
X6393701Y993701D1*
X5393701Y3293701D2*
X5039252D1*
X4093307D2*
Y3244252D1*
X4136681D1*
X3118602Y3439961D2*
Y769094D1*
X2975492Y625984D1*
X4093307Y3193701D2*
X4139571Y3147437D1*
Y2959646D1*
X4119886Y2939961D1*
X3776531D1*
X3098917Y3674729D2*
Y3974013D1*
X3079229Y3993701D1*
X2794094D1*
X6354724Y3193701D2*
Y2767918D1*
X6441929Y2680713D1*
Y1045472D1*
X6493701Y993701D1*
X3397996Y3674729D2*
Y3259646D1*
X3417681Y3239961D1*
X3609098D1*
X3776531Y2939961D2*
X3594020Y2757450D1*
Y1230237D1*
X3481815Y1118032D1*
Y688780D1*
X3462130Y669095D1*
X3118602D1*
X3075492Y625984D1*
X2794094Y3993701D2*
X2740354Y3939961D1*
X2104795D1*
X2085110Y3959646D1*
Y4222245D1*
X2065425Y4241930D1*
X1167516D1*
X1147831Y4222245D1*
Y3439964D1*
X1194094Y3393701D1*
X6593701Y993701D2*
X6641929Y1041929D1*
Y2656795D1*
X6554724Y2744000D1*
Y3105162D1*
X6535039Y3124847D1*
Y3458623D1*
X6554724Y3478308D1*
X6760559D1*
X6990441Y3248425D1*
X7294094D1*
X4093307Y3093701D2*
X4033594D1*
X3953279Y3013386D1*
X3559256D1*
X3539571Y2993701D1*
Y2659646D1*
X3519886Y2639961D1*
X3382389D1*
X3362704Y2620276D1*
Y2367133D1*
X3343016Y2347445D1*
X3249626D1*
Y1300118D1*
X3175492Y1225984D1*
X6535039Y3124847D2*
X6516343D1*
X6485197Y3093701D1*
X1113067Y4090123D2*
Y3374728D1*
X1194094Y3293701D1*
X2050346Y4174725D2*
Y4090123D1*
X3249626Y2347445D2*
X3229941Y2367130D1*
Y4139961D1*
X3210256Y4159646D1*
X2312697D1*
X2246752Y4093701D1*
X2194094D1*
X5393701Y3093701D2*
X4855039D1*
X2194094Y4093701D2*
X2179327D1*
X2147831Y4125197D1*
Y4154726D1*
X2162909Y4169804D1*
Y4174725D1*
X4093307Y2993701D2*
X3658940D1*
X3643862Y2978623D1*
X2194094Y3993701D2*
X2240354Y4039961D1*
X3133681D1*
X3153366Y4020276D1*
Y3094414D1*
X6693701Y993701D2*
Y2943858D1*
X6743543Y2993701D1*
X3447051Y1269095D2*
Y833938D1*
X3643862Y2978623D2*
X3628784Y2993701D1*
X3594020D1*
X3574335Y2974016D1*
Y1396379D1*
X3447051Y1269095D1*
X2194094Y3893701D2*
X2704425D1*
X2751866Y3846260D1*
X2933681D1*
X2953366Y3826575D1*
Y3427820D1*
X2938287Y3412741D1*
Y2941367D1*
X2957972Y2921682D1*
X2938287Y2901997D1*
Y1762658D1*
X2975492Y1725453D1*
Y1225984D1*
X6793701Y993701D2*
X6745476Y1041925D1*
Y2893701D1*
X5393701D2*
X5343794D1*
X5272338Y2822245D1*
X4992440D1*
X4874724Y2939961D1*
X4093307Y2893701D2*
X3794889D1*
X3641149Y2739961D1*
X2957972Y2921682D2*
X3051106D1*
X3070791Y2901997D1*
Y2739961D1*
X6745476Y2893701D2*
X7000201Y3148425D1*
X7294094D1*
X4093307Y2793701D2*
X3901975Y2602369D1*
X3730360D1*
X3710673Y2582682D1*
Y1303859D1*
X2133071Y3639965D2*
Y3732677D1*
X2194094Y3793701D1*
X7394094Y3048425D2*
X7440358Y3002162D1*
Y2565949D1*
X7420673Y2546264D1*
X7173819D1*
X7154134Y2526579D1*
Y1322363D1*
X6893701Y1061930D1*
X3992598Y3209489D2*
Y3505197D1*
X3710673Y1303859D2*
Y735749D1*
X6893701Y1061930D2*
Y993701D1*
X2775492Y1225984D2*
X2875118Y1325610D1*
Y2974725D1*
X6993701Y993701D2*
X6933662Y933662D1*
X6861614D1*
X6841929Y953347D1*
Y1129536D1*
X6813386Y1158079D1*
Y1745032D1*
X6881417Y1813063D1*
Y2699091D1*
X5393701Y2693701D2*
X5339961Y2639961D1*
X5148787D1*
X2279720Y3539961D2*
Y3608075D1*
X2194094Y3693701D1*
X2875118Y2974725D2*
Y3520276D1*
X2855433Y3539961D1*
X2279720D1*
X6881417Y2699091D2*
X7230752Y3048425D1*
X7294094D1*
X7643701Y1293701D2*
X8030311D1*
X8050000Y1313389D1*
Y2000000D1*
X7340358Y3694686D2*
Y2894689D1*
X7294094Y2848425D1*
X1875492Y625984D2*
X1813386Y688090D1*
Y1495276D1*
X1793701Y1514961D1*
X1774015Y1495276D1*
X893701D1*
X6089689Y1945867D2*
Y2489839D1*
X6070003Y2509525D1*
X5950000D1*
X4700000Y1700000D2*
Y1561615D1*
X4746264Y1515351D1*
Y1373426D1*
X4765949Y1353741D1*
Y1343706D1*
X4734252Y1312008D1*
Y1250000D1*
X1493701Y4193701D2*
Y4039961D1*
X4427764Y2263229D2*
Y3505197D1*
X593701Y1493701D2*
X541437D1*
X521748Y1474012D1*
Y813386D1*
X541433Y793701D1*
X620472D1*
X6993701Y1393701D2*
Y1493701D1*
X4893701Y1400000D2*
X4847441Y1353741D1*
X4765949D1*
X7294094Y2848425D2*
X7045866Y2600197D1*
Y2265949D1*
X7100000Y2211815D1*
Y2100000D1*
X1793701Y1514961D2*
Y1894488D1*
X7393701Y1093701D2*
Y624606D1*
X7832283Y849606D2*
Y593701D1*
X5093701Y2884252D2*
X5273303D1*
X7213071Y3848426D2*
X7294094Y3848425D1*
X1493701Y4039961D2*
X1389803Y3936063D1*
Y3693701D1*
Y3497988D1*
X1494090Y3393701D1*
X4700000Y1561615D2*
X4680315Y1541930D1*
X4465949D1*
X4446264Y1561615D1*
Y2068386D1*
X4355712Y2158938D1*
Y2263229D1*
X4093307Y2193701D2*
Y2239961D1*
X4049933D1*
X7045866Y2265949D2*
X7026181Y2246264D1*
X6950000D1*
Y2300000D1*
X5950000Y2779646D2*
X6029980D1*
X6047185Y2796850D1*
X6106496D1*
X5950000Y2509525D2*
Y2779646D1*
X4734252Y1250000D2*
Y1149122D1*
X4739964Y1143410D1*
Y546263D1*
X4693701Y500000D1*
X1494090Y3393701D2*
X1494094Y3003150D1*
X1389803Y3693701D2*
X1194094D1*
X4427764Y3505197D2*
Y3755040D1*
X6993701Y1493701D2*
Y1559449D1*
X6950000Y1603150D1*
Y1900000D1*
X1793701Y1894488D2*
X1739960Y1948229D1*
Y2539566D1*
X1794094Y2593701D1*
X1194094Y3693701D2*
Y3793701D1*
X4998575Y2019292D2*
Y2388826D1*
X4793701Y2593701D1*
X6581417Y2280630D2*
Y2145867D1*
X4793701Y2593701D2*
X4717287Y2670114D1*
Y3639961D1*
X6581417Y2145867D2*
Y2001375D1*
X6579649Y1999607D1*
X6846653Y2659721D2*
Y1945866D1*
X6800394Y1899606D1*
X4593701Y2793701D2*
Y3539961D1*
X6858937Y1312008D2*
X7022248D1*
X7041933Y1331693D1*
Y2108067D1*
X6950000Y2200000D1*
X4039964Y1196107D2*
Y1346263D1*
X4093701Y1400000D1*
X6219964Y1788430D2*
Y1567437D1*
X6293701Y1493701D1*
X6996260Y1838268D2*
Y1953740D1*
X6950000Y2000000D1*
X6493701Y1493701D2*
X6573976Y1573976D1*
Y1838268D1*
X7258425Y1261225D2*
X7243346Y1276304D1*
Y1659177D1*
X7315945Y1731776D1*
Y2234055D1*
X7250000Y2300000D1*
X4093701Y1100000D2*
Y995000D1*
X7250000Y2300000D2*
X7460043Y2510043D1*
Y3482477D1*
X7394094Y3548425D1*
X6306496Y3139961D2*
Y2796850D1*
X5437075Y3139961D2*
X4847441D1*
X4793701Y3193701D1*
X6406496Y3039961D2*
Y2796850D1*
X5437075Y3039961D2*
X4847441D1*
X4793701Y3093701D1*
X4093307Y3693701D2*
X3814055D1*
X3767795Y3739961D1*
X3313389D1*
X3293701Y3720272D1*
Y2593701D1*
X4293701Y2293701D2*
X4336027Y2336027D1*
Y3920276D1*
X4316342Y3939961D1*
X3547047D1*
X3493307Y3993701D1*
X4093307Y3893701D2*
X4039567Y3839961D1*
X3269311D1*
X3249626Y3820276D1*
Y2437775D1*
X3293701Y2393701D1*
X7293701Y624606D2*
Y740551D1*
X7274015Y760236D1*
X7193701D1*
X7493701Y624606D2*
X7434059Y684248D1*
Y812012D1*
X7493701Y871654D1*
X893701Y3745669D2*
X778543D1*
Y1038673D1*
X793701Y1023515D1*
Y951181D1*
X893701Y3993701D2*
X778542D1*
X758858Y3974017D1*
Y1283886D1*
X620472Y1145500D1*
Y951181D1*
X5471838Y2439375D2*
Y3220276D1*
X5452153Y3239961D1*
X4919996D1*
X4866256Y3293701D1*
X4793701D1*
X5393701Y4093701D2*
X5611949D1*
X5810964Y3894686D1*
X7440357D1*
X7460043Y3875000D1*
Y3815316D1*
X7509886Y3765473D1*
Y2413386D1*
X7529571Y2393701D1*
X7693701D1*
X7793701D2*
X7936811Y2536811D1*
Y3286811D1*
X7872244Y3351378D1*
Y3455119D1*
X7889964Y3472839D1*
Y3852481D1*
X7845472Y3896973D1*
Y4216343D1*
X7825787Y4236028D1*
X7605712D1*
X7586027Y4216343D1*
Y4048859D1*
X7566342Y4029174D1*
X7203684D1*
X7092897Y4139961D1*
X5367122D1*
X5347437Y4120276D1*
Y4039964D1*
X5393701Y3993701D1*
X5216878D2*
X4793701D1*
X7518366Y3894686D2*
X7568208D1*
X7587894Y3875000D1*
Y2813386D1*
X7607579Y2793701D1*
X7693701D1*
X5182118Y3893701D2*
X4793701D1*
X7059642Y3939961D2*
X7587894D1*
X7607579Y3920276D1*
Y2861615D1*
X7627264Y2841930D1*
X7745472D1*
X7793701Y2793701D1*
X7553130Y3844843D2*
Y2713386D1*
X7572815Y2693701D1*
X7693701D1*
X7642342Y3029449D2*
Y3949134D1*
X7841929Y3029449D2*
Y2741929D1*
X7793701Y2693701D1*
X5197996Y3443544D2*
Y3574016D1*
X5178311Y3593701D1*
X4793701D1*
X6643862Y2928465D2*
Y3443544D1*
X7693701Y2593701D2*
X7606102D1*
X5128464Y3493701D2*
X4793701D1*
X7828468Y3229449D2*
X7876693Y3181224D1*
Y2676693D1*
X7793701Y2593701D1*
X5148149Y3439961D2*
X4839961D1*
X4793701Y3393701D1*
X5984764Y2845083D2*
Y3343544D1*
X7544649Y2545473D2*
X7596421Y2493701D1*
X7693701D1*
X5210712Y1761343D2*
Y1434434D1*
X5341929Y1303217D1*
Y891339D1*
X5361614Y871654D1*
X7193701D1*
X4300000Y1700000D2*
Y1761343D1*
X6482677Y2462598D2*
Y2294094D1*
X6500394Y2276378D1*
Y2199606D1*
X6482677Y2537402D2*
X6546653Y2473426D1*
Y2145866D1*
X6500394Y2099606D1*
X7750000Y1600000D2*
Y1685456D1*
X7896260Y1831717D1*
Y2046260D1*
X7950000Y2100000D1*
X7850000Y1900000D2*
Y2000000D1*
X7950000D2*
Y1900000D1*
X4562335Y3709489D2*
X4636027Y3635797D1*
Y2174946D1*
X4793701Y2017272D1*
Y1400000D1*
X4271386Y3709489D2*
X4187174Y3793701D1*
X4093307D1*
X7733465D2*
Y4143701D1*
X7683465Y4193701D1*
X4874724Y3739961D2*
X4702208D1*
X4682523Y3720276D1*
Y2404878D1*
X4793701Y2293701D1*
X7683465Y4193701D2*
X7605712Y4115948D1*
Y4014095D1*
X7586027Y3994410D1*
X7157988D1*
X5167835Y3205197D2*
X4857343D1*
X4822579Y3239961D1*
X4756657D1*
X4736972Y3220276D1*
Y2959646D1*
X4756657Y2939961D1*
X4820275D1*
X4839960Y2920276D1*
Y2839960D1*
X4793701Y2793701D1*
X7843701Y3711024D2*
X7779728Y3774996D1*
Y3839961D1*
X7825787Y3886020D1*
Y4151378D1*
X7783465Y4193701D1*
X5141185Y1044839D2*
Y1388504D1*
X5156264D1*
X5175949Y1408189D1*
Y1443268D1*
X4650327Y1044839D2*
X4693701D1*
Y1100000D1*
X1439960Y2593701D2*
X1194094D1*
X4163862Y2539961D2*
Y2896799D1*
X4171445Y2904382D1*
Y3474016D1*
X4151760Y3493701D1*
X4093307D1*
X3843397Y2061343D2*
Y2520276D1*
X3863082Y2539961D1*
X4163862D1*
X5175949Y1443268D2*
Y2293701D1*
X6506496Y2946260D2*
Y2796850D1*
X5437075Y2946260D2*
X5270165D1*
X5222724Y2993701D1*
X4793701D1*
X7223661Y1168823D2*
Y1710039D1*
X7296260Y1782638D1*
Y2053740D1*
X7250000Y2100000D1*
X4919016Y1168823D2*
X4862523D1*
X4793701Y1100000D1*
X7955906Y3390157D2*
Y3444291D1*
X7987402Y3475787D1*
Y3659843D1*
X8041539D1*
X8061224Y3679528D1*
Y3909843D1*
X8041539Y3929528D1*
X7955906D1*
X5782614Y2346264D2*
X5947047D1*
X3493307Y3793701D2*
X3963689D1*
X4017429Y3739961D1*
X4178941D1*
X4198626Y3720276D1*
Y2588775D1*
X4293701Y2493701D1*
X5676693Y2339961D2*
Y1710708D1*
X5893701Y1493701D1*
X2988130Y3539961D2*
Y3793701D1*
X3554649Y3490477D2*
Y3532359D1*
X3493307Y3593701D1*
X4154649Y3574725D2*
X4119885Y3539961D1*
X3939563D1*
X3890079Y3490477D1*
X4233390Y3574725D2*
Y2754011D1*
X4293701Y2693701D1*
X2475492Y1225984D2*
Y2246662D1*
X2395177Y2326977D1*
Y3374016D1*
X2375492Y3393701D1*
X2194094D1*
X4890618Y1700670D2*
Y1461343D1*
X5593701Y2547445D2*
Y1700670D1*
X5782614Y2547445D2*
Y3628741D1*
X5802299Y3648425D1*
X7294094D1*
X5593701Y1700670D2*
Y1493701D1*
X7850000Y2100000D2*
X7784051Y2165949D1*
X7617126D1*
X7597441Y2146264D1*
Y1261225D1*
X7313390D1*
X7293701Y1241535D1*
Y1093701D1*
X5393701Y3493701D2*
X5217681Y3669720D1*
Y3920276D1*
X5197996Y3939961D1*
X4432370D1*
X4412685Y3920276D1*
X4393000Y3900591D1*
Y2178623D1*
X4546264Y2025359D1*
Y1596378D1*
X1647020Y4139961D2*
Y3040775D1*
X1794094Y2893701D1*
X4412685Y3920276D2*
X4239260Y4093701D1*
X4159571D1*
X7655118Y593701D2*
Y849606D1*
X4200000Y1700000D2*
X4100000D1*
X7293701Y1093701D2*
X7113977Y913977D1*
X5961614D1*
X5941929Y933662D1*
Y1237599D1*
X5993701Y1289370D1*
Y1493701D1*
X4159571Y4093701D2*
X4093307D1*
X7655118Y849606D2*
X7728941Y923429D1*
Y1221855D1*
X7709256Y1241540D1*
X7617126D1*
X7597441Y1261225D1*
X4139964Y1535477D2*
Y1344883D1*
X4205709Y1279138D1*
Y1158272D1*
X4193701Y1146263D1*
Y1100000D1*
X4100000Y1700000D2*
Y1575441D1*
X4139964Y1535477D1*
X5693701Y1493701D2*
X5761618Y1425784D1*
X5922244D1*
X5941929Y1445469D1*
Y1546150D1*
X5747850Y1740229D1*
Y3775001D1*
X5767535Y3794686D1*
X7420672D1*
X7440358Y3775000D1*
Y3694689D1*
X7394094Y3648425D1*
X2240354Y1500713D2*
Y2847441D1*
X2194094Y2893701D1*
X4393701Y1400000D2*
Y1500713D1*
X5376693Y1353741D2*
Y1388508D1*
X5341929Y1423272D1*
Y1541930D1*
X5295315Y1588544D1*
Y1954060D1*
Y2495315D1*
X5393701Y2593701D1*
D48*
X678705Y2194489D3*
X3703819Y3705197D3*
X6796811Y2654453D3*
X6341307D3*
Y2311500D3*
X6206496D3*
X4593701Y2061343D3*
X4100000D3*
X5347437Y2251697D3*
X7678539Y3837075D3*
X3188130Y3239961D3*
Y3393701D3*
X7100000Y2404804D3*
X6206496Y2565630D3*
X6800394Y2446264D3*
X3624177Y3644252D3*
Y3874725D3*
X3554649D3*
X5128464Y3843859D3*
X5350327D3*
X4427764D3*
X2583835Y2203229D3*
X2375492Y2193701D3*
X4038661Y1746264D3*
X2973051Y2886918D3*
X3032382Y1746264D3*
X2075492Y1885319D3*
X3927756D3*
X2722890Y1535477D3*
X1975492D3*
X3675909Y2374020D3*
X2040728Y2439961D3*
X3675909Y1161343D3*
X3658941Y3594410D3*
Y3974725D3*
X3363232Y3593701D3*
X4154649Y3674725D3*
X4621161Y4039961D3*
X2618598Y3097599D3*
X3924842Y3339961D3*
X5004008D3*
X2556102Y3393697D3*
X2723527Y897662D3*
X2718602Y3039965D3*
X2418602Y1748485D3*
X2840354D3*
Y2837075D3*
X2325335Y2960997D3*
X2750720Y3339961D3*
X3355712Y3059650D3*
X5817964Y1797914D3*
X3539571Y1781028D3*
X2673047Y1579528D3*
X2118602D3*
X2175492Y2493701D3*
X6021181Y2474138D3*
X5782614Y2276737D3*
X2275492Y2371378D3*
X7953000Y4015434D3*
X1980819Y4193701D3*
X1986279Y1850556D3*
X7188897Y2154134D3*
X1875118Y1953741D3*
Y2739961D3*
X1750720D3*
X5437075D3*
X6104882Y3393701D3*
X4986468D3*
X4136681Y3439961D3*
X2918602Y3474725D3*
X6189488Y3293701D3*
X5039252D3*
X4136681Y3244252D3*
X3118602Y3439961D3*
X6354724Y3193701D3*
X3609098Y3239961D3*
X3397996Y3674729D3*
X3098917D3*
X3776531Y2939961D3*
X6485197Y3093701D3*
X1113067Y4090123D3*
X2050346D3*
Y4174725D3*
X2162909D3*
X4855039Y3093701D3*
X3153366Y3094414D3*
X3643862Y2978623D3*
X3447051Y1269095D3*
X6743543Y2993701D3*
X3447051Y833938D3*
X4874724Y2939961D3*
X3641149Y2739961D3*
X3070791D3*
X6745476Y2893701D3*
X2133071Y3639965D3*
X3710673Y735749D3*
X6893701Y1061930D3*
X3992598Y3505197D3*
Y3209489D3*
X3710673Y1303859D3*
X6881417Y2699091D3*
X5148787Y2639961D3*
X2279720Y3539961D3*
X2875118Y2974725D3*
X4427764Y3505197D3*
X7340358Y3694686D3*
X5273303Y2884252D3*
X5950000Y2779646D3*
X7213071Y3848426D3*
X6089689Y1945867D3*
X4355712Y2263229D3*
X4049933Y2239961D3*
X4427764Y2263229D3*
Y3755040D3*
X1493701Y4039961D3*
X1494090Y3393701D3*
X4717287Y3639961D3*
X4998575Y2019292D3*
X6581417Y2145867D3*
Y2280630D3*
X6579649Y1999607D3*
X4593701Y3539961D3*
X6846653Y2659721D3*
X6858937Y1312008D3*
X4039964Y1196107D3*
X6219964Y1788430D3*
X6996260Y1838268D3*
X6573976D3*
X7258425Y1261225D3*
X4093701Y995000D3*
X6306496Y3139961D3*
X5437075D3*
X6406496Y3039961D3*
X5437075D3*
X5471838Y2439375D3*
X5216878Y3993701D3*
X7518366Y3894686D3*
X5182118Y3893701D3*
X7059642Y3939961D3*
X7553130Y3844843D3*
X7642342Y3949134D3*
Y3029449D3*
X7841929D3*
X5197996Y3443544D3*
X6643862D3*
Y2928465D3*
X7606102Y2593701D3*
X5128464Y3493701D3*
X7828468Y3229449D3*
X5148149Y3439961D3*
X5984764Y3343544D3*
Y2845083D3*
X7544649Y2545473D3*
X5210712Y1761343D3*
X4300000D3*
X4562335Y3709489D3*
X4271386D3*
X7157988Y3994410D3*
X4874724Y3739961D3*
X5167835Y3205197D3*
X7779728Y3839961D3*
X5175949Y1443268D3*
X5141185Y1044839D3*
X4650327D3*
X1439960Y2593701D3*
X3843397Y2061343D3*
X5175949Y2293701D3*
X4163862Y2539961D3*
X6506496Y2946260D3*
X5437075D3*
X7223661Y1168823D3*
X4919016D3*
X5947047Y2346264D3*
X5782614D3*
X5676693Y2339961D3*
X2988130Y3793701D3*
Y3539961D3*
X3554649Y3490477D3*
X3890079D3*
X4154649Y3574725D3*
X4233390D3*
X4890618Y1461343D3*
Y1700670D3*
X5593701D3*
X5782614Y2547445D3*
X5593701D3*
X4546264Y1596378D3*
X1647020Y4139961D3*
X4159571Y4093701D3*
X4139964Y1535477D3*
X2240354Y1500713D3*
X4393701D3*
X5295315Y1954060D3*
X5376693Y1353741D3*
D16*
X7950000Y1600000D3*
D17*
Y1900000D3*
D18*
X1193701Y1894488D3*
D19*
X1293701D3*
X1393701D3*
X1493701D3*
X1593701D3*
X1693701D3*
X1793701D3*
Y2194488D3*
X1693701D3*
X1593701D3*
X1493701D3*
X1393701D3*
X1293701D3*
X1193701D3*
D18*
X2794094Y2593701D3*
D19*
Y2693701D3*
Y2793701D3*
Y2893701D3*
Y2993701D3*
Y3093701D3*
Y3193701D3*
Y3293701D3*
Y3393701D3*
Y3493701D3*
Y3593701D3*
Y3693701D3*
Y3793701D3*
Y3893701D3*
Y3993701D3*
Y4093701D3*
X2194094D3*
Y3993701D3*
Y3893701D3*
Y3793701D3*
Y3693701D3*
Y3593701D3*
Y3493701D3*
Y3393701D3*
Y3293701D3*
Y3193701D3*
Y3093701D3*
Y2993701D3*
Y2893701D3*
Y2793701D3*
Y2693701D3*
Y2593701D3*
D16*
X4593701D3*
D17*
X4293701D3*
D18*
X4793701Y4093701D3*
D19*
Y3993701D3*
Y3893701D3*
Y3793701D3*
Y3693701D3*
Y3593701D3*
Y3493701D3*
Y3393701D3*
Y3293701D3*
Y3193701D3*
Y3093701D3*
Y2993701D3*
Y2893701D3*
Y2793701D3*
Y2693701D3*
Y2593701D3*
Y2493701D3*
Y2393701D3*
Y2293701D3*
Y2193701D3*
X5393701D3*
Y2293701D3*
Y2393701D3*
Y2493701D3*
Y2593701D3*
Y2693701D3*
Y2793701D3*
Y2893701D3*
Y2993701D3*
Y3093701D3*
Y3193701D3*
Y3293701D3*
Y3393701D3*
Y3493701D3*
Y3593701D3*
Y3693701D3*
Y3793701D3*
Y3893701D3*
Y3993701D3*
Y4093701D3*
D20*
X6293701Y993701D3*
D21*
X6393701D3*
X6493701D3*
X6593701D3*
X6693701D3*
X6793701D3*
X6893701D3*
X6993701D3*
D20*
X6293701Y1493701D3*
D21*
X6393701D3*
X6493701D3*
D22*
X7655118Y593701D3*
Y849606D3*
X7832283Y593701D3*
Y849606D3*
D20*
X6993701Y1393701D3*
D21*
X6893701D3*
X6993701Y1493701D3*
X6893701D3*
D23*
X7293701Y1093701D3*
D24*
X7343701Y1143701D3*
X7393701Y1093701D3*
D22*
X7100000Y2100000D3*
Y2493701D3*
D20*
X7693701Y2893701D3*
D21*
X7793701D3*
X7693701Y2793701D3*
X7793701D3*
X7693701Y2693701D3*
X7793701D3*
X7693701Y2593701D3*
X7793701D3*
X7693701Y2493701D3*
X7793701D3*
X7693701Y2393701D3*
X7793701D3*
D20*
X6106496Y2796850D3*
D25*
X6206496D3*
X6306496D3*
X6406496D3*
X6506496D3*
X6606496D3*
D26*
X543701Y4143701D3*
Y2017717D3*
X7472835Y4143701D3*
Y2017717D3*
D18*
X7394094Y3848425D3*
D27*
X7294094D3*
X7394094Y3748425D3*
X7294094D3*
X7394094Y3648425D3*
X7294094D3*
X7394094Y3548425D3*
X7294094D3*
X7394094Y3448425D3*
X7294094D3*
X7394094Y3348425D3*
X7294094D3*
X7394094Y3248425D3*
X7294094D3*
X7394094Y3148425D3*
X7294094D3*
X7394094Y3048425D3*
X7294094D3*
X7394094Y2948425D3*
X7294094D3*
X7394094Y2848425D3*
X7294094D3*
D20*
X5293701Y1493701D3*
D21*
X5393701D3*
X5493701D3*
X5593701D3*
X5693701D3*
X5793701D3*
X5893701D3*
X5993701D3*
D18*
X7750000Y2000000D3*
D27*
X7850000D3*
D28*
X7950000D3*
D18*
X8050000D3*
D27*
Y2100000D3*
X7950000D3*
X7850000D3*
X7750000D3*
D18*
X3493307Y4093701D3*
D19*
Y3993701D3*
Y3893701D3*
Y3793701D3*
Y3693701D3*
Y3593701D3*
Y3493701D3*
Y3393701D3*
Y3293701D3*
Y3193701D3*
Y3093701D3*
Y2993701D3*
Y2893701D3*
Y2793701D3*
Y2693701D3*
Y2593701D3*
Y2493701D3*
Y2393701D3*
Y2293701D3*
Y2193701D3*
X4093307D3*
Y2293701D3*
Y2393701D3*
Y2493701D3*
Y2593701D3*
Y2693701D3*
Y2793701D3*
Y2893701D3*
Y2993701D3*
Y3093701D3*
Y3193701D3*
Y3293701D3*
Y3393701D3*
Y3493701D3*
Y3593701D3*
Y3693701D3*
Y3793701D3*
Y3893701D3*
Y3993701D3*
Y4093701D3*
D16*
X2993701Y2593701D3*
D17*
X3293701D3*
D16*
X7850000Y1900000D3*
D17*
Y1600000D3*
D29*
X2494094Y3193701D3*
Y3784252D3*
X4143701Y1250000D3*
X4734252D3*
D18*
X4100000Y1700000D3*
D19*
X4200000D3*
X4300000D3*
X4400000D3*
X4500000D3*
X4600000D3*
X4700000D3*
Y2000000D3*
X4600000D3*
X4500000D3*
X4400000D3*
X4300000D3*
X4200000D3*
X4100000D3*
D16*
X7193701Y871654D3*
D17*
X7493701D3*
D16*
X7683465Y4193701D3*
D17*
Y4093701D3*
D30*
X1875492Y625984D3*
D31*
X1975492D3*
X2075492D3*
X2175492D3*
X2275492D3*
X2375492D3*
X2475492D3*
X2575492D3*
X2675492D3*
X2775492D3*
X2875492D3*
X2975492D3*
X3075492D3*
X3175492D3*
Y1225984D3*
X3075492D3*
X2975492D3*
X2875492D3*
X2775492D3*
X2675492D3*
X2575492D3*
X2475492D3*
X2375492D3*
X2275492D3*
X2175492D3*
X2075492D3*
X1975492D3*
X1875492D3*
D18*
X4093701Y500000D3*
D19*
X4193701D3*
X4293701D3*
X4393701D3*
X4493701D3*
X4593701D3*
X4693701D3*
Y800000D3*
X4593701D3*
X4493701D3*
X4393701D3*
X4293701D3*
X4193701D3*
X4093701D3*
D18*
X7843701Y3711024D3*
D27*
Y3608661D3*
Y3793701D3*
Y3525984D3*
X7733465Y3793701D3*
Y3525984D3*
D32*
X7955906Y3390157D3*
D33*
X7987402Y3659843D3*
D32*
X7955906Y3929528D3*
D16*
X7783465Y4193701D3*
D17*
Y4093701D3*
D16*
X4593701Y2793701D3*
D17*
X4293701D3*
D26*
X543701Y543701D3*
D29*
X1494094Y3593701D3*
Y3003150D3*
D20*
X1493701Y4193701D3*
D21*
X1593701D3*
X1693701D3*
X1793701D3*
D20*
X5293701Y993701D3*
D21*
X5393701D3*
X5493701D3*
X5593701D3*
X5693701D3*
X5793701D3*
X5893701D3*
X5993701D3*
D34*
X620472Y872441D3*
X793701D3*
X620472Y951181D3*
Y793701D3*
X793701Y951181D3*
Y793701D3*
D35*
X893701Y3745669D3*
D36*
Y3993701D3*
D37*
X704724Y3859843D3*
D38*
X593701Y1593701D3*
D39*
Y1493701D3*
Y1393701D3*
D27*
X7643701Y1195276D3*
Y1293701D3*
D40*
X7300000Y1600000D3*
D41*
X7400000D3*
D16*
X7493701Y760236D3*
D17*
X7193701D3*
D16*
X4593701Y2293701D3*
D17*
X4293701D3*
D16*
X4593701Y2493701D3*
D17*
X4293701D3*
D42*
X5950000Y1741808D3*
D43*
Y2509525D3*
D18*
X6500394Y2199606D3*
D19*
Y2099606D3*
Y1999606D3*
Y1899606D3*
X6800394D3*
Y1999606D3*
Y2099606D3*
Y2199606D3*
D27*
X893701Y1593701D3*
Y1495276D3*
D18*
X3993701Y1100000D3*
D19*
X4093701D3*
X4193701D3*
X4293701D3*
X4393701D3*
X4493701D3*
X4593701D3*
X4693701D3*
X4793701D3*
X4893701D3*
Y1400000D3*
X4793701D3*
X4693701D3*
X4593701D3*
X4493701D3*
X4393701D3*
X4293701D3*
X4193701D3*
X4093701D3*
X3993701D3*
D22*
X3594685Y700984D3*
Y1094685D3*
D18*
X6950000Y2600000D3*
D19*
Y2500000D3*
Y2400000D3*
Y2300000D3*
Y2200000D3*
Y2100000D3*
Y2000000D3*
Y1900000D3*
X7250000D3*
Y2000000D3*
Y2100000D3*
Y2200000D3*
Y2300000D3*
Y2400000D3*
Y2500000D3*
Y2600000D3*
D40*
X7393701Y624606D3*
D41*
X7493701D3*
D26*
X8043701Y543701D3*
D40*
X7193701Y624606D3*
D41*
X7293701D3*
D46*
X7793701Y3143701D3*
X7893701Y3243701D3*
X7993701Y3143701D3*
D16*
X7750000Y1600000D3*
D17*
Y1900000D3*
D47*
X6482677Y2462598D3*
Y2537402D3*
D18*
X1794094Y2593701D3*
D19*
Y2693701D3*
Y2793701D3*
Y2893701D3*
Y2993701D3*
Y3093701D3*
Y3193701D3*
Y3293701D3*
Y3393701D3*
Y3493701D3*
Y3593701D3*
Y3693701D3*
Y3793701D3*
Y3893701D3*
X1194094D3*
Y3793701D3*
Y3693701D3*
Y3593701D3*
Y3493701D3*
Y3393701D3*
Y3293701D3*
Y3193701D3*
Y3093701D3*
Y2993701D3*
Y2893701D3*
Y2793701D3*
Y2693701D3*
Y2593701D3*
D26*
X8043701Y4143701D3*
D20*
X7993701Y2893701D3*
D21*
X8093701D3*
X7993701Y2793701D3*
X8093701D3*
D29*
X5093701Y2293701D3*
Y2884252D3*
D16*
X4593701Y2693701D3*
D17*
X4293701D3*
D16*
X2993701Y2393701D3*
D17*
X3293701D3*
D29*
X3793307Y3393701D3*
Y2803150D3*
D27*
X7643701Y1395276D3*
Y1493701D3*
M02*
