%TF.GenerationSoftware,Novarm,DipTrace,4.3.0.4*%
%TF.CreationDate,2023-05-08T16:02:03+01:00*%
%FSLAX26Y26*%
%MOIN*%
%TF.FileFunction,Plated,1,2,PTH,Drill*%
%TF.Part,Single*%
%TA.AperFunction,ComponentDrill*%
%ADD24C,0.051181*%
%ADD45C,0.03937*%
%TA.AperFunction,ViaDrill*%
%ADD49C,0.019121*%
%TA.AperFunction,ComponentDrill*%
%ADD50C,0.031496*%
%ADD51C,0.027559*%
%ADD52C,0.043307*%
%ADD53C,0.029528*%
%ADD54C,0.137795*%
%ADD55C,0.035433*%
%ADD56C,0.047244*%
%ADD57C,0.03*%
%ADD58C,0.019685*%
G75*
G01*
D50*
X902756Y2094488D3*
X1002756D3*
X1102756D3*
X1202756D3*
X1302756D3*
X1402756D3*
X1502756D3*
Y2394488D3*
X1402756D3*
X1302756D3*
X1202756D3*
X1102756D3*
X1002756D3*
X902756D3*
X2803150Y2593701D3*
Y2693701D3*
Y2793701D3*
Y2893701D3*
Y2993701D3*
Y3093701D3*
Y3193701D3*
Y3293701D3*
Y3393701D3*
Y3493701D3*
Y3593701D3*
Y3693701D3*
Y3793701D3*
Y3893701D3*
Y3993701D3*
Y4093701D3*
X2203150D3*
Y3993701D3*
Y3893701D3*
Y3793701D3*
Y3693701D3*
Y3593701D3*
Y3493701D3*
Y3393701D3*
Y3293701D3*
Y3193701D3*
Y3093701D3*
Y2993701D3*
Y2893701D3*
Y2793701D3*
Y2693701D3*
Y2593701D3*
D51*
X4602756D3*
X4302756D3*
D50*
X4802756Y4093701D3*
Y3993701D3*
Y3893701D3*
Y3793701D3*
Y3693701D3*
Y3593701D3*
Y3493701D3*
Y3393701D3*
Y3293701D3*
Y3193701D3*
Y3093701D3*
Y2993701D3*
Y2893701D3*
Y2793701D3*
Y2693701D3*
Y2593701D3*
Y2493701D3*
Y2393701D3*
Y2293701D3*
Y2193701D3*
X5402756D3*
Y2293701D3*
Y2393701D3*
Y2493701D3*
Y2593701D3*
Y2693701D3*
Y2793701D3*
Y2893701D3*
Y2993701D3*
Y3093701D3*
Y3193701D3*
Y3293701D3*
Y3393701D3*
Y3493701D3*
Y3593701D3*
Y3693701D3*
Y3793701D3*
Y3893701D3*
Y3993701D3*
Y4093701D3*
D45*
X6302756Y993701D3*
X6402756D3*
X6502756D3*
X6602756D3*
X6702756D3*
X6802756D3*
X6902756D3*
X7002756D3*
D52*
X7664173Y593701D3*
Y849606D3*
X7841339Y593701D3*
Y849606D3*
D45*
X7002756Y1393701D3*
X6902756D3*
X7002756Y1493701D3*
X6902756D3*
D53*
X7302756Y1093701D3*
X7352756Y1143701D3*
X7402756Y1093701D3*
D45*
X6402756Y2143701D3*
X6009055D3*
X7702756Y2893701D3*
X7802756D3*
X7702756Y2793701D3*
X7802756D3*
X7702756Y2693701D3*
X7802756D3*
X7702756Y2593701D3*
X7802756D3*
X7702756Y2493701D3*
X7802756D3*
X7702756Y2393701D3*
X7802756D3*
X5902756Y2793701D3*
X6002756D3*
X6102756D3*
X6202756D3*
X6302756D3*
X6402756D3*
D54*
X552756Y4143701D3*
Y2017717D3*
X7481890Y4143701D3*
Y2017717D3*
D55*
X7403150Y3848425D3*
X7303150D3*
X7403150Y3748425D3*
X7303150D3*
X7403150Y3648425D3*
X7303150D3*
X7403150Y3548425D3*
X7303150D3*
X7403150Y3448425D3*
X7303150D3*
X7403150Y3348425D3*
X7303150D3*
X7403150Y3248425D3*
X7303150D3*
X7403150Y3148425D3*
X7303150D3*
X7403150Y3048425D3*
X7303150D3*
X7403150Y2948425D3*
X7303150D3*
X7403150Y2848425D3*
X7303150D3*
D45*
X5302756Y1493701D3*
X5402756D3*
X5502756D3*
X5602756D3*
X5702756D3*
X5802756D3*
X5902756D3*
X6002756D3*
D51*
X7752756Y1843701D3*
Y1543701D3*
D50*
X4702756Y1193701D3*
Y1093701D3*
Y993701D3*
Y893701D3*
Y793701D3*
Y693701D3*
Y593701D3*
X5002756D3*
Y693701D3*
Y793701D3*
Y893701D3*
Y993701D3*
Y1093701D3*
Y1193701D3*
X3502362Y4093701D3*
Y3993701D3*
Y3893701D3*
Y3793701D3*
Y3693701D3*
Y3593701D3*
Y3493701D3*
Y3393701D3*
Y3293701D3*
Y3193701D3*
Y3093701D3*
Y2993701D3*
Y2893701D3*
Y2793701D3*
Y2693701D3*
Y2593701D3*
Y2493701D3*
Y2393701D3*
Y2293701D3*
Y2193701D3*
X4102362D3*
Y2293701D3*
Y2393701D3*
Y2493701D3*
Y2593701D3*
Y2693701D3*
Y2793701D3*
Y2893701D3*
Y2993701D3*
Y3093701D3*
Y3193701D3*
Y3293701D3*
Y3393701D3*
Y3493701D3*
Y3593701D3*
Y3693701D3*
Y3793701D3*
Y3893701D3*
Y3993701D3*
Y4093701D3*
D51*
X3002756Y2593701D3*
X3302756D3*
D56*
X2503150Y3193701D3*
Y3784252D3*
D51*
X8052756Y1543701D3*
Y1843701D3*
X7202756Y871654D3*
X7502756D3*
X7692520Y4193701D3*
Y4093701D3*
D45*
X6302756Y1493701D3*
X6402756D3*
X2068898Y650984D3*
X2168898D3*
X2268898D3*
X2368898D3*
X2468898D3*
X2568898D3*
X2668898D3*
X2768898D3*
X2868898D3*
X2968898D3*
X3068898D3*
X3168898D3*
X3268898D3*
X3368898D3*
Y1250984D3*
X3268898D3*
X3168898D3*
X3068898D3*
X2968898D3*
X2868898D3*
X2768898D3*
X2668898D3*
X2568898D3*
X2468898D3*
X2368898D3*
X2268898D3*
X2168898D3*
X2068898D3*
D50*
X4202559Y1493701D3*
X4302559D3*
X4402559D3*
X4502559D3*
X4602559D3*
X4702559D3*
X4802559D3*
Y1793701D3*
X4702559D3*
X4602559D3*
X4502559D3*
X4402559D3*
X4302559D3*
X4202559D3*
D45*
X7852756Y3711024D3*
Y3608661D3*
Y3793701D3*
Y3525984D3*
X7742520Y3793701D3*
Y3525984D3*
X7994488Y3390157D2*
X7935433D1*
X7996457Y3699213D2*
Y3620472D1*
X7994488Y3929528D2*
X7935433D1*
D51*
X7792520Y4193701D3*
Y4093701D3*
X4602756Y2793701D3*
X4302756D3*
D50*
X2002756Y1693701D3*
X2102756D3*
X2202756D3*
X2302756D3*
X2402756D3*
X2502756D3*
X2602756D3*
X2702756D3*
X2802756D3*
X2902756D3*
Y1993701D3*
X2802756D3*
X2702756D3*
X2602756D3*
X2502756D3*
X2402756D3*
X2302756D3*
X2202756D3*
X2102756D3*
X2002756D3*
D51*
X7952756Y1843701D3*
Y1543701D3*
D54*
X552756Y543701D3*
D55*
X7302756Y1493701D3*
X7402756D3*
D56*
X1203150Y3793701D3*
Y3203150D3*
D45*
X1702756Y4093701D3*
X1802756D3*
X1902756D3*
X2002756D3*
X5302756Y993701D3*
X5402756D3*
X5502756D3*
X5602756D3*
X5702756D3*
X5802756D3*
X5902756D3*
X6002756D3*
D50*
X4002756Y1193701D3*
Y1093701D3*
Y993701D3*
Y893701D3*
Y793701D3*
Y693701D3*
Y593701D3*
X4302756D3*
Y693701D3*
Y793701D3*
Y893701D3*
Y993701D3*
Y1093701D3*
Y1193701D3*
X479528Y877126D2*
D57*
Y867756D1*
X652756Y877126D2*
Y867756D1*
X479528Y955866D2*
Y946496D1*
Y798386D2*
Y789016D1*
X652756Y955866D2*
Y946496D1*
Y798386D2*
Y789016D1*
X952756Y1368110D2*
D45*
Y1470472D1*
X704724Y1375984D2*
Y1462598D1*
X795276Y1230315D2*
X881890D1*
D52*
X1052756Y793701D3*
Y893701D3*
Y993701D3*
D50*
X7652756Y1195276D3*
Y1293701D3*
D51*
X7502756Y760236D3*
X7202756D3*
D56*
X2157283Y1843307D3*
X2747835D3*
D51*
X4602756Y2293701D3*
X4302756D3*
X4602756Y2493701D3*
X4302756D3*
D50*
X6753150Y3643307D3*
Y3543307D3*
Y3443307D3*
Y3343307D3*
X7053150D3*
Y3443307D3*
Y3543307D3*
Y3643307D3*
X1052756Y593701D3*
X954331D3*
D51*
X7852756Y1843701D3*
Y1543701D3*
D45*
X3788091Y725984D3*
Y1119685D3*
D50*
X5902756Y1993701D3*
X6002756D3*
X6102756D3*
X6202756D3*
X6302756D3*
X6402756D3*
X6502756D3*
X6602756D3*
Y2293701D3*
X6502756D3*
X6402756D3*
X6302756D3*
X6202756D3*
X6102756D3*
X6002756D3*
X5902756D3*
D55*
X7402756Y624606D3*
X7502756D3*
D54*
X8052756Y543701D3*
D55*
X7202756Y624606D3*
X7302756D3*
D50*
X7802756Y3143701D3*
X7902756Y3243701D3*
X8002756Y3143701D3*
D55*
X7752756Y1993701D3*
X7852756D3*
X7952756D3*
X8052756D3*
Y2093701D3*
X7952756D3*
X7852756D3*
X7752756D3*
D58*
X6735433Y3856299D3*
Y3931102D3*
D50*
X1503150Y2793701D3*
Y2893701D3*
Y2993701D3*
Y3093701D3*
Y3193701D3*
Y3293701D3*
Y3393701D3*
Y3493701D3*
Y3593701D3*
Y3693701D3*
Y3793701D3*
Y3893701D3*
Y3993701D3*
Y4093701D3*
X903150D3*
Y3993701D3*
Y3893701D3*
Y3793701D3*
Y3693701D3*
Y3593701D3*
Y3493701D3*
Y3393701D3*
Y3293701D3*
Y3193701D3*
Y3093701D3*
Y2993701D3*
Y2893701D3*
Y2793701D3*
D54*
X8052756Y4143701D3*
D45*
X8002756Y2893701D3*
X8102756D3*
X8002756Y2793701D3*
X8102756D3*
D56*
X5102756Y2293701D3*
Y2884252D3*
D51*
X4602756Y2693701D3*
X4302756D3*
X3002756Y2393701D3*
X3302756D3*
D56*
X3802362Y3393701D3*
Y2803150D3*
D50*
X7652756Y1395276D3*
Y1493701D3*
D24*
X6152756Y3901892D3*
Y3134176D3*
D49*
X7792520Y3929449D3*
X3434296Y3805197D3*
X5876185Y2493701D3*
X3956500Y939961D3*
X3399532Y3693697D3*
X5028622Y3893701D3*
X4294563Y3839961D3*
X4384449Y2339961D3*
X4049020D3*
X3633229Y3293701D3*
Y1839965D3*
X4049020D3*
X2722126Y3739961D3*
X3494174Y1940083D3*
X2565158Y2339961D3*
X3404138Y1309174D3*
X2768898D3*
X2430945Y2163548D3*
X2714252Y2143859D3*
X1848307Y2144256D3*
X2888701Y2138705D3*
X4148622Y1343938D3*
X3966307Y2097997D3*
X3756209D3*
Y2543867D3*
X2599922D3*
X3966307Y1279331D3*
X4194370D3*
X4998469Y3728465D3*
Y3509969D3*
X4928677D3*
X4913859Y3363548D3*
X3015839Y3193701D3*
Y3593701D3*
X5502756Y1322067D3*
X5850988D3*
X3299697Y3639961D3*
X3636839D3*
Y3455713D3*
X4893433Y3474725D3*
X2962914Y3109489D3*
X3195406D3*
X3434296Y3294729D3*
X3299697Y3344567D3*
X5581300Y2289804D3*
X3112008Y952764D3*
X2668898D3*
X3161122Y2993701D3*
X2642205Y2839961D3*
X2923544Y2693701D3*
X2961851Y1041930D3*
X2368898Y1022249D3*
X3146772Y2728465D3*
X2884174D3*
X1937520Y2293390D3*
X3146772D3*
Y2639961D3*
X2361418Y2513705D3*
X3583386Y2047126D3*
X5841418Y1993701D3*
X2396181Y2436024D3*
X3441020Y2393701D3*
X3598465Y1537445D3*
X2468898D3*
X3598465Y1962520D3*
X6050988Y1728469D3*
X3667992D3*
Y2439961D3*
X1422268Y2993701D3*
X6402756Y2628784D3*
X4937603Y2639961D3*
X6085748Y3393701D3*
X4963701D3*
X3973351Y3544886D3*
X3923508D3*
X3065677Y3633386D3*
X6720516Y3213386D3*
X2974122Y3758934D3*
Y3893701D3*
X3384449Y3339961D3*
X7168284Y3229449D3*
X2869095Y4039961D3*
X2974122Y3394410D3*
X3869059Y3293701D3*
X4950800D3*
X6450985Y3168941D3*
X3961607Y3144252D3*
X3245248D3*
X4985563Y3193701D3*
X5067992Y3039961D3*
X4423146Y3074725D3*
X4048406Y3139961D3*
X4423146Y3939961D3*
X6550988Y3074725D3*
X6873544Y3013705D3*
X3280012Y3239961D3*
X3993957D3*
X4977839Y3039961D3*
X1942441Y3539961D3*
X3225563Y3474725D3*
X3864374Y2012363D3*
X2014252Y2074729D3*
X3168898D3*
X1067008Y3539961D3*
X6991811Y2893701D3*
X2014252Y3589804D3*
X1083465Y3828465D3*
X3125878Y3039961D3*
X7111949Y2701890D3*
X3008150Y2939961D3*
X7202252Y2701615D3*
X4498925Y2639961D3*
Y2505197D3*
X2088071Y3339961D3*
X4741418Y2405197D3*
X6602756Y1541930D3*
X6685752Y3079729D3*
X5952599Y3139961D3*
X3686681Y2803154D3*
Y3658938D3*
X4648819Y1693705D3*
X7704370Y3894686D3*
X4102363Y1693705D3*
X6943740Y2631457D3*
X4364768Y3739961D3*
X4759382Y3639961D3*
X5137520D3*
X4634882D3*
X6250985Y3494686D3*
X6102756Y2937075D3*
X5449016D3*
X6202756Y3039961D3*
X5237292Y3093701D3*
X3441020Y2593701D3*
X6302756Y1855044D3*
X4448819D3*
X4883780Y2520280D3*
X6350985Y2741930D3*
Y3539961D3*
X5207048Y3693701D3*
X6050985Y2541930D3*
X5518544Y2374729D3*
X7866063Y2593701D3*
X5446130Y3239961D3*
X6485748D3*
Y2493701D3*
X7553973D3*
X6037524Y639008D3*
X6883217D3*
X4763898Y1626536D3*
X3721445Y2239961D3*
X2802756D3*
X5841422Y2134650D3*
Y3705197D3*
X2304264Y4039961D3*
X1789335Y3439961D3*
X5336803Y2839965D3*
X1902756Y1572209D3*
X7721571Y1661304D3*
X3563701Y2905197D3*
X5402756Y1576693D3*
X5902756D3*
X3240650Y3739961D3*
X3562363D3*
X3807461Y3593701D3*
X2711733Y3255709D3*
X2485394Y3270788D3*
X2723662Y1402997D3*
X5103469Y1399166D3*
X5602760Y1611461D3*
X6819095D3*
X2802756Y1378701D3*
X4951894D3*
X5805922Y3493701D3*
X5464095D3*
X1349016Y1739965D3*
X6002756Y1093702D3*
X4956776Y1452839D3*
X7237016Y1443504D3*
X2049016Y1502682D3*
X4548819Y1892993D3*
X5701634Y1767130D3*
X5449016D3*
M02*
