M48
INCH
T01C0.0191
T02C0.0197
T03C0.0276
T04C0.0295
T05C0.03
T06C0.0315
T07C0.0354
T08C0.0394
T09C0.0433
T10C0.0472
T11C0.0512
T12C0.1378
%
T01
X+077925Y+039294
X+077044Y+038947
X+071683Y+032294
X+068735Y+030137
X+069918Y+028937
X+071119Y+027019
X+072023Y+027016
X+069437Y+026315
X+064857Y+024937
X+064028Y+026288
X+063510Y+027419
X+061028Y+029371
X+062028Y+030400
X+059526Y+031400
X+060857Y+033937
X+062510Y+034947
X+063510Y+035400
X+064857Y+032400
X+064510Y+031689
X+065510Y+030747
X+066858Y+030797
X+067205Y+032134
X+060510Y+025419
X+058762Y+024937
X+055813Y+022898
X+055185Y+023747
X+058414Y+021346
X+058414Y+019937
X+057016Y+017671
X+056028Y+016115
X+054028Y+015767
X+054490Y+017671
X+055028Y+013221
X+058510Y+013221
X+059028Y+015767
X+060510Y+017285
X+063028Y+018550
X+066028Y+015419
X+068191Y+016115
X+072370Y+014435
X+077216Y+016613
X+075540Y+024937
X+078661Y+025937
X+068832Y+006390
X+060375Y+006390
X+060028Y+010937
X+051035Y+013992
X+049519Y+013787
X+049568Y+014528
X+047639Y+016265
X+046488Y+016937
X+045488Y+018930
X+044488Y+018550
X+041024Y+016937
X+040490Y+018400
X+038644Y+020124
X+039663Y+020980
X+037562Y+020980
X+037214Y+022400
X+036680Y+024400
X+037562Y+025439
X+036867Y+028032
X+035637Y+029052
X+034410Y+025937
X+034410Y+023937
X+031468Y+022934
X+031689Y+020747
X+028887Y+021387
X+028028Y+022400
X+027143Y+021439
X+025652Y+023400
X+023962Y+024360
X+023614Y+025137
X+025999Y+025439
X+026422Y+028400
X+028842Y+027285
X+029235Y+026937
X+031468Y+027285
X+031468Y+026400
X+030081Y+029400
X+031259Y+030400
X+031611Y+029937
X+031954Y+031095
X+032452Y+031443
X+032800Y+032400
X+032997Y+033446
X+033844Y+033400
X+034343Y+032947
X+036332Y+032937
X+036368Y+034557
X+036368Y+036400
X+036867Y+036589
X+038075Y+035937
X+039235Y+035449
X+039734Y+035449
X+038691Y+032937
X+039940Y+032400
X+039616Y+031443
X+040484Y+031400
X+044231Y+030747
X+044989Y+026400
X+044989Y+025052
X+043844Y+023400
X+040490Y+023400
X+035834Y+020471
X+035985Y+019625
X+034942Y+019401
X+036332Y+018400
X+036680Y+017285
X+035985Y+015374
X+034041Y+013092
X+031120Y+009528
X+029619Y+010419
X+026689Y+009528
X+023689Y+010222
X+027689Y+013092
X+028028Y+013787
X+027237Y+014030
X+024689Y+015374
X+020490Y+015027
X+019028Y+015722
X+020143Y+020747
X+018483Y+021443
X+019375Y+022934
X+024309Y+021635
X+029629Y+031095
X+030158Y+031937
X+029741Y+033944
X+030158Y+035937
X+030657Y+036334
X+029741Y+037589
X+029741Y+038937
X+028691Y+040400
X+027221Y+037400
X+027117Y+032557
X+024854Y+032708
X+020881Y+033400
X+019424Y+035400
X+020143Y+035898
X+017893Y+034400
X+014223Y+029937
X+010670Y+035400
X+010835Y+038285
X+023043Y+040400
X+032406Y+037400
X+032997Y+036400
X+033995Y+036937
X+034343Y+038052
X+035624Y+037400
X+032256Y+034747
X+042946Y+038400
X+043648Y+037400
X+044231Y+039400
X+046349Y+036400
X+047594Y+036400
X+048934Y+034747
X+049287Y+035100
X+049985Y+035100
X+049637Y+033937
X+049139Y+033635
X+049508Y+032937
X+049856Y+031937
X+049778Y+030400
X+050680Y+030400
X+052373Y+030937
X+054461Y+032400
X+054641Y+034937
X+052070Y+036937
X+051375Y+036400
X+049985Y+037285
X+050286Y+038937
X+058414Y+037052
X+058059Y+034937
X+054490Y+029371
X+053368Y+028400
X+049376Y+026400
X+048838Y+025203
X+047414Y+024052
X+041486Y+013439
X+041944Y+012793
X+039663Y+012793
X+039565Y+009400
X+013490Y+017400
T02
X+067354Y+038563
X+067354Y+039311
T03
X+046028Y+025937
X+046028Y+024937
X+046028Y+026937
X+046028Y+027937
X+043028Y+027937
X+043028Y+026937
X+043028Y+025937
X+043028Y+024937
X+043028Y+022937
X+046028Y+022937
X+033028Y+023937
X+033028Y+025937
X+030028Y+025937
X+030028Y+023937
X+072028Y+008717
X+072028Y+007602
X+075028Y+007602
X+075028Y+008717
X+077528Y+015437
X+078528Y+015437
X+079528Y+015437
X+080528Y+015437
X+080528Y+018437
X+079528Y+018437
X+078528Y+018437
X+077528Y+018437
X+077925Y+040937
X+076925Y+040937
X+076925Y+041937
X+077925Y+041937
T04
X+073028Y+010937
X+073528Y+011437
X+074028Y+010937
T06
X+009028Y+020945
X+010028Y+020945
X+011028Y+020945
X+012028Y+020945
X+013028Y+020945
X+014028Y+020945
X+015028Y+020945
X+015028Y+023945
X+014028Y+023945
X+013028Y+023945
X+012028Y+023945
X+011028Y+023945
X+010028Y+023945
X+009028Y+023945
X+009031Y+027937
X+009031Y+028937
X+009031Y+029937
X+009031Y+030937
X+009031Y+031937
X+009031Y+032937
X+009031Y+033937
X+009031Y+034937
X+009031Y+035937
X+009031Y+036937
X+009031Y+037937
X+009031Y+038937
X+009031Y+039937
X+009031Y+040937
X+015031Y+040937
X+015031Y+039937
X+015031Y+038937
X+015031Y+037937
X+015031Y+036937
X+015031Y+035937
X+015031Y+034937
X+015031Y+033937
X+015031Y+032937
X+015031Y+031937
X+015031Y+030937
X+015031Y+029937
X+015031Y+028937
X+015031Y+027937
X+022031Y+027937
X+022031Y+026937
X+022031Y+025937
X+022031Y+028937
X+022031Y+029937
X+022031Y+030937
X+022031Y+031937
X+022031Y+032937
X+022031Y+033937
X+022031Y+034937
X+022031Y+035937
X+022031Y+036937
X+022031Y+037937
X+022031Y+038937
X+022031Y+039937
X+022031Y+040937
X+028031Y+040937
X+028031Y+039937
X+028031Y+038937
X+028031Y+037937
X+028031Y+036937
X+028031Y+035937
X+028031Y+034937
X+028031Y+033937
X+028031Y+032937
X+028031Y+031937
X+028031Y+030937
X+028031Y+029937
X+028031Y+028937
X+028031Y+027937
X+028031Y+026937
X+028031Y+025937
X+028028Y+019937
X+029028Y+019937
X+027028Y+019937
X+026028Y+019937
X+025028Y+019937
X+024028Y+019937
X+023028Y+019937
X+022028Y+019937
X+021028Y+019937
X+020028Y+019937
X+020028Y+016937
X+021028Y+016937
X+022028Y+016937
X+023028Y+016937
X+024028Y+016937
X+025028Y+016937
X+026028Y+016937
X+027028Y+016937
X+028028Y+016937
X+029028Y+016937
X+035024Y+021937
X+035024Y+022937
X+035024Y+023937
X+035024Y+024937
X+035024Y+025937
X+035024Y+026937
X+035024Y+027937
X+035024Y+028937
X+035024Y+029937
X+035024Y+030937
X+035024Y+031937
X+035024Y+032937
X+035024Y+033937
X+035024Y+034937
X+035024Y+035937
X+035024Y+036937
X+035024Y+037937
X+035024Y+038937
X+035024Y+039937
X+035024Y+040937
X+041024Y+040937
X+041024Y+039937
X+041024Y+038937
X+041024Y+037937
X+041024Y+036937
X+041024Y+035937
X+041024Y+034937
X+041024Y+033937
X+041024Y+032937
X+041024Y+031937
X+041024Y+030937
X+041024Y+029937
X+041024Y+028937
X+041024Y+027937
X+041024Y+026937
X+041024Y+025937
X+041024Y+024937
X+041024Y+023937
X+041024Y+022937
X+041024Y+021937
X+042026Y+017937
X+043026Y+017937
X+044026Y+017937
X+045026Y+017937
X+046026Y+017937
X+047026Y+017937
X+048026Y+017937
X+048026Y+014937
X+047026Y+014937
X+046026Y+014937
X+045026Y+014937
X+044026Y+014937
X+043026Y+014937
X+042026Y+014937
X+043028Y+011937
X+043028Y+010937
X+043028Y+009937
X+043028Y+008937
X+043028Y+007937
X+043028Y+006937
X+043028Y+005937
X+040028Y+005937
X+040028Y+006937
X+040028Y+007937
X+040028Y+008937
X+040028Y+009937
X+040028Y+010937
X+040028Y+011937
X+047028Y+011937
X+047028Y+010937
X+047028Y+009937
X+047028Y+008937
X+047028Y+007937
X+047028Y+006937
X+047028Y+005937
X+050028Y+005937
X+050028Y+006937
X+050028Y+007937
X+050028Y+008937
X+050028Y+009937
X+050028Y+010937
X+050028Y+011937
X+048028Y+021937
X+048028Y+022937
X+048028Y+023937
X+048028Y+024937
X+048028Y+025937
X+048028Y+026937
X+048028Y+027937
X+048028Y+028937
X+048028Y+029937
X+048028Y+030937
X+048028Y+031937
X+048028Y+032937
X+048028Y+033937
X+048028Y+034937
X+048028Y+035937
X+048028Y+036937
X+048028Y+037937
X+048028Y+038937
X+048028Y+039937
X+048028Y+040937
X+054028Y+040937
X+054028Y+039937
X+054028Y+038937
X+054028Y+037937
X+054028Y+036937
X+054028Y+035937
X+054028Y+034937
X+054028Y+033937
X+054028Y+032937
X+054028Y+031937
X+054028Y+030937
X+054028Y+029937
X+054028Y+028937
X+054028Y+027937
X+054028Y+026937
X+054028Y+025937
X+054028Y+024937
X+054028Y+023937
X+054028Y+022937
X+054028Y+021937
X+059028Y+022937
X+060028Y+022937
X+061028Y+022937
X+062028Y+022937
X+063028Y+022937
X+064028Y+022937
X+065028Y+022937
X+066028Y+022937
X+066028Y+019937
X+065028Y+019937
X+064028Y+019937
X+063028Y+019937
X+062028Y+019937
X+061028Y+019937
X+060028Y+019937
X+059028Y+019937
X+067531Y+033433
X+067531Y+034433
X+067531Y+035433
X+067531Y+036433
X+070531Y+036433
X+070531Y+035433
X+070531Y+034433
X+070531Y+033433
X+078028Y+031437
X+079028Y+032437
X+080028Y+031437
X+076528Y+014937
X+076528Y+013953
X+076528Y+012937
X+076528Y+011953
X+010528Y+005937
X+009543Y+005937
T07
X+074031Y+038484
X+074031Y+037484
X+074031Y+036484
X+073031Y+036484
X+073031Y+035484
X+074031Y+035484
X+074031Y+034484
X+073031Y+034484
X+073031Y+033484
X+073031Y+032484
X+074031Y+032484
X+074031Y+033484
X+074031Y+031484
X+074031Y+030484
X+074031Y+029484
X+073031Y+029484
X+073031Y+030484
X+073031Y+031484
X+073031Y+028484
X+074031Y+028484
X+077528Y+020937
X+078528Y+020937
X+079528Y+020937
X+080528Y+020937
X+080528Y+019937
X+079528Y+019937
X+078528Y+019937
X+077528Y+019937
X+074028Y+014937
X+073028Y+014937
X+073028Y+006246
X+074028Y+006246
X+075028Y+006246
X+072028Y+006246
X+073031Y+037484
X+073031Y+038484
T08
X+063028Y+009937
X+064028Y+009937
X+065028Y+009937
X+066028Y+009937
X+067028Y+009937
X+068028Y+009937
X+069028Y+009937
X+070028Y+009937
X+070028Y+013937
X+070028Y+014937
X+069028Y+014937
X+069028Y+013937
X+064028Y+014937
X+063028Y+014937
X+060028Y+014937
X+059028Y+014937
X+058028Y+014937
X+057028Y+014937
X+056028Y+014937
X+055028Y+014937
X+054028Y+014937
X+053028Y+014937
X+053028Y+009937
X+054028Y+009937
X+055028Y+009937
X+056028Y+009937
X+057028Y+009937
X+058028Y+009937
X+059028Y+009937
X+060028Y+009937
X+060091Y+021437
X+064028Y+021437
X+064028Y+027937
X+063028Y+027937
X+062028Y+027937
X+061028Y+027937
X+060028Y+027937
X+059028Y+027937
X+077028Y+027937
X+077028Y+028937
X+078028Y+028937
X+078028Y+027937
X+078028Y+026937
X+078028Y+025937
X+078028Y+024937
X+078028Y+023937
X+077028Y+023937
X+077028Y+024937
X+077028Y+025937
X+077028Y+026937
X+080028Y+027937
X+080028Y+028937
X+081028Y+028937
X+081028Y+027937
X+078528Y+035260
X+078528Y+036087
X+078528Y+037110
X+078528Y+037937
X+077425Y+037937
X+077425Y+035260
X+037881Y+011197
X+037881Y+007260
X+033689Y+006510
X+032689Y+006510
X+031689Y+006510
X+030689Y+006510
X+029689Y+006510
X+028689Y+006510
X+027689Y+006510
X+026689Y+006510
X+025689Y+006510
X+024689Y+006510
X+023689Y+006510
X+022689Y+006510
X+021689Y+006510
X+020689Y+006510
X+020689Y+012510
X+021689Y+012510
X+022689Y+012510
X+023689Y+012510
X+024689Y+012510
X+025689Y+012510
X+026689Y+012510
X+027689Y+012510
X+028689Y+012510
X+029689Y+012510
X+030689Y+012510
X+031689Y+012510
X+032689Y+012510
X+033689Y+012510
X+017028Y+040937
X+018028Y+040937
X+019028Y+040937
X+020028Y+040937
T09
X+076642Y+005937
X+078413Y+005937
X+078413Y+008496
X+076642Y+008496
X+010528Y+008937
X+010528Y+007937
X+010528Y+009937
T10
X+025031Y+031937
X+025031Y+037843
X+012031Y+037937
X+012031Y+032031
X+021573Y+018433
X+027478Y+018433
X+038024Y+028031
X+038024Y+033937
X+051028Y+028843
X+051028Y+022937
T11
X+061528Y+039019
X+061528Y+031342
T12
X+005528Y+041437
X+005528Y+020177
X+005528Y+005437
X+074819Y+020177
X+080528Y+005437
X+080528Y+041437
X+074819Y+041437
T00
M30
