M48
INCH
T01C0.0191
T02C0.0197
T03C0.0276
T04C0.0295
T05C0.03
T06C0.0315
T07C0.0354
T08C0.0394
T09C0.0433
T10C0.0472
T11C0.0512
T12C0.1378
%
T01
X+006787Y+021945
X+014400Y+025937
X+017507Y+027400
X+018751Y+027400
X+020407Y+024400
X+021755Y+024937
X+022755Y+023714
X+023755Y+021937
X+025838Y+022032
X+024186Y+017485
X+022404Y+015007
X+021186Y+015795
X+019755Y+015355
X+019863Y+018506
X+020755Y+018853
X+018751Y+019537
X+026730Y+015795
X+027229Y+015355
X+028404Y+017485
X+030324Y+017463
X+035396Y+017810
X+039278Y+018853
X+040387Y+017463
X+041400Y+015355
X+043937Y+015007
X+045463Y+015964
X+043000Y+017613
X+041000Y+020613
X+040499Y+022400
X+038434Y+020613
X+036759Y+023740
X+036411Y+027400
X+036439Y+029786
X+037765Y+029400
X+036091Y+032400
X+035546Y+034905
X+036589Y+035944
X+036242Y+036443
X+037038Y+037052
X+036242Y+038747
X+035546Y+038747
X+036589Y+039747
X+033980Y+036747
X+033632Y+035937
X+031881Y+033937
X+031186Y+034400
X+029881Y+035400
X+029186Y+034747
X+027507Y+033400
X+025561Y+033937
X+026186Y+030976
X+027186Y+030400
X+028751Y+029747
X+029731Y+028869
X+028404Y+028371
X+030708Y+027400
X+031534Y+030944
X+031881Y+032400
X+033557Y+030596
X+039248Y+033400
X+039926Y+032095
X+041367Y+032443
X+041367Y+034400
X+041546Y+035747
X+042334Y+035747
X+041546Y+036747
X+042714Y+037095
X+044278Y+037550
X+044278Y+038439
X+045623Y+037095
X+047173Y+036400
X+045937Y+035400
X+044278Y+035052
X+039926Y+035052
X+038901Y+034905
X+041596Y+040937
X+046212Y+040400
X+048747Y+037400
X+051285Y+038439
X+051821Y+038937
X+052169Y+039937
X+053503Y+038439
X+051285Y+034937
X+051481Y+034400
X+051980Y+034435
X+049865Y+033937
X+050040Y+033400
X+050393Y+032937
X+051678Y+032052
X+054371Y+031400
X+054371Y+030400
X+054371Y+029463
X+052733Y+028843
X+054371Y+027400
X+055937Y+025474
X+054718Y+024394
X+053474Y+022517
X+051759Y+022937
X+049986Y+020193
X+052953Y+019541
X+052107Y+017613
X+051759Y+014433
X+053767Y+013537
X+051412Y+010448
X+049190Y+011688
X+048906Y+014613
X+048906Y+017007
X+045937Y+020613
X+044278Y+022632
X+043557Y+022632
X+041639Y+025400
X+048747Y+029400
X+048550Y+030937
X+051488Y+026400
X+056767Y+023400
X+057826Y+023463
X+057826Y+022767
X+059470Y+023463
X+060212Y+024741
X+062065Y+025656
X+063413Y+026545
X+065065Y+029463
X+064065Y+030400
X+064852Y+030937
X+063547Y+031937
X+063065Y+031400
X+061895Y+032937
X+061049Y+033937
X+059848Y+033435
X+059848Y+028451
X+059500Y+027796
X+057826Y+025474
X+062065Y+023115
X+063413Y+023115
X+065814Y+022806
X+065814Y+021459
X+065796Y+019996
X+065740Y+018383
X+062200Y+017884
X+060897Y+019459
X+058180Y+017979
X+055937Y+017007
X+046503Y+010448
X+040937Y+009950
X+040400Y+011961
X+037107Y+013039
X+036759Y+011613
X+034471Y+012691
X+034471Y+008339
X+037107Y+007357
X+027235Y+008977
X+023253Y+029610
X+022797Y+035400
X+021331Y+036400
X+020503Y+040901
X+020503Y+041747
X+019808Y+041937
X+021629Y+041747
X+016470Y+041400
X+014937Y+040400
X+011131Y+040901
X+014941Y+033937
X+029881Y+037937
X+030989Y+036747
X+066439Y+034435
X+067435Y+029937
X+067455Y+028937
X+066439Y+029285
X+067968Y+026545
X+068467Y+026597
X+068814Y+026991
X+068004Y+024463
X+071000Y+024048
X+071889Y+021541
X+069963Y+018383
X+068589Y+013120
X+068937Y+010619
X+072237Y+011688
X+072584Y+012612
X+075446Y+025455
X+076061Y+025937
X+076423Y+030294
X+078419Y+030294
X+078285Y+032294
X+077797Y+038400
X+076785Y+038371
X+076423Y+039491
X+075184Y+038947
X+075531Y+038448
X+073404Y+036947
X+072131Y+038484
X+071580Y+039944
X+070596Y+039400
X+079530Y+040154
T02
X+064827Y+024626
X+064827Y+025374
T03
X+079500Y+016000
X+078500Y+016000
X+077500Y+016000
X+077500Y+019000
X+078500Y+019000
X+079500Y+019000
X+074937Y+008717
X+074937Y+007602
X+071937Y+007602
X+071937Y+008717
X+045937Y+022937
X+045937Y+024937
X+045937Y+025937
X+045937Y+026937
X+045937Y+027937
X+042937Y+027937
X+042937Y+026937
X+042937Y+025937
X+042937Y+024937
X+042937Y+022937
X+032937Y+023937
X+032937Y+025937
X+029937Y+025937
X+029937Y+023937
X+076835Y+040937
X+076835Y+041937
X+077835Y+041937
X+077835Y+040937
T04
X+072937Y+010937
X+073437Y+011437
X+073937Y+010937
T06
X+011937Y+018945
X+012937Y+018945
X+013937Y+018945
X+014937Y+018945
X+015937Y+018945
X+016937Y+018945
X+017937Y+018945
X+017937Y+021945
X+016937Y+021945
X+015937Y+021945
X+014937Y+021945
X+013937Y+021945
X+012937Y+021945
X+011937Y+021945
X+011941Y+025937
X+011941Y+026937
X+011941Y+027937
X+011941Y+028937
X+011941Y+029937
X+011941Y+030937
X+011941Y+031937
X+011941Y+032937
X+011941Y+033937
X+011941Y+034937
X+011941Y+035937
X+011941Y+036937
X+011941Y+037937
X+011941Y+038937
X+017941Y+038937
X+017941Y+037937
X+017941Y+036937
X+017941Y+035937
X+017941Y+034937
X+017941Y+033937
X+017941Y+032937
X+017941Y+031937
X+017941Y+030937
X+017941Y+029937
X+017941Y+028937
X+017941Y+027937
X+017941Y+026937
X+017941Y+025937
X+021941Y+025937
X+021941Y+026937
X+021941Y+027937
X+021941Y+028937
X+021941Y+029937
X+021941Y+030937
X+021941Y+031937
X+021941Y+032937
X+021941Y+033937
X+021941Y+034937
X+021941Y+035937
X+021941Y+036937
X+021941Y+037937
X+021941Y+038937
X+021941Y+039937
X+021941Y+040937
X+027941Y+040937
X+027941Y+039937
X+027941Y+038937
X+027941Y+037937
X+027941Y+036937
X+027941Y+035937
X+027941Y+034937
X+027941Y+033937
X+027941Y+032937
X+027941Y+031937
X+027941Y+030937
X+027941Y+029937
X+027941Y+028937
X+027941Y+027937
X+027941Y+026937
X+027941Y+025937
X+034933Y+025937
X+034933Y+026937
X+034933Y+027937
X+034933Y+028937
X+034933Y+029937
X+034933Y+030937
X+034933Y+031937
X+034933Y+032937
X+034933Y+033937
X+034933Y+034937
X+034933Y+035937
X+034933Y+036937
X+034933Y+037937
X+034933Y+038937
X+034933Y+039937
X+034933Y+040937
X+040933Y+040937
X+040933Y+039937
X+040933Y+038937
X+040933Y+037937
X+040933Y+036937
X+040933Y+035937
X+040933Y+034937
X+040933Y+033937
X+040933Y+032937
X+040933Y+031937
X+040933Y+030937
X+040933Y+029937
X+040933Y+028937
X+040933Y+027937
X+040933Y+026937
X+040933Y+025937
X+040933Y+024937
X+040933Y+023937
X+040933Y+022937
X+040933Y+021937
X+041000Y+020000
X+042000Y+020000
X+043000Y+020000
X+044000Y+020000
X+045000Y+020000
X+046000Y+020000
X+047000Y+020000
X+047937Y+021937
X+047937Y+022937
X+047937Y+023937
X+047937Y+024937
X+047937Y+025937
X+047937Y+026937
X+047937Y+027937
X+047937Y+028937
X+047937Y+029937
X+047937Y+030937
X+047937Y+031937
X+047937Y+032937
X+047937Y+033937
X+047937Y+034937
X+047937Y+035937
X+047937Y+036937
X+047937Y+037937
X+047937Y+038937
X+047937Y+039937
X+047937Y+040937
X+053937Y+040937
X+053937Y+039937
X+053937Y+038937
X+053937Y+037937
X+053937Y+036937
X+053937Y+035937
X+053937Y+034937
X+053937Y+033937
X+053937Y+032937
X+053937Y+031937
X+053937Y+030937
X+053937Y+029937
X+053937Y+028937
X+053937Y+027937
X+053937Y+026937
X+053937Y+025937
X+053937Y+024937
X+053937Y+023937
X+053937Y+022937
X+053937Y+021937
X+047000Y+017000
X+046000Y+017000
X+045000Y+017000
X+044000Y+017000
X+043000Y+017000
X+042000Y+017000
X+041000Y+017000
X+040937Y+014000
X+039937Y+014000
X+041937Y+014000
X+042937Y+014000
X+043937Y+014000
X+044937Y+014000
X+045937Y+014000
X+046937Y+014000
X+047937Y+014000
X+048937Y+014000
X+048937Y+011000
X+047937Y+011000
X+046937Y+011000
X+045937Y+011000
X+044937Y+011000
X+043937Y+011000
X+042937Y+011000
X+041937Y+011000
X+040937Y+011000
X+039937Y+011000
X+040937Y+008000
X+041937Y+008000
X+042937Y+008000
X+043937Y+008000
X+044937Y+008000
X+045937Y+008000
X+046937Y+008000
X+046937Y+005000
X+045937Y+005000
X+044937Y+005000
X+043937Y+005000
X+042937Y+005000
X+041937Y+005000
X+040937Y+005000
X+034933Y+021937
X+034933Y+022937
X+034933Y+023937
X+034933Y+024937
X+008937Y+015937
X+008937Y+014953
X+065004Y+018996
X+065004Y+019996
X+065004Y+020996
X+065004Y+021996
X+068004Y+021996
X+068004Y+020996
X+068004Y+019996
X+068004Y+018996
X+069500Y+019000
X+069500Y+020000
X+069500Y+021000
X+069500Y+022000
X+069500Y+023000
X+069500Y+024000
X+069500Y+025000
X+069500Y+026000
X+072500Y+026000
X+072500Y+025000
X+072500Y+024000
X+072500Y+023000
X+072500Y+022000
X+072500Y+021000
X+072500Y+020000
X+072500Y+019000
X+076437Y+014937
X+076437Y+013953
X+076437Y+012937
X+076437Y+011953
X+077937Y+031437
X+078937Y+032437
X+079937Y+031437
T07
X+073941Y+038484
X+073941Y+037484
X+073941Y+036484
X+072941Y+036484
X+072941Y+035484
X+073941Y+035484
X+073941Y+034484
X+072941Y+034484
X+072941Y+033484
X+072941Y+032484
X+073941Y+032484
X+073941Y+033484
X+073941Y+031484
X+073941Y+030484
X+073941Y+029484
X+072941Y+029484
X+072941Y+030484
X+072941Y+031484
X+072941Y+028484
X+073941Y+028484
X+077500Y+021000
X+078500Y+021000
X+079500Y+021000
X+080500Y+021000
X+080500Y+020000
X+079500Y+020000
X+078500Y+020000
X+077500Y+020000
X+074000Y+016000
X+073000Y+016000
X+072937Y+006246
X+073937Y+006246
X+074937Y+006246
X+071937Y+006246
X+072941Y+037484
X+072941Y+038484
T08
X+062937Y+009937
X+063937Y+009937
X+064937Y+009937
X+065937Y+009937
X+066937Y+009937
X+067937Y+009937
X+068937Y+009937
X+069937Y+009937
X+069937Y+013937
X+069937Y+014937
X+068937Y+014937
X+068937Y+013937
X+064937Y+014937
X+063937Y+014937
X+062937Y+014937
X+059937Y+014937
X+058937Y+014937
X+057937Y+014937
X+056937Y+014937
X+055937Y+014937
X+054937Y+014937
X+053937Y+014937
X+052937Y+014937
X+052937Y+009937
X+053937Y+009937
X+054937Y+009937
X+055937Y+009937
X+056937Y+009937
X+057937Y+009937
X+058937Y+009937
X+059937Y+009937
X+071000Y+021000
X+071000Y+024937
X+066065Y+027969
X+065065Y+027969
X+064065Y+027969
X+063065Y+027969
X+062065Y+027969
X+061065Y+027969
X+076937Y+027937
X+076937Y+028937
X+077937Y+028937
X+077937Y+027937
X+077937Y+026937
X+077937Y+025937
X+077937Y+024937
X+077937Y+023937
X+076937Y+023937
X+076937Y+024937
X+076937Y+025937
X+076937Y+026937
X+079937Y+027937
X+079937Y+028937
X+080937Y+028937
X+080937Y+027937
X+078437Y+035260
X+078437Y+036087
X+078437Y+037110
X+078437Y+037937
X+077335Y+037937
X+077335Y+035260
X+035947Y+010947
X+035947Y+007010
X+031755Y+006260
X+030755Y+006260
X+029755Y+006260
X+028755Y+006260
X+027755Y+006260
X+026755Y+006260
X+025755Y+006260
X+024755Y+006260
X+023755Y+006260
X+022755Y+006260
X+021755Y+006260
X+020755Y+006260
X+019755Y+006260
X+018755Y+006260
X+018755Y+012260
X+019755Y+012260
X+020755Y+012260
X+021755Y+012260
X+022755Y+012260
X+023755Y+012260
X+024755Y+012260
X+025755Y+012260
X+026755Y+012260
X+027755Y+012260
X+028755Y+012260
X+029755Y+012260
X+030755Y+012260
X+031755Y+012260
X+017937Y+041937
X+016937Y+041937
X+015937Y+041937
X+014937Y+041937
T09
X+076551Y+005937
X+078323Y+005937
X+078323Y+008496
X+076551Y+008496
X+005937Y+013937
X+005937Y+014937
X+005937Y+015937
T10
X+024941Y+031937
X+024941Y+037843
X+014941Y+035937
X+014941Y+030031
X+037933Y+028031
X+037933Y+033937
X+050937Y+028843
X+050937Y+022937
X+047343Y+012500
X+041437Y+012500
T11
X+059500Y+017418
X+059500Y+025095
T12
X+005437Y+041437
X+005437Y+020177
X+005437Y+005437
X+074728Y+020177
X+080437Y+005437
X+080437Y+041437
X+074728Y+041437
T00
M30
