M48
INCH
T01C0.0191
T02C0.0197
T03C0.0276
T04C0.0295
T05C0.03
T06C0.0315
T07C0.0354
T08C0.0394
T09C0.0433
T10C0.0472
T11C0.0512
T12C0.1378
%
T01
X+037189Y+036052
X+038901Y+034937
X+041367Y+036400
X+042030Y+034400
X+042091Y+032937
X+041888Y+032400
X+041743Y+030937
X+041396Y+030400
X+040499Y+031400
X+040269Y+028937
X+039114Y+026937
X+039871Y+025937
X+036919Y+024400
X+033972Y+023203
X+035894Y+021166
X+040470Y+020496
X+040937Y+019446
X+039474Y+017935
X+037685Y+016856
X+034320Y+012400
X+030383Y+013987
X+026838Y+013095
X+026534Y+014683
X+025186Y+014683
X+023186Y+013987
X+022404Y+016161
X+023103Y+016856
X+019755Y+017935
X+019059Y+017437
X+018450Y+019952
X+020755Y+020496
X+020035Y+023029
X+021755Y+024626
X+022755Y+023400
X+023755Y+021242
X+024946Y+021166
X+027881Y+017935
X+027755Y+016856
X+028755Y+023747
X+028404Y+027400
X+028404Y+029534
X+027328Y+029371
X+025712Y+031400
X+028375Y+032400
X+029534Y+034400
X+031329Y+031934
X+030755Y+030901
X+030383Y+029944
X+032573Y+031069
X+035546Y+031400
X+036611Y+032747
X+033134Y+034937
X+033926Y+035937
X+033118Y+037400
X+032226Y+038400
X+033118Y+039790
X+033482Y+040400
X+034320Y+038747
X+035546Y+038937
X+036882Y+041400
X+033118Y+042339
X+023610Y+037843
X+021328Y+039937
X+016455Y+041400
X+011478Y+042072
X+012751Y+035285
X+014622Y+033937
X+013400Y+031400
X+020383Y+033400
X+022166Y+011678
X+027186Y+008794
X+027755Y+007551
X+036987Y+005081
X+040937Y+011324
X+043285Y+016161
X+044400Y+018901
X+044474Y+025400
X+048550Y+027400
X+049442Y+030937
X+049614Y+031937
X+049564Y+032937
X+049338Y+033937
X+048550Y+034747
X+049543Y+036435
X+050589Y+035937
X+051285Y+034747
X+051834Y+036937
X+051481Y+037400
X+051829Y+038937
X+047278Y+038436
X+047141Y+039747
X+045296Y+039400
X+044948Y+038400
X+044948Y+037100
X+045317Y+036747
X+045937Y+035435
X+044474Y+034937
X+043905Y+037589
X+043360Y+038747
X+054371Y+033439
X+054550Y+030747
X+053503Y+029400
X+054400Y+028435
X+055246Y+026783
X+055744Y+026639
X+056243Y+026987
X+056243Y+027937
X+054898Y+026285
X+052381Y+026400
X+052225Y+029937
X+057285Y+032937
X+057786Y+036589
X+061998Y+035400
X+064570Y+033439
X+064923Y+033937
X+065937Y+032294
X+065589Y+031342
X+065937Y+030596
X+066937Y+030035
X+067937Y+029687
X+069285Y+029687
X+071402Y+027682
X+070616Y+025747
X+074751Y+028285
X+075643Y+028285
X+075643Y+026292
X+076142Y+025937
X+074404Y+022400
X+079900Y+019208
X+079526Y+031868
X+075991Y+037947
X+076411Y+039144
X+072507Y+039491
X+072507Y+040937
X+070244Y+037294
X+068937Y+034937
X+071251Y+032642
X+071750Y+032294
X+067131Y+031947
X+063419Y+030249
X+063815Y+029270
X+062767Y+028570
X+061998Y+028918
X+063489Y+027400
X+064570Y+024437
X+063326Y+020478
X+066285Y+015813
X+067285Y+015419
X+065419Y+011357
X+069589Y+011010
X+060419Y+011010
X+056934Y+015813
X+056435Y+015813
X+055895Y+018901
X+056590Y+020496
X+052258Y+020496
X+052937Y+017937
X+050166Y+023557
X+057786Y+025400
X+058973Y+024937
X+060272Y+025337
X+060331Y+030747
X+046400Y+007551
T02
X+067264Y+038563
X+067264Y+039311
T03
X+045937Y+025937
X+045937Y+024937
X+045937Y+026937
X+045937Y+027937
X+042937Y+027937
X+042937Y+026937
X+042937Y+025937
X+042937Y+024937
X+042937Y+022937
X+045937Y+022937
X+032937Y+023937
X+032937Y+025937
X+029937Y+025937
X+029937Y+023937
X+071937Y+008717
X+071937Y+007602
X+074937Y+007602
X+074937Y+008717
X+077437Y+015437
X+078437Y+015437
X+079437Y+015437
X+080437Y+015437
X+080437Y+018437
X+079437Y+018437
X+078437Y+018437
X+077437Y+018437
X+077835Y+040937
X+076835Y+040937
X+076835Y+041937
X+077835Y+041937
T04
X+072937Y+010937
X+073437Y+011437
X+073937Y+010937
T06
X+011937Y+018945
X+012937Y+018945
X+013937Y+018945
X+014937Y+018945
X+015937Y+018945
X+016937Y+018945
X+017937Y+018945
X+017937Y+021945
X+016937Y+021945
X+015937Y+021945
X+014937Y+021945
X+013937Y+021945
X+012937Y+021945
X+011937Y+021945
X+011941Y+025937
X+011941Y+026937
X+011941Y+027937
X+011941Y+028937
X+011941Y+029937
X+011941Y+030937
X+011941Y+031937
X+011941Y+032937
X+011941Y+033937
X+011941Y+034937
X+011941Y+035937
X+011941Y+036937
X+011941Y+037937
X+011941Y+038937
X+017941Y+038937
X+017941Y+037937
X+017941Y+036937
X+017941Y+035937
X+017941Y+034937
X+017941Y+033937
X+017941Y+032937
X+017941Y+031937
X+017941Y+030937
X+017941Y+029937
X+017941Y+028937
X+017941Y+027937
X+017941Y+026937
X+017941Y+025937
X+021941Y+025937
X+021941Y+026937
X+021941Y+027937
X+021941Y+028937
X+021941Y+029937
X+021941Y+030937
X+021941Y+031937
X+021941Y+032937
X+021941Y+033937
X+021941Y+034937
X+021941Y+035937
X+021941Y+036937
X+021941Y+037937
X+021941Y+038937
X+021941Y+039937
X+021941Y+040937
X+027941Y+040937
X+027941Y+039937
X+027941Y+038937
X+027941Y+037937
X+027941Y+036937
X+027941Y+035937
X+027941Y+034937
X+027941Y+033937
X+027941Y+032937
X+027941Y+031937
X+027941Y+030937
X+027941Y+029937
X+027941Y+028937
X+027941Y+027937
X+027941Y+026937
X+027941Y+025937
X+034933Y+025937
X+034933Y+026937
X+034933Y+027937
X+034933Y+028937
X+034933Y+029937
X+034933Y+030937
X+034933Y+031937
X+034933Y+032937
X+034933Y+033937
X+034933Y+034937
X+034933Y+035937
X+034933Y+036937
X+034933Y+037937
X+034933Y+038937
X+034933Y+039937
X+034933Y+040937
X+040933Y+040937
X+040933Y+039937
X+040933Y+038937
X+040933Y+037937
X+040933Y+036937
X+040933Y+035937
X+040933Y+034937
X+040933Y+033937
X+040933Y+032937
X+040933Y+031937
X+040933Y+030937
X+040933Y+029937
X+040933Y+028937
X+040933Y+027937
X+040933Y+026937
X+040933Y+025937
X+040933Y+024937
X+040933Y+023937
X+040933Y+022937
X+040933Y+021937
X+034933Y+021937
X+034933Y+022937
X+034933Y+023937
X+034933Y+024937
X+039937Y+014937
X+040937Y+014937
X+041937Y+014937
X+042937Y+014937
X+043937Y+014937
X+044937Y+014937
X+045937Y+014937
X+046937Y+014937
X+047937Y+014937
X+048937Y+014937
X+048937Y+011937
X+047937Y+011937
X+046937Y+011937
X+045937Y+011937
X+044937Y+011937
X+043937Y+011937
X+042937Y+011937
X+041937Y+011937
X+040937Y+011937
X+039937Y+011937
X+040937Y+008937
X+041937Y+008937
X+042937Y+008937
X+043937Y+008937
X+044937Y+008937
X+045937Y+008937
X+046937Y+008937
X+046937Y+005937
X+045937Y+005937
X+044937Y+005937
X+043937Y+005937
X+042937Y+005937
X+041937Y+005937
X+040937Y+005937
X+047937Y+021937
X+047937Y+022937
X+047937Y+023937
X+047937Y+024937
X+047937Y+025937
X+047937Y+026937
X+047937Y+027937
X+047937Y+028937
X+047937Y+029937
X+047937Y+030937
X+047937Y+031937
X+047937Y+032937
X+047937Y+033937
X+047937Y+034937
X+047937Y+035937
X+047937Y+036937
X+047937Y+037937
X+047937Y+038937
X+047937Y+039937
X+047937Y+040937
X+053937Y+040937
X+053937Y+039937
X+053937Y+038937
X+053937Y+037937
X+053937Y+036937
X+053937Y+035937
X+053937Y+034937
X+053937Y+033937
X+053937Y+032937
X+053937Y+031937
X+053937Y+030937
X+053937Y+029937
X+053937Y+028937
X+053937Y+027937
X+053937Y+026937
X+053937Y+025937
X+053937Y+024937
X+053937Y+023937
X+053937Y+022937
X+053937Y+021937
X+060937Y+021937
X+060937Y+022937
X+060937Y+023937
X+060937Y+024937
X+063937Y+024937
X+063937Y+023937
X+063937Y+022937
X+063937Y+021937
X+063937Y+020937
X+063937Y+019937
X+063937Y+018937
X+063937Y+017937
X+060937Y+017937
X+060937Y+018937
X+060937Y+019937
X+060937Y+020937
X+068937Y+020937
X+068937Y+021937
X+068937Y+022937
X+068937Y+023937
X+068937Y+024937
X+071937Y+024937
X+071937Y+023937
X+071937Y+022937
X+071937Y+021937
X+071937Y+020937
X+071937Y+019937
X+071937Y+018937
X+068937Y+018937
X+068937Y+019937
X+076437Y+014937
X+076437Y+013953
X+076437Y+012937
X+076437Y+011953
X+077937Y+031437
X+078937Y+032437
X+079937Y+031437
X+070441Y+033433
X+070441Y+034433
X+070441Y+035433
X+070441Y+036433
X+067441Y+036433
X+067441Y+035433
X+067441Y+034433
X+067441Y+033433
X+008937Y+015937
X+008937Y+014953
T07
X+073941Y+038484
X+073941Y+037484
X+073941Y+036484
X+072941Y+036484
X+072941Y+035484
X+073941Y+035484
X+073941Y+034484
X+072941Y+034484
X+072941Y+033484
X+072941Y+032484
X+073941Y+032484
X+073941Y+033484
X+073941Y+031484
X+073941Y+030484
X+073941Y+029484
X+072941Y+029484
X+072941Y+030484
X+072941Y+031484
X+072941Y+028484
X+073941Y+028484
X+077437Y+020937
X+078437Y+020937
X+079437Y+020937
X+080437Y+020937
X+080437Y+019937
X+079437Y+019937
X+078437Y+019937
X+077437Y+019937
X+073937Y+014937
X+072937Y+014937
X+072937Y+006246
X+073937Y+006246
X+074937Y+006246
X+071937Y+006246
X+072941Y+037484
X+072941Y+038484
T08
X+062937Y+009937
X+063937Y+009937
X+064937Y+009937
X+065937Y+009937
X+066937Y+009937
X+067937Y+009937
X+068937Y+009937
X+069937Y+009937
X+069937Y+013937
X+069937Y+014937
X+068937Y+014937
X+068937Y+013937
X+064937Y+014937
X+063937Y+014937
X+062937Y+014937
X+059937Y+014937
X+058937Y+014937
X+057937Y+014937
X+056937Y+014937
X+055937Y+014937
X+054937Y+014937
X+053937Y+014937
X+052937Y+014937
X+052937Y+009937
X+053937Y+009937
X+054937Y+009937
X+055937Y+009937
X+056937Y+009937
X+057937Y+009937
X+058937Y+009937
X+059937Y+009937
X+062437Y+019937
X+062437Y+023874
X+062937Y+027937
X+061937Y+027937
X+060937Y+027937
X+059937Y+027937
X+058937Y+027937
X+063937Y+027937
X+076937Y+027937
X+076937Y+028937
X+077937Y+028937
X+077937Y+027937
X+077937Y+026937
X+077937Y+025937
X+077937Y+024937
X+077937Y+023937
X+076937Y+023937
X+076937Y+024937
X+076937Y+025937
X+076937Y+026937
X+079937Y+027937
X+079937Y+028937
X+080937Y+028937
X+080937Y+027937
X+078437Y+035260
X+078437Y+036087
X+078437Y+037110
X+078437Y+037937
X+077335Y+037937
X+077335Y+035260
X+035947Y+010947
X+035947Y+007010
X+031755Y+006260
X+030755Y+006260
X+029755Y+006260
X+028755Y+006260
X+027755Y+006260
X+026755Y+006260
X+025755Y+006260
X+024755Y+006260
X+023755Y+006260
X+022755Y+006260
X+021755Y+006260
X+020755Y+006260
X+019755Y+006260
X+018755Y+006260
X+018755Y+012260
X+019755Y+012260
X+020755Y+012260
X+021755Y+012260
X+022755Y+012260
X+023755Y+012260
X+024755Y+012260
X+025755Y+012260
X+026755Y+012260
X+027755Y+012260
X+028755Y+012260
X+029755Y+012260
X+030755Y+012260
X+031755Y+012260
X+017937Y+041937
X+016937Y+041937
X+015937Y+041937
X+014937Y+041937
T09
X+076551Y+005937
X+078323Y+005937
X+078323Y+008496
X+076551Y+008496
X+005937Y+013937
X+005937Y+014937
X+005937Y+015937
T10
X+024941Y+031937
X+024941Y+037843
X+014941Y+035937
X+014941Y+030031
X+037933Y+028031
X+037933Y+033937
X+050937Y+028843
X+050937Y+022937
X+047343Y+013437
X+041437Y+013437
T11
X+061437Y+039019
X+061437Y+031342
T12
X+005437Y+041437
X+005437Y+020177
X+005437Y+005437
X+074728Y+020177
X+080437Y+005437
X+080437Y+041437
X+074728Y+041437
T00
M30
