M48
INCH
T01C0.0191
T02C0.0197
T03C0.0276
T04C0.0295
T05C0.03
T06C0.0315
T07C0.0354
T08C0.0394
T09C0.0433
T10C0.0472
T11C0.0512
T12C0.1378
%
T01
X+075951Y+036913
X+077888Y+037110
X+077425Y+039837
X+072841Y+041596
X+072106Y+042095
X+069517Y+038947
X+071689Y+034344
X+070531Y+032400
X+071328Y+031294
X+070531Y+030832
X+068356Y+028439
X+067858Y+028937
X+067028Y+029937
X+065834Y+030747
X+065209Y+029589
X+063028Y+030400
X+062028Y+029400
X+062526Y+028419
X+060707Y+031400
X+061528Y+033433
X+063510Y+033937
X+064356Y+031937
X+065209Y+032400
X+058510Y+032937
X+055185Y+033439
X+054461Y+033439
X+054838Y+034632
X+052194Y+034400
X+049274Y+033937
X+049264Y+032435
X+049959Y+032400
X+048641Y+031937
X+049382Y+030937
X+051375Y+029937
X+051995Y+029764
X+053017Y+029400
X+052192Y+031400
X+049035Y+026944
X+047594Y+026400
X+047594Y+028400
X+046342Y+031400
X+045274Y+032400
X+045995Y+034400
X+046690Y+035747
X+047038Y+036400
X+047594Y+035400
X+047217Y+038052
X+049610Y+037937
X+051375Y+040400
X+054641Y+039937
X+054989Y+038400
X+057639Y+037243
X+057986Y+037742
X+056576Y+027285
X+056228Y+025944
X+055533Y+026269
X+055185Y+025747
X+056162Y+024415
X+058858Y+023937
X+060028Y+024937
X+061641Y+024937
X+061461Y+020400
X+060375Y+019204
X+058858Y+020050
X+061028Y+017324
X+060375Y+016283
X+054838Y+017400
X+054028Y+016405
X+053028Y+017747
X+054028Y+018856
X+045490Y+015437
X+044028Y+017596
X+043838Y+018508
X+041028Y+019656
X+042755Y+021937
X+039432Y+023937
X+039188Y+025400
X+040410Y+025937
X+042211Y+026944
X+040167Y+028937
X+039820Y+029937
X+039820Y+030747
X+040410Y+031937
X+039820Y+035400
X+039595Y+036747
X+037506Y+037892
X+036036Y+036400
X+035683Y+035474
X+036905Y+035589
X+034590Y+033435
X+034410Y+032937
X+036031Y+031937
X+036378Y+031400
X+034044Y+029937
X+031494Y+030400
X+029189Y+029937
X+029468Y+028937
X+029966Y+028400
X+031494Y+027937
X+031689Y+027400
X+030798Y+026724
X+031689Y+024297
X+034561Y+024493
X+035834Y+025937
X+036775Y+025747
X+037676Y+026400
X+035927Y+027400
X+035335Y+020050
X+038569Y+016350
X+039432Y+014400
X+041028Y+012490
X+033120Y+009093
X+030689Y+009441
X+026689Y+009093
X+027100Y+006079
X+027037Y+015292
X+029689Y+016350
X+029689Y+017203
X+029468Y+018856
X+027557Y+021790
X+027904Y+022750
X+026840Y+023911
X+024689Y+024141
X+023689Y+025674
X+022120Y+023098
X+021569Y+022750
X+019904Y+024841
X+015494Y+024379
X+019224Y+020443
X+020251Y+019204
X+020599Y+017203
X+022494Y+017596
X+022842Y+018508
X+025120Y+018856
X+025689Y+021443
X+024120Y+021790
X+027557Y+027400
X+027171Y+030937
X+028494Y+031371
X+029537Y+032937
X+028645Y+034295
X+030798Y+034295
X+031146Y+034793
X+031494Y+035822
X+033028Y+036400
X+033451Y+035822
X+029573Y+037937
X+026196Y+039400
X+023734Y+036400
X+026468Y+032400
X+022842Y+029400
X+019904Y+033400
X+019510Y+038937
X+018572Y+038937
X+021251Y+042311
X+014042Y+041964
X+011215Y+041964
X+011471Y+036400
X+038018Y+040400
X+041024Y+041964
X+044730Y+037937
X+044382Y+030400
X+045454Y+025937
X+052348Y+009093
X+054510Y+007888
X+065904Y+012490
X+068054Y+015419
X+068414Y+023400
X+070024Y+024400
X+070069Y+025249
X+070707Y+027137
X+075432Y+027485
X+076394Y+027937
X+075850Y+025944
X+076198Y+024937
X+079990Y+021371
T02
X+067354Y+038563
X+067354Y+039311
T03
X+046028Y+025937
X+046028Y+024937
X+046028Y+026937
X+046028Y+027937
X+043028Y+027937
X+043028Y+026937
X+043028Y+025937
X+043028Y+024937
X+043028Y+022937
X+046028Y+022937
X+033028Y+023937
X+033028Y+025937
X+030028Y+025937
X+030028Y+023937
X+072028Y+008717
X+072028Y+007602
X+075028Y+007602
X+075028Y+008717
X+077528Y+015437
X+078528Y+015437
X+079528Y+015437
X+080528Y+015437
X+080528Y+018437
X+079528Y+018437
X+078528Y+018437
X+077528Y+018437
X+077925Y+040937
X+076925Y+040937
X+076925Y+041937
X+077925Y+041937
T04
X+073028Y+010937
X+073528Y+011437
X+074028Y+010937
T06
X+009028Y+020945
X+010028Y+020945
X+011028Y+020945
X+012028Y+020945
X+013028Y+020945
X+014028Y+020945
X+015028Y+020945
X+015028Y+023945
X+014028Y+023945
X+013028Y+023945
X+012028Y+023945
X+011028Y+023945
X+010028Y+023945
X+009028Y+023945
X+009031Y+027937
X+009031Y+028937
X+009031Y+029937
X+009031Y+030937
X+009031Y+031937
X+009031Y+032937
X+009031Y+033937
X+009031Y+034937
X+009031Y+035937
X+009031Y+036937
X+009031Y+037937
X+009031Y+038937
X+009031Y+039937
X+009031Y+040937
X+015031Y+040937
X+015031Y+039937
X+015031Y+038937
X+015031Y+037937
X+015031Y+036937
X+015031Y+035937
X+015031Y+034937
X+015031Y+033937
X+015031Y+032937
X+015031Y+031937
X+015031Y+030937
X+015031Y+029937
X+015031Y+028937
X+015031Y+027937
X+022031Y+027937
X+022031Y+026937
X+022031Y+025937
X+022031Y+028937
X+022031Y+029937
X+022031Y+030937
X+022031Y+031937
X+022031Y+032937
X+022031Y+033937
X+022031Y+034937
X+022031Y+035937
X+022031Y+036937
X+022031Y+037937
X+022031Y+038937
X+022031Y+039937
X+022031Y+040937
X+028031Y+040937
X+028031Y+039937
X+028031Y+038937
X+028031Y+037937
X+028031Y+036937
X+028031Y+035937
X+028031Y+034937
X+028031Y+033937
X+028031Y+032937
X+028031Y+031937
X+028031Y+030937
X+028031Y+029937
X+028031Y+028937
X+028031Y+027937
X+028031Y+026937
X+028031Y+025937
X+035024Y+025937
X+035024Y+026937
X+035024Y+027937
X+035024Y+028937
X+035024Y+029937
X+035024Y+030937
X+035024Y+031937
X+035024Y+032937
X+035024Y+033937
X+035024Y+034937
X+035024Y+035937
X+035024Y+036937
X+035024Y+037937
X+035024Y+038937
X+035024Y+039937
X+035024Y+040937
X+041024Y+040937
X+041024Y+039937
X+041024Y+038937
X+041024Y+037937
X+041024Y+036937
X+041024Y+035937
X+041024Y+034937
X+041024Y+033937
X+041024Y+032937
X+041024Y+031937
X+041024Y+030937
X+041024Y+029937
X+041024Y+028937
X+041024Y+027937
X+041024Y+026937
X+041024Y+025937
X+041024Y+024937
X+041024Y+023937
X+041024Y+022937
X+041024Y+021937
X+041028Y+016937
X+040028Y+016937
X+042028Y+016937
X+043028Y+016937
X+044028Y+016937
X+045028Y+016937
X+046028Y+016937
X+047028Y+016937
X+048028Y+016937
X+049028Y+016937
X+049028Y+013937
X+048028Y+013937
X+047028Y+013937
X+046028Y+013937
X+045028Y+013937
X+044028Y+013937
X+043028Y+013937
X+042028Y+013937
X+041028Y+013937
X+040028Y+013937
X+041028Y+010937
X+042028Y+010937
X+043028Y+010937
X+044028Y+010937
X+045028Y+010937
X+046028Y+010937
X+047028Y+010937
X+047028Y+007937
X+046028Y+007937
X+045028Y+007937
X+044028Y+007937
X+043028Y+007937
X+042028Y+007937
X+041028Y+007937
X+035024Y+021937
X+035024Y+022937
X+035024Y+023937
X+035024Y+024937
X+048028Y+024937
X+048028Y+023937
X+048028Y+022937
X+048028Y+021937
X+048028Y+025937
X+048028Y+026937
X+048028Y+027937
X+048028Y+028937
X+048028Y+029937
X+048028Y+030937
X+048028Y+031937
X+048028Y+032937
X+048028Y+033937
X+048028Y+034937
X+048028Y+035937
X+048028Y+036937
X+048028Y+037937
X+048028Y+038937
X+048028Y+039937
X+048028Y+040937
X+054028Y+040937
X+054028Y+039937
X+054028Y+038937
X+054028Y+037937
X+054028Y+036937
X+054028Y+035937
X+054028Y+034937
X+054028Y+033937
X+054028Y+032937
X+054028Y+031937
X+054028Y+030937
X+054028Y+029937
X+054028Y+028937
X+054028Y+027937
X+054028Y+026937
X+054028Y+025937
X+054028Y+024937
X+054028Y+023937
X+054028Y+022937
X+054028Y+021937
X+061028Y+021937
X+061028Y+022937
X+061028Y+023937
X+061028Y+024937
X+064028Y+024937
X+064028Y+023937
X+064028Y+022937
X+064028Y+021937
X+064028Y+020937
X+064028Y+019937
X+064028Y+018937
X+064028Y+017937
X+061028Y+017937
X+061028Y+018937
X+061028Y+019937
X+061028Y+020937
X+069028Y+020937
X+069028Y+021937
X+069028Y+022937
X+069028Y+023937
X+069028Y+024937
X+072028Y+024937
X+072028Y+023937
X+072028Y+022937
X+072028Y+021937
X+072028Y+020937
X+072028Y+019937
X+072028Y+018937
X+069028Y+018937
X+069028Y+019937
X+076528Y+014937
X+076528Y+013953
X+076528Y+012937
X+076528Y+011953
X+078028Y+031437
X+079028Y+032437
X+080028Y+031437
X+070531Y+033433
X+070531Y+034433
X+070531Y+035433
X+070531Y+036433
X+067531Y+036433
X+067531Y+035433
X+067531Y+034433
X+067531Y+033433
X+010528Y+005937
X+009543Y+005937
T07
X+074031Y+038484
X+074031Y+037484
X+074031Y+036484
X+073031Y+036484
X+073031Y+035484
X+074031Y+035484
X+074031Y+034484
X+073031Y+034484
X+073031Y+033484
X+073031Y+032484
X+074031Y+032484
X+074031Y+033484
X+074031Y+031484
X+074031Y+030484
X+074031Y+029484
X+073031Y+029484
X+073031Y+030484
X+073031Y+031484
X+073031Y+028484
X+074031Y+028484
X+077528Y+020937
X+078528Y+020937
X+079528Y+020937
X+080528Y+020937
X+080528Y+019937
X+079528Y+019937
X+078528Y+019937
X+077528Y+019937
X+074028Y+014937
X+073028Y+014937
X+073028Y+006246
X+074028Y+006246
X+075028Y+006246
X+072028Y+006246
X+073031Y+037484
X+073031Y+038484
T08
X+063028Y+009937
X+064028Y+009937
X+065028Y+009937
X+066028Y+009937
X+067028Y+009937
X+068028Y+009937
X+069028Y+009937
X+070028Y+009937
X+070028Y+013937
X+070028Y+014937
X+069028Y+014937
X+069028Y+013937
X+065028Y+014937
X+064028Y+014937
X+063028Y+014937
X+060028Y+014937
X+059028Y+014937
X+058028Y+014937
X+057028Y+014937
X+056028Y+014937
X+055028Y+014937
X+054028Y+014937
X+053028Y+014937
X+053028Y+009937
X+054028Y+009937
X+055028Y+009937
X+056028Y+009937
X+057028Y+009937
X+058028Y+009937
X+059028Y+009937
X+060028Y+009937
X+062528Y+019937
X+062528Y+023874
X+063028Y+027937
X+062028Y+027937
X+061028Y+027937
X+060028Y+027937
X+059028Y+027937
X+064028Y+027937
X+077028Y+027937
X+077028Y+028937
X+078028Y+028937
X+078028Y+027937
X+078028Y+026937
X+078028Y+025937
X+078028Y+024937
X+078028Y+023937
X+077028Y+023937
X+077028Y+024937
X+077028Y+025937
X+077028Y+026937
X+080028Y+027937
X+080028Y+028937
X+081028Y+028937
X+081028Y+027937
X+078528Y+035260
X+078528Y+036087
X+078528Y+037110
X+078528Y+037937
X+077425Y+037937
X+077425Y+035260
X+037881Y+011197
X+037881Y+007260
X+033689Y+006510
X+032689Y+006510
X+031689Y+006510
X+030689Y+006510
X+029689Y+006510
X+028689Y+006510
X+027689Y+006510
X+026689Y+006510
X+025689Y+006510
X+024689Y+006510
X+023689Y+006510
X+022689Y+006510
X+021689Y+006510
X+020689Y+006510
X+020689Y+012510
X+021689Y+012510
X+022689Y+012510
X+023689Y+012510
X+024689Y+012510
X+025689Y+012510
X+026689Y+012510
X+027689Y+012510
X+028689Y+012510
X+029689Y+012510
X+030689Y+012510
X+031689Y+012510
X+032689Y+012510
X+033689Y+012510
X+017028Y+040937
X+018028Y+040937
X+019028Y+040937
X+020028Y+040937
T09
X+076642Y+005937
X+078413Y+005937
X+078413Y+008496
X+076642Y+008496
X+010528Y+008937
X+010528Y+007937
X+010528Y+009937
T10
X+025031Y+031937
X+025031Y+037843
X+012031Y+037937
X+012031Y+032031
X+038024Y+033937
X+038024Y+028031
X+051028Y+028843
X+051028Y+022937
X+047433Y+015437
X+041528Y+015437
T11
X+061528Y+039019
X+061528Y+031342
T12
X+005528Y+041437
X+005528Y+020177
X+005528Y+005437
X+074819Y+020177
X+080528Y+005437
X+080528Y+041437
X+074819Y+041437
T00
M30
