%TF.GenerationSoftware,Novarm,DipTrace,4.3.0.4*%
%TF.CreationDate,2023-05-10T15:20:16+01:00*%
%FSLAX26Y26*%
%MOIN*%
%TF.FileFunction,Copper,L1,Top*%
%TF.Part,Single*%
%AMOUTLINE0*
4,1,28,
-0.007874,-0.028051,
-0.007874,0.028051,
-0.00774,0.02907,
-0.007347,0.03002,
-0.006721,0.030835,
-0.005906,0.031461,
-0.004956,0.031854,
-0.003937,0.031988,
0.003937,0.031988,
0.004956,0.031854,
0.005906,0.031461,
0.006721,0.030835,
0.007347,0.03002,
0.00774,0.02907,
0.007874,0.028051,
0.007874,-0.028051,
0.00774,-0.02907,
0.007347,-0.03002,
0.006721,-0.030835,
0.005906,-0.031461,
0.004956,-0.031854,
0.003937,-0.031988,
-0.003937,-0.031988,
-0.004956,-0.031854,
-0.005906,-0.031461,
-0.006721,-0.030835,
-0.007347,-0.03002,
-0.00774,-0.02907,
-0.007874,-0.028051,
0*%
%TA.AperFunction,Conductor*%
%ADD13C,0.009843*%
%TA.AperFunction,ComponentPad*%
%ADD16R,0.062992X0.062992*%
%ADD17C,0.062992*%
%ADD18C,0.055118*%
%ADD19C,0.055118*%
%ADD20R,0.066929X0.066929*%
%ADD21C,0.066929*%
%ADD22C,0.07874*%
%ADD23R,0.051181X0.051181*%
%ADD24C,0.051181*%
%ADD25C,0.066929*%
%ADD26C,0.19685*%
%ADD27C,0.062992*%
%ADD28C,0.094488*%
%ADD29R,0.056693X0.056693*%
%ADD30C,0.056693*%
%ADD31O,0.137795X0.07874*%
%ADD32O,0.07874X0.15748*%
%ADD33R,0.070866X0.070866*%
%ADD34C,0.070866*%
%ADD35O,0.047244X0.06*%
%ADD36R,0.181102X0.07874*%
%ADD37O,0.165354X0.07874*%
%ADD38O,0.07874X0.165354*%
%ADD39R,0.07874X0.075*%
%ADD40O,0.07874X0.075*%
%ADD41R,0.07874X0.059055*%
%ADD42R,0.07874X0.149606*%
%TA.AperFunction,ComponentPad*%
%ADD43C,0.056693*%
%ADD44C,0.06*%
%ADD45C,0.03937*%
%ADD46R,0.082677X0.082677*%
%ADD47C,0.082677*%
%TA.AperFunction,ViaPad*%
%ADD48C,0.04*%
%ADD114OUTLINE0*%
G75*
G01*
%LPD*%
X7768701Y1303150D2*
D13*
X7822835D1*
X7842520Y1322835D1*
Y1392717D1*
X8016732D1*
Y1303150D1*
X7743701Y1543701D2*
X7842520Y1444881D1*
Y1392717D1*
X5093701Y2293701D2*
X4993701Y2193701D1*
X4793701D1*
X1194094Y3893701D2*
X1394094D1*
X1494094Y3793701D1*
Y3593701D1*
X2494094Y3193701D2*
Y2793701D1*
X2594094Y2693701D1*
X2794094D1*
X3793307Y3393701D2*
X3493307D1*
X3993701Y1493701D2*
X4143701Y1343701D1*
X6243701Y2387402D2*
Y2443701D1*
X6293701Y2493701D1*
X6393701D1*
X2794094Y2693701D2*
Y2593701D1*
X3594685Y1094685D2*
X3593701Y1093701D1*
X1994685D1*
X1875492Y1212894D1*
Y1225984D1*
X1193701Y2194488D2*
X939264D1*
X521748Y1776973D1*
Y1413386D1*
X541433Y1393701D1*
X593701D1*
X3493307Y3393701D2*
X2886350D1*
X2840090Y3439961D1*
X2740354D1*
X2494094Y3193701D1*
X7768701Y1212598D2*
X7707287D1*
X7689964Y1195276D1*
X7643701D1*
X4093701Y893701D2*
X3795669D1*
X3594685Y1094685D1*
X4293701Y2793701D2*
X4371417D1*
X4471417Y2693701D1*
X4593701D1*
X4293701Y2593701D2*
X4393701Y2493701D1*
X4593701D1*
X7793701Y2893701D2*
X7738976Y2948425D1*
X7394094D1*
X4793701Y2193701D2*
X4693701D1*
X4593701Y2293701D1*
X3718897Y3605197D2*
Y3774114D1*
X3741535Y3796752D1*
Y3893701D1*
X5393701Y2493701D2*
X5897327D1*
X7193701D2*
X7147441Y2539961D1*
X6486219D1*
X6439959Y2493701D1*
X6393701D1*
X2194094Y2693701D2*
X1879724D1*
X1794094D1*
X2194094Y2793701D2*
X2494094D1*
X2794094Y2593701D2*
X2993701D1*
X7683465Y4093701D2*
X7783465D1*
X7343701Y1143701D2*
X7143701D1*
X6893701Y1393701D1*
X7643701Y1195276D2*
X7592126Y1143701D1*
X7343701D1*
X7394094Y3748425D2*
X7395079Y3747441D1*
X7622245D1*
X7843701Y3525984D1*
X5897327Y2493701D2*
X5937331Y2533705D1*
X6027169D1*
X593701Y1593701D2*
X778058D1*
X893701D1*
X950827Y1650827D1*
X6736575D1*
X6893701Y1493701D1*
X5393701Y3893701D2*
X5697835Y3589567D1*
X7108595D1*
X7149736Y3548425D1*
X7294094D1*
X3431968Y3874725D2*
X3092835D1*
X2911811Y3693701D1*
X2794094D1*
X4714098Y3974725D2*
X4514523D1*
X4494838Y3955040D1*
Y3839961D1*
X2775492Y755119D2*
X4639964D1*
X2794094Y3693701D2*
X2263484D1*
X2217224Y3739961D1*
X1847835D1*
X1794094Y3793701D1*
X4494838Y3839961D2*
Y3709969D1*
X2494626Y2116650D2*
X2541945Y2069331D1*
X3492252D1*
X3539571Y2116650D1*
X3589413D1*
X3624177D1*
X3632756Y2108071D1*
X5604566D1*
X5790196Y2293701D1*
X6093701D1*
X2375492Y2124174D2*
X2445019Y2193701D1*
X3493307D1*
X2794094Y2893701D2*
X3115819D1*
X3268374Y2741146D1*
X3587598D1*
X3711614Y2865162D1*
X3926496D1*
X3946181Y2845477D1*
Y2440827D1*
X4093307Y2293701D1*
X2216642Y1167800D2*
X2498917D1*
X2518602Y1187485D1*
Y1289808D1*
X2538287Y1309493D1*
X2683838D1*
X2075492Y2049646D2*
X4047047D1*
X1975492Y1793524D2*
X2788130D1*
X3947441D1*
X3987126Y2593701D2*
Y2865162D1*
X3967441Y2884847D1*
X3612078D1*
X3572712Y2845481D1*
X3358680D1*
X3271090Y2933071D1*
X3003523D1*
X2983838Y2952756D1*
Y3120276D1*
X2964153Y3139961D1*
X2571181D1*
X5393701Y993701D2*
Y809566D1*
X5374016Y789882D1*
X2695177D1*
X2675492Y770196D1*
Y625984D1*
X2794094Y3593701D2*
X3392598D1*
X4727752Y3843642D2*
X4549290D1*
X4529606Y3863326D1*
Y3939961D1*
X3348153Y4039961D2*
X4934646D1*
X4954331Y4020276D1*
Y3643544D1*
X2794094Y3493701D2*
X3313390D1*
X2794094Y3393701D2*
X2847835Y3339961D1*
X3595870D1*
X3661106Y3274725D1*
X4136681Y3639961D2*
X4816830D1*
X4863090Y3593701D1*
X5058937D1*
X5225787Y2049646D2*
X5659016D1*
X2518602Y1468252D2*
X2653366D1*
X2375492Y625984D2*
X2458642Y542835D1*
X5242835D1*
X5693701Y993701D1*
X2837468Y3239961D2*
X3018602D1*
X3038287Y3220276D1*
Y2994410D1*
Y1398725D2*
X2318602D1*
X3038287Y2994410D2*
X3079941Y2952756D1*
X3324728D1*
X3383783Y2893701D1*
X3493307D1*
X2718602Y879410D2*
X3136708D1*
X3168677Y847441D1*
X5322244D1*
X5341929Y867126D1*
Y1022245D1*
X5361614Y1041930D1*
X5745472D1*
X5793701Y993701D1*
X2840354Y2953390D2*
X2880358Y2913386D1*
X3231466D1*
X3351151Y2793701D1*
X3493307D1*
X2175492Y625984D2*
X2293406Y508071D1*
X3698661D1*
X3493307Y2693701D2*
X3152831D1*
X3006571Y2839961D1*
X2752441D1*
X2732756Y2859646D1*
Y2937075D1*
X3698661Y508071D2*
X5408071D1*
X5893701Y993701D1*
X3493307Y2593701D2*
X3397248D1*
X3354925Y2636024D1*
X2944291D1*
X2840354Y2739961D1*
X3431972Y1239965D2*
X4039964D1*
Y1081300D1*
X4059649Y1061615D1*
X5925787D1*
X5993701Y993701D1*
X2840354Y2739961D2*
X2697992D1*
X2678307Y2759646D1*
Y2974016D1*
X2697992Y2993701D1*
X2794094D1*
X6093701Y2493701D2*
X6019279D1*
X5965539Y2439961D1*
X5347441D1*
X5327756Y2420276D1*
Y2359646D1*
X5347441Y2339961D1*
X5439961D1*
X5459646Y2320276D1*
Y2167127D1*
X5439960Y2147441D1*
X3746382D1*
X3726697Y2167126D1*
Y2474016D1*
X3707012Y2493701D1*
X3493307D1*
X2206594D1*
X2175492Y2462599D1*
X6093701Y2393701D2*
X6013390Y2313390D1*
X5717140D1*
X5531506Y2127756D1*
X3667417D1*
X3647732Y2147441D1*
Y2239276D1*
X3493307Y2393701D1*
X3371578D1*
X3300476Y2322599D1*
X2292858D1*
X2275492Y2339965D1*
X1794094Y2793701D2*
X1728146Y2727752D1*
Y2659646D1*
X1747831Y2639961D1*
X1929390D1*
X1949075Y2620276D1*
Y2034567D1*
X1968760Y2014882D1*
X5750377D1*
X5975460Y2239965D1*
X6339965D1*
X6393701Y2293701D1*
X3993701Y1193701D2*
Y979355D1*
X4013388Y959668D1*
X4627734D1*
X4693701Y893701D1*
X6348933Y2739961D2*
X4855039D1*
X5393701Y3393701D2*
X6492256D1*
X2794094Y3793701D2*
X2979409Y3979016D1*
X3311795D1*
X4202996Y3439961D2*
X4887519D1*
X4933779Y3393701D1*
X1147831Y4207166D2*
X1182595Y4241930D1*
X3303724D1*
X3311795Y4233859D1*
X4093307Y3393701D2*
X3927362Y3559646D1*
X3715008D1*
X3534693Y3739961D1*
X3311795D1*
X6492256Y3393701D2*
X6723889D1*
X6724874Y3394686D1*
X7347834D1*
X7394094Y3348425D1*
X5393701Y3293701D2*
X5728543D1*
X2794094Y3893701D2*
X2620673Y3720280D1*
X2304417D1*
X2284732Y3739965D1*
Y3920276D1*
X2265047Y3939961D1*
X1633010D1*
X1613325Y3920276D1*
Y3513388D1*
X1593638Y3493701D1*
X1194094D1*
X4093307Y3293701D2*
X4001417D1*
X3839405Y3455713D1*
X3719492D1*
X3703740Y3439961D1*
X2953366D1*
X4209098Y3293701D2*
X4255358Y3339961D1*
X4910126D1*
X4956386Y3293701D1*
X5728543D2*
X7062995D1*
X7117720Y3348425D1*
X7294094D1*
X5393701Y3193701D2*
X6234381D1*
X6235366Y3194686D1*
X6713071D1*
X4093307Y3193701D2*
X4047047Y3239961D1*
X3179465D1*
X3132890Y3193386D1*
X4188791Y3239961D2*
X4961354D1*
Y3193701D1*
X6713071Y3194686D2*
X7340355D1*
X7394094Y3248425D1*
X2194094Y4093701D2*
X1132760D1*
X1113071Y4074012D1*
Y3374724D1*
X1194094Y3293701D1*
X4093307Y3093701D2*
X4039567Y3039961D1*
X3324275D1*
X3257346Y3106890D1*
X4174335Y3093701D2*
X4220595Y3139961D1*
X4897988D1*
X4944248Y3093701D1*
X7174964Y3229449D2*
X6593701D1*
X5393701Y3093701D2*
X5409489Y3109489D1*
X6067913D1*
X6117756Y3059646D1*
X6593701D1*
X3075492Y3090123D2*
X3193174Y2972441D1*
X3411122D1*
X3443602Y2939961D1*
X4093311D1*
X4944468D1*
X5064149Y2820280D1*
X5122339D1*
X5242020Y2939961D1*
X5350327D1*
X2132752Y3993701D2*
X1575787D1*
X1556102Y3974016D1*
Y3548150D1*
X1536417Y3528465D1*
X1275118D1*
X6693701Y3003481D2*
X6784906Y3094686D1*
X7340355D1*
X7394094Y3148425D1*
X5350327Y2939961D2*
X5475224D1*
X5523665Y2988402D1*
X6678622D1*
X6693701Y3003481D1*
X4093307Y2993701D2*
X4093311Y2939961D1*
X2194094Y3893701D2*
X2140354Y3839961D1*
X1747831D1*
X1728146Y3820276D1*
Y3479332D1*
X1708460Y3459646D1*
X1260039D1*
X1240354Y3439961D1*
Y3139960D1*
X1194094Y3093701D1*
X6928464Y2968717D2*
X6793701D1*
X4026854Y2893701D2*
Y2659646D1*
X4046539Y2639961D1*
X5238134D1*
X3397209Y2320280D2*
X3379843Y2302914D1*
X2003523D1*
X6793701Y2968717D2*
X6057189D1*
X5982173Y2893701D1*
X5393701D1*
X5624252Y2793701D2*
X5393701D1*
X3691933Y2439961D2*
X2940728D1*
X2875492Y2374725D1*
X2038287Y3339961D2*
X1299409D1*
X1279724Y3320276D1*
Y2859646D1*
X1260039Y2839961D1*
X1147831D1*
X1128146Y2859646D1*
Y2927752D1*
X1194094Y2993701D1*
X5624252Y2698701D2*
X7070708D1*
X7140236Y2768229D1*
X5393701Y2793701D2*
X4963098D1*
X4916838Y2839961D1*
X4139567D1*
X4093307Y2793701D1*
X2194094Y3693701D2*
X1997592D1*
X1977903Y3674012D1*
Y3459648D1*
X1958216Y3439961D1*
X1279724D1*
X1260039Y3420276D1*
Y2959645D1*
X1194094Y2893701D1*
X5393701Y2693701D2*
X5439960Y2647441D1*
Y2594411D1*
X5459646Y2574725D1*
X5877646D1*
X7061618D1*
X5016618Y2355709D2*
X5000870Y2339961D1*
X4262016D1*
X4162016Y2239961D1*
X3931102D1*
X3911417Y2259646D1*
Y2693701D1*
X3768523Y1685591D2*
X2775492D1*
X2310256D1*
X2494094Y3784252D2*
Y3993701D1*
X2594094Y4093701D1*
X2794094D1*
X3175492Y625984D2*
X3519685D1*
X3594685Y700984D1*
X1494094Y3003150D2*
Y2693701D1*
X1594094Y2593701D1*
X1794094D1*
X4734252Y1343701D2*
X4884252Y1193701D1*
X4893701D1*
X3793307Y2803150D2*
Y2293701D1*
X3893307Y2193701D1*
X4093307D1*
X5093701Y2884252D2*
Y3039961D1*
Y3139961D1*
Y3993701D1*
X4993701Y4093701D1*
X4793701D1*
X6243701Y1993701D2*
Y1843701D1*
X6193701Y1793701D1*
X6093701D1*
X7294094Y3848425D2*
X7360040Y3914371D1*
X7641142D1*
X4693701Y593701D2*
X4586417Y700984D1*
X3594685D1*
X6893701Y1893701D2*
X6843701Y1843701D1*
X6243701D1*
X7993701Y2893701D2*
X7941930Y2841930D1*
X7745472D1*
X7693701Y2893701D1*
X7832283Y849606D2*
X7657485Y674808D1*
X7443902D1*
X7393701Y624606D1*
X7643701Y1293701D2*
X7689964Y1339964D1*
Y1374016D1*
X7709649Y1393701D1*
X7768701D1*
X3767126Y3893701D2*
Y3940453D1*
X3792717D1*
Y3893701D1*
X1875492Y625984D2*
X1938287Y688780D1*
X2598917D1*
X2618602Y669095D1*
Y602560D1*
X2638287Y582875D1*
X3132382D1*
X3175492Y625984D1*
X5293701Y1493701D2*
X4979338D1*
X4893701D1*
X6993701D2*
X7204130D1*
X7293701D1*
X1462240Y3393701D2*
X1794094D1*
X6093701Y1793701D2*
X5293701D1*
X1194094Y3793701D2*
X1147831Y3839964D1*
Y4020276D1*
X1167516Y4039961D1*
X2341291D1*
X2360976Y4020276D1*
Y3784252D1*
X4336027Y3874725D2*
X4301267Y3839965D1*
X3965220D1*
X3945531Y3820276D1*
X3826114D1*
Y3847481D1*
X3818307D1*
Y3893701D1*
X5093701Y3039961D2*
X4139571D1*
X7641142Y3914371D2*
X7723031D1*
X7843701Y3793701D1*
X7693701Y2893701D2*
X7626276D1*
X7625291Y2894686D1*
X7340355D1*
X7294094Y2848425D1*
X6143701Y3134176D2*
X6070807D1*
X6065022Y3139961D1*
X5093701D1*
X6558937Y3134178D2*
X6143701Y3134176D1*
X3792717Y3893701D2*
Y3839960D1*
X3812401Y3820276D1*
X3826114D1*
Y3772965D1*
X3818307D1*
Y3727362D1*
X593701Y1493701D2*
Y1495276D1*
X893701D1*
X4531693Y3674725D2*
X4334133D1*
X4268897Y3739961D1*
X4036240D1*
X3976890Y3680611D1*
X3767126D1*
Y3727362D1*
X4593701Y2593701D2*
X4793701D1*
X5778622Y3658938D2*
X5849133Y3729449D1*
X7024413D1*
X7475122Y2828465D2*
X7564335D1*
X4793701Y2593701D2*
X5320567D1*
X5374307Y2539961D1*
X5778622D1*
X7024413Y3729449D2*
X7111327D1*
X7246090Y3594686D1*
X7320672D1*
X7340358Y3575000D1*
Y3514371D1*
X7320673Y3494686D1*
X7095473D1*
X7044094Y3443307D1*
X4855039Y3474725D2*
Y3523859D1*
X4835354Y3543544D1*
X4593701D1*
Y2793701D2*
X4647441Y2739961D1*
X4747441D1*
X4793701Y2693701D1*
X5128464Y3474725D2*
X5363228Y3239961D1*
X6031086D1*
X6055338Y3264213D1*
X7125122D1*
X4593701Y3543544D2*
X4075570D1*
X3979153Y3639961D1*
X3761220D1*
X3741535Y3659645D1*
Y3727362D1*
X7125122Y3264213D2*
X7159886Y3298977D1*
X7445874D1*
X7558039Y3186812D1*
X7952551D1*
X4093701Y1944571D2*
X5944571D1*
X6093701Y2093701D1*
X6332602Y2047839D2*
X6159645D1*
X6139960Y2028154D1*
Y1939960D1*
X6093701Y1893701D1*
X6393701Y2193701D2*
X6468645D1*
X6514905Y2239961D1*
X7440358D1*
X4093701Y1132363D2*
X4139964D1*
Y1220280D1*
X4159649Y1239965D1*
X4620279D1*
X4639964Y1220280D1*
Y1140355D1*
X4659649Y1120670D1*
X5636090D1*
X5651169Y1135749D1*
X6541929D1*
X5455039Y3074725D2*
X6033149D1*
X5439960Y2843544D2*
X6143858D1*
X6193701Y2793701D1*
X4390476Y3758938D2*
Y3920276D1*
X4370791Y3939961D1*
X3992665D1*
X3938925Y3993701D1*
X3493307D1*
X3554649Y3893701D2*
Y3839961D1*
X3222583D1*
X7393701Y1493701D2*
X7505709Y1605709D1*
X7981693D1*
X8043701Y1543701D1*
X7993701Y3143701D2*
X7844686Y2994686D1*
X7340355D1*
X7294094Y2948425D1*
X7893701Y3243701D2*
X7442716Y3694686D1*
X7347834D1*
X7294094Y3748425D1*
X5489803Y2628465D2*
X5508779Y2609489D1*
X7424039D1*
X7491598Y2541930D1*
X7745472D1*
X7793701Y2493701D1*
X7250724Y4093701D2*
Y3949134D1*
X6381468Y2927016D2*
X7194685D1*
X7214370Y2907331D1*
Y2813386D1*
X7234055Y2793701D1*
X7693701D1*
X5182913Y3893701D2*
X5229173Y3939961D1*
X5979410D1*
X6124685Y3794686D1*
X7599098D1*
X6276697Y2857008D2*
X7155315D1*
X7175000Y2837323D1*
Y2713386D1*
X7194685Y2693701D1*
X7693701D1*
X6199807Y2891772D2*
X7175000D1*
X7194685Y2872087D1*
Y2761615D1*
X7214370Y2741930D1*
X7745472D1*
X7793701Y2693701D1*
X5183394Y3693701D2*
X5337134Y3539961D1*
X6199807D1*
X7614177Y2593701D2*
Y2644253D1*
X7594492Y2663938D1*
X5574409D1*
X5524567Y2678308D2*
Y2629174D1*
X7564335D1*
X6457012Y2443705D2*
X7643705D1*
X7693701Y2493701D1*
X5437075Y3343863D2*
X6457012D1*
X7843701Y1993701D2*
Y1943701D1*
X7743701Y1843701D1*
X7783465Y4193701D2*
X7725791Y4136028D1*
X7648630D1*
X7523429Y4010827D1*
X7404528D1*
X7275394Y4139961D1*
X5167834D1*
X5148149Y4120276D1*
Y3739961D1*
X4193701Y1493701D2*
X4239964Y1447437D1*
Y1294414D1*
X4220279Y1274729D1*
X2724236D1*
X2675492Y1225984D1*
X7989964Y1920788D2*
Y1763367D1*
X7970279Y1743682D1*
X1905921D1*
X5493701Y1493701D2*
X5140355Y1140355D1*
X4747047D1*
X4693701Y1193701D1*
X4093307Y3493701D2*
X4447397D1*
X5393701Y2293701D2*
X5308067D1*
X5288382Y2313386D1*
Y2520276D1*
X5268697Y2539961D1*
X4447397D1*
X1339984Y3139961D2*
X2121496D1*
X2141181Y3159646D1*
Y3520276D1*
X2160866Y3539961D1*
X3843819D1*
X3890079Y3493701D1*
X5222520Y2993701D2*
X5268780Y3039961D1*
X6326854D1*
X6341933Y3024882D1*
X1844960Y1995197D2*
X5885842D1*
X6030610Y2139965D1*
X7512894D1*
X7659158Y1993701D1*
X7743701D1*
X6393701Y2393701D2*
X6337897D1*
X6257779Y2313583D1*
X6159645D1*
X6139960Y2333268D1*
Y2420280D1*
X6120275Y2439965D1*
X6045776D1*
X5999512Y2393701D1*
X5393701D1*
X3493307Y3793701D2*
X3257346D1*
X3103606Y3639961D1*
X2092736D1*
X2073051Y3620276D1*
Y3259646D1*
X2053366Y3239961D1*
X1319094D1*
X1299409Y3220276D1*
Y2813386D1*
X1279724Y2793701D1*
X1194094D1*
X5393701Y2193701D2*
X5264876D1*
X5245191Y2213386D1*
Y2420274D1*
X5225504Y2439961D1*
X4347441D1*
X4293701Y2493701D1*
X4049933Y3139961D2*
X3554649D1*
X2475492Y1225984D2*
Y1324570D1*
X2495177Y1344256D1*
X3432137D1*
X3667220Y1579339D1*
X4293700D1*
X4339964Y1533075D1*
Y1493701D1*
X4293701D1*
X5693386Y1581300D2*
X6628464D1*
X4293700Y1579339D2*
X4295661Y1581300D1*
X5643543D1*
X6893701Y3493701D2*
X5393701D1*
X7655118Y849606D2*
X7537729Y966996D1*
X7420406D1*
X7293701Y1093701D1*
X3688157Y4139961D2*
X1645476D1*
X5393701Y3493701D2*
X5176520D1*
X5113386Y3556835D1*
Y4120276D1*
X5093701Y4139961D1*
X4139567D1*
X4093307Y4093701D1*
X6041929Y1100985D2*
X4286417D1*
X4193701Y1193701D1*
X6958937Y1100985D2*
X6041929D1*
X7293701Y1093701D2*
X7237304D1*
X7230020Y1100985D1*
X6958937D1*
X6728464Y1541930D2*
X5741930D1*
X5693701Y1493701D1*
X2240354Y1616063D2*
X4328460D1*
X5693701Y1493701D2*
X5641929D1*
Y1522245D1*
X5622244Y1541930D1*
X4441930D1*
X4393701Y1493701D1*
X5589484Y1890123D2*
X4439964D1*
X4050681D1*
X4000055Y1940749D1*
X1459645D1*
X1439960Y1960434D1*
Y2447835D1*
X1194094Y2693701D1*
D48*
X3718897Y3605197D3*
X6027169Y2533705D3*
X5897327Y2493701D3*
X4494838Y3709969D3*
X4714098Y3974725D3*
X4639964Y755119D3*
X2775492D3*
X3431968Y3874725D3*
X4494838Y3839961D3*
X3589413Y2116650D3*
X2494626D3*
X2375492Y2124174D3*
X2683838Y1309493D3*
X2216642Y1167800D3*
X4047047Y2049646D3*
X2075492D3*
X3947441Y1793524D3*
X1975492D3*
X2788130D3*
X2571181Y3139961D3*
X3987126Y2593701D3*
X3392598Y3593701D3*
X4529606Y3939961D3*
X4727752Y3843642D3*
X4954331Y3643544D3*
X3348153Y4039961D3*
X3313390Y3493701D3*
X3661106Y3274725D3*
X5058937Y3593701D3*
X4136681Y3639961D3*
X5659016Y2049646D3*
X5225787D3*
X2653366Y1468252D3*
X2518602D3*
X2318602Y1398725D3*
X3038287D3*
X2837468Y3239961D3*
X3038287Y2994410D3*
X2718602Y879410D3*
X2840354Y2953390D3*
X3698661Y508071D3*
X2732756Y2937075D3*
X3431972Y1239965D3*
X2840354Y2739961D3*
X2175492Y2462599D3*
X2275492Y2339965D3*
X4855039Y2739961D3*
X6348933D3*
X6492256Y3393701D3*
X4933779D3*
X4202996Y3439961D3*
X3311795Y4233859D3*
X1147831Y4207166D3*
X3311795Y3739961D3*
Y3979016D3*
X5728543Y3293701D3*
X4956386D3*
X4209098D3*
X2953366Y3439961D3*
X6713071Y3194686D3*
X3132890Y3193386D3*
X4961354Y3193701D3*
X4188791Y3239961D3*
X3257346Y3106890D3*
X4944248Y3093701D3*
X4174335D3*
X6593701Y3229449D3*
X7174964D3*
X6593701Y3059646D3*
X3075492Y3090123D3*
X1275118Y3528465D3*
X2132752Y3993701D3*
X6693701Y3003481D3*
X5350327Y2939961D3*
X6793701Y2968717D3*
X5238134Y2639961D3*
X4026854Y2893701D3*
X2003523Y2302914D3*
X3397209Y2320280D3*
X6928464Y2968717D3*
X2875492Y2374725D3*
X3691933Y2439961D3*
X2038287Y3339961D3*
X7140236Y2768229D3*
X5624252Y2698701D3*
Y2793701D3*
X3911417Y2693701D3*
X5016618Y2355709D3*
X2310256Y1685591D3*
X3768523D3*
X2775492D3*
X7061618Y2574725D3*
X7641142Y3914371D3*
X6558937Y3134178D3*
X5293701Y1793701D3*
X2360976Y3784252D3*
X4139571Y3039961D3*
X4336027Y3874725D3*
X1462240Y3393701D3*
X4531693Y3674725D3*
X7564335Y2828465D3*
X7475122D3*
X5778622Y2539961D3*
Y3658938D3*
X7024413Y3729449D3*
X7952551Y3186812D3*
X7125122Y3264213D3*
X5128464Y3474725D3*
X4855039D3*
X4593701Y3543544D3*
X4093701Y1944571D3*
X6332602Y2047839D3*
X7440358Y2239961D3*
X6541929Y1135749D3*
X4093701Y1132363D3*
X6033149Y3074725D3*
X5455039D3*
X5439960Y2843544D3*
X4390476Y3758938D3*
X3222583Y3839961D3*
X3554649Y3893701D3*
X5489803Y2628465D3*
X7250724Y3949134D3*
Y4093701D3*
X6381468Y2927016D3*
X7599098Y3794686D3*
X5182913Y3893701D3*
X6276697Y2857008D3*
X6199807Y2891772D3*
Y3539961D3*
X5183394Y3693701D3*
X5574409Y2663938D3*
X7614177Y2593701D3*
X7564335Y2629174D3*
X5524567Y2678308D3*
X6457012Y2443705D3*
Y3343863D3*
X5437075D3*
X5148149Y3739961D3*
X1905921Y1743682D3*
X7989964Y1920788D3*
X4447397Y3493701D3*
Y2539961D3*
X3890079Y3493701D3*
X1339984Y3139961D3*
X6341933Y3024882D3*
X5222520Y2993701D3*
X1844960Y1995197D3*
X3554649Y3139961D3*
X4049933D3*
X6628464Y1581300D3*
X5693386D3*
X5643543D3*
X1645476Y4139961D3*
X3688157D3*
X6893701Y3493701D3*
X6958937Y1100985D3*
X6041929D3*
X4328460Y1616063D3*
X2240354D3*
X6728464Y1541930D3*
X5589484Y1890123D3*
X4439964D3*
D16*
X1193701Y1894488D3*
D17*
X1293701D3*
X1393701D3*
X1493701D3*
X1593701D3*
X1693701D3*
X1793701D3*
Y2194488D3*
X1693701D3*
X1593701D3*
X1493701D3*
X1393701D3*
X1293701D3*
X1193701D3*
D16*
X2794094Y2593701D3*
D17*
Y2693701D3*
Y2793701D3*
Y2893701D3*
Y2993701D3*
Y3093701D3*
Y3193701D3*
Y3293701D3*
Y3393701D3*
Y3493701D3*
Y3593701D3*
Y3693701D3*
Y3793701D3*
Y3893701D3*
Y3993701D3*
Y4093701D3*
X2194094D3*
Y3993701D3*
Y3893701D3*
Y3793701D3*
Y3693701D3*
Y3593701D3*
Y3493701D3*
Y3393701D3*
Y3293701D3*
Y3193701D3*
Y3093701D3*
Y2993701D3*
Y2893701D3*
Y2793701D3*
Y2693701D3*
Y2593701D3*
D18*
X4593701D3*
D19*
X4293701D3*
D16*
X4793701Y4093701D3*
D17*
Y3993701D3*
Y3893701D3*
Y3793701D3*
Y3693701D3*
Y3593701D3*
Y3493701D3*
Y3393701D3*
Y3293701D3*
Y3193701D3*
Y3093701D3*
Y2993701D3*
Y2893701D3*
Y2793701D3*
Y2693701D3*
Y2593701D3*
Y2493701D3*
Y2393701D3*
Y2293701D3*
Y2193701D3*
X5393701D3*
Y2293701D3*
Y2393701D3*
Y2493701D3*
Y2593701D3*
Y2693701D3*
Y2793701D3*
Y2893701D3*
Y2993701D3*
Y3093701D3*
Y3193701D3*
Y3293701D3*
Y3393701D3*
Y3493701D3*
Y3593701D3*
Y3693701D3*
Y3793701D3*
Y3893701D3*
Y3993701D3*
Y4093701D3*
D20*
X6293701Y993701D3*
D21*
X6393701D3*
X6493701D3*
X6593701D3*
X6693701D3*
X6793701D3*
X6893701D3*
X6993701D3*
D20*
X6293701Y1493701D3*
D21*
X6393701D3*
X6493701D3*
D22*
X7655118Y593701D3*
Y849606D3*
X7832283Y593701D3*
Y849606D3*
D20*
X6993701Y1393701D3*
D21*
X6893701D3*
X6993701Y1493701D3*
X6893701D3*
D23*
X7293701Y1093701D3*
D24*
X7343701Y1143701D3*
X7393701Y1093701D3*
D22*
X6243701Y1993701D3*
Y2387402D3*
D20*
X7693701Y2893701D3*
D21*
X7793701D3*
X7693701Y2793701D3*
X7793701D3*
X7693701Y2693701D3*
X7793701D3*
X7693701Y2593701D3*
X7793701D3*
X7693701Y2493701D3*
X7793701D3*
X7693701Y2393701D3*
X7793701D3*
D20*
X5893701Y2793701D3*
D25*
X5993701D3*
X6093701D3*
X6193701D3*
X6293701D3*
X6393701D3*
D26*
X543701Y4143701D3*
Y2017717D3*
X7472835Y4143701D3*
Y2017717D3*
D16*
X7394094Y3848425D3*
D27*
X7294094D3*
X7394094Y3748425D3*
X7294094D3*
X7394094Y3648425D3*
X7294094D3*
X7394094Y3548425D3*
X7294094D3*
X7394094Y3448425D3*
X7294094D3*
X7394094Y3348425D3*
X7294094D3*
X7394094Y3248425D3*
X7294094D3*
X7394094Y3148425D3*
X7294094D3*
X7394094Y3048425D3*
X7294094D3*
X7394094Y2948425D3*
X7294094D3*
X7394094Y2848425D3*
X7294094D3*
D20*
X5293701Y1493701D3*
D21*
X5393701D3*
X5493701D3*
X5593701D3*
X5693701D3*
X5793701D3*
X5893701D3*
X5993701D3*
D18*
X7743701Y1843701D3*
D19*
Y1543701D3*
D16*
X3493307Y4093701D3*
D17*
Y3993701D3*
Y3893701D3*
Y3793701D3*
Y3693701D3*
Y3593701D3*
Y3493701D3*
Y3393701D3*
Y3293701D3*
Y3193701D3*
Y3093701D3*
Y2993701D3*
Y2893701D3*
Y2793701D3*
Y2693701D3*
Y2593701D3*
Y2493701D3*
Y2393701D3*
Y2293701D3*
Y2193701D3*
X4093307D3*
Y2293701D3*
Y2393701D3*
Y2493701D3*
Y2593701D3*
Y2693701D3*
Y2793701D3*
Y2893701D3*
Y2993701D3*
Y3093701D3*
Y3193701D3*
Y3293701D3*
Y3393701D3*
Y3493701D3*
Y3593701D3*
Y3693701D3*
Y3793701D3*
Y3893701D3*
Y3993701D3*
Y4093701D3*
D18*
X2993701Y2593701D3*
D19*
X3293701D3*
D28*
X2494094Y3193701D3*
Y3784252D3*
X4143701Y1343701D3*
X4734252D3*
D18*
X8043701Y1543701D3*
D19*
Y1843701D3*
D16*
X6893701Y2493701D3*
D17*
Y2393701D3*
Y2293701D3*
Y2193701D3*
Y2093701D3*
Y1993701D3*
Y1893701D3*
X7193701D3*
Y1993701D3*
Y2093701D3*
Y2193701D3*
Y2293701D3*
Y2393701D3*
Y2493701D3*
D18*
Y871654D3*
D19*
X7493701D3*
D18*
X7683465Y4193701D3*
D19*
Y4093701D3*
D29*
X1875492Y625984D3*
D30*
X1975492D3*
X2075492D3*
X2175492D3*
X2275492D3*
X2375492D3*
X2475492D3*
X2575492D3*
X2675492D3*
X2775492D3*
X2875492D3*
X2975492D3*
X3075492D3*
X3175492D3*
Y1225984D3*
X3075492D3*
X2975492D3*
X2875492D3*
X2775492D3*
X2675492D3*
X2575492D3*
X2475492D3*
X2375492D3*
X2275492D3*
X2175492D3*
X2075492D3*
X1975492D3*
X1875492D3*
D16*
X4093701Y593701D3*
D17*
X4193701D3*
X4293701D3*
X4393701D3*
X4493701D3*
X4593701D3*
X4693701D3*
Y893701D3*
X4593701D3*
X4493701D3*
X4393701D3*
X4293701D3*
X4193701D3*
X4093701D3*
D16*
X7843701Y3711024D3*
D27*
Y3608661D3*
Y3793701D3*
Y3525984D3*
X7733465Y3793701D3*
Y3525984D3*
D31*
X7955906Y3390157D3*
D32*
X7987402Y3659843D3*
D31*
X7955906Y3929528D3*
D18*
X7783465Y4193701D3*
D19*
Y4093701D3*
D18*
X4593701Y2793701D3*
D19*
X4293701D3*
D18*
X7943701Y1843701D3*
D19*
Y1543701D3*
D26*
X543701Y543701D3*
D33*
X7293701Y1493701D3*
D34*
X7393701D3*
D28*
X1494094Y3593701D3*
Y3003150D3*
D20*
X1493701Y4193701D3*
D21*
X1593701D3*
X1693701D3*
X1793701D3*
D20*
X5293701Y993701D3*
D21*
X5393701D3*
X5493701D3*
X5593701D3*
X5693701D3*
X5793701D3*
X5893701D3*
X5993701D3*
D35*
X620472Y872441D3*
X793701D3*
X620472Y951181D3*
Y793701D3*
X793701Y951181D3*
Y793701D3*
D36*
X893701Y3745669D3*
D37*
Y3993701D3*
D38*
X704724Y3859843D3*
D39*
X593701Y1593701D3*
D40*
Y1493701D3*
Y1393701D3*
D27*
X7643701Y1195276D3*
Y1293701D3*
D18*
X7493701Y760236D3*
D19*
X7193701D3*
D114*
X3741535Y3727362D3*
X3767126D3*
X3792717D3*
X3818307D3*
Y3893701D3*
X3792717D3*
X3767126D3*
X3741535D3*
D18*
X4593701Y2293701D3*
D19*
X4293701D3*
D18*
X4593701Y2493701D3*
D19*
X4293701D3*
D16*
X6744094Y3643307D3*
D17*
Y3543307D3*
Y3443307D3*
Y3343307D3*
X7044094D3*
Y3443307D3*
Y3543307D3*
Y3643307D3*
D41*
X7768701Y1393701D3*
Y1303150D3*
D42*
X8016732D3*
D41*
X7768701Y1212598D3*
D27*
X893701Y1593701D3*
Y1495276D3*
D18*
X7843701Y1843701D3*
D19*
Y1543701D3*
D16*
X3993701Y1193701D3*
D17*
X4093701D3*
X4193701D3*
X4293701D3*
X4393701D3*
X4493701D3*
X4593701D3*
X4693701D3*
X4793701D3*
X4893701D3*
Y1493701D3*
X4793701D3*
X4693701D3*
X4593701D3*
X4493701D3*
X4393701D3*
X4293701D3*
X4193701D3*
X4093701D3*
X3993701D3*
D22*
X3594685Y700984D3*
Y1094685D3*
D16*
X6093701Y2493701D3*
D17*
Y2393701D3*
Y2293701D3*
Y2193701D3*
Y2093701D3*
Y1993701D3*
Y1893701D3*
Y1793701D3*
X6393701D3*
Y1893701D3*
Y1993701D3*
Y2093701D3*
Y2193701D3*
Y2293701D3*
Y2393701D3*
Y2493701D3*
D33*
X7393701Y624606D3*
D34*
X7493701D3*
D26*
X8043701Y543701D3*
D33*
X7193701Y624606D3*
D34*
X7293701D3*
D43*
X7793701Y3143701D3*
X7893701Y3243701D3*
X7993701Y3143701D3*
D16*
X7743701Y1993701D3*
D27*
X7843701D3*
D44*
X7943701D3*
D16*
X8043701D3*
D27*
Y2093701D3*
X7943701D3*
X7843701D3*
X7743701D3*
D45*
X6726378Y3856299D3*
Y3931102D3*
D16*
X1794094Y2593701D3*
D17*
Y2693701D3*
Y2793701D3*
Y2893701D3*
Y2993701D3*
Y3093701D3*
Y3193701D3*
Y3293701D3*
Y3393701D3*
Y3493701D3*
Y3593701D3*
Y3693701D3*
Y3793701D3*
Y3893701D3*
X1194094D3*
Y3793701D3*
Y3693701D3*
Y3593701D3*
Y3493701D3*
Y3393701D3*
Y3293701D3*
Y3193701D3*
Y3093701D3*
Y2993701D3*
Y2893701D3*
Y2793701D3*
Y2693701D3*
Y2593701D3*
D26*
X8043701Y4143701D3*
D20*
X7993701Y2893701D3*
D21*
X8093701D3*
X7993701Y2793701D3*
X8093701D3*
D28*
X5093701Y2293701D3*
Y2884252D3*
D18*
X4593701Y2693701D3*
D19*
X4293701D3*
D18*
X2993701Y2393701D3*
D19*
X3293701D3*
D28*
X3793307Y3393701D3*
Y2803150D3*
D27*
X7643701Y1395276D3*
Y1493701D3*
D46*
X6143701Y3901892D3*
D47*
Y3134176D3*
M02*
