%TF.GenerationSoftware,Novarm,DipTrace,4.3.0.4*%
%TF.CreationDate,2023-05-08T16:01:43+01:00*%
%FSLAX26Y26*%
%MOIN*%
%TF.FileFunction,Copper,L1,Top*%
%TF.Part,Single*%
%AMOUTLINE0*
4,1,28,
-0.007874,-0.028051,
-0.007874,0.028051,
-0.00774,0.02907,
-0.007347,0.03002,
-0.006721,0.030835,
-0.005906,0.031461,
-0.004956,0.031854,
-0.003937,0.031988,
0.003937,0.031988,
0.004956,0.031854,
0.005906,0.031461,
0.006721,0.030835,
0.007347,0.03002,
0.00774,0.02907,
0.007874,0.028051,
0.007874,-0.028051,
0.00774,-0.02907,
0.007347,-0.03002,
0.006721,-0.030835,
0.005906,-0.031461,
0.004956,-0.031854,
0.003937,-0.031988,
-0.003937,-0.031988,
-0.004956,-0.031854,
-0.005906,-0.031461,
-0.006721,-0.030835,
-0.007347,-0.03002,
-0.00774,-0.02907,
-0.007874,-0.028051,
0*%
%TA.AperFunction,Conductor*%
%ADD13C,0.009843*%
%TA.AperFunction,ComponentPad*%
%ADD16R,0.062992X0.062992*%
%ADD17C,0.062992*%
%ADD18C,0.055118*%
%ADD19C,0.055118*%
%ADD20R,0.066929X0.066929*%
%ADD21C,0.066929*%
%ADD22C,0.07874*%
%ADD23R,0.051181X0.051181*%
%ADD24C,0.051181*%
%ADD25C,0.066929*%
%ADD26C,0.19685*%
%ADD27C,0.062992*%
%ADD28C,0.094488*%
%ADD29R,0.056693X0.056693*%
%ADD30C,0.056693*%
%ADD31O,0.137795X0.07874*%
%ADD32O,0.07874X0.15748*%
%ADD33R,0.070866X0.070866*%
%ADD34C,0.070866*%
%ADD35O,0.047244X0.06*%
%ADD36R,0.07874X0.181102*%
%ADD37O,0.07874X0.165354*%
%ADD38O,0.165354X0.07874*%
%ADD39R,0.07874X0.075*%
%ADD40O,0.07874X0.075*%
%ADD41R,0.07874X0.059055*%
%ADD42R,0.07874X0.149606*%
%TA.AperFunction,ComponentPad*%
%ADD43C,0.056693*%
%ADD44C,0.06*%
%ADD45C,0.03937*%
%ADD46R,0.082677X0.082677*%
%ADD47C,0.082677*%
%TA.AperFunction,ViaPad*%
%ADD48C,0.04*%
%ADD114OUTLINE0*%
G75*
G01*
%LPD*%
X7652756Y1395276D2*
D13*
X7700591Y1347441D1*
X7777756D1*
Y1303150D1*
X7852756Y1543701D2*
X7952756D1*
X8025787Y1470669D1*
Y1303150D1*
X5102756Y2293701D2*
X5002756Y2193701D1*
X4802756D1*
X903150Y4093701D2*
X1103150D1*
X1203150Y3993701D1*
Y3793701D1*
X2503150Y3193701D2*
Y2793701D1*
X2603150Y2693701D1*
X2803150D1*
X3802362Y3393701D2*
X3502362D1*
X2002756Y1993701D2*
X2153150Y1843307D1*
X2157283D1*
X6009055Y2143701D2*
X5952756D1*
X5902756Y2193701D1*
Y2293701D1*
X2803150Y2693701D2*
Y2593701D1*
X3788091Y1119685D2*
X3787106Y1118701D1*
X2188091D1*
X2068898Y1237894D1*
Y1250984D1*
X1072441D1*
X1052756Y1231299D1*
Y993701D1*
X7352756Y1143701D2*
X7152756D1*
X6902756Y1393701D1*
X6002756Y2793701D2*
X6050985Y2841930D1*
X6823563D1*
X6863327Y2802166D1*
X7356890D1*
X7403150Y2848425D1*
X2503150Y2793701D2*
X2203150D1*
X1203150Y3993701D2*
X1249409Y4039961D1*
X1749016D1*
X1802756Y4093701D1*
X7792520Y3929449D2*
X7276575D1*
X7256890Y3909764D1*
Y3814371D1*
X7276575Y3794686D1*
X7356889D1*
X7403150Y3748425D1*
X7256890Y3814371D2*
X7224213D1*
X7053150Y3643307D1*
X4302756Y2793701D2*
X4502756D1*
X4602756Y2693701D1*
X7802756Y2893701D2*
X7748031Y2948425D1*
X7403150D1*
X4802756Y2193701D2*
X4702756D1*
X4602756Y2293701D1*
X3434296Y3805197D2*
X3469060Y3839961D1*
X3750591D1*
Y3893701D1*
X5402756Y2493701D2*
X5876185D1*
X7652756Y1195276D2*
X7699015D1*
X7716338Y1212598D1*
X7777756D1*
X2803150Y2593701D2*
X3002756D1*
X7792520Y4093701D2*
X7692520D1*
X4302756Y1193701D2*
X4249016Y1139961D1*
X3934992D1*
X3914716Y1119685D1*
X3788091D1*
X5002756Y1193701D2*
X4936811Y1259646D1*
X4368701D1*
X4302756Y1193701D1*
X5402756Y1493701D2*
Y1213386D1*
X5383071Y1193701D1*
X5002756D1*
X6902756Y1393701D2*
X5502756D1*
X5402756Y1493701D1*
X2203150Y2793701D2*
X2103150Y2893701D1*
X1503150D1*
X1052756Y793701D2*
X652756D1*
X5402756Y3893701D2*
X5701771Y3594686D1*
X7256889D1*
X7303150Y3548425D1*
X2722126Y3739961D2*
X2687362Y3705197D1*
X2435178D1*
X2300414Y3839961D1*
X1456890D1*
X1437205Y3859646D1*
Y3927756D1*
X1503150Y3993701D1*
X5302756Y993701D2*
X5249016Y939961D1*
X3956500D1*
X2803150Y3693701D2*
X3399532Y3693697D1*
X4294563Y3839961D2*
X4974882D1*
X5028622Y3893701D1*
X4049020Y2339961D2*
X4384449D1*
X3633229Y3293701D2*
X3502362D1*
X4049020Y1839965D2*
X3633229D1*
X3956500Y939961D2*
X3906658D1*
X3826343Y859646D1*
X3177559D1*
X2968898Y650984D1*
X3502362Y2293701D2*
X3456102Y2339961D1*
X2565158D1*
X2768898Y1309174D2*
X3404138D1*
X3494174Y1940083D2*
X3506501Y1927756D1*
X6036811D1*
X6102756Y1993701D1*
X2430945Y2163548D2*
X2450634Y2143859D1*
X2714252D1*
X2764094Y2193701D1*
X3502362D1*
X4102362Y2293701D2*
X4148622Y2247441D1*
Y2158391D1*
X4267048Y2039965D1*
X6129331D1*
X6149016Y2020280D1*
Y1967126D1*
X6168701Y1947441D1*
X6356496D1*
X6402756Y1993701D1*
X4148622Y2158391D2*
X4128936Y2138705D1*
X2888701D1*
X2851634D1*
X2816874Y2103945D1*
X2115520D1*
X2075209Y2144256D1*
X1848307D1*
X4102362Y2393701D2*
X4476125D1*
X4495812Y2374015D1*
Y2079335D1*
X4515497Y2059650D1*
X6183071D1*
X6202756Y2039964D1*
Y1993701D1*
X2268898Y1250984D2*
X2326181Y1193701D1*
X4002756D1*
X4102362Y2493701D2*
X3884058D1*
X3864374Y2513386D1*
Y2845477D1*
X3844689Y2865162D1*
X3694835D1*
X3569634Y2739961D1*
X3289012D1*
X3235271Y2793701D1*
X2803150D1*
X4148622Y1343938D2*
X2261851D1*
X2168898Y1250984D1*
X3756209Y2097997D2*
X3966307D1*
X2599922Y2543867D2*
X3756209D1*
X4194370Y1279331D2*
X3966307D1*
X5402756Y993701D2*
X5249016Y839961D1*
X3331693D1*
X3312008Y820276D1*
Y627560D1*
X3292323Y607875D1*
X2912007D1*
X2868898Y650984D1*
X3015839Y3193701D2*
X3502362D1*
X4998469Y3509969D2*
Y3728465D1*
X2803150Y3593701D2*
X3015839D1*
X4913859Y3363548D2*
X4928677Y3378366D1*
Y3509969D1*
X3502362Y3193701D2*
X4009040D1*
X4028725Y3213386D1*
Y3320276D1*
X4048410Y3339961D1*
X4850165D1*
X4873752Y3363548D1*
X4913859D1*
X5850988Y1322067D2*
X5502756D1*
X3636839Y3639961D2*
X3299697D1*
X3195406Y3109489D2*
X2962914D1*
X3299697Y3344567D2*
X3349535Y3294729D1*
X3434296D1*
X4893433Y3474725D2*
Y3439961D1*
X4056284D1*
X4040532Y3455713D1*
X3636839D1*
X2803150Y3393701D2*
X2908460D1*
X2928150Y3374012D1*
Y3013386D1*
X2947835Y2993701D1*
X3161122D1*
X2668898Y952764D2*
X3112008D1*
X3502362Y2993701D2*
X3966212D1*
X3985898Y2974016D1*
Y2759646D1*
X4005583Y2739961D1*
X4407555D1*
X4427240Y2720276D1*
Y2559646D1*
X4446925Y2539961D1*
X4829331D1*
X4849016Y2520276D1*
Y2479331D1*
X4868701Y2459646D1*
X5235465D1*
X5255153Y2439958D1*
Y2259646D1*
X5274838Y2239961D1*
X5531457D1*
X5581300Y2289804D1*
X3161122Y2993701D2*
X3502362D1*
X2568898Y650984D2*
X2672444Y547438D1*
X5256493D1*
X5702756Y993701D1*
X2803150Y3293701D2*
X2849410Y3247441D1*
Y2913386D1*
X2869094Y2893701D1*
X3502362D1*
X2468898Y650984D2*
X2592130Y527752D1*
X5336807D1*
X5802756Y993701D1*
X3502362Y2793701D2*
X3456102Y2839961D1*
X2642205D1*
Y3032756D1*
X2803150Y3193701D1*
X2368898Y1022249D2*
X2912008D1*
Y992134D1*
X2931693Y972449D1*
X2961851D1*
Y1041930D1*
X2923544Y2693701D2*
X3502362D1*
X2961851Y1041930D2*
X5854527D1*
X5902756Y993701D1*
X2268898Y650984D2*
X2431500Y488382D1*
X5497437D1*
X6002756Y993701D1*
X2884174Y2728465D2*
X3146772D1*
Y2293390D2*
X1937520D1*
X3146772Y2639961D2*
X3456102D1*
X3502362Y2593701D1*
Y2493701D2*
X2381421D1*
X2361418Y2513705D1*
X5841418Y1993701D2*
X3952563D1*
X3899138Y2047126D1*
X3583386D1*
X3441020Y2393701D2*
X3397044D1*
X3354721Y2436024D1*
X2396181D1*
X2468898Y1537445D2*
X3598465D1*
Y1962520D2*
X3613544Y1947441D1*
X5956496D1*
X6002756Y1993701D1*
X3667992Y1728469D2*
X6050988D1*
X1422268Y2993701D2*
Y2859646D1*
X1441953Y2839961D1*
X1829154D1*
X2198327Y2470788D1*
X3421000D1*
X3451827Y2439961D1*
X3667992D1*
X4937603Y2639961D2*
X6391579D1*
X6402756Y2628784D1*
X2803150Y3793701D2*
X2756890Y3747441D1*
Y3659646D1*
X2737205Y3639961D1*
X1056890D1*
X903150Y3793701D1*
X5402756Y3393701D2*
X6085748D1*
X3973351Y3544886D2*
X4944016D1*
X4963701Y3525201D1*
Y3393701D1*
X3065677Y3633386D2*
X3154177Y3544886D1*
X3923508D1*
X6085748Y3393701D2*
X6779228D1*
X6780213Y3394686D1*
X7356889D1*
X7403150Y3348425D1*
X5402756Y3293701D2*
X6570672D1*
X6650988Y3213386D1*
X6720516D1*
X2974122Y3893701D2*
Y3758934D1*
Y3394410D2*
X3384449D1*
Y3339961D1*
X2803150Y3893701D2*
X2737205Y3959646D1*
Y4020276D1*
X2756890Y4039961D1*
X2869095D1*
X4102362Y3293701D2*
X4156102Y3239961D1*
X4897060D1*
X4950800Y3293701D1*
X6720516Y3213386D2*
X7152221D1*
X7168284Y3229449D1*
X3384449Y3339961D2*
X3697540D1*
X3743800Y3293701D1*
X3869059D1*
X5402756Y3193701D2*
X6360987D1*
X6385748Y3168941D1*
X6450985D1*
X3245248Y3144252D2*
X3961607D1*
X4102362Y3193701D2*
X4156102Y3139961D1*
X4931823D1*
X4985563Y3193701D1*
X6450985Y3168941D2*
X7183271D1*
X7209016Y3194686D1*
X7349410D1*
X7403150Y3248425D1*
X5067992Y3039961D2*
Y3920276D1*
X5048307Y3939961D1*
X4423146D1*
X5402756Y3093701D2*
X6009244D1*
X6028221Y3074725D1*
X6550988D1*
X4048406Y3139961D2*
Y3059646D1*
X4068091Y3039961D1*
X4388382D1*
X4423146Y3074725D1*
X2203150Y4093701D2*
X2135236Y4161615D1*
X856890D1*
X837205Y4141930D1*
Y3559646D1*
X903150Y3493701D1*
X4423146Y3939961D2*
X4041902D1*
X3841902Y4139961D1*
X2531162D1*
X2396398Y4005197D1*
X2269095D1*
X2249410Y4024882D1*
Y4047441D1*
X2203150Y4093701D1*
X5402756Y2993701D2*
X6853540D1*
X6873544Y3013705D1*
X3993957Y3239961D2*
X3280012D1*
X4102362Y2993701D2*
X4472217D1*
X4518477Y3039961D1*
X4977839D1*
X903150Y3393701D2*
X837205D1*
Y3420276D1*
X856890Y3439961D1*
X1754571D1*
Y3520276D1*
X1774256Y3539961D1*
X1942441D1*
X2982036D1*
X3047272Y3474725D1*
X3225563D1*
X4102362Y2893701D2*
X4148622Y2939961D1*
X4941536D1*
X5061217Y2820280D1*
X5178296D1*
X5251717Y2893701D1*
X5402756D1*
X2014252Y2074729D2*
X3168898D1*
X2014252Y3589804D2*
X1694123D1*
X1644280Y3539961D1*
X1067008D1*
X5402756Y2893701D2*
X6991811D1*
X3168898Y2074729D2*
X3231264Y2012363D1*
X3864374D1*
X7111949Y2701890D2*
X5841378D1*
X5749566Y2793701D1*
X5402756D1*
X2203150Y3793701D2*
X2149409Y3739961D1*
X1323296D1*
X1295343Y3712008D1*
X1103150D1*
X1083465Y3731693D1*
Y3828465D1*
X4102362Y2793701D2*
X4005583Y2890480D1*
Y3020276D1*
X3985898Y3039961D1*
X3125878D1*
X5402756Y2793701D2*
X4985133D1*
X4938874Y2839961D1*
X4148622D1*
X4102362Y2793701D1*
X903150Y3093701D2*
X1149409Y3339961D1*
X2088071D1*
X4498925Y2639961D2*
X4822146D1*
X4875886Y2693701D1*
X5402756D1*
X4102362D2*
X4156102Y2639961D1*
X4387870D1*
X4407555Y2620276D1*
Y2524882D1*
X4427240Y2505197D1*
X4498925D1*
X3008150Y2939961D2*
X3946528D1*
X3966213Y2920276D1*
Y2713386D1*
X3985897Y2693701D1*
X4102362D1*
X2088071Y3339961D2*
X2849410D1*
X2869095Y3320276D1*
Y2959646D1*
X2888780Y2939961D1*
X3008150D1*
X5402756Y2693701D2*
X5449016D1*
X5475863Y2666855D1*
X7167492D1*
X7202252Y2701615D1*
X2503150Y3784252D2*
Y3939961D1*
Y3993701D1*
X2603150Y4093701D1*
X2803150D1*
X3368898Y650984D2*
X3713091D1*
X3788091Y725984D1*
X1203150Y3203150D2*
Y2893701D1*
X1303150Y2793701D1*
X1503150D1*
X3802362Y2803150D2*
Y2439961D1*
Y2293701D1*
X3902362Y2193701D1*
X4102362D1*
X5102756Y2884252D2*
Y3139961D1*
Y3993701D1*
X5002756Y4093701D1*
X4802756D1*
X6402756Y2143701D2*
X6552756D1*
X6602756Y2093701D1*
Y1993701D1*
X2902756Y1693701D2*
X2753150Y1843307D1*
X2747835D1*
X2803150Y4093701D2*
X2952251D1*
X3105500Y3940453D1*
X3776182D1*
X3801772D1*
Y3893701D1*
X1702756Y4093701D2*
X1750985Y4141930D1*
X2076366D1*
X2096055Y4122241D1*
Y3959646D1*
X2115740Y3939961D1*
X2503150D1*
X7841339Y593701D2*
X7767519Y519882D1*
X7507481D1*
X7402756Y624606D1*
X3368898Y650984D2*
Y607873D1*
X3349213Y588189D1*
X2831694D1*
X2812008Y607875D1*
Y694095D1*
X2792323Y713780D1*
X2131693D1*
X2068898Y650984D1*
X5102756Y3139961D2*
X5952599D1*
X7303150Y3848425D2*
X7349410Y3894686D1*
X7704370D1*
X7652756Y1493701D2*
X7758071D1*
X7777756Y1474016D1*
Y1393701D1*
X3802362Y2439961D2*
X4179154D1*
X4205729Y2413386D1*
X4733229D1*
X4741418Y2405197D1*
X4648819Y1693705D2*
X4102363D1*
X4802559Y1493701D2*
X4937091D1*
X5302756D1*
X7402756Y1093701D2*
Y1230161D1*
X7302756Y1330161D1*
Y1493701D1*
X3802362Y2803150D2*
X3686681Y2803154D1*
X3827362Y3893701D2*
Y3979823D1*
X3795867D1*
X3776182Y3960138D1*
Y3940453D1*
X3776181Y3893701D2*
Y3793800D1*
X3706366D1*
X3686681Y3774115D1*
Y3658938D1*
X7402756Y624606D2*
X7352555Y674808D1*
X7252957D1*
X7202756Y624606D1*
X2068898Y650984D2*
X1011614D1*
X954331Y593701D1*
X7702756Y2893701D2*
X7754527Y2841930D1*
X7950985D1*
X8002756Y2893701D1*
X7303150Y2848425D2*
X7349410Y2894686D1*
X7701771D1*
X7702756Y2893701D1*
X6685752Y3079729D2*
X7071846D1*
X7303150Y2848425D1*
X6152756Y3134176D2*
X6631304D1*
X6685752Y3079729D1*
X5952599Y3139961D2*
X6074074D1*
X6079858Y3134176D1*
X6152756D1*
X7704370Y3894686D2*
X7751771D1*
X7852756Y3793701D1*
X4102363Y1693705D2*
X2902756Y1693701D1*
X7002756Y1493701D2*
X6954527Y1541930D1*
X6602756D1*
X7302756Y1493701D2*
X7002756D1*
X3827362Y3727362D2*
Y3774115D1*
X3795866D1*
X3776181Y3793800D1*
X3776182Y3940453D2*
X3776181Y3893701D1*
X4602756Y2593701D2*
X4802756D1*
X4364768Y3739961D2*
X4051898D1*
X3992548Y3680611D1*
X3776181D1*
Y3727362D1*
X6943740Y2631457D2*
X6954213Y2641930D1*
X7850985D1*
X8002756Y2793701D1*
X4802756Y2593701D2*
X5294964D1*
X5342445Y2546221D1*
X5730926D1*
X5761398Y2576693D1*
X6943740D1*
Y2631457D1*
X5137520Y3639961D2*
Y3359646D1*
X5157205Y3339961D1*
X6658513D1*
X6703788Y3294686D1*
X7004528D1*
X7053150Y3343307D1*
X4759382Y3639961D2*
X4634882D1*
X4802756Y2693701D2*
X4756496Y2739961D1*
X4656496D1*
X4602756Y2793701D1*
X7053150Y3343307D2*
X7101771Y3294686D1*
X7626575D1*
X7726575Y3194686D1*
X8031299D1*
X8050985Y3175000D1*
Y2845472D1*
X8102756Y2793701D1*
X4634882Y3639961D2*
X3770280D1*
X3750591Y3659650D1*
Y3727362D1*
X6202756Y2293701D2*
Y2099019D1*
X6222441Y2079335D1*
X6429331D1*
X6449016Y2059650D1*
Y1700674D1*
X6429331Y1680989D1*
X4708509D1*
X4658662Y1631142D1*
X2165315D1*
X2102756Y1693701D1*
X6250985Y3494686D2*
X7349410D1*
X7403150Y3548425D1*
X5449016Y2937075D2*
X6102756D1*
X5237292Y3093701D2*
X5291032Y3039961D1*
X6202756D1*
X3302756Y2593701D2*
X3441020D1*
X8052756Y1543701D2*
X8010433Y1586024D1*
X7495079D1*
X7402756Y1493701D1*
X4448819Y1855044D2*
X6302756D1*
X7303150Y2948425D2*
X7349410Y2994686D1*
X7853741D1*
X8002756Y3143701D1*
X7303150Y3748425D2*
X7356889Y3694686D1*
X7451771D1*
X7902756Y3243701D1*
X4883780Y2520280D2*
X5259843D1*
X5338193Y2441930D1*
X7750985D1*
X7802756Y2493701D1*
X6350985Y2741930D2*
X7754527D1*
X7802756Y2693701D1*
X5207048Y3693701D2*
X5360788Y3539961D1*
X6350985D1*
X6050985Y2541930D2*
X7650985D1*
X7702756Y2593701D1*
X7866063D2*
Y2345469D1*
X7846378Y2325784D1*
X7577044D1*
X7528099Y2374729D1*
X5518544D1*
X6485748Y3239961D2*
X5446130D1*
X7553973Y2493701D2*
X6485748D1*
X6037524Y639008D2*
X6883217D1*
X4002756Y693701D2*
X4302756D1*
X4763898Y1626536D2*
X4748819Y1611457D1*
X2085000D1*
X2002756Y1693701D1*
X7752756Y1843701D2*
X7852756Y1943701D1*
Y1993701D1*
X8052756Y1843701D2*
X7952756Y1943701D1*
Y1993701D1*
X2802756Y2239961D2*
X3721445D1*
X5841422Y2134650D2*
X5184449D1*
X5164764Y2154335D1*
Y2355709D1*
X5145079Y2375394D1*
X5015674D1*
X4933981Y2293701D1*
X4802756D1*
X7692520Y4193701D2*
X7614764Y4115945D1*
Y3985237D1*
X7595079Y3965552D1*
X6101777D1*
X5841422Y3705197D1*
X2002756Y4093701D2*
X1802756Y3893701D1*
X1503150D1*
X8052756Y2093701D2*
X8150985Y2191930D1*
Y3875004D1*
X7872441Y4153548D1*
Y4216343D1*
X7852756Y4236028D1*
X7614764D1*
X7595079Y4216343D1*
Y4050197D1*
X7575394Y4030512D1*
X5670371D1*
X5541237Y4159646D1*
X2323948D1*
X2304264Y4139962D1*
Y4039961D1*
X4102362Y3493701D2*
X3575492D1*
X3521752Y3439961D1*
X1789335D1*
X5336803Y2839965D2*
X5740351D1*
X5834843Y2745473D1*
X6254528D1*
X6302756Y2793701D1*
X7721571Y1661304D2*
X5118997D1*
X5029902Y1572209D1*
X1902756D1*
X6002756Y2293701D2*
X5956492Y2339965D1*
X5456492D1*
X5402756Y2393701D1*
Y2193701D2*
X5204133D1*
X5184449Y2213386D1*
Y2420276D1*
X5164764Y2439961D1*
X4356496D1*
X4302756Y2493701D1*
X5902756Y1576693D2*
X5402756D1*
X3562363Y3739961D2*
X3240650D1*
X4302756Y2493701D2*
X4256496Y2539961D1*
X3946528D1*
X3926843Y2559646D1*
Y2885512D1*
X3907158Y2905197D1*
X3563701D1*
X3807461Y3593701D2*
X3502362D1*
X2485394Y3270788D2*
X2500473Y3255709D1*
X2711733D1*
X5103469Y1399166D2*
X5089170Y1413465D1*
X2734130D1*
X2723662Y1402997D1*
X6819095Y1611461D2*
X5602760D1*
X5402756Y3493701D2*
X5191968D1*
X5172284Y3513386D1*
Y4120276D1*
X5152599Y4139961D1*
X4148622D1*
X4102362Y4093701D1*
X7664173Y849606D2*
X7558972Y954808D1*
X7441649D1*
X7302756Y1093701D1*
X4951894Y1378701D2*
X2802756D1*
X5464095Y3493701D2*
X5805922D1*
X2802756Y1693701D2*
X2756492Y1739965D1*
X1349016D1*
X6002756Y1093702D2*
X5002756Y1093701D1*
X7302756D2*
X6002756Y1093702D1*
X7237016Y1443504D2*
X5752953D1*
X5702756Y1493701D1*
X4956776Y1452839D2*
X4937095Y1433158D1*
X4134887D1*
X4065363Y1502682D1*
X2049016D1*
X5702756Y1493701D2*
X5654527Y1541930D1*
X5370673D1*
X5350988Y1522245D1*
Y1453615D1*
X5331303Y1433930D1*
X5030134D1*
X5011225Y1452839D1*
X4956776D1*
X4702756Y793701D2*
X4902756D1*
X5002756Y693701D1*
X5449016Y1767130D2*
X5701634D1*
X2702756Y1993701D2*
X2656492Y2039965D1*
X1168701D1*
X1149016Y2059650D1*
Y2647835D1*
X903150Y2893701D1*
X4548819Y1892993D2*
X4536493Y1905319D1*
X2791138D1*
X2702756Y1993701D1*
D48*
X7792520Y3929449D3*
X3434296Y3805197D3*
X5876185Y2493701D3*
X3956500Y939961D3*
X3399532Y3693697D3*
X5028622Y3893701D3*
X4294563Y3839961D3*
X4384449Y2339961D3*
X4049020D3*
X3633229Y3293701D3*
Y1839965D3*
X4049020D3*
X2722126Y3739961D3*
X3494174Y1940083D3*
X2565158Y2339961D3*
X3404138Y1309174D3*
X2768898D3*
X2430945Y2163548D3*
X2714252Y2143859D3*
X1848307Y2144256D3*
X2888701Y2138705D3*
X4148622Y1343938D3*
X3966307Y2097997D3*
X3756209D3*
Y2543867D3*
X2599922D3*
X3966307Y1279331D3*
X4194370D3*
X4998469Y3728465D3*
Y3509969D3*
X4928677D3*
X4913859Y3363548D3*
X3015839Y3193701D3*
Y3593701D3*
X5502756Y1322067D3*
X5850988D3*
X3299697Y3639961D3*
X3636839D3*
Y3455713D3*
X4893433Y3474725D3*
X2962914Y3109489D3*
X3195406D3*
X3434296Y3294729D3*
X3299697Y3344567D3*
X5581300Y2289804D3*
X3112008Y952764D3*
X2668898D3*
X3161122Y2993701D3*
X2642205Y2839961D3*
X2923544Y2693701D3*
X2961851Y1041930D3*
X2368898Y1022249D3*
X3146772Y2728465D3*
X2884174D3*
X1937520Y2293390D3*
X3146772D3*
Y2639961D3*
X2361418Y2513705D3*
X3583386Y2047126D3*
X5841418Y1993701D3*
X2396181Y2436024D3*
X3441020Y2393701D3*
X3598465Y1537445D3*
X2468898D3*
X3598465Y1962520D3*
X6050988Y1728469D3*
X3667992D3*
Y2439961D3*
X1422268Y2993701D3*
X6402756Y2628784D3*
X4937603Y2639961D3*
X6085748Y3393701D3*
X4963701D3*
X3973351Y3544886D3*
X3923508D3*
X3065677Y3633386D3*
X6720516Y3213386D3*
X2974122Y3758934D3*
Y3893701D3*
X3384449Y3339961D3*
X7168284Y3229449D3*
X2869095Y4039961D3*
X2974122Y3394410D3*
X3869059Y3293701D3*
X4950800D3*
X6450985Y3168941D3*
X3961607Y3144252D3*
X3245248D3*
X4985563Y3193701D3*
X5067992Y3039961D3*
X4423146Y3074725D3*
X4048406Y3139961D3*
X4423146Y3939961D3*
X6550988Y3074725D3*
X6873544Y3013705D3*
X3280012Y3239961D3*
X3993957D3*
X4977839Y3039961D3*
X1942441Y3539961D3*
X3225563Y3474725D3*
X3864374Y2012363D3*
X2014252Y2074729D3*
X3168898D3*
X1067008Y3539961D3*
X6991811Y2893701D3*
X2014252Y3589804D3*
X1083465Y3828465D3*
X3125878Y3039961D3*
X7111949Y2701890D3*
X3008150Y2939961D3*
X7202252Y2701615D3*
X4498925Y2639961D3*
Y2505197D3*
X2088071Y3339961D3*
X4741418Y2405197D3*
X6602756Y1541930D3*
X6685752Y3079729D3*
X5952599Y3139961D3*
X3686681Y2803154D3*
Y3658938D3*
X4648819Y1693705D3*
X7704370Y3894686D3*
X4102363Y1693705D3*
X6943740Y2631457D3*
X4364768Y3739961D3*
X4759382Y3639961D3*
X5137520D3*
X4634882D3*
X6250985Y3494686D3*
X6102756Y2937075D3*
X5449016D3*
X6202756Y3039961D3*
X5237292Y3093701D3*
X3441020Y2593701D3*
X6302756Y1855044D3*
X4448819D3*
X4883780Y2520280D3*
X6350985Y2741930D3*
Y3539961D3*
X5207048Y3693701D3*
X6050985Y2541930D3*
X5518544Y2374729D3*
X7866063Y2593701D3*
X5446130Y3239961D3*
X6485748D3*
Y2493701D3*
X7553973D3*
X6037524Y639008D3*
X6883217D3*
X4763898Y1626536D3*
X3721445Y2239961D3*
X2802756D3*
X5841422Y2134650D3*
Y3705197D3*
X2304264Y4039961D3*
X1789335Y3439961D3*
X5336803Y2839965D3*
X1902756Y1572209D3*
X7721571Y1661304D3*
X3563701Y2905197D3*
X5402756Y1576693D3*
X5902756D3*
X3240650Y3739961D3*
X3562363D3*
X3807461Y3593701D3*
X2711733Y3255709D3*
X2485394Y3270788D3*
X2723662Y1402997D3*
X5103469Y1399166D3*
X5602760Y1611461D3*
X6819095D3*
X2802756Y1378701D3*
X4951894D3*
X5805922Y3493701D3*
X5464095D3*
X1349016Y1739965D3*
X6002756Y1093702D3*
X4956776Y1452839D3*
X7237016Y1443504D3*
X2049016Y1502682D3*
X4548819Y1892993D3*
X5701634Y1767130D3*
X5449016D3*
D16*
X902756Y2094488D3*
D17*
X1002756D3*
X1102756D3*
X1202756D3*
X1302756D3*
X1402756D3*
X1502756D3*
Y2394488D3*
X1402756D3*
X1302756D3*
X1202756D3*
X1102756D3*
X1002756D3*
X902756D3*
D16*
X2803150Y2593701D3*
D17*
Y2693701D3*
Y2793701D3*
Y2893701D3*
Y2993701D3*
Y3093701D3*
Y3193701D3*
Y3293701D3*
Y3393701D3*
Y3493701D3*
Y3593701D3*
Y3693701D3*
Y3793701D3*
Y3893701D3*
Y3993701D3*
Y4093701D3*
X2203150D3*
Y3993701D3*
Y3893701D3*
Y3793701D3*
Y3693701D3*
Y3593701D3*
Y3493701D3*
Y3393701D3*
Y3293701D3*
Y3193701D3*
Y3093701D3*
Y2993701D3*
Y2893701D3*
Y2793701D3*
Y2693701D3*
Y2593701D3*
D18*
X4602756D3*
D19*
X4302756D3*
D16*
X4802756Y4093701D3*
D17*
Y3993701D3*
Y3893701D3*
Y3793701D3*
Y3693701D3*
Y3593701D3*
Y3493701D3*
Y3393701D3*
Y3293701D3*
Y3193701D3*
Y3093701D3*
Y2993701D3*
Y2893701D3*
Y2793701D3*
Y2693701D3*
Y2593701D3*
Y2493701D3*
Y2393701D3*
Y2293701D3*
Y2193701D3*
X5402756D3*
Y2293701D3*
Y2393701D3*
Y2493701D3*
Y2593701D3*
Y2693701D3*
Y2793701D3*
Y2893701D3*
Y2993701D3*
Y3093701D3*
Y3193701D3*
Y3293701D3*
Y3393701D3*
Y3493701D3*
Y3593701D3*
Y3693701D3*
Y3793701D3*
Y3893701D3*
Y3993701D3*
Y4093701D3*
D20*
X6302756Y993701D3*
D21*
X6402756D3*
X6502756D3*
X6602756D3*
X6702756D3*
X6802756D3*
X6902756D3*
X7002756D3*
D22*
X7664173Y593701D3*
Y849606D3*
X7841339Y593701D3*
Y849606D3*
D20*
X7002756Y1393701D3*
D21*
X6902756D3*
X7002756Y1493701D3*
X6902756D3*
D23*
X7302756Y1093701D3*
D24*
X7352756Y1143701D3*
X7402756Y1093701D3*
D22*
X6402756Y2143701D3*
X6009055D3*
D20*
X7702756Y2893701D3*
D21*
X7802756D3*
X7702756Y2793701D3*
X7802756D3*
X7702756Y2693701D3*
X7802756D3*
X7702756Y2593701D3*
X7802756D3*
X7702756Y2493701D3*
X7802756D3*
X7702756Y2393701D3*
X7802756D3*
D20*
X5902756Y2793701D3*
D25*
X6002756D3*
X6102756D3*
X6202756D3*
X6302756D3*
X6402756D3*
D26*
X552756Y4143701D3*
Y2017717D3*
X7481890Y4143701D3*
Y2017717D3*
D16*
X7403150Y3848425D3*
D27*
X7303150D3*
X7403150Y3748425D3*
X7303150D3*
X7403150Y3648425D3*
X7303150D3*
X7403150Y3548425D3*
X7303150D3*
X7403150Y3448425D3*
X7303150D3*
X7403150Y3348425D3*
X7303150D3*
X7403150Y3248425D3*
X7303150D3*
X7403150Y3148425D3*
X7303150D3*
X7403150Y3048425D3*
X7303150D3*
X7403150Y2948425D3*
X7303150D3*
X7403150Y2848425D3*
X7303150D3*
D20*
X5302756Y1493701D3*
D21*
X5402756D3*
X5502756D3*
X5602756D3*
X5702756D3*
X5802756D3*
X5902756D3*
X6002756D3*
D18*
X7752756Y1843701D3*
D19*
Y1543701D3*
D16*
X4702756Y1193701D3*
D17*
Y1093701D3*
Y993701D3*
Y893701D3*
Y793701D3*
Y693701D3*
Y593701D3*
X5002756D3*
Y693701D3*
Y793701D3*
Y893701D3*
Y993701D3*
Y1093701D3*
Y1193701D3*
D16*
X3502362Y4093701D3*
D17*
Y3993701D3*
Y3893701D3*
Y3793701D3*
Y3693701D3*
Y3593701D3*
Y3493701D3*
Y3393701D3*
Y3293701D3*
Y3193701D3*
Y3093701D3*
Y2993701D3*
Y2893701D3*
Y2793701D3*
Y2693701D3*
Y2593701D3*
Y2493701D3*
Y2393701D3*
Y2293701D3*
Y2193701D3*
X4102362D3*
Y2293701D3*
Y2393701D3*
Y2493701D3*
Y2593701D3*
Y2693701D3*
Y2793701D3*
Y2893701D3*
Y2993701D3*
Y3093701D3*
Y3193701D3*
Y3293701D3*
Y3393701D3*
Y3493701D3*
Y3593701D3*
Y3693701D3*
Y3793701D3*
Y3893701D3*
Y3993701D3*
Y4093701D3*
D18*
X3002756Y2593701D3*
D19*
X3302756D3*
D28*
X2503150Y3193701D3*
Y3784252D3*
D18*
X8052756Y1543701D3*
D19*
Y1843701D3*
D18*
X7202756Y871654D3*
D19*
X7502756D3*
D18*
X7692520Y4193701D3*
D19*
Y4093701D3*
D20*
X6302756Y1493701D3*
D21*
X6402756D3*
D29*
X2068898Y650984D3*
D30*
X2168898D3*
X2268898D3*
X2368898D3*
X2468898D3*
X2568898D3*
X2668898D3*
X2768898D3*
X2868898D3*
X2968898D3*
X3068898D3*
X3168898D3*
X3268898D3*
X3368898D3*
Y1250984D3*
X3268898D3*
X3168898D3*
X3068898D3*
X2968898D3*
X2868898D3*
X2768898D3*
X2668898D3*
X2568898D3*
X2468898D3*
X2368898D3*
X2268898D3*
X2168898D3*
X2068898D3*
D16*
X4202559Y1493701D3*
D17*
X4302559D3*
X4402559D3*
X4502559D3*
X4602559D3*
X4702559D3*
X4802559D3*
Y1793701D3*
X4702559D3*
X4602559D3*
X4502559D3*
X4402559D3*
X4302559D3*
X4202559D3*
D16*
X7852756Y3711024D3*
D27*
Y3608661D3*
Y3793701D3*
Y3525984D3*
X7742520Y3793701D3*
Y3525984D3*
D31*
X7964961Y3390157D3*
D32*
X7996457Y3659843D3*
D31*
X7964961Y3929528D3*
D18*
X7792520Y4193701D3*
D19*
Y4093701D3*
D18*
X4602756Y2793701D3*
D19*
X4302756D3*
D16*
X2002756Y1693701D3*
D17*
X2102756D3*
X2202756D3*
X2302756D3*
X2402756D3*
X2502756D3*
X2602756D3*
X2702756D3*
X2802756D3*
X2902756D3*
Y1993701D3*
X2802756D3*
X2702756D3*
X2602756D3*
X2502756D3*
X2402756D3*
X2302756D3*
X2202756D3*
X2102756D3*
X2002756D3*
D18*
X7952756Y1843701D3*
D19*
Y1543701D3*
D26*
X552756Y543701D3*
D33*
X7302756Y1493701D3*
D34*
X7402756D3*
D28*
X1203150Y3793701D3*
Y3203150D3*
D20*
X1702756Y4093701D3*
D21*
X1802756D3*
X1902756D3*
X2002756D3*
D20*
X5302756Y993701D3*
D21*
X5402756D3*
X5502756D3*
X5602756D3*
X5702756D3*
X5802756D3*
X5902756D3*
X6002756D3*
D16*
X4002756Y1193701D3*
D17*
Y1093701D3*
Y993701D3*
Y893701D3*
Y793701D3*
Y693701D3*
Y593701D3*
X4302756D3*
Y693701D3*
Y793701D3*
Y893701D3*
Y993701D3*
Y1093701D3*
Y1193701D3*
D35*
X479528Y872441D3*
X652756D3*
X479528Y951181D3*
Y793701D3*
X652756Y951181D3*
Y793701D3*
D36*
X952756Y1419291D3*
D37*
X704724D3*
D38*
X838583Y1230315D3*
D39*
X1052756Y793701D3*
D40*
Y893701D3*
Y993701D3*
D27*
X7652756Y1195276D3*
Y1293701D3*
D18*
X7502756Y760236D3*
D19*
X7202756D3*
D28*
X2157283Y1843307D3*
X2747835D3*
D114*
X3750591Y3727362D3*
X3776181D3*
X3801772D3*
X3827362D3*
Y3893701D3*
X3801772D3*
X3776181D3*
X3750591D3*
D18*
X4602756Y2293701D3*
D19*
X4302756D3*
D18*
X4602756Y2493701D3*
D19*
X4302756D3*
D16*
X6753150Y3643307D3*
D17*
Y3543307D3*
Y3443307D3*
Y3343307D3*
X7053150D3*
Y3443307D3*
Y3543307D3*
Y3643307D3*
D41*
X7777756Y1393701D3*
Y1303150D3*
D42*
X8025787D3*
D41*
X7777756Y1212598D3*
D27*
X1052756Y593701D3*
X954331D3*
D18*
X7852756Y1843701D3*
D19*
Y1543701D3*
D22*
X3788091Y725984D3*
Y1119685D3*
D16*
X5902756Y1993701D3*
D17*
X6002756D3*
X6102756D3*
X6202756D3*
X6302756D3*
X6402756D3*
X6502756D3*
X6602756D3*
Y2293701D3*
X6502756D3*
X6402756D3*
X6302756D3*
X6202756D3*
X6102756D3*
X6002756D3*
X5902756D3*
D33*
X7402756Y624606D3*
D34*
X7502756D3*
D26*
X8052756Y543701D3*
D33*
X7202756Y624606D3*
D34*
X7302756D3*
D43*
X7802756Y3143701D3*
X7902756Y3243701D3*
X8002756Y3143701D3*
D16*
X7752756Y1993701D3*
D27*
X7852756D3*
D44*
X7952756D3*
D16*
X8052756D3*
D27*
Y2093701D3*
X7952756D3*
X7852756D3*
X7752756D3*
D45*
X6735433Y3856299D3*
Y3931102D3*
D16*
X1503150Y2793701D3*
D17*
Y2893701D3*
Y2993701D3*
Y3093701D3*
Y3193701D3*
Y3293701D3*
Y3393701D3*
Y3493701D3*
Y3593701D3*
Y3693701D3*
Y3793701D3*
Y3893701D3*
Y3993701D3*
Y4093701D3*
X903150D3*
Y3993701D3*
Y3893701D3*
Y3793701D3*
Y3693701D3*
Y3593701D3*
Y3493701D3*
Y3393701D3*
Y3293701D3*
Y3193701D3*
Y3093701D3*
Y2993701D3*
Y2893701D3*
Y2793701D3*
D26*
X8052756Y4143701D3*
D20*
X8002756Y2893701D3*
D21*
X8102756D3*
X8002756Y2793701D3*
X8102756D3*
D28*
X5102756Y2293701D3*
Y2884252D3*
D18*
X4602756Y2693701D3*
D19*
X4302756D3*
D18*
X3002756Y2393701D3*
D19*
X3302756D3*
D28*
X3802362Y3393701D3*
Y2803150D3*
D27*
X7652756Y1395276D3*
Y1493701D3*
D46*
X6152756Y3901892D3*
D47*
Y3134176D3*
M02*
