%TF.GenerationSoftware,Novarm,DipTrace,4.3.0.4*%
%TF.CreationDate,2023-05-10T13:10:43+01:00*%
%FSLAX26Y26*%
%MOIN*%
%TF.FileFunction,Copper,L1,Top*%
%TF.Part,Single*%
%AMOUTLINE0*
4,1,28,
-0.007874,-0.028051,
-0.007874,0.028051,
-0.00774,0.02907,
-0.007347,0.03002,
-0.006721,0.030835,
-0.005906,0.031461,
-0.004956,0.031854,
-0.003937,0.031988,
0.003937,0.031988,
0.004956,0.031854,
0.005906,0.031461,
0.006721,0.030835,
0.007347,0.03002,
0.00774,0.02907,
0.007874,0.028051,
0.007874,-0.028051,
0.00774,-0.02907,
0.007347,-0.03002,
0.006721,-0.030835,
0.005906,-0.031461,
0.004956,-0.031854,
0.003937,-0.031988,
-0.003937,-0.031988,
-0.004956,-0.031854,
-0.005906,-0.031461,
-0.006721,-0.030835,
-0.007347,-0.03002,
-0.00774,-0.02907,
-0.007874,-0.028051,
0*%
%TA.AperFunction,Conductor*%
%ADD13C,0.009843*%
%TA.AperFunction,ComponentPad*%
%ADD16R,0.062992X0.062992*%
%ADD17C,0.062992*%
%ADD18C,0.055118*%
%ADD19C,0.055118*%
%ADD20R,0.066929X0.066929*%
%ADD21C,0.066929*%
%ADD22C,0.07874*%
%ADD23R,0.051181X0.051181*%
%ADD24C,0.051181*%
%ADD25C,0.066929*%
%ADD26C,0.19685*%
%ADD27C,0.062992*%
%ADD28C,0.094488*%
%ADD29R,0.056693X0.056693*%
%ADD30C,0.056693*%
%ADD31O,0.137795X0.07874*%
%ADD32O,0.07874X0.15748*%
%ADD33R,0.070866X0.070866*%
%ADD34C,0.070866*%
%ADD35O,0.047244X0.06*%
%ADD36R,0.07874X0.181102*%
%ADD37O,0.07874X0.165354*%
%ADD38O,0.165354X0.07874*%
%ADD39R,0.07874X0.075*%
%ADD40O,0.07874X0.075*%
%ADD41R,0.07874X0.059055*%
%ADD42R,0.07874X0.149606*%
%TA.AperFunction,ComponentPad*%
%ADD43C,0.056693*%
%ADD44C,0.06*%
%ADD45C,0.03937*%
%ADD46R,0.082677X0.082677*%
%ADD47C,0.082677*%
%TA.AperFunction,ViaPad*%
%ADD48C,0.04*%
%ADD114OUTLINE0*%
G75*
G01*
%LPD*%
X8025787Y1303150D2*
D13*
X7777756D1*
X7752756Y1543701D2*
X7852756D1*
X7777756Y1303150D2*
Y1347441D1*
X7700591D1*
X7652756Y1395276D1*
X7852756Y1543701D2*
X7952756D1*
X5102756Y2293701D2*
X5002756Y2193701D1*
X4802756D1*
X903150Y4093701D2*
X1103150D1*
X1203150Y3993701D1*
Y3947441D1*
Y3793701D1*
X2503150Y3193701D2*
Y2793701D1*
X2603150Y2693701D1*
X2803150D1*
X3802362Y3393701D2*
X3502362D1*
X4002756Y1693701D2*
X4152756Y1543701D1*
X6252756Y2387402D2*
Y2443701D1*
X6302756Y2493701D1*
X6402756D1*
X2803150Y2693701D2*
Y2593701D1*
X3788091Y1119685D2*
X3787106Y1118701D1*
X2188091D1*
X2068898Y1237894D1*
Y1250984D1*
X1072440D1*
X1052756Y1231300D1*
Y993701D1*
X3502362Y3393701D2*
X3363154D1*
X3309414Y3339961D1*
X2649409D1*
X2503150Y3193701D1*
X6902756Y1393701D2*
X7152756Y1143701D1*
X7352756D1*
X1203150Y3947441D2*
X1656496D1*
X1802756Y4093701D1*
X2503150Y2793701D2*
X2440670D1*
X2203150D1*
X7403150Y3748425D2*
X7595079D1*
Y3691339D1*
X6402756Y2493701D2*
X6456492Y2439965D1*
X7002445D1*
X4802756Y2193701D2*
X4702756D1*
X4602756Y2293701D1*
X8102756Y2893701D2*
X8050985Y2841930D1*
X7916240D1*
X7864468Y2893701D1*
X7802756D1*
X4102756Y1093701D2*
X3985922D1*
X3959938Y1119685D1*
X3788091D1*
X7652756Y1195276D2*
X7699015D1*
X7716338Y1212598D1*
X7777756D1*
X5402756Y2493701D2*
X6002756D1*
X4302756Y2593701D2*
X4545351D1*
X3002756D2*
X2886052D1*
X2803150D1*
X7692520Y4093701D2*
X7792520D1*
X4302756Y2793701D2*
X4187996D1*
X4168307Y2774012D1*
Y2747162D1*
X4221059Y2694410D1*
X3750591Y3893701D2*
Y3789193D1*
X2203150Y2793701D2*
X1796857D1*
X1696857Y2893701D1*
X1503150D1*
X7002445Y2439965D2*
X7149020D1*
X7202756Y2493701D1*
X7802756Y2893701D2*
X7754528Y2845473D1*
X7490256D1*
X7487303Y2848425D1*
X7403150D1*
X652756Y793701D2*
X1052756D1*
X2131480D1*
X2379709Y1041930D1*
X6791933D1*
X6811618Y1061615D1*
Y1474016D1*
X6831303Y1493701D1*
X6902756D1*
X5302756Y993701D2*
Y859650D1*
X5283071Y839965D1*
X3157878D1*
X2968898Y650984D1*
X5402756Y3893701D2*
X5594484D1*
X5763855Y3724331D1*
X3458988Y3343544D2*
X3653323D1*
X3756906Y3239961D1*
X4527441D1*
X3441020Y3293701D2*
X2953701D1*
X5763855Y3724331D2*
X7184016D1*
X7203701Y3704646D1*
Y3568111D1*
X7223386Y3548425D1*
X7303150D1*
X2156890Y2275044D2*
X2790437D1*
X3502362Y2293701D2*
X3629499Y2166564D1*
Y2118391D1*
X3649185Y2098705D1*
X5556988D1*
X5751984Y2293701D1*
X6102756D1*
X2790437Y2275044D2*
X3437442D1*
X3456099Y2293701D1*
X3502362D1*
X2568898Y2144256D2*
X3452917D1*
X3502362Y2193701D1*
X2803150Y2893701D2*
X2849409Y2939961D1*
X3844689D1*
X3864374Y2920276D1*
Y2313386D1*
X3884058Y2293701D1*
X4102362D1*
X2268898Y1250984D2*
X2321358Y1198524D1*
X3701733D1*
X3943174Y1439965D1*
Y2393701D2*
X4102362D1*
X3943174Y1439965D2*
X4456492D1*
X4502756Y1393701D1*
X2703662Y1529178D2*
X2447091D1*
X2168898Y1250984D1*
X4102362Y2493701D2*
X3903743D1*
X3884059Y2513386D1*
Y2939961D1*
X3864374Y2959646D1*
X3568307D1*
X3548622Y2979331D1*
Y3020276D1*
X3528937Y3039961D1*
X3149370D1*
X2803150Y2793701D2*
X3149370D1*
X4041020Y2593701D2*
X3923429D1*
X3903744Y2613386D1*
Y2959646D1*
X3884059Y2979331D1*
X3587992D1*
X3568307Y2999016D1*
Y3220276D1*
X3548622Y3239961D1*
X2646772D1*
X3959477Y3674729D2*
X4024709Y3739961D1*
X4658221D1*
X4758221Y3639961D1*
X4941300D1*
X4960985Y3659646D1*
Y3793701D1*
X5402756Y993701D2*
Y627560D1*
X5383071Y607875D1*
X2912007D1*
X2868898Y650984D1*
X2803150Y3593701D2*
X2849410Y3547441D1*
X3568307D1*
X4669008Y3574725D2*
X4718851D1*
X4738536Y3594410D1*
Y3620276D1*
X4758221Y3639961D1*
X3502362Y3093701D2*
X2892783D1*
X2849410Y3137075D1*
X5450988Y788780D2*
X5502756Y840548D1*
Y993701D1*
X3637835Y3139961D2*
X4634244D1*
X2668898Y909339D2*
X3312008D1*
X3404449Y2993701D2*
X2918937D1*
X3981965Y3074729D2*
Y2993701D1*
X4759382Y3539961D2*
X3981965D1*
X2710048Y607875D2*
X2746190Y571733D1*
X5683072D1*
X5702756Y591417D1*
Y993701D1*
X2946772Y2893701D2*
X3502362D1*
X2468898Y650984D2*
X2567834Y552048D1*
X5783072D1*
X5802756Y571732D1*
Y993701D1*
X3502362Y2793701D2*
X3456102Y2839961D1*
X2996614D1*
X2512008Y1885587D2*
X2946772D1*
X2996614Y2839961D2*
X2771595D1*
X2751910Y2859646D1*
Y3142461D1*
X2803150Y3193701D1*
X2368898Y650984D2*
X2487519Y532363D1*
X5883072D1*
X5902756Y552047D1*
Y993701D1*
X2717146Y3093701D2*
Y2778489D1*
X2755674Y2739961D1*
X2412008Y2179020D2*
X2755674D1*
Y2739961D2*
X3091477D1*
X3137736Y2693701D1*
X3502362D1*
X2268898Y650984D2*
X2426889Y492993D1*
X5983072D1*
X6002756Y512677D1*
Y993701D1*
X2212008Y2309808D2*
X2664296D1*
X2683981Y2329493D1*
Y2391060D1*
X3583386Y2593701D2*
Y2359646D1*
X3563701Y2339961D1*
X3451492D1*
X3421339Y2309808D1*
X2703666D1*
X2683981Y2329493D1*
X6164099Y2493701D2*
Y2539965D1*
X3918823D1*
X3502362Y2493701D2*
Y2508464D1*
X3470866Y2539961D1*
X2396378D1*
X2368898Y2567441D1*
X3502362Y2393701D2*
X3400279D1*
X3357953Y2351375D1*
X2888279D1*
X2813831Y2425823D1*
X2480622D1*
X2468898Y2414099D1*
X6102756Y2393701D2*
X5885752D1*
X3533544Y2004953D2*
X5885752D1*
X1549410Y2437863D2*
X1908253Y2079020D1*
X5710882D1*
X5871827Y2239965D1*
X6349020D1*
X6402756Y2293701D1*
X4702756Y1093701D2*
X4608264Y1188193D1*
X4022442D1*
X4002756Y1207878D1*
Y1393701D1*
X4802756Y2893701D2*
X4955335D1*
X5046477Y2802560D1*
X5241697D1*
X5304296Y2739961D1*
X5483595D1*
X5506863Y2763229D1*
X5818173D1*
X5848331Y2733071D1*
X6342126D1*
X6402756Y2793701D1*
X4927445Y3393701D2*
X4873705Y3339961D1*
X4156102D1*
X4102362Y3393701D1*
X7403150Y3348425D2*
X7356889Y3394686D1*
X7080214D1*
X7079229Y3393701D1*
X6350985D1*
X4102362D2*
X4024972D1*
X3943276Y3475398D1*
X3658004D1*
X3638319Y3495083D1*
Y3820276D1*
X3618634Y3839961D1*
X3003587D1*
X2957323Y3793697D1*
X6350985Y3393701D2*
X5402756D1*
X4926398Y3243544D2*
X4746492D1*
X4696334Y3293701D1*
X4102362D1*
X5402756D2*
X5850988D1*
X2125122Y4231142D2*
X1156221D1*
X1121457Y4196378D1*
X4102362Y3293701D2*
X4045448D1*
X3883437Y3455713D1*
X3626512D1*
X3610760Y3439961D1*
X3153977D1*
X3114607Y3479331D1*
X5850988Y3293701D2*
X7159130D1*
X7213854Y3348425D1*
X7303150D1*
X2803150Y3993701D2*
X2584847D1*
X2565158Y3974012D1*
Y3737323D1*
X2545473Y3717638D1*
X2320140D1*
X2300455Y3737323D1*
Y3920274D1*
X2280768Y3939961D1*
X2078415D1*
X2058730Y3920276D1*
Y3559647D1*
X2039044Y3539961D1*
X956890D1*
X903150Y3593701D1*
X7403150Y3248425D2*
X7349410Y3194686D1*
X7155426D1*
X7140347Y3179607D1*
X6800831D1*
X6786737Y3193701D1*
X6435591D1*
X4041020D2*
X3603071D1*
X4102362D2*
X4709940D1*
X4763681Y3139961D1*
X4864095D1*
Y3193701D1*
X3345079Y3582205D2*
X3149370D1*
X6435591Y3193701D2*
X5402756D1*
X2203150Y4093701D2*
X2135236Y4161615D1*
X837205D1*
X817520Y4141930D1*
Y3579331D1*
X903150Y3493701D1*
X7132811Y3129449D2*
X6712221D1*
X6684032Y3157638D1*
X6583441D1*
Y3074725D1*
X4938233Y3093701D2*
X4884493Y3039961D1*
X4438229D1*
X6583441Y3074725D2*
X5842295D1*
X5823318Y3093701D1*
X5402756D1*
X4438229Y3039961D2*
X4384488Y3093701D1*
X4102362D1*
X5402756Y2993701D2*
X6702756D1*
X3690512Y3558938D2*
Y3920276D1*
X3670827Y3939961D1*
X2619607D1*
X6835595Y2843859D2*
X7006063D1*
X7256890Y3094686D1*
X7349410D1*
X7403150Y3148425D1*
X2203150Y3993701D2*
X1842134D1*
X1822445Y3974012D1*
Y3659646D1*
X1802760Y3639961D1*
X1147075D1*
X4102362Y2993701D2*
X4149803Y2946260D1*
X4976240D1*
X4995925Y2965945D1*
Y3239961D1*
X4016729Y2893701D2*
Y2659646D1*
X4036414Y2639961D1*
X4759382D1*
X903150Y3293701D2*
X949409Y3339961D1*
X1990370D1*
X7303150Y3148425D2*
X7237205D1*
X6982477Y2893697D1*
X6785752D1*
X1990370Y2484107D2*
X3114453D1*
X3168898Y2429662D1*
X3592709Y2739961D2*
X3168898D1*
X1990370Y3339961D2*
X2229725D1*
X2249410Y3359646D1*
Y3847441D1*
X2203150Y3893701D1*
X6785752Y2893697D2*
X5402756Y2893701D1*
X2373386Y3639961D2*
Y3259646D1*
X2353701Y3239961D1*
X1449808D1*
X1424607Y3265162D1*
X1030749D1*
X959288Y3193701D1*
X903150D1*
X3079843Y2672367D2*
X3114606D1*
X3147012Y2639961D1*
X3767599D1*
X3068898Y944103D2*
X5200079D1*
X5234843Y909339D1*
X2864488Y3429489D2*
X3079843D1*
X2203150Y3693701D2*
X2131006Y3621557D1*
Y3459648D1*
X2111319Y3439961D1*
X876575D1*
X856890Y3420276D1*
Y3139961D1*
X903150Y3093701D1*
X4102362Y2693701D2*
X4148621D1*
X4182677Y2659646D1*
X4236138D1*
X4255823Y2679331D1*
Y2720276D1*
X4275508Y2739961D1*
X5177992D1*
X5224251Y2693701D1*
X5402756D1*
X2968898Y1634965D2*
X3856910D1*
X2968898Y1720284D2*
X2059898D1*
X5402756Y2693701D2*
X7003449D1*
X7023453Y2713705D1*
X7070674D1*
X2503150Y3784252D2*
Y3993701D1*
X2603150Y4093701D1*
X2803150D1*
X3368898Y650984D2*
X3713091D1*
X3788091Y725984D1*
X1203150Y3203150D2*
Y2893701D1*
X1303150Y2793701D1*
X1503150D1*
X4743307Y1543701D2*
X4893307Y1393701D1*
X4902756D1*
X3802362Y2803150D2*
Y2293701D1*
X3902362Y2193701D1*
X4102362D1*
X5102756Y2884252D2*
Y3993701D1*
X5002756Y4093701D1*
X4802756D1*
X6252756Y1993701D2*
Y1919882D1*
Y1843701D1*
X6202756Y1793701D1*
X6102756D1*
X7652756Y1493701D2*
X7758071D1*
X7777756Y1474016D1*
Y1393701D1*
X903150Y3993701D2*
X856890Y4039961D1*
Y4122245D1*
X876575Y4141930D1*
X1591043D1*
X1639271Y4093701D1*
X1702756D1*
X5902756Y2793701D2*
X5854527Y2841930D1*
X5357972D1*
X5315649Y2884252D1*
X5102756D1*
X6902756Y1893701D2*
X6634042D1*
X6487779Y2039965D1*
X6326575D1*
X6306890Y2020280D1*
Y1939567D1*
X6287205Y1919882D1*
X6252756D1*
X2068898Y650984D2*
X1011614D1*
X954331Y593701D1*
X4702756Y793701D2*
X4635039Y725984D1*
X3788091D1*
X5302756Y1493701D2*
X5202756Y1393701D1*
X4902756D1*
X7852756Y3793701D2*
X7732086Y3914371D1*
X7369095D1*
X7303150Y3848425D1*
X8002756Y2893701D2*
X7954527Y2941930D1*
X7750985D1*
X7702756Y2893701D1*
X7841339Y849606D2*
X7666540Y674808D1*
X7452957D1*
X7402756Y624606D1*
X4102362Y2193701D2*
X4275508D1*
X3827362Y3727362D2*
Y3893701D1*
X7002756Y1493701D2*
X7090355D1*
X7302756D1*
X6102756Y1732363D2*
X5909973D1*
X5867607Y1774729D1*
X5302760D1*
X6753150Y3343307D2*
X6152756Y3343304D1*
X3827362Y3893701D2*
Y3960138D1*
X3801772D1*
X3776181D1*
Y3893701D1*
X4743307Y1543701D2*
X4549016D1*
X7777756Y1393701D2*
X8079331D1*
X8099016Y1413386D1*
Y1947441D1*
X8052756Y1993701D1*
X1702756Y4093701D2*
X1750985Y4141930D1*
X1831303D1*
X1850988Y4122245D1*
Y4059647D1*
X1870674Y4039961D1*
X2456890D1*
X2503150Y3993701D1*
X7702756Y2893701D2*
X7615649D1*
X7614665Y2894686D1*
X7349410D1*
X7303150Y2848425D1*
X7402756Y624606D2*
X7332874Y554725D1*
X7272638D1*
X7202756Y624606D1*
X3776181Y3893701D2*
Y3846949D1*
X3801772D1*
Y3893701D1*
Y3960138D2*
Y4039961D1*
X2856890D1*
X2803150Y4093701D1*
X4703772Y3639961D2*
X3795867D1*
X3776181Y3659646D1*
Y3727362D1*
X7168937Y3434371D2*
X7113741Y3489567D1*
X5510122D1*
X5483780Y3463225D1*
X4602756Y2593701D2*
X4802756D1*
X6520933Y3239961D2*
X5204134D1*
X5184449Y3220276D1*
Y2991477D1*
X5199528Y2976398D1*
X7053150Y3083189D2*
X6928899Y2958938D1*
X6520933D1*
X4599481Y3439961D2*
X4051063D1*
X3995941Y3495083D1*
X3770276D1*
X3750591Y3514768D1*
Y3727362D1*
X7053150Y3239961D2*
X7209842D1*
X7264567Y3294686D1*
X7737992D1*
X7845866Y3186812D1*
X8131299D1*
X8150985Y3167126D1*
Y2841930D1*
X8102756Y2793701D1*
X4602756D2*
X4649016Y2839961D1*
X4759382D1*
X6146130Y2039965D2*
X6074004D1*
X5999622Y1965583D1*
X4102756D1*
X6402756Y2193701D2*
X6695162D1*
X6841422Y2339961D1*
X4102756Y1249020D2*
X6590359D1*
X6070670Y3139961D2*
X5219213D1*
X6202756Y2939961D2*
X5301681D1*
X3603551Y3639961D2*
X3302756D1*
X8052756Y1543701D2*
X8010433Y1586024D1*
X7495079D1*
X7402756Y1493701D1*
X7303150Y2948425D2*
X7349410Y2994686D1*
X7853741D1*
X8002756Y3143701D1*
X7303150Y3748425D2*
X7356889Y3694686D1*
X7499992D1*
X7519681Y3674997D1*
Y3334056D1*
X7539366Y3314371D1*
X7883071D1*
X7902756Y3294685D1*
Y3243701D1*
X4903465Y2694410D2*
X4957914Y2639961D1*
X5438189D1*
X5459843Y2661615D1*
X7569981D1*
X7650296Y2741930D1*
X7850985D1*
X7870670Y2722245D1*
Y2561615D1*
X7802756Y2493701D1*
X5464095Y3993701D2*
X6852729D1*
X6951744Y3894686D1*
X7639449Y2793701D2*
X6797599D1*
X6749370Y2841930D1*
X6252599D1*
X7284095Y4159646D2*
X7269016Y4174725D1*
X4776181D1*
X4756496Y4155040D1*
Y3939961D1*
X4802756Y3893701D1*
X4721737Y3805197D2*
Y4189804D1*
X4741422Y4209489D1*
X7210638D1*
X7543229Y2748469D2*
X6631386D1*
X6596303Y2713386D1*
X5672678D1*
X5657599Y2728465D1*
X7585004Y2594414D2*
X5622835D1*
X5553307Y2626851D2*
X5568386Y2641930D1*
X7754527D1*
X7802756Y2593701D1*
X5518544Y3343863D2*
X5446130D1*
X7619764Y2493701D2*
X7553815Y2559650D1*
X5533623D1*
X5518544Y2574729D1*
X7752756Y1843701D2*
Y1893701D1*
X7852756Y1993701D1*
X4472992Y3793701D2*
X4102362D1*
X7742520Y3983662D2*
X7350984D1*
X7294685Y4039961D1*
X5137520D1*
X7788780Y3711024D2*
X7718406D1*
X7634744Y3794686D1*
X5953913D1*
X5808638Y3939961D1*
X5239126D1*
X5219441Y3920276D1*
Y3439961D1*
X2868898Y1250984D2*
X3092642Y1474729D1*
X4229331D1*
X4249016Y1494414D1*
Y1647441D1*
X4202756Y1693701D1*
X6037524Y1920351D2*
X2025134D1*
X7999016Y2137075D2*
Y1647969D1*
X7979331Y1628284D1*
X6037524D1*
X1950988Y3893701D2*
X1857209D1*
X3456099Y2449347D2*
X3386575Y2518871D1*
X922835D1*
X903150Y2538556D1*
Y2793701D1*
X5502756Y1493701D2*
Y1342835D1*
X5483071Y1323150D1*
X4773307D1*
X4702756Y1393701D1*
X5402756Y2293701D2*
X5236815Y2127760D1*
X3697142D1*
X3677457Y2147445D1*
Y2574729D1*
X6302756Y3039961D2*
X5352304D1*
X5253977Y2941634D1*
X5137520D1*
Y2993701D1*
X6402756Y1993701D2*
X6326575Y1917520D1*
Y1682733D1*
X6306890Y1663048D1*
X5970673D1*
X5950988Y1643363D1*
Y1425784D1*
X5931303Y1406099D1*
X5670673D1*
X5650988Y1425784D1*
Y1522245D1*
X5631303Y1541930D1*
X5370673D1*
X5350988Y1522245D1*
Y1362520D1*
X5331303Y1342835D1*
X4853622D1*
X4802756Y1393701D1*
X1922441Y2044256D2*
X5782870D1*
X5878579Y2139965D1*
X7606492D1*
X7752756Y1993701D1*
X5402756Y2393701D2*
X5456492Y2339965D1*
X6135831D1*
X6162213Y2313583D1*
X6302756D1*
X6322441Y2333268D1*
Y2374016D1*
X6342126Y2393701D1*
X6402756D1*
X903150Y2993701D2*
X1169095Y2727756D1*
X1549410D1*
X1569095Y2747441D1*
Y2820276D1*
X1549410Y2839961D1*
X1456890D1*
X1437205Y2859646D1*
Y2920276D1*
X1456890Y2939961D1*
X2284174D1*
Y1850823D2*
X4383780D1*
X5402756Y1640473D2*
X5731303D1*
X5750988Y1620788D1*
Y1465155D1*
X5770674Y1445469D1*
X5854524D1*
X5902756Y1493701D1*
X2284174Y2939961D2*
X2393071Y3048858D1*
Y3425512D1*
X2707520Y3739961D1*
X3448622D1*
X3502362Y3793701D1*
X4383780Y1850823D2*
X4418544Y1885587D1*
X5402756D1*
X2668898Y1250984D2*
X2912327Y1494414D1*
X3917122D1*
X3936807Y1514099D1*
Y1720280D1*
X3956492Y1739965D1*
X4256492D1*
X4302756Y1693701D1*
X7006886Y2524886D2*
X6991807Y2539965D1*
X6262599D1*
X6164174Y2441540D1*
X5616225D1*
X4302756Y1693701D2*
X4549016Y1447441D1*
Y1323150D1*
X4568701Y1303465D1*
X5583072D1*
X5602756Y1323149D1*
Y1493701D1*
X7664173Y849606D2*
X7480118Y1033662D1*
X7362795D1*
X7302756Y1093701D1*
X5498859Y3839961D2*
Y3589804D1*
X5402756Y3493701D1*
X4102362Y4093701D2*
X4102363Y4196378D1*
X6002756Y1493701D2*
Y1288390D1*
X5983071Y1268705D1*
X4327752D1*
X4202756Y1393701D1*
X6805437Y1541930D2*
X6050985D1*
X6002756Y1493701D1*
X7302756Y1093701D2*
X6870676D1*
X6850988Y1113390D1*
Y1422244D1*
X6870674Y1441930D1*
X6931300D1*
X6950985Y1461615D1*
Y1522245D1*
X6931300Y1541930D1*
X6805437D1*
X4102363Y4196378D2*
X1404244D1*
X5702756Y1493701D2*
Y1586023D1*
X5683071Y1605709D1*
X4490748D1*
X4402756Y1693701D1*
Y1759650D2*
X2249410D1*
X5798618Y3774174D2*
X7217520D1*
X7237205Y3754489D1*
Y3614371D1*
X7256890Y3594686D1*
X7349410D1*
X7403150Y3648425D1*
X5802756Y1493701D2*
Y1720280D1*
X5783072Y1739965D1*
X5483784D1*
X4502756Y1693701D2*
X4449016Y1747441D1*
Y1774729D1*
X4429331Y1794414D1*
X856496D1*
X836811Y1814099D1*
Y2827362D1*
X903150Y2893701D1*
X5483784Y1739965D2*
X4549020D1*
X4502756Y1693701D1*
D48*
X7595079Y3691339D3*
X4221059Y2694410D3*
X3750591Y3789193D3*
X6002756Y2493701D3*
X4545351Y2593701D3*
X7002445Y2439965D3*
X4527441Y3239961D3*
X3458988Y3343544D3*
X2953701Y3293701D3*
X3441020D3*
X5763855Y3724331D3*
X2156890Y2275044D3*
X2790437D3*
X2568898Y2144256D3*
X3943174Y2393701D3*
Y1439965D3*
X2703662Y1529178D3*
X3149370Y3039961D3*
Y2793701D3*
X2646772Y3239961D3*
X4041020Y2593701D3*
X4960985Y3793701D3*
X4669008Y3574725D3*
X3959477Y3674729D3*
X3568307Y3547441D3*
X2849410Y3137075D3*
X5450988Y788780D3*
X4634244Y3139961D3*
X3637835D3*
X3312008Y909339D3*
X2668898D3*
X2918937Y2993701D3*
X3981965D3*
Y3074729D3*
Y3539961D3*
X4759382D3*
X3404449Y2993701D3*
X2710048Y607875D3*
X2946772Y2893701D3*
X2996614Y2839961D3*
X2946772Y1885587D3*
X2512008D3*
X2755674Y2179020D3*
X2412008D3*
X2717146Y3093701D3*
X2755674Y2739961D3*
X2212008Y2309808D3*
X3583386Y2593701D3*
X2683981Y2391060D3*
X3918823Y2539965D3*
X6164099Y2493701D3*
X2368898Y2567441D3*
X2468898Y2414099D3*
X5885752Y2393701D3*
Y2004953D3*
X3533544D3*
X1549410Y2437863D3*
X2957323Y3793697D3*
X6350985Y3393701D3*
X4927445D3*
X3114607Y3479331D3*
X1121457Y4196378D3*
X2125122Y4231142D3*
X4926398Y3243544D3*
X5850988Y3293701D3*
X6435591Y3193701D3*
X3603071D3*
X4041020D3*
X4864095D3*
X3149370Y3582205D3*
X3345079D3*
X6583441Y3074725D3*
X7132811Y3129449D3*
X4938233Y3093701D3*
X4438229Y3039961D3*
X6702756Y2993701D3*
X2619607Y3939961D3*
X3690512Y3558938D3*
X6835595Y2843859D3*
X1147075Y3639961D3*
X4995925Y3239961D3*
X4759382Y2639961D3*
X4016729Y2893701D3*
X3168898Y2429662D3*
X1990370Y2484107D3*
X3168898Y2739961D3*
X3592709D3*
X6785752Y2893697D3*
X1990370Y3339961D3*
X2373386Y3639961D3*
X3767599Y2639961D3*
X3079843Y2672367D3*
X5234843Y909339D3*
X3068898Y944103D3*
X3079843Y3429489D3*
X2864488D3*
X3856910Y1634965D3*
X2968898D3*
X2059898Y1720284D3*
X2968898D3*
X7070674Y2713705D3*
X4275508Y2193701D3*
X5302760Y1774729D3*
X6102756Y1732363D3*
X6152756Y3343304D3*
X4549016Y1543701D3*
X3801772Y4039961D3*
X4703772Y3639961D3*
X5483780Y3463225D3*
X7168937Y3434371D3*
X5199528Y2976398D3*
X6520933Y3239961D3*
Y2958938D3*
X7053150Y3083189D3*
X4599481Y3439961D3*
X4759382Y2839961D3*
X7053150Y3239961D3*
X4102756Y1965583D3*
X6146130Y2039965D3*
X6841422Y2339961D3*
X6590359Y1249020D3*
X4102756D3*
X5219213Y3139961D3*
X6070670D3*
X5301681Y2939961D3*
X6202756D3*
X3302756Y3639961D3*
X3603551D3*
X4903465Y2694410D3*
X6951744Y3894686D3*
X5464095Y3993701D3*
X6252599Y2841930D3*
X7639449Y2793701D3*
X7284095Y4159646D3*
X7210638Y4209489D3*
X4721737Y3805197D3*
X5657599Y2728465D3*
X7543229Y2748469D3*
X5622835Y2594414D3*
X7585004D3*
X5553307Y2626851D3*
X5446130Y3343863D3*
X5518544D3*
Y2574729D3*
X7619764Y2493701D3*
X4472992Y3793701D3*
X5137520Y4039961D3*
X7742520Y3983662D3*
X5219441Y3439961D3*
X7788780Y3711024D3*
X2025134Y1920351D3*
X6037524D3*
Y1628284D3*
X7999016Y2137075D3*
X1857209Y3893701D3*
X1950988D3*
X3677457Y2574729D3*
X3456099Y2449347D3*
X5137520Y2993701D3*
X6302756Y3039961D3*
X1922441Y2044256D3*
X5402756Y1885587D3*
X2284174Y1850823D3*
Y2939961D3*
X5402756Y1640473D3*
X4383780Y1850823D3*
X5616225Y2441540D3*
X7006886Y2524886D3*
X1404244Y4196378D3*
X4102363D3*
X6805437Y1541930D3*
X5498859Y3839961D3*
X2249410Y1759650D3*
X4402756D3*
X5798618Y3774174D3*
X5483784Y1739965D3*
D16*
X902756Y2094488D3*
D17*
X1002756D3*
X1102756D3*
X1202756D3*
X1302756D3*
X1402756D3*
X1502756D3*
Y2394488D3*
X1402756D3*
X1302756D3*
X1202756D3*
X1102756D3*
X1002756D3*
X902756D3*
D16*
X2803150Y2593701D3*
D17*
Y2693701D3*
Y2793701D3*
Y2893701D3*
Y2993701D3*
Y3093701D3*
Y3193701D3*
Y3293701D3*
Y3393701D3*
Y3493701D3*
Y3593701D3*
Y3693701D3*
Y3793701D3*
Y3893701D3*
Y3993701D3*
Y4093701D3*
X2203150D3*
Y3993701D3*
Y3893701D3*
Y3793701D3*
Y3693701D3*
Y3593701D3*
Y3493701D3*
Y3393701D3*
Y3293701D3*
Y3193701D3*
Y3093701D3*
Y2993701D3*
Y2893701D3*
Y2793701D3*
Y2693701D3*
Y2593701D3*
D18*
X4602756D3*
D19*
X4302756D3*
D16*
X4802756Y4093701D3*
D17*
Y3993701D3*
Y3893701D3*
Y3793701D3*
Y3693701D3*
Y3593701D3*
Y3493701D3*
Y3393701D3*
Y3293701D3*
Y3193701D3*
Y3093701D3*
Y2993701D3*
Y2893701D3*
Y2793701D3*
Y2693701D3*
Y2593701D3*
Y2493701D3*
Y2393701D3*
Y2293701D3*
Y2193701D3*
X5402756D3*
Y2293701D3*
Y2393701D3*
Y2493701D3*
Y2593701D3*
Y2693701D3*
Y2793701D3*
Y2893701D3*
Y2993701D3*
Y3093701D3*
Y3193701D3*
Y3293701D3*
Y3393701D3*
Y3493701D3*
Y3593701D3*
Y3693701D3*
Y3793701D3*
Y3893701D3*
Y3993701D3*
Y4093701D3*
D20*
X6302756Y993701D3*
D21*
X6402756D3*
X6502756D3*
X6602756D3*
X6702756D3*
X6802756D3*
X6902756D3*
X7002756D3*
D20*
X6302756Y1493701D3*
D21*
X6402756D3*
X6502756D3*
D22*
X7664173Y593701D3*
Y849606D3*
X7841339Y593701D3*
Y849606D3*
D20*
X7002756Y1393701D3*
D21*
X6902756D3*
X7002756Y1493701D3*
X6902756D3*
D23*
X7302756Y1093701D3*
D24*
X7352756Y1143701D3*
X7402756Y1093701D3*
D22*
X6252756Y1993701D3*
Y2387402D3*
D20*
X7702756Y2893701D3*
D21*
X7802756D3*
X7702756Y2793701D3*
X7802756D3*
X7702756Y2693701D3*
X7802756D3*
X7702756Y2593701D3*
X7802756D3*
X7702756Y2493701D3*
X7802756D3*
X7702756Y2393701D3*
X7802756D3*
D20*
X5902756Y2793701D3*
D25*
X6002756D3*
X6102756D3*
X6202756D3*
X6302756D3*
X6402756D3*
D26*
X552756Y4143701D3*
Y2017717D3*
X7481890Y4143701D3*
Y2017717D3*
D16*
X7403150Y3848425D3*
D27*
X7303150D3*
X7403150Y3748425D3*
X7303150D3*
X7403150Y3648425D3*
X7303150D3*
X7403150Y3548425D3*
X7303150D3*
X7403150Y3448425D3*
X7303150D3*
X7403150Y3348425D3*
X7303150D3*
X7403150Y3248425D3*
X7303150D3*
X7403150Y3148425D3*
X7303150D3*
X7403150Y3048425D3*
X7303150D3*
X7403150Y2948425D3*
X7303150D3*
X7403150Y2848425D3*
X7303150D3*
D20*
X5302756Y1493701D3*
D21*
X5402756D3*
X5502756D3*
X5602756D3*
X5702756D3*
X5802756D3*
X5902756D3*
X6002756D3*
D18*
X7752756Y1843701D3*
D19*
Y1543701D3*
D16*
X3502362Y4093701D3*
D17*
Y3993701D3*
Y3893701D3*
Y3793701D3*
Y3693701D3*
Y3593701D3*
Y3493701D3*
Y3393701D3*
Y3293701D3*
Y3193701D3*
Y3093701D3*
Y2993701D3*
Y2893701D3*
Y2793701D3*
Y2693701D3*
Y2593701D3*
Y2493701D3*
Y2393701D3*
Y2293701D3*
Y2193701D3*
X4102362D3*
Y2293701D3*
Y2393701D3*
Y2493701D3*
Y2593701D3*
Y2693701D3*
Y2793701D3*
Y2893701D3*
Y2993701D3*
Y3093701D3*
Y3193701D3*
Y3293701D3*
Y3393701D3*
Y3493701D3*
Y3593701D3*
Y3693701D3*
Y3793701D3*
Y3893701D3*
Y3993701D3*
Y4093701D3*
D18*
X3002756Y2593701D3*
D19*
X3302756D3*
D28*
X2503150Y3193701D3*
Y3784252D3*
X4152756Y1543701D3*
X4743307D3*
D18*
X8052756D3*
D19*
Y1843701D3*
D16*
X6902756Y2493701D3*
D17*
Y2393701D3*
Y2293701D3*
Y2193701D3*
Y2093701D3*
Y1993701D3*
Y1893701D3*
X7202756D3*
Y1993701D3*
Y2093701D3*
Y2193701D3*
Y2293701D3*
Y2393701D3*
Y2493701D3*
D18*
Y871654D3*
D19*
X7502756D3*
D18*
X7692520Y4193701D3*
D19*
Y4093701D3*
D29*
X2068898Y650984D3*
D30*
X2168898D3*
X2268898D3*
X2368898D3*
X2468898D3*
X2568898D3*
X2668898D3*
X2768898D3*
X2868898D3*
X2968898D3*
X3068898D3*
X3168898D3*
X3268898D3*
X3368898D3*
Y1250984D3*
X3268898D3*
X3168898D3*
X3068898D3*
X2968898D3*
X2868898D3*
X2768898D3*
X2668898D3*
X2568898D3*
X2468898D3*
X2368898D3*
X2268898D3*
X2168898D3*
X2068898D3*
D16*
X4102756Y793701D3*
D17*
X4202756D3*
X4302756D3*
X4402756D3*
X4502756D3*
X4602756D3*
X4702756D3*
Y1093701D3*
X4602756D3*
X4502756D3*
X4402756D3*
X4302756D3*
X4202756D3*
X4102756D3*
D16*
X7852756Y3711024D3*
D27*
Y3608661D3*
Y3793701D3*
Y3525984D3*
X7742520Y3793701D3*
Y3525984D3*
D31*
X7964961Y3390157D3*
D32*
X7996457Y3659843D3*
D31*
X7964961Y3929528D3*
D18*
X7792520Y4193701D3*
D19*
Y4093701D3*
D18*
X4602756Y2793701D3*
D19*
X4302756D3*
D18*
X7952756Y1843701D3*
D19*
Y1543701D3*
D26*
X552756Y543701D3*
D33*
X7302756Y1493701D3*
D34*
X7402756D3*
D28*
X1203150Y3793701D3*
Y3203150D3*
D20*
X1702756Y4093701D3*
D21*
X1802756D3*
X1902756D3*
X2002756D3*
D20*
X5302756Y993701D3*
D21*
X5402756D3*
X5502756D3*
X5602756D3*
X5702756D3*
X5802756D3*
X5902756D3*
X6002756D3*
D35*
X479528Y872441D3*
X652756D3*
X479528Y951181D3*
Y793701D3*
X652756Y951181D3*
Y793701D3*
D36*
X952756Y1419291D3*
D37*
X704724D3*
D38*
X838583Y1230315D3*
D39*
X1052756Y793701D3*
D40*
Y893701D3*
Y993701D3*
D27*
X7652756Y1195276D3*
Y1293701D3*
D18*
X7502756Y760236D3*
D19*
X7202756D3*
D114*
X3750591Y3727362D3*
X3776181D3*
X3801772D3*
X3827362D3*
Y3893701D3*
X3801772D3*
X3776181D3*
X3750591D3*
D18*
X4602756Y2293701D3*
D19*
X4302756D3*
D18*
X4602756Y2493701D3*
D19*
X4302756D3*
D16*
X6753150Y3643307D3*
D17*
Y3543307D3*
Y3443307D3*
Y3343307D3*
X7053150D3*
Y3443307D3*
Y3543307D3*
Y3643307D3*
D41*
X7777756Y1393701D3*
Y1303150D3*
D42*
X8025787D3*
D41*
X7777756Y1212598D3*
D27*
X1052756Y593701D3*
X954331D3*
D18*
X7852756Y1843701D3*
D19*
Y1543701D3*
D16*
X4002756Y1393701D3*
D17*
X4102756D3*
X4202756D3*
X4302756D3*
X4402756D3*
X4502756D3*
X4602756D3*
X4702756D3*
X4802756D3*
X4902756D3*
Y1693701D3*
X4802756D3*
X4702756D3*
X4602756D3*
X4502756D3*
X4402756D3*
X4302756D3*
X4202756D3*
X4102756D3*
X4002756D3*
D22*
X3788091Y725984D3*
Y1119685D3*
D16*
X6102756Y2493701D3*
D17*
Y2393701D3*
Y2293701D3*
Y2193701D3*
Y2093701D3*
Y1993701D3*
Y1893701D3*
Y1793701D3*
X6402756D3*
Y1893701D3*
Y1993701D3*
Y2093701D3*
Y2193701D3*
Y2293701D3*
Y2393701D3*
Y2493701D3*
D33*
X7402756Y624606D3*
D34*
X7502756D3*
D26*
X8052756Y543701D3*
D33*
X7202756Y624606D3*
D34*
X7302756D3*
D43*
X7802756Y3143701D3*
X7902756Y3243701D3*
X8002756Y3143701D3*
D16*
X7752756Y1993701D3*
D27*
X7852756D3*
D44*
X7952756D3*
D16*
X8052756D3*
D27*
Y2093701D3*
X7952756D3*
X7852756D3*
X7752756D3*
D45*
X6735433Y3856299D3*
Y3931102D3*
D16*
X1503150Y2793701D3*
D17*
Y2893701D3*
Y2993701D3*
Y3093701D3*
Y3193701D3*
Y3293701D3*
Y3393701D3*
Y3493701D3*
Y3593701D3*
Y3693701D3*
Y3793701D3*
Y3893701D3*
Y3993701D3*
Y4093701D3*
X903150D3*
Y3993701D3*
Y3893701D3*
Y3793701D3*
Y3693701D3*
Y3593701D3*
Y3493701D3*
Y3393701D3*
Y3293701D3*
Y3193701D3*
Y3093701D3*
Y2993701D3*
Y2893701D3*
Y2793701D3*
D26*
X8052756Y4143701D3*
D20*
X8002756Y2893701D3*
D21*
X8102756D3*
X8002756Y2793701D3*
X8102756D3*
D28*
X5102756Y2293701D3*
Y2884252D3*
D18*
X4602756Y2693701D3*
D19*
X4302756D3*
D18*
X3002756Y2393701D3*
D19*
X3302756D3*
D28*
X3802362Y3393701D3*
Y2803150D3*
D27*
X7652756Y1395276D3*
Y1493701D3*
D46*
X6152756Y3901892D3*
D47*
Y3134176D3*
M02*
