%TF.GenerationSoftware,Novarm,DipTrace,4.3.0.4*%
%TF.CreationDate,2023-05-12T23:21:57+01:00*%
%FSLAX26Y26*%
%MOIN*%
%TF.FileFunction,Copper,L1,Top*%
%TF.Part,Single*%
%AMOUTLINE0*
4,1,28,
-0.007874,-0.028051,
-0.007874,0.028051,
-0.00774,0.02907,
-0.007347,0.03002,
-0.006721,0.030835,
-0.005906,0.031461,
-0.004956,0.031854,
-0.003937,0.031988,
0.003937,0.031988,
0.004956,0.031854,
0.005906,0.031461,
0.006721,0.030835,
0.007347,0.03002,
0.00774,0.02907,
0.007874,0.028051,
0.007874,-0.028051,
0.00774,-0.02907,
0.007347,-0.03002,
0.006721,-0.030835,
0.005906,-0.031461,
0.004956,-0.031854,
0.003937,-0.031988,
-0.003937,-0.031988,
-0.004956,-0.031854,
-0.005906,-0.031461,
-0.006721,-0.030835,
-0.007347,-0.03002,
-0.00774,-0.02907,
-0.007874,-0.028051,
0*%
%TA.AperFunction,Conductor*%
%ADD13C,0.009843*%
%TA.AperFunction,ComponentPad*%
%ADD16C,0.055118*%
%ADD17C,0.055118*%
%ADD18R,0.062992X0.062992*%
%ADD19C,0.062992*%
%ADD20R,0.066929X0.066929*%
%ADD21C,0.066929*%
%ADD22C,0.07874*%
%ADD23R,0.051181X0.051181*%
%ADD24C,0.051181*%
%ADD25C,0.066929*%
%ADD26C,0.19685*%
%ADD27C,0.062992*%
%ADD28C,0.06*%
%ADD29C,0.094488*%
%ADD30R,0.056693X0.056693*%
%ADD31C,0.056693*%
%ADD32O,0.137795X0.07874*%
%ADD33O,0.07874X0.15748*%
%ADD34O,0.047244X0.06*%
%ADD35R,0.181102X0.07874*%
%ADD36O,0.165354X0.07874*%
%ADD37O,0.07874X0.165354*%
%ADD38R,0.07874X0.075*%
%ADD39O,0.07874X0.075*%
%ADD40R,0.070866X0.070866*%
%ADD41C,0.070866*%
%ADD42R,0.082677X0.082677*%
%ADD43C,0.082677*%
%ADD44R,0.07874X0.059055*%
%ADD45R,0.07874X0.149606*%
%TA.AperFunction,ComponentPad*%
%ADD46C,0.056693*%
%ADD47C,0.03937*%
%TA.AperFunction,ViaPad*%
%ADD48C,0.04*%
%ADD114OUTLINE0*%
G75*
G01*
%LPD*%
X7643701Y1395276D2*
D13*
X7689964Y1349012D1*
Y1322835D1*
X7709649Y1303150D1*
X7768701D1*
X8016732D1*
X5093701Y2293701D2*
X4993701Y2193701D1*
X4793701D1*
X1194094Y3893701D2*
X1394094D1*
X1494094Y3793701D1*
Y3593701D1*
X2494094Y3193701D2*
Y2793701D1*
X2594094Y2693701D1*
X2794094D1*
X3793307Y3393701D2*
X3493307D1*
X3993701Y1400000D2*
X4143701Y1250000D1*
X7100000Y2493701D2*
Y2550000D1*
X7150000Y2600000D1*
X7250000D1*
X2794094Y2693701D2*
Y2593701D1*
X3594685Y1094685D2*
X3593701Y1093701D1*
X1994685D1*
X1875492Y1212894D1*
Y1225984D1*
X4593701Y2693701D2*
X4493701Y2793701D1*
X4293701D1*
X6893701Y1393701D2*
X6991413Y1295989D1*
X7324016D1*
X7343701Y1276304D1*
Y1143701D1*
X4143701Y1250000D2*
X3614374D1*
X3594685Y1230311D1*
Y1094685D1*
X1193701Y2194488D2*
X678705Y2194489D1*
X4593701Y2493701D2*
X4551378Y2536024D1*
X4351378D1*
X4293701Y2593701D1*
X4793701Y2193701D2*
X4693701D1*
X4593701Y2293701D1*
X6800394Y2199606D2*
X6846653Y2153347D1*
Y2119686D1*
X6866339Y2100000D1*
X6950000D1*
X7394094Y2848425D2*
X7487599Y2941930D1*
X7745472D1*
X7793701Y2893701D1*
X3703819Y3705197D2*
Y3801418D1*
X3741535Y3839134D1*
Y3893701D1*
X7643701Y1195276D2*
X7689964D1*
X7707287Y1212598D1*
X7768701D1*
X2194094Y2693701D2*
X1879724D1*
X1794094D1*
X2194094Y2793701D2*
X2494094D1*
X6341307Y2654453D2*
X6796811D1*
X6206496Y2311500D2*
X6341307D1*
X4100000Y2061343D2*
X4593701D1*
X5093701Y2293701D2*
X5175394Y2212008D1*
X5307748D1*
X5347437Y2251697D1*
X7678539Y3837075D2*
X7589890Y3748425D1*
X7394094D1*
X2794094Y2593701D2*
X2993701D1*
X2494094Y3193701D2*
X2656866D1*
X2703126Y3239961D1*
X3188130D1*
X3493307Y3393701D2*
X3188130D1*
X7683465Y4093701D2*
X7783465D1*
X6800394Y2446264D2*
X6975528D1*
X7016988Y2404804D1*
X7100000D1*
X5393701Y2493701D2*
X5808098D1*
X5880027Y2565630D1*
X6206496D1*
X4293701Y2793701D2*
X4239961Y2739961D1*
X3999520D1*
X3979835Y2759646D1*
Y2910370D1*
X3793307Y3096898D1*
Y3393701D1*
X7793701Y2893701D2*
X7841930Y2941930D1*
X8045472D1*
X8093701Y2893701D1*
X593701Y1593701D2*
X801657D1*
X893701D1*
X939965Y1639965D1*
X6322244D1*
X6341929Y1620280D1*
Y1461615D1*
X6361614Y1441930D1*
X6841930D1*
X6893701Y1493701D1*
X5128464Y3843859D2*
X5350327D1*
X1794094Y3793701D2*
X1847835Y3739961D1*
X2302992D1*
X2349252Y3693701D1*
X2794094D1*
X3624177Y3874725D2*
Y3644252D1*
X5350327Y3843859D2*
X6554433D1*
X6849866Y3548425D1*
X7294094D1*
X3554649Y3874725D2*
X3539571Y3889803D1*
Y4020276D1*
X3559256Y4039961D1*
X4231662D1*
X4427764Y3843859D1*
X2794094Y3693701D2*
X2940354Y3839961D1*
X3539571D1*
Y3859647D1*
X3554649Y3874725D1*
X2583835Y2203229D2*
X2674307Y2293701D1*
X3493307D1*
X3579209Y2207799D1*
Y2115792D1*
X3598894Y2096107D1*
X5872913D1*
X5892598Y2115792D1*
Y2380316D1*
X5912283Y2400000D1*
X6950000D1*
X2375492Y2193701D2*
X2452866D1*
X2478102Y2168465D1*
X3404992D1*
X3430228Y2193701D1*
X3493307D1*
X3032382Y1746264D2*
X4038661D1*
X2973051Y2886918D2*
X2966268Y2893701D1*
X2794094D1*
X3927756Y1885319D2*
X2075492D1*
X2794094Y2793701D2*
X2926468D1*
X3064460Y2655709D1*
X3407756D1*
X3423504Y2639961D1*
X3656228D1*
X3675913Y2659646D1*
Y2845477D1*
X3695598Y2865162D1*
X3881409D1*
X3901094Y2845477D1*
Y2685914D1*
X4093307Y2493701D1*
X1975492Y1535477D2*
X2722890D1*
X2040728Y2439961D2*
X3609968D1*
X3675909Y2374020D1*
Y1161343D2*
X4232358D1*
X4293701Y1100000D1*
X5393701Y993701D2*
X5332426Y932426D1*
X2695177D1*
X2675492Y912740D1*
Y625984D1*
X3658941Y3974725D2*
Y3594410D1*
X2794094Y3593701D2*
X3363232D1*
X4621161Y4039961D2*
Y3694410D1*
X4601476Y3674725D1*
X4154649D1*
X3493307Y3093701D2*
X3442752Y3144256D1*
X2665255D1*
X2618598Y3097599D1*
X5004008Y3339961D2*
X3924842D1*
X2794094Y3393701D2*
X2847835Y3339961D1*
X3519886D1*
X3539571Y3320276D1*
Y3039965D1*
X3493307Y2993701D1*
X2556102Y3393697D2*
X2794094Y3393701D1*
X2723527Y897662D2*
X5597662D1*
X5693701Y993701D1*
X2718602Y3039965D2*
X3228130D1*
X3374394Y2893701D1*
X3493307D1*
X2275492Y625984D2*
X2318602Y582875D1*
X2798917D1*
X2818602Y602560D1*
Y849016D1*
X2838287Y868701D1*
X5668701D1*
X5793701Y993701D1*
X2840354Y2837075D2*
X3154209D1*
X3197583Y2793701D1*
X3493307D1*
X2840354Y1748485D2*
X2418602D1*
X2175492Y625984D2*
X2501618Y952111D1*
X5175949D1*
X5195634Y971796D1*
Y1041930D1*
X5215319Y1061615D1*
X5825787D1*
X5893701Y993701D1*
X2750720Y3339961D2*
X2405503D1*
X2385818Y3320276D1*
Y3021480D1*
X2325335Y2960997D1*
X2794094Y3093701D2*
X3067736D1*
X3101787Y3059650D1*
X3355712D1*
X2794094Y2993701D2*
X2728146Y2927752D1*
Y2759646D1*
X2747831Y2739961D1*
X2848787D1*
X2952724Y2636024D1*
X3314866D1*
X3357189Y2593701D1*
X3493307D1*
X3539571Y1781028D2*
X3954074D1*
X3970960Y1797914D1*
X5817964D1*
X2118602Y1579528D2*
X2673047D1*
X5782614Y2276737D2*
X5641354Y2135477D1*
X3730358D1*
X3710673Y2155162D1*
Y2474016D1*
X3690988Y2493701D1*
X3493307D1*
X6021181Y2474138D2*
X6325358D1*
X6451221Y2600000D1*
X6950000D1*
X3493307Y2493701D2*
X2175492D1*
X2275492Y2371378D2*
X2298720Y2348150D1*
X3313252D1*
X3358803Y2393701D1*
X3493307D1*
X3598894Y2288114D1*
Y2135477D1*
X3618579Y2115792D1*
X5797693D1*
X5817378Y2135477D1*
Y2400004D1*
X5837063Y2419689D1*
X6700932D1*
X6781244Y2500000D1*
X6950000D1*
X1980819Y4193701D2*
X2005819Y4218701D1*
X7320275D1*
X7339960Y4199016D1*
Y4035120D1*
X7359646Y4015434D1*
X7953000D1*
X1986279Y1850556D2*
X5833043D1*
X5852728Y1830871D1*
Y1705390D1*
X5872413Y1685705D1*
X7164370D1*
X7184055Y1705390D1*
Y1926579D1*
X7203740Y1946264D1*
X7319091D1*
X7360827Y1904528D1*
X7654528D1*
X7750000Y2000000D1*
X1875118Y1953741D2*
X4626579D1*
X4646264Y1973426D1*
Y2034371D1*
X4665949Y2054056D1*
X5990153D1*
X6181964Y2245867D1*
X6846653D1*
X6866338Y2226182D1*
Y2165949D1*
X6886023Y2146264D1*
X6992323D1*
X7000193Y2154134D1*
X7188897D1*
X1750720Y2739961D2*
X1875118D1*
X5437075D2*
X6549606D1*
X6606496Y2796850D1*
X5393701Y3393701D2*
X6104882D1*
X2794094Y3793701D2*
X2713599D1*
X2633284Y3713386D1*
X2454858D1*
X2328283Y3839961D1*
X1662094D1*
X1642409Y3820276D1*
Y3551378D1*
X1622724Y3531693D1*
X1439677D1*
X1377669Y3593701D1*
X1194094D1*
X4093307Y3393701D2*
X3944527D1*
X3924842Y3413386D1*
Y3520276D1*
X3905157Y3539961D1*
X3166295D1*
X3101059Y3474725D1*
X2918602D1*
X4136681Y3439961D2*
X4986468D1*
Y3393701D1*
X6104882D2*
X7013790D1*
X7014775Y3394686D1*
X7347834D1*
X7394094Y3348425D1*
X5393701Y3293701D2*
X6189488D1*
X4093307D2*
X3875000D1*
X3855315Y3313386D1*
Y3436028D1*
X3835630Y3455713D1*
X3626338D1*
X3610586Y3439961D1*
X3118602D1*
X4136681Y3244252D2*
X4989803D1*
X5039252Y3293701D1*
X6189488D2*
X6254728D1*
X6309453Y3348425D1*
X7294094D1*
X3118602Y3439961D2*
X2353854D1*
X2334169Y3420276D1*
Y3159646D1*
X2314484Y3139961D1*
X1431107D1*
X1411422Y3120276D1*
Y2759647D1*
X1391736Y2739961D1*
X1147831D1*
X1128146Y2759646D1*
Y3020276D1*
X1147831Y3039961D1*
X1240354D1*
X1260039Y3059646D1*
Y3427756D1*
X1194094Y3493701D1*
X4093307Y3193701D2*
X4147047Y3139961D1*
X4935831D1*
X4955516Y3120276D1*
Y2839965D1*
X4975201Y2820280D1*
X5199169D1*
X5218854Y2839965D1*
Y3018854D1*
X5393701Y3193701D1*
X3776531Y2939961D2*
X3628783D1*
X3609098Y2959646D1*
Y3239961D1*
X3098917Y3674729D2*
X3397996D1*
X6354724Y3193701D2*
X6634672D1*
X6635657Y3194686D1*
X7340355D1*
X7394094Y3248425D1*
X5393701Y3193701D2*
X6354724D1*
X5393701Y3093701D2*
X6485197D1*
X2050346Y4090123D2*
X1113067D1*
X2162909Y4174725D2*
X2050346D1*
X4093307Y3093701D2*
X4147047Y3039961D1*
X4855039D1*
Y3093701D1*
X2194094Y3993701D2*
X1147835D1*
X1128146Y3974012D1*
Y3213386D1*
X1147831Y3193701D1*
X1194094D1*
X3643862Y2978623D2*
Y3255040D1*
X3624177Y3274725D1*
X3578941D1*
X3559256Y3255040D1*
Y2959646D1*
X3539571Y2939961D1*
X3410161D1*
X3390476Y2959646D1*
Y3074729D1*
X3370791Y3094414D1*
X3153366D1*
X5393701Y2993701D2*
X6743543D1*
X3447051Y1269095D2*
X3118602D1*
X3075492Y1225984D1*
X6693701Y993701D2*
X6546264Y846264D1*
X3459377D1*
X3447051Y833938D1*
X6743543Y2993701D2*
X6844528Y3094686D1*
X7340355D1*
X7394094Y3148425D1*
X2194094Y3893701D2*
X2147835Y3939961D1*
X1167516D1*
X1147831Y3920276D1*
Y3259646D1*
X1167516Y3239961D1*
X1220669D1*
X1240354Y3220276D1*
Y3139960D1*
X1194094Y3093701D1*
X4093307Y2893701D2*
X4139567Y2939961D1*
X4874724D1*
X5393701Y2893701D2*
X6745476D1*
X3070791Y2739961D2*
X3641149D1*
X3992598Y3505197D2*
X3938149Y3559646D1*
X3619890D1*
X3539571Y3639965D1*
X2133071D1*
X3710673Y1303859D2*
X2953366D1*
X2875492Y1225984D1*
X3992598Y3209489D2*
X4038890Y3163197D1*
Y2848118D1*
X4093307Y2793701D1*
X6893701Y1061930D2*
X6761614D1*
X6741929Y1042245D1*
Y755434D1*
X6722244Y735749D1*
X3710673D1*
X2133071Y3639965D2*
X1747831D1*
X1728146Y3620280D1*
Y3479332D1*
X1708460Y3459646D1*
X1299409D1*
X1279724Y3439961D1*
Y3013386D1*
X1260039Y2993701D1*
X1194094D1*
X4093307Y2793701D2*
X4139567Y2839961D1*
X4816830D1*
X4863090Y2793701D1*
X5393701D1*
X2279720Y3539961D2*
Y3459646D1*
X2260035Y3439961D1*
X1319094D1*
X1299409Y3420276D1*
Y2913386D1*
X1279724Y2893701D1*
X1194094D1*
X5148787Y2639961D2*
X4147047D1*
X4093307Y2693701D1*
X5393701D2*
X6689169D1*
X6694559Y2699091D1*
X6881417D1*
X4093307Y2693701D2*
X3960149D1*
X3940464Y2713386D1*
Y2865162D1*
X3920779Y2884847D1*
X3648468D1*
X3609102Y2845481D1*
X3294716D1*
X3165472Y2974725D1*
X2875118D1*
X2494094Y3784252D2*
Y3974015D1*
Y3993701D1*
X2594094Y4093701D1*
X2794094D1*
X3175492Y625984D2*
X3519685D1*
X3594685Y700984D1*
X1494094Y3003150D2*
Y2693701D1*
X1594094Y2593701D1*
X1794094D1*
X4734252Y1250000D2*
X4884252Y1100000D1*
X4893701D1*
X3793307Y2803150D2*
Y2293701D1*
X3893307Y2193701D1*
X4093307D1*
X5093701Y2884252D2*
Y3539961D1*
Y3993701D1*
X4993701Y4093701D1*
X4793701D1*
X7100000Y2100000D2*
Y1950000D1*
X7050000Y1900000D1*
X6950000D1*
X3818307Y3727362D2*
Y3839961D1*
X3792716D1*
X3767126D1*
Y3893701D1*
X4693701Y500000D2*
X4492717Y700984D1*
X3594685D1*
X2494094Y3974015D2*
X2428149Y4039961D1*
X1493701D1*
X7832283Y849606D2*
Y1093704D1*
X7812598Y1113390D1*
X7577756D1*
X7558067Y1093701D1*
X7393701D1*
X4893701Y1400000D2*
X4987402Y1493701D1*
X5293701D1*
X7213071Y3848426D2*
X7266811Y3794686D1*
X7320672D1*
X7340358Y3775000D1*
Y3694686D1*
X5093701Y3539961D2*
X4745134D1*
X4710370Y3505197D1*
X4427764D1*
X7993701Y2893701D2*
X7941930Y2841930D1*
X7745472D1*
X7693701Y2893701D1*
X7768701Y1393701D2*
Y1474016D1*
X7749016Y1493701D1*
X7643701D1*
X3792716Y3839961D2*
X3792717Y3893701D1*
X6089689Y1945867D2*
X6135949Y1899606D1*
X6500394D1*
X1875492Y625984D2*
X1957973Y543504D1*
X3093011D1*
X3175492Y625984D1*
X6993701Y1493701D2*
X7283271D1*
X7300000Y1510429D1*
Y1600000D1*
X1494090Y3393701D2*
X1794094D1*
X7393701Y624606D2*
X7343500Y674808D1*
X7243902D1*
X7193701Y624606D1*
X5950000Y2779646D2*
X5889685Y2839961D1*
X5317594D1*
X5273303Y2884252D1*
X7643701Y1493701D2*
X7484661D1*
Y1452740D1*
X7643701Y1293701D1*
X4427764Y2263229D2*
X4355712D1*
X4427764Y3755040D2*
X4326444D1*
X4241523Y3839961D1*
X3818307D1*
X7340358Y3694686D2*
X7760043D1*
X7779728Y3714371D1*
Y3793701D1*
X7843701D1*
X7693701Y2893701D2*
X7551149D1*
X7459614Y2802166D1*
X7340354D1*
X7294094Y2848425D1*
X7643701Y1293701D2*
X7577756Y1227756D1*
Y1113390D1*
X7300000Y1510429D2*
X7316729Y1493701D1*
X7484661D1*
X593701D2*
Y1495276D1*
X893701D1*
X6500394Y1899606D2*
X6547051Y1946264D1*
X6903736D1*
X6950000Y1900000D1*
X4355712Y2263229D2*
X4336027Y2243544D1*
Y2239961D1*
X4049933D1*
X3818307Y3839961D2*
Y3893701D1*
X4717287Y3639961D2*
X3786811D1*
X3767126Y3659646D1*
Y3727362D1*
X6581417Y2145867D2*
X6434449D1*
X6307874Y2019292D1*
X4998575D1*
X6800394Y1999606D2*
X6579649Y1999607D1*
X6581417Y2280630D2*
X6868839D1*
X6903205Y2246264D1*
X8122244D1*
X8141929Y2265949D1*
Y2822245D1*
X8122244Y2841930D1*
X8056693D1*
X8008464Y2793701D1*
X7993701D1*
X4793701Y2593701D2*
X4593701D1*
Y2793701D2*
X4693701D1*
X4793701Y2693701D1*
X4593701Y3539961D2*
X4047047D1*
X4007677Y3579331D1*
X3761220D1*
X3741535Y3599015D1*
Y3727362D1*
X6846653Y2659721D2*
X7370559D1*
X7519571Y2510709D1*
X7625255D1*
X7656476Y2541930D1*
X7841930D1*
X8093701Y2793701D1*
X4793701Y2693701D2*
X5300882D1*
X5354622Y2639961D1*
X6038960D1*
X6059232Y2619689D1*
X6846653D1*
Y2659721D1*
X4039964Y1196107D2*
X4055043Y1181028D1*
X4188839D1*
X4319819Y1312008D1*
X6858937D1*
X6219964Y1788430D2*
X7100000D1*
X7119685Y1808115D1*
Y1980316D1*
X7139370Y2000000D1*
X7250000D1*
Y1900000D2*
X7203740Y1853740D1*
Y1595753D1*
X7184054Y1576067D1*
X6476067D1*
X6393701Y1493701D1*
X6573976Y1838268D2*
X6996260D1*
X4093701Y995000D2*
X5156263D1*
X5175949Y1014686D1*
Y1114375D1*
X5195634Y1134060D1*
X7238740D1*
X7258425Y1153745D1*
Y1261225D1*
X5437075Y3139961D2*
X6306496D1*
X5437075Y3039961D2*
X6406496D1*
X5950000Y1741808D2*
Y1979917D1*
X5969689Y1999606D1*
X6500394D1*
X7400000Y1600000D2*
X7469882Y1669882D1*
X7880118D1*
X7950000Y1600000D1*
X7993701Y3143701D2*
Y3014371D1*
X7974015Y2994686D1*
X7340355D1*
X7294094Y2948425D1*
X7893701Y3243701D2*
X7542716Y3594686D1*
X7252441D1*
X7232756Y3614371D1*
Y3687087D1*
X7294094Y3748425D1*
X5471838Y2439375D2*
X6398823D1*
X6456496Y2497048D1*
X6492516D1*
X6541732Y2546264D1*
X6996260D1*
X7015945Y2526579D1*
Y2459252D1*
X7035630Y2439567D1*
X7134449D1*
X7154134Y2459252D1*
Y2526579D1*
X7173819Y2546264D1*
X7331914D1*
X7436248Y2441930D1*
X7741930D1*
X7793701Y2493701D1*
X7518366Y3894686D2*
X7167043D1*
X7021768Y4039961D1*
X5263138D1*
X5216878Y3993701D1*
X7059642Y3939961D2*
X5228378D1*
X5182118Y3893701D1*
X7553130Y3844843D2*
Y3909764D1*
X7533445Y3929449D1*
X7320275D1*
X7300590Y3949134D1*
Y4159646D1*
X7280905Y4179331D1*
X4736976D1*
X4717291Y4159646D1*
Y3870110D1*
X4793701Y3793701D1*
X7642342Y3949134D2*
X7339960D1*
X7320275Y3968819D1*
Y4179331D1*
X7300590Y4199016D1*
X4717287D1*
X4697602Y4179331D1*
Y3789799D1*
X4793701Y3693701D1*
X7841929Y3029449D2*
X7642342D1*
X6643862Y3443544D2*
X5197996D1*
X7606102Y2593701D2*
Y2679406D1*
X7586417Y2699091D1*
X7305838D1*
X7076464Y2928465D1*
X6643862D1*
X7828468Y3229449D2*
X7711016D1*
X7445779Y3494686D1*
X5490259D1*
X5444984Y3539961D1*
X5174724D1*
X5128464Y3493701D1*
X5984764Y3343544D2*
X5244566D1*
X5148149Y3439961D1*
X7544649Y2545473D2*
Y2659721D1*
X7524964Y2679406D1*
X7029842D1*
X6864165Y2845083D1*
X5984764D1*
X4300000Y1761343D2*
X5210712D1*
X4271386Y3709489D2*
X4562335D1*
X4874724Y3739961D2*
Y4020276D1*
X4855039Y4039961D1*
X4756661D1*
X4736976Y4059646D1*
Y4139961D1*
X7138303D1*
X7157988Y4120276D1*
Y3994410D1*
X7779728Y3839961D2*
X8041539D1*
X8061224Y3820276D1*
Y3206497D1*
X8041539Y3186812D1*
X7580114D1*
X7472240Y3294686D1*
X7117126D1*
X7062401Y3239961D1*
X5202599D1*
X5167835Y3205197D1*
X4193701Y1400000D2*
X4147437Y1446264D1*
X2895771D1*
X2675492Y1225984D1*
X5175949Y1443268D2*
X5443268D1*
X5493701Y1493701D1*
X4650327Y1044839D2*
X5141185D1*
X3843397Y2061343D2*
X1459645D1*
X1439960Y2081028D1*
Y2593701D1*
X4163862Y2539961D2*
X4363862Y2339961D1*
X4950468D1*
X4966216Y2355709D1*
X5156264D1*
X5175949Y2336024D1*
Y2293701D1*
X5393701D1*
X5437075Y2946260D2*
X6506496D1*
X4919016Y1168823D2*
X7223661D1*
X5947047Y2346264D2*
X7096264D1*
X7250000Y2500000D1*
X5782614Y2346264D2*
X5735177Y2393701D1*
X5393701D1*
X4293701Y2493701D2*
X4347441Y2439961D1*
X5260102D1*
X5360102Y2339961D1*
X5439961D1*
X5459646Y2320276D1*
X5479331Y2339961D1*
X5676693D1*
X5459646Y2320276D2*
Y2259646D1*
X5393701Y2193701D1*
X3493307Y3793701D2*
X2988130D1*
Y3539961D2*
X2334169D1*
X2314484Y3520276D1*
Y3359646D1*
X2294799Y3339961D1*
X1338779D1*
X1319094Y3320276D1*
Y2813386D1*
X1299409Y2793701D1*
X1194094D1*
X3890079Y3490477D2*
X3554649D1*
X4233390Y3574725D2*
X4154649D1*
X2475492Y1225984D2*
X2715456Y1465949D1*
X4227752D1*
X4293701Y1400000D1*
X5593701Y1700670D2*
X4890618D1*
X5593701Y2547445D2*
X5782614D1*
X4293701Y1400000D2*
X4355043Y1461343D1*
X4890618D1*
X4139964Y1535477D2*
X4200865Y1596378D1*
X4546264D1*
X4159571Y4093701D2*
X4113311Y4139961D1*
X1647020D1*
X4546264Y1596378D2*
X5891024D1*
X5993701Y1493701D1*
X5693701D2*
X5625784Y1425784D1*
X5561614D1*
X5541929Y1445469D1*
Y1522245D1*
X5522244Y1541930D1*
X4434918D1*
X4393701Y1500713D1*
X2240354D1*
X5295315Y1954060D2*
X5272661Y1931406D1*
X1951472D1*
X1868295Y1848229D1*
X1359645D1*
X1339960Y1867914D1*
Y2547835D1*
X1194094Y2693701D1*
X4493701Y1400000D2*
X4539960Y1353741D1*
X5376693D1*
X5653741D1*
X5793701Y1493701D1*
D48*
X678705Y2194489D3*
X3703819Y3705197D3*
X6796811Y2654453D3*
X6341307D3*
Y2311500D3*
X6206496D3*
X4593701Y2061343D3*
X4100000D3*
X5347437Y2251697D3*
X7678539Y3837075D3*
X3188130Y3239961D3*
Y3393701D3*
X7100000Y2404804D3*
X6206496Y2565630D3*
X6800394Y2446264D3*
X3624177Y3644252D3*
Y3874725D3*
X3554649D3*
X5128464Y3843859D3*
X5350327D3*
X4427764D3*
X2583835Y2203229D3*
X2375492Y2193701D3*
X4038661Y1746264D3*
X2973051Y2886918D3*
X3032382Y1746264D3*
X2075492Y1885319D3*
X3927756D3*
X2722890Y1535477D3*
X1975492D3*
X3675909Y2374020D3*
X2040728Y2439961D3*
X3675909Y1161343D3*
X3658941Y3594410D3*
Y3974725D3*
X3363232Y3593701D3*
X4154649Y3674725D3*
X4621161Y4039961D3*
X2618598Y3097599D3*
X3924842Y3339961D3*
X5004008D3*
X2556102Y3393697D3*
X2723527Y897662D3*
X2718602Y3039965D3*
X2418602Y1748485D3*
X2840354D3*
Y2837075D3*
X2325335Y2960997D3*
X2750720Y3339961D3*
X3355712Y3059650D3*
X5817964Y1797914D3*
X3539571Y1781028D3*
X2673047Y1579528D3*
X2118602D3*
X2175492Y2493701D3*
X6021181Y2474138D3*
X5782614Y2276737D3*
X2275492Y2371378D3*
X7953000Y4015434D3*
X1980819Y4193701D3*
X1986279Y1850556D3*
X7188897Y2154134D3*
X1875118Y1953741D3*
Y2739961D3*
X1750720D3*
X5437075D3*
X6104882Y3393701D3*
X4986468D3*
X4136681Y3439961D3*
X2918602Y3474725D3*
X6189488Y3293701D3*
X5039252D3*
X4136681Y3244252D3*
X3118602Y3439961D3*
X6354724Y3193701D3*
X3609098Y3239961D3*
X3397996Y3674729D3*
X3098917D3*
X3776531Y2939961D3*
X6485197Y3093701D3*
X1113067Y4090123D3*
X2050346D3*
Y4174725D3*
X2162909D3*
X4855039Y3093701D3*
X3153366Y3094414D3*
X3643862Y2978623D3*
X3447051Y1269095D3*
X6743543Y2993701D3*
X3447051Y833938D3*
X4874724Y2939961D3*
X3641149Y2739961D3*
X3070791D3*
X6745476Y2893701D3*
X2133071Y3639965D3*
X3710673Y735749D3*
X6893701Y1061930D3*
X3992598Y3505197D3*
Y3209489D3*
X3710673Y1303859D3*
X6881417Y2699091D3*
X5148787Y2639961D3*
X2279720Y3539961D3*
X2875118Y2974725D3*
X4427764Y3505197D3*
X7340358Y3694686D3*
X5273303Y2884252D3*
X5950000Y2779646D3*
X7213071Y3848426D3*
X6089689Y1945867D3*
X4355712Y2263229D3*
X4049933Y2239961D3*
X4427764Y2263229D3*
Y3755040D3*
X1493701Y4039961D3*
X1494090Y3393701D3*
X4717287Y3639961D3*
X4998575Y2019292D3*
X6581417Y2145867D3*
Y2280630D3*
X6579649Y1999607D3*
X4593701Y3539961D3*
X6846653Y2659721D3*
X6858937Y1312008D3*
X4039964Y1196107D3*
X6219964Y1788430D3*
X6996260Y1838268D3*
X6573976D3*
X7258425Y1261225D3*
X4093701Y995000D3*
X6306496Y3139961D3*
X5437075D3*
X6406496Y3039961D3*
X5437075D3*
X5471838Y2439375D3*
X5216878Y3993701D3*
X7518366Y3894686D3*
X5182118Y3893701D3*
X7059642Y3939961D3*
X7553130Y3844843D3*
X7642342Y3949134D3*
Y3029449D3*
X7841929D3*
X5197996Y3443544D3*
X6643862D3*
Y2928465D3*
X7606102Y2593701D3*
X5128464Y3493701D3*
X7828468Y3229449D3*
X5148149Y3439961D3*
X5984764Y3343544D3*
Y2845083D3*
X7544649Y2545473D3*
X5210712Y1761343D3*
X4300000D3*
X4562335Y3709489D3*
X4271386D3*
X7157988Y3994410D3*
X4874724Y3739961D3*
X5167835Y3205197D3*
X7779728Y3839961D3*
X5175949Y1443268D3*
X5141185Y1044839D3*
X4650327D3*
X1439960Y2593701D3*
X3843397Y2061343D3*
X5175949Y2293701D3*
X4163862Y2539961D3*
X6506496Y2946260D3*
X5437075D3*
X7223661Y1168823D3*
X4919016D3*
X5947047Y2346264D3*
X5782614D3*
X5676693Y2339961D3*
X2988130Y3793701D3*
Y3539961D3*
X3554649Y3490477D3*
X3890079D3*
X4154649Y3574725D3*
X4233390D3*
X4890618Y1461343D3*
Y1700670D3*
X5593701D3*
X5782614Y2547445D3*
X5593701D3*
X4546264Y1596378D3*
X1647020Y4139961D3*
X4159571Y4093701D3*
X4139964Y1535477D3*
X2240354Y1500713D3*
X4393701D3*
X5295315Y1954060D3*
X5376693Y1353741D3*
D16*
X7950000Y1600000D3*
D17*
Y1900000D3*
D18*
X1193701Y1894488D3*
D19*
X1293701D3*
X1393701D3*
X1493701D3*
X1593701D3*
X1693701D3*
X1793701D3*
Y2194488D3*
X1693701D3*
X1593701D3*
X1493701D3*
X1393701D3*
X1293701D3*
X1193701D3*
D18*
X2794094Y2593701D3*
D19*
Y2693701D3*
Y2793701D3*
Y2893701D3*
Y2993701D3*
Y3093701D3*
Y3193701D3*
Y3293701D3*
Y3393701D3*
Y3493701D3*
Y3593701D3*
Y3693701D3*
Y3793701D3*
Y3893701D3*
Y3993701D3*
Y4093701D3*
X2194094D3*
Y3993701D3*
Y3893701D3*
Y3793701D3*
Y3693701D3*
Y3593701D3*
Y3493701D3*
Y3393701D3*
Y3293701D3*
Y3193701D3*
Y3093701D3*
Y2993701D3*
Y2893701D3*
Y2793701D3*
Y2693701D3*
Y2593701D3*
D16*
X4593701D3*
D17*
X4293701D3*
D18*
X4793701Y4093701D3*
D19*
Y3993701D3*
Y3893701D3*
Y3793701D3*
Y3693701D3*
Y3593701D3*
Y3493701D3*
Y3393701D3*
Y3293701D3*
Y3193701D3*
Y3093701D3*
Y2993701D3*
Y2893701D3*
Y2793701D3*
Y2693701D3*
Y2593701D3*
Y2493701D3*
Y2393701D3*
Y2293701D3*
Y2193701D3*
X5393701D3*
Y2293701D3*
Y2393701D3*
Y2493701D3*
Y2593701D3*
Y2693701D3*
Y2793701D3*
Y2893701D3*
Y2993701D3*
Y3093701D3*
Y3193701D3*
Y3293701D3*
Y3393701D3*
Y3493701D3*
Y3593701D3*
Y3693701D3*
Y3793701D3*
Y3893701D3*
Y3993701D3*
Y4093701D3*
D20*
X6293701Y993701D3*
D21*
X6393701D3*
X6493701D3*
X6593701D3*
X6693701D3*
X6793701D3*
X6893701D3*
X6993701D3*
D20*
X6293701Y1493701D3*
D21*
X6393701D3*
X6493701D3*
D22*
X7655118Y593701D3*
Y849606D3*
X7832283Y593701D3*
Y849606D3*
D20*
X6993701Y1393701D3*
D21*
X6893701D3*
X6993701Y1493701D3*
X6893701D3*
D23*
X7293701Y1093701D3*
D24*
X7343701Y1143701D3*
X7393701Y1093701D3*
D22*
X7100000Y2100000D3*
Y2493701D3*
D20*
X7693701Y2893701D3*
D21*
X7793701D3*
X7693701Y2793701D3*
X7793701D3*
X7693701Y2693701D3*
X7793701D3*
X7693701Y2593701D3*
X7793701D3*
X7693701Y2493701D3*
X7793701D3*
X7693701Y2393701D3*
X7793701D3*
D20*
X6106496Y2796850D3*
D25*
X6206496D3*
X6306496D3*
X6406496D3*
X6506496D3*
X6606496D3*
D26*
X543701Y4143701D3*
Y2017717D3*
X7472835Y4143701D3*
Y2017717D3*
D18*
X7394094Y3848425D3*
D27*
X7294094D3*
X7394094Y3748425D3*
X7294094D3*
X7394094Y3648425D3*
X7294094D3*
X7394094Y3548425D3*
X7294094D3*
X7394094Y3448425D3*
X7294094D3*
X7394094Y3348425D3*
X7294094D3*
X7394094Y3248425D3*
X7294094D3*
X7394094Y3148425D3*
X7294094D3*
X7394094Y3048425D3*
X7294094D3*
X7394094Y2948425D3*
X7294094D3*
X7394094Y2848425D3*
X7294094D3*
D20*
X5293701Y1493701D3*
D21*
X5393701D3*
X5493701D3*
X5593701D3*
X5693701D3*
X5793701D3*
X5893701D3*
X5993701D3*
D18*
X7750000Y2000000D3*
D27*
X7850000D3*
D28*
X7950000D3*
D18*
X8050000D3*
D27*
Y2100000D3*
X7950000D3*
X7850000D3*
X7750000D3*
D18*
X3493307Y4093701D3*
D19*
Y3993701D3*
Y3893701D3*
Y3793701D3*
Y3693701D3*
Y3593701D3*
Y3493701D3*
Y3393701D3*
Y3293701D3*
Y3193701D3*
Y3093701D3*
Y2993701D3*
Y2893701D3*
Y2793701D3*
Y2693701D3*
Y2593701D3*
Y2493701D3*
Y2393701D3*
Y2293701D3*
Y2193701D3*
X4093307D3*
Y2293701D3*
Y2393701D3*
Y2493701D3*
Y2593701D3*
Y2693701D3*
Y2793701D3*
Y2893701D3*
Y2993701D3*
Y3093701D3*
Y3193701D3*
Y3293701D3*
Y3393701D3*
Y3493701D3*
Y3593701D3*
Y3693701D3*
Y3793701D3*
Y3893701D3*
Y3993701D3*
Y4093701D3*
D16*
X2993701Y2593701D3*
D17*
X3293701D3*
D16*
X7850000Y1900000D3*
D17*
Y1600000D3*
D29*
X2494094Y3193701D3*
Y3784252D3*
X4143701Y1250000D3*
X4734252D3*
D18*
X4100000Y1700000D3*
D19*
X4200000D3*
X4300000D3*
X4400000D3*
X4500000D3*
X4600000D3*
X4700000D3*
Y2000000D3*
X4600000D3*
X4500000D3*
X4400000D3*
X4300000D3*
X4200000D3*
X4100000D3*
D16*
X7193701Y871654D3*
D17*
X7493701D3*
D16*
X7683465Y4193701D3*
D17*
Y4093701D3*
D30*
X1875492Y625984D3*
D31*
X1975492D3*
X2075492D3*
X2175492D3*
X2275492D3*
X2375492D3*
X2475492D3*
X2575492D3*
X2675492D3*
X2775492D3*
X2875492D3*
X2975492D3*
X3075492D3*
X3175492D3*
Y1225984D3*
X3075492D3*
X2975492D3*
X2875492D3*
X2775492D3*
X2675492D3*
X2575492D3*
X2475492D3*
X2375492D3*
X2275492D3*
X2175492D3*
X2075492D3*
X1975492D3*
X1875492D3*
D18*
X4093701Y500000D3*
D19*
X4193701D3*
X4293701D3*
X4393701D3*
X4493701D3*
X4593701D3*
X4693701D3*
Y800000D3*
X4593701D3*
X4493701D3*
X4393701D3*
X4293701D3*
X4193701D3*
X4093701D3*
D18*
X7843701Y3711024D3*
D27*
Y3608661D3*
Y3793701D3*
Y3525984D3*
X7733465Y3793701D3*
Y3525984D3*
D32*
X7955906Y3390157D3*
D33*
X7987402Y3659843D3*
D32*
X7955906Y3929528D3*
D16*
X7783465Y4193701D3*
D17*
Y4093701D3*
D16*
X4593701Y2793701D3*
D17*
X4293701D3*
D26*
X543701Y543701D3*
D29*
X1494094Y3593701D3*
Y3003150D3*
D20*
X1493701Y4193701D3*
D21*
X1593701D3*
X1693701D3*
X1793701D3*
D20*
X5293701Y993701D3*
D21*
X5393701D3*
X5493701D3*
X5593701D3*
X5693701D3*
X5793701D3*
X5893701D3*
X5993701D3*
D34*
X620472Y872441D3*
X793701D3*
X620472Y951181D3*
Y793701D3*
X793701Y951181D3*
Y793701D3*
D35*
X893701Y3745669D3*
D36*
Y3993701D3*
D37*
X704724Y3859843D3*
D38*
X593701Y1593701D3*
D39*
Y1493701D3*
Y1393701D3*
D27*
X7643701Y1195276D3*
Y1293701D3*
D40*
X7300000Y1600000D3*
D41*
X7400000D3*
D16*
X7493701Y760236D3*
D17*
X7193701D3*
D114*
X3741535Y3727362D3*
X3767126D3*
X3792717D3*
X3818307D3*
Y3893701D3*
X3792717D3*
X3767126D3*
X3741535D3*
D16*
X4593701Y2293701D3*
D17*
X4293701D3*
D16*
X4593701Y2493701D3*
D17*
X4293701D3*
D42*
X5950000Y1741808D3*
D43*
Y2509525D3*
D18*
X6500394Y2199606D3*
D19*
Y2099606D3*
Y1999606D3*
Y1899606D3*
X6800394D3*
Y1999606D3*
Y2099606D3*
Y2199606D3*
D44*
X7768701Y1393701D3*
Y1303150D3*
D45*
X8016732D3*
D44*
X7768701Y1212598D3*
D27*
X893701Y1593701D3*
Y1495276D3*
D18*
X3993701Y1100000D3*
D19*
X4093701D3*
X4193701D3*
X4293701D3*
X4393701D3*
X4493701D3*
X4593701D3*
X4693701D3*
X4793701D3*
X4893701D3*
Y1400000D3*
X4793701D3*
X4693701D3*
X4593701D3*
X4493701D3*
X4393701D3*
X4293701D3*
X4193701D3*
X4093701D3*
X3993701D3*
D22*
X3594685Y700984D3*
Y1094685D3*
D18*
X6950000Y2600000D3*
D19*
Y2500000D3*
Y2400000D3*
Y2300000D3*
Y2200000D3*
Y2100000D3*
Y2000000D3*
Y1900000D3*
X7250000D3*
Y2000000D3*
Y2100000D3*
Y2200000D3*
Y2300000D3*
Y2400000D3*
Y2500000D3*
Y2600000D3*
D40*
X7393701Y624606D3*
D41*
X7493701D3*
D26*
X8043701Y543701D3*
D40*
X7193701Y624606D3*
D41*
X7293701D3*
D46*
X7793701Y3143701D3*
X7893701Y3243701D3*
X7993701Y3143701D3*
D16*
X7750000Y1600000D3*
D17*
Y1900000D3*
D47*
X6482677Y2462598D3*
Y2537402D3*
D18*
X1794094Y2593701D3*
D19*
Y2693701D3*
Y2793701D3*
Y2893701D3*
Y2993701D3*
Y3093701D3*
Y3193701D3*
Y3293701D3*
Y3393701D3*
Y3493701D3*
Y3593701D3*
Y3693701D3*
Y3793701D3*
Y3893701D3*
X1194094D3*
Y3793701D3*
Y3693701D3*
Y3593701D3*
Y3493701D3*
Y3393701D3*
Y3293701D3*
Y3193701D3*
Y3093701D3*
Y2993701D3*
Y2893701D3*
Y2793701D3*
Y2693701D3*
Y2593701D3*
D26*
X8043701Y4143701D3*
D20*
X7993701Y2893701D3*
D21*
X8093701D3*
X7993701Y2793701D3*
X8093701D3*
D29*
X5093701Y2293701D3*
Y2884252D3*
D16*
X4593701Y2693701D3*
D17*
X4293701D3*
D16*
X2993701Y2393701D3*
D17*
X3293701D3*
D29*
X3793307Y3393701D3*
Y2803150D3*
D27*
X7643701Y1395276D3*
Y1493701D3*
M02*
