%TF.GenerationSoftware,Novarm,DipTrace,4.3.0.4*%
%TF.CreationDate,2023-05-10T15:20:13+01:00*%
%FSLAX26Y26*%
%MOIN*%
%TF.FileFunction,Drawing,Top*%
%TF.Part,Single*%
%ADD15C,0.003937*%
G75*
G01*
%LPD*%
X1141339Y1844488D2*
D15*
X1846063D1*
Y2244488D1*
X1183071Y1919488D2*
X1143701Y1958858D1*
X1843701Y1919488D2*
X1183071D1*
X1143701Y1958858D2*
Y2169488D1*
X1843701D1*
Y1919488D1*
X1141339Y2244488D2*
Y1844488D1*
X1846063Y2244488D2*
X1141339D1*
X2844094Y2541339D2*
Y4146063D1*
X2144094D1*
X2784055Y2583071D2*
X2744685Y2543701D1*
X2784055Y4143701D2*
Y2583071D1*
X2744685Y2543701D2*
X2204134D1*
Y4143701D1*
X2784055D1*
X2144094Y2541339D2*
X2844094D1*
X2144094Y4146063D2*
Y2541339D1*
X4593701Y2593701D2*
X4514567D1*
Y2562205D2*
Y2625197D1*
X4372835D1*
Y2562205D2*
X4514567D1*
X4372835Y2625197D2*
Y2562205D1*
X4293701Y2593701D2*
X4372835D1*
X4743701Y4146063D2*
Y2141339D1*
X5443701D1*
X4803740Y4104331D2*
X4843110Y4143701D1*
X4803740Y2143701D2*
Y4104331D1*
X4843110Y4143701D2*
X5383661D1*
Y2143701D1*
X4803740D1*
X5443701Y4146063D2*
X4743701D1*
X5443701Y2141339D2*
Y4146063D1*
X6268701Y943701D2*
X6243701Y968701D1*
X7043701Y943701D2*
X6268701D1*
X6243701Y968701D2*
Y1043701D1*
X7043701D1*
Y943701D1*
X6268701Y1443701D2*
X6243701Y1468701D1*
X6543701Y1443701D2*
X6268701D1*
X6243701Y1468701D2*
Y1543701D1*
X6543701D1*
Y1443701D1*
X7625591Y603543D2*
Y721654D1*
X7861811Y603543D2*
X7625591D1*
Y721654D2*
Y839764D1*
X7861811D1*
Y603543D1*
X7664348Y721654D2*
G02X7664348Y721654I79353J0D01*
G01*
X7043701Y1393701D2*
X6993701Y1343701D1*
X7043701Y1543701D2*
Y1393701D1*
X6993701Y1343701D2*
X6843701D1*
Y1543701D1*
X7043701D1*
X7274016Y1024803D2*
X7411811D1*
X7343701Y1191339D2*
G02X7343701Y1191339I0J0D01*
G01*
X7412741Y1024660D2*
G02X7412741Y1024660I0J0D01*
G01*
X6184646Y1934646D2*
X6302756D1*
Y2446457D1*
X6184646D2*
Y1934646D1*
X6302756Y2446457D2*
X6184646D1*
X7643701Y2893701D2*
X7693701Y2943701D1*
X7643701Y2343701D2*
Y2893701D1*
X7693701Y2943701D2*
X7843701D1*
Y2343701D1*
X7643701D1*
X5668701Y2693701D2*
Y4307874D1*
X6613583Y2693701D2*
X5668701D1*
X6141142Y4071654D2*
X6377362Y4307874D1*
X5668701D2*
X6613583D1*
X5904921D2*
X6141142Y4071654D1*
X6613583Y4307874D2*
Y2693701D1*
X464961Y4360236D2*
Y1801181D1*
X7551575D1*
Y4360236D1*
X464961D1*
X5268701Y1443701D2*
X5243701Y1468701D1*
X6043701Y1443701D2*
X5268701D1*
X5243701Y1468701D2*
Y1543701D1*
X6043701D1*
Y1443701D1*
X7743701Y1843701D2*
Y1764567D1*
X7775197D2*
X7712205D1*
Y1622835D1*
X7775197D2*
Y1764567D1*
X7712205Y1622835D2*
X7775197D1*
X7743701Y1543701D2*
Y1622835D1*
X3443307Y4146063D2*
Y2141339D1*
X4143307D1*
X3503346Y4104331D2*
X3542717Y4143701D1*
X3503346Y2143701D2*
Y4104331D1*
X3542717Y4143701D2*
X4083268D1*
Y2143701D1*
X3503346D1*
X4143307Y4146063D2*
X3443307D1*
X4143307Y2141339D2*
Y4146063D1*
X2993701Y2593701D2*
X3072835D1*
Y2625197D2*
Y2562205D1*
X3214567D1*
Y2625197D2*
X3072835D1*
X3214567Y2562205D2*
Y2625197D1*
X3293701Y2593701D2*
X3214567D1*
X2395669Y3134646D2*
X2592520D1*
Y3843307D1*
X2395669D2*
Y3134646D1*
X2592520Y3843307D2*
X2395669D1*
X4084646Y1442126D2*
Y1245276D1*
X4793307D1*
Y1442126D2*
X4084646D1*
X4793307Y1245276D2*
Y1442126D1*
X8043701Y1543701D2*
Y1622835D1*
X8012205D2*
X8075197D1*
Y1764567D1*
X8012205D2*
Y1622835D1*
X8075197Y1764567D2*
X8012205D1*
X8043701Y1843701D2*
Y1764567D1*
X6843701Y2546063D2*
Y1841339D1*
X7243701D1*
X6918701Y2504331D2*
X6958071Y2543701D1*
X6918701Y1843701D2*
Y2504331D1*
X6958071Y2543701D2*
X7168701D1*
Y1843701D1*
X6918701D1*
X7243701Y2546063D2*
X6843701D1*
X7243701Y1841339D2*
Y2546063D1*
X7193701Y871654D2*
X7272835D1*
Y903150D2*
Y840157D1*
X7414567D1*
Y903150D2*
X7272835D1*
X7414567Y840157D2*
Y903150D1*
X7493701Y871654D2*
X7414567D1*
X7683465Y4193701D2*
Y4093701D1*
X7651969Y4193701D2*
G02X7651969Y4193701I31496J0D01*
G01*
X1030610Y429134D2*
X1172343D1*
X1030610D2*
X975492Y480315D1*
X1172343Y429134D2*
X1251083Y488189D1*
X1172343Y429134D2*
Y610236D1*
X1505413Y475197D2*
X1459744Y513780D1*
X3443996Y475197D2*
X1505413D1*
X975492Y480315D2*
Y559055D1*
X1251083Y488189D2*
Y551181D1*
X1491634Y488189D2*
X1251083D1*
X1459744Y513780D2*
Y1376772D1*
X1251083Y551181D2*
X1459744D1*
X975492Y559055D2*
X1030610Y610236D1*
Y429134D1*
X1172343Y610236D2*
X1251083Y551181D1*
X1172343Y610236D2*
X1030610D1*
X1459744Y1376772D2*
X3443996D1*
Y475197D1*
X4041339Y543701D2*
X4746063D1*
Y943701D1*
X4083071Y618701D2*
X4043701Y658071D1*
X4743701Y618701D2*
X4083071D1*
X4043701Y658071D2*
Y868701D1*
X4743701D1*
Y618701D1*
X4041339Y943701D2*
Y543701D1*
X4746063Y943701D2*
X4041339D1*
X7674409Y3344882D2*
Y3974803D1*
X8178346Y3344882D2*
X7674409D1*
Y3974803D2*
X8178346D1*
Y3344882D1*
X7783465Y4193701D2*
Y4093701D1*
X7751969Y4193701D2*
G02X7751969Y4193701I31496J0D01*
G01*
X4593701Y2793701D2*
X4514567D1*
Y2762205D2*
Y2825197D1*
X4372835D1*
Y2762205D2*
X4514567D1*
X4372835Y2825197D2*
Y2762205D1*
X4293701Y2793701D2*
X4372835D1*
X7943701Y1843701D2*
Y1764567D1*
X7975197D2*
X7912205D1*
Y1622835D1*
X7975197D2*
Y1764567D1*
X7912205Y1622835D2*
X7975197D1*
X7943701Y1543701D2*
Y1622835D1*
X7284646Y1539614D2*
Y1447787D1*
X7284623Y1447816D1*
X7284646Y1493701D2*
G02X7284646Y1493701I59055J0D01*
G01*
X1592520Y3652756D2*
X1395669D1*
Y2944094D1*
X1592520D2*
Y3652756D1*
X1395669Y2944094D2*
X1592520D1*
X1468701Y4143701D2*
X1443701Y4168701D1*
X1843701Y4143701D2*
X1468701D1*
X1443701Y4168701D2*
Y4243701D1*
X1843701D1*
Y4143701D1*
X5268701Y943701D2*
X5243701Y968701D1*
X6043701Y943701D2*
X5268701D1*
X5243701Y968701D2*
Y1043701D1*
X6043701D1*
Y943701D1*
X592913Y984646D2*
Y756299D1*
X821260D1*
Y984646D1*
X592913D1*
X1070866Y3761417D2*
X1031496Y3722047D1*
X1070866Y4285039D2*
Y3761417D1*
X716535Y3722047D2*
X1031496D1*
X716535D2*
Y4285039D1*
X1070866D1*
X717717Y1690551D2*
X544488D1*
X667717D2*
Y1296850D1*
X544488Y1690551D2*
Y1296850D1*
X717717Y1566535D2*
X667717D1*
X717717Y1420866D2*
X667717D1*
X717717Y1296850D2*
Y1690551D1*
X544488Y1296850D2*
X717717D1*
X7604331Y1185433D2*
X7683071D1*
Y1303543D1*
X7604331D2*
Y1185433D1*
X7683071Y1303543D2*
X7604331D1*
X7493701Y760236D2*
X7414567D1*
Y728740D2*
Y791732D1*
X7272835D1*
Y728740D2*
X7414567D1*
X7272835Y791732D2*
Y728740D1*
X7193701Y760236D2*
X7272835D1*
X3750394Y3751476D2*
X3720866Y3781004D1*
X3838976Y3751476D2*
X3750394D1*
X3720866Y3781004D2*
Y3869587D1*
X3838976D1*
Y3751476D1*
X4593701Y2293701D2*
X4514567D1*
Y2262205D2*
Y2325197D1*
X4372835D1*
Y2262205D2*
X4514567D1*
X4372835Y2325197D2*
Y2262205D1*
X4293701Y2293701D2*
X4372835D1*
X4593701Y2493701D2*
X4514567D1*
Y2462205D2*
Y2525197D1*
X4372835D1*
Y2462205D2*
X4514567D1*
X4372835Y2525197D2*
Y2462205D1*
X4293701Y2493701D2*
X4372835D1*
X6769094Y3653937D2*
X6808465Y3693307D1*
X6769094Y3293307D2*
Y3653937D1*
X6808465Y3693307D2*
X7019094D1*
Y3293307D1*
X6769094D1*
X7819882Y1395669D2*
Y1171260D1*
Y1395669D2*
X7859252Y1435039D1*
X7819882Y1171260D2*
X7965551D1*
X7859252Y1435039D2*
X7965551D1*
Y1171260D1*
X933071Y1603543D2*
X854331D1*
Y1485433D1*
X933071D2*
Y1603543D1*
X854331Y1485433D2*
X933071D1*
X7843701Y1843701D2*
Y1764567D1*
X7875197D2*
X7812205D1*
Y1622835D1*
X7875197D2*
Y1764567D1*
X7812205Y1622835D2*
X7875197D1*
X7843701Y1543701D2*
Y1622835D1*
X3941339Y1143701D2*
X4946063D1*
Y1543701D1*
X3983071Y1218701D2*
X3943701Y1258071D1*
X4943701Y1218701D2*
X3983071D1*
X3943701Y1258071D2*
Y1468701D1*
X4943701D1*
Y1218701D1*
X3941339Y1543701D2*
Y1143701D1*
X4946063Y1543701D2*
X3941339D1*
X3535630Y641929D2*
X3653740D1*
Y1153740D1*
X3535630D2*
Y641929D1*
X3653740Y1153740D2*
X3535630D1*
X6043701Y2546063D2*
Y1741339D1*
X6443701D1*
X6118701Y2504331D2*
X6158071Y2543701D1*
X6118701Y1743701D2*
Y2504331D1*
X6158071Y2543701D2*
X6368701D1*
Y1743701D1*
X6118701D1*
X6443701Y2546063D2*
X6043701D1*
X6443701Y1741339D2*
Y2546063D1*
X7384646Y670520D2*
Y578693D1*
X7384623Y578722D1*
X7384646Y624606D2*
G02X7384646Y624606I59055J0D01*
G01*
X7184646Y670520D2*
Y578693D1*
X7184623Y578722D1*
X7184646Y624606D2*
G02X7184646Y624606I59055J0D01*
G01*
X8081299Y3098819D2*
Y3288976D1*
X7706102D1*
X7756102Y3281693D2*
X7756063Y3196299D1*
X7756102Y3281693D2*
X7756063Y3196299D1*
X7706102Y3098819D2*
X8081299D1*
X7706102Y3288976D2*
Y3098819D1*
X7712992Y3238976D2*
G02X7712992Y3238976I43110J0D01*
G01*
X7608268Y2151575D2*
Y1167323D1*
X8179134D1*
Y2151575D1*
X7608268D1*
X6805118Y3853150D2*
X7061024D1*
Y3934252D1*
X6765748Y3856299D2*
X6726378D1*
X6805118Y3879921D2*
X6765748Y3856299D1*
X6805118Y3907480D2*
X6765748Y3931102D1*
X6726378D1*
X6805118Y3934252D2*
Y3853150D1*
X7061024Y3934252D2*
X6805118D1*
X1844094Y2541339D2*
Y3946063D1*
X1144094D1*
X1784055Y2583071D2*
X1744685Y2543701D1*
X1784055Y3943701D2*
Y2583071D1*
X1744685Y2543701D2*
X1204134D1*
Y3943701D1*
X1784055D1*
X1144094Y2541339D2*
X1844094D1*
X1144094Y3946063D2*
Y2541339D1*
X7943701Y2893701D2*
X7993701Y2943701D1*
X7943701Y2743701D2*
Y2893701D1*
X7993701Y2943701D2*
X8143701D1*
Y2743701D1*
X7943701D1*
X4995276Y2234646D2*
X5192126D1*
Y2943307D1*
X4995276D2*
Y2234646D1*
X5192126Y2943307D2*
X4995276D1*
X4593701Y2693701D2*
X4514567D1*
Y2662205D2*
Y2725197D1*
X4372835D1*
Y2662205D2*
X4514567D1*
X4372835Y2725197D2*
Y2662205D1*
X4293701Y2693701D2*
X4372835D1*
X2993701Y2393701D2*
X3072835D1*
Y2425197D2*
Y2362205D1*
X3214567D1*
Y2425197D2*
X3072835D1*
X3214567Y2362205D2*
Y2425197D1*
X3293701Y2393701D2*
X3214567D1*
X3891732Y3452756D2*
X3694882D1*
Y2744094D1*
X3891732D2*
Y3452756D1*
X3694882Y2744094D2*
X3891732D1*
X7604331Y1385433D2*
X7683071D1*
Y1503543D1*
X7604331D2*
Y1385433D1*
X7683071Y1503543D2*
X7604331D1*
M02*
