%TF.GenerationSoftware,Novarm,DipTrace,4.3.0.4*%
%TF.CreationDate,2023-05-08T16:01:40+01:00*%
%FSLAX26Y26*%
%MOIN*%
%TF.FileFunction,Drawing,Top*%
%TF.Part,Single*%
%ADD15C,0.003937*%
G75*
G01*
%LPD*%
X850394Y2044488D2*
D15*
X1555118D1*
Y2444488D1*
X892126Y2119488D2*
X852756Y2158858D1*
X1552756Y2119488D2*
X892126D1*
X852756Y2158858D2*
Y2369488D1*
X1552756D1*
Y2119488D1*
X850394Y2444488D2*
Y2044488D1*
X1555118Y2444488D2*
X850394D1*
X2853150Y2541339D2*
Y4146063D1*
X2153150D1*
X2793110Y2583071D2*
X2753740Y2543701D1*
X2793110Y4143701D2*
Y2583071D1*
X2753740Y2543701D2*
X2213189D1*
Y4143701D1*
X2793110D1*
X2153150Y2541339D2*
X2853150D1*
X2153150Y4146063D2*
Y2541339D1*
X4602756Y2593701D2*
X4523622D1*
Y2562205D2*
Y2625197D1*
X4381890D1*
Y2562205D2*
X4523622D1*
X4381890Y2625197D2*
Y2562205D1*
X4302756Y2593701D2*
X4381890D1*
X4752756Y4146063D2*
Y2141339D1*
X5452756D1*
X4812795Y4104331D2*
X4852165Y4143701D1*
X4812795Y2143701D2*
Y4104331D1*
X4852165Y4143701D2*
X5392717D1*
Y2143701D1*
X4812795D1*
X5452756Y4146063D2*
X4752756D1*
X5452756Y2141339D2*
Y4146063D1*
X6277756Y943701D2*
X6252756Y968701D1*
X7052756Y943701D2*
X6277756D1*
X6252756Y968701D2*
Y1043701D1*
X7052756D1*
Y943701D1*
X7634646Y603543D2*
Y721654D1*
X7870866Y603543D2*
X7634646D1*
Y721654D2*
Y839764D1*
X7870866D1*
Y603543D1*
X7673403Y721654D2*
G02X7673403Y721654I79353J0D01*
G01*
X7052756Y1393701D2*
X7002756Y1343701D1*
X7052756Y1543701D2*
Y1393701D1*
X7002756Y1343701D2*
X6852756D1*
Y1543701D1*
X7052756D1*
X7283071Y1024803D2*
X7420866D1*
X7352756Y1191339D2*
G02X7352756Y1191339I0J0D01*
G01*
X7421797Y1024660D2*
G02X7421797Y1024660I0J0D01*
G01*
X6461811Y2084646D2*
Y2202756D1*
X5950000D1*
Y2084646D2*
X6461811D1*
X5950000Y2202756D2*
Y2084646D1*
X7652756Y2893701D2*
X7702756Y2943701D1*
X7652756Y2343701D2*
Y2893701D1*
X7702756Y2943701D2*
X7852756D1*
Y2343701D1*
X7652756D1*
X5677756Y2693701D2*
Y4307874D1*
X6622638Y2693701D2*
X5677756D1*
X6150197Y4071654D2*
X6386417Y4307874D1*
X5677756D2*
X6622638D1*
X5913976D2*
X6150197Y4071654D1*
X6622638Y4307874D2*
Y2693701D1*
X474016Y4360236D2*
Y1801181D1*
X7560630D1*
Y4360236D1*
X474016D1*
X5277756Y1443701D2*
X5252756Y1468701D1*
X6052756Y1443701D2*
X5277756D1*
X5252756Y1468701D2*
Y1543701D1*
X6052756D1*
Y1443701D1*
X7752756Y1843701D2*
Y1764567D1*
X7784252D2*
X7721260D1*
Y1622835D1*
X7784252D2*
Y1764567D1*
X7721260Y1622835D2*
X7784252D1*
X7752756Y1543701D2*
Y1622835D1*
X4652756Y1246063D2*
Y541339D1*
X5052756D1*
X4727756Y1204331D2*
X4767126Y1243701D1*
X4727756Y543701D2*
Y1204331D1*
X4767126Y1243701D2*
X4977756D1*
Y543701D1*
X4727756D1*
X5052756Y1246063D2*
X4652756D1*
X5052756Y541339D2*
Y1246063D1*
X3452362Y4146063D2*
Y2141339D1*
X4152362D1*
X3512402Y4104331D2*
X3551772Y4143701D1*
X3512402Y2143701D2*
Y4104331D1*
X3551772Y4143701D2*
X4092323D1*
Y2143701D1*
X3512402D1*
X4152362Y4146063D2*
X3452362D1*
X4152362Y2141339D2*
Y4146063D1*
X3002756Y2593701D2*
X3081890D1*
Y2625197D2*
Y2562205D1*
X3223622D1*
Y2625197D2*
X3081890D1*
X3223622Y2562205D2*
Y2625197D1*
X3302756Y2593701D2*
X3223622D1*
X2404724Y3134646D2*
X2601575D1*
Y3843307D1*
X2404724D2*
Y3134646D1*
X2601575Y3843307D2*
X2404724D1*
X8052756Y1543701D2*
Y1622835D1*
X8021260D2*
X8084252D1*
Y1764567D1*
X8021260D2*
Y1622835D1*
X8084252Y1764567D2*
X8021260D1*
X8052756Y1843701D2*
Y1764567D1*
X7202756Y871654D2*
X7281890D1*
Y903150D2*
Y840157D1*
X7423622D1*
Y903150D2*
X7281890D1*
X7423622Y840157D2*
Y903150D1*
X7502756Y871654D2*
X7423622D1*
X7692520Y4193701D2*
Y4093701D1*
X7661024Y4193701D2*
G02X7661024Y4193701I31496J0D01*
G01*
X6277756Y1443701D2*
X6252756Y1468701D1*
X6452756Y1443701D2*
X6277756D1*
X6252756Y1468701D2*
Y1543701D1*
X6452756D1*
Y1443701D1*
X1224016Y454134D2*
X1365748D1*
X1224016D2*
X1168898Y505315D1*
X1365748Y454134D2*
X1444488Y513189D1*
X1365748Y454134D2*
Y635236D1*
X1698819Y500197D2*
X1653150Y538780D1*
X3637402Y500197D2*
X1698819D1*
X1168898Y505315D2*
Y584055D1*
X1444488Y513189D2*
Y576181D1*
X1685039Y513189D2*
X1444488D1*
X1653150Y538780D2*
Y1401772D1*
X1444488Y576181D2*
X1653150D1*
X1168898Y584055D2*
X1224016Y635236D1*
Y454134D1*
X1365748Y635236D2*
X1444488Y576181D1*
X1365748Y635236D2*
X1224016D1*
X1653150Y1401772D2*
X3637402D1*
Y500197D1*
X4150197Y1443701D2*
X4854921D1*
Y1843701D1*
X4191929Y1518701D2*
X4152559Y1558071D1*
X4852559Y1518701D2*
X4191929D1*
X4152559Y1558071D2*
Y1768701D1*
X4852559D1*
Y1518701D1*
X4150197Y1843701D2*
Y1443701D1*
X4854921Y1843701D2*
X4150197D1*
X7683465Y3344882D2*
Y3974803D1*
X8187402Y3344882D2*
X7683465D1*
Y3974803D2*
X8187402D1*
Y3344882D1*
X7792520Y4193701D2*
Y4093701D1*
X7761024Y4193701D2*
G02X7761024Y4193701I31496J0D01*
G01*
X4602756Y2793701D2*
X4523622D1*
Y2762205D2*
Y2825197D1*
X4381890D1*
Y2762205D2*
X4523622D1*
X4381890Y2825197D2*
Y2762205D1*
X4302756Y2793701D2*
X4381890D1*
X1950394Y1643701D2*
X2955118D1*
Y2043701D1*
X1992126Y1718701D2*
X1952756Y1758071D1*
X2952756Y1718701D2*
X1992126D1*
X1952756Y1758071D2*
Y1968701D1*
X2952756D1*
Y1718701D1*
X1950394Y2043701D2*
Y1643701D1*
X2955118Y2043701D2*
X1950394D1*
X7952756Y1843701D2*
Y1764567D1*
X7984252D2*
X7921260D1*
Y1622835D1*
X7984252D2*
Y1764567D1*
X7921260Y1622835D2*
X7984252D1*
X7952756Y1543701D2*
Y1622835D1*
X7293701Y1539614D2*
Y1447787D1*
X7293678Y1447816D1*
X7293701Y1493701D2*
G02X7293701Y1493701I59055J0D01*
G01*
X1301575Y3852756D2*
X1104724D1*
Y3144094D1*
X1301575D2*
Y3852756D1*
X1104724Y3144094D2*
X1301575D1*
X1677756Y4043701D2*
X1652756Y4068701D1*
X2052756Y4043701D2*
X1677756D1*
X1652756Y4068701D2*
Y4143701D1*
X2052756D1*
Y4043701D1*
X5277756Y943701D2*
X5252756Y968701D1*
X6052756Y943701D2*
X5277756D1*
X5252756Y968701D2*
Y1043701D1*
X6052756D1*
Y943701D1*
X3952756Y1246063D2*
Y541339D1*
X4352756D1*
X4027756Y1204331D2*
X4067126Y1243701D1*
X4027756Y543701D2*
Y1204331D1*
X4067126Y1243701D2*
X4277756D1*
Y543701D1*
X4027756D1*
X4352756Y1246063D2*
X3952756D1*
X4352756Y541339D2*
Y1246063D1*
X451969Y984646D2*
Y756299D1*
X680315D1*
Y984646D1*
X451969D1*
X937008Y1596457D2*
X976378Y1557087D1*
X413386Y1596457D2*
X937008D1*
X976378Y1242126D2*
Y1557087D1*
Y1242126D2*
X413386D1*
Y1596457D1*
X928740Y696850D2*
X1101969D1*
X978740D2*
Y1090551D1*
X1101969Y696850D2*
Y1090551D1*
X928740Y820866D2*
X978740D1*
X928740Y966535D2*
X978740D1*
X928740Y1090551D2*
Y696850D1*
X1101969Y1090551D2*
X928740D1*
X7613386Y1185433D2*
X7692126D1*
Y1303543D1*
X7613386D2*
Y1185433D1*
X7692126Y1303543D2*
X7613386D1*
X7502756Y760236D2*
X7423622D1*
Y728740D2*
Y791732D1*
X7281890D1*
Y728740D2*
X7423622D1*
X7281890Y791732D2*
Y728740D1*
X7202756Y760236D2*
X7281890D1*
X2098228Y1941732D2*
Y1744882D1*
X2806890D1*
Y1941732D2*
X2098228D1*
X2806890Y1744882D2*
Y1941732D1*
X3759449Y3751476D2*
X3729921Y3781004D1*
X3848031Y3751476D2*
X3759449D1*
X3729921Y3781004D2*
Y3869587D1*
X3848031D1*
Y3751476D1*
X4602756Y2293701D2*
X4523622D1*
Y2262205D2*
Y2325197D1*
X4381890D1*
Y2262205D2*
X4523622D1*
X4381890Y2325197D2*
Y2262205D1*
X4302756Y2293701D2*
X4381890D1*
X4602756Y2493701D2*
X4523622D1*
Y2462205D2*
Y2525197D1*
X4381890D1*
Y2462205D2*
X4523622D1*
X4381890Y2525197D2*
Y2462205D1*
X4302756Y2493701D2*
X4381890D1*
X6778150Y3653937D2*
X6817520Y3693307D1*
X6778150Y3293307D2*
Y3653937D1*
X6817520Y3693307D2*
X7028150D1*
Y3293307D1*
X6778150D1*
X7828937Y1395669D2*
Y1171260D1*
Y1395669D2*
X7868307Y1435039D1*
X7828937Y1171260D2*
X7974606D1*
X7868307Y1435039D2*
X7974606D1*
Y1171260D1*
X1062598Y554331D2*
Y633071D1*
X944488D1*
Y554331D2*
X1062598D1*
X944488Y633071D2*
Y554331D1*
X7852756Y1843701D2*
Y1764567D1*
X7884252D2*
X7821260D1*
Y1622835D1*
X7884252D2*
Y1764567D1*
X7821260Y1622835D2*
X7884252D1*
X7852756Y1543701D2*
Y1622835D1*
X3729035Y666929D2*
X3847146D1*
Y1178740D1*
X3729035D2*
Y666929D1*
X3847146Y1178740D2*
X3729035D1*
X5850394Y1943701D2*
X6655118D1*
Y2343701D1*
X5892126Y2018701D2*
X5852756Y2058071D1*
X6652756Y2018701D2*
X5892126D1*
X5852756Y2058071D2*
Y2268701D1*
X6652756D1*
Y2018701D1*
X5850394Y2343701D2*
Y1943701D1*
X6655118Y2343701D2*
X5850394D1*
X7393701Y670520D2*
Y578693D1*
X7393678Y578722D1*
X7393701Y624606D2*
G02X7393701Y624606I59055J0D01*
G01*
X7193701Y670520D2*
Y578693D1*
X7193678Y578722D1*
X7193701Y624606D2*
G02X7193701Y624606I59055J0D01*
G01*
X8090354Y3098819D2*
Y3288976D1*
X7715157D1*
X7765157Y3281693D2*
X7765118Y3196299D1*
X7765157Y3281693D2*
X7765118Y3196299D1*
X7715157Y3098819D2*
X8090354D1*
X7715157Y3288976D2*
Y3098819D1*
X7722047Y3238976D2*
G02X7722047Y3238976I43110J0D01*
G01*
X7617323Y2151575D2*
Y1167323D1*
X8188189D1*
Y2151575D1*
X7617323D1*
X6814173Y3853150D2*
X7070079D1*
Y3934252D1*
X6774803Y3856299D2*
X6735433D1*
X6814173Y3879921D2*
X6774803Y3856299D1*
X6814173Y3907480D2*
X6774803Y3931102D1*
X6735433D1*
X6814173Y3934252D2*
Y3853150D1*
X7070079Y3934252D2*
X6814173D1*
X1553150Y2741339D2*
Y4146063D1*
X853150D1*
X1493110Y2783071D2*
X1453740Y2743701D1*
X1493110Y4143701D2*
Y2783071D1*
X1453740Y2743701D2*
X913189D1*
Y4143701D1*
X1493110D1*
X853150Y2741339D2*
X1553150D1*
X853150Y4146063D2*
Y2741339D1*
X7952756Y2893701D2*
X8002756Y2943701D1*
X7952756Y2743701D2*
Y2893701D1*
X8002756Y2943701D2*
X8152756D1*
Y2743701D1*
X7952756D1*
X5004331Y2234646D2*
X5201181D1*
Y2943307D1*
X5004331D2*
Y2234646D1*
X5201181Y2943307D2*
X5004331D1*
X4602756Y2693701D2*
X4523622D1*
Y2662205D2*
Y2725197D1*
X4381890D1*
Y2662205D2*
X4523622D1*
X4381890Y2725197D2*
Y2662205D1*
X4302756Y2693701D2*
X4381890D1*
X3002756Y2393701D2*
X3081890D1*
Y2425197D2*
Y2362205D1*
X3223622D1*
Y2425197D2*
X3081890D1*
X3223622Y2362205D2*
Y2425197D1*
X3302756Y2393701D2*
X3223622D1*
X3900787Y3452756D2*
X3703937D1*
Y2744094D1*
X3900787D2*
Y3452756D1*
X3703937Y2744094D2*
X3900787D1*
X7613386Y1385433D2*
X7692126D1*
Y1503543D1*
X7613386D2*
Y1385433D1*
X7692126Y1503543D2*
X7613386D1*
M02*
