%TF.GenerationSoftware,Novarm,DipTrace,4.3.0.4*%
%TF.CreationDate,2023-05-10T15:20:14+01:00*%
%FSLAX26Y26*%
%MOIN*%
%TF.FileFunction,Soldermask,Top*%
%TF.Part,Single*%
%AMOUTLINE1*
4,1,28,
-0.009843,-0.02818,
-0.009843,0.02818,
-0.009658,0.029584,
-0.009066,0.031012,
-0.008125,0.032239,
-0.006898,0.03318,
-0.00547,0.033772,
-0.004066,0.033957,
0.004066,0.033957,
0.00547,0.033772,
0.006898,0.03318,
0.008125,0.032239,
0.009066,0.031012,
0.009658,0.029584,
0.009843,0.02818,
0.009843,-0.02818,
0.009658,-0.029584,
0.009066,-0.031012,
0.008125,-0.032239,
0.006898,-0.03318,
0.00547,-0.033772,
0.004066,-0.033957,
-0.004066,-0.033957,
-0.00547,-0.033772,
-0.006898,-0.03318,
-0.008125,-0.032239,
-0.009066,-0.031012,
-0.009658,-0.029584,
-0.009843,-0.02818,
0*%
%ADD18C,0.055118*%
%ADD20R,0.066929X0.066929*%
%ADD21C,0.066929*%
%ADD25C,0.066929*%
%ADD33R,0.070866X0.070866*%
%ADD34C,0.070866*%
%ADD47C,0.082677*%
%ADD52C,0.043307*%
%ADD62C,0.086614*%
%ADD63R,0.086614X0.086614*%
%ADD65C,0.063937*%
%ADD67C,0.06063*%
%ADD69R,0.082677X0.153543*%
%ADD71R,0.082677X0.062992*%
%ADD73O,0.082677X0.078937*%
%ADD75R,0.082677X0.078937*%
%ADD77O,0.082677X0.169291*%
%ADD79O,0.169291X0.082677*%
%ADD81R,0.185039X0.082677*%
%ADD83O,0.051181X0.063937*%
%ADD85C,0.074803*%
%ADD86R,0.074803X0.074803*%
%ADD87O,0.082677X0.161417*%
%ADD89O,0.141732X0.082677*%
%ADD91C,0.06063*%
%ADD93R,0.06063X0.06063*%
%ADD95C,0.098425*%
%ADD97C,0.059055*%
%ADD98C,0.200787*%
%ADD100R,0.055118X0.055118*%
%ADD102C,0.070866*%
%ADD103C,0.059055*%
%ADD115OUTLINE1*%
G75*
G01*
%LPD*%
D20*
X1193701Y1894488D3*
D21*
X1293701D3*
X1393701D3*
X1493701D3*
X1593701D3*
X1693701D3*
X1793701D3*
Y2194488D3*
X1693701D3*
X1593701D3*
X1493701D3*
X1393701D3*
X1293701D3*
X1193701D3*
D20*
X2794094Y2593701D3*
D21*
Y2693701D3*
Y2793701D3*
Y2893701D3*
Y2993701D3*
Y3093701D3*
Y3193701D3*
Y3293701D3*
Y3393701D3*
Y3493701D3*
Y3593701D3*
Y3693701D3*
Y3793701D3*
Y3893701D3*
Y3993701D3*
Y4093701D3*
X2194094D3*
Y3993701D3*
Y3893701D3*
Y3793701D3*
Y3693701D3*
Y3593701D3*
Y3493701D3*
Y3393701D3*
Y3293701D3*
Y3193701D3*
Y3093701D3*
Y2993701D3*
Y2893701D3*
Y2793701D3*
Y2693701D3*
Y2593701D3*
D97*
X4593701D3*
D103*
X4293701D3*
D20*
X4793701Y4093701D3*
D21*
Y3993701D3*
Y3893701D3*
Y3793701D3*
Y3693701D3*
Y3593701D3*
Y3493701D3*
Y3393701D3*
Y3293701D3*
Y3193701D3*
Y3093701D3*
Y2993701D3*
Y2893701D3*
Y2793701D3*
Y2693701D3*
Y2593701D3*
Y2493701D3*
Y2393701D3*
Y2293701D3*
Y2193701D3*
X5393701D3*
Y2293701D3*
Y2393701D3*
Y2493701D3*
Y2593701D3*
Y2693701D3*
Y2793701D3*
Y2893701D3*
Y2993701D3*
Y3093701D3*
Y3193701D3*
Y3293701D3*
Y3393701D3*
Y3493701D3*
Y3593701D3*
Y3693701D3*
Y3793701D3*
Y3893701D3*
Y3993701D3*
Y4093701D3*
D33*
X6293701Y993701D3*
D102*
X6393701D3*
X6493701D3*
X6593701D3*
X6693701D3*
X6793701D3*
X6893701D3*
X6993701D3*
D33*
X6293701Y1493701D3*
D102*
X6393701D3*
X6493701D3*
D47*
X7655118Y593701D3*
Y849606D3*
X7832283Y593701D3*
Y849606D3*
D33*
X6993701Y1393701D3*
D102*
X6893701D3*
X6993701Y1493701D3*
X6893701D3*
D100*
X7293701Y1093701D3*
D18*
X7343701Y1143701D3*
X7393701Y1093701D3*
D47*
X6243701Y1993701D3*
Y2387402D3*
D33*
X7693701Y2893701D3*
D102*
X7793701D3*
X7693701Y2793701D3*
X7793701D3*
X7693701Y2693701D3*
X7793701D3*
X7693701Y2593701D3*
X7793701D3*
X7693701Y2493701D3*
X7793701D3*
X7693701Y2393701D3*
X7793701D3*
D33*
X5893701Y2793701D3*
D34*
X5993701D3*
X6093701D3*
X6193701D3*
X6293701D3*
X6393701D3*
D98*
X543701Y4143701D3*
Y2017717D3*
X7472835Y4143701D3*
Y2017717D3*
D20*
X7394094Y3848425D3*
D25*
X7294094D3*
X7394094Y3748425D3*
X7294094D3*
X7394094Y3648425D3*
X7294094D3*
X7394094Y3548425D3*
X7294094D3*
X7394094Y3448425D3*
X7294094D3*
X7394094Y3348425D3*
X7294094D3*
X7394094Y3248425D3*
X7294094D3*
X7394094Y3148425D3*
X7294094D3*
X7394094Y3048425D3*
X7294094D3*
X7394094Y2948425D3*
X7294094D3*
X7394094Y2848425D3*
X7294094D3*
D33*
X5293701Y1493701D3*
D102*
X5393701D3*
X5493701D3*
X5593701D3*
X5693701D3*
X5793701D3*
X5893701D3*
X5993701D3*
D97*
X7743701Y1843701D3*
D103*
Y1543701D3*
D20*
X3493307Y4093701D3*
D21*
Y3993701D3*
Y3893701D3*
Y3793701D3*
Y3693701D3*
Y3593701D3*
Y3493701D3*
Y3393701D3*
Y3293701D3*
Y3193701D3*
Y3093701D3*
Y2993701D3*
Y2893701D3*
Y2793701D3*
Y2693701D3*
Y2593701D3*
Y2493701D3*
Y2393701D3*
Y2293701D3*
Y2193701D3*
X4093307D3*
Y2293701D3*
Y2393701D3*
Y2493701D3*
Y2593701D3*
Y2693701D3*
Y2793701D3*
Y2893701D3*
Y2993701D3*
Y3093701D3*
Y3193701D3*
Y3293701D3*
Y3393701D3*
Y3493701D3*
Y3593701D3*
Y3693701D3*
Y3793701D3*
Y3893701D3*
Y3993701D3*
Y4093701D3*
D97*
X2993701Y2593701D3*
D103*
X3293701D3*
D95*
X2494094Y3193701D3*
Y3784252D3*
X4143701Y1343701D3*
X4734252D3*
D97*
X8043701Y1543701D3*
D103*
Y1843701D3*
D20*
X6893701Y2493701D3*
D21*
Y2393701D3*
Y2293701D3*
Y2193701D3*
Y2093701D3*
Y1993701D3*
Y1893701D3*
X7193701D3*
Y1993701D3*
Y2093701D3*
Y2193701D3*
Y2293701D3*
Y2393701D3*
Y2493701D3*
D97*
Y871654D3*
D103*
X7493701D3*
D97*
X7683465Y4193701D3*
D103*
Y4093701D3*
D93*
X1875492Y625984D3*
D91*
X1975492D3*
X2075492D3*
X2175492D3*
X2275492D3*
X2375492D3*
X2475492D3*
X2575492D3*
X2675492D3*
X2775492D3*
X2875492D3*
X2975492D3*
X3075492D3*
X3175492D3*
Y1225984D3*
X3075492D3*
X2975492D3*
X2875492D3*
X2775492D3*
X2675492D3*
X2575492D3*
X2475492D3*
X2375492D3*
X2275492D3*
X2175492D3*
X2075492D3*
X1975492D3*
X1875492D3*
D20*
X4093701Y593701D3*
D21*
X4193701D3*
X4293701D3*
X4393701D3*
X4493701D3*
X4593701D3*
X4693701D3*
Y893701D3*
X4593701D3*
X4493701D3*
X4393701D3*
X4293701D3*
X4193701D3*
X4093701D3*
D20*
X7843701Y3711024D3*
D25*
Y3608661D3*
Y3793701D3*
Y3525984D3*
X7733465Y3793701D3*
Y3525984D3*
D89*
X7955906Y3390157D3*
D87*
X7987402Y3659843D3*
D89*
X7955906Y3929528D3*
D97*
X7783465Y4193701D3*
D103*
Y4093701D3*
D97*
X4593701Y2793701D3*
D103*
X4293701D3*
D97*
X7943701Y1843701D3*
D103*
Y1543701D3*
D98*
X543701Y543701D3*
D86*
X7293701Y1493701D3*
D85*
X7393701D3*
D95*
X1494094Y3593701D3*
Y3003150D3*
D33*
X1493701Y4193701D3*
D102*
X1593701D3*
X1693701D3*
X1793701D3*
D33*
X5293701Y993701D3*
D102*
X5393701D3*
X5493701D3*
X5593701D3*
X5693701D3*
X5793701D3*
X5893701D3*
X5993701D3*
D83*
X620472Y872441D3*
X793701D3*
X620472Y951181D3*
Y793701D3*
X793701Y951181D3*
Y793701D3*
D81*
X893701Y3745669D3*
D79*
Y3993701D3*
D77*
X704724Y3859843D3*
D75*
X593701Y1593701D3*
D73*
Y1493701D3*
Y1393701D3*
D25*
X7643701Y1195276D3*
Y1293701D3*
D97*
X7493701Y760236D3*
D103*
X7193701D3*
D115*
X3741535Y3727362D3*
X3767126D3*
X3792717D3*
X3818307D3*
Y3893701D3*
X3792717D3*
X3767126D3*
X3741535D3*
D97*
X4593701Y2293701D3*
D103*
X4293701D3*
D97*
X4593701Y2493701D3*
D103*
X4293701D3*
D20*
X6744094Y3643307D3*
D21*
Y3543307D3*
Y3443307D3*
Y3343307D3*
X7044094D3*
Y3443307D3*
Y3543307D3*
Y3643307D3*
D71*
X7768701Y1393701D3*
Y1303150D3*
D69*
X8016732D3*
D71*
X7768701Y1212598D3*
D25*
X893701Y1593701D3*
Y1495276D3*
D97*
X7843701Y1843701D3*
D103*
Y1543701D3*
D20*
X3993701Y1193701D3*
D21*
X4093701D3*
X4193701D3*
X4293701D3*
X4393701D3*
X4493701D3*
X4593701D3*
X4693701D3*
X4793701D3*
X4893701D3*
Y1493701D3*
X4793701D3*
X4693701D3*
X4593701D3*
X4493701D3*
X4393701D3*
X4293701D3*
X4193701D3*
X4093701D3*
X3993701D3*
D47*
X3594685Y700984D3*
Y1094685D3*
D20*
X6093701Y2493701D3*
D21*
Y2393701D3*
Y2293701D3*
Y2193701D3*
Y2093701D3*
Y1993701D3*
Y1893701D3*
Y1793701D3*
X6393701D3*
Y1893701D3*
Y1993701D3*
Y2093701D3*
Y2193701D3*
Y2293701D3*
Y2393701D3*
Y2493701D3*
D86*
X7393701Y624606D3*
D85*
X7493701D3*
D98*
X8043701Y543701D3*
D86*
X7193701Y624606D3*
D85*
X7293701D3*
D67*
X7793701Y3143701D3*
X7893701Y3243701D3*
X7993701Y3143701D3*
D20*
X7743701Y1993701D3*
D25*
X7843701D3*
D65*
X7943701D3*
D20*
X8043701D3*
D25*
Y2093701D3*
X7943701D3*
X7843701D3*
X7743701D3*
D52*
X6726378Y3856299D3*
Y3931102D3*
D20*
X1794094Y2593701D3*
D21*
Y2693701D3*
Y2793701D3*
Y2893701D3*
Y2993701D3*
Y3093701D3*
Y3193701D3*
Y3293701D3*
Y3393701D3*
Y3493701D3*
Y3593701D3*
Y3693701D3*
Y3793701D3*
Y3893701D3*
X1194094D3*
Y3793701D3*
Y3693701D3*
Y3593701D3*
Y3493701D3*
Y3393701D3*
Y3293701D3*
Y3193701D3*
Y3093701D3*
Y2993701D3*
Y2893701D3*
Y2793701D3*
Y2693701D3*
Y2593701D3*
D98*
X8043701Y4143701D3*
D33*
X7993701Y2893701D3*
D102*
X8093701D3*
X7993701Y2793701D3*
X8093701D3*
D95*
X5093701Y2293701D3*
Y2884252D3*
D97*
X4593701Y2693701D3*
D103*
X4293701D3*
D97*
X2993701Y2393701D3*
D103*
X3293701D3*
D95*
X3793307Y3393701D3*
Y2803150D3*
D25*
X7643701Y1395276D3*
Y1493701D3*
D63*
X6143701Y3901892D3*
D62*
Y3134176D3*
M02*
