%TF.GenerationSoftware,Novarm,DipTrace,4.3.0.4*%
%TF.CreationDate,2023-05-10T13:10:40+01:00*%
%FSLAX26Y26*%
%MOIN*%
%TF.FileFunction,Legend,Top*%
%TF.Part,Single*%
%ADD10C,0.004724*%
%ADD15C,0.003937*%
%ADD106C,0.00772*%
%ADD107C,0.006251*%
%ADD108C,0.005906*%
%ADD109C,0.011811*%
G75*
G01*
%LPD*%
X848031Y2042126D2*
D10*
X1557480D1*
Y2446850D1*
X850394Y2140157D2*
X1555118D1*
Y2348819D1*
X850394Y2205118D2*
Y2140157D1*
Y2348819D2*
Y2283858D1*
X1555118Y2348819D2*
X850394D1*
X848031Y2446850D2*
Y2042126D1*
X1557480Y2446850D2*
X848031D1*
X850394Y2205118D2*
G02X850394Y2205118I0J0D01*
G01*
X2855512Y2538976D2*
Y4148425D1*
X2150787D1*
X2757480Y2541339D2*
Y4146063D1*
X2248819D1*
X2542520Y2541339D2*
X2757480D1*
X2248819D2*
X2463780D1*
X2248819Y4146063D2*
Y2541339D1*
X2150787Y2538976D2*
X2855512D1*
X2150787Y4148425D2*
Y2538976D1*
X2542520Y2541339D2*
G02X2542520Y2541339I0J0D01*
G01*
X4565748Y2593701D2*
X4528346D1*
Y2557480D2*
Y2629921D1*
X4377165D1*
Y2557480D2*
X4528346D1*
X4377165Y2629921D2*
Y2557480D1*
X4339764Y2593701D2*
X4377165D1*
X4750394Y4148425D2*
Y2138976D1*
X5455118D1*
X4848425Y4146063D2*
Y2141339D1*
X5357087D1*
X5063386Y4146063D2*
X4848425D1*
X5357087D2*
X5142126D1*
X5357087Y2141339D2*
Y4146063D1*
X5455118Y4148425D2*
X4750394D1*
X5455118Y2138976D2*
Y4148425D1*
X5063386Y4146063D2*
G02X5063386Y4146063I0J0D01*
G01*
X6250394Y941339D2*
Y993701D1*
X6302756Y941339D2*
X6250394D1*
X6352756D2*
X7055118D1*
X6352756D2*
Y1046063D1*
X7055118Y941339D2*
Y1046063D1*
X6352756D2*
X7055118D1*
X6250394Y1441339D2*
Y1493701D1*
X6302756Y1441339D2*
X6250394D1*
X6352756D2*
X6555118D1*
X6352756D2*
Y1546063D1*
X6555118Y1441339D2*
Y1546063D1*
X6352756D2*
X6555118D1*
X7723228Y583858D2*
X7782283D1*
X7880709Y633071D2*
Y810236D1*
X7624803D2*
Y633071D1*
X7782283Y859449D2*
X7723228D1*
X7055118Y1341339D2*
X7002756D1*
X7055118Y1393701D2*
Y1341339D1*
Y1443701D2*
Y1546063D1*
Y1443701D2*
X6952756D1*
X7055118Y1546063D2*
X6850394D1*
X6952756Y1341339D2*
X6850394D1*
X6952756Y1443701D2*
Y1341339D1*
X6850394D2*
Y1546063D1*
X7281890Y1020866D2*
X7423622D1*
X7352756Y1196063D2*
G02X7352756Y1196063I0J0D01*
G01*
X7425136Y1021320D2*
G02X7425136Y1021320I0J0D01*
G01*
X6188976Y1929921D2*
X6316535D1*
X6188976D2*
Y2451181D1*
X6316535Y1929921D2*
Y2451181D1*
X6188976D2*
X6316535D1*
X7650394Y2946063D2*
X7702756D1*
X7650394Y2893701D2*
Y2946063D1*
Y2843701D2*
Y2341339D1*
Y2843701D2*
X7752756D1*
X7650394Y2341339D2*
X7855118D1*
X7752756Y2946063D2*
X7855118D1*
X7752756Y2843701D2*
Y2946063D1*
X7855118D2*
Y2341339D1*
X5250394Y1441339D2*
Y1493701D1*
X5302756Y1441339D2*
X5250394D1*
X5352756D2*
X6055118D1*
X5352756D2*
Y1546063D1*
X6055118Y1441339D2*
Y1546063D1*
X5352756D2*
X6055118D1*
X7752756Y1806693D2*
Y1769291D1*
X7788976D2*
X7716535D1*
Y1618110D1*
X7788976D2*
Y1769291D1*
X7716535Y1618110D2*
X7788976D1*
X7752756Y1580709D2*
Y1618110D1*
X3450000Y4148425D2*
Y2138976D1*
X4154724D1*
X3548031Y4146063D2*
Y2141339D1*
X4056693D1*
X3762992Y4146063D2*
X3548031D1*
X4056693D2*
X3841732D1*
X4056693Y2141339D2*
Y4146063D1*
X4154724Y4148425D2*
X3450000D1*
X4154724Y2138976D2*
Y4148425D1*
X3762992Y4146063D2*
G02X3762992Y4146063I0J0D01*
G01*
X3039764Y2593701D2*
X3077165D1*
Y2629921D2*
Y2557480D1*
X3228346D1*
Y2629921D2*
X3077165D1*
X3228346Y2557480D2*
Y2629921D1*
X3265748Y2593701D2*
X3228346D1*
X2400000Y3129921D2*
X2606299D1*
X2400000D2*
Y3848031D1*
X2606299Y3129921D2*
Y3848031D1*
X2400000D2*
X2606299D1*
X4088976Y1646850D2*
Y1440551D1*
Y1646850D2*
X4807087D1*
X4088976Y1440551D2*
X4807087D1*
Y1646850D2*
Y1440551D1*
X8052756Y1580709D2*
Y1618110D1*
X8016535D2*
X8088976D1*
Y1769291D1*
X8016535D2*
Y1618110D1*
X8088976Y1769291D2*
X8016535D1*
X8052756Y1806693D2*
Y1769291D1*
X6850394Y2548425D2*
Y1838976D1*
X7255118D1*
X6948425Y2546063D2*
Y1841339D1*
X7157087D1*
X7013386Y2546063D2*
X6948425D1*
X7157087D2*
X7092126D1*
X7157087Y1841339D2*
Y2546063D1*
X7255118Y2548425D2*
X6850394D1*
X7255118Y1838976D2*
Y2548425D1*
X7013386Y2546063D2*
G02X7013386Y2546063I0J0D01*
G01*
X7239764Y871654D2*
X7277165D1*
Y907874D2*
Y835433D1*
X7428346D1*
Y907874D2*
X7277165D1*
X7428346Y835433D2*
Y907874D1*
X7465748Y871654D2*
X7428346D1*
X7692520Y4157480D2*
Y4133071D1*
X7656299Y4193701D2*
G02X7656299Y4193701I36220J0D01*
G01*
X2118898Y456102D2*
X2018898D1*
X1649213Y496260D2*
X1722441D1*
X1915354D2*
X3641339D1*
Y1405709D1*
X1649213Y586024D2*
X1738189D1*
X1649213Y1405709D2*
Y496260D1*
X3641339Y1405709D2*
X1649213D1*
X1783465Y525000D2*
G02X1783465Y525000I35433J0D01*
G01*
X1718504D2*
G02X1718504Y525000I100394J0D01*
G01*
X4048031Y741339D2*
X4757480D1*
Y1146063D1*
X4050394Y839370D2*
X4755118D1*
Y1048031D1*
X4050394Y904331D2*
Y839370D1*
Y1048031D2*
Y983071D1*
X4755118Y1048031D2*
X4050394D1*
X4048031Y1146063D2*
Y741339D1*
X4757480Y1146063D2*
X4048031D1*
X4050394Y904331D2*
G02X4050394Y904331I0J0D01*
G01*
X7679528Y3340945D2*
X8191339D1*
X7679528D2*
Y3978740D1*
X8191339Y3340945D2*
Y3978740D1*
X7679528D2*
X8191339D1*
X7792520Y4157480D2*
Y4133071D1*
X7756299Y4193701D2*
G02X7756299Y4193701I36220J0D01*
G01*
X4565748Y2793701D2*
X4528346D1*
Y2757480D2*
Y2829921D1*
X4377165D1*
Y2757480D2*
X4528346D1*
X4377165Y2829921D2*
Y2757480D1*
X4339764Y2793701D2*
X4377165D1*
X7952756Y1806693D2*
Y1769291D1*
X7988976D2*
X7916535D1*
Y1618110D1*
X7988976D2*
Y1769291D1*
X7916535Y1618110D2*
X7988976D1*
X7952756Y1580709D2*
Y1618110D1*
X7291339Y1542362D2*
Y1536220D1*
Y1451181D2*
Y1445039D1*
X7418596Y1536165D2*
G02X7418596Y1536165I0J0D01*
G01*
X7393745Y1536214D2*
G02X7393745Y1536214I0J0D01*
G01*
X7311773Y1451181D2*
G02X7311773Y1451181I0J0D01*
G01*
X7291339Y1445059D2*
G02X7291339Y1445059I0J0D01*
G01*
X1306299Y3857480D2*
X1100000D1*
X1306299D2*
Y3139370D1*
X1100000Y3857480D2*
Y3139370D1*
X1306299D2*
X1100000D1*
X1650394Y4041339D2*
Y4093701D1*
X1702756Y4041339D2*
X1650394D1*
X1752756D2*
X2055118D1*
X1752756D2*
Y4146063D1*
X2055118Y4041339D2*
Y4146063D1*
X1752756D2*
X2055118D1*
X5250394Y941339D2*
Y993701D1*
X5302756Y941339D2*
X5250394D1*
X5352756D2*
X6055118D1*
X5352756D2*
Y1046063D1*
X6055118Y941339D2*
Y1046063D1*
X5352756D2*
X6055118D1*
X511024Y949213D2*
D15*
X526772D1*
Y870472D1*
X511024D1*
X526772D2*
Y791732D1*
X511024D1*
X605512Y949213D2*
Y870472D1*
Y791732D1*
Y870472D2*
X621260D1*
Y949213D2*
X605512D1*
X621260Y791732D2*
X605512D1*
X992126Y1612205D2*
D10*
X940945D1*
X980315Y1600394D2*
Y1521654D1*
X409449Y1600394D2*
X980315D1*
X992126Y1545276D2*
Y1612205D1*
X980315Y1316929D2*
Y1238189D1*
X929134D1*
X748031D2*
X409449D1*
Y1600394D1*
X924016Y692126D2*
X1106732D1*
X924016D2*
Y1095276D1*
X983465Y692126D2*
Y1095276D1*
X1106732Y692126D2*
Y1095276D1*
X924016Y820866D2*
X983465D1*
X924016Y966575D2*
X983465D1*
X924016Y1095276D2*
X1106732D1*
X7608661Y1180709D2*
X7611220D1*
X7608661D2*
Y1308268D1*
X7694291Y1180709D2*
X7696850D1*
Y1308268D1*
X7608661D2*
X7611220D1*
X7694291D2*
X7696850D1*
X7465748Y760236D2*
X7428346D1*
Y724016D2*
Y796457D1*
X7277165D1*
Y724016D2*
X7428346D1*
X7277165Y796457D2*
Y724016D1*
X7239764Y760236D2*
X7277165D1*
X3725591Y3810531D2*
Y3695374D1*
Y3810531D2*
Y3869587D1*
X3852362Y3810531D2*
Y3751476D1*
Y3810531D2*
Y3869587D1*
X4565748Y2293701D2*
X4528346D1*
Y2257480D2*
Y2329921D1*
X4377165D1*
Y2257480D2*
X4528346D1*
X4377165Y2329921D2*
Y2257480D1*
X4339764Y2293701D2*
X4377165D1*
X4565748Y2493701D2*
X4528346D1*
Y2457480D2*
Y2529921D1*
X4377165D1*
Y2457480D2*
X4528346D1*
X4377165Y2529921D2*
Y2457480D1*
X4339764Y2493701D2*
X4377165D1*
X6798819Y3695669D2*
Y3290945D1*
X7007480D1*
X6863780Y3695669D2*
X6798819D1*
X7007480D2*
X6942520D1*
X7007480Y3290945D2*
Y3695669D1*
X6863780D2*
G02X6863780Y3695669I0J0D01*
G01*
X7740354Y1437402D2*
X7976969D1*
X7828937Y1168898D2*
X7976969D1*
Y1437402D2*
Y1387795D1*
Y1168898D2*
Y1218504D1*
X1067323Y549606D2*
Y552165D1*
Y549606D2*
X939764D1*
X1067323Y635236D2*
Y637795D1*
X939764D1*
Y549606D2*
Y552165D1*
Y635236D2*
Y637795D1*
X7852756Y1806693D2*
Y1769291D1*
X7888976D2*
X7816535D1*
Y1618110D1*
X7888976D2*
Y1769291D1*
X7816535Y1618110D2*
X7888976D1*
X7852756Y1580709D2*
Y1618110D1*
X3948031Y1341339D2*
X4957480D1*
Y1746063D1*
X3950394Y1439370D2*
X4955118D1*
Y1648031D1*
X3950394Y1504331D2*
Y1439370D1*
Y1648031D2*
Y1583071D1*
X4955118Y1648031D2*
X3950394D1*
X3948031Y1746063D2*
Y1341339D1*
X4957480Y1746063D2*
X3948031D1*
X3950394Y1504331D2*
G02X3950394Y1504331I0J0D01*
G01*
X3724311Y662205D2*
X3851870D1*
X3724311D2*
Y1183465D1*
X3851870Y662205D2*
Y1183465D1*
X3724311D2*
X3851870D1*
X6050394Y2548425D2*
Y1738976D1*
X6455118D1*
X6148425Y2546063D2*
Y1741339D1*
X6357087D1*
X6213386Y2546063D2*
X6148425D1*
X6357087D2*
X6292126D1*
X6357087Y1741339D2*
Y2546063D1*
X6455118Y2548425D2*
X6050394D1*
X6455118Y1738976D2*
Y2548425D1*
X6213386Y2546063D2*
G02X6213386Y2546063I0J0D01*
G01*
X7391339Y673268D2*
Y667126D1*
Y582087D2*
Y575945D1*
X7518596Y667071D2*
G02X7518596Y667071I0J0D01*
G01*
X7493745Y667119D2*
G02X7493745Y667119I0J0D01*
G01*
X7411773Y582087D2*
G02X7411773Y582087I0J0D01*
G01*
X7391339Y575965D2*
G02X7391339Y575965I0J0D01*
G01*
X7191339Y673268D2*
Y667126D1*
Y582087D2*
Y575945D1*
X7318596Y667071D2*
G02X7318596Y667071I0J0D01*
G01*
X7293745Y667119D2*
G02X7293745Y667119I0J0D01*
G01*
X7211773Y582087D2*
G02X7211773Y582087I0J0D01*
G01*
X7191339Y575965D2*
G02X7191339Y575965I0J0D01*
G01*
X8095079Y3094094D2*
Y3293701D1*
Y3094094D2*
X7710433D1*
X8095079Y3293701D2*
X7710433D1*
Y3094094D2*
Y3293701D1*
X6806299Y3845276D2*
X7077953D1*
Y3942126D1*
X6770866Y3856299D2*
X6762992D1*
X6806299Y3879921D2*
X6770866Y3856299D1*
X6806299Y3907480D2*
X6770866Y3931102D1*
X6762992D1*
X6806299Y3942126D2*
Y3845276D1*
X7077953Y3942126D2*
X6806299D1*
X1555512Y2738976D2*
Y4148425D1*
X850787D1*
X1457480Y2741339D2*
Y4146063D1*
X948819D1*
X1242520Y2741339D2*
X1457480D1*
X948819D2*
X1163780D1*
X948819Y4146063D2*
Y2741339D1*
X850787Y2738976D2*
X1555512D1*
X850787Y4148425D2*
Y2738976D1*
X1242520Y2741339D2*
G02X1242520Y2741339I0J0D01*
G01*
X7950394Y2946063D2*
X8002756D1*
X7950394Y2893701D2*
Y2946063D1*
Y2843701D2*
Y2741339D1*
Y2843701D2*
X8052756D1*
X7950394Y2741339D2*
X8155118D1*
X8052756Y2946063D2*
X8155118D1*
X8052756Y2843701D2*
Y2946063D1*
X8155118D2*
Y2741339D1*
X4999606Y2229921D2*
X5205906D1*
X4999606D2*
Y2948031D1*
X5205906Y2229921D2*
Y2948031D1*
X4999606D2*
X5205906D1*
X4565748Y2693701D2*
X4528346D1*
Y2657480D2*
Y2729921D1*
X4377165D1*
Y2657480D2*
X4528346D1*
X4377165Y2729921D2*
Y2657480D1*
X4339764Y2693701D2*
X4377165D1*
X3039764Y2393701D2*
X3077165D1*
Y2429921D2*
Y2357480D1*
X3228346D1*
Y2429921D2*
X3077165D1*
X3228346Y2357480D2*
Y2429921D1*
X3265748Y2393701D2*
X3228346D1*
X3905512Y3457480D2*
X3699213D1*
X3905512D2*
Y2739370D1*
X3699213Y3457480D2*
Y2739370D1*
X3905512D2*
X3699213D1*
X7608661Y1380709D2*
X7611220D1*
X7608661D2*
Y1508268D1*
X7694291Y1380709D2*
X7696850D1*
Y1508268D1*
X7608661D2*
X7611220D1*
X7694291D2*
X7696850D1*
X5259577Y531656D2*
D107*
X5257676Y535459D1*
X5253829Y539305D1*
X5250027Y541207D1*
X5242377D1*
X5238531Y539305D1*
X5234728Y535459D1*
X5232783Y531656D1*
X5230881Y525908D1*
Y516313D1*
X5232783Y510609D1*
X5234728Y506763D1*
X5238531Y502960D1*
X5242377Y501015D1*
X5250027D1*
X5253829Y502960D1*
X5257676Y506763D1*
X5259577Y510609D1*
X5272078Y527809D2*
Y501015D1*
X5292152Y527809D2*
Y501015D1*
X5272078Y527809D2*
X5292152D1*
X5304654D2*
Y487617D1*
Y522061D2*
X5308456Y525864D1*
X5312303Y527809D1*
X5318051D1*
X5321854Y525864D1*
X5325700Y522061D1*
X5327602Y516313D1*
Y512466D1*
X5325700Y506763D1*
X5321854Y502916D1*
X5318051Y501015D1*
X5312303D1*
X5308456Y502916D1*
X5304654Y506763D1*
X5348725Y527809D2*
X5345851Y526527D1*
X5342977Y523962D1*
X5341518Y521442D1*
X5340103Y517595D1*
Y511228D1*
X5341518Y507426D1*
X5342977Y504861D1*
X5345851Y502297D1*
X5348725Y501015D1*
X5354429D1*
X5357303Y502297D1*
X5360177Y504861D1*
X5361592Y507426D1*
X5363007Y511228D1*
Y517595D1*
X5361592Y521442D1*
X5360177Y523962D1*
X5357303Y526527D1*
X5354429Y527809D1*
X5348725D1*
X5375508Y516313D2*
X5398456D1*
Y520160D1*
X5396555Y524007D1*
X5394653Y525908D1*
X5390807Y527809D1*
X5385058D1*
X5381256Y525908D1*
X5377409Y522061D1*
X5375508Y516313D1*
Y512511D1*
X5377409Y506763D1*
X5381256Y502960D1*
X5385058Y501015D1*
X5390807D1*
X5394653Y502960D1*
X5398456Y506763D1*
X5410957Y527809D2*
Y501015D1*
X5431031Y527809D2*
X5410957Y509946D1*
X5418120Y516357D2*
X5431031Y501015D1*
X5453569Y527809D2*
Y501015D1*
X5443532Y527809D2*
X5463606D1*
X5484730D2*
X5481856Y526527D1*
X5478982Y523962D1*
X5477522Y521442D1*
X5476108Y517595D1*
Y511228D1*
X5477522Y507426D1*
X5478982Y504861D1*
X5481856Y502297D1*
X5484730Y501015D1*
X5490433D1*
X5493307Y502297D1*
X5496181Y504861D1*
X5497596Y507426D1*
X5499011Y511228D1*
Y517595D1*
X5497596Y521442D1*
X5496181Y523962D1*
X5493307Y526527D1*
X5490433Y527809D1*
X5484730D1*
X5511513D2*
Y501015D1*
X5524424D1*
X5528757Y502297D1*
X5530172Y503579D1*
X5531586Y506099D1*
Y509946D1*
X5530172Y512511D1*
X5528757Y513793D1*
X5524424Y515031D1*
X5528757Y516357D1*
X5530172Y517595D1*
X5531586Y520160D1*
Y522724D1*
X5530172Y525245D1*
X5528757Y526527D1*
X5524424Y527809D1*
X5511513D1*
Y515031D2*
X5524424D1*
X5567036Y527809D2*
Y501015D1*
Y522061D2*
X5563233Y525908D1*
X5559386Y527809D1*
X5553683D1*
X5549836Y525908D1*
X5546033Y522061D1*
X5544088Y516313D1*
Y512511D1*
X5546033Y506763D1*
X5549836Y502960D1*
X5553683Y501015D1*
X5559386D1*
X5563233Y502960D1*
X5567036Y506763D1*
X5579537Y527809D2*
Y501015D1*
X5599611Y527809D2*
Y501015D1*
X5579537Y515031D2*
X5599611D1*
X5620734Y527809D2*
X5617860Y526527D1*
X5614986Y523962D1*
X5613527Y521442D1*
X5612112Y517595D1*
Y511228D1*
X5613527Y507426D1*
X5614986Y504861D1*
X5617860Y502297D1*
X5620734Y501015D1*
X5626438D1*
X5629312Y502297D1*
X5632186Y504861D1*
X5633601Y507426D1*
X5635016Y511228D1*
Y517595D1*
X5633601Y521442D1*
X5632186Y523962D1*
X5629312Y526527D1*
X5626438Y527809D1*
X5620734D1*
X5686548Y541207D2*
X5688449Y539305D1*
X5690395Y541207D1*
X5688449Y543152D1*
X5686548Y541207D1*
X5688449Y527809D2*
Y501015D1*
X5741927Y527809D2*
Y501015D1*
X5754838D1*
X5759171Y502297D1*
X5760586Y503579D1*
X5762001Y506099D1*
Y509946D1*
X5760586Y512511D1*
X5759171Y513793D1*
X5754838Y515031D1*
X5759171Y516357D1*
X5760586Y517595D1*
X5762001Y520160D1*
Y522724D1*
X5760586Y525245D1*
X5759171Y526527D1*
X5754838Y527809D1*
X5741927D1*
Y515031D2*
X5754838D1*
X5794576Y527809D2*
Y501015D1*
Y527809D2*
X5774502Y501015D1*
Y527809D2*
Y501015D1*
X5825736Y527809D2*
X5807077D1*
Y501015D1*
X5846859Y527809D2*
X5843985Y526527D1*
X5841111Y523962D1*
X5839652Y521442D1*
X5838237Y517595D1*
Y511228D1*
X5839652Y507426D1*
X5841111Y504861D1*
X5843985Y502297D1*
X5846859Y501015D1*
X5852563D1*
X5855437Y502297D1*
X5858311Y504861D1*
X5859726Y507426D1*
X5861141Y511228D1*
Y517595D1*
X5859726Y521442D1*
X5858311Y523962D1*
X5855437Y526527D1*
X5852563Y527809D1*
X5846859D1*
X5883679D2*
Y501015D1*
X5873642Y527809D2*
X5893716D1*
X5914840D2*
X5911966Y526527D1*
X5909092Y523962D1*
X5907632Y521442D1*
X5906218Y517595D1*
Y511228D1*
X5907632Y507426D1*
X5909092Y504861D1*
X5911966Y502297D1*
X5914840Y501015D1*
X5920543D1*
X5923417Y502297D1*
X5926291Y504861D1*
X5927706Y507426D1*
X5929121Y511228D1*
Y517595D1*
X5927706Y521442D1*
X5926291Y523962D1*
X5923417Y526527D1*
X5920543Y527809D1*
X5914840D1*
X5941623D2*
Y501015D1*
X5954534D1*
X5958867Y502297D1*
X5960282Y503579D1*
X5961696Y506099D1*
Y509946D1*
X5960282Y512511D1*
X5958867Y513793D1*
X5954534Y515031D1*
X5958867Y516357D1*
X5960282Y517595D1*
X5961696Y520160D1*
Y522724D1*
X5960282Y525245D1*
X5958867Y526527D1*
X5954534Y527809D1*
X5941623D1*
Y515031D2*
X5954534D1*
X5997146Y501015D2*
X5985650Y527809D1*
X5974198Y501015D1*
X6009647Y516313D2*
X6032595D1*
Y520160D1*
X6030694Y524007D1*
X6028792Y525908D1*
X6024946Y527809D1*
X6019198D1*
X6015395Y525908D1*
X6011548Y522061D1*
X6009647Y516313D1*
Y512511D1*
X6011548Y506763D1*
X6015395Y502960D1*
X6019198Y501015D1*
X6024946D1*
X6028792Y502960D1*
X6032595Y506763D1*
X6045096Y527809D2*
Y501015D1*
X6065170Y527809D2*
Y501015D1*
X6045096Y515031D2*
X6065170D1*
X6086294Y527809D2*
X6083419Y526527D1*
X6080545Y523962D1*
X6079086Y521442D1*
X6077671Y517595D1*
Y511228D1*
X6079086Y507426D1*
X6080545Y504861D1*
X6083419Y502297D1*
X6086294Y501015D1*
X6091997D1*
X6094871Y502297D1*
X6097745Y504861D1*
X6099160Y507426D1*
X6100575Y511228D1*
Y517595D1*
X6099160Y521442D1*
X6097745Y523962D1*
X6094871Y526527D1*
X6091997Y527809D1*
X6086294D1*
X6152107D2*
Y501015D1*
X6165018D1*
X6169351Y502297D1*
X6170766Y503579D1*
X6172181Y506099D1*
Y509946D1*
X6170766Y512511D1*
X6169351Y513793D1*
X6165018Y515031D1*
X6169351Y516357D1*
X6170766Y517595D1*
X6172181Y520160D1*
Y522724D1*
X6170766Y525245D1*
X6169351Y526527D1*
X6165018Y527809D1*
X6152107D1*
Y515031D2*
X6165018D1*
X6223713Y541339D2*
X6234855Y510432D1*
X6237110Y514545D2*
X6233308Y506895D1*
X6229461Y503048D1*
X6225659Y501015D1*
X6223713D1*
X6248606Y541339D2*
X6237110Y514545D1*
X6261108Y527809D2*
Y501015D1*
X6281182Y527809D2*
X6261108Y509946D1*
X6268271Y516357D2*
X6281182Y501015D1*
X6293683Y527809D2*
Y487617D1*
Y522061D2*
X6297486Y525864D1*
X6301332Y527809D1*
X6307080D1*
X6310883Y525864D1*
X6314730Y522061D1*
X6316631Y516313D1*
Y512466D1*
X6314730Y506763D1*
X6310883Y502916D1*
X6307080Y501015D1*
X6301332D1*
X6297486Y502916D1*
X6293683Y506763D1*
X6352080Y527809D2*
Y501015D1*
Y522061D2*
X6348278Y525908D1*
X6344431Y527809D1*
X6338727D1*
X6334880Y525908D1*
X6331078Y522061D1*
X6329132Y516313D1*
Y512511D1*
X6331078Y506763D1*
X6334880Y502960D1*
X6338727Y501015D1*
X6344431D1*
X6348278Y502960D1*
X6352080Y506763D1*
X6366483Y527809D2*
Y501015D1*
X6360027Y541207D2*
X6361928Y539305D1*
X6363564Y541207D1*
X6361928Y543152D1*
X6360027Y541207D1*
X6372938D2*
X6371037Y539305D1*
X6369401Y541207D1*
X6371037Y543152D1*
X6372938Y541207D1*
X6385439Y527809D2*
Y501015D1*
X6405513Y527809D2*
Y501015D1*
X6385439Y515031D2*
X6405513D1*
X6418015Y541207D2*
X6419916Y539305D1*
X6421861Y541207D1*
X6419916Y543152D1*
X6418015Y541207D1*
X6419916Y527809D2*
Y501015D1*
X6438210Y502916D2*
X6436264Y501015D1*
X6434363Y502916D1*
X6436264Y504861D1*
X6438210Y502916D1*
Y499113D1*
X6436264Y495267D1*
X6434363Y493365D1*
X6491687Y531612D2*
Y533513D1*
X6493588Y537360D1*
X6495490Y539261D1*
X6499336Y541162D1*
X6506986D1*
X6510788Y539261D1*
X6512689Y537360D1*
X6514635Y533513D1*
Y529710D1*
X6512689Y525864D1*
X6508887Y520160D1*
X6489742Y501015D1*
X6516536D1*
X6540534Y541162D2*
X6534786Y539261D1*
X6530939Y533513D1*
X6529038Y523962D1*
Y518214D1*
X6530939Y508664D1*
X6534786Y502916D1*
X6540534Y501015D1*
X6544336D1*
X6550084Y502916D1*
X6553887Y508664D1*
X6555832Y518214D1*
Y523962D1*
X6553887Y533513D1*
X6550084Y539261D1*
X6544336Y541162D1*
X6540534D1*
X6553887Y533513D2*
X6530939Y508664D1*
X6570279Y531612D2*
Y533513D1*
X6572180Y537360D1*
X6574082Y539261D1*
X6577928Y541162D1*
X6585578D1*
X6589380Y539261D1*
X6591281Y537360D1*
X6593227Y533513D1*
Y529710D1*
X6591281Y525864D1*
X6587479Y520160D1*
X6568333Y501015D1*
X6595128D1*
X6611476Y541162D2*
X6632479D1*
X6621027Y525864D1*
X6626775D1*
X6630577Y523962D1*
X6632479Y522061D1*
X6634424Y516313D1*
Y512511D1*
X6632479Y506763D1*
X6628676Y502916D1*
X6622928Y501015D1*
X6617180D1*
X6611476Y502916D1*
X6609575Y504861D1*
X6607629Y508664D1*
X5524396Y1338852D2*
D108*
Y1356051D1*
X5522450Y1361800D1*
X5520549Y1363745D1*
X5516746Y1365646D1*
X5512899D1*
X5509097Y1363745D1*
X5507151Y1361800D1*
X5505250Y1356051D1*
Y1338852D1*
X5545442D1*
X5524396Y1352249D2*
X5545442Y1365646D1*
X5505250Y1377457D2*
X5545442Y1387052D1*
X5505250Y1396603D1*
X5545442Y1406153D1*
X5505250Y1415748D1*
X5494771Y1338852D2*
Y1427559D1*
X7955709Y2691207D2*
Y2651015D1*
X7969465Y2681612D2*
Y2683513D1*
X7971366Y2687360D1*
X7973268Y2689261D1*
X7977114Y2691162D1*
X7984764D1*
X7988566Y2689261D1*
X7990468Y2687360D1*
X7992413Y2683513D1*
Y2679710D1*
X7990468Y2675864D1*
X7986665Y2670160D1*
X7967520Y2651015D1*
X7994314D1*
X8034821Y2681656D2*
X8032920Y2685459D1*
X8029073Y2689305D1*
X8025271Y2691207D1*
X8017621D1*
X8013775Y2689305D1*
X8009972Y2685459D1*
X8008027Y2681656D1*
X8006125Y2675908D1*
Y2666313D1*
X8008027Y2660609D1*
X8009972Y2656763D1*
X8013775Y2652960D1*
X8017621Y2651015D1*
X8025271D1*
X8029073Y2652960D1*
X8032920Y2656763D1*
X8034821Y2660609D1*
X6230709Y891207D2*
Y851015D1*
X6244106D1*
X6249854Y852960D1*
X6253701Y856763D1*
X6255602Y860609D1*
X6257503Y866313D1*
Y875908D1*
X6255602Y881656D1*
X6253701Y885459D1*
X6249854Y889305D1*
X6244106Y891207D1*
X6230709D1*
X6292262Y877809D2*
Y851015D1*
Y872061D2*
X6288460Y875908D1*
X6284613Y877809D1*
X6278909D1*
X6275062Y875908D1*
X6271260Y872061D1*
X6269314Y866313D1*
Y862511D1*
X6271260Y856763D1*
X6275062Y852960D1*
X6278909Y851015D1*
X6284613D1*
X6288460Y852960D1*
X6292262Y856763D1*
X6309821Y891207D2*
Y858664D1*
X6311723Y852960D1*
X6315569Y851015D1*
X6319372D1*
X6304073Y877809D2*
X6317471D1*
X6354131D2*
Y851015D1*
Y872061D2*
X6350328Y875908D1*
X6346482Y877809D1*
X6340778D1*
X6336931Y875908D1*
X6333128Y872061D1*
X6331183Y866313D1*
Y862511D1*
X6333128Y856763D1*
X6336931Y852960D1*
X6340778Y851015D1*
X6346482D1*
X6350328Y852960D1*
X6354131Y856763D1*
X5259405Y1381656D2*
X5257503Y1385459D1*
X5253657Y1389305D1*
X5249854Y1391207D1*
X5242205D1*
X5238358Y1389305D1*
X5234555Y1385459D1*
X5232610Y1381656D1*
X5230709Y1375908D1*
Y1366313D1*
X5232610Y1360609D1*
X5234555Y1356763D1*
X5238358Y1352960D1*
X5242205Y1351015D1*
X5249854D1*
X5253657Y1352960D1*
X5257503Y1356763D1*
X5259405Y1360609D1*
X5280766Y1377809D2*
X5276964Y1375908D1*
X5273117Y1372061D1*
X5271216Y1366313D1*
Y1362511D1*
X5273117Y1356763D1*
X5276964Y1352960D1*
X5280766Y1351015D1*
X5286514D1*
X5290361Y1352960D1*
X5294164Y1356763D1*
X5296109Y1362511D1*
Y1366313D1*
X5294164Y1372061D1*
X5290361Y1375908D1*
X5286514Y1377809D1*
X5280766D1*
X5307920D2*
Y1351015D1*
Y1370160D2*
X5313668Y1375908D1*
X5317515Y1377809D1*
X5323219D1*
X5327065Y1375908D1*
X5328967Y1370160D1*
Y1351015D1*
X5346526Y1391207D2*
Y1358664D1*
X5348427Y1352960D1*
X5352274Y1351015D1*
X5356076D1*
X5340778Y1377809D2*
X5354175D1*
X5367887D2*
Y1351015D1*
Y1366313D2*
X5369833Y1372061D1*
X5373635Y1375908D1*
X5377482Y1377809D1*
X5383230D1*
X5404592D2*
X5400789Y1375908D1*
X5396942Y1372061D1*
X5395041Y1366313D1*
Y1362511D1*
X5396942Y1356763D1*
X5400789Y1352960D1*
X5404592Y1351015D1*
X5410340D1*
X5414187Y1352960D1*
X5417989Y1356763D1*
X5419935Y1362511D1*
Y1366313D1*
X5417989Y1372061D1*
X5414187Y1375908D1*
X5410340Y1377809D1*
X5404592D1*
X5431746Y1391207D2*
Y1351015D1*
X6230709Y1391207D2*
Y1351015D1*
X6254016Y1391207D2*
X6250169Y1389305D1*
X6246366Y1385459D1*
X6244421Y1381656D1*
X6242520Y1375908D1*
Y1366313D1*
X6244421Y1360609D1*
X6246366Y1356763D1*
X6250169Y1352960D1*
X6254016Y1351015D1*
X6261665D1*
X6265468Y1352960D1*
X6269314Y1356763D1*
X6271216Y1360609D1*
X6273117Y1366313D1*
Y1375908D1*
X6271216Y1381656D1*
X6269314Y1385459D1*
X6265468Y1389305D1*
X6261665Y1391207D1*
X6254016D1*
X6309777D2*
X6284928D1*
Y1351015D1*
X6309777D1*
X6284928Y1372061D2*
X6300227D1*
X6348383Y1391207D2*
Y1351015D1*
X6321588Y1391207D1*
Y1351015D1*
X6284928Y1401686D2*
X6360194D1*
X6373591D2*
X6360194D1*
Y1340491D1*
X6373591D1*
X6408350Y1391162D2*
X6389249D1*
X6387348Y1373962D1*
X6389249Y1375864D1*
X6394997Y1377809D1*
X6400701D1*
X6406449Y1375864D1*
X6410296Y1372061D1*
X6412197Y1366313D1*
Y1362511D1*
X6410296Y1356763D1*
X6406449Y1352916D1*
X6400701Y1351015D1*
X6394997D1*
X6389249Y1352916D1*
X6387348Y1354861D1*
X6385402Y1358664D1*
X6425909Y1354861D2*
X6424008Y1352916D1*
X6425909Y1351015D1*
X6427855Y1352916D1*
X6425909Y1354861D1*
X6441567D2*
X6439666Y1352916D1*
X6441567Y1351015D1*
X6443512Y1352916D1*
X6441567Y1354861D1*
X6462973Y1351015D2*
X6482118Y1391162D1*
X6455323D1*
X6493929Y1401686D2*
X6507326D1*
Y1340491D1*
X6493929D1*
X5261350Y851015D2*
X5246007Y891207D1*
X5230709Y851015D1*
X5236457Y864412D2*
X5255602D1*
X5296109Y891207D2*
Y851015D1*
Y872061D2*
X5292306Y875908D1*
X5288460Y877809D1*
X5282712D1*
X5278909Y875908D1*
X5275062Y872061D1*
X5273161Y866313D1*
Y862511D1*
X5275062Y856763D1*
X5278909Y852960D1*
X5282712Y851015D1*
X5288460D1*
X5292306Y852960D1*
X5296109Y856763D1*
X5330868Y891207D2*
Y851015D1*
Y872061D2*
X5327065Y875908D1*
X5323219Y877809D1*
X5317471D1*
X5313668Y875908D1*
X5309821Y872061D1*
X5307920Y866313D1*
Y862511D1*
X5309821Y856763D1*
X5313668Y852960D1*
X5317471Y851015D1*
X5323219D1*
X5327065Y852960D1*
X5330868Y856763D1*
X5342679Y877809D2*
Y851015D1*
Y866313D2*
X5344624Y872061D1*
X5348427Y875908D1*
X5352274Y877809D1*
X5358022D1*
X5705250Y1338852D2*
X5745442Y1348446D1*
X5705250Y1357997D1*
X5745442Y1367548D1*
X5705250Y1377142D1*
Y1388953D2*
X5745442D1*
Y1402351D1*
X5743497Y1408099D1*
X5739694Y1411945D1*
X5735847Y1413847D1*
X5730144Y1415748D1*
X5720549D1*
X5714801Y1413847D1*
X5710998Y1411945D1*
X5707151Y1408099D1*
X5705250Y1402351D1*
Y1388953D1*
X5694771Y1338852D2*
Y1427559D1*
X5233661Y761918D2*
D109*
Y708328D1*
Y746619D2*
X5245157Y758115D1*
X5252851Y761918D1*
X5264259D1*
X5271952Y758115D1*
X5275755Y746619D1*
Y708328D1*
Y746619D2*
X5287251Y758115D1*
X5294944Y761918D1*
X5306352D1*
X5314045Y758115D1*
X5317936Y746619D1*
Y708328D1*
X5387454Y777216D2*
X5383652Y784821D1*
X5372156Y788624D1*
X5364551D1*
X5353055Y784821D1*
X5345361Y773325D1*
X5341558Y754224D1*
Y735123D1*
X5345361Y719824D1*
X5353055Y712131D1*
X5364551Y708328D1*
X5368353D1*
X5379761Y712131D1*
X5387454Y719824D1*
X5391257Y731320D1*
Y735123D1*
X5387454Y746619D1*
X5379761Y754224D1*
X5368353Y758027D1*
X5364551D1*
X5353055Y754224D1*
X5345361Y746619D1*
X5341558Y735123D1*
X5460775Y788624D2*
X5422572D1*
X5418770Y754224D1*
X5422572Y758027D1*
X5434068Y761918D1*
X5445476D1*
X5456972Y758027D1*
X5464666Y750422D1*
X5468468Y738925D1*
Y731320D1*
X5464666Y719824D1*
X5456972Y712131D1*
X5445476Y708328D1*
X5434068D1*
X5422572Y712131D1*
X5418770Y716022D1*
X5414879Y723627D1*
X5515082Y788624D2*
X5503586Y784821D1*
X5495893Y773325D1*
X5492090Y754224D1*
Y742728D1*
X5495893Y723627D1*
X5503586Y712131D1*
X5515082Y708328D1*
X5522687D1*
X5534184Y712131D1*
X5541789Y723627D1*
X5545680Y742728D1*
Y754224D1*
X5541789Y773325D1*
X5534184Y784821D1*
X5522687Y788624D1*
X5515082D1*
X5541789Y773325D2*
X5495893Y723627D1*
X5573193Y769523D2*
Y773325D1*
X5576995Y781019D1*
X5580798Y784821D1*
X5588491Y788624D1*
X5603790D1*
X5611395Y784821D1*
X5615197Y781019D1*
X5619088Y773325D1*
Y765720D1*
X5615197Y758027D1*
X5607592Y746619D1*
X5569302Y708328D1*
X5622891D1*
X5776783Y777216D2*
X5769178Y784910D1*
X5757682Y788712D1*
X5742383D1*
X5730887Y784910D1*
X5723194Y777216D1*
Y769611D1*
X5727085Y761918D1*
X5730887Y758115D1*
X5738492Y754313D1*
X5761485Y746619D1*
X5769178Y742816D1*
X5772981Y738925D1*
X5776783Y731320D1*
Y719824D1*
X5769178Y712219D1*
X5757682Y708328D1*
X5742383D1*
X5730887Y712219D1*
X5723194Y719824D1*
X5800405Y788712D2*
Y708328D1*
X5834893D1*
X5846389Y712219D1*
X5850192Y716022D1*
X5853995Y723627D1*
Y735123D1*
X5850192Y742816D1*
X5846389Y746619D1*
X5834893Y750422D1*
X5846389Y754313D1*
X5850192Y758115D1*
X5853995Y765720D1*
Y773414D1*
X5850192Y781019D1*
X5846389Y784910D1*
X5834893Y788712D1*
X5800405D1*
Y750422D2*
X5834893D1*
X5935008Y769611D2*
X5931206Y777216D1*
X5923512Y784910D1*
X5915907Y788712D1*
X5900609D1*
X5892915Y784910D1*
X5885310Y777216D1*
X5881419Y769611D1*
X5877617Y758115D1*
Y738925D1*
X5881419Y727518D1*
X5885310Y719824D1*
X5892915Y712219D1*
X5900609Y708328D1*
X5915907D1*
X5923512Y712219D1*
X5931206Y719824D1*
X5935008Y727518D1*
X5905250Y1334690D2*
D108*
X5945442D1*
X5924396Y1346501D2*
Y1363701D1*
X5922450Y1369449D1*
X5920549Y1371394D1*
X5916746Y1373296D1*
X5912899D1*
X5909097Y1371394D1*
X5907151Y1369449D1*
X5905250Y1363701D1*
Y1346501D1*
X5945442D1*
X5924396Y1359898D2*
X5945442Y1373296D1*
X5905250Y1396603D2*
X5907107Y1392800D1*
X5910954Y1388953D1*
X5914801Y1387052D1*
X5920549Y1385107D1*
X5930099D1*
X5935847Y1387052D1*
X5939650Y1388953D1*
X5943497Y1392800D1*
X5945398Y1396603D1*
Y1404252D1*
X5943497Y1408099D1*
X5939650Y1411901D1*
X5935847Y1413803D1*
X5930099Y1415748D1*
X5920549D1*
X5914801Y1413803D1*
X5910954Y1411901D1*
X5907107Y1408099D1*
X5905250Y1404252D1*
Y1396603D1*
X5937749Y1402351D2*
X5949245Y1413803D1*
X5894771Y1334690D2*
Y1427559D1*
X7196422Y504018D2*
X7213666D1*
X7219370Y505919D1*
X7221316Y507865D1*
X7223217Y511667D1*
Y517416D1*
X7221316Y521218D1*
X7219370Y523164D1*
X7213666Y525065D1*
X7196422D1*
Y484873D1*
X7235028Y525065D2*
X7244623Y484873D1*
X7254173Y525065D1*
X7263724Y484873D1*
X7273319Y525065D1*
X7285130Y505919D2*
X7302329D1*
X7308078Y507865D1*
X7310023Y509766D1*
X7311924Y513569D1*
Y517416D1*
X7310023Y521218D1*
X7308078Y523164D1*
X7302329Y525065D1*
X7285130D1*
Y484873D1*
X7298527Y505919D2*
X7311924Y484873D1*
X7403143Y505919D2*
X7420343D1*
X7426091Y507865D1*
X7428036Y509766D1*
X7429938Y513569D1*
Y517416D1*
X7428036Y521218D1*
X7426091Y523164D1*
X7420343Y525065D1*
X7403143D1*
Y484873D1*
X7416540Y505919D2*
X7429938Y484873D1*
X7466598Y525065D2*
X7441749D1*
Y484873D1*
X7466598D1*
X7441749Y505919D2*
X7457047D1*
X7505204Y519317D2*
X7501401Y523164D1*
X7495653Y525065D1*
X7488004D1*
X7482256Y523164D1*
X7478409Y519317D1*
Y515514D1*
X7480354Y511667D1*
X7482256Y509766D1*
X7486058Y507865D1*
X7497554Y504018D1*
X7501401Y502117D1*
X7503302Y500171D1*
X7505204Y496369D1*
Y490621D1*
X7501401Y486818D1*
X7495653Y484873D1*
X7488004D1*
X7482256Y486818D1*
X7478409Y490621D1*
X6205881Y730086D2*
D107*
X6220251Y696593D1*
X6234566Y730086D1*
X6261438Y746778D2*
X6254252Y744401D1*
X6249444Y737216D1*
X6247067Y725278D1*
Y718093D1*
X6249444Y706155D1*
X6254252Y698970D1*
X6261438Y696593D1*
X6266191D1*
X6273376Y698970D1*
X6278129Y706155D1*
X6280561Y718093D1*
Y725278D1*
X6278129Y737216D1*
X6273376Y744401D1*
X6266191Y746778D1*
X6261438D1*
X6278129Y737216D2*
X6249444Y706155D1*
X6295439Y701401D2*
X6293062Y698970D1*
X6295439Y696593D1*
X6297871Y698970D1*
X6295439Y701401D1*
X6310372Y737216D2*
X6315180Y739648D1*
X6322365Y746778D1*
Y696593D1*
X6363552Y739648D2*
X6361175Y744401D1*
X6353990Y746778D1*
X6349237D1*
X6342052Y744401D1*
X6337243Y737216D1*
X6334867Y725278D1*
Y713340D1*
X6337243Y703778D1*
X6342052Y698970D1*
X6349237Y696593D1*
X6351613D1*
X6358743Y698970D1*
X6363552Y703778D1*
X6365928Y710963D1*
Y713340D1*
X6363552Y720525D1*
X6358743Y725278D1*
X6351613Y727654D1*
X6349237D1*
X6342052Y725278D1*
X6337243Y720525D1*
X6334867Y713340D1*
X5624396Y1350348D2*
D108*
Y1367548D1*
X5622450Y1373296D1*
X5620549Y1375241D1*
X5616746Y1377142D1*
X5612899D1*
X5609097Y1375241D1*
X5607151Y1373296D1*
X5605250Y1367548D1*
Y1350348D1*
X5645442D1*
X5624396Y1363745D2*
X5645442Y1377142D1*
X5605250Y1388953D2*
X5645442D1*
Y1402351D1*
X5643497Y1408099D1*
X5639694Y1411945D1*
X5635847Y1413847D1*
X5630144Y1415748D1*
X5620549D1*
X5614801Y1413847D1*
X5610998Y1411945D1*
X5607151Y1408099D1*
X5605250Y1402351D1*
Y1388953D1*
X5594771Y1350348D2*
Y1427559D1*
X5826297Y1354990D2*
Y1367592D1*
X5824396Y1373296D1*
X5822450Y1375241D1*
X5818647Y1377142D1*
X5812899D1*
X5809097Y1375241D1*
X5807151Y1373296D1*
X5805250Y1367592D1*
Y1361623D1*
Y1354990D2*
X5845442D1*
X5805250Y1361623D2*
X5806842Y1354990D1*
X5826297D2*
Y1342389D1*
X5824396Y1336685D1*
X5822450Y1334740D1*
X5818647Y1332838D1*
X5812899D1*
X5809097Y1334740D1*
X5807151Y1336685D1*
X5805250Y1342389D1*
Y1348358D1*
X5806842Y1354990D1*
X5814845Y1390899D2*
X5812944D1*
X5809097Y1392800D1*
X5807196Y1394701D1*
X5805294Y1398548D1*
Y1406197D1*
X5807196Y1410000D1*
X5809097Y1411901D1*
X5812944Y1413847D1*
X5816746D1*
X5820593Y1411901D1*
X5826297Y1408099D1*
X5845442Y1388953D1*
Y1415748D1*
X7655709Y2291207D2*
X7671007Y2251015D1*
X7686306Y2291207D1*
X7698117D2*
Y2251015D1*
X7740569D2*
X7725227Y2291207D1*
X7709928Y2251015D1*
X7715676Y2264412D2*
X7734821D1*
X7752380Y2244382D2*
X7788726D1*
X7831178Y2251015D2*
X7815835Y2291207D1*
X7800537Y2251015D1*
X7806285Y2264412D2*
X7825430D1*
X7676033Y502967D2*
X7693233D1*
X7698981Y504912D1*
X7700927Y506813D1*
X7702828Y510616D1*
Y514463D1*
X7700927Y518265D1*
X7698981Y520211D1*
X7693233Y522112D1*
X7676033D1*
Y481920D1*
X7689431Y502967D2*
X7702828Y481920D1*
X7714639Y497219D2*
X7737587D1*
Y501065D1*
X7735686Y504912D1*
X7733784Y506813D1*
X7729938Y508715D1*
X7724190D1*
X7720387Y506813D1*
X7716540Y502967D1*
X7714639Y497219D1*
Y493416D1*
X7716540Y487668D1*
X7720387Y483866D1*
X7724190Y481920D1*
X7729938D1*
X7733784Y483866D1*
X7737587Y487668D1*
X7770445Y502967D2*
X7768543Y506813D1*
X7762795Y508715D1*
X7757047D1*
X7751299Y506813D1*
X7749398Y502967D1*
X7751299Y499164D1*
X7755146Y497219D1*
X7764697Y495317D1*
X7768543Y493416D1*
X7770445Y489569D1*
Y487668D1*
X7768543Y483866D1*
X7762795Y481920D1*
X7757047D1*
X7751299Y483866D1*
X7749398Y487668D1*
X7782256Y497219D2*
X7805204D1*
Y501065D1*
X7803302Y504912D1*
X7801401Y506813D1*
X7797554Y508715D1*
X7791806D1*
X7788004Y506813D1*
X7784157Y502967D1*
X7782256Y497219D1*
Y493416D1*
X7784157Y487668D1*
X7788004Y483866D1*
X7791806Y481920D1*
X7797554D1*
X7801401Y483866D1*
X7805204Y487668D1*
X7822763Y522112D2*
Y489569D1*
X7824664Y483866D1*
X7828511Y481920D1*
X7832313D1*
X7817015Y508715D2*
X7830412D1*
X6024396Y1313687D2*
Y1330887D1*
X6022450Y1336635D1*
X6020549Y1338581D1*
X6016746Y1340482D1*
X6012899D1*
X6009097Y1338581D1*
X6007151Y1336635D1*
X6005250Y1330887D1*
Y1313687D1*
X6045442D1*
X6024396Y1327085D2*
X6045442Y1340482D1*
X6005250Y1377142D2*
Y1352293D1*
X6045442D1*
Y1377142D1*
X6024396Y1352293D2*
Y1367592D1*
X6010998Y1415748D2*
X6007151Y1411945D1*
X6005250Y1406197D1*
Y1398548D1*
X6007151Y1392800D1*
X6010998Y1388953D1*
X6014801D1*
X6018647Y1390899D1*
X6020549Y1392800D1*
X6022450Y1396603D1*
X6026297Y1408099D1*
X6028198Y1411945D1*
X6030144Y1413847D1*
X6033946Y1415748D1*
X6039694D1*
X6043497Y1411945D1*
X6045442Y1406197D1*
Y1398548D1*
X6043497Y1392800D1*
X6039694Y1388953D1*
X5994771Y1313687D2*
Y1427559D1*
X5233661Y646833D2*
D109*
Y596593D1*
Y622901D2*
X5238470Y627710D1*
X5243223Y630086D1*
X5250408D1*
X5255161Y627710D1*
X5259970Y622901D1*
X5262346Y615716D1*
Y610963D1*
X5259970Y603778D1*
X5255161Y599025D1*
X5250408Y596593D1*
X5243223D1*
X5238470Y599025D1*
X5233661Y603778D1*
X5288400Y630086D2*
X5302715Y596593D1*
X5297962Y587031D1*
X5293153Y582223D1*
X5288400Y579846D1*
X5285968D1*
X5317085Y630086D2*
X5302715Y596593D1*
X5435793D2*
X5416614Y646833D1*
X5397491Y596593D1*
X5404676Y613340D2*
X5428608D1*
X5459415Y630086D2*
Y596593D1*
Y620525D2*
X5466600Y627710D1*
X5471408Y630086D1*
X5478538D1*
X5483346Y627710D1*
X5485723Y620525D1*
Y596593D1*
X5538030Y646833D2*
Y596593D1*
Y622901D2*
X5533277Y627710D1*
X5528468Y630086D1*
X5521283D1*
X5516530Y627710D1*
X5511722Y622901D1*
X5509345Y615716D1*
Y610963D1*
X5511722Y603778D1*
X5516530Y599025D1*
X5521283Y596593D1*
X5528468D1*
X5533277Y599025D1*
X5538030Y603778D1*
X5561652Y630086D2*
Y596593D1*
Y615716D2*
X5564084Y622901D1*
X5568837Y627710D1*
X5573646Y630086D1*
X5580831D1*
X5604453Y615716D2*
X5633137D1*
Y620525D1*
X5630761Y625333D1*
X5628384Y627710D1*
X5623576Y630086D1*
X5616391D1*
X5611638Y627710D1*
X5606829Y622901D1*
X5604453Y615716D1*
Y610963D1*
X5606829Y603778D1*
X5611638Y599025D1*
X5616391Y596593D1*
X5623576D1*
X5628384Y599025D1*
X5633137Y603778D1*
X5656760Y630086D2*
X5666321Y596593D1*
X5675883Y630086D1*
X5685444Y596593D1*
X5695006Y630086D1*
X5775412Y646833D2*
Y596593D1*
X5792159D1*
X5799344Y599025D1*
X5804152Y603778D1*
X5806529Y608586D1*
X5808905Y615716D1*
Y627710D1*
X5806529Y634895D1*
X5804152Y639648D1*
X5799344Y644456D1*
X5792159Y646833D1*
X5775412D1*
X5832527Y630086D2*
Y606155D1*
X5834904Y599025D1*
X5839712Y596593D1*
X5846897D1*
X5851651Y599025D1*
X5858836Y606155D1*
Y630086D2*
Y596593D1*
X5882458Y630086D2*
Y596593D1*
Y620525D2*
X5889643Y627710D1*
X5894451Y630086D1*
X5901581D1*
X5906389Y627710D1*
X5908766Y620525D1*
Y596593D1*
X5961073Y630086D2*
Y596593D1*
Y622901D2*
X5956320Y627710D1*
X5951511Y630086D1*
X5944381D1*
X5939573Y627710D1*
X5934820Y622901D1*
X5932388Y615716D1*
Y610963D1*
X5934820Y603778D1*
X5939573Y599025D1*
X5944381Y596593D1*
X5951511D1*
X5956320Y599025D1*
X5961073Y603778D1*
X5984695Y646833D2*
X5987071Y644456D1*
X5989503Y646833D1*
X5987071Y649265D1*
X5984695Y646833D1*
X5987071Y630086D2*
Y596593D1*
X6115341Y630086D2*
X6112909D1*
X6110532Y627654D1*
X6108156Y622901D1*
X6103347Y610963D1*
X6098594Y603778D1*
X6093841Y598970D1*
X6089032Y596593D1*
X6079471D1*
X6074718Y598970D1*
X6072286Y601401D1*
X6069909Y606155D1*
Y610963D1*
X6072286Y615716D1*
X6074718Y618093D1*
X6091409Y627654D1*
X6093841Y630086D1*
X6096217Y634839D1*
Y639648D1*
X6093841Y644401D1*
X6089032Y646778D1*
X6084279Y644401D1*
X6081847Y639648D1*
Y634839D1*
X6084279Y627654D1*
X6089032Y620525D1*
X6100971Y603778D1*
X6105779Y598970D1*
X6110532Y596593D1*
X6115341D1*
X6224431Y639648D2*
X6222055Y644401D1*
X6214870Y646778D1*
X6210117D1*
X6202932Y644401D1*
X6198123Y637216D1*
X6195747Y625278D1*
Y613340D1*
X6198123Y603778D1*
X6202932Y598970D1*
X6210117Y596593D1*
X6212493D1*
X6219623Y598970D1*
X6224431Y603778D1*
X6226808Y610963D1*
Y613340D1*
X6224431Y620525D1*
X6219623Y625278D1*
X6212493Y627654D1*
X6210117D1*
X6202932Y625278D1*
X6198123Y620525D1*
X6195747Y613340D1*
X6279115Y646778D2*
X6255238D1*
X6252862Y625278D1*
X6255238Y627654D1*
X6262424Y630086D1*
X6269553D1*
X6276738Y627654D1*
X6281547Y622901D1*
X6283923Y615716D1*
Y610963D1*
X6281547Y603778D1*
X6276738Y598970D1*
X6269553Y596593D1*
X6262424D1*
X6255238Y598970D1*
X6252862Y601401D1*
X6250430Y606155D1*
X6321916Y646778D2*
X6314730Y644401D1*
X6309922Y637216D1*
X6307545Y625278D1*
Y618093D1*
X6309922Y606155D1*
X6314730Y598970D1*
X6321916Y596593D1*
X6326669D1*
X6333854Y598970D1*
X6338607Y606155D1*
X6341039Y618093D1*
Y625278D1*
X6338607Y637216D1*
X6333854Y644401D1*
X6326669Y646778D1*
X6321916D1*
X6338607Y637216D2*
X6309922Y606155D1*
X6367093Y634839D2*
Y637216D1*
X6369469Y642025D1*
X6371846Y644401D1*
X6376654Y646778D1*
X6386216D1*
X6390969Y644401D1*
X6393346Y642025D1*
X6395778Y637216D1*
Y632463D1*
X6393346Y627654D1*
X6388593Y620525D1*
X6364661Y596593D1*
X6398154D1*
X6424153Y601401D2*
X6421776Y598970D1*
X6424153Y596593D1*
X6426585Y598970D1*
X6424153Y601401D1*
X6462145Y630086D2*
X6457392Y627710D1*
X6452583Y622901D1*
X6450207Y615716D1*
Y610963D1*
X6452583Y603778D1*
X6457392Y599025D1*
X6462145Y596593D1*
X6469330D1*
X6474138Y599025D1*
X6478892Y603778D1*
X6481323Y610963D1*
Y615716D1*
X6478892Y622901D1*
X6474138Y627710D1*
X6469330Y630086D1*
X6462145D1*
X6504945D2*
Y596593D1*
Y615716D2*
X6507377Y622901D1*
X6512131Y627710D1*
X6516939Y630086D1*
X6524124D1*
X6576431Y627710D2*
Y589408D1*
X6574054Y582278D1*
X6571678Y579846D1*
X6566869Y577470D1*
X6559684D1*
X6554931Y579846D1*
X6576431Y620525D2*
X6571678Y625278D1*
X6566869Y627710D1*
X6559684D1*
X6554931Y625278D1*
X6550123Y620525D1*
X6547746Y613340D1*
Y608531D1*
X6550123Y601401D1*
X6554931Y596593D1*
X6559684Y594216D1*
X6566869D1*
X6571678Y596593D1*
X6576431Y601401D1*
X6685577Y622901D2*
X6680768Y627710D1*
X6675960Y630086D1*
X6668830D1*
X6664022Y627710D1*
X6659269Y622901D1*
X6656837Y615716D1*
Y610963D1*
X6659269Y603778D1*
X6664022Y599025D1*
X6668830Y596593D1*
X6675960D1*
X6680768Y599025D1*
X6685577Y603778D1*
X6721137Y630086D2*
X6716384Y627710D1*
X6711576Y622901D1*
X6709199Y615716D1*
Y610963D1*
X6711576Y603778D1*
X6716384Y599025D1*
X6721137Y596593D1*
X6728322D1*
X6733131Y599025D1*
X6737884Y603778D1*
X6740316Y610963D1*
Y615716D1*
X6737884Y622901D1*
X6733131Y627710D1*
X6728322Y630086D1*
X6721137D1*
X6763938D2*
Y596593D1*
Y620525D2*
X6771123Y627710D1*
X6775931Y630086D1*
X6783061D1*
X6787869Y627710D1*
X6790246Y620525D1*
Y596593D1*
Y620525D2*
X6797431Y627710D1*
X6802240Y630086D1*
X6809369D1*
X6814178Y627710D1*
X6816610Y620525D1*
Y596593D1*
X6840232Y630086D2*
Y596593D1*
Y620525D2*
X6847417Y627710D1*
X6852225Y630086D1*
X6859355D1*
X6864163Y627710D1*
X6866540Y620525D1*
Y596593D1*
Y620525D2*
X6873725Y627710D1*
X6878533Y630086D1*
X6885663D1*
X6890472Y627710D1*
X6892904Y620525D1*
Y596593D1*
X6916526Y630086D2*
Y606155D1*
X6918902Y599025D1*
X6923711Y596593D1*
X6930896D1*
X6935649Y599025D1*
X6942834Y606155D1*
Y630086D2*
Y596593D1*
X6966456Y630086D2*
Y596593D1*
Y620525D2*
X6973641Y627710D1*
X6978449Y630086D1*
X6985579D1*
X6990388Y627710D1*
X6992764Y620525D1*
Y596593D1*
X7016386Y646833D2*
X7018763Y644456D1*
X7021195Y646833D1*
X7018763Y649265D1*
X7016386Y646833D1*
X7018763Y630086D2*
Y596593D1*
X7052002Y646833D2*
Y606155D1*
X7054378Y599025D1*
X7059187Y596593D1*
X7063940D1*
X7044817Y630086D2*
X7061563D1*
X7089994D2*
X7104309Y596593D1*
X7099556Y587031D1*
X7094747Y582223D1*
X7089994Y579846D1*
X7087562D1*
X7118679Y630086D2*
X7104309Y596593D1*
X782891Y2203275D2*
D106*
X833131Y2236769D1*
X782891D2*
X833131Y2203275D1*
X794885Y2254640D2*
X792508D1*
X787700Y2257016D1*
X785323Y2259393D1*
X782947Y2264201D1*
Y2273763D1*
X785323Y2278516D1*
X787700Y2280893D1*
X792508Y2283325D1*
X797262D1*
X802070Y2280893D1*
X809200Y2276140D1*
X833131Y2252208D1*
Y2285701D1*
X2418973Y2506169D2*
X2440473D1*
X2447658Y2508601D1*
X2450090Y2510977D1*
X2452467Y2515731D1*
Y2520539D1*
X2450090Y2525292D1*
X2447658Y2527724D1*
X2440473Y2530101D1*
X2418973D1*
Y2479861D1*
X2435720Y2506169D2*
X2452467Y2479861D1*
X2506208D2*
X2487029Y2530101D1*
X2467906Y2479861D1*
X2475091Y2496607D2*
X2499023D1*
X2559893Y2479861D2*
Y2530101D1*
X2540770Y2479861D1*
X2521647Y2530101D1*
Y2479861D1*
X2575333Y2520484D2*
X2580141Y2522916D1*
X2587326Y2530045D1*
Y2479861D1*
X4408577Y2597901D2*
X4430076D1*
X4437261Y2600333D1*
X4439693Y2602710D1*
X4442070Y2607463D1*
Y2612271D1*
X4439693Y2617025D1*
X4437261Y2619456D1*
X4430076Y2621833D1*
X4408577D1*
Y2571593D1*
X4425323Y2597901D2*
X4442070Y2571593D1*
X4457509Y2612216D2*
X4462318Y2614648D1*
X4469503Y2621778D1*
Y2571593D1*
X4484942Y2612216D2*
X4489750Y2614648D1*
X4496935Y2621778D1*
Y2571593D1*
X5035326Y4213565D2*
X5054449Y4163325D1*
X5073573Y4213565D1*
X5089012D2*
Y4163325D1*
X5142753D2*
X5123574Y4213565D1*
X5104451Y4163325D1*
X5111636Y4180072D2*
X5135568D1*
X5158192Y4203948D2*
X5163001Y4206380D1*
X5170186Y4213510D1*
Y4163325D1*
X6182891Y981200D2*
X6221138D1*
X6228323Y978824D1*
X6230700Y976392D1*
X6233131Y971639D1*
Y966830D1*
X6230700Y962077D1*
X6228323Y959701D1*
X6221138Y957269D1*
X6216385D1*
X6182947Y1001448D2*
Y1027701D1*
X6202070Y1013386D1*
Y1020571D1*
X6204447Y1025324D1*
X6206823Y1027701D1*
X6214008Y1030133D1*
X6218761D1*
X6225946Y1027701D1*
X6230755Y1022948D1*
X6233131Y1015763D1*
Y1008578D1*
X6230755Y1001448D1*
X6228323Y999071D1*
X6223570Y996640D1*
X6182891Y1481200D2*
X6221138D1*
X6228323Y1478824D1*
X6230700Y1476392D1*
X6233131Y1471639D1*
Y1466830D1*
X6230700Y1462077D1*
X6228323Y1459701D1*
X6221138Y1457269D1*
X6216385D1*
X6233131Y1506201D2*
X6182947Y1530133D1*
Y1496640D1*
X7713385Y967601D2*
X7708632Y972409D1*
X7701447Y974786D1*
X7691885D1*
X7684700Y972409D1*
X7679892Y967601D1*
Y962848D1*
X7682323Y958039D1*
X7684700Y955662D1*
X7689453Y953286D1*
X7703823Y948477D1*
X7708632Y946101D1*
X7711008Y943669D1*
X7713385Y938916D1*
Y931731D1*
X7708632Y926978D1*
X7701447Y924546D1*
X7691885D1*
X7684700Y926978D1*
X7679892Y931731D1*
X7728824Y974786D2*
X7740818Y924546D1*
X7752756Y974786D1*
X7764694Y924546D1*
X7776688Y974786D1*
X7794559Y962792D2*
Y965169D1*
X7796935Y969977D1*
X7799312Y972354D1*
X7804120Y974730D1*
X7813682D1*
X7818435Y972354D1*
X7820812Y969977D1*
X7823244Y965169D1*
Y960416D1*
X7820812Y955607D1*
X7816059Y948477D1*
X7792127Y924546D1*
X7825620D1*
X6766102Y1416162D2*
D108*
X6747001D1*
X6745100Y1398962D1*
X6747001Y1400864D1*
X6752749Y1402809D1*
X6758453D1*
X6764201Y1400864D1*
X6768048Y1397061D1*
X6769949Y1391313D1*
Y1387511D1*
X6768048Y1381763D1*
X6764201Y1377916D1*
X6758453Y1376015D1*
X6752749D1*
X6747001Y1377916D1*
X6745100Y1379861D1*
X6743154Y1383664D1*
X6781760Y1416207D2*
X6797059Y1376015D1*
X6812357Y1416207D1*
X6768998Y1502809D2*
X6767053Y1497061D1*
X6763250Y1493214D1*
X6757502Y1491313D1*
X6755601D1*
X6749853Y1493214D1*
X6746051Y1497061D1*
X6744105Y1502809D1*
Y1504710D1*
X6746051Y1510459D1*
X6749853Y1514261D1*
X6755601Y1516162D1*
X6757502D1*
X6763250Y1514261D1*
X6767053Y1510459D1*
X6768998Y1502809D1*
Y1493214D1*
X6767053Y1483664D1*
X6763250Y1477916D1*
X6757502Y1476015D1*
X6753700D1*
X6747952Y1477916D1*
X6746051Y1481763D1*
X6780810Y1516207D2*
X6796108Y1476015D1*
X6811407Y1516207D1*
X7274576Y1238059D2*
D106*
X7296076D1*
X7303261Y1240491D1*
X7305693Y1242867D1*
X7308070Y1247620D1*
Y1252429D1*
X7305693Y1257182D1*
X7303261Y1259614D1*
X7296076Y1261990D1*
X7274576D1*
Y1211750D1*
X7291323Y1238059D2*
X7308070Y1211750D1*
X7354570Y1261990D2*
X7323509D1*
Y1211750D1*
X7354570D1*
X7323509Y1238059D2*
X7342632D1*
X7403503Y1254805D2*
X7398750Y1259614D1*
X7391565Y1261990D1*
X7382003D1*
X7374818Y1259614D1*
X7370010Y1254805D1*
Y1250052D1*
X7372441Y1245244D1*
X7374818Y1242867D1*
X7379571Y1240491D1*
X7393941Y1235682D1*
X7398750Y1233306D1*
X7401126Y1230874D1*
X7403503Y1226121D1*
Y1218935D1*
X7398750Y1214182D1*
X7391565Y1211750D1*
X7382003D1*
X7374818Y1214182D1*
X7370010Y1218935D1*
X7418942Y1252374D2*
X7423751Y1254805D1*
X7430936Y1261935D1*
Y1211750D1*
X6128294Y2184020D2*
X6123541Y2181643D1*
X6118733Y2176835D1*
X6116356Y2172082D1*
Y2162520D1*
X6118733Y2157712D1*
X6123541Y2152958D1*
X6128294Y2150527D1*
X6135479Y2148150D1*
X6147473D1*
X6154603Y2150527D1*
X6159411Y2152958D1*
X6164164Y2157712D1*
X6166596Y2162520D1*
Y2172082D1*
X6164164Y2176835D1*
X6159411Y2181643D1*
X6154603Y2184020D1*
X6116411Y2204268D2*
Y2230521D1*
X6135535Y2216206D1*
Y2223391D1*
X6137911Y2228144D1*
X6140288Y2230521D1*
X6147473Y2232952D1*
X6152226D1*
X6159411Y2230521D1*
X6164219Y2225767D1*
X6166596Y2218582D1*
Y2211397D1*
X6164219Y2204268D1*
X6161788Y2201891D1*
X6157034Y2199459D1*
X5914801Y2874365D2*
D15*
X5910998Y2872464D1*
X5907151Y2868617D1*
X5905250Y2864815D1*
Y2857165D1*
X5907151Y2853319D1*
X5910998Y2849516D1*
X5914801Y2847571D1*
X5920549Y2845669D1*
X5930144D1*
X5935847Y2847571D1*
X5939694Y2849516D1*
X5943497Y2853319D1*
X5945442Y2857165D1*
Y2864815D1*
X5943497Y2868617D1*
X5939694Y2872464D1*
X5935847Y2874365D1*
X5930144D1*
Y2864815D1*
X5905250Y2909034D2*
X5945442D1*
X5905250Y2882239D1*
X5945442D1*
X5905250Y2916908D2*
X5945442D1*
Y2930305D1*
X5943497Y2936053D1*
X5939694Y2939900D1*
X5935847Y2941801D1*
X5930144Y2943703D1*
X5920549D1*
X5914801Y2941801D1*
X5910998Y2939900D1*
X5907151Y2936053D1*
X5905250Y2930305D1*
Y2916908D1*
X6145442Y2876267D2*
X6105250D1*
X6145442Y2860968D1*
X6105250Y2845669D1*
X6145442D1*
X6105250Y2884141D2*
X6145442D1*
X6110998Y2918809D2*
X6107151Y2915007D1*
X6105250Y2909259D1*
Y2901609D1*
X6107151Y2895861D1*
X6110998Y2892015D1*
X6114801D1*
X6118647Y2893960D1*
X6120549Y2895861D1*
X6122450Y2899664D1*
X6126297Y2911160D1*
X6128198Y2915007D1*
X6130144Y2916908D1*
X6133946Y2918809D1*
X6139694D1*
X6143497Y2915007D1*
X6145442Y2909259D1*
Y2901609D1*
X6143497Y2895861D1*
X6139694Y2892015D1*
X6105250Y2938179D2*
X6107151Y2934333D1*
X6110998Y2930530D1*
X6114801Y2928584D1*
X6120549Y2926683D1*
X6130144D1*
X6135847Y2928584D1*
X6139694Y2930530D1*
X6143497Y2934333D1*
X6145442Y2938179D1*
Y2945829D1*
X6143497Y2949631D1*
X6139694Y2953478D1*
X6135847Y2955379D1*
X6130144Y2957280D1*
X6120549D1*
X6114801Y2955379D1*
X6110998Y2953478D1*
X6107151Y2949631D1*
X6105250Y2945829D1*
Y2938179D1*
X6005250Y2845669D2*
X6045442Y2860968D1*
X6005250Y2876267D1*
X6014801Y2912836D2*
X6010998Y2910935D1*
X6007151Y2907088D1*
X6005250Y2903286D1*
Y2895637D1*
X6007151Y2891790D1*
X6010998Y2887987D1*
X6014801Y2886042D1*
X6020549Y2884141D1*
X6030144D1*
X6035847Y2886042D1*
X6039694Y2887987D1*
X6043497Y2891790D1*
X6045442Y2895637D1*
Y2903286D1*
X6043497Y2907088D1*
X6039694Y2910935D1*
X6035847Y2912836D1*
X6014801Y2949406D2*
X6010998Y2947505D1*
X6007151Y2943658D1*
X6005250Y2939856D1*
Y2932207D1*
X6007151Y2928360D1*
X6010998Y2924557D1*
X6014801Y2922612D1*
X6020549Y2920710D1*
X6030144D1*
X6035847Y2922612D1*
X6039694Y2924557D1*
X6043497Y2928360D1*
X6045442Y2932207D1*
Y2939856D1*
X6043497Y2943658D1*
X6039694Y2947505D1*
X6035847Y2949406D1*
X6310998Y2872464D2*
X6307151Y2868661D1*
X6305250Y2862913D1*
Y2855264D1*
X6307151Y2849516D1*
X6310998Y2845669D1*
X6314801D1*
X6318647Y2847615D1*
X6320549Y2849516D1*
X6322450Y2853319D1*
X6326297Y2864815D1*
X6328198Y2868661D1*
X6330144Y2870563D1*
X6333946Y2872464D1*
X6339694D1*
X6343497Y2868661D1*
X6345442Y2862913D1*
Y2855264D1*
X6343497Y2849516D1*
X6339694Y2845669D1*
X6314801Y2909034D2*
X6310998Y2907133D1*
X6307151Y2903286D1*
X6305250Y2899483D1*
Y2891834D1*
X6307151Y2887987D1*
X6310998Y2884185D1*
X6314801Y2882239D1*
X6320549Y2880338D1*
X6330144D1*
X6335847Y2882239D1*
X6339694Y2884185D1*
X6343497Y2887987D1*
X6345442Y2891834D1*
Y2899483D1*
X6343497Y2903286D1*
X6339694Y2907133D1*
X6335847Y2909034D1*
X6305250Y2916908D2*
X6345442D1*
X6305250Y2943703D2*
X6332045Y2916908D1*
X6322450Y2926459D2*
X6345442Y2943703D1*
X6414801Y2874365D2*
X6410998Y2872464D1*
X6407151Y2868617D1*
X6405250Y2864815D1*
Y2857165D1*
X6407151Y2853319D1*
X6410998Y2849516D1*
X6414801Y2847571D1*
X6420549Y2845669D1*
X6430144D1*
X6435847Y2847571D1*
X6439694Y2849516D1*
X6443497Y2853319D1*
X6445442Y2857165D1*
Y2864815D1*
X6443497Y2868617D1*
X6439694Y2872464D1*
X6435847Y2874365D1*
X6410998Y2909034D2*
X6407151Y2905231D1*
X6405250Y2899483D1*
Y2891834D1*
X6407151Y2886086D1*
X6410998Y2882239D1*
X6414801D1*
X6418647Y2884185D1*
X6420549Y2886086D1*
X6422450Y2889889D1*
X6426297Y2901385D1*
X6428198Y2905231D1*
X6430144Y2907133D1*
X6433946Y2909034D1*
X6439694D1*
X6443497Y2905231D1*
X6445442Y2899483D1*
Y2891834D1*
X6443497Y2886086D1*
X6439694Y2882239D1*
X6394771Y2845669D2*
Y2916908D1*
X6245442Y2876267D2*
X6205250D1*
X6245442Y2860968D1*
X6205250Y2845669D1*
X6245442D1*
X6205250Y2895637D2*
X6207151Y2891790D1*
X6210998Y2887987D1*
X6214801Y2886042D1*
X6220549Y2884141D1*
X6230144D1*
X6235847Y2886042D1*
X6239694Y2887987D1*
X6243497Y2891790D1*
X6245442Y2895637D1*
Y2903286D1*
X6243497Y2907088D1*
X6239694Y2910935D1*
X6235847Y2912836D1*
X6230144Y2914738D1*
X6220549D1*
X6214801Y2912836D1*
X6210998Y2910935D1*
X6207151Y2907088D1*
X6205250Y2903286D1*
Y2895637D1*
X6210998Y2949406D2*
X6207151Y2945604D1*
X6205250Y2939856D1*
Y2932207D1*
X6207151Y2926459D1*
X6210998Y2922612D1*
X6214801D1*
X6218647Y2924557D1*
X6220549Y2926459D1*
X6222450Y2930261D1*
X6226297Y2941757D1*
X6228198Y2945604D1*
X6230144Y2947505D1*
X6233946Y2949406D1*
X6239694D1*
X6243497Y2945604D1*
X6245442Y2939856D1*
Y2932207D1*
X6243497Y2926459D1*
X6239694Y2922612D1*
X6205250Y2957280D2*
X6245442D1*
X5699624Y2781200D2*
D106*
X5737870D1*
X5745055Y2778824D1*
X5747432Y2776392D1*
X5749864Y2771639D1*
Y2766830D1*
X5747432Y2762077D1*
X5745055Y2759701D1*
X5737870Y2757269D1*
X5733117D1*
X5699679Y2825324D2*
Y2801448D1*
X5721179Y2799071D1*
X5718802Y2801448D1*
X5716370Y2808633D1*
Y2815763D1*
X5718802Y2822948D1*
X5723555Y2827756D1*
X5730740Y2830133D1*
X5735494D1*
X5742679Y2827756D1*
X5747487Y2822948D1*
X5749864Y2815763D1*
Y2808633D1*
X5747487Y2801448D1*
X5745055Y2799071D1*
X5740302Y2796640D1*
X5182891Y1481228D2*
X5221138D1*
X5228323Y1478851D1*
X5230700Y1476420D1*
X5233131Y1471666D1*
Y1466858D1*
X5230700Y1462105D1*
X5228323Y1459728D1*
X5221138Y1457296D1*
X5216385D1*
X5182947Y1508605D2*
X5185323Y1501476D1*
X5190076Y1499044D1*
X5194885D1*
X5199638Y1501476D1*
X5202070Y1506229D1*
X5204447Y1515790D1*
X5206823Y1522976D1*
X5211632Y1527729D1*
X5216385Y1530105D1*
X5223570D1*
X5228323Y1527729D1*
X5230755Y1525352D1*
X5233131Y1518167D1*
Y1508605D1*
X5230755Y1501476D1*
X5228323Y1499044D1*
X5223570Y1496667D1*
X5216385D1*
X5211632Y1499044D1*
X5206823Y1503852D1*
X5204447Y1510982D1*
X5202070Y1520544D1*
X5199638Y1525352D1*
X5194885Y1527729D1*
X5190076D1*
X5185323Y1525352D1*
X5182947Y1518167D1*
Y1508605D1*
X7748555Y1638771D2*
Y1660271D1*
X7746124Y1667456D1*
X7743747Y1669888D1*
X7738994Y1672265D1*
X7734185D1*
X7729432Y1669888D1*
X7727000Y1667456D1*
X7724624Y1660271D1*
Y1638771D1*
X7774864D1*
X7748555Y1655518D2*
X7774864Y1672265D1*
X7734241Y1687704D2*
X7731809Y1692512D1*
X7724679Y1699698D1*
X7774864D1*
X7724679Y1719945D2*
Y1746198D1*
X7743802Y1731883D1*
Y1739068D1*
X7746179Y1743822D1*
X7748555Y1746198D1*
X7755740Y1748630D1*
X7760494D1*
X7767679Y1746198D1*
X7772487Y1741445D1*
X7774864Y1734260D1*
Y1727075D1*
X7772487Y1719945D1*
X7770055Y1717569D1*
X7765302Y1715137D1*
X3757648Y4201627D2*
X3755272Y4206380D1*
X3750463Y4211189D1*
X3745710Y4213565D1*
X3736148D1*
X3731340Y4211189D1*
X3726587Y4206380D1*
X3724155Y4201627D1*
X3721778Y4194442D1*
Y4182449D1*
X3724155Y4175319D1*
X3726587Y4170510D1*
X3731340Y4165757D1*
X3736148Y4163325D1*
X3745710D1*
X3750463Y4165757D1*
X3755272Y4170510D1*
X3757648Y4175319D1*
X3773087Y4187257D2*
X3794643D1*
X3801772Y4189634D1*
X3804204Y4192065D1*
X3806581Y4196819D1*
Y4204004D1*
X3804204Y4208757D1*
X3801772Y4211189D1*
X3794643Y4213565D1*
X3773087D1*
Y4163325D1*
X3822020Y4213565D2*
Y4177695D1*
X3824397Y4170510D1*
X3829205Y4165757D1*
X3836390Y4163325D1*
X3841143D1*
X3848328Y4165757D1*
X3853137Y4170510D1*
X3855513Y4177695D1*
Y4213565D1*
X3870953Y4203948D2*
X3875761Y4206380D1*
X3882946Y4213510D1*
Y4163325D1*
X3110355Y2597901D2*
X3131854D1*
X3139040Y2600333D1*
X3141471Y2602710D1*
X3143848Y2607463D1*
Y2612271D1*
X3141471Y2617025D1*
X3139040Y2619456D1*
X3131854Y2621833D1*
X3110355D1*
Y2571593D1*
X3127101Y2597901D2*
X3143848Y2571593D1*
X3183219D2*
Y2621778D1*
X3159287Y2588340D1*
X3195157D1*
X2339318Y3483661D2*
X2334565Y3481284D1*
X2329756Y3476476D1*
X2327380Y3471723D1*
Y3462161D1*
X2329756Y3457353D1*
X2334565Y3452600D1*
X2339318Y3450168D1*
X2346503Y3447791D1*
X2358496D1*
X2365626Y3450168D1*
X2370435Y3452600D1*
X2375188Y3457353D1*
X2377620Y3462161D1*
Y3471723D1*
X2375188Y3476476D1*
X2370435Y3481284D1*
X2365626Y3483661D1*
X2334565Y3527785D2*
X2329811Y3525409D1*
X2327435Y3518223D1*
Y3513470D1*
X2329811Y3506285D1*
X2336997Y3501477D1*
X2348935Y3499100D1*
X2360873D1*
X2370435Y3501477D1*
X2375243Y3506285D1*
X2377620Y3513470D1*
Y3515847D1*
X2375243Y3522977D1*
X2370435Y3527785D1*
X2363250Y3530162D1*
X2360873D1*
X2353688Y3527785D1*
X2348935Y3522977D1*
X2346558Y3515847D1*
Y3513470D1*
X2348935Y3506285D1*
X2353688Y3501477D1*
X2360873Y3499100D1*
X4440312Y1707533D2*
X4437935Y1712286D1*
X4433127Y1717094D1*
X4428374Y1719471D1*
X4418812D1*
X4414004Y1717094D1*
X4409250Y1712286D1*
X4406819Y1707533D1*
X4404442Y1700348D1*
Y1688354D1*
X4406819Y1681224D1*
X4409250Y1676416D1*
X4414004Y1671663D1*
X4418812Y1669231D1*
X4428374D1*
X4433127Y1671663D1*
X4437935Y1676416D1*
X4440312Y1681224D1*
X4479683Y1669231D2*
Y1719416D1*
X4455751Y1685977D1*
X4491621D1*
X8048555Y1638771D2*
Y1660271D1*
X8046124Y1667456D1*
X8043747Y1669888D1*
X8038994Y1672265D1*
X8034185D1*
X8029432Y1669888D1*
X8027000Y1667456D1*
X8024624Y1660271D1*
Y1638771D1*
X8074864D1*
X8048555Y1655518D2*
X8074864Y1672265D1*
X8034241Y1687704D2*
X8031809Y1692512D1*
X8024679Y1699698D1*
X8074864D1*
X8036617Y1717569D2*
X8034241D1*
X8029432Y1719945D1*
X8027056Y1722322D1*
X8024679Y1727130D1*
Y1736692D1*
X8027056Y1741445D1*
X8029432Y1743822D1*
X8034241Y1746254D1*
X8038994D1*
X8043802Y1743822D1*
X8050932Y1739068D1*
X8074864Y1715137D1*
Y1748630D1*
X7011543Y2613565D2*
Y2577695D1*
X7013920Y2570510D1*
X7018728Y2565757D1*
X7025913Y2563325D1*
X7030666D1*
X7037851Y2565757D1*
X7042660Y2570510D1*
X7045036Y2577695D1*
Y2613565D1*
X7062907Y2601572D2*
Y2603948D1*
X7065284Y2608757D1*
X7067661Y2611133D1*
X7072469Y2613510D1*
X7082031D1*
X7086784Y2611133D1*
X7089160Y2608757D1*
X7091592Y2603948D1*
Y2599195D1*
X7089160Y2594387D1*
X7084407Y2587257D1*
X7060476Y2563325D1*
X7093969D1*
X7123555Y830441D2*
Y851940D1*
X7121124Y859125D1*
X7118747Y861557D1*
X7113994Y863934D1*
X7109185D1*
X7104432Y861557D1*
X7102000Y859125D1*
X7099624Y851940D1*
Y830441D1*
X7149864D1*
X7123555Y847187D2*
X7149864Y863934D1*
Y888935D2*
X7099679Y912867D1*
Y879373D1*
X7651334Y4022901D2*
X7672834D1*
X7680019Y4025333D1*
X7682451Y4027710D1*
X7684828Y4032463D1*
Y4037271D1*
X7682451Y4042025D1*
X7680019Y4044456D1*
X7672834Y4046833D1*
X7651334D1*
Y3996593D1*
X7668081Y4022901D2*
X7684828Y3996593D1*
X7712205Y4046778D2*
X7705075Y4044401D1*
X7702644Y4039648D1*
Y4034839D1*
X7705075Y4030086D1*
X7709829Y4027654D1*
X7719390Y4025278D1*
X7726575Y4022901D1*
X7731328Y4018093D1*
X7733705Y4013340D1*
Y4006155D1*
X7731328Y4001401D1*
X7728952Y3998970D1*
X7721767Y3996593D1*
X7712205D1*
X7705075Y3998970D1*
X7702644Y4001401D1*
X7700267Y4006155D1*
Y4013340D1*
X7702644Y4018093D1*
X7707452Y4022901D1*
X7714582Y4025278D1*
X7724143Y4027654D1*
X7728952Y4030086D1*
X7731328Y4034839D1*
Y4039648D1*
X7728952Y4044401D1*
X7721767Y4046778D1*
X7712205D1*
X1609579Y866835D2*
Y888335D1*
X1607147Y895520D1*
X1604771Y897952D1*
X1600017Y900329D1*
X1595209D1*
X1590456Y897952D1*
X1588024Y895520D1*
X1585647Y888335D1*
Y866835D1*
X1635887D1*
X1609579Y883582D2*
X1635887Y900329D1*
X1585647Y930138D2*
X1588024Y925330D1*
X1592832Y920576D1*
X1597586Y918145D1*
X1604771Y915768D1*
X1616764D1*
X1623894Y918145D1*
X1628702Y920576D1*
X1633455Y925330D1*
X1635887Y930138D1*
Y939700D1*
X1633455Y944453D1*
X1628702Y949261D1*
X1623894Y951638D1*
X1616764Y954015D1*
X1604771D1*
X1597586Y951638D1*
X1592832Y949261D1*
X1588024Y944453D1*
X1585647Y939700D1*
Y930138D1*
X1635887Y1007700D2*
X1585647D1*
X1635887Y988577D1*
X1585647Y969454D1*
X1635887D1*
X1595264Y1023140D2*
X1592832Y1027948D1*
X1585703Y1035133D1*
X1635887D1*
X4697293Y721833D2*
X4730786Y671593D1*
Y721833D2*
X4697293Y671593D1*
X4746225Y712216D2*
X4751034Y714648D1*
X4758219Y721778D1*
Y671593D1*
X7752495Y4022901D2*
X7773995D1*
X7781180Y4025333D1*
X7783612Y4027710D1*
X7785988Y4032463D1*
Y4037271D1*
X7783612Y4042025D1*
X7781180Y4044456D1*
X7773995Y4046833D1*
X7752495D1*
Y3996593D1*
X7769242Y4022901D2*
X7785988Y3996593D1*
X7832544Y4030086D2*
X7830112Y4022901D1*
X7825359Y4018093D1*
X7818174Y4015716D1*
X7815798D1*
X7808613Y4018093D1*
X7803859Y4022901D1*
X7801428Y4030086D1*
Y4032463D1*
X7803859Y4039648D1*
X7808613Y4044401D1*
X7815798Y4046778D1*
X7818174D1*
X7825359Y4044401D1*
X7830112Y4039648D1*
X7832544Y4030086D1*
Y4018093D1*
X7830112Y4006155D1*
X7825359Y3998970D1*
X7818174Y3996593D1*
X7813421D1*
X7806236Y3998970D1*
X7803859Y4003778D1*
X4397827Y2797901D2*
X4419326D1*
X4426511Y2800333D1*
X4428943Y2802710D1*
X4431320Y2807463D1*
Y2812271D1*
X4428943Y2817025D1*
X4426511Y2819456D1*
X4419326Y2821833D1*
X4397827D1*
Y2771593D1*
X4414573Y2797901D2*
X4431320Y2771593D1*
X4446759Y2812216D2*
X4451568Y2814648D1*
X4458753Y2821778D1*
Y2771593D1*
X4488562Y2821778D2*
X4481377Y2819401D1*
X4476568Y2812216D1*
X4474192Y2800278D1*
Y2793093D1*
X4476568Y2781155D1*
X4481377Y2773970D1*
X4488562Y2771593D1*
X4493315D1*
X4500500Y2773970D1*
X4505253Y2781155D1*
X4507685Y2793093D1*
Y2800278D1*
X4505253Y2812216D1*
X4500500Y2819401D1*
X4493315Y2821778D1*
X4488562D1*
X4505253Y2812216D2*
X4476568Y2781155D1*
X7948555Y1638771D2*
Y1660271D1*
X7946124Y1667456D1*
X7943747Y1669888D1*
X7938994Y1672265D1*
X7934185D1*
X7929432Y1669888D1*
X7927000Y1667456D1*
X7924624Y1660271D1*
Y1638771D1*
X7974864D1*
X7948555Y1655518D2*
X7974864Y1672265D1*
X7934241Y1687704D2*
X7931809Y1692512D1*
X7924679Y1699698D1*
X7974864D1*
X7924679Y1743822D2*
Y1719945D1*
X7946179Y1717569D1*
X7943802Y1719945D1*
X7941370Y1727130D1*
Y1734260D1*
X7943802Y1741445D1*
X7948555Y1746254D1*
X7955740Y1748630D1*
X7960494D1*
X7967679Y1746254D1*
X7972487Y1741445D1*
X7974864Y1734260D1*
Y1727130D1*
X7972487Y1719945D1*
X7970055Y1717569D1*
X7965302Y1715137D1*
X533697Y541278D2*
Y591518D1*
X514573Y541278D1*
X495450Y591518D1*
Y541278D1*
X549136Y591518D2*
Y541278D1*
X582629Y591518D2*
Y541278D1*
X549136Y567586D2*
X582629D1*
X598068Y581901D2*
X602877Y584333D1*
X610062Y591463D1*
Y541278D1*
X7311543Y1638368D2*
Y1588128D1*
X7328290D1*
X7335475Y1590560D1*
X7340283Y1595313D1*
X7342660Y1600122D1*
X7345036Y1607252D1*
Y1619245D1*
X7342660Y1626430D1*
X7340283Y1631183D1*
X7335475Y1635992D1*
X7328290Y1638368D1*
X7311543D1*
X7365284Y1638313D2*
X7391537D1*
X7377222Y1619190D1*
X7384407D1*
X7389160Y1616813D1*
X7391537Y1614437D1*
X7393969Y1607252D1*
Y1602498D1*
X7391537Y1595313D1*
X7386784Y1590505D1*
X7379599Y1588128D1*
X7372414D1*
X7365284Y1590505D1*
X7362907Y1592937D1*
X7360476Y1597690D1*
X1334593Y3479393D2*
X1329840Y3477017D1*
X1325032Y3472208D1*
X1322655Y3467455D1*
Y3457894D1*
X1325032Y3453085D1*
X1329840Y3448332D1*
X1334593Y3445900D1*
X1341778Y3443524D1*
X1353772D1*
X1360902Y3445900D1*
X1365710Y3448332D1*
X1370463Y3453085D1*
X1372895Y3457894D1*
Y3467455D1*
X1370463Y3472208D1*
X1365710Y3477017D1*
X1360902Y3479393D1*
X1332272Y3494833D2*
X1329840Y3499641D1*
X1322710Y3506826D1*
X1372895D1*
X1329840Y3550950D2*
X1325087Y3548574D1*
X1322710Y3541389D1*
Y3536635D1*
X1325087Y3529450D1*
X1332272Y3524642D1*
X1344210Y3522265D1*
X1356149D1*
X1365710Y3524642D1*
X1370519Y3529450D1*
X1372895Y3536635D1*
Y3539012D1*
X1370519Y3546142D1*
X1365710Y3550950D1*
X1358525Y3553327D1*
X1356149D1*
X1348964Y3550950D1*
X1344210Y3546142D1*
X1341834Y3539012D1*
Y3536635D1*
X1344210Y3529450D1*
X1348964Y3524642D1*
X1356149Y3522265D1*
X1582891Y4081200D2*
X1621138D1*
X1628323Y4078824D1*
X1630700Y4076392D1*
X1633131Y4071639D1*
Y4066830D1*
X1630700Y4062077D1*
X1628323Y4059701D1*
X1621138Y4057269D1*
X1616385D1*
X1594885Y4099071D2*
X1592508D1*
X1587700Y4101448D1*
X1585323Y4103825D1*
X1582947Y4108633D1*
Y4118195D1*
X1585323Y4122948D1*
X1587700Y4125324D1*
X1592508Y4127756D1*
X1597262D1*
X1602070Y4125324D1*
X1609200Y4120571D1*
X1633131Y4096640D1*
Y4130133D1*
X5182891Y982389D2*
X5221138D1*
X5228323Y980012D1*
X5230700Y977580D1*
X5233131Y972827D1*
Y968019D1*
X5230700Y963265D1*
X5228323Y960889D1*
X5221138Y958457D1*
X5216385D1*
X5199638Y1028945D2*
X5206823Y1026513D1*
X5211632Y1021760D1*
X5214008Y1014575D1*
Y1012198D1*
X5211632Y1005013D1*
X5206823Y1000260D1*
X5199638Y997828D1*
X5197262D1*
X5190076Y1000260D1*
X5185323Y1005013D1*
X5182947Y1012198D1*
Y1014575D1*
X5185323Y1021760D1*
X5190076Y1026513D1*
X5199638Y1028945D1*
X5211632D1*
X5223570Y1026513D1*
X5230755Y1021760D1*
X5233131Y1014575D1*
Y1009821D1*
X5230755Y1002636D1*
X5225946Y1000260D1*
X512598Y1189648D2*
X507844Y1194456D1*
X500659Y1196833D1*
X491098D1*
X483913Y1194456D1*
X479104Y1189648D1*
Y1184895D1*
X481536Y1180086D1*
X483913Y1177710D1*
X488666Y1175333D1*
X503036Y1170525D1*
X507844Y1168148D1*
X510221Y1165716D1*
X512598Y1160963D1*
Y1153778D1*
X507844Y1149025D1*
X500659Y1146593D1*
X491098D1*
X483913Y1149025D1*
X479104Y1153778D1*
X528037Y1196833D2*
X540030Y1146593D1*
X551969Y1196833D1*
X563907Y1146593D1*
X575900Y1196833D1*
X596148Y1196778D2*
X622401D1*
X608086Y1177654D1*
X615271D1*
X620024Y1175278D1*
X622401Y1172901D1*
X624833Y1165716D1*
Y1160963D1*
X622401Y1153778D1*
X617648Y1148970D1*
X610463Y1146593D1*
X603278D1*
X596148Y1148970D1*
X593771Y1151401D1*
X591339Y1156155D1*
X1023049Y1417541D2*
X1061295D1*
X1068480Y1415164D1*
X1070857Y1412732D1*
X1073289Y1407979D1*
Y1403171D1*
X1070857Y1398418D1*
X1068480Y1396041D1*
X1061295Y1393609D1*
X1056542D1*
X1032666Y1432980D2*
X1030234Y1437789D1*
X1023104Y1444974D1*
X1073289D1*
X880445Y962364D2*
Y983864D1*
X878013Y991049D1*
X875637Y993481D1*
X870884Y995858D1*
X866075D1*
X861322Y993481D1*
X858890Y991049D1*
X856513Y983864D1*
Y962364D1*
X906753D1*
X880445Y979111D2*
X906753Y995858D1*
X856513Y1042358D2*
Y1011297D1*
X906753D1*
Y1042358D1*
X880445Y1011297D2*
Y1030420D1*
X868452Y1093668D2*
X863699Y1091291D1*
X858890Y1086482D1*
X856513Y1081729D1*
Y1072168D1*
X858890Y1067359D1*
X863699Y1062606D1*
X868452Y1060174D1*
X875637Y1057798D1*
X887630D1*
X894760Y1060174D1*
X899568Y1062606D1*
X904322Y1067359D1*
X906753Y1072168D1*
Y1081729D1*
X904322Y1086482D1*
X899568Y1091291D1*
X894760Y1093668D1*
X887630D1*
Y1081729D1*
X866130Y1109107D2*
X863699Y1113915D1*
X856569Y1121100D1*
X906753D1*
X7547979Y1224240D2*
X7543226Y1221864D1*
X7538418Y1217055D1*
X7536041Y1212302D1*
Y1202741D1*
X7538418Y1197932D1*
X7543226Y1193179D1*
X7547979Y1190747D1*
X7555164Y1188371D1*
X7567158D1*
X7574288Y1190747D1*
X7579096Y1193179D1*
X7583849Y1197932D1*
X7586281Y1202741D1*
Y1212302D1*
X7583849Y1217055D1*
X7579096Y1221864D1*
X7574288Y1224240D1*
X7545658Y1239680D2*
X7543226Y1244488D1*
X7536096Y1251673D1*
X7586281D1*
X7536096Y1281483D2*
X7538473Y1274298D1*
X7545658Y1269489D1*
X7557596Y1267112D1*
X7564781D1*
X7576719Y1269489D1*
X7583904Y1274298D1*
X7586281Y1281483D1*
Y1286236D1*
X7583904Y1293421D1*
X7576719Y1298174D1*
X7564781Y1300606D1*
X7557596D1*
X7545658Y1298174D1*
X7538473Y1293421D1*
X7536096Y1286236D1*
Y1281483D1*
X7545658Y1298174D2*
X7576719Y1269489D1*
X7123555Y720239D2*
Y741739D1*
X7121124Y748924D1*
X7118747Y751356D1*
X7113994Y753733D1*
X7109185D1*
X7104432Y751356D1*
X7102000Y748924D1*
X7099624Y741739D1*
Y720239D1*
X7149864D1*
X7123555Y736986D2*
X7149864Y753733D1*
X7106809Y797857D2*
X7102056Y795480D1*
X7099679Y788295D1*
Y783542D1*
X7102056Y776357D1*
X7109241Y771548D1*
X7121179Y769172D1*
X7133117D1*
X7142679Y771548D1*
X7147487Y776357D1*
X7149864Y783542D1*
Y785918D1*
X7147487Y793048D1*
X7142679Y797857D1*
X7135494Y800233D1*
X7133117D1*
X7125932Y797857D1*
X7121179Y793048D1*
X7118802Y785918D1*
Y783542D1*
X7121179Y776357D1*
X7125932Y771548D1*
X7133117Y769172D1*
X3664387Y3769319D2*
X3700257D1*
X3707442Y3771695D1*
X3712196Y3776504D1*
X3714627Y3783689D1*
Y3788442D1*
X3712196Y3795627D1*
X3707442Y3800435D1*
X3700257Y3802812D1*
X3664387D1*
X3664443Y3846936D2*
Y3823060D1*
X3685943Y3820683D1*
X3683566Y3823060D1*
X3681134Y3830245D1*
Y3837374D1*
X3683566Y3844559D1*
X3688319Y3849368D1*
X3695504Y3851744D1*
X3700257D1*
X3707442Y3849368D1*
X3712251Y3844559D1*
X3714627Y3837374D1*
Y3830245D1*
X3712251Y3823060D1*
X3709819Y3820683D1*
X3705066Y3818251D1*
X4411543Y2297901D2*
X4433043D1*
X4440228Y2300333D1*
X4442660Y2302710D1*
X4445036Y2307463D1*
Y2312271D1*
X4442660Y2317025D1*
X4440228Y2319456D1*
X4433043Y2321833D1*
X4411543D1*
Y2271593D1*
X4428290Y2297901D2*
X4445036Y2271593D1*
X4465284Y2321778D2*
X4491537D1*
X4477222Y2302654D1*
X4484407D1*
X4489160Y2300278D1*
X4491537Y2297901D1*
X4493969Y2290716D1*
Y2285963D1*
X4491537Y2278778D1*
X4486784Y2273970D1*
X4479599Y2271593D1*
X4472414D1*
X4465284Y2273970D1*
X4462907Y2276401D1*
X4460476Y2281155D1*
X4422293Y2497901D2*
X4443793D1*
X4450978Y2500333D1*
X4453410Y2502710D1*
X4455786Y2507463D1*
Y2512271D1*
X4453410Y2517025D1*
X4450978Y2519456D1*
X4443793Y2521833D1*
X4422293D1*
Y2471593D1*
X4439040Y2497901D2*
X4455786Y2471593D1*
X4471225Y2512216D2*
X4476034Y2514648D1*
X4483219Y2521778D1*
Y2471593D1*
X6860748Y3763172D2*
Y3727302D1*
X6863125Y3720117D1*
X6867933Y3715363D1*
X6875118Y3712932D1*
X6879872D1*
X6887057Y3715363D1*
X6891865Y3720117D1*
X6894242Y3727302D1*
Y3763172D1*
X6933613Y3712932D2*
Y3763116D1*
X6909681Y3729678D1*
X6945551D1*
X7860559Y1508447D2*
Y1472577D1*
X7862935Y1465392D1*
X7867744Y1460639D1*
X7874929Y1458207D1*
X7879682D1*
X7886867Y1460639D1*
X7891675Y1465392D1*
X7894052Y1472577D1*
Y1508447D1*
X7914300Y1508392D2*
X7940553D1*
X7926238Y1489269D1*
X7933423D1*
X7938176Y1486892D1*
X7940553Y1484515D1*
X7942985Y1477330D1*
Y1472577D1*
X7940553Y1465392D1*
X7935800Y1460584D1*
X7928615Y1458207D1*
X7921429D1*
X7914300Y1460584D1*
X7911923Y1463016D1*
X7909491Y1467769D1*
X861562Y597919D2*
X856809Y595543D1*
X852000Y590734D1*
X849624Y585981D1*
Y576420D1*
X852000Y571611D1*
X856809Y566858D1*
X861562Y564426D1*
X868747Y562049D1*
X880740D1*
X887870Y564426D1*
X892679Y566858D1*
X897432Y571611D1*
X899864Y576420D1*
Y585981D1*
X897432Y590734D1*
X892679Y595543D1*
X887870Y597919D1*
X859241Y613359D2*
X856809Y618167D1*
X849679Y625352D1*
X899864D1*
X7848555Y1637583D2*
Y1659083D1*
X7846124Y1666268D1*
X7843747Y1668700D1*
X7838994Y1671077D1*
X7834185D1*
X7829432Y1668700D1*
X7827000Y1666268D1*
X7824624Y1659083D1*
Y1637583D1*
X7874864D1*
X7848555Y1654330D2*
X7874864Y1671077D1*
X7834241Y1686516D2*
X7831809Y1691324D1*
X7824679Y1698509D1*
X7874864D1*
Y1737880D2*
X7824679D1*
X7858117Y1713948D1*
Y1749818D1*
X3882891Y1503704D2*
X3918761D1*
X3925946Y1506080D1*
X3930700Y1510889D1*
X3933131Y1518074D1*
Y1522827D1*
X3930700Y1530012D1*
X3925946Y1534821D1*
X3918761Y1537197D1*
X3882891D1*
X3890076Y1581321D2*
X3885323Y1578945D1*
X3882947Y1571760D1*
Y1567006D1*
X3885323Y1559821D1*
X3892508Y1555013D1*
X3904447Y1552636D1*
X3916385D1*
X3925946Y1555013D1*
X3930755Y1559821D1*
X3933131Y1567006D1*
Y1569383D1*
X3930755Y1576513D1*
X3925946Y1581321D1*
X3918761Y1583698D1*
X3916385D1*
X3909200Y1581321D1*
X3904447Y1576513D1*
X3902070Y1569383D1*
Y1567006D1*
X3904447Y1559821D1*
X3909200Y1555013D1*
X3916385Y1552636D1*
X3663629Y916331D2*
X3658876Y913954D1*
X3654067Y909146D1*
X3651691Y904393D1*
Y894831D1*
X3654067Y890023D1*
X3658876Y885269D1*
X3663629Y882838D1*
X3670814Y880461D1*
X3682807D1*
X3689937Y882838D1*
X3694746Y885269D1*
X3699499Y890023D1*
X3701931Y894831D1*
Y904393D1*
X3699499Y909146D1*
X3694746Y913954D1*
X3689937Y916331D1*
X3651746Y943708D2*
X3654123Y936579D1*
X3658876Y934147D1*
X3663684D1*
X3668437Y936579D1*
X3670869Y941332D1*
X3673246Y950893D1*
X3675622Y958078D1*
X3680431Y962832D1*
X3685184Y965208D1*
X3692369D1*
X3697122Y962832D1*
X3699554Y960455D1*
X3701931Y953270D1*
Y943708D1*
X3699554Y936579D1*
X3697122Y934147D1*
X3692369Y931770D1*
X3685184D1*
X3680431Y934147D1*
X3675622Y938955D1*
X3673246Y946085D1*
X3670869Y955647D1*
X3668437Y960455D1*
X3663684Y962832D1*
X3658876D1*
X3654123Y960455D1*
X3651746Y953270D1*
Y943708D1*
X6212197Y2613565D2*
Y2563325D1*
X6242006Y2613565D2*
X6237198Y2611189D1*
X6232444Y2606380D1*
X6230012Y2601627D1*
X6227636Y2594442D1*
Y2582449D1*
X6230012Y2575319D1*
X6232444Y2570510D1*
X6237198Y2565757D1*
X6242006Y2563325D1*
X6251568D1*
X6256321Y2565757D1*
X6261129Y2570510D1*
X6263506Y2575319D1*
X6265882Y2582449D1*
Y2594442D1*
X6263506Y2601627D1*
X6261129Y2606380D1*
X6256321Y2611189D1*
X6251568Y2613565D1*
X6242006D1*
X6281322Y2603948D2*
X6286130Y2606380D1*
X6293315Y2613510D1*
Y2563325D1*
X8022947Y541278D2*
Y591518D1*
X8003823Y541278D1*
X7984700Y591518D1*
Y541278D1*
X8038386Y591518D2*
Y541278D1*
X8071879Y591518D2*
Y541278D1*
X8038386Y567586D2*
X8071879D1*
X8089750Y579525D2*
Y581901D1*
X8092127Y586710D1*
X8094503Y589086D1*
X8099312Y591463D1*
X8108874D1*
X8113627Y589086D1*
X8116003Y586710D1*
X8118435Y581901D1*
Y577148D1*
X8116003Y572339D1*
X8111250Y565210D1*
X8087318Y541278D1*
X8120812D1*
X7845450Y3053807D2*
X7866950D1*
X7874135Y3056239D1*
X7876567Y3058615D1*
X7878943Y3063368D1*
Y3068177D1*
X7876567Y3072930D1*
X7874135Y3075362D1*
X7866950Y3077738D1*
X7845450D1*
Y3027498D1*
X7862197Y3053807D2*
X7878943Y3027498D1*
X7894383Y3077738D2*
X7913506Y3027498D1*
X7932629Y3077738D1*
X7948068Y3068122D2*
X7952877Y3070553D1*
X7960062Y3077683D1*
Y3027498D1*
X7611543Y2221833D2*
Y2185963D1*
X7613920Y2178778D1*
X7618728Y2174025D1*
X7625913Y2171593D1*
X7630666D1*
X7637851Y2174025D1*
X7642660Y2178778D1*
X7645036Y2185963D1*
Y2221833D1*
X7670037Y2171593D2*
X7693969Y2221778D1*
X7660476D1*
X6771491Y3821439D2*
X6790614Y3797508D1*
Y3771199D1*
X6809738Y3821439D2*
X6790614Y3797508D1*
X6825177Y3811822D2*
X6829985Y3814254D1*
X6837170Y3821384D1*
Y3771199D1*
X1148339Y2679861D2*
X1129161Y2730101D1*
X1110038Y2679861D1*
X1117223Y2696607D2*
X1141154D1*
X1199649Y2718162D2*
X1197272Y2722916D1*
X1192464Y2727724D1*
X1187710Y2730101D1*
X1178149D1*
X1173340Y2727724D1*
X1168587Y2722916D1*
X1166155Y2718162D1*
X1163779Y2710977D1*
Y2698984D1*
X1166155Y2691854D1*
X1168587Y2687046D1*
X1173340Y2682293D1*
X1178149Y2679861D1*
X1187710D1*
X1192464Y2682293D1*
X1197272Y2687046D1*
X1199649Y2691854D1*
X1215088Y2730101D2*
Y2679861D1*
X1268829D2*
X1249650Y2730101D1*
X1230527Y2679861D1*
X1237712Y2696607D2*
X1261644D1*
X1284268Y2720484D2*
X1289077Y2722916D1*
X1296262Y2730045D1*
Y2679861D1*
X8022947Y4141278D2*
Y4191518D1*
X8003823Y4141278D1*
X7984700Y4191518D1*
Y4141278D1*
X8038386Y4191518D2*
Y4141278D1*
X8071879Y4191518D2*
Y4141278D1*
X8038386Y4167586D2*
X8071879D1*
X8092127Y4191463D2*
X8118380D1*
X8104065Y4172339D1*
X8111250D1*
X8116003Y4169963D1*
X8118380Y4167586D1*
X8120812Y4160401D1*
Y4155648D1*
X8118380Y4148463D1*
X8113627Y4143655D1*
X8106442Y4141278D1*
X8099257D1*
X8092127Y4143655D1*
X8089750Y4146086D1*
X8087318Y4150840D1*
X8026539Y3013565D2*
Y2975319D1*
X8024163Y2968134D1*
X8021731Y2965757D1*
X8016977Y2963325D1*
X8012169D1*
X8007416Y2965757D1*
X8005039Y2968134D1*
X8002607Y2975319D1*
Y2980072D1*
X8041978Y3003948D2*
X8046787Y3006380D1*
X8053972Y3013510D1*
Y2963325D1*
X8071843Y3001572D2*
Y3003948D1*
X8074220Y3008757D1*
X8076596Y3011133D1*
X8081405Y3013510D1*
X8090966D1*
X8095719Y3011133D1*
X8098096Y3008757D1*
X8100528Y3003948D1*
Y2999195D1*
X8098096Y2994387D1*
X8093343Y2987257D1*
X8069411Y2963325D1*
X8102904D1*
X4938924Y2583633D2*
X4934171Y2581257D1*
X4929363Y2576448D1*
X4926986Y2571695D1*
Y2562133D1*
X4929363Y2557325D1*
X4934171Y2552572D1*
X4938924Y2550140D1*
X4946109Y2547763D1*
X4958103D1*
X4965232Y2550140D1*
X4970041Y2552572D1*
X4974794Y2557325D1*
X4977226Y2562133D1*
Y2571695D1*
X4974794Y2576448D1*
X4970041Y2581257D1*
X4965232Y2583633D1*
X4943733Y2630189D2*
X4950918Y2627757D1*
X4955726Y2623004D1*
X4958103Y2615819D1*
Y2613443D1*
X4955726Y2606258D1*
X4950918Y2601504D1*
X4943733Y2599073D1*
X4941356D1*
X4934171Y2601504D1*
X4929418Y2606258D1*
X4927041Y2613443D1*
Y2615819D1*
X4929418Y2623004D1*
X4934171Y2627757D1*
X4943733Y2630189D1*
X4955726D1*
X4967664Y2627757D1*
X4974849Y2623004D1*
X4977226Y2615819D1*
Y2611066D1*
X4974849Y2603881D1*
X4970041Y2601504D1*
X4411543Y2697901D2*
X4433043D1*
X4440228Y2700333D1*
X4442660Y2702710D1*
X4445036Y2707463D1*
Y2712271D1*
X4442660Y2717025D1*
X4440228Y2719456D1*
X4433043Y2721833D1*
X4411543D1*
Y2671593D1*
X4428290Y2697901D2*
X4445036Y2671593D1*
X4462907Y2709839D2*
Y2712216D1*
X4465284Y2717025D1*
X4467661Y2719401D1*
X4472469Y2721778D1*
X4482031D1*
X4486784Y2719401D1*
X4489160Y2717025D1*
X4491592Y2712216D1*
Y2707463D1*
X4489160Y2702654D1*
X4484407Y2695525D1*
X4460476Y2671593D1*
X4493969D1*
X3111543Y2397901D2*
X3133043D1*
X3140228Y2400333D1*
X3142660Y2402710D1*
X3145036Y2407463D1*
Y2412271D1*
X3142660Y2417025D1*
X3140228Y2419456D1*
X3133043Y2421833D1*
X3111543D1*
Y2371593D1*
X3128290Y2397901D2*
X3145036Y2371593D1*
X3189160Y2421778D2*
X3165284D1*
X3162907Y2400278D1*
X3165284Y2402654D1*
X3172469Y2405086D1*
X3179599D1*
X3186784Y2402654D1*
X3191592Y2397901D1*
X3193969Y2390716D1*
Y2385963D1*
X3191592Y2378778D1*
X3186784Y2373970D1*
X3179599Y2371593D1*
X3172469D1*
X3165284Y2373970D1*
X3162907Y2376401D1*
X3160476Y2381155D1*
X3933806Y3091894D2*
X3929053Y3089517D1*
X3924244Y3084709D1*
X3921868Y3079956D1*
Y3070394D1*
X3924244Y3065586D1*
X3929053Y3060832D1*
X3933806Y3058401D1*
X3940991Y3056024D1*
X3952985D1*
X3960114Y3058401D1*
X3964923Y3060832D1*
X3969676Y3065586D1*
X3972108Y3070394D1*
Y3079956D1*
X3969676Y3084709D1*
X3964923Y3089517D1*
X3960114Y3091894D1*
X3933861Y3109765D2*
X3931485D1*
X3926676Y3112142D1*
X3924300Y3114518D1*
X3921923Y3119327D1*
Y3128888D1*
X3924300Y3133641D1*
X3926676Y3136018D1*
X3931485Y3138450D1*
X3936238D1*
X3941046Y3136018D1*
X3948176Y3131265D1*
X3972108Y3107333D1*
Y3140826D1*
X7547979Y1424240D2*
X7543226Y1421864D1*
X7538418Y1417055D1*
X7536041Y1412302D1*
Y1402741D1*
X7538418Y1397932D1*
X7543226Y1393179D1*
X7547979Y1390747D1*
X7555164Y1388371D1*
X7567158D1*
X7574288Y1390747D1*
X7579096Y1393179D1*
X7583849Y1397932D1*
X7586281Y1402741D1*
Y1412302D1*
X7583849Y1417055D1*
X7579096Y1421864D1*
X7574288Y1424240D1*
X7545658Y1439680D2*
X7543226Y1444488D1*
X7536096Y1451673D1*
X7586281D1*
X7548035Y1469544D2*
X7545658D1*
X7540849Y1471921D1*
X7538473Y1474298D1*
X7536096Y1479106D1*
Y1488668D1*
X7538473Y1493421D1*
X7540849Y1495797D1*
X7545658Y1498229D1*
X7550411D1*
X7555220Y1495797D1*
X7562349Y1491044D1*
X7586281Y1467112D1*
Y1500606D1*
M02*
