%TF.GenerationSoftware,Novarm,DipTrace,4.3.0.5*%
%TF.CreationDate,2023-07-23T01:51:22+01:00*%
%FSLAX26Y26*%
%MOIN*%
%TF.FileFunction,Copper,L1,Top*%
%TF.Part,Single*%
%TA.AperFunction,Conductor*%
%ADD13C,0.03937*%
%ADD14C,0.019685*%
%ADD15C,0.009843*%
%ADD16C,0.007874*%
%TA.AperFunction,ComponentPad*%
%ADD18C,0.055118*%
%ADD19C,0.055118*%
%ADD20R,0.062992X0.062992*%
%ADD21C,0.062992*%
%ADD22C,0.07874*%
%ADD23R,0.066929X0.066929*%
%ADD24C,0.066929*%
%ADD25C,0.094488*%
%ADD26R,0.051181X0.051181*%
%ADD27C,0.051181*%
%ADD28C,0.066929*%
%ADD29C,0.19685*%
%ADD30C,0.062992*%
%ADD31C,0.06*%
%ADD32R,0.047244X0.047244*%
%ADD33C,0.047244*%
%ADD34R,0.056693X0.056693*%
%ADD35C,0.056693*%
%ADD36O,0.137795X0.07874*%
%ADD37O,0.07874X0.15748*%
%ADD38R,0.181102X0.07874*%
%ADD39O,0.165354X0.07874*%
%ADD40O,0.07874X0.165354*%
%ADD41R,0.07874X0.075*%
%ADD42O,0.07874X0.075*%
%ADD43R,0.070866X0.070866*%
%ADD44C,0.070866*%
%ADD45R,0.041339X0.059055*%
%ADD46O,0.041339X0.059055*%
%ADD47R,0.07874X0.059055*%
%ADD48R,0.07874X0.149606*%
%TA.AperFunction,ComponentPad*%
%ADD49O,0.047244X0.06*%
%ADD50C,0.056693*%
%ADD51R,0.082677X0.082677*%
%ADD52C,0.082677*%
%TA.AperFunction,ViaPad*%
%ADD53C,0.031496*%
%TA.AperFunction,ComponentPad*%
%ADD117C,0.03937*%
G75*
G01*
%LPD*%
X7825984Y1400000D2*
D13*
X7950000D1*
X7250000Y2250000D2*
Y2400000D1*
X7732677D2*
Y2500000D1*
X8032677Y2250000D2*
X7882677Y2400000D1*
X7732677D1*
X8132677Y1950000D2*
X8032677Y2050000D1*
Y2250000D1*
Y1750000D2*
X8075000D1*
X8132677Y1807677D1*
Y1950000D1*
X8074016Y1400000D2*
D14*
Y1708661D1*
X8032677Y1750000D1*
X7950000Y1400000D2*
D13*
X8074016D1*
X6000000Y3000000D2*
X5800000D1*
X5700000Y2900000D1*
Y2700000D1*
X4100000Y2000000D2*
X3900394D1*
X3500787D1*
X3400394Y2100394D1*
X2900000Y3400000D2*
X2600000D1*
X1409449Y2150000D2*
D15*
X1300000Y2259449D1*
Y2300000D1*
X7125000Y2550000D2*
D13*
Y2325000D1*
X6850000Y2050000D1*
X4203346Y1849606D2*
X4100000Y1952953D1*
Y2000000D1*
X6800000Y2550000D2*
D14*
X6650000Y2400000D1*
Y2350000D1*
X6750000Y3751575D2*
X7100000D1*
X4093701Y800000D2*
D13*
X4206299Y687402D1*
Y650000D1*
X5803150Y3700000D2*
D14*
X5699803Y3803346D1*
Y3850394D1*
X1450000Y1200000D2*
D13*
X1901476D1*
X2006791Y1094685D1*
X3594685D1*
X7100000Y3751575D2*
D14*
X7152362Y3699213D1*
X7175000D1*
Y2975000D1*
X7250787Y2899213D1*
X7343307D1*
X7394094Y2848425D1*
X8000000Y2850000D2*
D13*
X7843701Y3006299D1*
Y3166535D1*
X4093701Y800000D2*
X4152756Y859055D1*
X4890945D1*
X5256381D1*
X5300000Y902675D1*
Y950000D1*
X1875492Y1225984D2*
X1901476Y1200000D1*
X1600000Y3200000D2*
Y2900000D1*
X1300000Y2600000D1*
X1409449Y1650000D2*
D15*
X1300000Y1759449D1*
Y1800000D1*
X4100000Y2000000D2*
D13*
X3993701Y1893701D1*
Y1400000D1*
X4890945Y859055D2*
X5100000Y650000D1*
X6600000Y3750000D2*
D14*
X6597396Y3747396D1*
X6472398D1*
X6900000Y3319794D1*
Y3300000D1*
X5256381Y859055D2*
D13*
X5265436Y850000D1*
X6250000D1*
X6800000D1*
X5700000Y2700000D2*
D14*
Y2550000D1*
X6353346Y1349606D2*
D13*
X6453346D1*
X6499213Y1303740D1*
D14*
Y1150787D1*
D13*
X6738976Y911024D1*
Y975277D1*
X6788699Y1025000D1*
X7228937D1*
X7250000Y1003937D1*
D14*
Y1143701D1*
X6250000Y650000D2*
D15*
Y850000D1*
X3993701Y1400000D2*
D13*
X3934646Y1340945D1*
Y959055D1*
X4093701Y800000D1*
X5700000Y2700000D2*
X5200000D1*
X4900000Y2400000D1*
Y1800000D1*
X4559055Y1459055D1*
X4052756D1*
X3993701Y1400000D1*
X3700000Y2700000D2*
D15*
Y2800000D1*
Y2600000D2*
Y2700000D1*
X3700394Y2500000D2*
X3700000Y2600000D1*
X3900394Y2300000D2*
X3700394Y2500000D1*
X4100000Y3900000D2*
D13*
X4056299D1*
X3950000Y3793701D1*
X2600000Y3400000D2*
X2925000Y3725000D1*
Y4075000D1*
X3009055Y4159055D1*
X3840945D1*
X4100000Y3900000D1*
X7700984Y1292126D2*
X7808661D1*
X7825984Y1309449D1*
X7500000Y1300000D2*
X7693110D1*
X7700984Y1292126D1*
X7250000Y1143701D2*
X7406299Y1300000D1*
X7500000D1*
X7250000Y1003937D2*
D3*
D14*
X7493701Y760236D1*
X6250000Y1500000D2*
D13*
X6353346Y1396654D1*
Y1349606D1*
X6950000Y1750000D2*
X6800000Y1600000D1*
X6350000D1*
X6250000Y1500000D1*
X6850000Y2050000D2*
X6950000Y1950000D1*
Y1750000D1*
X3900394Y2000000D2*
D15*
Y2300000D1*
X6650000Y2350000D2*
D13*
Y2250000D1*
X6850000Y2050000D1*
X7394094Y2848425D2*
D14*
Y2948425D1*
X7175000Y3699213D2*
X7344882D1*
X7394094Y3748425D1*
X5699803Y3850394D2*
X5774409Y3925000D1*
X6300000D1*
X6350000D1*
X6472398Y3802602D1*
Y3747396D1*
X6300000Y4150000D2*
Y3925000D1*
X3993701Y1400000D2*
D13*
X4143701Y1250000D1*
X3594685Y1094685D2*
X3900000Y1400000D1*
X3993701D1*
X7750000Y3734252D2*
D14*
X7865748Y3850000D1*
X7951575D1*
X7650000Y3734252D2*
X7750000D1*
X7394094Y3748425D2*
X7635827D1*
X7650000Y3734252D1*
X4800000Y2800000D2*
D13*
Y3200000D1*
X4100000Y3900000D1*
X4798425Y2650000D2*
X4800000Y2651575D1*
Y2800000D1*
X6800000Y850000D2*
X6738976Y911024D1*
X4798425Y2650000D2*
D15*
X4747839Y2599414D1*
X4449414D1*
X4400000Y2550000D1*
X1300000Y2600000D2*
X1353740Y2546260D1*
X2046260D1*
X2100000Y2600000D1*
X593701Y1593701D2*
D13*
X450000Y1450000D1*
Y850000D1*
X563858Y736142D1*
X736142D1*
X793701Y793701D1*
X790551Y794291D1*
X5800000Y3300000D2*
D15*
Y3218189D1*
X5795472Y3213662D1*
X2600000Y3300000D2*
X2662012D1*
X2717716Y3244296D1*
X2816634D1*
X5250000Y3213662D2*
X5050394D1*
X5795472D2*
X5250000D1*
X2816634Y3244296D2*
X3756693D1*
X2679728Y3165945D2*
X3098244D1*
Y3649410D2*
X3749410D1*
X3800000Y3700000D1*
X2231693Y3344292D2*
X1455708D1*
X1300000Y3500000D1*
X1355118Y3300000D2*
X1772993D1*
X1790709Y3282284D1*
Y3062008D1*
X1808425Y3044292D1*
X2108268D1*
X2479732Y2231497D2*
X2511229Y2200000D1*
X2600000D1*
X3034350Y1664091D2*
X2305807D1*
X3043307Y2243308D2*
X3100000Y2300000D1*
X3200000D1*
X3272838Y1345867D2*
X2195374D1*
X2075492Y1225984D1*
X2943307Y2544292D2*
X3104035D1*
X2318307D2*
X2856693D1*
X1248819Y2643308D2*
Y2546260D1*
X1266535Y2528544D1*
X2112795D1*
X2128543Y2544292D1*
X2197441Y2447642D2*
Y2726575D1*
X2179724Y2744292D1*
X1955708D1*
X1900000Y2800000D1*
X2244291Y1374878D2*
X3542523D1*
X4048823Y1146851D2*
X4346850D1*
X4393701Y1100000D1*
X2943307Y2344292D2*
Y2482284D1*
X2961024Y2500000D1*
X3200000D1*
X2346850Y2355709D2*
X2358267Y2344292D1*
X2856693D1*
X1429921Y3644292D2*
X2021260D1*
X2038976Y3662008D1*
Y3949410D1*
X2600000Y3200000D2*
Y3144292D1*
X2640555D1*
X2648035Y3136812D1*
X2716634D1*
X4656693Y3020674D2*
X4062795D1*
X4045079Y3038390D1*
Y3434449D1*
X4027362Y3452166D1*
X3069701D1*
X5656693Y3020674D2*
X5350000D1*
X2716634Y3136812D2*
X3069701D1*
X5350000Y3020674D2*
X4871149D1*
X3456106Y1137993D2*
X2575492D1*
X4971149Y2213784D2*
X5450000D1*
X3980122Y2457678D2*
X3907288D1*
X3889571Y2439961D1*
Y2419292D1*
X3940752Y2368111D1*
Y2312012D1*
X3958468Y2294296D1*
X4737401D1*
X4755118Y2276579D1*
Y2213784D1*
X2600000Y3100000D2*
X3111024D1*
X3166732Y3044292D1*
X3468894D1*
X2220685Y3039481D2*
Y3155118D1*
X2202968Y3172835D1*
X2029409D1*
X2600000Y3000000D2*
X2747409D1*
X2785401Y2962008D1*
X5550000Y2874804D2*
X4863981D1*
X4846264Y2857087D1*
Y2503938D1*
X4828547Y2486221D1*
X3972244D1*
X3918110Y2540355D1*
X2434350Y2039768D2*
X2788090D1*
X2785401Y2962008D2*
X3004926D1*
X3122642Y2844292D1*
X3319098D1*
X3336815Y2826575D1*
Y2677358D1*
X3354531Y2659642D1*
X3479724D1*
X3497441Y2677359D1*
Y2828544D1*
X2440354Y2900000D2*
X2600000D1*
X1938976Y3144882D2*
X1983150D1*
X2000866Y3127166D1*
Y3072835D1*
X2745177Y2683662D2*
X2728839Y2700000D1*
X2600000D1*
X2318307D1*
X2545177Y934449D2*
X2383956D1*
X2075492Y625984D1*
X2147638Y3144292D2*
Y3017717D1*
X2129922Y3000000D1*
X1900000D1*
X2600000Y2500000D2*
X2761824D1*
X2762894Y2501071D1*
X2181315Y3010237D2*
Y2962009D1*
X2163598Y2944292D1*
X1790704D1*
X1772988Y2962008D1*
Y3242324D1*
X1755272Y3260040D1*
X1573917D1*
X1413878Y3100000D1*
X1300000D1*
X2745177Y2955709D2*
X2733764Y2944296D1*
X2464964D1*
X2447248Y2962012D1*
Y3068024D1*
X2626583Y1277953D2*
X2227460D1*
X2175492Y1225984D1*
X3242594Y3944296D2*
X3755704D1*
X3800000Y3900000D1*
X3017126Y3671453D2*
X3089969Y3744296D1*
X3744296D1*
X3800000Y3800000D1*
X1436811Y2460634D2*
X1493968Y2403477D1*
X2222507D1*
X2225984Y2400000D1*
X2600000D2*
X2788091D1*
X2845177Y2457087D1*
X2318307Y2400000D2*
X2600000D1*
X7200000Y2250000D2*
Y2550000D1*
X5900000Y3300000D2*
D14*
X5775000Y3425000D1*
X5550000D1*
X5500000Y3475000D1*
Y3875000D1*
X5875000Y4250000D1*
X6425000D1*
X6500000Y4175000D1*
Y4150000D1*
X7200000Y2550000D2*
D15*
Y2562638D1*
X6912638Y2850000D1*
X6350000D1*
X5900000Y3300000D1*
X6400000Y4150000D2*
D14*
X6348819Y4201181D1*
X5901181D1*
X5550000Y3850000D1*
Y3513975D1*
X5587007Y3476969D1*
X5923031D1*
X6100000Y3300000D1*
D15*
X6500000Y2900000D1*
X6925000D1*
X7915354Y1909646D1*
X7973031D1*
X8032677Y1850000D1*
X5871457Y3175989D2*
X5018677D1*
X4993307Y3201359D1*
Y3572839D1*
X6829630Y2932091D2*
X6546260D1*
X6528543Y2949808D1*
Y3175989D1*
X6829630Y3213780D2*
Y3099607D1*
X1900000Y2700000D2*
X1644291Y2699997D1*
X1812205Y2090556D2*
X1801378Y2079729D1*
X1237991D1*
X1220275Y2097445D1*
Y2720275D1*
X1300000Y2800000D1*
X5194291Y1176182D2*
X5388780D1*
X5456894Y1244296D1*
X6405704D1*
X6450000Y1200000D1*
X4137996Y1048626D2*
X4212803Y973819D1*
X4693697D1*
X5305118Y1805119D2*
X6194881D1*
X6250000Y1750000D1*
X5305118Y2800000D2*
X5200000D1*
X5750000Y2350000D2*
D16*
Y2450000D1*
X6000000Y2700000D1*
X1938976Y3755119D2*
D15*
X1792791D1*
X1750468Y3712796D1*
X1489173D1*
X5803547Y3136619D2*
X5286921D1*
X3200000Y3400000D2*
X3053308D1*
X2981851Y3328544D1*
X2691370D1*
X2675622Y3344292D1*
X2568311D1*
X2539768Y3372835D1*
X3716342Y3399997D2*
X3200000Y3400000D1*
X5850000Y2350000D2*
D16*
Y2450000D1*
X6100000Y2700000D1*
X1947244Y3844292D2*
D15*
X1700000D1*
X3144882Y3300000D2*
X2708272D1*
X3200000D2*
X3681890Y3299997D1*
X4628153Y2694292D2*
X4008665D1*
X5626799Y2931890D2*
X4843307D1*
X1700000Y2140752D2*
X1772835D1*
X5950000Y2350000D2*
D16*
Y2450000D1*
X6200000Y2700000D1*
X1918799Y962993D2*
D15*
X2738484D1*
X3075492Y625984D1*
X7208464Y3156693D2*
X7244488Y3192717D1*
X7338386D1*
X7394094Y3248425D1*
X5422835Y2519882D2*
X5732480D1*
X5750197Y2537599D1*
Y2726580D1*
X5767913Y2744296D1*
X6155704D1*
X6200000Y2700000D1*
X2522051Y3244292D2*
X2622149D1*
X2666441Y3200000D1*
X3200000D1*
X1855709Y3244292D2*
X2231693D1*
X6200000Y2700000D2*
X6290556Y2790556D1*
X6728543D1*
X3200000Y3200000D2*
X3415752Y3199997D1*
X6050000Y2350000D2*
D16*
Y2450000D1*
X6300000Y2700000D1*
X2149409Y1678544D2*
D15*
X2195669Y1632284D1*
X3148327D1*
X6956693Y3244882D2*
X6775393D1*
X6619094Y3088583D1*
X2100000Y2432020D2*
X1801378D1*
X3200000Y3100000D2*
X3488973D1*
X3506693Y3082280D1*
Y3001382D1*
X4515138Y2722835D2*
X3822945D1*
X3032579Y2343308D2*
X3148327D1*
X3034846Y2683662D2*
X3004035Y2652851D1*
Y2588583D1*
X3019783Y2572835D1*
X3032579D1*
X5844291Y3088583D2*
X5843114Y3087406D1*
X4873027D1*
X4871850Y3088583D1*
X6150000Y2350000D2*
D16*
Y2450000D1*
X6400000Y2700000D1*
X1500000Y2000000D2*
D15*
X1611216Y1888784D1*
X1793889D1*
X1815543Y1867130D1*
X2868992D1*
X2903634Y1901772D1*
X3075492D1*
X3200000Y3000000D2*
X3414027D1*
X3468897Y2945130D1*
X4549409Y2654926D2*
X3751181D1*
X6150000Y2184056D2*
X4943307D1*
X6250000Y2350000D2*
D16*
Y2450000D1*
X6500000Y2700000D1*
X1546260Y3872835D2*
D15*
X1519095Y3900000D1*
X1300000D1*
X2975492Y2428544D2*
X3132579D1*
X6483661Y2819099D2*
X6801086D1*
X4843307Y3060040D2*
X6060039D1*
X6300980Y2819099D1*
X6444291D1*
X3200000Y2900000D2*
X3351012D1*
X3393925Y2857087D1*
X4588079Y2753745D2*
X4097854D1*
X3994512Y2857087D1*
X3593307D1*
X2932579Y1849414D2*
X1710827D1*
X1700000Y1860241D1*
X6350000Y2350000D2*
D16*
Y2450000D1*
X6600000Y2700000D1*
X1900000Y2000000D2*
D15*
Y1952760D1*
X1917716Y1935044D1*
X2875492D1*
X3843311Y1916989D2*
X3204925D1*
X4801008Y2079733D2*
X4012464D1*
X6311023Y2302280D2*
X4999693D1*
X1772835Y3544292D2*
X1255708D1*
X1237992Y3562008D1*
Y3737992D1*
X1300000Y3800000D1*
X3244295Y2644292D2*
X3301382Y2587205D1*
Y2318111D1*
X3244295Y2261024D1*
X3204925Y2013441D2*
X2875492D1*
X6450000Y2350000D2*
D16*
Y2450000D1*
X6700000Y2700000D1*
X2144291Y2447642D2*
D15*
X2102755Y2489178D1*
X1372835D1*
X2100000Y2238583D2*
X2144291D1*
Y2338977D1*
X3272838Y2572835D2*
X3244295Y2544292D1*
X3166535D1*
X3098622Y2612205D1*
X3032579D1*
X3762401Y1594347D2*
X3004035D1*
X6450000Y2350000D2*
X6373737Y2273737D1*
X4967913D1*
X4950197Y2291453D1*
Y2340355D1*
X3969295D2*
X4801008D1*
X2775492Y1895678D2*
X2100000D1*
X3004035Y1594347D2*
X2946948Y1537260D1*
X2775492D1*
X8050000Y3850000D2*
D13*
Y3750000D1*
X8100000Y3700000D1*
Y3500000D1*
X8034252Y3434252D1*
X7843701D1*
X7300000Y1550000D2*
X7328740Y1578740D1*
X7500000D1*
X4600000Y650000D2*
X4693701Y556299D1*
Y500000D1*
X1600000Y3790551D2*
Y4000000D1*
X1700000Y4100000D1*
X1900000D1*
X900000Y1495276D2*
X1006201D1*
X1875492Y625984D1*
X7300000Y1093701D2*
D14*
X7588189D1*
X7832283Y849606D1*
X1900000Y4100000D2*
D13*
X1840945Y4159055D1*
X1275538D1*
X1025000Y3908517D1*
Y1849414D1*
Y1620276D1*
X900000Y1495276D1*
X3950000Y3400000D2*
Y3350000D1*
X3800000Y3200000D1*
X3400394Y1800394D2*
X3500394D1*
X7675000Y2225000D2*
X7175000Y2725000D1*
X6900000Y3000000D1*
X6590551D1*
X3500394Y2100394D2*
X3350394Y2250394D1*
X3550000Y2450000D1*
Y2950000D1*
X3800000Y3200000D1*
X2000000Y2150000D2*
D15*
X2050000D1*
X2200000Y2000000D1*
X6196850Y3700000D2*
D14*
X6299803Y3597047D1*
Y3550394D1*
X7700984Y1390551D2*
D13*
X7800984Y1490551D1*
X7825984D1*
X4734252Y1250000D2*
X4884252Y1100000D1*
X4893701D1*
X6259449Y2050000D2*
X5150000D1*
X5050000Y1950000D1*
Y1750000D1*
X593701Y1493701D2*
X526772Y1426772D1*
Y1173228D1*
Y884843D1*
X617323Y794291D1*
X7294094Y2848425D2*
X7175000Y2729331D1*
Y2725000D1*
X5100000Y550000D2*
X5161024Y488976D1*
X6050000D1*
X7352362D1*
X7400000Y536614D1*
D14*
X7281693D1*
X7193701Y624606D1*
X600000Y1100000D2*
D13*
X526772Y1173228D1*
X6850000Y1200000D2*
X6950000D1*
X4700000Y3175000D2*
Y2800000D1*
X4597047Y1849606D2*
X4700000Y1746654D1*
Y1700000D1*
X3200000Y2200000D2*
X3300000D1*
X3350394Y2250394D1*
X4950000Y3909525D2*
Y3675000D1*
X4700000Y3425000D1*
X2000000Y1650000D2*
D15*
X2050000D1*
X2200000Y1500000D1*
X6900000Y3000000D2*
D13*
X7000000Y3100000D1*
Y3300000D1*
X7843701Y3434252D2*
X7816142D1*
X7784646Y3402756D1*
Y3309646D1*
X7675000Y3200000D1*
Y2225000D1*
X7732677Y1850000D2*
X7425000D1*
X7700984Y1590551D2*
D14*
X7750000Y1639567D1*
Y1697726D1*
X7781890Y1729615D1*
Y1800787D1*
X7732677Y1850000D1*
X7500000Y1578740D2*
D13*
X7689173D1*
X7700984Y1590551D1*
X6900000Y850000D2*
Y950000D1*
X7193701Y624606D2*
X6968307Y850000D1*
X6900000D1*
X6150000Y650000D2*
D15*
X6050000Y550000D1*
Y488976D1*
X4900000Y500000D2*
D13*
X5050000D1*
X5100000Y550000D1*
X4693701Y500000D2*
X4900000D1*
X3200000Y2200000D2*
X3000000D1*
X2900000Y2300000D1*
Y2809449D1*
X1900000Y4100000D2*
X2100000D1*
X2275000Y3925000D1*
Y2344296D1*
Y2300000D1*
X2450000Y2125000D1*
X3125000D1*
X3200000Y2200000D1*
X3594685Y700984D2*
X3854724Y440945D1*
X4634646D1*
X4693701Y500000D1*
X3175492Y625984D2*
X3519685D1*
X3594685Y700984D1*
X1875492Y625984D2*
X1931398Y570079D1*
X3119587D1*
X3175492Y625984D1*
X7832283Y593701D2*
D14*
X7775197Y536614D1*
X7400000D1*
D13*
X7393701Y542913D1*
Y624606D1*
X7832283Y849606D2*
D14*
Y593701D1*
X4700000Y2800000D2*
D13*
Y2650000D1*
X3800000Y3200000D2*
X4200000Y2800000D1*
X4700000D1*
X3600394Y1800394D2*
X3700394D1*
X3500394D2*
X3600394D1*
X7100000Y3850000D2*
D14*
X7292520D1*
X7294094Y3848425D1*
X6750000Y3850000D2*
X7100000D1*
X7000000Y3300000D2*
D13*
X6650000Y3650000D1*
Y3794542D1*
X6705458Y3850000D1*
X6750000D1*
X5050000Y1750000D2*
X5150000Y1850000D1*
X6825000D1*
X7700984Y1590551D2*
D14*
X7800984Y1490551D1*
X7825984D1*
X7500000Y1378740D2*
D13*
X7700984Y1579724D1*
Y1590551D1*
X6950000Y1200000D2*
X7128740Y1378740D1*
X7500000D1*
X6590551Y3000000D2*
D15*
Y3229130D1*
X6572831Y3246851D1*
X6253149D1*
X6200000Y3300000D1*
X8050000Y3850000D2*
Y4007283D1*
X8032283Y4025000D1*
X7749213D1*
X2000000Y2150000D2*
X1817717D1*
X1800000Y2167717D1*
Y2300000D1*
X2000000Y1800000D2*
X1900000D1*
X3400394Y1800394D2*
X3119783D1*
X2200000Y2300000D2*
X2244296Y2344296D1*
X2275000D1*
X5800000Y2700000D2*
X5900000D1*
X1600000Y2300000D2*
X1555704Y2344296D1*
X1444296D1*
X1400000Y2300000D1*
X1800000D2*
X1755709Y2255709D1*
X1644291D1*
X1600000Y2300000D1*
X1500000Y1800000D2*
X1450586Y1849414D1*
X1025000D1*
X1600000Y1800000D2*
X1500000D1*
X1900000D2*
X1845473Y1745473D1*
X1654527D1*
X1600000Y1800000D1*
X4828850Y2109371D2*
X4289964D1*
X3600394Y2184056D2*
X3844008D1*
X4289964Y2457678D2*
X4600000D1*
X6222835Y1671851D2*
X6471851D1*
X6550000Y1750000D1*
X6094291Y1671851D2*
X4989566D1*
X4971850Y1689567D1*
Y2080828D1*
X4943307Y2109371D1*
X4289964D2*
X3984622D1*
X4672835Y2450796D2*
X4644284Y2422245D1*
X3928937D1*
X6450000Y2242327D2*
X4943307D1*
X5021850Y3500000D2*
Y4196260D1*
X3936980Y1744296D2*
Y1531827D1*
X3897047D1*
X5505118Y1700394D2*
X5900394D1*
X5950000Y1750000D1*
X5505118Y2743308D2*
X4956692D1*
X4900000Y2800000D1*
X5040370Y2846260D2*
X5622835D1*
X4829551Y2446552D2*
Y2201772D1*
X4811835Y2184056D1*
X4665944D1*
X4600000Y2250000D1*
X2400000Y2855119D2*
X2673067D1*
X2744523Y2926575D1*
X2988583D1*
X2400000Y2744292D2*
X2849890D1*
X7193701Y760236D2*
D13*
X7293701Y660236D1*
Y624606D1*
X7493701Y871654D2*
X7548819Y816535D1*
Y679724D1*
X7493701Y624606D1*
X893701Y3745669D2*
X793701Y3645669D1*
Y1009331D1*
X811751D1*
X841732Y979349D1*
Y924213D1*
X790551Y873031D1*
X893701Y3993701D2*
X887402Y4000000D1*
X600000D1*
Y3689370D1*
X669685Y3619685D1*
Y925394D1*
X617323Y873031D1*
X5500000Y735630D2*
D15*
X5850000D1*
X5094291Y902363D2*
Y993308D1*
X5711023Y2394292D2*
X5194292D1*
X5150000Y2350000D1*
X5142909Y902363D2*
X5150000Y909454D1*
Y1007087D1*
X5650000Y909630D2*
Y1024804D1*
X5400000Y775000D2*
X5650000D1*
X5750000Y596260D2*
X5546260D1*
X5500000Y550000D1*
X8056693Y3650788D2*
X7762012D1*
X6250000Y1105516D2*
X6428063D1*
X7732677Y1750000D2*
X7450000D1*
X7300000Y1900000D1*
Y2250000D1*
Y2325000D1*
X4515748Y1526969D2*
X4300004D1*
X6143468D2*
X4971850D1*
X6366453Y1037607D2*
X6143468D1*
X3928937Y1844686D2*
X2983465D1*
X2938780Y1800000D1*
X2200000D1*
X3928937Y2049414D2*
X4650586D1*
X4700000Y2000000D1*
X3879897Y1956359D2*
X3374311D1*
X3345772Y1984898D1*
X2832705D1*
X2800567Y1952760D1*
X1962008D1*
X1944291Y1970477D1*
Y2026580D1*
X1926575Y2044296D1*
X1344296D1*
X1300000Y2000000D1*
X4037008Y1774808D2*
X4582283D1*
X4600000Y1757091D1*
Y1700000D1*
X6774803Y1893308D2*
X5093307D1*
X4544882Y1746264D2*
X4446264D1*
X4400000Y1700000D1*
X6594295Y1643308D2*
X4961023D1*
X4943307Y1661024D1*
Y1746264D1*
X6410039Y1290556D2*
X6264098D1*
X6176701Y1377953D1*
X4961024D1*
X4943307Y1395670D1*
Y1587993D1*
X6750000Y1285630D2*
X6694296D1*
X6587012Y1392914D1*
X6449413D1*
X4187008Y2232283D2*
X4382283D1*
X4400000Y2250000D1*
X4112205Y2232283D2*
X4144685Y2199803D1*
X4449803D1*
X4500000Y2250000D1*
X4971850Y1444296D2*
X6206693D1*
X6550000Y1500000D2*
X6450000D1*
X3744882Y3874410D2*
X3670473Y3800000D1*
X3200000D1*
X6494291Y1921851D2*
X5394291D1*
X6494295Y1556107D2*
X6850000D1*
X6857480Y1893308D2*
Y1817126D1*
X6839764Y1799410D1*
X6399410D1*
X6350000Y1750000D1*
X3493252Y1267126D2*
X2716633D1*
X2675492Y1225984D1*
X6850000Y2350000D2*
D16*
Y2550000D1*
X7000000Y2700000D1*
X5394295Y1250985D2*
D15*
X5058157D1*
Y1085827D2*
X4994181Y1021851D1*
X4711417D1*
X4693701Y1039567D1*
Y1100000D1*
X3255122Y3500000D2*
X3299418Y3544296D1*
X4131692D1*
X4149409Y3526579D1*
Y3450599D1*
X4449413Y3150595D1*
X6635236Y1950394D2*
X5433661D1*
X5100000Y2116146D2*
X6150000D1*
X5654642Y2903347D2*
X5078937D1*
X3400394Y2500000D2*
X3319098Y2581296D1*
Y2731698D1*
X3301382Y2749414D1*
X3120378D1*
X2971760Y2898032D1*
X2878697D1*
X2600000Y3800000D2*
X2803390D1*
X4971149Y2155512D2*
X5800000D1*
X3928937D2*
X4856693D1*
X3543701D2*
X3871850D1*
X5800000D2*
X6605712D1*
X3400000Y2700000D2*
X3440354Y2740354D1*
Y2926580D1*
X3422638Y2944296D1*
X3131496D1*
X3031500Y3044292D1*
X2511224D1*
X2493508Y3062008D1*
Y3493508D1*
X2600000Y3600000D1*
X5495079Y1189174D2*
X5539371Y1144882D1*
X6455905D1*
X1465354Y2372839D2*
X1926575D1*
X1944291Y2355123D1*
Y2227757D1*
X1962008Y2210040D1*
X2159350D1*
X2290256Y2079134D1*
X2475492D1*
X6663779Y1921851D2*
X6876578D1*
X6894295Y1904134D1*
Y1806693D1*
X7044291Y3648426D2*
Y3064174D1*
X3891338Y991536D2*
X2475492D1*
X4377366Y1338583D2*
X5495079D1*
X3908437Y1710040D2*
X3347642D1*
X5900000Y1116339D2*
X5694291D1*
X7200000Y1093701D2*
X6846574D1*
X6821181Y1068308D1*
X5900000Y950000D2*
X6337598D1*
X6455905Y1068308D1*
X6138976Y3349414D2*
X6650586D1*
X6700000Y3300000D1*
X3347642Y1710040D2*
X1609445D1*
X1443701Y1544296D1*
X1344296D1*
X1300000Y1500000D1*
X5694291Y1116339D2*
X4976382D1*
X4899610Y1039567D1*
X4755713D1*
X4737996Y1057284D1*
Y1157677D1*
X4720279Y1175394D1*
X4237996D1*
X6394295Y1066150D2*
X5621465D1*
X5594882Y1039567D1*
X5065748D1*
X5030315Y1004134D1*
X4522248D1*
X6750000Y1500000D2*
X6671457Y1421457D1*
X6522838D1*
X5594882Y1039567D2*
X5600000Y1034449D1*
Y950000D1*
X7083661Y3497835D2*
Y3064174D1*
X1449409Y1727756D2*
X3205807D1*
X3216634Y1738583D1*
X1338976Y2944292D2*
X1159256D1*
X1141539Y2926575D1*
Y1895674D1*
X1159256Y1877957D1*
X1449409D1*
X6550000Y2350000D2*
D16*
X6900000Y2700000D1*
X5600000Y1310040D2*
D15*
X5994291D1*
X5600000D2*
X4493705D1*
D53*
X6825000Y1850000D3*
X4900000Y500000D3*
X4700000Y3425000D3*
X7425000Y1850000D3*
X6950000Y1200000D3*
X7675000Y2225000D3*
X4700000Y3175000D3*
X1450000Y1200000D3*
X5700000Y2550000D3*
X6600000Y3750000D3*
X6800000Y2550000D3*
X7125000D3*
X7200000D3*
X7950000Y1400000D3*
X7250000Y2400000D3*
X7300000Y2325000D3*
X5250000Y3213662D3*
X5050394D3*
X3756693Y3244296D3*
X5795472Y3213662D3*
X2816634Y3244296D3*
X3098244Y3165945D3*
Y3649410D3*
X2231693Y3344292D3*
X2679728Y3165945D3*
X2108268Y3044292D3*
X1355118Y3300000D3*
X2479732Y2231497D3*
X2305807Y1664091D3*
X3034350D3*
X3043307Y2243308D3*
X3272838Y1345867D3*
X3104035Y2544292D3*
X2943307D3*
X2856693D3*
X2318307D3*
X2128543D3*
X1248819Y2643308D3*
X3542523Y1374878D3*
X4048823Y1146851D3*
X2943307Y2344292D3*
X2856693D3*
X2346850Y2355709D3*
X2244291Y1374878D3*
X2197441Y2447642D3*
X2038976Y3949410D3*
X1429921Y3644292D3*
X3069701Y3136812D3*
Y3452166D3*
X4656693Y3020674D3*
X4871149D3*
X5656693D3*
X5350000D3*
X2716634Y3136812D3*
X2575492Y1137993D3*
X3456106D3*
X5450000Y2213784D3*
X4971149D3*
X4755118D3*
X3980122Y2457678D3*
X3468894Y3044292D3*
X2029409Y3172835D3*
X2220685Y3039481D3*
X3497441Y2828544D3*
X3918110Y2540355D3*
X5550000Y2874804D3*
X2785401Y2962008D3*
X2788090Y2039768D3*
X2434350D3*
X2440354Y2900000D3*
X2000866Y3072835D3*
X1938976Y3144882D3*
X2318307Y2700000D3*
X2745177Y2683662D3*
X2545177Y934449D3*
X2147638Y3144292D3*
X2762894Y2501071D3*
X2181315Y3010237D3*
X2447248Y3068024D3*
X2745177Y2955709D3*
X2626583Y1277953D3*
X3242594Y3944296D3*
X2845177Y2457087D3*
X3017126Y3671453D3*
X2225984Y2400000D3*
X1436811Y2460634D3*
X2318307Y2400000D3*
X4993307Y3572839D3*
X5871457Y3175989D3*
X6528543D3*
X6829630Y2932091D3*
Y3099607D3*
Y3213780D3*
X1644291Y2699997D3*
X1812205Y2090556D3*
X5194291Y1176182D3*
X4693697Y973819D3*
X4137996Y1048626D3*
X5305118Y1805119D3*
Y2800000D3*
X1489173Y3712796D3*
X1938976Y3755119D3*
X2539768Y3372835D3*
X3716342Y3399997D3*
X5286921Y3136619D3*
X5803547D3*
X1700000Y3844292D3*
X1947244D3*
X2708272Y3300000D3*
X3144882D3*
X3681890Y3299997D3*
X4008665Y2694292D3*
X4628153D3*
X4843307Y2931890D3*
X5626799D3*
X1772835Y2140752D3*
X1700000D3*
X1918799Y962993D3*
X7208464Y3156693D3*
X6728543Y2790556D3*
X3415752Y3199997D3*
X5422835Y2519882D3*
X2231693Y3244292D3*
X2522051D3*
X1855709D3*
X3148327Y1632284D3*
X6619094Y3088583D3*
X6956693Y3244882D3*
X1801378Y2432020D3*
X2100000D3*
X3506693Y3001382D3*
X3822945Y2722835D3*
X4515138D3*
X4871850Y3088583D3*
X5844291D3*
X3148327Y2343308D3*
X3032579D3*
Y2572835D3*
X3034846Y2683662D3*
X2149409Y1678544D3*
X3075492Y1901772D3*
X3468897Y2945130D3*
X3751181Y2654926D3*
X4549409D3*
X4943307Y2184056D3*
X6150000D3*
X1546260Y3872835D3*
X3132579Y2428544D3*
X2975492D3*
X6801086Y2819099D3*
X6483661D3*
X6444291D3*
X3393925Y2857087D3*
X3593307D3*
X4588079Y2753745D3*
X4843307Y3060040D3*
X1700000Y1860241D3*
X2932579Y1849414D3*
X3204925Y1916989D3*
X3843311D3*
X4012464Y2079733D3*
X4801008D3*
X4999693Y2302280D3*
X6311023D3*
X1772835Y3544292D3*
X3244295Y2261024D3*
Y2644292D3*
X2875492Y2013441D3*
X3204925D3*
X2875492Y1935044D3*
X1372835Y2489178D3*
X2144291Y2447642D3*
Y2338977D3*
X2100000Y2238583D3*
X3032579Y2612205D3*
X3272838Y2572835D3*
X2775492Y1537260D3*
X4950197Y2340355D3*
X4801008D3*
X3969295D3*
X3762401Y1594347D3*
X2100000Y1895678D3*
X2775492D3*
X3004035Y1594347D3*
X3119783Y1800394D3*
Y2125000D3*
X3984622Y2109371D3*
X3844008Y2184056D3*
X3600394D3*
X4600000Y2457678D3*
X4289964D3*
X6222835Y1671851D3*
X4943307Y2109371D3*
X4828850D3*
X4289964D3*
X6094291Y1671851D3*
X3928937Y2422245D3*
X4672835Y2450796D3*
X4943307Y2242327D3*
X6450000D3*
X5021850Y4196260D3*
Y3500000D3*
X3897047Y1531827D3*
X3936980Y1744296D3*
X5505118Y1700394D3*
Y2743308D3*
X5622835Y2846260D3*
X5040370D3*
X4829551Y2446552D3*
X2988583Y2926575D3*
X2400000Y2855119D3*
X2849890Y2744292D3*
X2400000D3*
X5850000Y735630D3*
X5500000D3*
X5094291Y993308D3*
Y902363D3*
X5711023Y2394292D3*
X5150000Y1007087D3*
X5142909Y902363D3*
X5650000Y1024804D3*
Y909630D3*
Y775000D3*
X5400000D3*
X5750000Y596260D3*
X7762012Y3650788D3*
X8056693D3*
X6428063Y1105516D3*
X6250000D3*
X4300004Y1526969D3*
X4515748D3*
X4971850D3*
X6143468D3*
Y1037607D3*
X6366453D3*
X3928937Y1844686D3*
Y2049414D3*
X3879897Y1956359D3*
X4037008Y1774808D3*
X5093307Y1893308D3*
X6774803D3*
X4943307Y1746264D3*
X6594295Y1643308D3*
X4544882Y1746264D3*
X4943307Y1587993D3*
X6410039Y1290556D3*
X6449413Y1392914D3*
X6750000Y1285630D3*
X6206693Y1444296D3*
X4971850D3*
X3744882Y3874410D3*
X5394291Y1921851D3*
X6494291D3*
X6850000Y1556107D3*
X6494295D3*
X6857480Y1893308D3*
X3493252Y1267126D3*
X5058157Y1250985D3*
X5394295D3*
X5058157Y1085827D3*
X4449413Y3150595D3*
X3255122Y3500000D3*
X5433661Y1950394D3*
X6635236D3*
X6150000Y2116146D3*
X5100000D3*
X5078937Y2903347D3*
X5654642D3*
X2878697Y2898032D3*
X2803390Y3800000D3*
X6605712Y2155512D3*
X5800000D3*
X4971149D3*
X4856693D3*
X3928937D3*
X3871850D3*
X3543701D3*
X6455905Y1144882D3*
X2475492Y2079134D3*
X1465354Y2372839D3*
X6894295Y1806693D3*
X6663779Y1921851D3*
X7044291Y3064174D3*
Y3648426D3*
X2475492Y991536D3*
X3891338D3*
X5495079Y1338583D3*
X4377366D3*
X5495079Y1189174D3*
X4237996Y1175394D3*
X3908437Y1710040D3*
X6821181Y1068308D3*
X6455905D3*
X5900000Y1116339D3*
X3347642Y1710040D3*
X6138976Y3349414D3*
X5694291Y1116339D3*
X6522838Y1421457D3*
X6394295Y1066150D3*
X7083661Y3064174D3*
Y3497835D3*
X4522248Y1004134D3*
X3216634Y1738583D3*
X1449409Y1727756D3*
Y1877957D3*
X1338976Y2944292D3*
X4493705Y1310040D3*
X5600000Y1349410D3*
X5994291Y1310040D3*
X5600000D3*
D18*
X7932677Y2250000D3*
D19*
Y1950000D3*
D20*
X5699803Y3550394D3*
D21*
X5799803D3*
X5899803D3*
X5999803D3*
X6099803D3*
X6199803D3*
X6299803D3*
Y3850394D3*
X6199803D3*
X6099803D3*
X5999803D3*
X5899803D3*
X5799803D3*
X5699803D3*
D20*
X1900000Y2600000D3*
D21*
Y2700000D3*
Y2800000D3*
Y2900000D3*
Y3000000D3*
Y3100000D3*
Y3200000D3*
Y3300000D3*
Y3400000D3*
Y3500000D3*
Y3600000D3*
Y3700000D3*
Y3800000D3*
Y3900000D3*
Y4000000D3*
Y4100000D3*
X1300000D3*
Y4000000D3*
Y3900000D3*
Y3800000D3*
Y3700000D3*
Y3600000D3*
Y3500000D3*
Y3400000D3*
Y3300000D3*
Y3200000D3*
Y3100000D3*
Y3000000D3*
Y2900000D3*
Y2800000D3*
Y2700000D3*
Y2600000D3*
D18*
X3400000D3*
D19*
X3700000D3*
D20*
X5050000Y1750000D3*
D21*
X5150000D3*
X5250000D3*
X5350000D3*
X5450000D3*
X5550000D3*
X5650000D3*
X5750000D3*
X5850000D3*
X5950000D3*
X6050000D3*
X6150000D3*
X6250000D3*
X6350000D3*
X6450000D3*
X6550000D3*
X6650000D3*
X6750000D3*
X6850000D3*
X6950000D3*
Y2350000D3*
X6850000D3*
X6750000D3*
X6650000D3*
X6550000D3*
X6450000D3*
X6350000D3*
X6250000D3*
X6150000D3*
X6050000D3*
X5950000D3*
X5850000D3*
X5750000D3*
X5650000D3*
X5550000D3*
X5450000D3*
X5350000D3*
X5250000D3*
X5150000D3*
X5050000D3*
D22*
X7655118Y593701D3*
Y849606D3*
X7832283Y593701D3*
Y849606D3*
D23*
X6900000Y850000D3*
D24*
X6800000D3*
X6900000Y950000D3*
X6800000D3*
D25*
X2000000Y2150000D3*
X1409449D3*
D26*
X7200000Y1093701D3*
D27*
X7250000Y1143701D3*
X7300000Y1093701D3*
D22*
X3950000Y3400000D3*
Y3793701D3*
D23*
X5100000Y550000D3*
D24*
Y650000D3*
X5200000Y550000D3*
Y650000D3*
X5300000Y550000D3*
Y650000D3*
X5400000Y550000D3*
Y650000D3*
X5500000Y550000D3*
Y650000D3*
X5600000Y550000D3*
Y650000D3*
D23*
X4700000Y2800000D3*
D28*
X4800000D3*
X4900000D3*
X5000000D3*
X5100000D3*
X5200000D3*
D29*
X543701Y4143701D3*
Y2017717D3*
X7472835Y4143701D3*
Y2017717D3*
D20*
X7394094Y3848425D3*
D30*
X7294094D3*
X7394094Y3748425D3*
X7294094D3*
X7394094Y3648425D3*
X7294094D3*
X7394094Y3548425D3*
X7294094D3*
X7394094Y3448425D3*
X7294094D3*
X7394094Y3348425D3*
X7294094D3*
X7394094Y3248425D3*
X7294094D3*
X7394094Y3148425D3*
X7294094D3*
X7394094Y3048425D3*
X7294094D3*
X7394094Y2948425D3*
X7294094D3*
X7394094Y2848425D3*
X7294094D3*
D23*
X5200000Y950000D3*
D24*
X5300000D3*
X5400000D3*
X5500000D3*
X5600000D3*
X5700000D3*
X5800000D3*
X5900000D3*
D20*
X8032677Y1850000D3*
D30*
X7932677D3*
D31*
X7832677D3*
D20*
X7732677D3*
D30*
Y1750000D3*
X7832677D3*
X7932677D3*
X8032677D3*
X4700000Y2650000D3*
X4798425D3*
D20*
X2600000Y4100000D3*
D21*
Y4000000D3*
Y3900000D3*
Y3800000D3*
Y3700000D3*
Y3600000D3*
Y3500000D3*
Y3400000D3*
Y3300000D3*
Y3200000D3*
Y3100000D3*
Y3000000D3*
Y2900000D3*
Y2800000D3*
Y2700000D3*
Y2600000D3*
Y2500000D3*
Y2400000D3*
Y2300000D3*
Y2200000D3*
X3200000D3*
Y2300000D3*
Y2400000D3*
Y2500000D3*
Y2600000D3*
Y2700000D3*
Y2800000D3*
Y2900000D3*
Y3000000D3*
Y3100000D3*
Y3200000D3*
Y3300000D3*
Y3400000D3*
Y3500000D3*
Y3600000D3*
Y3700000D3*
Y3800000D3*
Y3900000D3*
Y4000000D3*
Y4100000D3*
D18*
X2100000Y2800000D3*
D19*
X2400000D3*
D32*
X7500000Y1500000D3*
D33*
Y1578740D3*
D18*
X8032677Y2400000D3*
D19*
X7732677D3*
D20*
X1300000Y1500000D3*
D21*
X1400000D3*
X1500000D3*
X1600000D3*
X1700000D3*
X1800000D3*
X1900000D3*
X2000000D3*
X2100000D3*
X2200000D3*
Y1800000D3*
X2100000D3*
X2000000D3*
X1900000D3*
X1800000D3*
X1700000D3*
X1600000D3*
X1500000D3*
X1400000D3*
X1300000D3*
D18*
X8032677Y1950000D3*
D19*
Y2250000D3*
D25*
X1600000Y3200000D3*
Y3790551D3*
X4143701Y1250000D3*
X4734252D3*
D20*
X4100000Y1700000D3*
D21*
X4200000D3*
X4300000D3*
X4400000D3*
X4500000D3*
X4600000D3*
X4700000D3*
Y2000000D3*
X4600000D3*
X4500000D3*
X4400000D3*
X4300000D3*
X4200000D3*
X4100000D3*
D18*
X7193701Y871654D3*
D19*
X7493701D3*
D18*
X7650000Y3834252D3*
D19*
Y3734252D3*
D30*
X7100000Y3751575D3*
Y3850000D3*
D34*
X1875492Y625984D3*
D35*
X1975492D3*
X2075492D3*
X2175492D3*
X2275492D3*
X2375492D3*
X2475492D3*
X2575492D3*
X2675492D3*
X2775492D3*
X2875492D3*
X2975492D3*
X3075492D3*
X3175492D3*
Y1225984D3*
X3075492D3*
X2975492D3*
X2875492D3*
X2775492D3*
X2675492D3*
X2575492D3*
X2475492D3*
X2375492D3*
X2275492D3*
X2175492D3*
X2075492D3*
X1975492D3*
X1875492D3*
D20*
X4093701Y500000D3*
D21*
X4193701D3*
X4293701D3*
X4393701D3*
X4493701D3*
X4593701D3*
X4693701D3*
Y800000D3*
X4593701D3*
X4493701D3*
X4393701D3*
X4293701D3*
X4193701D3*
X4093701D3*
D20*
X6250000Y1200000D3*
D21*
X6350000D3*
X6450000D3*
X6550000D3*
X6650000D3*
X6750000D3*
X6850000D3*
Y1500000D3*
X6750000D3*
X6650000D3*
X6550000D3*
X6450000D3*
X6350000D3*
X6250000D3*
D20*
X7843701Y3351575D3*
D30*
Y3249213D3*
Y3434252D3*
Y3166535D3*
X7733465Y3434252D3*
Y3166535D3*
D36*
X7955906Y3030709D3*
D37*
X7987402Y3300394D3*
D36*
X7955906Y3570079D3*
D30*
X600000Y1100000D3*
Y1198425D3*
D20*
X6750000Y3751575D3*
D30*
Y3850000D3*
D18*
X7750000Y3834252D3*
D19*
Y3734252D3*
D18*
X3400000Y2800000D3*
D19*
X3700000D3*
D29*
X543701Y543701D3*
D25*
X6000000Y3000000D3*
X6590551D3*
D23*
X6200000Y4150000D3*
D24*
X6300000D3*
X6400000D3*
X6500000D3*
D32*
X7500000Y1300000D3*
D33*
Y1378740D3*
D22*
X4203346Y1849606D3*
X4597047D3*
X6196850Y3700000D3*
X5803150D3*
X6747047Y1349606D3*
X6353346D3*
D38*
X893701Y3745669D3*
D39*
Y3993701D3*
D40*
X704724Y3859843D3*
D41*
X593701Y1593701D3*
D42*
Y1493701D3*
Y1393701D3*
D20*
X7951575Y3850000D3*
D30*
X8050000D3*
X7700984Y1292126D3*
Y1390551D3*
D43*
X7300000Y1550000D3*
D44*
X7200000D3*
D45*
X7300000Y2250000D3*
D46*
X7250000D3*
X7200000D3*
D18*
X7493701Y760236D3*
D19*
X7193701D3*
D20*
X1300000Y2000000D3*
D21*
X1400000D3*
X1500000D3*
X1600000D3*
X1700000D3*
X1800000D3*
X1900000D3*
X2000000D3*
X2100000D3*
X2200000D3*
Y2300000D3*
X2100000D3*
X2000000D3*
X1900000D3*
X1800000D3*
X1700000D3*
X1600000D3*
X1500000D3*
X1400000D3*
X1300000D3*
D30*
X7749213Y4025000D3*
X7650787D3*
D18*
X3900394Y2300000D3*
D19*
X3600394D3*
D18*
X3700394Y2500000D3*
D19*
X3400394D3*
D25*
X2000000Y1650000D3*
X1409449D3*
D18*
X8032677Y2500000D3*
D19*
X7732677D3*
D20*
X4400000Y2250000D3*
D21*
X4500000D3*
X4600000D3*
X4700000D3*
Y2550000D3*
X4600000D3*
X4500000D3*
X4400000D3*
D47*
X7825984Y1490551D3*
Y1400000D3*
D48*
X8074016D3*
D47*
X7825984Y1309449D3*
D30*
X900000Y1593701D3*
Y1495276D3*
D49*
X617323Y951772D3*
Y873031D3*
Y794291D3*
X790551Y951772D3*
Y873031D3*
Y794291D3*
D20*
X3993701Y1100000D3*
D21*
X4093701D3*
X4193701D3*
X4293701D3*
X4393701D3*
X4493701D3*
X4593701D3*
X4693701D3*
X4793701D3*
X4893701D3*
Y1400000D3*
X4793701D3*
X4693701D3*
X4593701D3*
X4493701D3*
X4393701D3*
X4293701D3*
X4193701D3*
X4093701D3*
X3993701D3*
D22*
X3594685Y700984D3*
Y1094685D3*
D20*
X3800000Y3900000D3*
D21*
Y3800000D3*
Y3700000D3*
Y3600000D3*
Y3500000D3*
Y3400000D3*
Y3300000D3*
Y3200000D3*
X4100000D3*
Y3300000D3*
Y3400000D3*
Y3500000D3*
Y3600000D3*
Y3700000D3*
Y3800000D3*
Y3900000D3*
D43*
X7393701Y624606D3*
D44*
X7493701D3*
D29*
X8043701Y543701D3*
D43*
X7193701Y624606D3*
D44*
X7293701D3*
D50*
X8000000Y2850000D3*
X7900000Y2750000D3*
X7800000Y2850000D3*
D18*
X8132677Y2250000D3*
D19*
Y1950000D3*
D117*
X4187008Y2232283D3*
X4112205D3*
D20*
X7000000Y3300000D3*
D21*
X6900000D3*
X6800000D3*
X6700000D3*
X6600000D3*
X6500000D3*
X6400000D3*
X6300000D3*
X6200000D3*
X6100000D3*
X6000000D3*
X5900000D3*
X5800000D3*
X5700000D3*
Y2700000D3*
X5800000D3*
X5900000D3*
X6000000D3*
X6100000D3*
X6200000D3*
X6300000D3*
X6400000D3*
X6500000D3*
X6600000D3*
X6700000D3*
X6800000D3*
X6900000D3*
X7000000D3*
D29*
X8043701Y4143701D3*
D20*
X3400394Y1800394D3*
D21*
X3500394D3*
X3600394D3*
X3700394D3*
Y2100394D3*
X3600394D3*
X3500394D3*
X3400394D3*
D23*
X6150000Y650000D3*
D24*
X6250000D3*
X6150000Y550000D3*
X6250000D3*
D25*
X6850000Y2050000D3*
X6259449D3*
D22*
X4600000Y650000D3*
X4206299D3*
D18*
X3700000Y2700000D3*
D19*
X3400000D3*
D18*
X2100000Y2600000D3*
D19*
X2400000D3*
D25*
X2900000Y3400000D3*
Y2809449D3*
D30*
X7700984Y1492126D3*
Y1590551D3*
D51*
X4950000Y3141808D3*
D52*
Y3909525D3*
M02*
