%TF.GenerationSoftware,Novarm,DipTrace,4.3.0.5*%
%TF.CreationDate,2023-07-23T01:51:24+01:00*%
%FSLAX26Y26*%
%MOIN*%
%TF.FileFunction,Plated,1,2,PTH,Drill*%
%TF.Part,Single*%
%TA.AperFunction,ComponentDrill*%
%ADD13C,0.03937*%
%ADD14C,0.019685*%
%ADD27C,0.051181*%
%ADD33C,0.047244*%
%ADD53C,0.031496*%
%TA.AperFunction,ViaDrill*%
%ADD54C,0.015748*%
%TA.AperFunction,ComponentDrill*%
%ADD55C,0.027559*%
%ADD56C,0.043307*%
%ADD57C,0.029528*%
%ADD58C,0.137795*%
%ADD59C,0.035433*%
%ADD60C,0.023622*%
%ADD61C,0.03*%
G75*
G01*
D55*
X7932677Y2250000D3*
Y1950000D3*
D53*
X5699803Y3550394D3*
X5799803D3*
X5899803D3*
X5999803D3*
X6099803D3*
X6199803D3*
X6299803D3*
Y3850394D3*
X6199803D3*
X6099803D3*
X5999803D3*
X5899803D3*
X5799803D3*
X5699803D3*
X1900000Y2600000D3*
Y2700000D3*
Y2800000D3*
Y2900000D3*
Y3000000D3*
Y3100000D3*
Y3200000D3*
Y3300000D3*
Y3400000D3*
Y3500000D3*
Y3600000D3*
Y3700000D3*
Y3800000D3*
Y3900000D3*
Y4000000D3*
Y4100000D3*
X1300000D3*
Y4000000D3*
Y3900000D3*
Y3800000D3*
Y3700000D3*
Y3600000D3*
Y3500000D3*
Y3400000D3*
Y3300000D3*
Y3200000D3*
Y3100000D3*
Y3000000D3*
Y2900000D3*
Y2800000D3*
Y2700000D3*
Y2600000D3*
D55*
X3400000D3*
X3700000D3*
D53*
X5050000Y1750000D3*
X5150000D3*
X5250000D3*
X5350000D3*
X5450000D3*
X5550000D3*
X5650000D3*
X5750000D3*
X5850000D3*
X5950000D3*
X6050000D3*
X6150000D3*
X6250000D3*
X6350000D3*
X6450000D3*
X6550000D3*
X6650000D3*
X6750000D3*
X6850000D3*
X6950000D3*
Y2350000D3*
X6850000D3*
X6750000D3*
X6650000D3*
X6550000D3*
X6450000D3*
X6350000D3*
X6250000D3*
X6150000D3*
X6050000D3*
X5950000D3*
X5850000D3*
X5750000D3*
X5650000D3*
X5550000D3*
X5450000D3*
X5350000D3*
X5250000D3*
X5150000D3*
X5050000D3*
D56*
X7655118Y593701D3*
Y849606D3*
X7832283Y593701D3*
Y849606D3*
D13*
X6900000Y850000D3*
X6800000D3*
X6900000Y950000D3*
X6800000D3*
D33*
X2000000Y2150000D3*
X1409449D3*
D57*
X7200000Y1093701D3*
X7250000Y1143701D3*
X7300000Y1093701D3*
D13*
X3950000Y3400000D3*
Y3793701D3*
X5100000Y550000D3*
Y650000D3*
X5200000Y550000D3*
Y650000D3*
X5300000Y550000D3*
Y650000D3*
X5400000Y550000D3*
Y650000D3*
X5500000Y550000D3*
Y650000D3*
X5600000Y550000D3*
Y650000D3*
X4700000Y2800000D3*
X4800000D3*
X4900000D3*
X5000000D3*
X5100000D3*
X5200000D3*
D58*
X543701Y4143701D3*
Y2017717D3*
X7472835Y4143701D3*
Y2017717D3*
D59*
X7394094Y3848425D3*
X7294094D3*
X7394094Y3748425D3*
X7294094D3*
X7394094Y3648425D3*
X7294094D3*
X7394094Y3548425D3*
X7294094D3*
X7394094Y3448425D3*
X7294094D3*
X7394094Y3348425D3*
X7294094D3*
X7394094Y3248425D3*
X7294094D3*
X7394094Y3148425D3*
X7294094D3*
X7394094Y3048425D3*
X7294094D3*
X7394094Y2948425D3*
X7294094D3*
X7394094Y2848425D3*
X7294094D3*
D13*
X5200000Y950000D3*
X5300000D3*
X5400000D3*
X5500000D3*
X5600000D3*
X5700000D3*
X5800000D3*
X5900000D3*
D59*
X8032677Y1850000D3*
X7932677D3*
X7832677D3*
X7732677D3*
Y1750000D3*
X7832677D3*
X7932677D3*
X8032677D3*
D53*
X4700000Y2650000D3*
X4798425D3*
X2600000Y4100000D3*
Y4000000D3*
Y3900000D3*
Y3800000D3*
Y3700000D3*
Y3600000D3*
Y3500000D3*
Y3400000D3*
Y3300000D3*
Y3200000D3*
Y3100000D3*
Y3000000D3*
Y2900000D3*
Y2800000D3*
Y2700000D3*
Y2600000D3*
Y2500000D3*
Y2400000D3*
Y2300000D3*
Y2200000D3*
X3200000D3*
Y2300000D3*
Y2400000D3*
Y2500000D3*
Y2600000D3*
Y2700000D3*
Y2800000D3*
Y2900000D3*
Y3000000D3*
Y3100000D3*
Y3200000D3*
Y3300000D3*
Y3400000D3*
Y3500000D3*
Y3600000D3*
Y3700000D3*
Y3800000D3*
Y3900000D3*
Y4000000D3*
Y4100000D3*
D55*
X2100000Y2800000D3*
X2400000D3*
D60*
X7500000Y1500000D3*
Y1578740D3*
D55*
X8032677Y2400000D3*
X7732677D3*
D53*
X1300000Y1500000D3*
X1400000D3*
X1500000D3*
X1600000D3*
X1700000D3*
X1800000D3*
X1900000D3*
X2000000D3*
X2100000D3*
X2200000D3*
Y1800000D3*
X2100000D3*
X2000000D3*
X1900000D3*
X1800000D3*
X1700000D3*
X1600000D3*
X1500000D3*
X1400000D3*
X1300000D3*
D55*
X8032677Y1950000D3*
Y2250000D3*
D33*
X1600000Y3200000D3*
Y3790551D3*
X4143701Y1250000D3*
X4734252D3*
D53*
X4100000Y1700000D3*
X4200000D3*
X4300000D3*
X4400000D3*
X4500000D3*
X4600000D3*
X4700000D3*
Y2000000D3*
X4600000D3*
X4500000D3*
X4400000D3*
X4300000D3*
X4200000D3*
X4100000D3*
D55*
X7193701Y871654D3*
X7493701D3*
X7650000Y3834252D3*
Y3734252D3*
D53*
X7100000Y3751575D3*
Y3850000D3*
D13*
X1875492Y625984D3*
X1975492D3*
X2075492D3*
X2175492D3*
X2275492D3*
X2375492D3*
X2475492D3*
X2575492D3*
X2675492D3*
X2775492D3*
X2875492D3*
X2975492D3*
X3075492D3*
X3175492D3*
Y1225984D3*
X3075492D3*
X2975492D3*
X2875492D3*
X2775492D3*
X2675492D3*
X2575492D3*
X2475492D3*
X2375492D3*
X2275492D3*
X2175492D3*
X2075492D3*
X1975492D3*
X1875492D3*
D53*
X4093701Y500000D3*
X4193701D3*
X4293701D3*
X4393701D3*
X4493701D3*
X4593701D3*
X4693701D3*
Y800000D3*
X4593701D3*
X4493701D3*
X4393701D3*
X4293701D3*
X4193701D3*
X4093701D3*
X6250000Y1200000D3*
X6350000D3*
X6450000D3*
X6550000D3*
X6650000D3*
X6750000D3*
X6850000D3*
Y1500000D3*
X6750000D3*
X6650000D3*
X6550000D3*
X6450000D3*
X6350000D3*
X6250000D3*
D13*
X7843701Y3351575D3*
Y3249213D3*
Y3434252D3*
Y3166535D3*
X7733465Y3434252D3*
Y3166535D3*
X7985433Y3030709D2*
X7926378D1*
X7987402Y3339764D2*
Y3261024D1*
X7985433Y3570079D2*
X7926378D1*
D53*
X600000Y1100000D3*
Y1198425D3*
X6750000Y3751575D3*
Y3850000D3*
D55*
X7750000Y3834252D3*
Y3734252D3*
X3400000Y2800000D3*
X3700000D3*
D58*
X543701Y543701D3*
D33*
X6000000Y3000000D3*
X6590551D3*
D13*
X6200000Y4150000D3*
X6300000D3*
X6400000D3*
X6500000D3*
D60*
X7500000Y1300000D3*
Y1378740D3*
D13*
X4203346Y1849606D3*
X4597047D3*
X6196850Y3700000D3*
X5803150D3*
X6747047Y1349606D3*
X6353346D3*
X842520Y3745669D2*
X944882D1*
X850394Y3993701D2*
X937008D1*
X704724Y3903150D2*
Y3816535D1*
D56*
X593701Y1593701D3*
Y1493701D3*
Y1393701D3*
D53*
X7951575Y3850000D3*
X8050000D3*
X7700984Y1292126D3*
Y1390551D3*
D59*
X7300000Y1550000D3*
X7200000D3*
D57*
X7300000Y2250000D3*
X7250000D3*
X7200000D3*
D55*
X7493701Y760236D3*
X7193701D3*
D53*
X1300000Y2000000D3*
X1400000D3*
X1500000D3*
X1600000D3*
X1700000D3*
X1800000D3*
X1900000D3*
X2000000D3*
X2100000D3*
X2200000D3*
Y2300000D3*
X2100000D3*
X2000000D3*
X1900000D3*
X1800000D3*
X1700000D3*
X1600000D3*
X1500000D3*
X1400000D3*
X1300000D3*
X7749213Y4025000D3*
X7650787D3*
D55*
X3900394Y2300000D3*
X3600394D3*
X3700394Y2500000D3*
X3400394D3*
D33*
X2000000Y1650000D3*
X1409449D3*
D55*
X8032677Y2500000D3*
X7732677D3*
D53*
X4400000Y2250000D3*
X4500000D3*
X4600000D3*
X4700000D3*
Y2550000D3*
X4600000D3*
X4500000D3*
X4400000D3*
X900000Y1593701D3*
Y1495276D3*
X617323Y956457D2*
D61*
Y947087D1*
Y877717D2*
Y868346D1*
Y798976D2*
Y789606D1*
X790551Y956457D2*
Y947087D1*
Y877717D2*
Y868346D1*
Y798976D2*
Y789606D1*
D53*
X3993701Y1100000D3*
X4093701D3*
X4193701D3*
X4293701D3*
X4393701D3*
X4493701D3*
X4593701D3*
X4693701D3*
X4793701D3*
X4893701D3*
Y1400000D3*
X4793701D3*
X4693701D3*
X4593701D3*
X4493701D3*
X4393701D3*
X4293701D3*
X4193701D3*
X4093701D3*
X3993701D3*
D13*
X3594685Y700984D3*
Y1094685D3*
D53*
X3800000Y3900000D3*
Y3800000D3*
Y3700000D3*
Y3600000D3*
Y3500000D3*
Y3400000D3*
Y3300000D3*
Y3200000D3*
X4100000D3*
Y3300000D3*
Y3400000D3*
Y3500000D3*
Y3600000D3*
Y3700000D3*
Y3800000D3*
Y3900000D3*
D59*
X7393701Y624606D3*
X7493701D3*
D58*
X8043701Y543701D3*
D59*
X7193701Y624606D3*
X7293701D3*
D53*
X8000000Y2850000D3*
X7900000Y2750000D3*
X7800000Y2850000D3*
D55*
X8132677Y2250000D3*
Y1950000D3*
D14*
X4187008Y2232283D3*
X4112205D3*
D53*
X7000000Y3300000D3*
X6900000D3*
X6800000D3*
X6700000D3*
X6600000D3*
X6500000D3*
X6400000D3*
X6300000D3*
X6200000D3*
X6100000D3*
X6000000D3*
X5900000D3*
X5800000D3*
X5700000D3*
Y2700000D3*
X5800000D3*
X5900000D3*
X6000000D3*
X6100000D3*
X6200000D3*
X6300000D3*
X6400000D3*
X6500000D3*
X6600000D3*
X6700000D3*
X6800000D3*
X6900000D3*
X7000000D3*
D58*
X8043701Y4143701D3*
D53*
X3400394Y1800394D3*
X3500394D3*
X3600394D3*
X3700394D3*
Y2100394D3*
X3600394D3*
X3500394D3*
X3400394D3*
D13*
X6150000Y650000D3*
X6250000D3*
X6150000Y550000D3*
X6250000D3*
D33*
X6850000Y2050000D3*
X6259449D3*
D13*
X4600000Y650000D3*
X4206299D3*
D55*
X3700000Y2700000D3*
X3400000D3*
X2100000Y2600000D3*
X2400000D3*
D33*
X2900000Y3400000D3*
Y2809449D3*
D53*
X7700984Y1492126D3*
Y1590551D3*
D27*
X4950000Y3141808D3*
Y3909525D3*
D54*
X6825000Y1850000D3*
X4900000Y500000D3*
X4700000Y3425000D3*
X7425000Y1850000D3*
X6950000Y1200000D3*
X7675000Y2225000D3*
X4700000Y3175000D3*
X1450000Y1200000D3*
X5700000Y2550000D3*
X6600000Y3750000D3*
X6800000Y2550000D3*
X7125000D3*
X7200000D3*
X7950000Y1400000D3*
X7250000Y2400000D3*
X7300000Y2325000D3*
X5250000Y3213662D3*
X5050394D3*
X3756693Y3244296D3*
X5795472Y3213662D3*
X2816634Y3244296D3*
X3098244Y3165945D3*
Y3649410D3*
X2231693Y3344292D3*
X2679728Y3165945D3*
X2108268Y3044292D3*
X1355118Y3300000D3*
X2479732Y2231497D3*
X2305807Y1664091D3*
X3034350D3*
X3043307Y2243308D3*
X3272838Y1345867D3*
X3104035Y2544292D3*
X2943307D3*
X2856693D3*
X2318307D3*
X2128543D3*
X1248819Y2643308D3*
X3542523Y1374878D3*
X4048823Y1146851D3*
X2943307Y2344292D3*
X2856693D3*
X2346850Y2355709D3*
X2244291Y1374878D3*
X2197441Y2447642D3*
X2038976Y3949410D3*
X1429921Y3644292D3*
X3069701Y3136812D3*
Y3452166D3*
X4656693Y3020674D3*
X4871149D3*
X5656693D3*
X5350000D3*
X2716634Y3136812D3*
X2575492Y1137993D3*
X3456106D3*
X5450000Y2213784D3*
X4971149D3*
X4755118D3*
X3980122Y2457678D3*
X3468894Y3044292D3*
X2029409Y3172835D3*
X2220685Y3039481D3*
X3497441Y2828544D3*
X3918110Y2540355D3*
X5550000Y2874804D3*
X2785401Y2962008D3*
X2788090Y2039768D3*
X2434350D3*
X2440354Y2900000D3*
X2000866Y3072835D3*
X1938976Y3144882D3*
X2318307Y2700000D3*
X2745177Y2683662D3*
X2545177Y934449D3*
X2147638Y3144292D3*
X2762894Y2501071D3*
X2181315Y3010237D3*
X2447248Y3068024D3*
X2745177Y2955709D3*
X2626583Y1277953D3*
X3242594Y3944296D3*
X2845177Y2457087D3*
X3017126Y3671453D3*
X2225984Y2400000D3*
X1436811Y2460634D3*
X2318307Y2400000D3*
X4993307Y3572839D3*
X5871457Y3175989D3*
X6528543D3*
X6829630Y2932091D3*
Y3099607D3*
Y3213780D3*
X1644291Y2699997D3*
X1812205Y2090556D3*
X5194291Y1176182D3*
X4693697Y973819D3*
X4137996Y1048626D3*
X5305118Y1805119D3*
Y2800000D3*
X1489173Y3712796D3*
X1938976Y3755119D3*
X2539768Y3372835D3*
X3716342Y3399997D3*
X5286921Y3136619D3*
X5803547D3*
X1700000Y3844292D3*
X1947244D3*
X2708272Y3300000D3*
X3144882D3*
X3681890Y3299997D3*
X4008665Y2694292D3*
X4628153D3*
X4843307Y2931890D3*
X5626799D3*
X1772835Y2140752D3*
X1700000D3*
X1918799Y962993D3*
X7208464Y3156693D3*
X6728543Y2790556D3*
X3415752Y3199997D3*
X5422835Y2519882D3*
X2231693Y3244292D3*
X2522051D3*
X1855709D3*
X3148327Y1632284D3*
X6619094Y3088583D3*
X6956693Y3244882D3*
X1801378Y2432020D3*
X2100000D3*
X3506693Y3001382D3*
X3822945Y2722835D3*
X4515138D3*
X4871850Y3088583D3*
X5844291D3*
X3148327Y2343308D3*
X3032579D3*
Y2572835D3*
X3034846Y2683662D3*
X2149409Y1678544D3*
X3075492Y1901772D3*
X3468897Y2945130D3*
X3751181Y2654926D3*
X4549409D3*
X4943307Y2184056D3*
X6150000D3*
X1546260Y3872835D3*
X3132579Y2428544D3*
X2975492D3*
X6801086Y2819099D3*
X6483661D3*
X6444291D3*
X3393925Y2857087D3*
X3593307D3*
X4588079Y2753745D3*
X4843307Y3060040D3*
X1700000Y1860241D3*
X2932579Y1849414D3*
X3204925Y1916989D3*
X3843311D3*
X4012464Y2079733D3*
X4801008D3*
X4999693Y2302280D3*
X6311023D3*
X1772835Y3544292D3*
X3244295Y2261024D3*
Y2644292D3*
X2875492Y2013441D3*
X3204925D3*
X2875492Y1935044D3*
X1372835Y2489178D3*
X2144291Y2447642D3*
Y2338977D3*
X2100000Y2238583D3*
X3032579Y2612205D3*
X3272838Y2572835D3*
X2775492Y1537260D3*
X4950197Y2340355D3*
X4801008D3*
X3969295D3*
X3762401Y1594347D3*
X2100000Y1895678D3*
X2775492D3*
X3004035Y1594347D3*
X3119783Y1800394D3*
Y2125000D3*
X3984622Y2109371D3*
X3844008Y2184056D3*
X3600394D3*
X4600000Y2457678D3*
X4289964D3*
X6222835Y1671851D3*
X4943307Y2109371D3*
X4828850D3*
X4289964D3*
X6094291Y1671851D3*
X3928937Y2422245D3*
X4672835Y2450796D3*
X4943307Y2242327D3*
X6450000D3*
X5021850Y4196260D3*
Y3500000D3*
X3897047Y1531827D3*
X3936980Y1744296D3*
X5505118Y1700394D3*
Y2743308D3*
X5622835Y2846260D3*
X5040370D3*
X4829551Y2446552D3*
X2988583Y2926575D3*
X2400000Y2855119D3*
X2849890Y2744292D3*
X2400000D3*
X5850000Y735630D3*
X5500000D3*
X5094291Y993308D3*
Y902363D3*
X5711023Y2394292D3*
X5150000Y1007087D3*
X5142909Y902363D3*
X5650000Y1024804D3*
Y909630D3*
Y775000D3*
X5400000D3*
X5750000Y596260D3*
X7762012Y3650788D3*
X8056693D3*
X6428063Y1105516D3*
X6250000D3*
X4300004Y1526969D3*
X4515748D3*
X4971850D3*
X6143468D3*
Y1037607D3*
X6366453D3*
X3928937Y1844686D3*
Y2049414D3*
X3879897Y1956359D3*
X4037008Y1774808D3*
X5093307Y1893308D3*
X6774803D3*
X4943307Y1746264D3*
X6594295Y1643308D3*
X4544882Y1746264D3*
X4943307Y1587993D3*
X6410039Y1290556D3*
X6449413Y1392914D3*
X6750000Y1285630D3*
X6206693Y1444296D3*
X4971850D3*
X3744882Y3874410D3*
X5394291Y1921851D3*
X6494291D3*
X6850000Y1556107D3*
X6494295D3*
X6857480Y1893308D3*
X3493252Y1267126D3*
X5058157Y1250985D3*
X5394295D3*
X5058157Y1085827D3*
X4449413Y3150595D3*
X3255122Y3500000D3*
X5433661Y1950394D3*
X6635236D3*
X6150000Y2116146D3*
X5100000D3*
X5078937Y2903347D3*
X5654642D3*
X2878697Y2898032D3*
X2803390Y3800000D3*
X6605712Y2155512D3*
X5800000D3*
X4971149D3*
X4856693D3*
X3928937D3*
X3871850D3*
X3543701D3*
X6455905Y1144882D3*
X2475492Y2079134D3*
X1465354Y2372839D3*
X6894295Y1806693D3*
X6663779Y1921851D3*
X7044291Y3064174D3*
Y3648426D3*
X2475492Y991536D3*
X3891338D3*
X5495079Y1338583D3*
X4377366D3*
X5495079Y1189174D3*
X4237996Y1175394D3*
X3908437Y1710040D3*
X6821181Y1068308D3*
X6455905D3*
X5900000Y1116339D3*
X3347642Y1710040D3*
X6138976Y3349414D3*
X5694291Y1116339D3*
X6522838Y1421457D3*
X6394295Y1066150D3*
X7083661Y3064174D3*
Y3497835D3*
X4522248Y1004134D3*
X3216634Y1738583D3*
X1449409Y1727756D3*
Y1877957D3*
X1338976Y2944292D3*
X4493705Y1310040D3*
X5600000Y1349410D3*
X5994291Y1310040D3*
X5600000D3*
M02*
