M48
INCH
T01C0.0157
T02C0.0197
T03C0.0236
T04C0.0276
T05C0.0295
T06C0.03
T07C0.0315
T08C0.0354
T09C0.0394
T10C0.0433
T11C0.0472
T12C0.0512
T13C0.1378
%
T01
X+068250Y+018500
X+068575Y+018933
X+067748Y+018933
X+066638Y+019219
X+066352Y+019504
X+064943Y+019219
X+066057Y+021555
X+064500Y+022423
X+063110Y+023023
X+061500Y+021841
X+061500Y+021161
X+058000Y+021555
X+057110Y+023943
X+057000Y+025500
X+055051Y+027433
X+055500Y+028748
X+056228Y+028463
X+056546Y+029033
X+056268Y+029319
X+056567Y+030207
X+058035Y+031366
X+058443Y+030886
X+058715Y+031760
X+057955Y+032137
X+061390Y+033494
X+065285Y+031760
X+066191Y+030886
X+068296Y+030996
X+068296Y+032138
X+069567Y+032449
X+070443Y+030642
X+070837Y+030642
X+072085Y+031567
X+070837Y+034978
X+070443Y+036484
X+066000Y+037500
X+068296Y+029321
X+068011Y+028191
X+067285Y+027906
X+064837Y+028191
X+064443Y+028191
X+068000Y+025500
X+071250Y+025500
X+072000Y+025500
X+072500Y+024000
X+073000Y+023250
X+076750Y+022250
X+074250Y+018500
X+068943Y+018067
X+068500Y+015561
X+065943Y+016433
X+064943Y+015561
X+065228Y+014215
X+064494Y+013929
X+064100Y+012906
X+064559Y+011449
X+064281Y+011055
X+064559Y+010683
X+063943Y+010661
X+063665Y+010376
X+062500Y+011055
X+061435Y+010376
X+059000Y+011163
X+056943Y+011163
X+056500Y+010248
X+056500Y+009096
X+056500Y+007750
X+055000Y+007356
X+054000Y+007750
X+051429Y+009024
X+050943Y+009024
X+050943Y+009933
X+051500Y+010071
X+050582Y+010858
X+051943Y+011762
X+050582Y+012510
X+049719Y+014443
X+049719Y+015270
X+049433Y+015880
X+049433Y+017463
X+050933Y+018933
X+051000Y+021161
X+049711Y+021555
X+049433Y+021841
X+049711Y+022138
X+049433Y+022423
X+049997Y+023023
X+049502Y+023404
X+048010Y+023404
X+048296Y+024466
X+046728Y+024508
X+046000Y+024577
X+045494Y+026549
X+045151Y+027228
X+045881Y+027537
X+046282Y+026943
X+048433Y+029319
X+048711Y+030207
X+048433Y+030600
X+048719Y+030886
X+047000Y+031750
X+046567Y+030207
X+044494Y+031506
X+047000Y+034250
X+049933Y+035728
X+050219Y+035000
X+050504Y+032137
X+052500Y+032137
X+052869Y+031366
X+053500Y+030207
X+053051Y+028000
X+050789Y+029033
X+050404Y+028463
X+054228Y+025199
X+054500Y+022138
X+054337Y+019504
X+053943Y+019219
X+053051Y+018051
X+055051Y+017004
X+054951Y+013386
X+056000Y+013494
X+056000Y+013100
X+054951Y+011892
X+053943Y+012510
X+059943Y+013100
X+062067Y+014443
X+061435Y+015270
X+060943Y+016719
X+062228Y+016719
X+067500Y+012856
X+069500Y+012000
X+068212Y+010683
X+058500Y+007356
X+057500Y+005963
X+049000Y+005000
X+046937Y+009738
X+045222Y+010041
X+044937Y+013100
X+043774Y+013386
X+043000Y+015270
X+045157Y+015270
X+045449Y+017463
X+048010Y+020797
X+048289Y+021094
X+048567Y+021555
X+049433Y+021094
X+047551Y+022138
X+042900Y+021094
X+040125Y+020797
X+039846Y+021094
X+039289Y+021555
X+038719Y+021555
X+038440Y+021841
X+039289Y+020494
X+038799Y+019564
X+038433Y+019170
X+039289Y+018447
X+039370Y+017443
X+039084Y+017100
X+040370Y+017748
X+038970Y+015318
X+037624Y+015943
X+035425Y+013749
X+034933Y+012671
X+034561Y+011380
X+032728Y+013459
X+031483Y+016323
X+030344Y+016641
X+030040Y+015943
X+027755Y+015373
X+026266Y+012780
X+025755Y+011380
X+024755Y+009915
X+025452Y+009344
X+022443Y+013749
X+023058Y+016641
X+021494Y+016785
X+021000Y+018957
X+021000Y+022386
X+021443Y+023390
X+022260Y+024000
X+021974Y+024476
X+021443Y+024476
X+021000Y+024320
X+021285Y+025443
X+023183Y+025443
X+023183Y+024000
X+023469Y+023557
X+024797Y+022315
X+024755Y+020791
X+024344Y+020398
X+027881Y+020398
X+028755Y+020134
X+028755Y+019350
X+029326Y+018494
X+030755Y+019018
X+031198Y+018004
X+032166Y+017386
X+033476Y+017100
X+032049Y+019170
X+032049Y+020134
X+031198Y+021250
X+030433Y+022433
X+030326Y+023433
X+029433Y+023443
X+028567Y+023443
X+028452Y+024571
X+028567Y+025443
X+029433Y+025443
X+030326Y+025728
X+030326Y+026122
X+030348Y+026837
X+031040Y+025443
X+031326Y+024285
X+031483Y+023433
X+032443Y+022610
X+032728Y+025728
X+032443Y+026443
X+033939Y+028571
X+034974Y+028285
X+035933Y+028571
X+034689Y+029451
X+035067Y+030014
X+034689Y+030443
X+034158Y+032000
X+036819Y+033000
X+037567Y+032443
X+037163Y+034000
X+032551Y+035000
X+030697Y+034522
X+031449Y+033000
X+030982Y+031659
X+030697Y+031368
X+029886Y+029266
X+028787Y+028980
X+027854Y+029620
X+027452Y+029557
X+027166Y+031368
X+026797Y+031659
X+027083Y+033000
X+028166Y+032443
X+025221Y+032443
X+025398Y+033728
X+022317Y+033443
X+022317Y+032443
X+021476Y+031443
X+021083Y+030443
X+021813Y+030102
X+022207Y+030395
X+020009Y+030728
X+019390Y+031449
X+020294Y+031728
X+018557Y+032443
X+017728Y+035443
X+019390Y+037551
X+019472Y+038443
X+020390Y+039494
X+017000Y+038443
X+015463Y+038728
X+014892Y+037128
X+014299Y+036443
X+013551Y+033000
X+013390Y+029443
X+012488Y+026433
X+013728Y+024892
X+014368Y+024606
X+014654Y+023728
X+017000Y+021408
X+017728Y+021408
X+018122Y+020906
X+017000Y+018602
X+014494Y+018780
X+014494Y+017278
X+014500Y+012000
X+019188Y+009630
X+027755Y+018957
X+029755Y+024285
X+027629Y+025011
X+027452Y+026837
X+028499Y+027443
X+024404Y+029000
X+024000Y+028551
X+024000Y+027443
X+023183Y+027000
X+024472Y+030680
X+028034Y+038000
X+030171Y+036715
X+030982Y+036494
X+032426Y+039443
X+037449Y+038744
X+038229Y+027228
X+037512Y+026549
X+039181Y+025404
X+039801Y+024577
X+039289Y+024222
X+039693Y+023404
X+042900Y+024577
X+040087Y+026943
X+036004Y+021841
X+035437Y+021555
X+040488Y+011469
X+041380Y+010486
X+042380Y+011754
X+038913Y+009915
X+018014Y+024320
X+016443Y+027000
X+050219Y+041963
X+077620Y+036508
X+080567Y+036508
X+079500Y+014000
T02
X+041870Y+022323
X+041122Y+022323
T03
X+075000Y+015000
X+075000Y+015787
X+075000Y+013787
X+075000Y+013000
T04
X+079327Y+022500
X+080327Y+022500
X+081327Y+022500
X+080327Y+024000
X+080327Y+025000
X+077327Y+025000
X+077327Y+024000
X+079327Y+019500
X+080327Y+019500
X+081327Y+019500
X+074937Y+008717
X+074937Y+007602
X+071937Y+007602
X+071937Y+008717
X+076500Y+037343
X+077500Y+037343
X+077500Y+038343
X+076500Y+038343
X+039004Y+023000
X+037004Y+025000
X+037000Y+026000
X+037000Y+027000
X+037000Y+028000
X+034000Y+028000
X+034000Y+027000
X+034000Y+026000
X+034004Y+025000
X+036004Y+023000
X+024000Y+026000
X+024000Y+028000
X+021000Y+028000
X+021000Y+026000
T05
X+072000Y+010937
X+072500Y+011437
X+073000Y+010937
X+073000Y+022500
X+072500Y+022500
X+072000Y+022500
T07
X+056998Y+035504
X+057998Y+035504
X+058998Y+035504
X+059998Y+035504
X+060998Y+035504
X+061998Y+035504
X+062998Y+035504
X+063000Y+033000
X+062000Y+033000
X+061000Y+033000
X+060000Y+033000
X+059000Y+033000
X+058000Y+033000
X+057000Y+033000
X+056998Y+038504
X+057998Y+038504
X+058998Y+038504
X+059998Y+038504
X+060998Y+038504
X+061998Y+038504
X+062998Y+038504
X+067500Y+038500
X+067500Y+037516
X+071000Y+037516
X+071000Y+038500
X+070000Y+033000
X+069000Y+033000
X+068000Y+033000
X+067000Y+033000
X+066000Y+033000
X+065000Y+033000
X+064000Y+033000
X+064000Y+027000
X+063000Y+027000
X+062000Y+027000
X+061000Y+027000
X+060000Y+027000
X+059000Y+027000
X+058000Y+027000
X+057000Y+027000
X+057500Y+023500
X+056500Y+023500
X+055500Y+023500
X+054500Y+023500
X+053500Y+023500
X+052500Y+023500
X+051500Y+023500
X+050500Y+023500
X+047000Y+022500
X+046000Y+022500
X+045000Y+022500
X+044000Y+022500
X+044000Y+020000
X+043000Y+020000
X+042000Y+020000
X+041000Y+020000
X+041000Y+017000
X+042000Y+017000
X+043000Y+017000
X+044000Y+017000
X+045000Y+017000
X+046000Y+017000
X+047000Y+017000
X+047000Y+020000
X+046000Y+020000
X+045000Y+020000
X+045000Y+025500
X+044000Y+025500
X+046000Y+025500
X+047000Y+025500
X+047000Y+026500
X+047984Y+026500
X+041000Y+032000
X+041000Y+033000
X+041000Y+034000
X+041000Y+035000
X+041000Y+036000
X+041000Y+037000
X+041000Y+038000
X+041000Y+039000
X+038000Y+039000
X+038000Y+038000
X+038000Y+037000
X+038000Y+036000
X+038000Y+035000
X+038000Y+034000
X+038000Y+033000
X+038000Y+032000
X+032000Y+032000
X+032000Y+031000
X+032000Y+030000
X+032000Y+029000
X+032000Y+028000
X+032000Y+027000
X+032000Y+026000
X+032000Y+025000
X+032000Y+024000
X+032000Y+023000
X+032000Y+022000
X+034004Y+021004
X+035004Y+021004
X+036004Y+021004
X+037004Y+021004
X+037004Y+018004
X+036004Y+018004
X+035004Y+018004
X+034004Y+018004
X+039937Y+014000
X+040937Y+014000
X+041937Y+014000
X+042937Y+014000
X+043937Y+014000
X+044937Y+014000
X+045937Y+014000
X+046937Y+014000
X+047937Y+014000
X+048937Y+014000
X+048937Y+011000
X+047937Y+011000
X+046937Y+011000
X+045937Y+011000
X+044937Y+011000
X+043937Y+011000
X+042937Y+011000
X+041937Y+011000
X+040937Y+011000
X+039937Y+011000
X+040937Y+008000
X+041937Y+008000
X+042937Y+008000
X+043937Y+008000
X+044937Y+008000
X+045937Y+008000
X+046937Y+008000
X+046937Y+005000
X+045937Y+005000
X+044937Y+005000
X+043937Y+005000
X+042937Y+005000
X+041937Y+005000
X+040937Y+005000
X+050500Y+017500
X+051500Y+017500
X+052500Y+017500
X+053500Y+017500
X+054500Y+017500
X+055500Y+017500
X+056500Y+017500
X+057500Y+017500
X+058500Y+017500
X+059500Y+017500
X+060500Y+017500
X+061500Y+017500
X+062500Y+017500
X+063500Y+017500
X+064500Y+017500
X+065500Y+017500
X+066500Y+017500
X+067500Y+017500
X+068500Y+017500
X+069500Y+017500
X+068500Y+015000
X+067500Y+015000
X+066500Y+015000
X+065500Y+015000
X+064500Y+015000
X+063500Y+015000
X+062500Y+015000
X+062500Y+012000
X+063500Y+012000
X+064500Y+012000
X+065500Y+012000
X+066500Y+012000
X+067500Y+012000
X+068500Y+012000
X+077010Y+012921
X+077010Y+013906
X+077010Y+014921
X+077010Y+015906
X+069500Y+023500
X+068500Y+023500
X+067500Y+023500
X+066500Y+023500
X+065500Y+023500
X+064500Y+023500
X+063500Y+023500
X+062500Y+023500
X+061500Y+023500
X+060500Y+023500
X+059500Y+023500
X+058500Y+023500
X+065000Y+027000
X+066000Y+027000
X+067000Y+027000
X+068000Y+027000
X+069000Y+027000
X+070000Y+027000
X+078000Y+028500
X+079000Y+027500
X+080000Y+028500
X+079516Y+038500
X+080500Y+038500
X+077492Y+040250
X+076508Y+040250
X+032000Y+040000
X+032000Y+041000
X+032000Y+039000
X+032000Y+038000
X+032000Y+037000
X+032000Y+036000
X+032000Y+035000
X+032000Y+034000
X+032000Y+033000
X+026000Y+033000
X+026000Y+032000
X+026000Y+031000
X+026000Y+030000
X+026000Y+029000
X+026000Y+028000
X+026000Y+027000
X+026000Y+026000
X+026000Y+025000
X+026000Y+024000
X+026000Y+023000
X+026000Y+022000
X+022000Y+023000
X+021000Y+023000
X+020000Y+023000
X+019000Y+023000
X+018000Y+023000
X+017000Y+023000
X+016000Y+023000
X+015000Y+023000
X+014000Y+023000
X+013000Y+023000
X+013000Y+026000
X+013000Y+027000
X+013000Y+028000
X+013000Y+029000
X+013000Y+030000
X+013000Y+031000
X+013000Y+032000
X+013000Y+033000
X+013000Y+034000
X+013000Y+035000
X+013000Y+036000
X+013000Y+037000
X+013000Y+038000
X+013000Y+039000
X+013000Y+040000
X+013000Y+041000
X+019000Y+041000
X+019000Y+040000
X+019000Y+039000
X+019000Y+038000
X+019000Y+037000
X+019000Y+036000
X+019000Y+035000
X+019000Y+034000
X+019000Y+033000
X+019000Y+032000
X+019000Y+031000
X+019000Y+030000
X+019000Y+029000
X+019000Y+028000
X+019000Y+027000
X+019000Y+026000
X+019000Y+020000
X+020000Y+020000
X+021000Y+020000
X+022000Y+020000
X+022000Y+018000
X+021000Y+018000
X+020000Y+018000
X+019000Y+018000
X+018000Y+018000
X+017000Y+018000
X+016000Y+018000
X+015000Y+018000
X+014000Y+018000
X+013000Y+018000
X+013000Y+020000
X+014000Y+020000
X+015000Y+020000
X+016000Y+020000
X+017000Y+020000
X+018000Y+020000
X+018000Y+015000
X+017000Y+015000
X+016000Y+015000
X+015000Y+015000
X+014000Y+015000
X+013000Y+015000
X+009000Y+014953
X+009000Y+015937
X+006000Y+011984
X+006000Y+011000
X+019000Y+015000
X+020000Y+015000
X+021000Y+015000
X+022000Y+015000
X+026000Y+034000
X+026000Y+035000
X+026000Y+036000
X+026000Y+037000
X+026000Y+038000
X+026000Y+039000
X+026000Y+040000
X+026000Y+041000
T08
X+073941Y+038484
X+072941Y+038484
X+072941Y+037484
X+073941Y+037484
X+073941Y+036484
X+072941Y+036484
X+072941Y+035484
X+073941Y+035484
X+073941Y+034484
X+072941Y+034484
X+072941Y+033484
X+073941Y+033484
X+073941Y+032484
X+072941Y+032484
X+072941Y+031484
X+073941Y+031484
X+073941Y+030484
X+072941Y+030484
X+072941Y+029484
X+073941Y+029484
X+073941Y+028484
X+072941Y+028484
X+077327Y+018500
X+078327Y+018500
X+079327Y+018500
X+080327Y+018500
X+080327Y+017500
X+079327Y+017500
X+078327Y+017500
X+077327Y+017500
X+073000Y+015500
X+072000Y+015500
X+071937Y+006246
X+072937Y+006246
X+073937Y+006246
X+074937Y+006246
T09
X+069000Y+008500
X+068000Y+008500
X+068000Y+009500
X+069000Y+009500
X+067470Y+013496
X+063533Y+013496
X+059000Y+009500
X+058000Y+009500
X+057000Y+009500
X+056000Y+009500
X+055000Y+009500
X+054000Y+009500
X+053000Y+009500
X+052000Y+009500
X+052000Y+006500
X+053000Y+006500
X+054000Y+006500
X+054000Y+005500
X+053000Y+005500
X+052000Y+005500
X+051000Y+005500
X+051000Y+006500
X+055000Y+006500
X+055000Y+005500
X+056000Y+005500
X+056000Y+006500
X+061500Y+006500
X+062500Y+006500
X+062500Y+005500
X+061500Y+005500
X+046000Y+006500
X+042063Y+006500
X+035947Y+007010
X+035947Y+010947
X+031755Y+012260
X+030755Y+012260
X+029755Y+012260
X+028755Y+012260
X+027755Y+012260
X+026755Y+012260
X+025755Y+012260
X+024755Y+012260
X+023755Y+012260
X+022755Y+012260
X+021755Y+012260
X+020755Y+012260
X+019755Y+012260
X+018755Y+012260
X+018755Y+006260
X+019755Y+006260
X+020755Y+006260
X+021755Y+006260
X+022755Y+006260
X+023755Y+006260
X+024755Y+006260
X+025755Y+006260
X+026755Y+006260
X+027755Y+006260
X+028755Y+006260
X+029755Y+006260
X+030755Y+006260
X+031755Y+006260
X+042033Y+018496
X+045970Y+018496
X+047000Y+028000
X+048000Y+028000
X+049000Y+028000
X+050000Y+028000
X+051000Y+028000
X+052000Y+028000
X+058031Y+037000
X+061969Y+037000
X+062000Y+041500
X+063000Y+041500
X+064000Y+041500
X+065000Y+041500
X+077335Y+034343
X+078437Y+034343
X+078437Y+033516
X+078437Y+032492
X+078437Y+031665
X+077335Y+031665
X+039500Y+034000
X+039500Y+037937
T10
X+076551Y+005937
X+078323Y+005937
X+078323Y+008496
X+076551Y+008496
X+005937Y+013937
X+005937Y+014937
X+005937Y+015937
T11
X+020000Y+021500
X+020000Y+016500
X+014094Y+016500
X+014094Y+021500
X+016000Y+032000
X+016000Y+037906
X+029000Y+034000
X+029000Y+028094
X+041437Y+012500
X+047343Y+012500
X+062594Y+020500
X+068500Y+020500
X+065906Y+030000
X+060000Y+030000
T12
X+049500Y+031418
X+049500Y+039095
T13
X+005437Y+041437
X+005437Y+020177
X+005437Y+005437
X+074728Y+020177
X+080437Y+005437
X+080437Y+041437
X+074728Y+041437
T00
M30
