%TF.GenerationSoftware,Novarm,DipTrace,4.3.0.5*%
%TF.CreationDate,2023-07-23T01:51:21+01:00*%
%FSLAX26Y26*%
%MOIN*%
%TF.FileFunction,Drawing,Top*%
%TF.Part,Single*%
%ADD17C,0.003937*%
G75*
G01*
%LPD*%
X7932677Y2250000D2*
D17*
Y2170866D1*
X7964173D2*
X7901181D1*
Y2029134D1*
X7964173D2*
Y2170866D1*
X7901181Y2029134D2*
X7964173D1*
X7932677Y1950000D2*
Y2029134D1*
X5647441Y3500394D2*
X6352165D1*
Y3900394D1*
X5689173Y3575394D2*
X5649803Y3614764D1*
X6349803Y3575394D2*
X5689173D1*
X5649803Y3614764D2*
Y3825394D1*
X6349803D1*
Y3575394D1*
X5647441Y3900394D2*
Y3500394D1*
X6352165Y3900394D2*
X5647441D1*
X1950000Y2547638D2*
Y4152362D1*
X1250000D1*
X1889961Y2589370D2*
X1850591Y2550000D1*
X1889961Y4150000D2*
Y2589370D1*
X1850591Y2550000D2*
X1310039D1*
Y4150000D1*
X1889961D1*
X1250000Y2547638D2*
X1950000D1*
X1250000Y4152362D2*
Y2547638D1*
X3400000Y2600000D2*
X3479134D1*
Y2631496D2*
Y2568504D1*
X3620866D1*
Y2631496D2*
X3479134D1*
X3620866Y2568504D2*
Y2631496D1*
X3700000Y2600000D2*
X3620866D1*
X4997638Y1700000D2*
X7002362D1*
Y2400000D1*
X5039370Y1760039D2*
X5000000Y1799409D1*
X7000000Y1760039D2*
X5039370D1*
X5000000Y1799409D2*
Y2339961D1*
X7000000D1*
Y1760039D1*
X4997638Y2400000D2*
Y1700000D1*
X7002362Y2400000D2*
X4997638D1*
X7625591Y603543D2*
Y721654D1*
X7861811Y603543D2*
X7625591D1*
Y721654D2*
Y839764D1*
X7861811D1*
Y603543D1*
X7664348Y721654D2*
G02X7664348Y721654I79353J0D01*
G01*
X6950000Y850000D2*
X6900000Y800000D1*
X6950000Y1000000D2*
Y850000D1*
X6900000Y800000D2*
X6750000D1*
Y1000000D1*
X6950000D1*
X2059055Y2051575D2*
Y2248425D1*
X1350394D1*
Y2051575D2*
X2059055D1*
X1350394Y2248425D2*
Y2051575D1*
X7180315Y1024803D2*
X7318110D1*
X7250000Y1191339D2*
G02X7250000Y1191339I0J0D01*
G01*
X7319041Y1024660D2*
G02X7319041Y1024660I0J0D01*
G01*
X3890945Y3340945D2*
X4009055D1*
Y3852756D1*
X3890945D2*
Y3340945D1*
X4009055Y3852756D2*
X3890945D1*
X5100000Y500000D2*
X5050000Y550000D1*
X5650000Y500000D2*
X5100000D1*
X5050000Y550000D2*
Y700000D1*
X5650000D1*
Y500000D1*
X4475000Y2700000D2*
Y4314173D1*
X5419882Y2700000D2*
X4475000D1*
X4947441Y4077953D2*
X5183661Y4314173D1*
X4475000D2*
X5419882D1*
X4711220D2*
X4947441Y4077953D1*
X5419882Y4314173D2*
Y2700000D1*
X464961Y4360236D2*
Y1801181D1*
X7551575D1*
Y4360236D1*
X464961D1*
X5175000Y900000D2*
X5150000Y925000D1*
X5950000Y900000D2*
X5175000D1*
X5150000Y925000D2*
Y1000000D1*
X5950000D1*
Y900000D1*
X8168110Y1692126D2*
Y2676378D1*
X7597244D1*
Y1692126D1*
X8168110D1*
X4690157Y2681496D2*
Y2618504D1*
X4808268D1*
Y2681496D2*
X4690157D1*
X4808268Y2618504D2*
Y2681496D1*
X2550000Y4152362D2*
Y2147638D1*
X3250000D1*
X2610039Y4110630D2*
X2649409Y4150000D1*
X2610039Y2150000D2*
Y4110630D1*
X2649409Y4150000D2*
X3189961D1*
Y2150000D1*
X2610039D1*
X3250000Y4152362D2*
X2550000D1*
X3250000Y2147638D2*
Y4152362D1*
X2100000Y2800000D2*
X2179134D1*
Y2831496D2*
Y2768504D1*
X2320866D1*
Y2831496D2*
X2179134D1*
X2320866Y2768504D2*
Y2831496D1*
X2400000Y2800000D2*
X2320866D1*
X7465846Y1472340D2*
Y1488088D1*
X7457972Y1480214D2*
X7473720D1*
X7421260Y1539370D2*
G02X7421260Y1539370I78740J0D01*
G01*
X8032677Y2400000D2*
X7953543D1*
Y2368504D2*
Y2431496D1*
X7811811D1*
Y2368504D2*
X7953543D1*
X7811811Y2431496D2*
Y2368504D1*
X7732677Y2400000D2*
X7811811D1*
X1247638Y1450000D2*
X2252362D1*
Y1850000D1*
X1289370Y1525000D2*
X1250000Y1564370D1*
X2250000Y1525000D2*
X1289370D1*
X1250000Y1564370D2*
Y1775000D1*
X2250000D1*
Y1525000D1*
X1247638Y1850000D2*
Y1450000D1*
X2252362Y1850000D2*
X1247638D1*
X8032677Y1950000D2*
Y2029134D1*
X8001181D2*
X8064173D1*
Y2170866D1*
X8001181D2*
Y2029134D1*
X8064173Y2170866D2*
X8001181D1*
X8032677Y2250000D2*
Y2170866D1*
X1501575Y3140945D2*
X1698425D1*
Y3849606D1*
X1501575D2*
Y3140945D1*
X1698425Y3849606D2*
X1501575D1*
X4084646Y1348425D2*
Y1151575D1*
X4793307D1*
Y1348425D2*
X4084646D1*
X4793307Y1151575D2*
Y1348425D1*
X4047638Y1650000D2*
X4752362D1*
Y2050000D1*
X4089370Y1725000D2*
X4050000Y1764370D1*
X4750000Y1725000D2*
X4089370D1*
X4050000Y1764370D2*
Y1975000D1*
X4750000D1*
Y1725000D1*
X4047638Y2050000D2*
Y1650000D1*
X4752362Y2050000D2*
X4047638D1*
X7193701Y871654D2*
X7272835D1*
Y903150D2*
Y840157D1*
X7414567D1*
Y903150D2*
X7272835D1*
X7414567Y840157D2*
Y903150D1*
X7493701Y871654D2*
X7414567D1*
X7650000Y3834252D2*
Y3734252D1*
X7618504Y3834252D2*
G02X7618504Y3834252I31496J0D01*
G01*
X7060630Y3741732D2*
X7139370D1*
Y3859843D1*
X7060630D2*
Y3741732D1*
X7139370Y3859843D2*
X7060630D1*
X1030610Y429134D2*
X1172343D1*
X1030610D2*
X975492Y480315D1*
X1172343Y429134D2*
X1251083Y488189D1*
X1172343Y429134D2*
Y610236D1*
X1505413Y475197D2*
X1459744Y513780D1*
X3443996Y475197D2*
X1505413D1*
X975492Y480315D2*
Y559055D1*
X1251083Y488189D2*
Y551181D1*
X1491634Y488189D2*
X1251083D1*
X1459744Y513780D2*
Y1376772D1*
X1251083Y551181D2*
X1459744D1*
X975492Y559055D2*
X1030610Y610236D1*
Y429134D1*
X1172343Y610236D2*
X1251083Y551181D1*
X1172343Y610236D2*
X1030610D1*
X1459744Y1376772D2*
X3443996D1*
Y475197D1*
X4041339Y450000D2*
X4746063D1*
Y850000D1*
X4083071Y525000D2*
X4043701Y564370D1*
X4743701Y525000D2*
X4083071D1*
X4043701Y564370D2*
Y775000D1*
X4743701D1*
Y525000D1*
X4041339Y850000D2*
Y450000D1*
X4746063Y850000D2*
X4041339D1*
X6197638Y1150000D2*
X6902362D1*
Y1550000D1*
X6239370Y1225000D2*
X6200000Y1264370D1*
X6900000Y1225000D2*
X6239370D1*
X6200000Y1264370D2*
Y1475000D1*
X6900000D1*
Y1225000D1*
X6197638Y1550000D2*
Y1150000D1*
X6902362Y1550000D2*
X6197638D1*
X7674409Y2985433D2*
Y3615354D1*
X8178346Y2985433D2*
X7674409D1*
Y3615354D2*
X8178346D1*
Y2985433D1*
X568504Y1090157D2*
X631496D1*
Y1208268D1*
X568504D2*
Y1090157D1*
X631496Y1208268D2*
X568504D1*
X6695925Y3694724D2*
Y3719528D1*
X6683524Y3707126D2*
X6708327D1*
X6625984Y3800787D2*
G02X6625984Y3800787I124016J0D01*
G01*
X7750000Y3834252D2*
Y3734252D1*
X7718504Y3834252D2*
G02X7718504Y3834252I31496J0D01*
G01*
X3400000Y2800000D2*
X3479134D1*
Y2831496D2*
Y2768504D1*
X3620866D1*
Y2831496D2*
X3479134D1*
X3620866Y2768504D2*
Y2831496D1*
X3700000Y2800000D2*
X3620866D1*
X5940945Y3098425D2*
Y2901575D1*
X6649606D1*
Y3098425D2*
X5940945D1*
X6649606Y2901575D2*
Y3098425D1*
X6175000Y4100000D2*
X6150000Y4125000D1*
X6550000Y4100000D2*
X6175000D1*
X6150000Y4125000D2*
Y4200000D1*
X6550000D1*
Y4100000D1*
X7465846Y1272340D2*
Y1288088D1*
X7457972Y1280214D2*
X7473720D1*
X7421260Y1339370D2*
G02X7421260Y1339370I78740J0D01*
G01*
X4144291Y1908661D2*
Y1790551D1*
X4656102D1*
Y1908661D2*
X4144291D1*
X4656102Y1790551D2*
Y1908661D1*
X6255906Y3640945D2*
Y3759055D1*
X5744094D1*
Y3640945D2*
X6255906D1*
X5744094Y3759055D2*
Y3640945D1*
X6806102Y1290551D2*
Y1408661D1*
X6294291D1*
Y1290551D2*
X6806102D1*
X6294291Y1408661D2*
Y1290551D1*
X1070866Y3761417D2*
X1031496Y3722047D1*
X1070866Y4285039D2*
Y3761417D1*
X716535Y3722047D2*
X1031496D1*
X716535D2*
Y4285039D1*
X1070866D1*
X717717Y1690551D2*
X544488D1*
X667717D2*
Y1296850D1*
X544488Y1690551D2*
Y1296850D1*
X717717Y1566535D2*
X667717D1*
X717717Y1420866D2*
X667717D1*
X717717Y1296850D2*
Y1690551D1*
X544488Y1296850D2*
X717717D1*
X7894724Y3904075D2*
X7919528D1*
X7907126Y3916476D2*
Y3891673D1*
X7876772Y3850000D2*
G02X7876772Y3850000I124016J0D01*
G01*
X7661614Y1282283D2*
X7740354D1*
Y1400394D1*
X7661614D2*
Y1282283D1*
X7740354Y1400394D2*
X7661614D1*
X7309055Y1504087D2*
Y1595913D1*
X7309077Y1595885D1*
X7190945Y1550000D2*
G02X7190945Y1550000I59055J0D01*
G01*
X7319685Y2318898D2*
X7181890D1*
X7250000Y2152362D2*
G02X7250000Y2152362I0J0D01*
G01*
X7180959Y2319041D2*
G02X7180959Y2319041I0J0D01*
G01*
X7493701Y760236D2*
X7414567D1*
Y728740D2*
Y791732D1*
X7272835D1*
Y728740D2*
X7414567D1*
X7272835Y791732D2*
Y728740D1*
X7193701Y760236D2*
X7272835D1*
X1247638Y1950000D2*
X2252362D1*
Y2350000D1*
X1289370Y2025000D2*
X1250000Y2064370D1*
X2250000Y2025000D2*
X1289370D1*
X1250000Y2064370D2*
Y2275000D1*
X2250000D1*
Y2025000D1*
X1247638Y2350000D2*
Y1950000D1*
X2252362Y2350000D2*
X1247638D1*
X7759055Y3993504D2*
Y4056496D1*
X7640945D1*
Y3993504D2*
X7759055D1*
X7640945Y4056496D2*
Y3993504D1*
X3900394Y2300000D2*
X3821260D1*
Y2268504D2*
Y2331496D1*
X3679528D1*
Y2268504D2*
X3821260D1*
X3679528Y2331496D2*
Y2268504D1*
X3600394Y2300000D2*
X3679528D1*
X3700394Y2500000D2*
X3621260D1*
Y2468504D2*
Y2531496D1*
X3479528D1*
Y2468504D2*
X3621260D1*
X3479528Y2531496D2*
Y2468504D1*
X3400394Y2500000D2*
X3479528D1*
X2059055Y1551575D2*
Y1748425D1*
X1350394D1*
Y1551575D2*
X2059055D1*
X1350394Y1748425D2*
Y1551575D1*
X8032677Y2500000D2*
X7953543D1*
Y2468504D2*
Y2531496D1*
X7811811D1*
Y2468504D2*
X7953543D1*
X7811811Y2531496D2*
Y2468504D1*
X7732677Y2500000D2*
X7811811D1*
X4389370Y2275000D2*
X4350000Y2314370D1*
X4750000Y2275000D2*
X4389370D1*
X4350000Y2314370D2*
Y2525000D1*
X4750000D1*
Y2275000D1*
X7877165Y1492520D2*
Y1268110D1*
Y1492520D2*
X7916535Y1531890D1*
X7877165Y1268110D2*
X8022835D1*
X7916535Y1531890D2*
X8022835D1*
Y1268110D1*
X939370Y1603543D2*
X860630D1*
Y1485433D1*
X939370D2*
Y1603543D1*
X860630Y1485433D2*
X939370D1*
X589764Y985236D2*
Y756890D1*
X818110D1*
Y985236D1*
X589764D1*
X3941339Y1050000D2*
X4946063D1*
Y1450000D1*
X3983071Y1125000D2*
X3943701Y1164370D1*
X4943701Y1125000D2*
X3983071D1*
X3943701Y1164370D2*
Y1375000D1*
X4943701D1*
Y1125000D1*
X3941339Y1450000D2*
Y1050000D1*
X4946063Y1450000D2*
X3941339D1*
X3535630Y641929D2*
X3653740D1*
Y1153740D1*
X3535630D2*
Y641929D1*
X3653740Y1153740D2*
X3535630D1*
X3750000Y3952362D2*
Y3147638D1*
X4150000D1*
X3825000Y3910630D2*
X3864370Y3950000D1*
X3825000Y3150000D2*
Y3910630D1*
X3864370Y3950000D2*
X4075000D1*
Y3150000D1*
X3825000D1*
X4150000Y3952362D2*
X3750000D1*
X4150000Y3147638D2*
Y3952362D1*
X7384646Y670520D2*
Y578693D1*
X7384623Y578722D1*
X7384646Y624606D2*
G02X7384646Y624606I59055J0D01*
G01*
X7184646Y670520D2*
Y578693D1*
X7184623Y578722D1*
X7184646Y624606D2*
G02X7184646Y624606I59055J0D01*
G01*
X7712402Y2894882D2*
Y2704724D1*
X8087598D1*
X8037598Y2712008D2*
X8037638Y2797402D1*
X8037598Y2712008D2*
X8037638Y2797402D1*
X8087598Y2894882D2*
X7712402D1*
X8087598Y2704724D2*
Y2894882D1*
X7994488Y2754724D2*
G02X7994488Y2754724I43110J0D01*
G01*
X8132677Y2250000D2*
Y2170866D1*
X8164173D2*
X8101181D1*
Y2029134D1*
X8164173D2*
Y2170866D1*
X8101181Y2029134D2*
X8164173D1*
X8132677Y1950000D2*
Y2029134D1*
X4190157Y2311024D2*
Y2566929D1*
X4109055D1*
X4187008Y2271654D2*
Y2232283D1*
X4163386Y2311024D2*
X4187008Y2271654D1*
X4135827Y2311024D2*
X4112205Y2271654D1*
Y2232283D1*
X4109055Y2311024D2*
X4190157D1*
X4109055Y2566929D2*
Y2311024D1*
X7052362Y3350000D2*
X5647638D1*
Y2650000D1*
X7010630Y3289961D2*
X7050000Y3250591D1*
X5650000Y3289961D2*
X7010630D1*
X7050000Y3250591D2*
Y2710039D1*
X5650000D1*
Y3289961D1*
X7052362Y2650000D2*
Y3350000D1*
X5647638Y2650000D2*
X7052362D1*
X3348031Y1750394D2*
X3752756D1*
Y2150394D1*
X3389764Y1825394D2*
X3350394Y1864764D1*
X3750394Y1825394D2*
X3389764D1*
X3350394Y1864764D2*
Y2075394D1*
X3750394D1*
Y1825394D1*
X3348031Y2150394D2*
Y1750394D1*
X3752756Y2150394D2*
X3348031D1*
X6100000Y650000D2*
X6150000Y700000D1*
X6100000Y500000D2*
Y650000D1*
X6150000Y700000D2*
X6300000D1*
Y500000D1*
X6100000D1*
X6909055Y1951575D2*
Y2148425D1*
X6200394D1*
Y1951575D2*
X6909055D1*
X6200394Y2148425D2*
Y1951575D1*
X4659055Y590945D2*
Y709055D1*
X4147244D1*
Y590945D2*
X4659055D1*
X4147244Y709055D2*
Y590945D1*
X3700000Y2700000D2*
X3620866D1*
Y2668504D2*
Y2731496D1*
X3479134D1*
Y2668504D2*
X3620866D1*
X3479134Y2731496D2*
Y2668504D1*
X3400000Y2700000D2*
X3479134D1*
X2100000Y2600000D2*
X2179134D1*
Y2631496D2*
Y2568504D1*
X2320866D1*
Y2631496D2*
X2179134D1*
X2320866Y2568504D2*
Y2631496D1*
X2400000Y2600000D2*
X2320866D1*
X2998425Y3459055D2*
X2801575D1*
Y2750394D1*
X2998425D2*
Y3459055D1*
X2801575Y2750394D2*
X2998425D1*
X7661614Y1482283D2*
X7740354D1*
Y1600394D1*
X7661614D2*
Y1482283D1*
X7740354Y1600394D2*
X7661614D1*
M02*
