%TF.GenerationSoftware,Novarm,DipTrace,4.3.0.4*%
%TF.CreationDate,2023-07-28T17:07:57+01:00*%
%FSLAX26Y26*%
%MOIN*%
%TF.FileFunction,Copper,L1,Top*%
%TF.Part,Single*%
%TA.AperFunction,Conductor*%
%ADD13C,0.009843*%
%ADD14C,0.007874*%
%ADD15C,0.03937*%
%TA.AperFunction,ComponentPad*%
%ADD20C,0.055118*%
%ADD21C,0.055118*%
%ADD23C,0.08*%
%ADD24R,0.062992X0.062992*%
%ADD25C,0.062992*%
%ADD26C,0.062992*%
%ADD27C,0.06*%
%ADD28C,0.059055*%
%ADD29C,0.137795*%
%ADD30R,0.051181X0.051181*%
%ADD31C,0.051181*%
%ADD32R,0.066929X0.066929*%
%ADD33C,0.066929*%
%ADD34R,0.056693X0.056693*%
%ADD35C,0.056693*%
%ADD36O,0.137795X0.07874*%
%ADD37O,0.07874X0.15748*%
%ADD38C,0.066929*%
%ADD39R,0.181102X0.07874*%
%ADD40O,0.165354X0.07874*%
%ADD41O,0.07874X0.165354*%
%ADD42R,0.075X0.07874*%
%ADD43O,0.075X0.07874*%
%ADD44R,0.041339X0.059055*%
%ADD45O,0.041339X0.059055*%
%ADD46R,0.082677X0.082677*%
%ADD47C,0.082677*%
%ADD48C,0.056693*%
%ADD49R,0.059055X0.07874*%
%ADD50R,0.149606X0.07874*%
%TA.AperFunction,ComponentPad*%
%ADD51R,0.086614X0.086614*%
%ADD52C,0.086614*%
%TA.AperFunction,ViaPad*%
%ADD53C,0.04*%
%TA.AperFunction,ComponentPad*%
%ADD122C,0.03937*%
G75*
G01*
%LPD*%
X7427953Y4819685D2*
D13*
X7251969D1*
X7177953Y4893701D1*
X7427953Y5067717D2*
Y5143701D1*
X7477953Y5193701D1*
X6777953Y4893701D2*
X6733661Y4937992D1*
X6637992D1*
X6593701Y4893701D1*
X6877953D2*
X6777953D1*
X7077953D2*
X7037598Y4853346D1*
X6918307D1*
X6877953Y4893701D1*
X7177953D2*
X7077953D1*
X7427953Y4819685D2*
D14*
Y4717004D1*
X7443701Y4701256D1*
X7477953D1*
X7293701Y6293701D2*
D15*
Y6393701D1*
X4644094Y5893504D2*
D13*
X4593504D1*
X4493701Y5793701D1*
X793701Y4694094D2*
X693701Y4794094D1*
Y5734252D1*
Y6293307D1*
X844488Y6444094D1*
X8693701Y4543701D2*
D15*
X8868701Y4368701D1*
X9093701D1*
X2993504Y5243701D2*
D13*
Y4893504D1*
X2693701Y4593701D1*
X5244094Y5893504D2*
X5193504D1*
X5093701Y5793701D1*
X4643307Y4493504D2*
X4543504D1*
X4493701Y4443701D1*
X4543701Y6343701D2*
X4143701D1*
X4043701Y6443701D1*
X9693701Y5793701D2*
D15*
X9743701Y5743701D1*
X10143701D1*
X10193701Y5793701D1*
Y6056496D1*
X7277953Y5193701D2*
D13*
Y5127165D1*
X7337402Y5067717D1*
X2043504Y5442913D2*
Y5493701D1*
X1743504Y5793701D1*
X4043701Y5893701D2*
X3993701D1*
X3893701Y5793701D1*
X4043701Y4493701D2*
X3943701D1*
X3893701Y4443701D1*
X5243307Y4493504D2*
X5143504D1*
X5093701Y4443701D1*
X7188976Y3993701D2*
X6893701D1*
X6593701Y3693701D1*
X8143701Y5394488D2*
Y4943701D1*
X7843504Y4643504D1*
X7293701Y6393701D2*
D15*
X7344094Y6444094D1*
Y6543701D1*
X4043701Y6443701D2*
D13*
X3693701D1*
X10193701Y6056496D2*
D15*
Y6245276D1*
X10242126Y6293701D1*
X7188976Y3993701D2*
D14*
X7458224D1*
X7616689Y4152165D1*
X7777953D1*
X7793701Y4167913D1*
Y4293701D1*
X4043701Y4493701D2*
X4093701Y4443701D1*
X4493701D1*
X4043701Y5893701D2*
X4098425Y5838976D1*
X4371654D1*
X4387402Y5823228D1*
Y5704685D1*
X4403150Y5688937D1*
X4493701D1*
X5643701Y4293701D2*
X5443898Y4493504D1*
X5243307D1*
X1743504Y5793701D2*
X1682480Y5732677D1*
Y5668504D1*
X1666732Y5652756D1*
X1346157D1*
X1264661Y5734252D1*
X693701D1*
X4644094Y5893504D2*
X4700787Y5836811D1*
X4965846D1*
X5008957Y5793701D1*
X5093701D1*
X9143701Y6143701D2*
X8943701D1*
X8843701Y6043701D1*
X7293701Y6393701D2*
X7204728Y6482673D1*
X6754728D1*
X6693701Y6543701D1*
X3893701Y4443701D2*
X2999751D1*
X2984004Y4459449D1*
X2693705D1*
X5893701Y3693701D2*
X5938980Y3648421D1*
X6548421D1*
X6593701Y3693701D1*
X3693701Y6443701D2*
X3638976Y6498425D1*
Y6573228D1*
X3623228Y6588976D1*
X3256693D1*
X3240945Y6573228D1*
Y6506693D1*
X3225197Y6490945D1*
X2940945D1*
X2893701Y6443701D1*
X2216886Y5541260D2*
X2993508D1*
X7644094Y5843307D2*
X7514593D1*
X7465382Y5892520D1*
X7284720D1*
X7793701Y4293701D2*
X7854728Y4354728D1*
X8482673D1*
X8543701Y4293701D1*
X4493701Y4443701D2*
Y4258787D1*
X4509449Y4243039D1*
X5049921D1*
X1793701Y4093701D2*
Y3996738D1*
X1870193Y3920244D1*
X2693705Y4459449D2*
X1809449D1*
X1793701Y4443701D1*
Y4093701D1*
X7284720Y5892520D2*
X7015634D1*
X6966421Y5843307D1*
X6894094D1*
X9943701Y6293701D2*
D15*
X9993701Y6243701D1*
Y6056496D1*
X10093701Y5956496D1*
Y5843701D1*
X1666413Y6468819D2*
D14*
X1690155Y6445079D1*
X2526276D1*
X2685921Y6604724D1*
X3032677D1*
X3093701Y6543701D1*
X1393701Y5594094D2*
X1436614Y5637008D1*
X1743504D1*
Y5693701D1*
X3093701Y6543701D2*
X3154724Y6604724D1*
X5031823D1*
X5236154Y6400394D1*
X6838980D1*
X2914937Y5468819D2*
X2761892D1*
X2737010Y5493701D1*
X2693701D1*
X1802874Y5304567D2*
X2216890D1*
X1743504Y4693701D2*
X1636886D1*
X5018110Y4632445D2*
X3780268D1*
X3675705Y4737008D1*
X3105669D1*
X3089921Y4752756D1*
Y5068819D1*
X2693701Y5493701D2*
X2459252D1*
X2434370Y5468819D1*
X833457Y5350394D2*
X846841Y5337008D1*
X1652394D1*
X1743504Y4593701D2*
X1268622D1*
X928071Y4934252D1*
X757677D1*
X741929Y4950000D1*
Y5142323D1*
X793701Y5194094D1*
X3293701Y4893701D2*
X4558214D1*
X4573962Y4909449D1*
Y5025982D1*
X4589713Y5041732D1*
X4860954D1*
X4876702Y5057480D1*
Y5226112D1*
X4944094Y5293504D1*
X2343504Y4693701D2*
X2386811Y4650394D1*
Y4554252D1*
X2371063Y4538504D1*
X2091772D1*
X1993268Y4637008D1*
X1353543D1*
X1337795Y4652756D1*
Y4738189D1*
X1393701Y4794094D1*
X2693701Y4993701D2*
X2434056D1*
X2418307Y4977953D1*
Y4809449D1*
X2402559Y4793701D1*
X2343504D1*
X2497992D2*
Y4554567D1*
X2513740Y4538819D1*
X3590508D1*
X3620512Y4568823D1*
X4850843D1*
X2343504Y4793701D2*
X2402559Y4734646D1*
Y4538504D1*
X2386811Y4522756D1*
X1165039D1*
X793701Y4894094D1*
X3700945Y4780000D2*
X4813858D1*
X911980Y4507008D2*
X2434370D1*
X2497992D2*
X3653071D1*
Y4780000D2*
X3647016Y4793701D1*
X3293701D1*
X3653071Y4780000D2*
X3647016Y4786055D1*
Y4793701D1*
X3457319Y5673071D2*
X3601223D1*
X3735319Y5538976D1*
X4725492D1*
X4780020Y5593504D1*
X4944094D1*
X2693701Y5593701D2*
X3188587D1*
X3245280Y5537008D1*
X3457319D1*
X3489130Y5005197D2*
Y5577949D1*
X3473378Y5593701D1*
X3293701D1*
X3489130Y4850394D2*
X6343071D1*
X7752634Y6196850D2*
X6279449D1*
X1603114Y5494094D2*
X1393701D1*
X3293701Y5593701D2*
X3250394Y5637008D1*
X2216571D1*
X2200823Y5652756D1*
Y5810748D1*
X2185075Y5826496D1*
X1802874D1*
X6343071Y4850394D2*
Y4544331D1*
X6593701Y4293701D1*
X3105988Y6268819D2*
X5993357D1*
X6017453Y6244724D1*
X7705839D1*
X3293701Y5493701D2*
X3237008Y5437008D1*
X2200823D1*
X2185075Y5452756D1*
Y5753071D1*
X2169327Y5768819D1*
X2102563D1*
X2086815Y5753071D1*
Y5415354D1*
X2071067Y5399606D1*
X1837598D1*
X1743504Y5493701D1*
X1684728D1*
X1585122Y5394094D1*
X1393701D1*
X2946748Y5184642D2*
Y4952756D1*
X2931000Y4937008D1*
X2481930D1*
X2466181Y4921260D1*
Y4490945D1*
X2450433Y4475197D1*
X1433858D1*
X1393701Y5294094D2*
X1668457D1*
X1684205Y5309843D1*
Y5334402D1*
X1743504Y5393701D1*
X3425508Y6093697D2*
X4601941D1*
X4608827Y6086811D1*
X7875311D1*
X7918622Y6043500D1*
X3293701Y5293701D2*
X3250394Y5337008D1*
X1786811D1*
X1743504Y5293701D1*
X1686811Y5237008D1*
X1436614D1*
X1393701Y5194094D1*
X3293701Y5193701D2*
X3213780Y5273622D1*
Y5302756D1*
X3198031Y5318504D1*
X2785882D1*
X2770134Y5302756D1*
Y5252756D1*
X2754386Y5237008D1*
X2316390D1*
X2273083Y5193701D1*
X1743504D1*
X1493307D1*
X1393701Y5094094D1*
X3293701Y5093701D2*
X3175409Y5211992D1*
Y5287008D1*
X3159661Y5302756D1*
X2818395D1*
X2802644Y5287007D1*
Y5152756D1*
X2786896Y5137008D1*
X2300647D1*
X2257339Y5093701D1*
X1743504D1*
X1651371D1*
X1551765Y4994094D1*
X1393701D1*
X2233780Y5001969D2*
X1858673D1*
X1850406Y4993701D1*
X1743504D1*
X2154724Y4926496D2*
X2244213Y4837008D1*
X2386811D1*
X2402559Y4852756D1*
Y5021260D1*
X2418307Y5037008D1*
X2833315D1*
X2849063Y5052756D1*
Y5271256D1*
X2864815Y5287008D1*
X3137794D1*
X3153543Y5271260D1*
Y5133858D1*
X3293701Y4993701D1*
X1743504D2*
X1686811Y4937008D1*
X1436614D1*
X1393701Y4894094D1*
X2693701Y5093701D2*
X2402564D1*
X2386811Y5077949D1*
Y4952756D1*
X2371063Y4937008D1*
X2226575D1*
X2177362Y4986220D1*
X2018760D1*
X1926240Y4893701D1*
X1743504D1*
X4938425Y4811811D2*
X3416063D1*
X3381386Y4846488D1*
X3121732D1*
X1743504Y4893701D2*
X1558913D1*
X1517969Y4852756D1*
X1292995D1*
X1151657Y4994094D1*
X793701D1*
X1785488Y4837008D2*
X1986854D1*
X4970236Y4600634D2*
X3674980D1*
X3638606Y4637008D1*
X3073858D1*
X3058110Y4652756D1*
Y4894362D1*
X1743504Y4793701D2*
X1700197Y4837008D1*
X1145906D1*
X6593701Y4593701D2*
D13*
Y4493701D1*
X6793701Y4293701D1*
X6693701Y4893701D2*
X6993701Y4593701D1*
Y4293701D1*
X5432362Y4193504D2*
D14*
X5243307D1*
X5528791Y4199724D2*
X5544854Y4183661D1*
X7583661D1*
X7693701Y4293701D1*
X3743701Y5793701D2*
X3800394Y5737008D1*
X4287598D1*
X4344094Y5793504D1*
Y5593504D2*
X4103075Y5593500D1*
X3743701Y5393701D2*
X3788976Y5438976D1*
X4192917D1*
X4238390Y5393504D1*
X4344094D1*
X5243307Y4393504D2*
X5002362D1*
X4986614Y4409252D1*
Y4537012D1*
X3787012D1*
X3743701Y4493701D1*
X4841043Y1706402D2*
Y1659055D1*
X4856791Y1643307D1*
X5243701D1*
X5454168Y1432840D1*
X5634052D1*
X5705869Y1361024D1*
X6043701D1*
X1743701Y2861024D2*
X1646669Y2763992D1*
Y2208055D1*
X1743701Y2111024D1*
X5543705Y1264177D2*
X6692732D1*
X6712417Y1244492D1*
Y692307D1*
X6793701Y611024D1*
Y2111024D2*
X6696669Y2208055D1*
Y2763992D1*
X6793701Y2861024D1*
X6891043Y1361024D2*
Y1920000D1*
X6793701Y1361024D2*
Y1260244D1*
X6777949Y1244492D1*
X6712417D1*
X1743701Y611024D2*
X1811260Y543465D1*
X4090728D1*
X4106476Y559213D1*
Y1248429D1*
X4122224Y1264177D1*
X5543705D1*
X1743701Y1361024D2*
X1646669Y1263992D1*
Y708055D1*
X1743701Y611024D1*
Y2111024D2*
X1840728Y2013996D1*
Y1458051D1*
X1743701Y1361024D1*
X5486146Y1686614D2*
X4906528D1*
X4839181Y1753961D1*
X4634567D1*
X4618819Y1738213D1*
Y1512028D1*
X5486146Y2086614D2*
X5809386D1*
X5836945Y2059055D1*
X7491732D1*
X7543701Y2111024D1*
X2493701Y2861024D2*
X2396669Y2763992D1*
Y2208055D1*
X2493701Y2111024D1*
X7543701Y611024D2*
X7640728Y708051D1*
Y1263996D1*
X7543701Y1361024D1*
Y2111024D2*
X7446669Y2208055D1*
Y2763992D1*
X7543701Y2861024D1*
X2493701Y1361024D2*
X2396669Y1263992D1*
Y708055D1*
X2493701Y611024D1*
Y2111024D2*
X2590728Y2013996D1*
Y1361024D1*
X2493701D1*
X7543701D2*
X7446669Y1458055D1*
Y1822970D1*
X7543701Y1920000D1*
X8293701Y2861024D2*
X8209449Y2776772D1*
Y2195276D1*
X8293701Y2111024D1*
X8198425Y2015748D1*
X5594886D1*
X5579138Y2000000D1*
X5567327D1*
X4625594D1*
X4611413Y2014181D1*
X3344665D1*
Y1461988D1*
X3243701Y1361024D1*
X3344665Y2014181D2*
Y2095277D1*
X3328919Y2111024D1*
X3243701D1*
X8196354Y1920000D2*
Y1361024D1*
X3243701D2*
X3146669Y1263992D1*
Y708055D1*
X3243701Y611024D1*
X5567327Y2000000D2*
X5587012Y1980315D1*
Y1886618D1*
X5543701Y1843307D1*
X3243701Y2111024D2*
X3146669Y2208055D1*
Y2763992D1*
X3243701Y2861024D1*
X8196354Y1361024D2*
Y708370D1*
X8293701Y611024D1*
X3993701D2*
X4090728Y708051D1*
Y1263996D1*
X3993701Y1361024D1*
X3896669Y1966622D2*
X3928480Y1998433D1*
X4602756D1*
X4714575Y1886614D1*
X5480709D1*
X5500394Y1866929D1*
Y1802362D1*
X5516142Y1786614D1*
X5608648D1*
X5624396Y1802362D1*
Y1982680D1*
X5640146Y1998429D1*
X8922736D1*
X8938484Y1982681D1*
Y1950555D1*
X9043701Y2111024D2*
X8946669Y2208055D1*
Y2763992D1*
X9043701Y2861024D1*
X3993701Y2111024D2*
X4090728Y2208051D1*
Y2763996D1*
X3993701Y2861024D1*
X9043701Y1361024D2*
X9140728Y1263996D1*
Y708051D1*
X9043701Y611024D1*
X8938484Y1950555D2*
Y1466240D1*
X9043701Y1361024D1*
X5500394Y1866929D2*
Y1900000D1*
X5543701Y1943307D1*
X3993701Y1361024D2*
X3896669Y1458055D1*
Y1966622D1*
X4743701Y2111024D2*
X4947175D1*
X4958197Y2100000D1*
X5023264D1*
X5543701Y2043307D2*
X7639499D1*
X7655247Y2059055D1*
Y2353358D1*
X8214727Y2912839D1*
X8327161D1*
X8363858Y2876142D1*
X8880311D1*
X8917008Y2912839D1*
X9069604D1*
X9121419Y2861024D1*
X9793701D1*
X5023264Y2100000D2*
X5324173D1*
X5380866Y2043307D1*
X5543701D1*
X6532673Y5427559D2*
X7743524D1*
X7802776Y5486811D1*
X8245720D1*
X8345720Y5386811D1*
X8486811D1*
X8502559Y5402559D1*
Y5827756D1*
X8486811Y5843504D1*
X8443504D1*
X2531457Y5868819D2*
X2495395D1*
X2420276Y5793701D1*
X2343504D1*
X6311260Y5636811D2*
X4807252D1*
X4750559Y5693504D1*
X4644094D1*
X2343504Y5793701D2*
X2198228Y5938976D1*
X1666732D1*
X1650984Y5923228D1*
Y5709843D1*
X1635236Y5694094D1*
X1393701D1*
X3293701Y5793701D2*
X3184642Y5684642D1*
X2805706D1*
X2753339Y5737008D1*
X2531457D1*
X3743701Y5693701D2*
X3643701Y5793701D1*
X3293701D1*
X4644094Y5693504D2*
X4587598Y5637008D1*
X3800394D1*
X3743701Y5693701D1*
X4644094Y5493504D2*
X4813087D1*
X4856395Y5536811D1*
X5517768D1*
X5583516Y5471063D1*
X7037008D1*
X4552756Y5984567D2*
X3930319D1*
X3338976Y6400327D2*
Y6498425D1*
X3293701Y6543701D1*
X1587051Y5794094D2*
X1393701D1*
X2284130Y5693701D2*
X2216571Y5761260D1*
Y5858622D1*
X2200823Y5874370D1*
X1804843D1*
X7037008Y5471063D2*
X7687402D1*
X7703150Y5486811D1*
Y5671063D1*
X7718898Y5686811D1*
X8386811D1*
X8443504Y5743504D1*
X3293701Y5893701D2*
X3100390Y5700390D1*
X2934449D1*
X2797831Y5837008D1*
X2486811D1*
X2343504Y5693701D1*
X3930319Y5984567D2*
X3898508Y6016378D1*
X3486848D1*
X3364169Y5893701D1*
X3293701D1*
X7093701Y3693701D2*
X7003228Y3603228D1*
X5732677D1*
X5593780Y3742126D1*
X4845236D1*
X4750236Y3837126D1*
X4644094Y5293504D2*
X4600591Y5337008D1*
X3787008D1*
X3743701Y5293701D1*
X3293701Y5993701D2*
X3393697D1*
X2768823Y5509449D2*
X3111416D1*
X3138976Y5537008D1*
X2420276Y5593701D2*
X2618583D1*
X3743701Y5293701D2*
X3608874Y5428528D1*
Y5625512D1*
X3593126Y5641260D1*
X3409445D1*
X3393697Y5657008D1*
Y5705197D1*
X2693701Y6093701D2*
X2538622D1*
X2483898Y6038976D1*
X7233071Y5786614D2*
X7703346D1*
X7734961Y5755000D1*
X4644094Y5093504D2*
X4541933D1*
X4526181Y5077752D1*
Y4925197D1*
X4510433Y4909449D1*
X3700080D1*
X3684331Y4925197D1*
Y5193701D1*
X2483898Y6038976D2*
X1574776D1*
X1559028Y6023228D1*
Y5869685D1*
X1543280Y5853937D1*
X757677D1*
X741929Y5869685D1*
Y5942323D1*
X793701Y5994094D1*
X7170394Y4136102D2*
X4718425Y4136811D1*
X3684331Y5193701D2*
X3528739Y5349293D1*
Y5609761D1*
X3512988Y5625512D1*
X3353075D1*
X3240945Y6398736D2*
X3238664Y6396457D1*
X2743705D1*
X2695748Y6348500D1*
X4301102Y6061886D2*
X7199453D1*
X7241575Y6019764D1*
X2693701Y5993701D2*
X2768823Y6068823D1*
Y6138972D1*
Y6364252D2*
X3414252D1*
X3493701Y6443701D1*
X2153264Y5737008D2*
Y5409449D1*
X2169010Y5393701D1*
X2343504D1*
X7241575Y6019764D2*
X7551492D1*
X7784445Y5786811D1*
X8471063D1*
X8486811Y5771063D1*
Y5486811D1*
X8443504Y5443504D1*
X2300197Y6138976D2*
X1543280D1*
X1527531Y6123228D1*
Y5950000D1*
X1511783Y5934252D1*
X833858D1*
X793701Y5894094D1*
X2768823Y6138972D2*
X2300197Y6138976D1*
X3493701Y6443701D2*
Y6342720D1*
X3509449Y6326972D1*
X3883354D1*
X3899102Y6342720D1*
Y6406657D1*
X2554965Y6538976D2*
X1362424D1*
X1069314Y6245865D1*
X741932D1*
X726181Y6230114D1*
Y5809843D1*
X741929Y5794094D1*
X793701D1*
X7419685Y5386811D2*
X7881728D1*
X7948461Y5453543D1*
X8233280D1*
X8343319Y5343504D1*
X8443504D1*
X4269291Y6016378D2*
X6930613D1*
X7022661Y5924331D1*
X7419685D1*
X3548425Y6488976D2*
X3538976Y6479528D1*
Y6390594D1*
X3554724Y6374846D1*
X3851228D1*
X4272677Y5436811D2*
X6392150D1*
X6481087Y5347874D1*
X7580945D1*
X1947248Y5460906D2*
X1871146Y5537008D1*
X950787D1*
X793701Y5694094D1*
X7782835Y5586811D2*
X8220823D1*
X8352634Y5455000D1*
X7542039Y5502874D2*
X7558102Y5486811D1*
X7671654D1*
X7687402Y5502559D1*
Y5702874D1*
X7703150Y5718622D1*
X7782835D1*
X2452087Y6268819D2*
X2846724D1*
X2343504Y5093701D2*
X2286811Y5037008D1*
X1684764D1*
X1669016Y5021260D1*
Y4968819D1*
X1825512Y4337012D2*
X3937008D1*
X4285035Y4941260D2*
X4494685D1*
X4510433Y4957008D1*
Y5121063D1*
X4526181Y5136811D1*
X4819043D1*
X4834791Y5152559D1*
Y5323028D1*
X4850543Y5338780D1*
X6143348D1*
X6186063Y5296063D1*
X7902559D1*
X1669016Y4968819D2*
X1497240D1*
X1481177Y4952756D1*
X1238075D1*
X956579Y5234252D1*
X769291D1*
X753543Y5250000D1*
Y5553937D1*
X793701Y5594094D1*
X10143701Y6293701D2*
D15*
X10093701Y6243701D1*
Y6242126D1*
X10042126Y6293701D1*
X3743701Y3893701D2*
D13*
X3843701D1*
X3893701Y3943701D1*
X4181496Y6443701D2*
X4081496Y6543701D1*
X3793701D1*
X9093701Y4468701D2*
D15*
X8906496D1*
X8831496Y4543701D1*
X2043504Y4942913D2*
D13*
Y4893701D1*
X2343504Y4593701D1*
X7893701Y4293701D2*
Y4198425D1*
X7688976Y3993701D1*
X4944094Y4993504D2*
X5093701Y5143110D1*
Y5293701D1*
X7376378Y5193701D2*
X7420669Y5237992D1*
X7496299D1*
X7527165Y5207126D1*
Y5144488D1*
X7576378Y5193701D1*
X7843504Y6543504D2*
X8143701Y6243307D1*
Y5894488D1*
X4943307Y3793504D2*
X5092520Y3942717D1*
X5093701Y3943701D1*
X4343307Y3893504D2*
X4443504D1*
X4493701Y3943701D1*
X10093701Y6242126D2*
D15*
Y6056496D1*
X4344094Y4993504D2*
D13*
X4493701Y5143110D1*
Y5193504D1*
Y5293701D1*
X7518504Y5067717D2*
Y5135827D1*
X7527165Y5144488D1*
X1393701Y5994094D2*
Y6338978D1*
Y6394882D1*
X1344488Y6444094D1*
X3743701Y4993701D2*
X3893701Y5143701D1*
Y5293701D1*
X2993504Y5743701D2*
Y5793504D1*
X3293701Y6093701D1*
X9619291Y6391732D2*
D15*
X9501181Y6273622D1*
Y5848425D1*
X9555906Y5793701D1*
X10042126Y6293701D2*
X9944094Y6391732D1*
X9619291D1*
X9193701Y6093701D2*
D14*
Y6271059D1*
X9177949Y6286811D1*
X8419878D1*
X8400193Y6306496D1*
Y6473031D1*
X8415941Y6488780D1*
X8598425D1*
X8643701Y6443504D1*
X1393701Y4694094D2*
X1436614Y4737008D1*
X2027756D1*
X2043504Y4752756D1*
Y4893701D1*
X6793701Y3693701D2*
Y3793761D1*
X6809449Y3809508D1*
X7688976D1*
X3293701Y6093701D2*
X3337280Y6050122D1*
X4101811D1*
X4133622Y6018311D1*
X4344094Y4993504D2*
X4136224D1*
X4120476Y5009252D1*
Y5116925D1*
X4043701Y5193701D1*
X3893701Y3943701D2*
X4293110D1*
X4343307Y3893504D1*
X6243701Y3993701D2*
X6174016Y3924016D1*
X5793705D1*
Y3817406D1*
X5793701Y3817402D1*
Y3693701D1*
X6693701Y5193701D2*
Y5248819D1*
X7321260D1*
X7376378Y5193701D1*
X8143701Y6243307D2*
X8187205Y6286811D1*
X8419878D1*
X7093701Y4293701D2*
X7174146Y4374146D1*
X7270787D1*
X9193701Y5843701D2*
X9302425D1*
X9307150Y5848425D1*
X9501181D1*
X4493701Y3943701D2*
X5093701D1*
X7244094Y6543701D2*
X7183071Y6604724D1*
X6654724D1*
X6593701Y6543701D1*
X2793701D2*
X2642209Y6392209D1*
Y6338978D1*
X2680555Y6300630D1*
X3293701D1*
X4644094Y5193504D2*
X4493701D1*
X7344094Y5743307D2*
X7644094D1*
X4644094Y4993504D2*
X4944094D1*
X5093701Y5143110D2*
Y5009251D1*
X5109448Y4993504D1*
X5244094D1*
X1393701Y6338978D2*
X2642209D1*
X7688976Y3809508D2*
X8058736D1*
X8174543Y3693701D1*
X8243701D1*
X5093701Y3943701D2*
X5774018D1*
X5793705Y3924016D1*
X7444094Y6543701D2*
D13*
Y6443307D1*
X7593701Y6293701D1*
X6894094Y5643307D2*
D14*
X7164587D1*
X7207894Y5686614D1*
X7530228D1*
X7541319D1*
X7584626Y5643307D1*
X7644094D1*
X7544094Y6543701D2*
D13*
Y6443307D1*
X7593701Y6393701D1*
X6894094Y5543307D2*
D14*
X7123772D1*
X7167079Y5586614D1*
X7451496D1*
X7541727D1*
X7585034Y5543307D1*
X7644094D1*
X5286079Y5736811D2*
X4900941D1*
X4869130Y5768622D1*
X4782047D1*
X3093701Y6332441D2*
X3391575D1*
X3423386Y6300630D1*
X4885035D1*
X9048421Y5532358D2*
X8993969Y5586811D1*
X8534370D1*
X1915437Y4668819D2*
X2010709D1*
X1543701Y1943307D2*
X1587008Y1900000D1*
Y1483858D1*
X1546850Y1443701D1*
X1543701Y1193307D2*
X1587008Y1150000D1*
Y733858D1*
X1546850Y693701D1*
X2293701Y3443307D2*
X2337008Y3400000D1*
Y2983858D1*
X2296850Y2943701D1*
X2293701Y2693307D2*
X2337008Y2650000D1*
Y2233858D1*
X2296850Y2193701D1*
X2293701Y1943307D2*
X2337008Y1900000D1*
Y1483858D1*
X2296850Y1443701D1*
X2293701Y1193307D2*
X2337008Y1150000D1*
Y733858D1*
X2296850Y693701D1*
X3043701Y3443307D2*
X3087008Y3400000D1*
Y2983858D1*
X3046850Y2943701D1*
X3043701Y2693307D2*
X3087008Y2650000D1*
Y2233858D1*
X3046850Y2193701D1*
X3043701Y1943307D2*
X3087008Y1900000D1*
Y1483858D1*
X3046850Y1443701D1*
X3043701Y1193307D2*
X3087008Y1150000D1*
Y733858D1*
X3046850Y693701D1*
X3793701Y3443307D2*
X3837008Y3400000D1*
Y2983858D1*
X3796850Y2943701D1*
X3793701Y2693307D2*
X3837008Y2650000D1*
Y2233858D1*
X3796850Y2193701D1*
X3793701Y1943307D2*
X3837008Y1900000D1*
Y1483858D1*
X3796850Y1443701D1*
X3793701Y1193307D2*
X3837008Y1150000D1*
Y733858D1*
X3796850Y693701D1*
X4543701Y3443307D2*
X4587008Y3400000D1*
Y2983858D1*
X4546850Y2943701D1*
X4543701Y2693307D2*
X4587008Y2650000D1*
Y2233858D1*
X4546850Y2193701D1*
X4543701Y1943307D2*
X4587008Y1900000D1*
Y1483858D1*
X4546850Y1443701D1*
X4543701Y1193307D2*
X4587008Y1150000D1*
Y733858D1*
X4546850Y693701D1*
X5843701Y3443307D2*
X5887008Y3400000D1*
Y2983858D1*
X5846850Y2943701D1*
X5843701Y2693307D2*
X5887008Y2650000D1*
Y2233858D1*
X5846850Y2193701D1*
X5843701Y1943307D2*
X5887008Y1900000D1*
Y1483858D1*
X5846850Y1443701D1*
X5843701Y1193307D2*
X5887008Y1150000D1*
Y733858D1*
X5846850Y693701D1*
X6593701Y3443307D2*
X6637008Y3400000D1*
Y2983858D1*
X6596850Y2943701D1*
X6593701Y2693307D2*
X6637008Y2650000D1*
Y2233858D1*
X6596850Y2193701D1*
X6593701Y1943307D2*
X6637008Y1900000D1*
Y1483858D1*
X6596850Y1443701D1*
X6593701Y1193307D2*
X6637008Y1150000D1*
Y733858D1*
X6596850Y693701D1*
X7343701Y3443307D2*
X7393701Y3393307D1*
Y2990551D1*
X7346850Y2943701D1*
X7343701Y2693307D2*
X7387008Y2650000D1*
Y2233858D1*
X7346850Y2193701D1*
X7343701Y1943307D2*
X7387008Y1900000D1*
Y1483858D1*
X7346850Y1443701D1*
X7343701Y1193307D2*
X7387008Y1150000D1*
Y733858D1*
X7346850Y693701D1*
X793701Y3443307D2*
X837008Y3400000D1*
Y2983858D1*
X796850Y2943701D1*
X8096850D2*
X8136850Y2983701D1*
Y3400157D1*
X8093701Y3443307D1*
X8096850Y2193701D2*
X8193701Y2290551D1*
Y2593307D1*
X8093701Y2693307D1*
X8096850Y1443701D2*
X8136850Y1483701D1*
Y1900157D1*
X8093701Y1943307D1*
X8096850Y693701D2*
X8136850Y733701D1*
Y1150157D1*
X8093701Y1193307D1*
X8843701Y3443307D2*
X8887008Y3400000D1*
Y2983858D1*
X8846850Y2943701D1*
X8843701Y2693307D2*
X8887008Y2650000D1*
Y2233858D1*
X8846850Y2193701D1*
X8843701Y1943307D2*
X8887008Y1900000D1*
Y1483858D1*
X8846850Y1443701D1*
X8843701Y1193307D2*
X8887008Y1150000D1*
Y733858D1*
X8846850Y693701D1*
X9593701Y3443307D2*
X9637008Y3400000D1*
Y2983858D1*
X9596850Y2943701D1*
X9593701Y2693307D2*
X9637008Y2650000D1*
Y2233858D1*
X9596850Y2193701D1*
X793701Y2693307D2*
X837008Y2650000D1*
Y2233858D1*
X796850Y2193701D1*
X9593701Y1943307D2*
X9637008Y1900000D1*
Y1483858D1*
X9596850Y1443701D1*
X9593701Y1193307D2*
X9637008Y1150000D1*
Y733858D1*
X9596850Y693701D1*
X793701Y1943307D2*
X837008Y1900000D1*
Y1483858D1*
X796850Y1443701D1*
X793701Y1193307D2*
X843701Y1143307D1*
Y740551D1*
X796850Y693701D1*
X1543701Y3443307D2*
X1587008Y3400000D1*
Y2983858D1*
X1546850Y2943701D1*
X1543701Y2693307D2*
X1587008Y2650000D1*
Y2233858D1*
X1546850Y2193701D1*
X9993701Y5843701D2*
D15*
X9943701D1*
X9643701Y6143701D1*
X9619291D1*
X9093701Y5343701D2*
D14*
X8936811Y5186811D1*
X8193323D1*
X8177575Y5171063D1*
Y4615941D1*
X8161827Y4600193D1*
X7569827D1*
X7554079Y4615941D1*
Y4917323D1*
X7538331Y4933071D1*
X7017323D1*
X6977953Y4893701D1*
X9143701Y6543504D2*
X9088976Y6488780D1*
Y6402559D1*
X9073228Y6386811D1*
X8500197D1*
X8443504Y6443504D1*
X8743701Y6543504D2*
X8698425Y6588780D1*
X7800193D1*
Y6386815D1*
X7843504Y6343504D1*
X8843701Y6543504D2*
X8782677Y6604528D1*
X7784445D1*
Y6202563D1*
X7843504Y6143504D1*
X7674028Y6355000D2*
Y6604528D1*
X7689776Y6620276D1*
X8873228D1*
X8888976Y6604528D1*
Y6498228D1*
X8943701Y6443504D1*
X9043701Y5905039D2*
X9027638Y5888976D1*
X8400500D1*
X8355028Y5843504D1*
X7843504D1*
X4543701Y6543701D2*
X4498425Y6588976D1*
X3738976D1*
X3693701Y6543701D1*
X2938976Y6152756D2*
X4443701D1*
X5243701Y2243307D2*
X5184646Y2302362D1*
Y2370866D1*
X5200394Y2386614D1*
X5500394D1*
X5543701Y2343307D1*
X5243701D2*
X5443701Y2143307D1*
X5543701D1*
X4140043Y4727878D2*
X5773228D1*
X5788976Y4712130D1*
Y4264173D1*
X5804724Y4248425D1*
X7021260D1*
X7037008Y4264173D1*
Y4519514D1*
X7052756Y4535264D1*
X8264617D1*
X8280369Y4551016D1*
Y4971063D1*
X8296117Y4986811D1*
X9636811D1*
X9693701Y5043701D1*
X9829528Y5179528D1*
X9835039D1*
X9933465Y5277953D1*
X6693701Y4593701D2*
D13*
Y4602559D1*
X6549409Y4746850D1*
Y5050390D1*
Y5149409D1*
X6593701Y5193701D1*
X6549409Y5050390D2*
D14*
X6934642D1*
X7077953Y5193701D1*
X4300000Y4664256D2*
X5671260D1*
X5687008Y4648508D1*
Y4248427D1*
X5702756Y4232677D1*
X7323228D1*
X7338976Y4248425D1*
Y4476765D1*
X7354724Y4492513D1*
X8335982D1*
X8351731Y4508264D1*
Y4871063D1*
X8367480Y4886811D1*
X8816063D1*
X6693701Y5093701D2*
X6877953D1*
X6977953Y5193701D1*
X5592126Y1093307D2*
X5548815Y1136618D1*
X5109370D1*
X4343307Y4193504D2*
X4199799Y4337012D1*
X3997167D1*
X3940476Y4393701D1*
X3743701D1*
X4343307Y4093504D2*
X4131823D1*
X4088315Y4137012D1*
X3800390D1*
X3743701Y4193701D1*
X4643307Y4093504D2*
X4586815Y4037012D1*
X3787012D1*
X3743701Y3993701D1*
X7055906Y5861024D2*
X6983465Y5788583D1*
X6648819D1*
X6594094Y5843307D1*
X7130709Y5861024D2*
X6956299Y5686614D1*
X6650787D1*
X6594094Y5743307D1*
X2343504Y6193701D2*
X4168035Y6193697D1*
Y5037008D2*
Y5170787D1*
X5993701Y3693701D2*
X5932677Y3754724D1*
X5854728D1*
X5838980Y3738976D1*
Y3634724D1*
X5854728Y3618976D1*
X6830906D1*
X6846654Y3634724D1*
Y3745890D1*
X6862402Y3761638D1*
X7737008D1*
X4118823Y4293701D2*
X4275707Y4136815D1*
X4670866D1*
X4686614Y4121067D1*
Y4054728D1*
X4702362Y4038980D1*
X5993701D1*
X7843504Y5243504D2*
X7907087D1*
X8101378Y5437795D1*
X8216181D1*
X8355551Y5298425D1*
X8921340D1*
X9016615Y5393701D1*
X9693701D1*
X7753886Y5243504D2*
X7717075Y5280315D1*
X6093705D1*
X9693701Y5393701D2*
X9962992D1*
X9978740Y5377953D1*
Y5260236D1*
X10043701Y5195276D1*
X849921Y5966063D2*
X865984Y5950000D1*
X1458707D1*
X1474455Y5965748D1*
Y6221260D1*
X1490205Y6237008D1*
X5152756D1*
X4943701Y2693307D2*
X5193701D1*
X5243701Y2743307D1*
X4943701Y1193307D2*
X5054559D1*
X5077559Y1216307D1*
X6243701Y3443307D2*
X5946669Y3146276D1*
Y2859055D1*
X5930921Y2843307D1*
X5543701D1*
X6243701Y2693307D2*
X6150394Y2786614D1*
X5587008D1*
X5543701Y2743307D1*
X2343504Y5893701D2*
X2386811Y5937008D1*
X2950323D1*
X3150323Y6137008D1*
X4072354D1*
X4090740Y6118622D1*
X4829606D1*
X5135685Y5238780D2*
X6314583D1*
X6340370Y5264567D1*
X7661984D1*
X7677732Y5248819D1*
Y5004528D1*
X7693480Y4988780D1*
X8110906D1*
X8443504Y4843504D2*
X8367480Y4767480D1*
Y4439012D1*
X8351731Y4423262D1*
X7752756D1*
X7737008Y4407514D1*
Y4183661D1*
X7721260Y4167913D1*
X5479921D1*
X5464173Y4183661D1*
Y4277756D1*
X5448425Y4293504D1*
X5243307D1*
X1893701Y4093701D2*
X1938386Y4049016D1*
Y3748421D1*
X1954134Y3732673D1*
X2332083D1*
X2393110Y3793701D1*
X2460433Y3726378D1*
X5495671D1*
X5634568Y3587480D1*
X7587480D1*
X7693701Y3693701D1*
X3743701Y4293701D2*
X2593110D1*
X2093110Y3793701D1*
X1300441Y5053937D2*
X1492843D1*
X1575913Y5137008D1*
X2247181D1*
X5050390Y5861689D2*
Y5937008D1*
X5034642Y5952756D1*
X3505193D1*
X3058110Y5116693D2*
X3026299Y5084882D1*
Y4605197D1*
X2693701Y5393701D2*
X3038976D1*
X7593701Y4293701D2*
X7516929Y4216929D1*
X5621531D1*
X5499677Y4338783D1*
X4584882D1*
X4537008Y4290909D1*
X3743701Y5893701D2*
X3787008Y5937008D1*
X4423148D1*
X4438898Y5921260D1*
Y5736811D1*
X9093701Y6093701D2*
Y5963181D1*
X9138976Y5917906D1*
Y5707636D1*
X9154724Y5691888D1*
X9995513D1*
X10093701Y5593701D1*
X8443504Y5943504D2*
X9074024D1*
X9093701Y5963181D1*
X4438898Y5736811D2*
X4815546D1*
X4858854Y5693504D1*
X4944094D1*
X5336142Y4696067D2*
X3787012D1*
X8016280Y4898228D2*
X7893504D1*
X7884055Y4888780D1*
X7646500D1*
X7524654Y5010626D1*
X7133071D1*
X7117323Y5026374D1*
Y5217323D1*
X7101575Y5233071D1*
X6752756D1*
X6737008Y5217323D1*
Y5148429D1*
X6652756D1*
X6637008Y5164177D1*
Y5221260D1*
X6621260Y5237008D1*
X6382185D1*
X6304272Y5159094D1*
X5400551D1*
D53*
X7477953Y4701256D3*
X5049921Y4243039D3*
X2693705Y4459449D3*
X2993508Y5541260D3*
X2216886D3*
X1870193Y3920244D3*
X4493701Y5688937D3*
X7284720Y5892520D3*
X1666413Y6468819D3*
X6838980Y6400394D3*
X2434370Y5468819D3*
X2216890Y5304567D3*
X1802874D3*
X1636886Y4693701D3*
X2914937Y5468819D3*
X3089921Y5068819D3*
X5018110Y4632445D3*
X1652394Y5337008D3*
X833457Y5350394D3*
X4850843Y4568823D3*
X2497992Y4793701D3*
X4813858Y4780000D3*
X3700945D3*
X2434370Y4507008D3*
X911980D3*
X3653071Y4780000D3*
Y4507008D3*
X2497992D3*
X3457319Y5673071D3*
Y5537008D3*
X1802874Y5826496D3*
X6343071Y4850394D3*
X6279449Y6196850D3*
X7752634D3*
X3489130Y5005197D3*
Y4850394D3*
X1603114Y5494094D3*
X7705839Y6244724D3*
X3105988Y6268819D3*
X1433858Y4475197D3*
X2946748Y5184642D3*
X7918622Y6043500D3*
X3425508Y6093697D3*
X2233780Y5001969D3*
X2154724Y4926496D3*
X3121732Y4846488D3*
X4938425Y4811811D3*
X1986854Y4837008D3*
X1785488D3*
X3058110Y4894362D3*
X4970236Y4600634D3*
X1145906Y4837008D3*
X5432362Y4193504D3*
X5528791Y4199724D3*
X4103075Y5593500D3*
X4841043Y1706402D3*
X5543705Y1264177D3*
X6891043Y1920000D3*
Y1361024D3*
X4618819Y1512028D3*
X5486146Y1686614D3*
X7543701Y1920000D3*
X5486146Y2086614D3*
X8196354Y1920000D3*
Y1361024D3*
X8938484Y1950555D3*
X3896669Y1966622D3*
X5023264Y2100000D3*
X2531457Y5737008D3*
Y5868819D3*
X6311260Y5636811D3*
X6532673Y5427559D3*
X7037008Y5471063D3*
X3338976Y6400327D3*
X4552756Y5984567D3*
X3930319D3*
X1587051Y5794094D3*
X1804843Y5874370D3*
X2284130Y5693701D3*
X4750236Y3837126D3*
X3393697Y5993701D3*
X3138976Y5537008D3*
X2768823Y5509449D3*
X2618583Y5593701D3*
X2420276D3*
X3393697Y5705197D3*
X7734961Y5755000D3*
X7233071Y5786614D3*
X4718425Y4136811D3*
X7170394Y4136102D3*
X3353075Y5625512D3*
X3684331Y5193701D3*
X2695748Y6348500D3*
X2483898Y6038976D3*
X3240945Y6398736D3*
X7241575Y6019764D3*
X3899102Y6406657D3*
X2153264Y5737008D3*
X2768823Y6364252D3*
X2300197Y6138976D3*
X4301102Y6061886D3*
X2768823Y6138972D3*
X3851228Y6374846D3*
X3548425Y6488976D3*
X7419685Y5924331D3*
X4269291Y6016378D3*
X7419685Y5386811D3*
X2554965Y6538976D3*
X1947248Y5460906D3*
X8352634Y5455000D3*
X7782835Y5586811D3*
Y5718622D3*
X7542039Y5502874D3*
X7580945Y5347874D3*
X2846724Y6268819D3*
X2452087D3*
X4272677Y5436811D3*
X3937008Y4337012D3*
X1825512D3*
X7902559Y5296063D3*
X1669016Y4968819D3*
X4285035Y4941260D3*
X7270787Y4374146D3*
X3293701Y6300630D3*
X7688976Y3809508D3*
X4133622Y6018311D3*
X7530228Y5686614D3*
X7451496Y5586614D3*
X4782047Y5768622D3*
X5286079Y5736811D3*
X4885035Y6300630D3*
X3093701Y6332441D3*
X8534370Y5586811D3*
X9048421Y5532358D3*
X2010709Y4668819D3*
X1915437D3*
X7674028Y6355000D3*
X9043701Y5905039D3*
X4443701Y6152756D3*
X2938976D3*
X4140043Y4727878D3*
X8816063Y4886811D3*
X4300000Y4664256D3*
X5109370Y1136618D3*
X4168035Y6193697D3*
Y5170787D3*
Y5037008D3*
X7737008Y3761638D3*
X5993701Y4038980D3*
X4118823Y4293701D3*
X6093705Y5280315D3*
X7753886Y5243504D3*
X5152756Y6237008D3*
X849921Y5966063D3*
X5077559Y1216307D3*
X4829606Y6118622D3*
X8110906Y4988780D3*
X5135685Y5238780D3*
X2247181Y5137008D3*
X1300441Y5053937D3*
X3505193Y5952756D3*
X5050390Y5861689D3*
X3026299Y4605197D3*
X3058110Y5116693D3*
X3038976Y5393701D3*
X4537008Y4290909D3*
X4438898Y5736811D3*
X3787012Y4696067D3*
X5336142D3*
X5400551Y5159094D3*
X8016280Y4898228D3*
D20*
X6977953Y4893701D3*
D21*
Y5193701D3*
D23*
X3243701Y1361024D3*
X3046850Y1443701D3*
D24*
X8243701Y4293701D3*
D25*
Y4193701D3*
Y4093701D3*
Y3993701D3*
Y3893701D3*
Y3793701D3*
Y3693701D3*
X8543701D3*
Y3793701D3*
Y3893701D3*
Y3993701D3*
Y4093701D3*
Y4193701D3*
Y4293701D3*
D24*
X3293701Y4593701D3*
D25*
Y4693701D3*
Y4793701D3*
Y4893701D3*
Y4993701D3*
Y5093701D3*
Y5193701D3*
Y5293701D3*
Y5393701D3*
Y5493701D3*
Y5593701D3*
Y5693701D3*
Y5793701D3*
Y5893701D3*
Y5993701D3*
Y6093701D3*
X2693701D3*
Y5993701D3*
Y5893701D3*
Y5793701D3*
Y5693701D3*
Y5593701D3*
Y5493701D3*
Y5393701D3*
Y5293701D3*
Y5193701D3*
Y5093701D3*
Y4993701D3*
Y4893701D3*
Y4793701D3*
Y4693701D3*
Y4593701D3*
D20*
X6877953Y5193701D3*
D21*
Y4893701D3*
D23*
X8293701Y611024D3*
X8096850Y693701D3*
D24*
X6693701Y4893701D3*
D26*
Y4993701D3*
D27*
Y5093701D3*
D24*
Y5193701D3*
D26*
X6593701D3*
Y5093701D3*
Y4993701D3*
Y4893701D3*
D24*
X4344094Y5893504D3*
D25*
Y5793504D3*
Y5693504D3*
Y5593504D3*
Y5493504D3*
Y5393504D3*
Y5293504D3*
Y5193504D3*
Y5093504D3*
Y4993504D3*
X4644094D3*
Y5093504D3*
Y5193504D3*
Y5293504D3*
Y5393504D3*
Y5493504D3*
Y5593504D3*
Y5693504D3*
Y5793504D3*
Y5893504D3*
D24*
X7843504Y6543504D3*
D25*
Y6443504D3*
Y6343504D3*
Y6243504D3*
Y6143504D3*
Y6043504D3*
Y5943504D3*
Y5843504D3*
Y5743504D3*
Y5643504D3*
Y5543504D3*
Y5443504D3*
Y5343504D3*
Y5243504D3*
Y5143504D3*
Y5043504D3*
Y4943504D3*
Y4843504D3*
Y4743504D3*
Y4643504D3*
X8443504D3*
Y4743504D3*
Y4843504D3*
Y4943504D3*
Y5043504D3*
Y5143504D3*
Y5243504D3*
Y5343504D3*
Y5443504D3*
Y5543504D3*
Y5643504D3*
Y5743504D3*
Y5843504D3*
Y5943504D3*
Y6043504D3*
Y6143504D3*
Y6243504D3*
Y6343504D3*
Y6443504D3*
Y6543504D3*
D23*
X3243701Y2111024D3*
X3046850Y2193701D3*
D28*
X5297244Y843307D3*
X5489370D3*
D24*
X9693701Y5793701D3*
D26*
X9555906D3*
D23*
X3993701Y2111024D3*
X3796850Y2193701D3*
X7543701Y2861024D3*
X7346850Y2943701D3*
X9043701Y1361024D3*
X8846850Y1443701D3*
D24*
X4043701Y6443701D3*
D26*
X4181496D3*
D23*
X7543701Y1361024D3*
X7346850Y1443701D3*
D29*
X493701Y3443701D3*
D23*
X4743701Y1361024D3*
X4546850Y1443701D3*
X3243701Y2861024D3*
X3046850Y2943701D3*
X7543701Y2111024D3*
X7346850Y2193701D3*
D29*
X5393701Y3643701D3*
D23*
X9793701Y2111024D3*
X9596850Y2193701D3*
D30*
X9093701Y6093701D3*
D31*
X9143701Y6143701D3*
X9193701Y6093701D3*
D26*
X7277953Y5193701D3*
X7376378D3*
D23*
X6043701Y1361024D3*
X5846850Y1443701D3*
D29*
X493701Y3643701D3*
D23*
X3993701Y1361024D3*
X3796850Y1443701D3*
D26*
X5193701Y1343307D3*
X5292126D3*
D23*
X3993701Y611024D3*
X3796850Y693701D3*
D32*
X7244094Y6543701D3*
D33*
X7344094D3*
X7444094D3*
X7544094D3*
D23*
X1743701Y2861024D3*
X1546850Y2943701D3*
D32*
X2793701Y6443701D3*
D33*
Y6543701D3*
X2893701Y6443701D3*
Y6543701D3*
X2993701Y6443701D3*
Y6543701D3*
X3093701Y6443701D3*
Y6543701D3*
X3193701Y6443701D3*
Y6543701D3*
X3293701Y6443701D3*
Y6543701D3*
X3393701Y6443701D3*
Y6543701D3*
X3493701Y6443701D3*
Y6543701D3*
X3593701Y6443701D3*
Y6543701D3*
X3693701Y6443701D3*
Y6543701D3*
X3793701Y6443701D3*
Y6543701D3*
D32*
X5243701Y3243307D3*
D33*
X5343701D3*
X5443701D3*
X5543701D3*
D23*
X8293701Y1361024D3*
X8096850Y1443701D3*
D24*
X6594094Y5843307D3*
D25*
Y5743307D3*
Y5643307D3*
Y5543307D3*
X6894094D3*
Y5643307D3*
Y5743307D3*
Y5843307D3*
D23*
X9043701Y2861024D3*
X8846850Y2943701D3*
D26*
X3893701Y4443701D3*
Y3943701D3*
D23*
X1743701Y611024D3*
X1546850Y693701D3*
D24*
X1743504Y6493701D3*
D25*
Y6393701D3*
Y6293701D3*
Y6193701D3*
Y6093701D3*
Y5993701D3*
Y5893701D3*
Y5793701D3*
Y5693701D3*
Y5593701D3*
Y5493701D3*
Y5393701D3*
Y5293701D3*
Y5193701D3*
Y5093701D3*
Y4993701D3*
Y4893701D3*
Y4793701D3*
Y4693701D3*
Y4593701D3*
X2343504D3*
Y4693701D3*
Y4793701D3*
Y4893701D3*
Y4993701D3*
Y5093701D3*
Y5193701D3*
Y5293701D3*
Y5393701D3*
Y5493701D3*
Y5593701D3*
Y5693701D3*
Y5793701D3*
Y5893701D3*
Y5993701D3*
Y6093701D3*
Y6193701D3*
Y6293701D3*
Y6393701D3*
Y6493701D3*
D23*
X6043701Y2861024D3*
X5846850Y2943701D3*
X6793701Y2861024D3*
X6596850Y2943701D3*
D24*
X8693701Y4543701D3*
D26*
X8831496D3*
D20*
X7593701Y6393701D3*
D21*
X7293701D3*
D26*
X7188976Y3993701D3*
X7688976D3*
D24*
X5243701Y2943307D3*
D25*
Y2843307D3*
Y2743307D3*
Y2643307D3*
Y2543307D3*
Y2443307D3*
Y2343307D3*
Y2243307D3*
Y2143307D3*
Y2043307D3*
Y1943307D3*
Y1843307D3*
Y1743307D3*
Y1643307D3*
X5543701D3*
Y1743307D3*
Y1843307D3*
Y1943307D3*
Y2043307D3*
Y2143307D3*
Y2243307D3*
Y2343307D3*
Y2443307D3*
Y2543307D3*
Y2643307D3*
Y2743307D3*
Y2843307D3*
Y2943307D3*
D20*
X7077953Y5193701D3*
D21*
Y4893701D3*
D26*
X7477953Y5193701D3*
X7576378D3*
D29*
X5393701Y3443701D3*
D23*
X4743701Y2861024D3*
X4546850Y2943701D3*
X9043701Y2111024D3*
X8846850Y2193701D3*
D24*
X3743701Y4493701D3*
D25*
Y4393701D3*
Y4293701D3*
Y4193701D3*
Y4093701D3*
Y3993701D3*
Y3893701D3*
X4043701D3*
Y3993701D3*
Y4093701D3*
Y4193701D3*
Y4293701D3*
Y4393701D3*
Y4493701D3*
D29*
X10293701Y6593701D3*
D20*
X8843701Y6043701D3*
D21*
Y5743701D3*
D20*
X9693701Y5393701D3*
D21*
Y5293701D3*
D34*
X1393701Y4694094D3*
D35*
Y4794094D3*
Y4894094D3*
Y4994094D3*
Y5094094D3*
Y5194094D3*
Y5294094D3*
Y5394094D3*
Y5494094D3*
Y5594094D3*
Y5694094D3*
Y5794094D3*
Y5894094D3*
Y5994094D3*
X793701D3*
Y5894094D3*
Y5794094D3*
Y5694094D3*
Y5594094D3*
Y5494094D3*
Y5394094D3*
Y5294094D3*
Y5194094D3*
Y5094094D3*
Y4994094D3*
Y4894094D3*
Y4794094D3*
Y4694094D3*
D23*
X1743701Y2111024D3*
X1546850Y2193701D3*
X1743701Y1361024D3*
X1546850Y1443701D3*
D24*
X5643701Y3993701D3*
D25*
X5743701D3*
X5843701D3*
X5943701D3*
X6043701D3*
X6143701D3*
X6243701D3*
Y4293701D3*
X6143701D3*
X6043701D3*
X5943701D3*
X5843701D3*
X5743701D3*
X5643701D3*
D23*
X9043701Y611024D3*
X8846850Y693701D3*
D32*
X9093701Y5343701D3*
D33*
X9193701D3*
D24*
X3743701Y5893701D3*
D25*
Y5793701D3*
Y5693701D3*
Y5593701D3*
Y5493701D3*
Y5393701D3*
Y5293701D3*
Y5193701D3*
Y5093701D3*
Y4993701D3*
X4043701D3*
Y5093701D3*
Y5193701D3*
Y5293701D3*
Y5393701D3*
Y5493701D3*
Y5593701D3*
Y5693701D3*
Y5793701D3*
Y5893701D3*
D23*
X2493701Y2861024D3*
X2296850Y2943701D3*
D29*
X493701Y493701D3*
D24*
X10043701Y5195276D3*
D26*
Y5092913D3*
Y5277953D3*
Y5010236D3*
X9933465Y5277953D3*
Y5010236D3*
D36*
X10155906Y4874409D3*
D37*
X10187402Y5144094D3*
D36*
X10155906Y5413780D3*
D23*
X3243701Y611024D3*
X3046850Y693701D3*
D20*
X8843701Y5543701D3*
D21*
Y5243701D3*
D20*
X6777953Y5193701D3*
D21*
Y4893701D3*
D26*
X2043504Y5442913D3*
Y4942913D3*
D23*
X4743701Y611024D3*
X4546850Y693701D3*
X2493701Y1361024D3*
X2296850Y1443701D3*
D32*
X8643701Y6443504D3*
D33*
Y6543504D3*
X8743701Y6443504D3*
Y6543504D3*
X8843701Y6443504D3*
Y6543504D3*
X8943701Y6443504D3*
Y6543504D3*
X9043701Y6443504D3*
Y6543504D3*
X9143701Y6443504D3*
Y6543504D3*
D29*
X493701Y6593701D3*
D32*
X9093701Y4468701D3*
D38*
Y4368701D3*
Y4268701D3*
Y4168701D3*
Y4068701D3*
Y3968701D3*
D23*
X8293701Y2861024D3*
X8096850Y2943701D3*
X9793701Y611024D3*
X9596850Y693701D3*
D26*
X9943701Y6293701D3*
X10042126D3*
D23*
X993701Y1361024D3*
X796850Y1443701D3*
D39*
X9619291Y6143701D3*
D40*
Y6391732D3*
D41*
X9430315Y6257874D3*
D23*
X4743701Y2111024D3*
X4546850Y2193701D3*
D26*
X4493701Y4443701D3*
Y3943701D3*
D42*
X9993701Y6056496D3*
D43*
X10093701D3*
X10193701D3*
D26*
X5093701Y4443701D3*
Y3943701D3*
D23*
X6793701Y1361024D3*
X6596850Y1443701D3*
D24*
X4343307Y4493504D3*
D25*
Y4393504D3*
Y4293504D3*
Y4193504D3*
Y4093504D3*
Y3993504D3*
Y3893504D3*
X4643307D3*
Y3993504D3*
Y4093504D3*
Y4193504D3*
Y4293504D3*
Y4393504D3*
Y4493504D3*
D26*
X5493701Y1093307D3*
X5592126D3*
D23*
X6793701Y611024D3*
X6596850Y693701D3*
D44*
X6693701Y4593701D3*
D45*
X6643701D3*
X6593701D3*
D20*
X9693701Y5043701D3*
D21*
Y4943701D3*
D26*
X3893701Y5793701D3*
Y5293701D3*
D32*
X9093701Y5593701D3*
D33*
X9193701D3*
D29*
X5393701Y493701D3*
D23*
X6043701Y611024D3*
X5846850Y693701D3*
D46*
X6354331Y6143701D3*
D47*
X5586614D3*
D29*
X10293701Y3643701D3*
D20*
X7177953Y5193701D3*
D21*
Y4893701D3*
D24*
X4944094Y5893504D3*
D25*
Y5793504D3*
Y5693504D3*
Y5593504D3*
Y5493504D3*
Y5393504D3*
Y5293504D3*
Y5193504D3*
Y5093504D3*
Y4993504D3*
X5244094D3*
Y5093504D3*
Y5193504D3*
Y5293504D3*
Y5393504D3*
Y5493504D3*
Y5593504D3*
Y5693504D3*
Y5793504D3*
Y5893504D3*
D23*
X993701Y2861024D3*
X796850Y2943701D3*
D32*
X1793110Y3793701D3*
D33*
X1893110D3*
X1993110D3*
X2093110D3*
X2193110D3*
X2293110D3*
X2393110D3*
X2493110D3*
D23*
X8293701Y2111024D3*
X8096850Y2193701D3*
D32*
X9993701Y5843701D3*
D33*
X10093701D3*
D23*
X7543701Y611024D3*
X7346850Y693701D3*
D24*
X7344094Y5843307D3*
D25*
Y5743307D3*
Y5643307D3*
Y5543307D3*
X7644094D3*
Y5643307D3*
Y5743307D3*
Y5843307D3*
D23*
X6043701Y2111024D3*
X5846850Y2193701D3*
D26*
X8143701Y5394488D3*
Y5894488D3*
D24*
X4943307Y4493504D3*
D25*
Y4393504D3*
Y4293504D3*
Y4193504D3*
Y4093504D3*
Y3993504D3*
Y3893504D3*
Y3793504D3*
X5243307D3*
Y3893504D3*
Y3993504D3*
Y4093504D3*
Y4193504D3*
Y4293504D3*
Y4393504D3*
Y4493504D3*
D32*
X6593701Y6543701D3*
D33*
X6693701D3*
X6793701D3*
X6893701D3*
D23*
X3993701Y2861024D3*
X3796850Y2943701D3*
D26*
X5093701Y5793701D3*
Y5293701D3*
D32*
X9993701Y5593701D3*
D33*
X10093701D3*
D26*
X844488Y6444094D3*
X1344488D3*
D23*
X2493701Y2111024D3*
X2296850Y2193701D3*
X2493701Y611024D3*
X2296850Y693701D3*
D20*
X5493701Y1343307D3*
D21*
X5593701D3*
D48*
X4543701Y6343701D3*
X4443701Y6443701D3*
X4543701Y6543701D3*
D32*
X5793701Y3693701D3*
D33*
X5893701D3*
X5993701D3*
X6093701D3*
D23*
X9793701Y1361024D3*
X9596850Y1443701D3*
D29*
X10293701Y493701D3*
D20*
X7593701Y6293701D3*
D21*
X7293701D3*
D122*
X7055906Y5861024D3*
X7130709D3*
D24*
X7893701Y4293701D3*
D25*
X7793701D3*
X7693701D3*
X7593701D3*
X7493701D3*
X7393701D3*
X7293701D3*
X7193701D3*
X7093701D3*
X6993701D3*
X6893701D3*
X6793701D3*
X6693701D3*
X6593701D3*
Y3693701D3*
X6693701D3*
X6793701D3*
X6893701D3*
X6993701D3*
X7093701D3*
X7193701D3*
X7293701D3*
X7393701D3*
X7493701D3*
X7593701D3*
X7693701D3*
X7793701D3*
X7893701D3*
D49*
X7518504Y5067717D3*
X7427953D3*
D50*
Y4819685D3*
D49*
X7337402Y5067717D3*
D24*
X1793701Y4093701D3*
D25*
X1893701D3*
X1993701D3*
X2093701D3*
X2193701D3*
X2293701D3*
D26*
X5193701Y1093307D3*
X5292126D3*
X10143701Y6293701D3*
X10242126D3*
D23*
X9793701Y2861024D3*
X9596850Y2943701D3*
D26*
X4493701Y5793701D3*
Y5293701D3*
D23*
X993701Y2111024D3*
X796850Y2193701D3*
D29*
X10293701Y3443701D3*
D23*
X993701Y611024D3*
X796850Y693701D3*
D26*
X2993504Y5243701D3*
Y5743701D3*
D29*
X5393701Y6593701D3*
D32*
X9093701Y5843701D3*
D33*
X9193701D3*
D23*
X6793701Y2111024D3*
X6596850Y2193701D3*
D51*
X9243701Y1193307D3*
D52*
X8843701D3*
D51*
X6243701Y2693307D3*
D52*
X5843701D3*
D51*
X1193701Y1943307D3*
D52*
X793701D3*
D51*
X4943701D3*
D52*
X4543701D3*
D51*
X6993701Y2693307D3*
D52*
X6593701D3*
D51*
X7743701Y1943307D3*
D52*
X7343701D3*
D51*
X2693701Y3443307D3*
D52*
X2293701D3*
D51*
X8493701Y2693307D3*
D52*
X8093701D3*
D51*
X6243701Y3443307D3*
D52*
X5843701D3*
D51*
X7743701Y2693307D3*
D52*
X7343701D3*
D51*
X4943701D3*
D52*
X4543701D3*
D51*
X7743701Y3443307D3*
D52*
X7343701D3*
D51*
X4943701D3*
D52*
X4543701D3*
D51*
X8493701Y1943307D3*
D52*
X8093701D3*
D51*
X8493701Y1193307D3*
D52*
X8093701D3*
D51*
X3443701Y2693307D3*
D52*
X3043701D3*
D51*
X4193701Y1193307D3*
D52*
X3793701D3*
D51*
X2693701Y2693307D3*
D52*
X2293701D3*
D51*
X6243701Y1193307D3*
D52*
X5843701D3*
D51*
X1943701Y1943307D3*
D52*
X1543701D3*
D51*
X1193701Y1193307D3*
D52*
X793701D3*
D51*
X3443701Y1943307D3*
D52*
X3043701D3*
D51*
X8493701Y3443307D3*
D52*
X8093701D3*
D51*
X9993701Y1943307D3*
D52*
X9593701D3*
D51*
X4193701D3*
D52*
X3793701D3*
D51*
X4193701Y2693307D3*
D52*
X3793701D3*
D51*
X9993701Y3443307D3*
D52*
X9593701D3*
D51*
X1193701Y2693307D3*
D52*
X793701D3*
D51*
X7743701Y1193307D3*
D52*
X7343701D3*
D51*
X1943701Y2693307D3*
D52*
X1543701D3*
D51*
X6993701Y1193307D3*
D52*
X6593701D3*
D51*
X2693701Y1943307D3*
D52*
X2293701D3*
D51*
X3443701Y1193307D3*
D52*
X3043701D3*
D51*
X4943701D3*
D52*
X4543701D3*
D51*
X1193701Y3443307D3*
D52*
X793701D3*
D51*
X3443701D3*
D52*
X3043701D3*
D51*
X1943701Y1193307D3*
D52*
X1543701D3*
D51*
X6993701Y3443307D3*
D52*
X6593701D3*
D51*
X6993701Y1943307D3*
D52*
X6593701D3*
D51*
X9243701Y3443307D3*
D52*
X8843701D3*
D51*
X1943701D3*
D52*
X1543701D3*
D51*
X6243701Y1943307D3*
D52*
X5843701D3*
D51*
X9993701Y1193307D3*
D52*
X9593701D3*
D51*
X9993701Y2693307D3*
D52*
X9593701D3*
D51*
X9243701D3*
D52*
X8843701D3*
D51*
X9243701Y1943307D3*
D52*
X8843701D3*
D51*
X4193701Y3443307D3*
D52*
X3793701D3*
D51*
X2693701Y1193307D3*
D52*
X2293701D3*
M02*
