%TF.GenerationSoftware,Novarm,DipTrace,4.3.0.4*%
%TF.CreationDate,2023-07-28T17:07:58+01:00*%
%FSLAX26Y26*%
%MOIN*%
%TF.FileFunction,Soldermask,Bot*%
%TF.Part,Single*%
%ADD20C,0.055118*%
%ADD26C,0.062992*%
%ADD28C,0.059055*%
%ADD32R,0.066929X0.066929*%
%ADD33C,0.066929*%
%ADD38C,0.066929*%
%ADD51R,0.086614X0.086614*%
%ADD55C,0.067*%
%ADD56C,0.135*%
%ADD57C,0.039*%
%ADD64C,0.043307*%
%ADD68C,0.090551*%
%ADD70R,0.090551X0.090551*%
%ADD75C,0.06063*%
%ADD77C,0.086614*%
%ADD79O,0.045276X0.062992*%
%ADD81R,0.045276X0.062992*%
%ADD83O,0.078937X0.082677*%
%ADD85R,0.078937X0.082677*%
%ADD87O,0.082677X0.169291*%
%ADD89O,0.169291X0.082677*%
%ADD91R,0.185039X0.082677*%
%ADD93C,0.070866*%
%ADD94O,0.082677X0.161417*%
%ADD96O,0.141732X0.082677*%
%ADD98C,0.06063*%
%ADD100R,0.06063X0.06063*%
%ADD102C,0.070866*%
%ADD103R,0.070866X0.070866*%
%ADD105R,0.055118X0.055118*%
%ADD107C,0.141732*%
%ADD109C,0.063937*%
%ADD111C,0.059055*%
%ADD113C,0.083937*%
G75*
G01*
%LPD*%
D28*
X6977953Y4893701D3*
D111*
Y5193701D3*
D113*
X3243701Y1361024D3*
X3046850Y1443701D3*
D55*
X3027165Y1593307D3*
D56*
X3243701D3*
D57*
X3449213Y1758661D3*
D55*
X3460236Y1593307D3*
D32*
X8243701Y4293701D3*
D33*
Y4193701D3*
Y4093701D3*
Y3993701D3*
Y3893701D3*
Y3793701D3*
Y3693701D3*
X8543701D3*
Y3793701D3*
Y3893701D3*
Y3993701D3*
Y4093701D3*
Y4193701D3*
Y4293701D3*
D32*
X3293701Y4593701D3*
D33*
Y4693701D3*
Y4793701D3*
Y4893701D3*
Y4993701D3*
Y5093701D3*
Y5193701D3*
Y5293701D3*
Y5393701D3*
Y5493701D3*
Y5593701D3*
Y5693701D3*
Y5793701D3*
Y5893701D3*
Y5993701D3*
Y6093701D3*
X2693701D3*
Y5993701D3*
Y5893701D3*
Y5793701D3*
Y5693701D3*
Y5593701D3*
Y5493701D3*
Y5393701D3*
Y5293701D3*
Y5193701D3*
Y5093701D3*
Y4993701D3*
Y4893701D3*
Y4793701D3*
Y4693701D3*
Y4593701D3*
D28*
X6877953Y5193701D3*
D111*
Y4893701D3*
D113*
X8293701Y611024D3*
X8096850Y693701D3*
D55*
X8077165Y843307D3*
D56*
X8293701D3*
D57*
X8499213Y1008661D3*
D55*
X8510236Y843307D3*
D32*
X6693701Y4893701D3*
D38*
Y4993701D3*
D109*
Y5093701D3*
D32*
Y5193701D3*
D38*
X6593701D3*
Y5093701D3*
Y4993701D3*
Y4893701D3*
D32*
X4344094Y5893504D3*
D33*
Y5793504D3*
Y5693504D3*
Y5593504D3*
Y5493504D3*
Y5393504D3*
Y5293504D3*
Y5193504D3*
Y5093504D3*
Y4993504D3*
X4644094D3*
Y5093504D3*
Y5193504D3*
Y5293504D3*
Y5393504D3*
Y5493504D3*
Y5593504D3*
Y5693504D3*
Y5793504D3*
Y5893504D3*
D32*
X7843504Y6543504D3*
D33*
Y6443504D3*
Y6343504D3*
Y6243504D3*
Y6143504D3*
Y6043504D3*
Y5943504D3*
Y5843504D3*
Y5743504D3*
Y5643504D3*
Y5543504D3*
Y5443504D3*
Y5343504D3*
Y5243504D3*
Y5143504D3*
Y5043504D3*
Y4943504D3*
Y4843504D3*
Y4743504D3*
Y4643504D3*
X8443504D3*
Y4743504D3*
Y4843504D3*
Y4943504D3*
Y5043504D3*
Y5143504D3*
Y5243504D3*
Y5343504D3*
Y5443504D3*
Y5543504D3*
Y5643504D3*
Y5743504D3*
Y5843504D3*
Y5943504D3*
Y6043504D3*
Y6143504D3*
Y6243504D3*
Y6343504D3*
Y6443504D3*
Y6543504D3*
D113*
X3243701Y2111024D3*
X3046850Y2193701D3*
D55*
X3027165Y2343307D3*
D56*
X3243701D3*
D57*
X3449213Y2508661D3*
D55*
X3460236Y2343307D3*
D26*
X5297244Y843307D3*
X5489370D3*
D32*
X9693701Y5793701D3*
D38*
X9555906D3*
D113*
X3993701Y2111024D3*
X3796850Y2193701D3*
D55*
X3777165Y2343307D3*
D56*
X3993701D3*
D57*
X4199213Y2508661D3*
D55*
X4210236Y2343307D3*
D113*
X7543701Y2861024D3*
X7346850Y2943701D3*
D55*
X7327165Y3093307D3*
D56*
X7543701D3*
D57*
X7749213Y3258661D3*
D55*
X7760236Y3093307D3*
D113*
X9043701Y1361024D3*
X8846850Y1443701D3*
D55*
X8827165Y1593307D3*
D56*
X9043701D3*
D57*
X9249213Y1758661D3*
D55*
X9260236Y1593307D3*
D32*
X4043701Y6443701D3*
D38*
X4181496D3*
D113*
X7543701Y1361024D3*
X7346850Y1443701D3*
D55*
X7327165Y1593307D3*
D56*
X7543701D3*
D57*
X7749213Y1758661D3*
D55*
X7760236Y1593307D3*
D107*
X493701Y3443701D3*
D113*
X4743701Y1361024D3*
X4546850Y1443701D3*
D55*
X4527165Y1593307D3*
D56*
X4743701D3*
D57*
X4949213Y1758661D3*
D55*
X4960236Y1593307D3*
D113*
X3243701Y2861024D3*
X3046850Y2943701D3*
D55*
X3027165Y3093307D3*
D56*
X3243701D3*
D57*
X3449213Y3258661D3*
D55*
X3460236Y3093307D3*
D113*
X7543701Y2111024D3*
X7346850Y2193701D3*
D55*
X7327165Y2343307D3*
D56*
X7543701D3*
D57*
X7749213Y2508661D3*
D55*
X7760236Y2343307D3*
D107*
X5393701Y3643701D3*
D113*
X9793701Y2111024D3*
X9596850Y2193701D3*
D55*
X9577165Y2343307D3*
D56*
X9793701D3*
D57*
X9999213Y2508661D3*
D55*
X10010236Y2343307D3*
D105*
X9093701Y6093701D3*
D20*
X9143701Y6143701D3*
X9193701Y6093701D3*
D38*
X7277953Y5193701D3*
X7376378D3*
D113*
X6043701Y1361024D3*
X5846850Y1443701D3*
D55*
X5827165Y1593307D3*
D56*
X6043701D3*
D57*
X6249213Y1758661D3*
D55*
X6260236Y1593307D3*
D107*
X493701Y3643701D3*
D113*
X3993701Y1361024D3*
X3796850Y1443701D3*
D55*
X3777165Y1593307D3*
D56*
X3993701D3*
D57*
X4199213Y1758661D3*
D55*
X4210236Y1593307D3*
D38*
X5193701Y1343307D3*
X5292126D3*
D113*
X3993701Y611024D3*
X3796850Y693701D3*
D55*
X3777165Y843307D3*
D56*
X3993701D3*
D57*
X4199213Y1008661D3*
D55*
X4210236Y843307D3*
D103*
X7244094Y6543701D3*
D102*
X7344094D3*
X7444094D3*
X7544094D3*
D113*
X1743701Y2861024D3*
X1546850Y2943701D3*
D55*
X1527165Y3093307D3*
D56*
X1743701D3*
D57*
X1949213Y3258661D3*
D55*
X1960236Y3093307D3*
D103*
X2793701Y6443701D3*
D102*
Y6543701D3*
X2893701Y6443701D3*
Y6543701D3*
X2993701Y6443701D3*
Y6543701D3*
X3093701Y6443701D3*
Y6543701D3*
X3193701Y6443701D3*
Y6543701D3*
X3293701Y6443701D3*
Y6543701D3*
X3393701Y6443701D3*
Y6543701D3*
X3493701Y6443701D3*
Y6543701D3*
X3593701Y6443701D3*
Y6543701D3*
X3693701Y6443701D3*
Y6543701D3*
X3793701Y6443701D3*
Y6543701D3*
D103*
X5243701Y3243307D3*
D102*
X5343701D3*
X5443701D3*
X5543701D3*
D113*
X8293701Y1361024D3*
X8096850Y1443701D3*
D55*
X8077165Y1593307D3*
D56*
X8293701D3*
D57*
X8499213Y1758661D3*
D55*
X8510236Y1593307D3*
D32*
X6594094Y5843307D3*
D33*
Y5743307D3*
Y5643307D3*
Y5543307D3*
X6894094D3*
Y5643307D3*
Y5743307D3*
Y5843307D3*
D113*
X9043701Y2861024D3*
X8846850Y2943701D3*
D55*
X8827165Y3093307D3*
D56*
X9043701D3*
D57*
X9249213Y3258661D3*
D55*
X9260236Y3093307D3*
D38*
X3893701Y4443701D3*
Y3943701D3*
D113*
X1743701Y611024D3*
X1546850Y693701D3*
D55*
X1527165Y843307D3*
D56*
X1743701D3*
D57*
X1949213Y1008661D3*
D55*
X1960236Y843307D3*
D32*
X1743504Y6493701D3*
D33*
Y6393701D3*
Y6293701D3*
Y6193701D3*
Y6093701D3*
Y5993701D3*
Y5893701D3*
Y5793701D3*
Y5693701D3*
Y5593701D3*
Y5493701D3*
Y5393701D3*
Y5293701D3*
Y5193701D3*
Y5093701D3*
Y4993701D3*
Y4893701D3*
Y4793701D3*
Y4693701D3*
Y4593701D3*
X2343504D3*
Y4693701D3*
Y4793701D3*
Y4893701D3*
Y4993701D3*
Y5093701D3*
Y5193701D3*
Y5293701D3*
Y5393701D3*
Y5493701D3*
Y5593701D3*
Y5693701D3*
Y5793701D3*
Y5893701D3*
Y5993701D3*
Y6093701D3*
Y6193701D3*
Y6293701D3*
Y6393701D3*
Y6493701D3*
D113*
X6043701Y2861024D3*
X5846850Y2943701D3*
D55*
X5827165Y3093307D3*
D56*
X6043701D3*
D57*
X6249213Y3258661D3*
D55*
X6260236Y3093307D3*
D113*
X6793701Y2861024D3*
X6596850Y2943701D3*
D55*
X6577165Y3093307D3*
D56*
X6793701D3*
D57*
X6999213Y3258661D3*
D55*
X7010236Y3093307D3*
D32*
X8693701Y4543701D3*
D38*
X8831496D3*
D28*
X7593701Y6393701D3*
D111*
X7293701D3*
D38*
X7188976Y3993701D3*
X7688976D3*
D32*
X5243701Y2943307D3*
D33*
Y2843307D3*
Y2743307D3*
Y2643307D3*
Y2543307D3*
Y2443307D3*
Y2343307D3*
Y2243307D3*
Y2143307D3*
Y2043307D3*
Y1943307D3*
Y1843307D3*
Y1743307D3*
Y1643307D3*
X5543701D3*
Y1743307D3*
Y1843307D3*
Y1943307D3*
Y2043307D3*
Y2143307D3*
Y2243307D3*
Y2343307D3*
Y2443307D3*
Y2543307D3*
Y2643307D3*
Y2743307D3*
Y2843307D3*
Y2943307D3*
D28*
X7077953Y5193701D3*
D111*
Y4893701D3*
D38*
X7477953Y5193701D3*
X7576378D3*
D107*
X5393701Y3443701D3*
D113*
X4743701Y2861024D3*
X4546850Y2943701D3*
D55*
X4527165Y3093307D3*
D56*
X4743701D3*
D57*
X4949213Y3258661D3*
D55*
X4960236Y3093307D3*
D113*
X9043701Y2111024D3*
X8846850Y2193701D3*
D55*
X8827165Y2343307D3*
D56*
X9043701D3*
D57*
X9249213Y2508661D3*
D55*
X9260236Y2343307D3*
D32*
X3743701Y4493701D3*
D33*
Y4393701D3*
Y4293701D3*
Y4193701D3*
Y4093701D3*
Y3993701D3*
Y3893701D3*
X4043701D3*
Y3993701D3*
Y4093701D3*
Y4193701D3*
Y4293701D3*
Y4393701D3*
Y4493701D3*
D107*
X10293701Y6593701D3*
D28*
X8843701Y6043701D3*
D111*
Y5743701D3*
D28*
X9693701Y5393701D3*
D111*
Y5293701D3*
D100*
X1393701Y4694094D3*
D98*
Y4794094D3*
Y4894094D3*
Y4994094D3*
Y5094094D3*
Y5194094D3*
Y5294094D3*
Y5394094D3*
Y5494094D3*
Y5594094D3*
Y5694094D3*
Y5794094D3*
Y5894094D3*
Y5994094D3*
X793701D3*
Y5894094D3*
Y5794094D3*
Y5694094D3*
Y5594094D3*
Y5494094D3*
Y5394094D3*
Y5294094D3*
Y5194094D3*
Y5094094D3*
Y4994094D3*
Y4894094D3*
Y4794094D3*
Y4694094D3*
D113*
X1743701Y2111024D3*
X1546850Y2193701D3*
D55*
X1527165Y2343307D3*
D56*
X1743701D3*
D57*
X1949213Y2508661D3*
D55*
X1960236Y2343307D3*
D113*
X1743701Y1361024D3*
X1546850Y1443701D3*
D55*
X1527165Y1593307D3*
D56*
X1743701D3*
D57*
X1949213Y1758661D3*
D55*
X1960236Y1593307D3*
D32*
X5643701Y3993701D3*
D33*
X5743701D3*
X5843701D3*
X5943701D3*
X6043701D3*
X6143701D3*
X6243701D3*
Y4293701D3*
X6143701D3*
X6043701D3*
X5943701D3*
X5843701D3*
X5743701D3*
X5643701D3*
D113*
X9043701Y611024D3*
X8846850Y693701D3*
D55*
X8827165Y843307D3*
D56*
X9043701D3*
D57*
X9249213Y1008661D3*
D55*
X9260236Y843307D3*
D103*
X9093701Y5343701D3*
D102*
X9193701D3*
D32*
X3743701Y5893701D3*
D33*
Y5793701D3*
Y5693701D3*
Y5593701D3*
Y5493701D3*
Y5393701D3*
Y5293701D3*
Y5193701D3*
Y5093701D3*
Y4993701D3*
X4043701D3*
Y5093701D3*
Y5193701D3*
Y5293701D3*
Y5393701D3*
Y5493701D3*
Y5593701D3*
Y5693701D3*
Y5793701D3*
Y5893701D3*
D113*
X2493701Y2861024D3*
X2296850Y2943701D3*
D55*
X2277165Y3093307D3*
D56*
X2493701D3*
D57*
X2699213Y3258661D3*
D55*
X2710236Y3093307D3*
D107*
X493701Y493701D3*
D32*
X10043701Y5195276D3*
D38*
Y5092913D3*
Y5277953D3*
Y5010236D3*
X9933465Y5277953D3*
Y5010236D3*
D96*
X10155906Y4874409D3*
D94*
X10187402Y5144094D3*
D96*
X10155906Y5413780D3*
D113*
X3243701Y611024D3*
X3046850Y693701D3*
D55*
X3027165Y843307D3*
D56*
X3243701D3*
D57*
X3449213Y1008661D3*
D55*
X3460236Y843307D3*
D28*
X8843701Y5543701D3*
D111*
Y5243701D3*
D28*
X6777953Y5193701D3*
D111*
Y4893701D3*
D38*
X2043504Y5442913D3*
Y4942913D3*
D113*
X4743701Y611024D3*
X4546850Y693701D3*
D55*
X4527165Y843307D3*
D56*
X4743701D3*
D57*
X4949213Y1008661D3*
D55*
X4960236Y843307D3*
D113*
X2493701Y1361024D3*
X2296850Y1443701D3*
D55*
X2277165Y1593307D3*
D56*
X2493701D3*
D57*
X2699213Y1758661D3*
D55*
X2710236Y1593307D3*
D103*
X8643701Y6443504D3*
D102*
Y6543504D3*
X8743701Y6443504D3*
Y6543504D3*
X8843701Y6443504D3*
Y6543504D3*
X8943701Y6443504D3*
Y6543504D3*
X9043701Y6443504D3*
Y6543504D3*
X9143701Y6443504D3*
Y6543504D3*
D107*
X493701Y6593701D3*
D103*
X9093701Y4468701D3*
D93*
Y4368701D3*
Y4268701D3*
Y4168701D3*
Y4068701D3*
Y3968701D3*
D113*
X8293701Y2861024D3*
X8096850Y2943701D3*
D55*
X8077165Y3093307D3*
D56*
X8293701D3*
D57*
X8499213Y3258661D3*
D55*
X8510236Y3093307D3*
D113*
X9793701Y611024D3*
X9596850Y693701D3*
D55*
X9577165Y843307D3*
D56*
X9793701D3*
D57*
X9999213Y1008661D3*
D55*
X10010236Y843307D3*
D38*
X9943701Y6293701D3*
X10042126D3*
D113*
X993701Y1361024D3*
X796850Y1443701D3*
D55*
X777165Y1593307D3*
D56*
X993701D3*
D57*
X1199213Y1758661D3*
D55*
X1210236Y1593307D3*
D91*
X9619291Y6143701D3*
D89*
Y6391732D3*
D87*
X9430315Y6257874D3*
D113*
X4743701Y2111024D3*
X4546850Y2193701D3*
D55*
X4527165Y2343307D3*
D56*
X4743701D3*
D57*
X4949213Y2508661D3*
D55*
X4960236Y2343307D3*
D38*
X4493701Y4443701D3*
Y3943701D3*
D85*
X9993701Y6056496D3*
D83*
X10093701D3*
X10193701D3*
D38*
X5093701Y4443701D3*
Y3943701D3*
D113*
X6793701Y1361024D3*
X6596850Y1443701D3*
D55*
X6577165Y1593307D3*
D56*
X6793701D3*
D57*
X6999213Y1758661D3*
D55*
X7010236Y1593307D3*
D32*
X4343307Y4493504D3*
D33*
Y4393504D3*
Y4293504D3*
Y4193504D3*
Y4093504D3*
Y3993504D3*
Y3893504D3*
X4643307D3*
Y3993504D3*
Y4093504D3*
Y4193504D3*
Y4293504D3*
Y4393504D3*
Y4493504D3*
D38*
X5493701Y1093307D3*
X5592126D3*
D113*
X6793701Y611024D3*
X6596850Y693701D3*
D55*
X6577165Y843307D3*
D56*
X6793701D3*
D57*
X6999213Y1008661D3*
D55*
X7010236Y843307D3*
D81*
X6693701Y4593701D3*
D79*
X6643701D3*
X6593701D3*
D28*
X9693701Y5043701D3*
D111*
Y4943701D3*
D38*
X3893701Y5793701D3*
Y5293701D3*
D103*
X9093701Y5593701D3*
D102*
X9193701D3*
D107*
X5393701Y493701D3*
D113*
X6043701Y611024D3*
X5846850Y693701D3*
D55*
X5827165Y843307D3*
D56*
X6043701D3*
D57*
X6249213Y1008661D3*
D55*
X6260236Y843307D3*
D51*
X6354331Y6143701D3*
D77*
X5586614D3*
D107*
X10293701Y3643701D3*
D28*
X7177953Y5193701D3*
D111*
Y4893701D3*
D32*
X4944094Y5893504D3*
D33*
Y5793504D3*
Y5693504D3*
Y5593504D3*
Y5493504D3*
Y5393504D3*
Y5293504D3*
Y5193504D3*
Y5093504D3*
Y4993504D3*
X5244094D3*
Y5093504D3*
Y5193504D3*
Y5293504D3*
Y5393504D3*
Y5493504D3*
Y5593504D3*
Y5693504D3*
Y5793504D3*
Y5893504D3*
D113*
X993701Y2861024D3*
X796850Y2943701D3*
D55*
X777165Y3093307D3*
D56*
X993701D3*
D57*
X1199213Y3258661D3*
D55*
X1210236Y3093307D3*
D103*
X1793110Y3793701D3*
D102*
X1893110D3*
X1993110D3*
X2093110D3*
X2193110D3*
X2293110D3*
X2393110D3*
X2493110D3*
D113*
X8293701Y2111024D3*
X8096850Y2193701D3*
D55*
X8077165Y2343307D3*
D56*
X8293701D3*
D57*
X8499213Y2508661D3*
D55*
X8510236Y2343307D3*
D103*
X9993701Y5843701D3*
D102*
X10093701D3*
D113*
X7543701Y611024D3*
X7346850Y693701D3*
D55*
X7327165Y843307D3*
D56*
X7543701D3*
D57*
X7749213Y1008661D3*
D55*
X7760236Y843307D3*
D32*
X7344094Y5843307D3*
D33*
Y5743307D3*
Y5643307D3*
Y5543307D3*
X7644094D3*
Y5643307D3*
Y5743307D3*
Y5843307D3*
D113*
X6043701Y2111024D3*
X5846850Y2193701D3*
D55*
X5827165Y2343307D3*
D56*
X6043701D3*
D57*
X6249213Y2508661D3*
D55*
X6260236Y2343307D3*
D38*
X8143701Y5394488D3*
Y5894488D3*
D32*
X4943307Y4493504D3*
D33*
Y4393504D3*
Y4293504D3*
Y4193504D3*
Y4093504D3*
Y3993504D3*
Y3893504D3*
Y3793504D3*
X5243307D3*
Y3893504D3*
Y3993504D3*
Y4093504D3*
Y4193504D3*
Y4293504D3*
Y4393504D3*
Y4493504D3*
D103*
X6593701Y6543701D3*
D102*
X6693701D3*
X6793701D3*
X6893701D3*
D113*
X3993701Y2861024D3*
X3796850Y2943701D3*
D55*
X3777165Y3093307D3*
D56*
X3993701D3*
D57*
X4199213Y3258661D3*
D55*
X4210236Y3093307D3*
D38*
X5093701Y5793701D3*
Y5293701D3*
D103*
X9993701Y5593701D3*
D102*
X10093701D3*
D38*
X844488Y6444094D3*
X1344488D3*
D113*
X2493701Y2111024D3*
X2296850Y2193701D3*
D55*
X2277165Y2343307D3*
D56*
X2493701D3*
D57*
X2699213Y2508661D3*
D55*
X2710236Y2343307D3*
D113*
X2493701Y611024D3*
X2296850Y693701D3*
D55*
X2277165Y843307D3*
D56*
X2493701D3*
D57*
X2699213Y1008661D3*
D55*
X2710236Y843307D3*
D28*
X5493701Y1343307D3*
D111*
X5593701D3*
D75*
X4543701Y6343701D3*
X4443701Y6443701D3*
X4543701Y6543701D3*
D103*
X5793701Y3693701D3*
D102*
X5893701D3*
X5993701D3*
X6093701D3*
D113*
X9793701Y1361024D3*
X9596850Y1443701D3*
D55*
X9577165Y1593307D3*
D56*
X9793701D3*
D57*
X9999213Y1758661D3*
D55*
X10010236Y1593307D3*
D107*
X10293701Y493701D3*
D28*
X7593701Y6293701D3*
D111*
X7293701D3*
D64*
X7055906Y5861024D3*
X7130709D3*
D32*
X7893701Y4293701D3*
D33*
X7793701D3*
X7693701D3*
X7593701D3*
X7493701D3*
X7393701D3*
X7293701D3*
X7193701D3*
X7093701D3*
X6993701D3*
X6893701D3*
X6793701D3*
X6693701D3*
X6593701D3*
Y3693701D3*
X6693701D3*
X6793701D3*
X6893701D3*
X6993701D3*
X7093701D3*
X7193701D3*
X7293701D3*
X7393701D3*
X7493701D3*
X7593701D3*
X7693701D3*
X7793701D3*
X7893701D3*
D32*
X1793701Y4093701D3*
D33*
X1893701D3*
X1993701D3*
X2093701D3*
X2193701D3*
X2293701D3*
D38*
X5193701Y1093307D3*
X5292126D3*
X10143701Y6293701D3*
X10242126D3*
D113*
X9793701Y2861024D3*
X9596850Y2943701D3*
D55*
X9577165Y3093307D3*
D56*
X9793701D3*
D57*
X9999213Y3258661D3*
D55*
X10010236Y3093307D3*
D38*
X4493701Y5793701D3*
Y5293701D3*
D113*
X993701Y2111024D3*
X796850Y2193701D3*
D55*
X777165Y2343307D3*
D56*
X993701D3*
D57*
X1199213Y2508661D3*
D55*
X1210236Y2343307D3*
D107*
X10293701Y3443701D3*
D113*
X993701Y611024D3*
X796850Y693701D3*
D55*
X777165Y843307D3*
D56*
X993701D3*
D57*
X1199213Y1008661D3*
D55*
X1210236Y843307D3*
D38*
X2993504Y5243701D3*
Y5743701D3*
D107*
X5393701Y6593701D3*
D103*
X9093701Y5843701D3*
D102*
X9193701D3*
D113*
X6793701Y2111024D3*
X6596850Y2193701D3*
D55*
X6577165Y2343307D3*
D56*
X6793701D3*
D57*
X6999213Y2508661D3*
D55*
X7010236Y2343307D3*
D70*
X9243701Y1193307D3*
D68*
X8843701D3*
D70*
X6243701Y2693307D3*
D68*
X5843701D3*
D70*
X1193701Y1943307D3*
D68*
X793701D3*
D70*
X4943701D3*
D68*
X4543701D3*
D70*
X6993701Y2693307D3*
D68*
X6593701D3*
D70*
X7743701Y1943307D3*
D68*
X7343701D3*
D70*
X2693701Y3443307D3*
D68*
X2293701D3*
D70*
X8493701Y2693307D3*
D68*
X8093701D3*
D70*
X6243701Y3443307D3*
D68*
X5843701D3*
D70*
X7743701Y2693307D3*
D68*
X7343701D3*
D70*
X4943701D3*
D68*
X4543701D3*
D70*
X7743701Y3443307D3*
D68*
X7343701D3*
D70*
X4943701D3*
D68*
X4543701D3*
D70*
X8493701Y1943307D3*
D68*
X8093701D3*
D70*
X8493701Y1193307D3*
D68*
X8093701D3*
D70*
X3443701Y2693307D3*
D68*
X3043701D3*
D70*
X4193701Y1193307D3*
D68*
X3793701D3*
D70*
X2693701Y2693307D3*
D68*
X2293701D3*
D70*
X6243701Y1193307D3*
D68*
X5843701D3*
D70*
X1943701Y1943307D3*
D68*
X1543701D3*
D70*
X1193701Y1193307D3*
D68*
X793701D3*
D70*
X3443701Y1943307D3*
D68*
X3043701D3*
D70*
X8493701Y3443307D3*
D68*
X8093701D3*
D70*
X9993701Y1943307D3*
D68*
X9593701D3*
D70*
X4193701D3*
D68*
X3793701D3*
D70*
X4193701Y2693307D3*
D68*
X3793701D3*
D70*
X9993701Y3443307D3*
D68*
X9593701D3*
D70*
X1193701Y2693307D3*
D68*
X793701D3*
D70*
X7743701Y1193307D3*
D68*
X7343701D3*
D70*
X1943701Y2693307D3*
D68*
X1543701D3*
D70*
X6993701Y1193307D3*
D68*
X6593701D3*
D70*
X2693701Y1943307D3*
D68*
X2293701D3*
D70*
X3443701Y1193307D3*
D68*
X3043701D3*
D70*
X4943701D3*
D68*
X4543701D3*
D70*
X1193701Y3443307D3*
D68*
X793701D3*
D70*
X3443701D3*
D68*
X3043701D3*
D70*
X1943701Y1193307D3*
D68*
X1543701D3*
D70*
X6993701Y3443307D3*
D68*
X6593701D3*
D70*
X6993701Y1943307D3*
D68*
X6593701D3*
D70*
X9243701Y3443307D3*
D68*
X8843701D3*
D70*
X1943701D3*
D68*
X1543701D3*
D70*
X6243701Y1943307D3*
D68*
X5843701D3*
D70*
X9993701Y1193307D3*
D68*
X9593701D3*
D70*
X9993701Y2693307D3*
D68*
X9593701D3*
D70*
X9243701D3*
D68*
X8843701D3*
D70*
X9243701Y1943307D3*
D68*
X8843701D3*
D70*
X4193701Y3443307D3*
D68*
X3793701D3*
D70*
X2693701Y1193307D3*
D68*
X2293701D3*
M02*
