%TF.GenerationSoftware,Novarm,DipTrace,4.3.0.4*%
%TF.CreationDate,2023-07-28T17:07:58+01:00*%
%FSLAX26Y26*%
%MOIN*%
%TF.FileFunction,Legend,Bot*%
%TF.Part,Single*%
%ADD10C,0.004724*%
%ADD22C,0.005906*%
%ADD116C,0.00772*%
G75*
G01*
%LPD*%
X9190945Y1193307D2*
D10*
X9150787D1*
Y1135433D2*
X8936614D1*
X9150787Y1251181D2*
Y1135433D1*
X9120079Y1251181D2*
Y1135433D1*
X9115354Y1251181D2*
Y1135433D1*
X9110630Y1251181D2*
Y1135433D1*
X8936614D2*
Y1251181D1*
X9150787D1*
X8896457Y1193307D2*
X8936614D1*
X6190945Y2693307D2*
X6150787D1*
Y2635433D2*
X5936614D1*
X6150787Y2751181D2*
Y2635433D1*
X6120079Y2751181D2*
Y2635433D1*
X6115354Y2751181D2*
Y2635433D1*
X6110630Y2751181D2*
Y2635433D1*
X5936614D2*
Y2751181D1*
X6150787D1*
X5896457Y2693307D2*
X5936614D1*
X1140945Y1943307D2*
X1100787D1*
Y1885433D2*
X886614D1*
X1100787Y2001181D2*
Y1885433D1*
X1070079Y2001181D2*
Y1885433D1*
X1065354Y2001181D2*
Y1885433D1*
X1060630Y2001181D2*
Y1885433D1*
X886614D2*
Y2001181D1*
X1100787D1*
X846457Y1943307D2*
X886614D1*
X4890945D2*
X4850787D1*
Y1885433D2*
X4636614D1*
X4850787Y2001181D2*
Y1885433D1*
X4820079Y2001181D2*
Y1885433D1*
X4815354Y2001181D2*
Y1885433D1*
X4810630Y2001181D2*
Y1885433D1*
X4636614D2*
Y2001181D1*
X4850787D1*
X4596457Y1943307D2*
X4636614D1*
X6940945Y2693307D2*
X6900787D1*
Y2635433D2*
X6686614D1*
X6900787Y2751181D2*
Y2635433D1*
X6870079Y2751181D2*
Y2635433D1*
X6865354Y2751181D2*
Y2635433D1*
X6860630Y2751181D2*
Y2635433D1*
X6686614D2*
Y2751181D1*
X6900787D1*
X6646457Y2693307D2*
X6686614D1*
X7690945Y1943307D2*
X7650787D1*
Y1885433D2*
X7436614D1*
X7650787Y2001181D2*
Y1885433D1*
X7620079Y2001181D2*
Y1885433D1*
X7615354Y2001181D2*
Y1885433D1*
X7610630Y2001181D2*
Y1885433D1*
X7436614D2*
Y2001181D1*
X7650787D1*
X7396457Y1943307D2*
X7436614D1*
X2640945Y3443307D2*
X2600787D1*
Y3385433D2*
X2386614D1*
X2600787Y3501181D2*
Y3385433D1*
X2570079Y3501181D2*
Y3385433D1*
X2565354Y3501181D2*
Y3385433D1*
X2560630Y3501181D2*
Y3385433D1*
X2386614D2*
Y3501181D1*
X2600787D1*
X2346457Y3443307D2*
X2386614D1*
X8440945Y2693307D2*
X8400787D1*
Y2635433D2*
X8186614D1*
X8400787Y2751181D2*
Y2635433D1*
X8370079Y2751181D2*
Y2635433D1*
X8365354Y2751181D2*
Y2635433D1*
X8360630Y2751181D2*
Y2635433D1*
X8186614D2*
Y2751181D1*
X8400787D1*
X8146457Y2693307D2*
X8186614D1*
X6190945Y3443307D2*
X6150787D1*
Y3385433D2*
X5936614D1*
X6150787Y3501181D2*
Y3385433D1*
X6120079Y3501181D2*
Y3385433D1*
X6115354Y3501181D2*
Y3385433D1*
X6110630Y3501181D2*
Y3385433D1*
X5936614D2*
Y3501181D1*
X6150787D1*
X5896457Y3443307D2*
X5936614D1*
X7690945Y2693307D2*
X7650787D1*
Y2635433D2*
X7436614D1*
X7650787Y2751181D2*
Y2635433D1*
X7620079Y2751181D2*
Y2635433D1*
X7615354Y2751181D2*
Y2635433D1*
X7610630Y2751181D2*
Y2635433D1*
X7436614D2*
Y2751181D1*
X7650787D1*
X7396457Y2693307D2*
X7436614D1*
X4890945D2*
X4850787D1*
Y2635433D2*
X4636614D1*
X4850787Y2751181D2*
Y2635433D1*
X4820079Y2751181D2*
Y2635433D1*
X4815354Y2751181D2*
Y2635433D1*
X4810630Y2751181D2*
Y2635433D1*
X4636614D2*
Y2751181D1*
X4850787D1*
X4596457Y2693307D2*
X4636614D1*
X7690945Y3443307D2*
X7650787D1*
Y3385433D2*
X7436614D1*
X7650787Y3501181D2*
Y3385433D1*
X7620079Y3501181D2*
Y3385433D1*
X7615354Y3501181D2*
Y3385433D1*
X7610630Y3501181D2*
Y3385433D1*
X7436614D2*
Y3501181D1*
X7650787D1*
X7396457Y3443307D2*
X7436614D1*
X4890945D2*
X4850787D1*
Y3385433D2*
X4636614D1*
X4850787Y3501181D2*
Y3385433D1*
X4820079Y3501181D2*
Y3385433D1*
X4815354Y3501181D2*
Y3385433D1*
X4810630Y3501181D2*
Y3385433D1*
X4636614D2*
Y3501181D1*
X4850787D1*
X4596457Y3443307D2*
X4636614D1*
X8440945Y1943307D2*
X8400787D1*
Y1885433D2*
X8186614D1*
X8400787Y2001181D2*
Y1885433D1*
X8370079Y2001181D2*
Y1885433D1*
X8365354Y2001181D2*
Y1885433D1*
X8360630Y2001181D2*
Y1885433D1*
X8186614D2*
Y2001181D1*
X8400787D1*
X8146457Y1943307D2*
X8186614D1*
X8440945Y1193307D2*
X8400787D1*
Y1135433D2*
X8186614D1*
X8400787Y1251181D2*
Y1135433D1*
X8370079Y1251181D2*
Y1135433D1*
X8365354Y1251181D2*
Y1135433D1*
X8360630Y1251181D2*
Y1135433D1*
X8186614D2*
Y1251181D1*
X8400787D1*
X8146457Y1193307D2*
X8186614D1*
X3390945Y2693307D2*
X3350787D1*
Y2635433D2*
X3136614D1*
X3350787Y2751181D2*
Y2635433D1*
X3320079Y2751181D2*
Y2635433D1*
X3315354Y2751181D2*
Y2635433D1*
X3310630Y2751181D2*
Y2635433D1*
X3136614D2*
Y2751181D1*
X3350787D1*
X3096457Y2693307D2*
X3136614D1*
X4140945Y1193307D2*
X4100787D1*
Y1135433D2*
X3886614D1*
X4100787Y1251181D2*
Y1135433D1*
X4070079Y1251181D2*
Y1135433D1*
X4065354Y1251181D2*
Y1135433D1*
X4060630Y1251181D2*
Y1135433D1*
X3886614D2*
Y1251181D1*
X4100787D1*
X3846457Y1193307D2*
X3886614D1*
X2640945Y2693307D2*
X2600787D1*
Y2635433D2*
X2386614D1*
X2600787Y2751181D2*
Y2635433D1*
X2570079Y2751181D2*
Y2635433D1*
X2565354Y2751181D2*
Y2635433D1*
X2560630Y2751181D2*
Y2635433D1*
X2386614D2*
Y2751181D1*
X2600787D1*
X2346457Y2693307D2*
X2386614D1*
X6190945Y1193307D2*
X6150787D1*
Y1135433D2*
X5936614D1*
X6150787Y1251181D2*
Y1135433D1*
X6120079Y1251181D2*
Y1135433D1*
X6115354Y1251181D2*
Y1135433D1*
X6110630Y1251181D2*
Y1135433D1*
X5936614D2*
Y1251181D1*
X6150787D1*
X5896457Y1193307D2*
X5936614D1*
X1890945Y1943307D2*
X1850787D1*
Y1885433D2*
X1636614D1*
X1850787Y2001181D2*
Y1885433D1*
X1820079Y2001181D2*
Y1885433D1*
X1815354Y2001181D2*
Y1885433D1*
X1810630Y2001181D2*
Y1885433D1*
X1636614D2*
Y2001181D1*
X1850787D1*
X1596457Y1943307D2*
X1636614D1*
X1140945Y1193307D2*
X1100787D1*
Y1135433D2*
X886614D1*
X1100787Y1251181D2*
Y1135433D1*
X1070079Y1251181D2*
Y1135433D1*
X1065354Y1251181D2*
Y1135433D1*
X1060630Y1251181D2*
Y1135433D1*
X886614D2*
Y1251181D1*
X1100787D1*
X846457Y1193307D2*
X886614D1*
X3390945Y1943307D2*
X3350787D1*
Y1885433D2*
X3136614D1*
X3350787Y2001181D2*
Y1885433D1*
X3320079Y2001181D2*
Y1885433D1*
X3315354Y2001181D2*
Y1885433D1*
X3310630Y2001181D2*
Y1885433D1*
X3136614D2*
Y2001181D1*
X3350787D1*
X3096457Y1943307D2*
X3136614D1*
X8440945Y3443307D2*
X8400787D1*
Y3385433D2*
X8186614D1*
X8400787Y3501181D2*
Y3385433D1*
X8370079Y3501181D2*
Y3385433D1*
X8365354Y3501181D2*
Y3385433D1*
X8360630Y3501181D2*
Y3385433D1*
X8186614D2*
Y3501181D1*
X8400787D1*
X8146457Y3443307D2*
X8186614D1*
X9940945Y1943307D2*
X9900787D1*
Y1885433D2*
X9686614D1*
X9900787Y2001181D2*
Y1885433D1*
X9870079Y2001181D2*
Y1885433D1*
X9865354Y2001181D2*
Y1885433D1*
X9860630Y2001181D2*
Y1885433D1*
X9686614D2*
Y2001181D1*
X9900787D1*
X9646457Y1943307D2*
X9686614D1*
X4140945D2*
X4100787D1*
Y1885433D2*
X3886614D1*
X4100787Y2001181D2*
Y1885433D1*
X4070079Y2001181D2*
Y1885433D1*
X4065354Y2001181D2*
Y1885433D1*
X4060630Y2001181D2*
Y1885433D1*
X3886614D2*
Y2001181D1*
X4100787D1*
X3846457Y1943307D2*
X3886614D1*
X4140945Y2693307D2*
X4100787D1*
Y2635433D2*
X3886614D1*
X4100787Y2751181D2*
Y2635433D1*
X4070079Y2751181D2*
Y2635433D1*
X4065354Y2751181D2*
Y2635433D1*
X4060630Y2751181D2*
Y2635433D1*
X3886614D2*
Y2751181D1*
X4100787D1*
X3846457Y2693307D2*
X3886614D1*
X9940945Y3443307D2*
X9900787D1*
Y3385433D2*
X9686614D1*
X9900787Y3501181D2*
Y3385433D1*
X9870079Y3501181D2*
Y3385433D1*
X9865354Y3501181D2*
Y3385433D1*
X9860630Y3501181D2*
Y3385433D1*
X9686614D2*
Y3501181D1*
X9900787D1*
X9646457Y3443307D2*
X9686614D1*
X1140945Y2693307D2*
X1100787D1*
Y2635433D2*
X886614D1*
X1100787Y2751181D2*
Y2635433D1*
X1070079Y2751181D2*
Y2635433D1*
X1065354Y2751181D2*
Y2635433D1*
X1060630Y2751181D2*
Y2635433D1*
X886614D2*
Y2751181D1*
X1100787D1*
X846457Y2693307D2*
X886614D1*
X7690945Y1193307D2*
X7650787D1*
Y1135433D2*
X7436614D1*
X7650787Y1251181D2*
Y1135433D1*
X7620079Y1251181D2*
Y1135433D1*
X7615354Y1251181D2*
Y1135433D1*
X7610630Y1251181D2*
Y1135433D1*
X7436614D2*
Y1251181D1*
X7650787D1*
X7396457Y1193307D2*
X7436614D1*
X1890945Y2693307D2*
X1850787D1*
Y2635433D2*
X1636614D1*
X1850787Y2751181D2*
Y2635433D1*
X1820079Y2751181D2*
Y2635433D1*
X1815354Y2751181D2*
Y2635433D1*
X1810630Y2751181D2*
Y2635433D1*
X1636614D2*
Y2751181D1*
X1850787D1*
X1596457Y2693307D2*
X1636614D1*
X6940945Y1193307D2*
X6900787D1*
Y1135433D2*
X6686614D1*
X6900787Y1251181D2*
Y1135433D1*
X6870079Y1251181D2*
Y1135433D1*
X6865354Y1251181D2*
Y1135433D1*
X6860630Y1251181D2*
Y1135433D1*
X6686614D2*
Y1251181D1*
X6900787D1*
X6646457Y1193307D2*
X6686614D1*
X2640945Y1943307D2*
X2600787D1*
Y1885433D2*
X2386614D1*
X2600787Y2001181D2*
Y1885433D1*
X2570079Y2001181D2*
Y1885433D1*
X2565354Y2001181D2*
Y1885433D1*
X2560630Y2001181D2*
Y1885433D1*
X2386614D2*
Y2001181D1*
X2600787D1*
X2346457Y1943307D2*
X2386614D1*
X3390945Y1193307D2*
X3350787D1*
Y1135433D2*
X3136614D1*
X3350787Y1251181D2*
Y1135433D1*
X3320079Y1251181D2*
Y1135433D1*
X3315354Y1251181D2*
Y1135433D1*
X3310630Y1251181D2*
Y1135433D1*
X3136614D2*
Y1251181D1*
X3350787D1*
X3096457Y1193307D2*
X3136614D1*
X4890945D2*
X4850787D1*
Y1135433D2*
X4636614D1*
X4850787Y1251181D2*
Y1135433D1*
X4820079Y1251181D2*
Y1135433D1*
X4815354Y1251181D2*
Y1135433D1*
X4810630Y1251181D2*
Y1135433D1*
X4636614D2*
Y1251181D1*
X4850787D1*
X4596457Y1193307D2*
X4636614D1*
X1140945Y3443307D2*
X1100787D1*
Y3385433D2*
X886614D1*
X1100787Y3501181D2*
Y3385433D1*
X1070079Y3501181D2*
Y3385433D1*
X1065354Y3501181D2*
Y3385433D1*
X1060630Y3501181D2*
Y3385433D1*
X886614D2*
Y3501181D1*
X1100787D1*
X846457Y3443307D2*
X886614D1*
X3390945D2*
X3350787D1*
Y3385433D2*
X3136614D1*
X3350787Y3501181D2*
Y3385433D1*
X3320079Y3501181D2*
Y3385433D1*
X3315354Y3501181D2*
Y3385433D1*
X3310630Y3501181D2*
Y3385433D1*
X3136614D2*
Y3501181D1*
X3350787D1*
X3096457Y3443307D2*
X3136614D1*
X1890945Y1193307D2*
X1850787D1*
Y1135433D2*
X1636614D1*
X1850787Y1251181D2*
Y1135433D1*
X1820079Y1251181D2*
Y1135433D1*
X1815354Y1251181D2*
Y1135433D1*
X1810630Y1251181D2*
Y1135433D1*
X1636614D2*
Y1251181D1*
X1850787D1*
X1596457Y1193307D2*
X1636614D1*
X6940945Y3443307D2*
X6900787D1*
Y3385433D2*
X6686614D1*
X6900787Y3501181D2*
Y3385433D1*
X6870079Y3501181D2*
Y3385433D1*
X6865354Y3501181D2*
Y3385433D1*
X6860630Y3501181D2*
Y3385433D1*
X6686614D2*
Y3501181D1*
X6900787D1*
X6646457Y3443307D2*
X6686614D1*
X6940945Y1943307D2*
X6900787D1*
Y1885433D2*
X6686614D1*
X6900787Y2001181D2*
Y1885433D1*
X6870079Y2001181D2*
Y1885433D1*
X6865354Y2001181D2*
Y1885433D1*
X6860630Y2001181D2*
Y1885433D1*
X6686614D2*
Y2001181D1*
X6900787D1*
X6646457Y1943307D2*
X6686614D1*
X9190945Y3443307D2*
X9150787D1*
Y3385433D2*
X8936614D1*
X9150787Y3501181D2*
Y3385433D1*
X9120079Y3501181D2*
Y3385433D1*
X9115354Y3501181D2*
Y3385433D1*
X9110630Y3501181D2*
Y3385433D1*
X8936614D2*
Y3501181D1*
X9150787D1*
X8896457Y3443307D2*
X8936614D1*
X1890945D2*
X1850787D1*
Y3385433D2*
X1636614D1*
X1850787Y3501181D2*
Y3385433D1*
X1820079Y3501181D2*
Y3385433D1*
X1815354Y3501181D2*
Y3385433D1*
X1810630Y3501181D2*
Y3385433D1*
X1636614D2*
Y3501181D1*
X1850787D1*
X1596457Y3443307D2*
X1636614D1*
X6190945Y1943307D2*
X6150787D1*
Y1885433D2*
X5936614D1*
X6150787Y2001181D2*
Y1885433D1*
X6120079Y2001181D2*
Y1885433D1*
X6115354Y2001181D2*
Y1885433D1*
X6110630Y2001181D2*
Y1885433D1*
X5936614D2*
Y2001181D1*
X6150787D1*
X5896457Y1943307D2*
X5936614D1*
X9940945Y1193307D2*
X9900787D1*
Y1135433D2*
X9686614D1*
X9900787Y1251181D2*
Y1135433D1*
X9870079Y1251181D2*
Y1135433D1*
X9865354Y1251181D2*
Y1135433D1*
X9860630Y1251181D2*
Y1135433D1*
X9686614D2*
Y1251181D1*
X9900787D1*
X9646457Y1193307D2*
X9686614D1*
X9940945Y2693307D2*
X9900787D1*
Y2635433D2*
X9686614D1*
X9900787Y2751181D2*
Y2635433D1*
X9870079Y2751181D2*
Y2635433D1*
X9865354Y2751181D2*
Y2635433D1*
X9860630Y2751181D2*
Y2635433D1*
X9686614D2*
Y2751181D1*
X9900787D1*
X9646457Y2693307D2*
X9686614D1*
X9190945D2*
X9150787D1*
Y2635433D2*
X8936614D1*
X9150787Y2751181D2*
Y2635433D1*
X9120079Y2751181D2*
Y2635433D1*
X9115354Y2751181D2*
Y2635433D1*
X9110630Y2751181D2*
Y2635433D1*
X8936614D2*
Y2751181D1*
X9150787D1*
X8896457Y2693307D2*
X8936614D1*
X9190945Y1943307D2*
X9150787D1*
Y1885433D2*
X8936614D1*
X9150787Y2001181D2*
Y1885433D1*
X9120079Y2001181D2*
Y1885433D1*
X9115354Y2001181D2*
Y1885433D1*
X9110630Y2001181D2*
Y1885433D1*
X8936614D2*
Y2001181D1*
X9150787D1*
X8896457Y1943307D2*
X8936614D1*
X4140945Y3443307D2*
X4100787D1*
Y3385433D2*
X3886614D1*
X4100787Y3501181D2*
Y3385433D1*
X4070079Y3501181D2*
Y3385433D1*
X4065354Y3501181D2*
Y3385433D1*
X4060630Y3501181D2*
Y3385433D1*
X3886614D2*
Y3501181D1*
X4100787D1*
X3846457Y3443307D2*
X3886614D1*
X2640945Y1193307D2*
X2600787D1*
Y1135433D2*
X2386614D1*
X2600787Y1251181D2*
Y1135433D1*
X2570079Y1251181D2*
Y1135433D1*
X2565354Y1251181D2*
Y1135433D1*
X2560630Y1251181D2*
Y1135433D1*
X2386614D2*
Y1251181D1*
X2600787D1*
X2346457Y1193307D2*
X2386614D1*
X9257098Y1298490D2*
D22*
Y1258298D1*
X9230303Y1298490D2*
X9257098Y1271695D1*
X9247548Y1281290D2*
X9230303Y1258298D1*
X9110568Y1318683D2*
D116*
Y1268443D1*
X9093822D1*
X9086637Y1270875D1*
X9081828Y1275628D1*
X9079452Y1280437D1*
X9077075Y1287567D1*
Y1299560D1*
X9079452Y1306745D1*
X9081828Y1311498D1*
X9086637Y1316307D1*
X9093822Y1318683D1*
X9110568D1*
X9037704Y1268443D2*
Y1318628D1*
X9061636Y1285190D1*
X9025766D1*
X9000765Y1268443D2*
X8976833Y1318628D1*
X9010327D1*
X6257098Y2798490D2*
D22*
Y2758298D1*
X6230303Y2798490D2*
X6257098Y2771695D1*
X6247548Y2781290D2*
X6230303Y2758298D1*
X6108192Y2818683D2*
D116*
Y2768443D1*
X6091445D1*
X6084260Y2770875D1*
X6079452Y2775628D1*
X6077075Y2780437D1*
X6074698Y2787567D1*
Y2799560D1*
X6077075Y2806745D1*
X6079452Y2811498D1*
X6084260Y2816307D1*
X6091445Y2818683D1*
X6108192D1*
X6056827Y2806690D2*
Y2809066D1*
X6054451Y2813875D1*
X6052074Y2816252D1*
X6047266Y2818628D1*
X6037704D1*
X6032951Y2816252D1*
X6030574Y2813875D1*
X6028142Y2809066D1*
Y2804313D1*
X6030574Y2799505D1*
X6035327Y2792375D1*
X6059259Y2768443D1*
X6025766D1*
X5979210Y2801937D2*
X5981642Y2794752D1*
X5986395Y2789943D1*
X5993580Y2787567D1*
X5995956D1*
X6003142Y2789943D1*
X6007895Y2794752D1*
X6010327Y2801937D1*
Y2804313D1*
X6007895Y2811498D1*
X6003142Y2816252D1*
X5995956Y2818628D1*
X5993580D1*
X5986395Y2816252D1*
X5981642Y2811498D1*
X5979210Y2801937D1*
Y2789943D1*
X5981642Y2778005D1*
X5986395Y2770820D1*
X5993580Y2768443D1*
X5998333D1*
X6005518Y2770820D1*
X6007895Y2775628D1*
X1207098Y2048490D2*
D22*
Y2008298D1*
X1180303Y2048490D2*
X1207098Y2021695D1*
X1197548Y2031290D2*
X1180303Y2008298D1*
X1033698Y2068683D2*
D116*
Y2018443D1*
X1016951D1*
X1009766Y2020875D1*
X1004958Y2025628D1*
X1002581Y2030437D1*
X1000204Y2037567D1*
Y2049560D1*
X1002581Y2056745D1*
X1004958Y2061498D1*
X1009766Y2066307D1*
X1016951Y2068683D1*
X1033698D1*
X956080Y2061498D2*
X958457Y2066252D1*
X965642Y2068628D1*
X970395D1*
X977580Y2066252D1*
X982389Y2059066D1*
X984765Y2047128D1*
Y2035190D1*
X982389Y2025628D1*
X977580Y2020820D1*
X970395Y2018443D1*
X968019D1*
X960889Y2020820D1*
X956080Y2025628D1*
X953704Y2032813D1*
Y2035190D1*
X956080Y2042375D1*
X960889Y2047128D1*
X968019Y2049505D1*
X970395D1*
X977580Y2047128D1*
X982389Y2042375D1*
X984765Y2035190D1*
X4957098Y2048490D2*
D22*
Y2008298D1*
X4930303Y2048490D2*
X4957098Y2021695D1*
X4947548Y2031290D2*
X4930303Y2008298D1*
X4808164Y2068683D2*
D116*
Y2018443D1*
X4791417D1*
X4784232Y2020875D1*
X4779424Y2025628D1*
X4777047Y2030437D1*
X4774671Y2037567D1*
Y2049560D1*
X4777047Y2056745D1*
X4779424Y2061498D1*
X4784232Y2066307D1*
X4791417Y2068683D1*
X4808164D1*
X4756800Y2056690D2*
Y2059066D1*
X4754423Y2063875D1*
X4752046Y2066252D1*
X4747238Y2068628D1*
X4737676D1*
X4732923Y2066252D1*
X4730547Y2063875D1*
X4728115Y2059066D1*
Y2054313D1*
X4730547Y2049505D1*
X4735300Y2042375D1*
X4759232Y2018443D1*
X4725738D1*
X4681614Y2061498D2*
X4683991Y2066252D1*
X4691176Y2068628D1*
X4695929D1*
X4703114Y2066252D1*
X4707922Y2059066D1*
X4710299Y2047128D1*
Y2035190D1*
X4707922Y2025628D1*
X4703114Y2020820D1*
X4695929Y2018443D1*
X4693552D1*
X4686423Y2020820D1*
X4681614Y2025628D1*
X4679237Y2032813D1*
Y2035190D1*
X4681614Y2042375D1*
X4686423Y2047128D1*
X4693552Y2049505D1*
X4695929D1*
X4703114Y2047128D1*
X4707922Y2042375D1*
X4710299Y2035190D1*
X7007098Y2798490D2*
D22*
Y2758298D1*
X6980303Y2798490D2*
X7007098Y2771695D1*
X6997548Y2781290D2*
X6980303Y2758298D1*
X6859380Y2818683D2*
D116*
Y2768443D1*
X6842633D1*
X6835448Y2770875D1*
X6830640Y2775628D1*
X6828263Y2780437D1*
X6825887Y2787567D1*
Y2799560D1*
X6828263Y2806745D1*
X6830640Y2811498D1*
X6835448Y2816307D1*
X6842633Y2818683D1*
X6859380D1*
X6805639Y2818628D2*
X6779386D1*
X6793701Y2799505D1*
X6786516D1*
X6781763Y2797128D1*
X6779386Y2794752D1*
X6776954Y2787567D1*
Y2782813D1*
X6779386Y2775628D1*
X6784139Y2770820D1*
X6791324Y2768443D1*
X6798509D1*
X6805639Y2770820D1*
X6808016Y2773252D1*
X6810447Y2778005D1*
X6756706Y2818628D2*
X6730453D1*
X6744768Y2799505D1*
X6737583D1*
X6732830Y2797128D1*
X6730453Y2794752D1*
X6728022Y2787567D1*
Y2782813D1*
X6730453Y2775628D1*
X6735207Y2770820D1*
X6742392Y2768443D1*
X6749577D1*
X6756706Y2770820D1*
X6759083Y2773252D1*
X6761515Y2778005D1*
X7757098Y2048490D2*
D22*
Y2008298D1*
X7730303Y2048490D2*
X7757098Y2021695D1*
X7747548Y2031290D2*
X7730303Y2008298D1*
X7609352Y2068683D2*
D116*
Y2018443D1*
X7592606D1*
X7585421Y2020875D1*
X7580612Y2025628D1*
X7578236Y2030437D1*
X7575859Y2037567D1*
Y2049560D1*
X7578236Y2056745D1*
X7580612Y2061498D1*
X7585421Y2066307D1*
X7592606Y2068683D1*
X7609352D1*
X7555611Y2068628D2*
X7529358D1*
X7543673Y2049505D1*
X7536488D1*
X7531735Y2047128D1*
X7529358Y2044752D1*
X7526926Y2037567D1*
Y2032813D1*
X7529358Y2025628D1*
X7534112Y2020820D1*
X7541297Y2018443D1*
X7548482D1*
X7555611Y2020820D1*
X7557988Y2023252D1*
X7560420Y2028005D1*
X7499549Y2068628D2*
X7506679Y2066252D1*
X7509111Y2061498D1*
Y2056690D1*
X7506679Y2051937D1*
X7501926Y2049505D1*
X7492364Y2047128D1*
X7485179Y2044752D1*
X7480426Y2039943D1*
X7478049Y2035190D1*
Y2028005D1*
X7480426Y2023252D1*
X7482802Y2020820D1*
X7489987Y2018443D1*
X7499549D1*
X7506679Y2020820D1*
X7509111Y2023252D1*
X7511487Y2028005D1*
Y2035190D1*
X7509111Y2039943D1*
X7504302Y2044752D1*
X7497172Y2047128D1*
X7487611Y2049505D1*
X7482802Y2051937D1*
X7480426Y2056690D1*
Y2061498D1*
X7482802Y2066252D1*
X7489987Y2068628D1*
X7499549D1*
X2807098Y3466207D2*
D22*
Y3426015D1*
X2780303Y3466207D2*
X2807098Y3439412D1*
X2797548Y3449007D2*
X2780303Y3426015D1*
X2548630Y3471833D2*
D116*
Y3421593D1*
X2531883D1*
X2524698Y3424025D1*
X2519890Y3428778D1*
X2517513Y3433586D1*
X2515137Y3440716D1*
Y3452710D1*
X2517513Y3459895D1*
X2519890Y3464648D1*
X2524698Y3469456D1*
X2531883Y3471833D1*
X2548630D1*
X2499698Y3462216D2*
X2494889Y3464648D1*
X2487704Y3471778D1*
Y3421593D1*
X2469833Y3459839D2*
Y3462216D1*
X2467456Y3467025D1*
X2465080Y3469401D1*
X2460271Y3471778D1*
X2450710D1*
X2445956Y3469401D1*
X2443580Y3467025D1*
X2441148Y3462216D1*
Y3457463D1*
X2443580Y3452654D1*
X2448333Y3445525D1*
X2472265Y3421593D1*
X2438771D1*
X8507098Y2798490D2*
D22*
Y2758298D1*
X8480303Y2798490D2*
X8507098Y2771695D1*
X8497548Y2781290D2*
X8480303Y2758298D1*
X8349818Y2818683D2*
D116*
Y2768443D1*
X8333072D1*
X8325887Y2770875D1*
X8321078Y2775628D1*
X8318702Y2780437D1*
X8316325Y2787567D1*
Y2799560D1*
X8318702Y2806745D1*
X8321078Y2811498D1*
X8325887Y2816307D1*
X8333072Y2818683D1*
X8349818D1*
X8276954Y2768443D2*
Y2818628D1*
X8300886Y2785190D1*
X8265016D1*
X8249577Y2809066D2*
X8244768Y2811498D1*
X8237583Y2818628D1*
Y2768443D1*
X6357098Y3466207D2*
D22*
Y3426015D1*
X6330303Y3466207D2*
X6357098Y3439412D1*
X6347548Y3449007D2*
X6330303Y3426015D1*
X6109352Y3471833D2*
D116*
Y3421593D1*
X6092606D1*
X6085421Y3424025D1*
X6080612Y3428778D1*
X6078236Y3433586D1*
X6075859Y3440716D1*
Y3452710D1*
X6078236Y3459895D1*
X6080612Y3464648D1*
X6085421Y3469456D1*
X6092606Y3471833D1*
X6109352D1*
X6057988Y3459839D2*
Y3462216D1*
X6055611Y3467025D1*
X6053235Y3469401D1*
X6048426Y3471778D1*
X6038865D1*
X6034112Y3469401D1*
X6031735Y3467025D1*
X6029303Y3462216D1*
Y3457463D1*
X6031735Y3452654D1*
X6036488Y3445525D1*
X6060420Y3421593D1*
X6026926D1*
X5999549Y3471778D2*
X6006679Y3469401D1*
X6009111Y3464648D1*
Y3459839D1*
X6006679Y3455086D1*
X6001926Y3452654D1*
X5992364Y3450278D1*
X5985179Y3447901D1*
X5980426Y3443093D1*
X5978049Y3438340D1*
Y3431155D1*
X5980426Y3426401D1*
X5982802Y3423970D1*
X5989987Y3421593D1*
X5999549D1*
X6006679Y3423970D1*
X6009111Y3426401D1*
X6011487Y3431155D1*
Y3438340D1*
X6009111Y3443093D1*
X6004302Y3447901D1*
X5997172Y3450278D1*
X5987611Y3452654D1*
X5982802Y3455086D1*
X5980426Y3459839D1*
Y3464648D1*
X5982802Y3469401D1*
X5989987Y3471778D1*
X5999549D1*
X7757098Y2798490D2*
D22*
Y2758298D1*
X7730303Y2798490D2*
X7757098Y2771695D1*
X7747548Y2781290D2*
X7730303Y2758298D1*
X7609380Y2818683D2*
D116*
Y2768443D1*
X7592633D1*
X7585448Y2770875D1*
X7580640Y2775628D1*
X7578263Y2780437D1*
X7575887Y2787567D1*
Y2799560D1*
X7578263Y2806745D1*
X7580640Y2811498D1*
X7585448Y2816307D1*
X7592633Y2818683D1*
X7609380D1*
X7555639Y2818628D2*
X7529386D1*
X7543701Y2799505D1*
X7536516D1*
X7531763Y2797128D1*
X7529386Y2794752D1*
X7526954Y2787567D1*
Y2782813D1*
X7529386Y2775628D1*
X7534139Y2770820D1*
X7541324Y2768443D1*
X7548509D1*
X7555639Y2770820D1*
X7558016Y2773252D1*
X7560447Y2778005D1*
X7501953Y2768443D2*
X7478022Y2818628D1*
X7511515D1*
X4957098Y2798490D2*
D22*
Y2758298D1*
X4930303Y2798490D2*
X4957098Y2771695D1*
X4947548Y2781290D2*
X4930303Y2758298D1*
X4809380Y2818683D2*
D116*
Y2768443D1*
X4792633D1*
X4785448Y2770875D1*
X4780640Y2775628D1*
X4778263Y2780437D1*
X4775887Y2787567D1*
Y2799560D1*
X4778263Y2806745D1*
X4780640Y2811498D1*
X4785448Y2816307D1*
X4792633Y2818683D1*
X4809380D1*
X4758016Y2806690D2*
Y2809066D1*
X4755639Y2813875D1*
X4753262Y2816252D1*
X4748454Y2818628D1*
X4738892D1*
X4734139Y2816252D1*
X4731763Y2813875D1*
X4729331Y2809066D1*
Y2804313D1*
X4731763Y2799505D1*
X4736516Y2792375D1*
X4760447Y2768443D1*
X4726954D1*
X4682830Y2818628D2*
X4706706D1*
X4709083Y2797128D1*
X4706706Y2799505D1*
X4699521Y2801937D1*
X4692392D1*
X4685207Y2799505D1*
X4680398Y2794752D1*
X4678022Y2787567D1*
Y2782813D1*
X4680398Y2775628D1*
X4685207Y2770820D1*
X4692392Y2768443D1*
X4699521D1*
X4706706Y2770820D1*
X4709083Y2773252D1*
X4711515Y2778005D1*
X7857098Y3466207D2*
D22*
Y3426015D1*
X7830303Y3466207D2*
X7857098Y3439412D1*
X7847548Y3449007D2*
X7830303Y3426015D1*
X7608164Y3471833D2*
D116*
Y3421593D1*
X7591417D1*
X7584232Y3424025D1*
X7579424Y3428778D1*
X7577047Y3433586D1*
X7574671Y3440716D1*
Y3452710D1*
X7577047Y3459895D1*
X7579424Y3464648D1*
X7584232Y3469456D1*
X7591417Y3471833D1*
X7608164D1*
X7554423Y3471778D2*
X7528170D1*
X7542485Y3452654D1*
X7535300D1*
X7530547Y3450278D1*
X7528170Y3447901D1*
X7525738Y3440716D1*
Y3435963D1*
X7528170Y3428778D1*
X7532923Y3423970D1*
X7540108Y3421593D1*
X7547293D1*
X7554423Y3423970D1*
X7556800Y3426401D1*
X7559232Y3431155D1*
X7481614Y3464648D2*
X7483991Y3469401D1*
X7491176Y3471778D1*
X7495929D1*
X7503114Y3469401D1*
X7507922Y3462216D1*
X7510299Y3450278D1*
Y3438340D1*
X7507922Y3428778D1*
X7503114Y3423970D1*
X7495929Y3421593D1*
X7493552D1*
X7486423Y3423970D1*
X7481614Y3428778D1*
X7479237Y3435963D1*
Y3438340D1*
X7481614Y3445525D1*
X7486423Y3450278D1*
X7493552Y3452654D1*
X7495929D1*
X7503114Y3450278D1*
X7507922Y3445525D1*
X7510299Y3438340D1*
X5057098Y3466207D2*
D22*
Y3426015D1*
X5030303Y3466207D2*
X5057098Y3439412D1*
X5047548Y3449007D2*
X5030303Y3426015D1*
X4810568Y3471833D2*
D116*
Y3421593D1*
X4793822D1*
X4786637Y3424025D1*
X4781828Y3428778D1*
X4779452Y3433586D1*
X4777075Y3440716D1*
Y3452710D1*
X4779452Y3459895D1*
X4781828Y3464648D1*
X4786637Y3469456D1*
X4793822Y3471833D1*
X4810568D1*
X4759204Y3459839D2*
Y3462216D1*
X4756827Y3467025D1*
X4754451Y3469401D1*
X4749642Y3471778D1*
X4740081D1*
X4735327Y3469401D1*
X4732951Y3467025D1*
X4730519Y3462216D1*
Y3457463D1*
X4732951Y3452654D1*
X4737704Y3445525D1*
X4761636Y3421593D1*
X4728142D1*
X4688771D2*
Y3471778D1*
X4712703Y3438340D1*
X4676833D1*
X8507098Y2048490D2*
D22*
Y2008298D1*
X8480303Y2048490D2*
X8507098Y2021695D1*
X8497548Y2031290D2*
X8480303Y2008298D1*
X8360568Y2068683D2*
D116*
Y2018443D1*
X8343822D1*
X8336637Y2020875D1*
X8331828Y2025628D1*
X8329452Y2030437D1*
X8327075Y2037567D1*
Y2049560D1*
X8329452Y2056745D1*
X8331828Y2061498D1*
X8336637Y2066307D1*
X8343822Y2068683D1*
X8360568D1*
X8287704Y2018443D2*
Y2068628D1*
X8311636Y2035190D1*
X8275766D1*
X8257895Y2056690D2*
Y2059066D1*
X8255518Y2063875D1*
X8253142Y2066252D1*
X8248333Y2068628D1*
X8238771D1*
X8234018Y2066252D1*
X8231642Y2063875D1*
X8229210Y2059066D1*
Y2054313D1*
X8231642Y2049505D1*
X8236395Y2042375D1*
X8260327Y2018443D1*
X8226833D1*
X8507098Y1298490D2*
D22*
Y1258298D1*
X8480303Y1298490D2*
X8507098Y1271695D1*
X8497548Y1281290D2*
X8480303Y1258298D1*
X8360568Y1318683D2*
D116*
Y1268443D1*
X8343822D1*
X8336637Y1270875D1*
X8331828Y1275628D1*
X8329452Y1280437D1*
X8327075Y1287567D1*
Y1299560D1*
X8329452Y1306745D1*
X8331828Y1311498D1*
X8336637Y1316307D1*
X8343822Y1318683D1*
X8360568D1*
X8287704Y1268443D2*
Y1318628D1*
X8311636Y1285190D1*
X8275766D1*
X8255518Y1318628D2*
X8229265D1*
X8243580Y1299505D1*
X8236395D1*
X8231642Y1297128D1*
X8229265Y1294752D1*
X8226833Y1287567D1*
Y1282813D1*
X8229265Y1275628D1*
X8234018Y1270820D1*
X8241203Y1268443D1*
X8248388D1*
X8255518Y1270820D1*
X8257895Y1273252D1*
X8260327Y1278005D1*
X3457098Y2798490D2*
D22*
Y2758298D1*
X3430303Y2798490D2*
X3457098Y2771695D1*
X3447548Y2781290D2*
X3430303Y2758298D1*
X3298630Y2818683D2*
D116*
Y2768443D1*
X3281883D1*
X3274698Y2770875D1*
X3269890Y2775628D1*
X3267513Y2780437D1*
X3265137Y2787567D1*
Y2799560D1*
X3267513Y2806745D1*
X3269890Y2811498D1*
X3274698Y2816307D1*
X3281883Y2818683D1*
X3298630D1*
X3249698Y2809066D2*
X3244889Y2811498D1*
X3237704Y2818628D1*
Y2768443D1*
X3212703D2*
X3188771Y2818628D1*
X3222265D1*
X4207098Y1298490D2*
D22*
Y1258298D1*
X4180303Y1298490D2*
X4207098Y1271695D1*
X4197548Y1281290D2*
X4180303Y1258298D1*
X4059380Y1318683D2*
D116*
Y1268443D1*
X4042633D1*
X4035448Y1270875D1*
X4030640Y1275628D1*
X4028263Y1280437D1*
X4025887Y1287567D1*
Y1299560D1*
X4028263Y1306745D1*
X4030640Y1311498D1*
X4035448Y1316307D1*
X4042633Y1318683D1*
X4059380D1*
X4008016Y1306690D2*
Y1309066D1*
X4005639Y1313875D1*
X4003262Y1316252D1*
X3998454Y1318628D1*
X3988892D1*
X3984139Y1316252D1*
X3981763Y1313875D1*
X3979331Y1309066D1*
Y1304313D1*
X3981763Y1299505D1*
X3986516Y1292375D1*
X4010447Y1268443D1*
X3976954D1*
X3956706Y1318628D2*
X3930453D1*
X3944768Y1299505D1*
X3937583D1*
X3932830Y1297128D1*
X3930453Y1294752D1*
X3928022Y1287567D1*
Y1282813D1*
X3930453Y1275628D1*
X3935207Y1270820D1*
X3942392Y1268443D1*
X3949577D1*
X3956706Y1270820D1*
X3959083Y1273252D1*
X3961515Y1278005D1*
X2707098Y2798490D2*
D22*
Y2758298D1*
X2680303Y2798490D2*
X2707098Y2771695D1*
X2697548Y2781290D2*
X2680303Y2758298D1*
X2548630Y2818683D2*
D116*
Y2768443D1*
X2531883D1*
X2524698Y2770875D1*
X2519890Y2775628D1*
X2517513Y2780437D1*
X2515137Y2787567D1*
Y2799560D1*
X2517513Y2806745D1*
X2519890Y2811498D1*
X2524698Y2816307D1*
X2531883Y2818683D1*
X2548630D1*
X2499698Y2809066D2*
X2494889Y2811498D1*
X2487704Y2818628D1*
Y2768443D1*
X2467456Y2818628D2*
X2441203D1*
X2455518Y2799505D1*
X2448333D1*
X2443580Y2797128D1*
X2441203Y2794752D1*
X2438771Y2787567D1*
Y2782813D1*
X2441203Y2775628D1*
X2445956Y2770820D1*
X2453142Y2768443D1*
X2460327D1*
X2467456Y2770820D1*
X2469833Y2773252D1*
X2472265Y2778005D1*
X6257098Y1298490D2*
D22*
Y1258298D1*
X6230303Y1298490D2*
X6257098Y1271695D1*
X6247548Y1281290D2*
X6230303Y1258298D1*
X6098630Y1318683D2*
D116*
Y1268443D1*
X6081883D1*
X6074698Y1270875D1*
X6069890Y1275628D1*
X6067513Y1280437D1*
X6065137Y1287567D1*
Y1299560D1*
X6067513Y1306745D1*
X6069890Y1311498D1*
X6074698Y1316307D1*
X6081883Y1318683D1*
X6098630D1*
X6044889Y1318628D2*
X6018636D1*
X6032951Y1299505D1*
X6025766D1*
X6021013Y1297128D1*
X6018636Y1294752D1*
X6016204Y1287567D1*
Y1282813D1*
X6018636Y1275628D1*
X6023389Y1270820D1*
X6030574Y1268443D1*
X6037759D1*
X6044889Y1270820D1*
X6047266Y1273252D1*
X6049698Y1278005D1*
X6000765Y1309066D2*
X5995956Y1311498D1*
X5988771Y1318628D1*
Y1268443D1*
X1957098Y2048490D2*
D22*
Y2008298D1*
X1930303Y2048490D2*
X1957098Y2021695D1*
X1947548Y2031290D2*
X1930303Y2008298D1*
X1798630Y2068683D2*
D116*
Y2018443D1*
X1781883D1*
X1774698Y2020875D1*
X1769890Y2025628D1*
X1767513Y2030437D1*
X1765137Y2037567D1*
Y2049560D1*
X1767513Y2056745D1*
X1769890Y2061498D1*
X1774698Y2066307D1*
X1781883Y2068683D1*
X1798630D1*
X1749698Y2059066D2*
X1744889Y2061498D1*
X1737704Y2068628D1*
Y2018443D1*
X1707895Y2068628D2*
X1715080Y2066252D1*
X1719888Y2059066D1*
X1722265Y2047128D1*
Y2039943D1*
X1719888Y2028005D1*
X1715080Y2020820D1*
X1707895Y2018443D1*
X1703142D1*
X1695956Y2020820D1*
X1691203Y2028005D1*
X1688771Y2039943D1*
Y2047128D1*
X1691203Y2059066D1*
X1695956Y2066252D1*
X1703142Y2068628D1*
X1707895D1*
X1691203Y2059066D2*
X1719888Y2028005D1*
X1207098Y1298490D2*
D22*
Y1258298D1*
X1180303Y1298490D2*
X1207098Y1271695D1*
X1197548Y1281290D2*
X1180303Y1258298D1*
X1034914Y1318683D2*
D116*
Y1268443D1*
X1018167D1*
X1010982Y1270875D1*
X1006174Y1275628D1*
X1003797Y1280437D1*
X1001420Y1287567D1*
Y1299560D1*
X1003797Y1306745D1*
X1006174Y1311498D1*
X1010982Y1316307D1*
X1018167Y1318683D1*
X1034914D1*
X976420Y1268443D2*
X952488Y1318628D1*
X985981D1*
X3457098Y2048490D2*
D22*
Y2008298D1*
X3430303Y2048490D2*
X3457098Y2021695D1*
X3447548Y2031290D2*
X3430303Y2008298D1*
X3298602Y2068683D2*
D116*
Y2018443D1*
X3281856D1*
X3274671Y2020875D1*
X3269862Y2025628D1*
X3267486Y2030437D1*
X3265109Y2037567D1*
Y2049560D1*
X3267486Y2056745D1*
X3269862Y2061498D1*
X3274671Y2066307D1*
X3281856Y2068683D1*
X3298602D1*
X3249670Y2059066D2*
X3244861Y2061498D1*
X3237676Y2068628D1*
Y2018443D1*
X3210299Y2068628D2*
X3217429Y2066252D1*
X3219861Y2061498D1*
Y2056690D1*
X3217429Y2051937D1*
X3212676Y2049505D1*
X3203114Y2047128D1*
X3195929Y2044752D1*
X3191176Y2039943D1*
X3188799Y2035190D1*
Y2028005D1*
X3191176Y2023252D1*
X3193552Y2020820D1*
X3200737Y2018443D1*
X3210299D1*
X3217429Y2020820D1*
X3219861Y2023252D1*
X3222237Y2028005D1*
Y2035190D1*
X3219861Y2039943D1*
X3215052Y2044752D1*
X3207922Y2047128D1*
X3198361Y2049505D1*
X3193552Y2051937D1*
X3191176Y2056690D1*
Y2061498D1*
X3193552Y2066252D1*
X3200737Y2068628D1*
X3210299D1*
X8607098Y3466207D2*
D22*
Y3426015D1*
X8580303Y3466207D2*
X8607098Y3439412D1*
X8597548Y3449007D2*
X8580303Y3426015D1*
X8360568Y3471833D2*
D116*
Y3421593D1*
X8343822D1*
X8336637Y3424025D1*
X8331828Y3428778D1*
X8329452Y3433586D1*
X8327075Y3440716D1*
Y3452710D1*
X8329452Y3459895D1*
X8331828Y3464648D1*
X8336637Y3469456D1*
X8343822Y3471833D1*
X8360568D1*
X8287704Y3421593D2*
Y3471778D1*
X8311636Y3438340D1*
X8275766D1*
X8245956Y3471778D2*
X8253142Y3469401D1*
X8257950Y3462216D1*
X8260327Y3450278D1*
Y3443093D1*
X8257950Y3431155D1*
X8253142Y3423970D1*
X8245956Y3421593D1*
X8241203D1*
X8234018Y3423970D1*
X8229265Y3431155D1*
X8226833Y3443093D1*
Y3450278D1*
X8229265Y3462216D1*
X8234018Y3469401D1*
X8241203Y3471778D1*
X8245956D1*
X8229265Y3462216D2*
X8257950Y3431155D1*
X10007098Y2048490D2*
D22*
Y2008298D1*
X9980303Y2048490D2*
X10007098Y2021695D1*
X9997548Y2031290D2*
X9980303Y2008298D1*
X9859380Y2068683D2*
D116*
Y2018443D1*
X9842633D1*
X9835448Y2020875D1*
X9830640Y2025628D1*
X9828263Y2030437D1*
X9825887Y2037567D1*
Y2049560D1*
X9828263Y2056745D1*
X9830640Y2061498D1*
X9835448Y2066307D1*
X9842633Y2068683D1*
X9859380D1*
X9781763Y2068628D2*
X9805639D1*
X9808016Y2047128D1*
X9805639Y2049505D1*
X9798454Y2051937D1*
X9791324D1*
X9784139Y2049505D1*
X9779331Y2044752D1*
X9776954Y2037567D1*
Y2032813D1*
X9779331Y2025628D1*
X9784139Y2020820D1*
X9791324Y2018443D1*
X9798454D1*
X9805639Y2020820D1*
X9808016Y2023252D1*
X9810447Y2028005D1*
X9747145Y2068628D2*
X9754330Y2066252D1*
X9759138Y2059066D1*
X9761515Y2047128D1*
Y2039943D1*
X9759138Y2028005D1*
X9754330Y2020820D1*
X9747145Y2018443D1*
X9742392D1*
X9735207Y2020820D1*
X9730453Y2028005D1*
X9728022Y2039943D1*
Y2047128D1*
X9730453Y2059066D1*
X9735207Y2066252D1*
X9742392Y2068628D1*
X9747145D1*
X9730453Y2059066D2*
X9759138Y2028005D1*
X4207098Y2048490D2*
D22*
Y2008298D1*
X4180303Y2048490D2*
X4207098Y2021695D1*
X4197548Y2031290D2*
X4180303Y2008298D1*
X4059380Y2068683D2*
D116*
Y2018443D1*
X4042633D1*
X4035448Y2020875D1*
X4030640Y2025628D1*
X4028263Y2030437D1*
X4025887Y2037567D1*
Y2049560D1*
X4028263Y2056745D1*
X4030640Y2061498D1*
X4035448Y2066307D1*
X4042633Y2068683D1*
X4059380D1*
X4008016Y2056690D2*
Y2059066D1*
X4005639Y2063875D1*
X4003262Y2066252D1*
X3998454Y2068628D1*
X3988892D1*
X3984139Y2066252D1*
X3981763Y2063875D1*
X3979331Y2059066D1*
Y2054313D1*
X3981763Y2049505D1*
X3986516Y2042375D1*
X4010447Y2018443D1*
X3976954D1*
X3959083Y2056690D2*
Y2059066D1*
X3956706Y2063875D1*
X3954330Y2066252D1*
X3949521Y2068628D1*
X3939960D1*
X3935207Y2066252D1*
X3932830Y2063875D1*
X3930398Y2059066D1*
Y2054313D1*
X3932830Y2049505D1*
X3937583Y2042375D1*
X3961515Y2018443D1*
X3928022D1*
X4207098Y2798490D2*
D22*
Y2758298D1*
X4180303Y2798490D2*
X4207098Y2771695D1*
X4197548Y2781290D2*
X4180303Y2758298D1*
X4048630Y2818683D2*
D116*
Y2768443D1*
X4031883D1*
X4024698Y2770875D1*
X4019890Y2775628D1*
X4017513Y2780437D1*
X4015137Y2787567D1*
Y2799560D1*
X4017513Y2806745D1*
X4019890Y2811498D1*
X4024698Y2816307D1*
X4031883Y2818683D1*
X4048630D1*
X3997266Y2806690D2*
Y2809066D1*
X3994889Y2813875D1*
X3992512Y2816252D1*
X3987704Y2818628D1*
X3978142D1*
X3973389Y2816252D1*
X3971013Y2813875D1*
X3968581Y2809066D1*
Y2804313D1*
X3971013Y2799505D1*
X3975766Y2792375D1*
X3999698Y2768443D1*
X3966204D1*
X3950765Y2809066D2*
X3945956Y2811498D1*
X3938771Y2818628D1*
Y2768443D1*
X10107098Y3466207D2*
D22*
Y3426015D1*
X10080303Y3466207D2*
X10107098Y3439412D1*
X10097548Y3449007D2*
X10080303Y3426015D1*
X9860541Y3471833D2*
D116*
Y3421593D1*
X9843794D1*
X9836609Y3424025D1*
X9831801Y3428778D1*
X9829424Y3433586D1*
X9827047Y3440716D1*
Y3452710D1*
X9829424Y3459895D1*
X9831801Y3464648D1*
X9836609Y3469456D1*
X9843794Y3471833D1*
X9860541D1*
X9787676Y3421593D2*
Y3471778D1*
X9811608Y3438340D1*
X9775738D1*
X9748361Y3471778D2*
X9755490Y3469401D1*
X9757922Y3464648D1*
Y3459839D1*
X9755490Y3455086D1*
X9750737Y3452654D1*
X9741176Y3450278D1*
X9733991Y3447901D1*
X9729237Y3443093D1*
X9726861Y3438340D1*
Y3431155D1*
X9729237Y3426401D1*
X9731614Y3423970D1*
X9738799Y3421593D1*
X9748361D1*
X9755490Y3423970D1*
X9757922Y3426401D1*
X9760299Y3431155D1*
Y3438340D1*
X9757922Y3443093D1*
X9753114Y3447901D1*
X9745984Y3450278D1*
X9736423Y3452654D1*
X9731614Y3455086D1*
X9729237Y3459839D1*
Y3464648D1*
X9731614Y3469401D1*
X9738799Y3471778D1*
X9748361D1*
X1207098Y2798490D2*
D22*
Y2758298D1*
X1180303Y2798490D2*
X1207098Y2771695D1*
X1197548Y2781290D2*
X1180303Y2758298D1*
X1034914Y2818683D2*
D116*
Y2768443D1*
X1018167D1*
X1010982Y2770875D1*
X1006174Y2775628D1*
X1003797Y2780437D1*
X1001420Y2787567D1*
Y2799560D1*
X1003797Y2806745D1*
X1006174Y2811498D1*
X1010982Y2816307D1*
X1018167Y2818683D1*
X1034914D1*
X957296Y2818628D2*
X981173D1*
X983549Y2797128D1*
X981173Y2799505D1*
X973988Y2801937D1*
X966858D1*
X959673Y2799505D1*
X954864Y2794752D1*
X952488Y2787567D1*
Y2782813D1*
X954864Y2775628D1*
X959673Y2770820D1*
X966858Y2768443D1*
X973988D1*
X981173Y2770820D1*
X983549Y2773252D1*
X985981Y2778005D1*
X7757098Y1298490D2*
D22*
Y1258298D1*
X7730303Y1298490D2*
X7757098Y1271695D1*
X7747548Y1281290D2*
X7730303Y1258298D1*
X7608192Y1318683D2*
D116*
Y1268443D1*
X7591445D1*
X7584260Y1270875D1*
X7579452Y1275628D1*
X7577075Y1280437D1*
X7574698Y1287567D1*
Y1299560D1*
X7577075Y1306745D1*
X7579452Y1311498D1*
X7584260Y1316307D1*
X7591445Y1318683D1*
X7608192D1*
X7554451Y1318628D2*
X7528198D1*
X7542512Y1299505D1*
X7535327D1*
X7530574Y1297128D1*
X7528198Y1294752D1*
X7525766Y1287567D1*
Y1282813D1*
X7528198Y1275628D1*
X7532951Y1270820D1*
X7540136Y1268443D1*
X7547321D1*
X7554451Y1270820D1*
X7556827Y1273252D1*
X7559259Y1278005D1*
X7479210Y1301937D2*
X7481642Y1294752D1*
X7486395Y1289943D1*
X7493580Y1287567D1*
X7495956D1*
X7503142Y1289943D1*
X7507895Y1294752D1*
X7510327Y1301937D1*
Y1304313D1*
X7507895Y1311498D1*
X7503142Y1316252D1*
X7495956Y1318628D1*
X7493580D1*
X7486395Y1316252D1*
X7481642Y1311498D1*
X7479210Y1301937D1*
Y1289943D1*
X7481642Y1278005D1*
X7486395Y1270820D1*
X7493580Y1268443D1*
X7498333D1*
X7505518Y1270820D1*
X7507895Y1275628D1*
X1957098Y2798490D2*
D22*
Y2758298D1*
X1930303Y2798490D2*
X1957098Y2771695D1*
X1947548Y2781290D2*
X1930303Y2758298D1*
X1783725Y2818683D2*
D116*
Y2768443D1*
X1766979D1*
X1759794Y2770875D1*
X1754985Y2775628D1*
X1752609Y2780437D1*
X1750232Y2787567D1*
Y2799560D1*
X1752609Y2806745D1*
X1754985Y2811498D1*
X1759794Y2816307D1*
X1766979Y2818683D1*
X1783725D1*
X1703676Y2801937D2*
X1706108Y2794752D1*
X1710861Y2789943D1*
X1718046Y2787567D1*
X1720423D1*
X1727608Y2789943D1*
X1732361Y2794752D1*
X1734793Y2801937D1*
Y2804313D1*
X1732361Y2811498D1*
X1727608Y2816252D1*
X1720423Y2818628D1*
X1718046D1*
X1710861Y2816252D1*
X1706108Y2811498D1*
X1703676Y2801937D1*
Y2789943D1*
X1706108Y2778005D1*
X1710861Y2770820D1*
X1718046Y2768443D1*
X1722799D1*
X1729984Y2770820D1*
X1732361Y2775628D1*
X7007098Y1298490D2*
D22*
Y1258298D1*
X6980303Y1298490D2*
X7007098Y1271695D1*
X6997548Y1281290D2*
X6980303Y1258298D1*
X6859380Y1318683D2*
D116*
Y1268443D1*
X6842633D1*
X6835448Y1270875D1*
X6830640Y1275628D1*
X6828263Y1280437D1*
X6825887Y1287567D1*
Y1299560D1*
X6828263Y1306745D1*
X6830640Y1311498D1*
X6835448Y1316307D1*
X6842633Y1318683D1*
X6859380D1*
X6805639Y1318628D2*
X6779386D1*
X6793701Y1299505D1*
X6786516D1*
X6781763Y1297128D1*
X6779386Y1294752D1*
X6776954Y1287567D1*
Y1282813D1*
X6779386Y1275628D1*
X6784139Y1270820D1*
X6791324Y1268443D1*
X6798509D1*
X6805639Y1270820D1*
X6808016Y1273252D1*
X6810447Y1278005D1*
X6732830Y1318628D2*
X6756706D1*
X6759083Y1297128D1*
X6756706Y1299505D1*
X6749521Y1301937D1*
X6742392D1*
X6735207Y1299505D1*
X6730398Y1294752D1*
X6728022Y1287567D1*
Y1282813D1*
X6730398Y1275628D1*
X6735207Y1270820D1*
X6742392Y1268443D1*
X6749521D1*
X6756706Y1270820D1*
X6759083Y1273252D1*
X6761515Y1278005D1*
X2707098Y2048490D2*
D22*
Y2008298D1*
X2680303Y2048490D2*
X2707098Y2021695D1*
X2697548Y2031290D2*
X2680303Y2008298D1*
X2549818Y2068683D2*
D116*
Y2018443D1*
X2533072D1*
X2525887Y2020875D1*
X2521078Y2025628D1*
X2518702Y2030437D1*
X2516325Y2037567D1*
Y2049560D1*
X2518702Y2056745D1*
X2521078Y2061498D1*
X2525887Y2066307D1*
X2533072Y2068683D1*
X2549818D1*
X2500886Y2059066D2*
X2496077Y2061498D1*
X2488892Y2068628D1*
Y2018443D1*
X2449521D2*
Y2068628D1*
X2473453Y2035190D1*
X2437583D1*
X3457098Y1298490D2*
D22*
Y1258298D1*
X3430303Y1298490D2*
X3457098Y1271695D1*
X3447548Y1281290D2*
X3430303Y1258298D1*
X3297442Y1318683D2*
D116*
Y1268443D1*
X3280695D1*
X3273510Y1270875D1*
X3268702Y1275628D1*
X3266325Y1280437D1*
X3263948Y1287567D1*
Y1299560D1*
X3266325Y1306745D1*
X3268702Y1311498D1*
X3273510Y1316307D1*
X3280695Y1318683D1*
X3297442D1*
X3248509Y1309066D2*
X3243701Y1311498D1*
X3236516Y1318628D1*
Y1268443D1*
X3189960Y1301937D2*
X3192392Y1294752D1*
X3197145Y1289943D1*
X3204330Y1287567D1*
X3206706D1*
X3213891Y1289943D1*
X3218645Y1294752D1*
X3221077Y1301937D1*
Y1304313D1*
X3218645Y1311498D1*
X3213891Y1316252D1*
X3206706Y1318628D1*
X3204330D1*
X3197145Y1316252D1*
X3192392Y1311498D1*
X3189960Y1301937D1*
Y1289943D1*
X3192392Y1278005D1*
X3197145Y1270820D1*
X3204330Y1268443D1*
X3209083D1*
X3216268Y1270820D1*
X3218645Y1275628D1*
X4957098Y1298490D2*
D22*
Y1258298D1*
X4930303Y1298490D2*
X4957098Y1271695D1*
X4947548Y1281290D2*
X4930303Y1258298D1*
X4809380Y1318683D2*
D116*
Y1268443D1*
X4792633D1*
X4785448Y1270875D1*
X4780640Y1275628D1*
X4778263Y1280437D1*
X4775887Y1287567D1*
Y1299560D1*
X4778263Y1306745D1*
X4780640Y1311498D1*
X4785448Y1316307D1*
X4792633Y1318683D1*
X4809380D1*
X4758016Y1306690D2*
Y1309066D1*
X4755639Y1313875D1*
X4753262Y1316252D1*
X4748454Y1318628D1*
X4738892D1*
X4734139Y1316252D1*
X4731763Y1313875D1*
X4729331Y1309066D1*
Y1304313D1*
X4731763Y1299505D1*
X4736516Y1292375D1*
X4760447Y1268443D1*
X4726954D1*
X4701953D2*
X4678022Y1318628D1*
X4711515D1*
X1307098Y3466207D2*
D22*
Y3426015D1*
X1280303Y3466207D2*
X1307098Y3439412D1*
X1297548Y3449007D2*
X1280303Y3426015D1*
X1036102Y3471833D2*
D116*
Y3421593D1*
X1019355D1*
X1012170Y3424025D1*
X1007362Y3428778D1*
X1004985Y3433586D1*
X1002609Y3440716D1*
Y3452710D1*
X1004985Y3459895D1*
X1007362Y3464648D1*
X1012170Y3469456D1*
X1019355Y3471833D1*
X1036102D1*
X963238Y3421593D2*
Y3471778D1*
X987169Y3438340D1*
X951300D1*
X3557098Y3466207D2*
D22*
Y3426015D1*
X3530303Y3466207D2*
X3557098Y3439412D1*
X3547548Y3449007D2*
X3530303Y3426015D1*
X3297414Y3471833D2*
D116*
Y3421593D1*
X3280668D1*
X3273482Y3424025D1*
X3268674Y3428778D1*
X3266297Y3433586D1*
X3263921Y3440716D1*
Y3452710D1*
X3266297Y3459895D1*
X3268674Y3464648D1*
X3273482Y3469456D1*
X3280668Y3471833D1*
X3297414D1*
X3248482Y3462216D2*
X3243673Y3464648D1*
X3236488Y3471778D1*
Y3421593D1*
X3192364Y3464648D2*
X3194741Y3469401D1*
X3201926Y3471778D1*
X3206679D1*
X3213864Y3469401D1*
X3218672Y3462216D1*
X3221049Y3450278D1*
Y3438340D1*
X3218672Y3428778D1*
X3213864Y3423970D1*
X3206679Y3421593D1*
X3204302D1*
X3197172Y3423970D1*
X3192364Y3428778D1*
X3189987Y3435963D1*
Y3438340D1*
X3192364Y3445525D1*
X3197172Y3450278D1*
X3204302Y3452654D1*
X3206679D1*
X3213864Y3450278D1*
X3218672Y3445525D1*
X3221049Y3438340D1*
X1957098Y1298490D2*
D22*
Y1258298D1*
X1930303Y1298490D2*
X1957098Y1271695D1*
X1947548Y1281290D2*
X1930303Y1258298D1*
X1787880Y1318683D2*
D116*
Y1268443D1*
X1771134D1*
X1763948Y1270875D1*
X1759140Y1275628D1*
X1756763Y1280437D1*
X1754387Y1287567D1*
Y1299560D1*
X1756763Y1306745D1*
X1759140Y1311498D1*
X1763948Y1316307D1*
X1771134Y1318683D1*
X1787880D1*
X1738948Y1309066D2*
X1734139Y1311498D1*
X1726954Y1318628D1*
Y1268443D1*
X1711515Y1309066D2*
X1706706Y1311498D1*
X1699521Y1318628D1*
Y1268443D1*
X7107098Y3466207D2*
D22*
Y3426015D1*
X7080303Y3466207D2*
X7107098Y3439412D1*
X7097548Y3449007D2*
X7080303Y3426015D1*
X6859380Y3471833D2*
D116*
Y3421593D1*
X6842633D1*
X6835448Y3424025D1*
X6830640Y3428778D1*
X6828263Y3433586D1*
X6825887Y3440716D1*
Y3452710D1*
X6828263Y3459895D1*
X6830640Y3464648D1*
X6835448Y3469456D1*
X6842633Y3471833D1*
X6859380D1*
X6805639Y3471778D2*
X6779386D1*
X6793701Y3452654D1*
X6786516D1*
X6781763Y3450278D1*
X6779386Y3447901D1*
X6776954Y3440716D1*
Y3435963D1*
X6779386Y3428778D1*
X6784139Y3423970D1*
X6791324Y3421593D1*
X6798509D1*
X6805639Y3423970D1*
X6808016Y3426401D1*
X6810447Y3431155D1*
X6759083Y3459839D2*
Y3462216D1*
X6756706Y3467025D1*
X6754330Y3469401D1*
X6749521Y3471778D1*
X6739960D1*
X6735207Y3469401D1*
X6732830Y3467025D1*
X6730398Y3462216D1*
Y3457463D1*
X6732830Y3452654D1*
X6737583Y3445525D1*
X6761515Y3421593D1*
X6728022D1*
X7007098Y2048490D2*
D22*
Y2008298D1*
X6980303Y2048490D2*
X7007098Y2021695D1*
X6997548Y2031290D2*
X6980303Y2008298D1*
X6860568Y2068683D2*
D116*
Y2018443D1*
X6843822D1*
X6836637Y2020875D1*
X6831828Y2025628D1*
X6829452Y2030437D1*
X6827075Y2037567D1*
Y2049560D1*
X6829452Y2056745D1*
X6831828Y2061498D1*
X6836637Y2066307D1*
X6843822Y2068683D1*
X6860568D1*
X6806827Y2068628D2*
X6780574D1*
X6794889Y2049505D1*
X6787704D1*
X6782951Y2047128D1*
X6780574Y2044752D1*
X6778142Y2037567D1*
Y2032813D1*
X6780574Y2025628D1*
X6785327Y2020820D1*
X6792512Y2018443D1*
X6799698D1*
X6806827Y2020820D1*
X6809204Y2023252D1*
X6811636Y2028005D1*
X6738771Y2018443D2*
Y2068628D1*
X6762703Y2035190D1*
X6726833D1*
X9357098Y3466207D2*
D22*
Y3426015D1*
X9330303Y3466207D2*
X9357098Y3439412D1*
X9347548Y3449007D2*
X9330303Y3426015D1*
X9111757Y3471833D2*
D116*
Y3421593D1*
X9095010D1*
X9087825Y3424025D1*
X9083016Y3428778D1*
X9080640Y3433586D1*
X9078263Y3440716D1*
Y3452710D1*
X9080640Y3459895D1*
X9083016Y3464648D1*
X9087825Y3469456D1*
X9095010Y3471833D1*
X9111757D1*
X9038892Y3421593D2*
Y3471778D1*
X9062824Y3438340D1*
X9026954D1*
X8987583Y3421593D2*
Y3471778D1*
X9011515Y3438340D1*
X8975645D1*
X2057098Y3466207D2*
D22*
Y3426015D1*
X2030303Y3466207D2*
X2057098Y3439412D1*
X2047548Y3449007D2*
X2030303Y3426015D1*
X1784886Y3471833D2*
D116*
Y3421593D1*
X1768139D1*
X1760954Y3424025D1*
X1756146Y3428778D1*
X1753769Y3433586D1*
X1751393Y3440716D1*
Y3452710D1*
X1753769Y3459895D1*
X1756146Y3464648D1*
X1760954Y3469456D1*
X1768139Y3471833D1*
X1784886D1*
X1724015Y3471778D2*
X1731145Y3469401D1*
X1733577Y3464648D1*
Y3459839D1*
X1731145Y3455086D1*
X1726392Y3452654D1*
X1716830Y3450278D1*
X1709645Y3447901D1*
X1704892Y3443093D1*
X1702515Y3438340D1*
Y3431155D1*
X1704892Y3426401D1*
X1707269Y3423970D1*
X1714454Y3421593D1*
X1724015D1*
X1731145Y3423970D1*
X1733577Y3426401D1*
X1735954Y3431155D1*
Y3438340D1*
X1733577Y3443093D1*
X1728768Y3447901D1*
X1721639Y3450278D1*
X1712077Y3452654D1*
X1707269Y3455086D1*
X1704892Y3459839D1*
Y3464648D1*
X1707269Y3469401D1*
X1714454Y3471778D1*
X1724015D1*
X6257098Y2048490D2*
D22*
Y2008298D1*
X6230303Y2048490D2*
X6257098Y2021695D1*
X6247548Y2031290D2*
X6230303Y2008298D1*
X6109380Y2068683D2*
D116*
Y2018443D1*
X6092633D1*
X6085448Y2020875D1*
X6080640Y2025628D1*
X6078263Y2030437D1*
X6075887Y2037567D1*
Y2049560D1*
X6078263Y2056745D1*
X6080640Y2061498D1*
X6085448Y2066307D1*
X6092633Y2068683D1*
X6109380D1*
X6055639Y2068628D2*
X6029386D1*
X6043701Y2049505D1*
X6036516D1*
X6031763Y2047128D1*
X6029386Y2044752D1*
X6026954Y2037567D1*
Y2032813D1*
X6029386Y2025628D1*
X6034139Y2020820D1*
X6041324Y2018443D1*
X6048509D1*
X6055639Y2020820D1*
X6058016Y2023252D1*
X6060447Y2028005D1*
X5997145Y2068628D2*
X6004330Y2066252D1*
X6009138Y2059066D1*
X6011515Y2047128D1*
Y2039943D1*
X6009138Y2028005D1*
X6004330Y2020820D1*
X5997145Y2018443D1*
X5992392D1*
X5985207Y2020820D1*
X5980453Y2028005D1*
X5978022Y2039943D1*
Y2047128D1*
X5980453Y2059066D1*
X5985207Y2066252D1*
X5992392Y2068628D1*
X5997145D1*
X5980453Y2059066D2*
X6009138Y2028005D1*
X10007098Y1298490D2*
D22*
Y1258298D1*
X9980303Y1298490D2*
X10007098Y1271695D1*
X9997548Y1281290D2*
X9980303Y1258298D1*
X9848630Y1318683D2*
D116*
Y1268443D1*
X9831883D1*
X9824698Y1270875D1*
X9819890Y1275628D1*
X9817513Y1280437D1*
X9815137Y1287567D1*
Y1299560D1*
X9817513Y1306745D1*
X9819890Y1311498D1*
X9824698Y1316307D1*
X9831883Y1318683D1*
X9848630D1*
X9771013Y1318628D2*
X9794889D1*
X9797266Y1297128D1*
X9794889Y1299505D1*
X9787704Y1301937D1*
X9780574D1*
X9773389Y1299505D1*
X9768581Y1294752D1*
X9766204Y1287567D1*
Y1282813D1*
X9768581Y1275628D1*
X9773389Y1270820D1*
X9780574Y1268443D1*
X9787704D1*
X9794889Y1270820D1*
X9797266Y1273252D1*
X9799698Y1278005D1*
X9750765Y1309066D2*
X9745956Y1311498D1*
X9738771Y1318628D1*
Y1268443D1*
X10007098Y2798490D2*
D22*
Y2758298D1*
X9980303Y2798490D2*
X10007098Y2771695D1*
X9997548Y2781290D2*
X9980303Y2758298D1*
X9859380Y2818683D2*
D116*
Y2768443D1*
X9842633D1*
X9835448Y2770875D1*
X9830640Y2775628D1*
X9828263Y2780437D1*
X9825887Y2787567D1*
Y2799560D1*
X9828263Y2806745D1*
X9830640Y2811498D1*
X9835448Y2816307D1*
X9842633Y2818683D1*
X9859380D1*
X9786516Y2768443D2*
Y2818628D1*
X9810447Y2785190D1*
X9774578D1*
X9728022Y2801937D2*
X9730453Y2794752D1*
X9735207Y2789943D1*
X9742392Y2787567D1*
X9744768D1*
X9751953Y2789943D1*
X9756706Y2794752D1*
X9759138Y2801937D1*
Y2804313D1*
X9756706Y2811498D1*
X9751953Y2816252D1*
X9744768Y2818628D1*
X9742392D1*
X9735207Y2816252D1*
X9730453Y2811498D1*
X9728022Y2801937D1*
Y2789943D1*
X9730453Y2778005D1*
X9735207Y2770820D1*
X9742392Y2768443D1*
X9747145D1*
X9754330Y2770820D1*
X9756706Y2775628D1*
X9257098Y2798490D2*
D22*
Y2758298D1*
X9230303Y2798490D2*
X9257098Y2771695D1*
X9247548Y2781290D2*
X9230303Y2758298D1*
X9110568Y2818683D2*
D116*
Y2768443D1*
X9093822D1*
X9086637Y2770875D1*
X9081828Y2775628D1*
X9079452Y2780437D1*
X9077075Y2787567D1*
Y2799560D1*
X9079452Y2806745D1*
X9081828Y2811498D1*
X9086637Y2816307D1*
X9093822Y2818683D1*
X9110568D1*
X9037704Y2768443D2*
Y2818628D1*
X9061636Y2785190D1*
X9025766D1*
X8981642Y2818628D2*
X9005518D1*
X9007895Y2797128D1*
X9005518Y2799505D1*
X8998333Y2801937D1*
X8991203D1*
X8984018Y2799505D1*
X8979210Y2794752D1*
X8976833Y2787567D1*
Y2782813D1*
X8979210Y2775628D1*
X8984018Y2770820D1*
X8991203Y2768443D1*
X8998333D1*
X9005518Y2770820D1*
X9007895Y2773252D1*
X9010327Y2778005D1*
X9257098Y2048490D2*
D22*
Y2008298D1*
X9230303Y2048490D2*
X9257098Y2021695D1*
X9247548Y2031290D2*
X9230303Y2008298D1*
X9109352Y2068683D2*
D116*
Y2018443D1*
X9092606D1*
X9085421Y2020875D1*
X9080612Y2025628D1*
X9078236Y2030437D1*
X9075859Y2037567D1*
Y2049560D1*
X9078236Y2056745D1*
X9080612Y2061498D1*
X9085421Y2066307D1*
X9092606Y2068683D1*
X9109352D1*
X9036488Y2018443D2*
Y2068628D1*
X9060420Y2035190D1*
X9024550D1*
X8980426Y2061498D2*
X8982802Y2066252D1*
X8989987Y2068628D1*
X8994741D1*
X9001926Y2066252D1*
X9006734Y2059066D1*
X9009111Y2047128D1*
Y2035190D1*
X9006734Y2025628D1*
X9001926Y2020820D1*
X8994741Y2018443D1*
X8992364D1*
X8985234Y2020820D1*
X8980426Y2025628D1*
X8978049Y2032813D1*
Y2035190D1*
X8980426Y2042375D1*
X8985234Y2047128D1*
X8992364Y2049505D1*
X8994741D1*
X9001926Y2047128D1*
X9006734Y2042375D1*
X9009111Y2035190D1*
X4307098Y3466207D2*
D22*
Y3426015D1*
X4280303Y3466207D2*
X4307098Y3439412D1*
X4297548Y3449007D2*
X4280303Y3426015D1*
X4059380Y3471833D2*
D116*
Y3421593D1*
X4042633D1*
X4035448Y3424025D1*
X4030640Y3428778D1*
X4028263Y3433586D1*
X4025887Y3440716D1*
Y3452710D1*
X4028263Y3459895D1*
X4030640Y3464648D1*
X4035448Y3469456D1*
X4042633Y3471833D1*
X4059380D1*
X4008016Y3459839D2*
Y3462216D1*
X4005639Y3467025D1*
X4003262Y3469401D1*
X3998454Y3471778D1*
X3988892D1*
X3984139Y3469401D1*
X3981763Y3467025D1*
X3979331Y3462216D1*
Y3457463D1*
X3981763Y3452654D1*
X3986516Y3445525D1*
X4010447Y3421593D1*
X3976954D1*
X3947145Y3471778D2*
X3954330Y3469401D1*
X3959138Y3462216D1*
X3961515Y3450278D1*
Y3443093D1*
X3959138Y3431155D1*
X3954330Y3423970D1*
X3947145Y3421593D1*
X3942392D1*
X3935207Y3423970D1*
X3930453Y3431155D1*
X3928022Y3443093D1*
Y3450278D1*
X3930453Y3462216D1*
X3935207Y3469401D1*
X3942392Y3471778D1*
X3947145D1*
X3930453Y3462216D2*
X3959138Y3431155D1*
X2707098Y1298490D2*
D22*
Y1258298D1*
X2680303Y1298490D2*
X2707098Y1271695D1*
X2697548Y1281290D2*
X2680303Y1258298D1*
X2548630Y1318683D2*
D116*
Y1268443D1*
X2531883D1*
X2524698Y1270875D1*
X2519890Y1275628D1*
X2517513Y1280437D1*
X2515137Y1287567D1*
Y1299560D1*
X2517513Y1306745D1*
X2519890Y1311498D1*
X2524698Y1316307D1*
X2531883Y1318683D1*
X2548630D1*
X2499698Y1309066D2*
X2494889Y1311498D1*
X2487704Y1318628D1*
Y1268443D1*
X2443580Y1318628D2*
X2467456D1*
X2469833Y1297128D1*
X2467456Y1299505D1*
X2460271Y1301937D1*
X2453142D1*
X2445956Y1299505D1*
X2441148Y1294752D1*
X2438771Y1287567D1*
Y1282813D1*
X2441148Y1275628D1*
X2445956Y1270820D1*
X2453142Y1268443D1*
X2460271D1*
X2467456Y1270820D1*
X2469833Y1273252D1*
X2472265Y1278005D1*
M02*
