%TF.GenerationSoftware,Novarm,DipTrace,4.3.0.4*%
%TF.CreationDate,2023-07-28T17:08:00+01:00*%
%FSLAX26Y26*%
%MOIN*%
%TF.FileFunction,NonPlated,1,2,NPTH,Drill*%
%TF.Part,Single*%
%TA.AperFunction,MechanicalDrill*%
%ADD54C,0.067*%
%ADD55C,0.135*%
%ADD56C,0.039*%
G75*
G01*
D54*
X3027165Y1593307D3*
D55*
X3243701D3*
D56*
X3449213Y1758661D3*
D54*
X3460236Y1593307D3*
X8077165Y843307D3*
D55*
X8293701D3*
D56*
X8499213Y1008661D3*
D54*
X8510236Y843307D3*
X3027165Y2343307D3*
D55*
X3243701D3*
D56*
X3449213Y2508661D3*
D54*
X3460236Y2343307D3*
X3777165D3*
D55*
X3993701D3*
D56*
X4199213Y2508661D3*
D54*
X4210236Y2343307D3*
X7327165Y3093307D3*
D55*
X7543701D3*
D56*
X7749213Y3258661D3*
D54*
X7760236Y3093307D3*
X8827165Y1593307D3*
D55*
X9043701D3*
D56*
X9249213Y1758661D3*
D54*
X9260236Y1593307D3*
X7327165D3*
D55*
X7543701D3*
D56*
X7749213Y1758661D3*
D54*
X7760236Y1593307D3*
X4527165D3*
D55*
X4743701D3*
D56*
X4949213Y1758661D3*
D54*
X4960236Y1593307D3*
X3027165Y3093307D3*
D55*
X3243701D3*
D56*
X3449213Y3258661D3*
D54*
X3460236Y3093307D3*
X7327165Y2343307D3*
D55*
X7543701D3*
D56*
X7749213Y2508661D3*
D54*
X7760236Y2343307D3*
X9577165D3*
D55*
X9793701D3*
D56*
X9999213Y2508661D3*
D54*
X10010236Y2343307D3*
X5827165Y1593307D3*
D55*
X6043701D3*
D56*
X6249213Y1758661D3*
D54*
X6260236Y1593307D3*
X3777165D3*
D55*
X3993701D3*
D56*
X4199213Y1758661D3*
D54*
X4210236Y1593307D3*
X3777165Y843307D3*
D55*
X3993701D3*
D56*
X4199213Y1008661D3*
D54*
X4210236Y843307D3*
X1527165Y3093307D3*
D55*
X1743701D3*
D56*
X1949213Y3258661D3*
D54*
X1960236Y3093307D3*
X8077165Y1593307D3*
D55*
X8293701D3*
D56*
X8499213Y1758661D3*
D54*
X8510236Y1593307D3*
X8827165Y3093307D3*
D55*
X9043701D3*
D56*
X9249213Y3258661D3*
D54*
X9260236Y3093307D3*
X1527165Y843307D3*
D55*
X1743701D3*
D56*
X1949213Y1008661D3*
D54*
X1960236Y843307D3*
X5827165Y3093307D3*
D55*
X6043701D3*
D56*
X6249213Y3258661D3*
D54*
X6260236Y3093307D3*
X6577165D3*
D55*
X6793701D3*
D56*
X6999213Y3258661D3*
D54*
X7010236Y3093307D3*
X4527165D3*
D55*
X4743701D3*
D56*
X4949213Y3258661D3*
D54*
X4960236Y3093307D3*
X8827165Y2343307D3*
D55*
X9043701D3*
D56*
X9249213Y2508661D3*
D54*
X9260236Y2343307D3*
X1527165D3*
D55*
X1743701D3*
D56*
X1949213Y2508661D3*
D54*
X1960236Y2343307D3*
X1527165Y1593307D3*
D55*
X1743701D3*
D56*
X1949213Y1758661D3*
D54*
X1960236Y1593307D3*
X8827165Y843307D3*
D55*
X9043701D3*
D56*
X9249213Y1008661D3*
D54*
X9260236Y843307D3*
X2277165Y3093307D3*
D55*
X2493701D3*
D56*
X2699213Y3258661D3*
D54*
X2710236Y3093307D3*
X3027165Y843307D3*
D55*
X3243701D3*
D56*
X3449213Y1008661D3*
D54*
X3460236Y843307D3*
X4527165D3*
D55*
X4743701D3*
D56*
X4949213Y1008661D3*
D54*
X4960236Y843307D3*
X2277165Y1593307D3*
D55*
X2493701D3*
D56*
X2699213Y1758661D3*
D54*
X2710236Y1593307D3*
X8077165Y3093307D3*
D55*
X8293701D3*
D56*
X8499213Y3258661D3*
D54*
X8510236Y3093307D3*
X9577165Y843307D3*
D55*
X9793701D3*
D56*
X9999213Y1008661D3*
D54*
X10010236Y843307D3*
X777165Y1593307D3*
D55*
X993701D3*
D56*
X1199213Y1758661D3*
D54*
X1210236Y1593307D3*
X4527165Y2343307D3*
D55*
X4743701D3*
D56*
X4949213Y2508661D3*
D54*
X4960236Y2343307D3*
X6577165Y1593307D3*
D55*
X6793701D3*
D56*
X6999213Y1758661D3*
D54*
X7010236Y1593307D3*
X6577165Y843307D3*
D55*
X6793701D3*
D56*
X6999213Y1008661D3*
D54*
X7010236Y843307D3*
X5827165D3*
D55*
X6043701D3*
D56*
X6249213Y1008661D3*
D54*
X6260236Y843307D3*
X777165Y3093307D3*
D55*
X993701D3*
D56*
X1199213Y3258661D3*
D54*
X1210236Y3093307D3*
X8077165Y2343307D3*
D55*
X8293701D3*
D56*
X8499213Y2508661D3*
D54*
X8510236Y2343307D3*
X7327165Y843307D3*
D55*
X7543701D3*
D56*
X7749213Y1008661D3*
D54*
X7760236Y843307D3*
X5827165Y2343307D3*
D55*
X6043701D3*
D56*
X6249213Y2508661D3*
D54*
X6260236Y2343307D3*
X3777165Y3093307D3*
D55*
X3993701D3*
D56*
X4199213Y3258661D3*
D54*
X4210236Y3093307D3*
X2277165Y2343307D3*
D55*
X2493701D3*
D56*
X2699213Y2508661D3*
D54*
X2710236Y2343307D3*
X2277165Y843307D3*
D55*
X2493701D3*
D56*
X2699213Y1008661D3*
D54*
X2710236Y843307D3*
X9577165Y1593307D3*
D55*
X9793701D3*
D56*
X9999213Y1758661D3*
D54*
X10010236Y1593307D3*
X9577165Y3093307D3*
D55*
X9793701D3*
D56*
X9999213Y3258661D3*
D54*
X10010236Y3093307D3*
X777165Y2343307D3*
D55*
X993701D3*
D56*
X1199213Y2508661D3*
D54*
X1210236Y2343307D3*
X777165Y843307D3*
D55*
X993701D3*
D56*
X1199213Y1008661D3*
D54*
X1210236Y843307D3*
X6577165Y2343307D3*
D55*
X6793701D3*
D56*
X6999213Y2508661D3*
D54*
X7010236Y2343307D3*
M02*
