M48
INCH
T01C0.0191
T02C0.0197
T03C0.0276
T04C0.0295
T05C0.0315
T06C0.0354
T07C0.039
T08C0.0394
T09C0.0433
T10C0.05
T11C0.0512
T12C0.067
T13C0.0787
T14C0.135
%
T01
X+074780Y+047013
X+072708Y+043741
X+071704Y+041361
X+076890Y+038095
X+077370Y+037616
X+080163Y+048982
X+081109Y+049888
X+079026Y+052961
X+077539Y+052435
X+075809Y+053479
X+075420Y+055029
X+074515Y+055866
X+075302Y+056866
X+077350Y+057550
X+077828Y+057186
X+077828Y+055868
X+074197Y+053868
X+070370Y+054711
X+072331Y+057866
X+072847Y+058925
X+072416Y+060198
X+074197Y+059243
X+077058Y+062447
X+077526Y+061969
X+076740Y+063550
X+079186Y+060435
X+083526Y+054550
X+085344Y+055868
X+090484Y+055324
X+090437Y+059050
X+088161Y+048868
X+065327Y+054276
X+063113Y+056368
X+060937Y+052803
X+063431Y+048504
X+059937Y+040390
X+055288Y+041997
X+054324Y+041935
X+050499Y+042430
X+047184Y+041368
X+045370Y+042909
X+041188Y+042937
X+039370Y+043370
X+036531Y+045070
X+037870Y+046961
X+037009Y+047800
X+036531Y+047800
X+034891Y+048504
X+034891Y+050052
X+036843Y+051937
X+034573Y+055370
X+034573Y+056731
X+033937Y+057052
X+033531Y+056255
X+031390Y+055370
X+029935Y+055413
X+029149Y+054688
X+030390Y+053937
X+029467Y+051846
X+030581Y+051167
X+030899Y+050688
X+030581Y+048944
X+031217Y+048465
X+030263Y+046052
X+026937Y+044594
X+024980Y+045070
X+024344Y+045070
X+024980Y+047937
X+022338Y+050020
X+021547Y+049265
X+019869Y+048370
X+020107Y+046688
X+019154Y+046688
X+017855Y+048370
X+016690Y+049688
X+016369Y+046937
X+014339Y+044752
X+018255Y+043370
X+018702Y+039202
X+009120Y+045070
X+011459Y+048370
X+013004Y+050539
X+016524Y+053370
X+018029Y+053046
X+019472Y+054609
X+022169Y+055413
X+022841Y+056937
X+021533Y+057370
X+024203Y+055937
X+024344Y+054688
X+026186Y+055937
X+025315Y+057370
X+025315Y+058688
X+024839Y+060390
X+023002Y+061390
X+024521Y+062688
X+026957Y+063485
X+027688Y+063643
X+028467Y+062688
X+029390Y+061528
X+027688Y+061390
X+031060Y+062688
X+030937Y+063324
X+032409Y+063987
X+033390Y+064003
X+032937Y+063006
X+034255Y+060937
X+033937Y+059937
X+035052Y+059528
X+039303Y+059846
X+041336Y+060183
X+042693Y+060164
X+043011Y+060619
X+044437Y+061528
X+045528Y+059846
X+044389Y+057368
X+044937Y+056889
X+047820Y+057686
X+050504Y+058617
X+052861Y+057368
X+051528Y+062370
X+048850Y+063006
X+048296Y+061186
X+041680Y+061937
X+038991Y+064067
X+038512Y+063748
X+035484Y+064890
X+025550Y+065390
X+016664Y+064688
X+018048Y+058744
X+018029Y+058265
X+015871Y+057941
X+016031Y+054941
X+022169Y+053046
X+022472Y+051370
X+027688Y+055094
X+041031Y+055935
X+042727Y+054368
X+041680Y+051708
X+041680Y+050370
X+042850Y+049413
X+041400Y+047279
X+043000Y+046643
X+048139Y+047800
X+049384Y+048118
X+050181Y+046324
X+049702Y+046006
X+048508Y+045688
X+053361Y+046961
X+054006Y+051591
X+051357Y+052388
X+047502Y+038371
X+050233Y+021000
X+048410Y+017064
X+046188Y+015120
X+050776Y+012163
X+051094Y+011366
X+055437Y+012642
X+054861Y+016866
X+054861Y+020866
X+068910Y+019200
X+068910Y+013610
X+075437Y+019200
X+081964Y+019200
X+081964Y+013610
X+089385Y+019506
X+068390Y+064004
X+062794Y+061969
X+038967Y+019666
X+008335Y+053504
X+008499Y+059661
T02
X+070559Y+058610
X+071307Y+058610
T03
X+069780Y+048937
X+068780Y+048937
X+067780Y+048937
X+067780Y+051937
X+068780Y+051937
X+069780Y+051937
X+070780Y+051937
X+071780Y+051937
X+071780Y+048937
X+070780Y+048937
X+072937Y+062937
X+072937Y+063937
X+075937Y+063937
X+075937Y+062937
X+088437Y+060437
X+088437Y+057437
X+088437Y+055437
X+088437Y+052437
X+096937Y+052937
X+096937Y+053937
X+096937Y+050437
X+096937Y+049437
X+055937Y+013433
X+054937Y+013433
T04
X+090937Y+060937
X+091437Y+061437
X+091937Y+060937
X+066937Y+045937
X+066437Y+045937
X+065937Y+045937
T05
X+082437Y+042937
X+082437Y+041937
X+082437Y+040937
X+082437Y+039937
X+082437Y+038937
X+082437Y+037937
X+082437Y+036937
X+085437Y+036937
X+085437Y+037937
X+085437Y+038937
X+085437Y+039937
X+085437Y+040937
X+085437Y+041937
X+085437Y+042937
X+086937Y+045437
X+088315Y+045437
X+084435Y+046435
X+084435Y+047435
X+084435Y+048435
X+084435Y+049435
X+084435Y+050435
X+084435Y+051435
X+084435Y+052435
X+084435Y+053435
X+084435Y+054435
X+084435Y+055435
X+084435Y+056435
X+084435Y+057435
X+084435Y+058435
X+084435Y+059435
X+084435Y+060435
X+084435Y+061435
X+084435Y+062435
X+084435Y+063435
X+084435Y+064435
X+084435Y+065435
X+078435Y+065435
X+078435Y+064435
X+078435Y+063435
X+078435Y+062435
X+078435Y+061435
X+078435Y+060435
X+078435Y+059435
X+078435Y+058435
X+078435Y+057435
X+078435Y+056435
X+078435Y+055435
X+078435Y+054435
X+078435Y+053435
X+078435Y+052435
X+078435Y+051435
X+078435Y+050435
X+078435Y+049435
X+078435Y+048435
X+078435Y+047435
X+078435Y+046435
X+077937Y+042937
X+076937Y+042937
X+075937Y+042937
X+074937Y+042937
X+073937Y+042937
X+072937Y+042937
X+071937Y+042937
X+070937Y+042937
X+069937Y+042937
X+068937Y+042937
X+067937Y+042937
X+066937Y+042937
X+065937Y+042937
X+062437Y+042937
X+061437Y+042937
X+060437Y+042937
X+059437Y+042937
X+058437Y+042937
X+057437Y+042937
X+056437Y+042937
X+056437Y+039937
X+057437Y+039937
X+058437Y+039937
X+059437Y+039937
X+060437Y+039937
X+061437Y+039937
X+062437Y+039937
X+065937Y+036937
X+066937Y+036937
X+067937Y+036937
X+068937Y+036937
X+069937Y+036937
X+070937Y+036937
X+071937Y+036937
X+072937Y+036937
X+073937Y+036937
X+074937Y+036937
X+075937Y+036937
X+076937Y+036937
X+077937Y+036937
X+078937Y+036937
X+076890Y+039937
X+078937Y+042937
X+071890Y+039937
X+072780Y+051937
X+073764Y+051937
X+074780Y+051937
X+075764Y+051937
X+076441Y+055433
X+076441Y+056433
X+076441Y+057433
X+076441Y+058433
X+073441Y+058433
X+073441Y+057433
X+073441Y+056433
X+073441Y+055433
X+068941Y+055433
X+068941Y+056433
X+068941Y+057433
X+068941Y+058433
X+065941Y+058433
X+065941Y+057433
X+065941Y+056433
X+065941Y+055433
X+052441Y+054935
X+052441Y+053935
X+052441Y+052935
X+052441Y+051935
X+052441Y+050935
X+052441Y+049935
X+049441Y+049935
X+049441Y+050935
X+049441Y+051935
X+049441Y+052935
X+049441Y+053935
X+049441Y+054935
X+049441Y+055935
X+049441Y+056935
X+049441Y+057935
X+049441Y+058935
X+050937Y+057937
X+052441Y+057935
X+052441Y+056935
X+052441Y+055935
X+052441Y+058935
X+046441Y+058935
X+046441Y+057935
X+046441Y+056935
X+046441Y+055935
X+046441Y+054935
X+046441Y+053935
X+046441Y+052935
X+046441Y+051935
X+046441Y+050935
X+046441Y+049935
X+043441Y+049935
X+043441Y+050935
X+043441Y+051935
X+043441Y+052935
X+043441Y+053935
X+043441Y+054935
X+043441Y+055935
X+043441Y+056935
X+043441Y+057935
X+043441Y+058935
X+044937Y+057937
X+040437Y+057937
X+040437Y+056937
X+040437Y+055937
X+040437Y+054937
X+040437Y+053937
X+040437Y+052937
X+040437Y+051937
X+040437Y+050937
X+040437Y+049937
X+037437Y+049937
X+037437Y+050937
X+037437Y+051937
X+037437Y+052937
X+037437Y+053937
X+037437Y+054937
X+037437Y+055937
X+037437Y+056937
X+037437Y+057937
X+037437Y+058937
X+038937Y+057937
X+040437Y+058937
X+040437Y+064437
X+041815Y+064437
X+044437Y+064437
X+045437Y+063437
X+045437Y+065437
X+044937Y+052937
X+038937Y+052937
X+032937Y+052937
X+032937Y+051937
X+032937Y+050937
X+032937Y+049937
X+032937Y+048937
X+032937Y+047937
X+032937Y+046937
X+032937Y+045937
X+037437Y+044937
X+037437Y+043937
X+037437Y+042937
X+037437Y+041937
X+037437Y+040937
X+037437Y+039937
X+037437Y+038937
X+038937Y+039437
X+040437Y+039937
X+040437Y+038937
X+040437Y+040937
X+040437Y+041937
X+040437Y+042937
X+040437Y+043937
X+040437Y+044937
X+038937Y+044437
X+043433Y+044935
X+043433Y+043935
X+043433Y+042935
X+043433Y+041935
X+043433Y+040935
X+043433Y+039935
X+043433Y+038935
X+044937Y+039437
X+046433Y+039935
X+046433Y+038935
X+046433Y+040935
X+046433Y+041935
X+046433Y+042935
X+046433Y+043935
X+046433Y+044935
X+044937Y+044437
X+049433Y+044935
X+049433Y+043935
X+049433Y+042935
X+049433Y+041935
X+049433Y+040935
X+049433Y+039935
X+049433Y+038935
X+049433Y+037935
X+050937Y+039437
X+052433Y+039935
X+052433Y+040935
X+052433Y+041935
X+052433Y+042935
X+052433Y+043935
X+052433Y+044935
X+050937Y+044437
X+052433Y+038935
X+052433Y+037935
X+052437Y+029433
X+052437Y+028433
X+052437Y+027433
X+052437Y+026433
X+052437Y+025433
X+052437Y+024433
X+052437Y+023433
X+052437Y+022433
X+052437Y+021433
X+052437Y+020433
X+052437Y+019433
X+052437Y+018433
X+052437Y+017433
X+052437Y+016433
X+055437Y+016433
X+055437Y+017433
X+055437Y+018433
X+055437Y+019433
X+055437Y+020433
X+055437Y+021433
X+055437Y+022433
X+055437Y+023433
X+055437Y+024433
X+055437Y+025433
X+055437Y+026433
X+055437Y+027433
X+055437Y+028433
X+055437Y+029433
X+052921Y+013433
X+051937Y+013433
X+051937Y+010933
X+052921Y+010933
X+054937Y+010933
X+055921Y+010933
X+054894Y+008433
X+052972Y+008433
X+022937Y+040937
X+021937Y+040937
X+020937Y+040937
X+019937Y+040937
X+018937Y+040937
X+017937Y+040937
X+017435Y+045937
X+017435Y+046937
X+017435Y+047937
X+017435Y+048937
X+017435Y+049937
X+017435Y+050937
X+017435Y+051937
X+017435Y+052937
X+017435Y+053937
X+017435Y+054937
X+017435Y+055937
X+017435Y+056937
X+017435Y+057937
X+017435Y+058937
X+017435Y+059937
X+017435Y+060937
X+017435Y+061937
X+017435Y+062937
X+017435Y+063937
X+017435Y+064937
X+013445Y+064441
X+008445Y+064441
X+023435Y+064937
X+023435Y+063937
X+023435Y+062937
X+023435Y+061937
X+023435Y+060937
X+023435Y+059937
X+023435Y+058937
X+023435Y+057937
X+023435Y+056937
X+023435Y+055937
X+023435Y+054937
X+023435Y+053937
X+023435Y+052937
X+023435Y+051937
X+023435Y+050937
X+023435Y+049937
X+023435Y+048937
X+023435Y+047937
X+023435Y+046937
X+023435Y+045937
X+026937Y+045937
X+026937Y+046937
X+026937Y+047937
X+026937Y+048937
X+026937Y+049937
X+026937Y+050937
X+026937Y+051937
X+026937Y+052937
X+026937Y+053937
X+026937Y+054937
X+026937Y+055937
X+026937Y+056937
X+026937Y+057937
X+026937Y+058937
X+026937Y+059937
X+026937Y+060937
X+029935Y+057437
X+032937Y+057937
X+032937Y+056937
X+032937Y+055937
X+032937Y+054937
X+032937Y+053937
X+029935Y+052437
X+032937Y+058937
X+032937Y+059937
X+032937Y+060937
X+020435Y+054429
X+020435Y+049429
X+050937Y+052937
X+081437Y+053945
X+081437Y+058945
X+095559Y+057937
X+096937Y+057937
X+099437Y+062937
X+100421Y+062937
X+101437Y+062937
X+102421Y+062937
T06
X+066937Y+048937
X+066937Y+049937
X+066937Y+050937
X+066937Y+051937
X+065937Y+051937
X+065937Y+050937
X+065937Y+049937
X+065937Y+048937
T07
X+034492Y+017587
X+026992Y+017587
X+026992Y+010087
X+034492Y+010087
X+041992Y+010087
X+041992Y+017587
X+049492Y+017587
X+049492Y+010087
X+062492Y+010087
X+062492Y+017587
X+069992Y+017587
X+077492Y+017587
X+084992Y+017587
X+092492Y+017587
X+099992Y+017587
X+099992Y+010087
X+092492Y+010087
X+084992Y+010087
X+077492Y+010087
X+069992Y+010087
X+069992Y+025087
X+069992Y+032587
X+077492Y+032587
X+084992Y+032587
X+084992Y+025087
X+077492Y+025087
X+092492Y+025087
X+099992Y+025087
X+099992Y+032587
X+092492Y+032587
X+062492Y+032587
X+062492Y+025087
X+049492Y+025087
X+049492Y+032587
X+041992Y+032587
X+041992Y+025087
X+034492Y+025087
X+026992Y+025087
X+026992Y+032587
X+034492Y+032587
X+019492Y+032587
X+011992Y+032587
X+011992Y+025087
X+019492Y+025087
X+019492Y+017587
X+011992Y+017587
X+011992Y+010087
X+019492Y+010087
T08
X+072441Y+065437
X+073441Y+065437
X+074441Y+065437
X+075441Y+065437
X+068937Y+065437
X+067937Y+065437
X+066937Y+065437
X+065937Y+065437
X+086437Y+065435
X+087437Y+065435
X+088437Y+065435
X+088437Y+064435
X+087437Y+064435
X+086437Y+064435
X+089437Y+064435
X+089437Y+065435
X+090437Y+065435
X+090437Y+064435
X+091437Y+064435
X+091437Y+065435
X+099937Y+058437
X+100937Y+058437
X+100937Y+055937
X+099937Y+055937
X+100437Y+052780
X+100437Y+051953
X+100437Y+050929
X+100437Y+050102
X+099335Y+050102
X+099335Y+052780
X+091937Y+053437
X+090937Y+053437
X+090937Y+055937
X+091937Y+055937
X+091937Y+058437
X+090937Y+058437
X+090937Y+044687
X+090937Y+043687
X+090937Y+042687
X+090937Y+041687
X+090937Y+040687
X+090937Y+039687
X+060937Y+036937
X+059937Y+036937
X+058937Y+036937
X+057937Y+036937
X+055437Y+032433
X+054437Y+032433
X+053437Y+032433
X+052437Y+032433
X+024931Y+037937
X+023931Y+037937
X+022931Y+037937
X+021931Y+037937
X+020931Y+037937
X+019931Y+037937
X+018931Y+037937
X+017931Y+037937
X+013937Y+046941
X+013937Y+047941
X+013937Y+048941
X+013937Y+049941
X+013937Y+050941
X+013937Y+051941
X+013937Y+052941
X+013937Y+053941
X+013937Y+054941
X+013937Y+055941
X+013937Y+056941
X+013937Y+057941
X+013937Y+058941
X+013937Y+059941
X+007937Y+059941
X+007937Y+058941
X+007937Y+057941
X+007937Y+056941
X+007937Y+055941
X+007937Y+054941
X+007937Y+053941
X+007937Y+052941
X+007937Y+051941
X+007937Y+050941
X+007937Y+049941
X+007937Y+048941
X+007937Y+047941
X+007937Y+046941
X+027937Y+064437
X+028937Y+064437
X+029937Y+064437
X+030937Y+064437
X+031937Y+064437
X+032937Y+064437
X+033937Y+064437
X+034937Y+064437
X+035937Y+064437
X+036937Y+064437
X+037937Y+064437
X+037937Y+065437
X+036937Y+065437
X+035937Y+065437
X+034937Y+065437
X+033937Y+065437
X+032937Y+065437
X+031937Y+065437
X+030937Y+065437
X+029937Y+065437
X+028937Y+065437
X+027937Y+065437
T09
X+099937Y+060565
X+100937Y+060565
X+101937Y+060565
X+099937Y+034433
X+095937Y+034433
X+092437Y+034433
X+088437Y+034433
X+084937Y+034433
X+080937Y+034433
X+077437Y+034433
X+073437Y+034433
X+069937Y+034433
X+065937Y+034433
X+062437Y+034433
X+058437Y+034433
X+058437Y+026933
X+062437Y+026933
X+065937Y+026933
X+069937Y+026933
X+073437Y+026933
X+077437Y+026933
X+080937Y+026933
X+084937Y+026933
X+088437Y+026933
X+092437Y+026933
X+095937Y+026933
X+099937Y+026933
X+099937Y+019433
X+095937Y+019433
X+092437Y+019433
X+088437Y+019433
X+084937Y+019433
X+080937Y+019433
X+077437Y+019433
X+073437Y+019433
X+069937Y+019433
X+065937Y+019433
X+062437Y+019433
X+058437Y+019433
X+058437Y+011933
X+062437Y+011933
X+065937Y+011933
X+069937Y+011933
X+073437Y+011933
X+077437Y+011933
X+080937Y+011933
X+084937Y+011933
X+088437Y+011933
X+092437Y+011933
X+095937Y+011933
X+099937Y+011933
X+049437Y+011933
X+045437Y+011933
X+041937Y+011933
X+037937Y+011933
X+034437Y+011933
X+030437Y+011933
X+026937Y+011933
X+022937Y+011933
X+019437Y+011933
X+015437Y+011933
X+011937Y+011933
X+007937Y+011933
X+007937Y+019433
X+011937Y+019433
X+015437Y+019433
X+019437Y+019433
X+022937Y+019433
X+026937Y+019433
X+030437Y+019433
X+034437Y+019433
X+037937Y+019433
X+041937Y+019433
X+045437Y+019433
X+049437Y+019433
X+049437Y+026933
X+045437Y+026933
X+041937Y+026933
X+037937Y+026933
X+034437Y+026933
X+030437Y+026933
X+026937Y+026933
X+022937Y+026933
X+019437Y+026933
X+015437Y+026933
X+011937Y+026933
X+007937Y+026933
X+007937Y+034433
X+011937Y+034433
X+015437Y+034433
X+019437Y+034433
X+022937Y+034433
X+026937Y+034433
X+030437Y+034433
X+034437Y+034433
X+037937Y+034433
X+041937Y+034433
X+045437Y+034433
X+049437Y+034433
T10
X+032437Y+013610
X+030469Y+014437
X+024937Y+013610
X+022969Y+014437
X+017437Y+013610
X+015469Y+014437
X+009937Y+013610
X+007969Y+014437
X+009937Y+021110
X+007969Y+021937
X+009937Y+028610
X+007969Y+029437
X+015469Y+029437
X+017437Y+028610
X+022969Y+029437
X+024937Y+028610
X+030469Y+029437
X+032437Y+028610
X+037969Y+029437
X+039937Y+028610
X+045469Y+029437
X+047437Y+028610
X+045469Y+021937
X+047437Y+021110
X+045469Y+014437
X+047437Y+013610
X+045469Y+006937
X+047437Y+006110
X+039937Y+006110
X+037969Y+006937
X+032437Y+006110
X+030469Y+006937
X+024937Y+006110
X+022969Y+006937
X+017437Y+006110
X+015469Y+006937
X+009937Y+006110
X+007969Y+006937
X+015469Y+021937
X+017437Y+021110
X+022969Y+021937
X+024937Y+021110
X+030469Y+021937
X+032437Y+021110
X+037969Y+021937
X+039937Y+021110
X+037969Y+014437
X+039937Y+013610
X+058469Y+014437
X+060437Y+013610
X+065969Y+014437
X+067937Y+013610
X+073469Y+014437
X+075437Y+013610
X+080969Y+014437
X+082937Y+013610
X+088469Y+014437
X+090437Y+013610
X+095969Y+014437
X+097937Y+013610
X+095969Y+006937
X+097937Y+006110
X+090437Y+006110
X+088469Y+006937
X+082937Y+006110
X+080969Y+006937
X+075437Y+006110
X+073469Y+006937
X+067937Y+006110
X+065969Y+006937
X+060437Y+006110
X+058469Y+006937
X+060437Y+021110
X+058469Y+021937
X+060437Y+028610
X+058469Y+029437
X+065969Y+029437
X+067937Y+028610
X+073469Y+029437
X+075437Y+028610
X+080969Y+029437
X+082937Y+028610
X+088469Y+029437
X+090437Y+028610
X+095969Y+029437
X+097937Y+028610
X+095969Y+021937
X+097937Y+021110
X+090437Y+021110
X+088469Y+021937
X+082937Y+021110
X+080969Y+021937
X+075437Y+021110
X+073469Y+021937
X+067937Y+021110
X+065969Y+021937
T11
X+063543Y+061437
X+055866Y+061437
T12
X+030272Y+015933
X+027102Y+015933
X+022772Y+015933
X+019602Y+015933
X+015272Y+015933
X+012102Y+015933
X+007772Y+015933
X+007772Y+023433
X+012102Y+023433
X+015272Y+023433
X+019602Y+023433
X+022772Y+023433
X+027102Y+023433
X+030272Y+023433
X+034602Y+023433
X+037772Y+023433
X+042102Y+023433
X+045272Y+023433
X+049602Y+023433
X+049602Y+030933
X+045272Y+030933
X+042102Y+030933
X+037772Y+030933
X+034602Y+030933
X+030272Y+030933
X+027102Y+030933
X+022772Y+030933
X+019602Y+030933
X+015272Y+030933
X+012102Y+030933
X+007772Y+030933
X+007772Y+008433
X+012102Y+008433
X+015272Y+008433
X+019602Y+008433
X+022772Y+008433
X+027102Y+008433
X+030272Y+008433
X+034602Y+008433
X+037772Y+008433
X+042102Y+008433
X+045272Y+008433
X+049602Y+008433
X+049602Y+015933
X+045272Y+015933
X+042102Y+015933
X+037772Y+015933
X+034602Y+015933
X+058272Y+015933
X+062602Y+015933
X+065772Y+015933
X+070102Y+015933
X+073272Y+015933
X+077602Y+015933
X+080772Y+015933
X+085102Y+015933
X+088272Y+015933
X+092602Y+015933
X+095772Y+015933
X+100102Y+015933
X+100102Y+008433
X+095772Y+008433
X+092602Y+008433
X+088272Y+008433
X+085102Y+008433
X+080772Y+008433
X+077602Y+008433
X+073272Y+008433
X+070102Y+008433
X+065772Y+008433
X+062602Y+008433
X+058272Y+008433
X+058272Y+023433
X+062602Y+023433
X+065772Y+023433
X+070102Y+023433
X+073272Y+023433
X+077602Y+023433
X+080772Y+023433
X+085102Y+023433
X+088272Y+023433
X+092602Y+023433
X+095772Y+023433
X+100102Y+023433
X+100102Y+030933
X+095772Y+030933
X+092602Y+030933
X+088272Y+030933
X+085102Y+030933
X+080772Y+030933
X+077602Y+030933
X+073272Y+030933
X+070102Y+030933
X+065772Y+030933
X+062602Y+030933
X+058272Y+030933
T13
X+004937Y+034437
X+004937Y+036437
X+004937Y+065937
X+053937Y+065937
X+053937Y+036437
X+053937Y+034437
X+053937Y+004937
X+102937Y+004937
X+102937Y+034437
X+102937Y+036437
X+102937Y+065937
X+004937Y+004937
T14
X+032437Y+015933
X+024937Y+015933
X+024937Y+023433
X+032437Y+023433
X+032437Y+030933
X+024937Y+030933
X+017437Y+030933
X+009937Y+030933
X+009937Y+023433
X+017437Y+023433
X+017437Y+015933
X+009937Y+015933
X+009937Y+008433
X+017437Y+008433
X+024937Y+008433
X+032437Y+008433
X+039937Y+008433
X+047437Y+008433
X+047437Y+015933
X+047437Y+023433
X+047437Y+030933
X+039937Y+030933
X+039937Y+023433
X+039937Y+015933
X+060437Y+015933
X+060437Y+008433
X+067937Y+008433
X+067937Y+015933
X+075437Y+015933
X+082937Y+015933
X+082937Y+023433
X+075437Y+023433
X+075437Y+030933
X+082937Y+030933
X+090437Y+030933
X+097937Y+030933
X+097937Y+023433
X+090437Y+023433
X+090437Y+015933
X+097937Y+015933
X+097937Y+008433
X+090437Y+008433
X+082937Y+008433
X+075437Y+008433
X+067937Y+023433
X+067937Y+030933
X+060437Y+030933
X+060437Y+023433
T00
M30
