%TF.GenerationSoftware,Novarm,DipTrace,4.3.0.4*%
%TF.CreationDate,2023-07-28T17:07:59+01:00*%
%FSLAX26Y26*%
%MOIN*%
%TF.FileFunction,Plated,1,2,PTH,Drill*%
%TF.Part,Single*%
%TA.AperFunction,ComponentDrill*%
%ADD15C,0.03937*%
%ADD30C,0.051181*%
%TA.AperFunction,ViaDrill*%
%ADD53C,0.019121*%
%TA.AperFunction,ComponentDrill*%
%ADD57C,0.027559*%
%ADD58C,0.05*%
%ADD59C,0.031496*%
%ADD60C,0.035433*%
%ADD61C,0.07874*%
%ADD62C,0.029528*%
%ADD63C,0.043307*%
%ADD64C,0.019685*%
G75*
G01*
D57*
X6977953Y4893701D3*
Y5193701D3*
D58*
X3243701Y1361024D3*
X3046850Y1443701D3*
D59*
X8243701Y4293701D3*
Y4193701D3*
Y4093701D3*
Y3993701D3*
Y3893701D3*
Y3793701D3*
Y3693701D3*
X8543701D3*
Y3793701D3*
Y3893701D3*
Y3993701D3*
Y4093701D3*
Y4193701D3*
Y4293701D3*
X3293701Y4593701D3*
Y4693701D3*
Y4793701D3*
Y4893701D3*
Y4993701D3*
Y5093701D3*
Y5193701D3*
Y5293701D3*
Y5393701D3*
Y5493701D3*
Y5593701D3*
Y5693701D3*
Y5793701D3*
Y5893701D3*
Y5993701D3*
Y6093701D3*
X2693701D3*
Y5993701D3*
Y5893701D3*
Y5793701D3*
Y5693701D3*
Y5593701D3*
Y5493701D3*
Y5393701D3*
Y5293701D3*
Y5193701D3*
Y5093701D3*
Y4993701D3*
Y4893701D3*
Y4793701D3*
Y4693701D3*
Y4593701D3*
D57*
X6877953Y5193701D3*
Y4893701D3*
D58*
X8293701Y611024D3*
X8096850Y693701D3*
D60*
X6693701Y4893701D3*
Y4993701D3*
Y5093701D3*
Y5193701D3*
X6593701D3*
Y5093701D3*
Y4993701D3*
Y4893701D3*
D59*
X4344094Y5893504D3*
Y5793504D3*
Y5693504D3*
Y5593504D3*
Y5493504D3*
Y5393504D3*
Y5293504D3*
Y5193504D3*
Y5093504D3*
Y4993504D3*
X4644094D3*
Y5093504D3*
Y5193504D3*
Y5293504D3*
Y5393504D3*
Y5493504D3*
Y5593504D3*
Y5693504D3*
Y5793504D3*
Y5893504D3*
X7843504Y6543504D3*
Y6443504D3*
Y6343504D3*
Y6243504D3*
Y6143504D3*
Y6043504D3*
Y5943504D3*
Y5843504D3*
Y5743504D3*
Y5643504D3*
Y5543504D3*
Y5443504D3*
Y5343504D3*
Y5243504D3*
Y5143504D3*
Y5043504D3*
Y4943504D3*
Y4843504D3*
Y4743504D3*
Y4643504D3*
X8443504D3*
Y4743504D3*
Y4843504D3*
Y4943504D3*
Y5043504D3*
Y5143504D3*
Y5243504D3*
Y5343504D3*
Y5443504D3*
Y5543504D3*
Y5643504D3*
Y5743504D3*
Y5843504D3*
Y5943504D3*
Y6043504D3*
Y6143504D3*
Y6243504D3*
Y6343504D3*
Y6443504D3*
Y6543504D3*
D58*
X3243701Y2111024D3*
X3046850Y2193701D3*
D59*
X5297244Y843307D3*
X5489370D3*
X9693701Y5793701D3*
X9555906D3*
D58*
X3993701Y2111024D3*
X3796850Y2193701D3*
X7543701Y2861024D3*
X7346850Y2943701D3*
X9043701Y1361024D3*
X8846850Y1443701D3*
D59*
X4043701Y6443701D3*
X4181496D3*
D58*
X7543701Y1361024D3*
X7346850Y1443701D3*
D61*
X493701Y3443701D3*
D58*
X4743701Y1361024D3*
X4546850Y1443701D3*
X3243701Y2861024D3*
X3046850Y2943701D3*
X7543701Y2111024D3*
X7346850Y2193701D3*
D61*
X5393701Y3643701D3*
D58*
X9793701Y2111024D3*
X9596850Y2193701D3*
D62*
X9093701Y6093701D3*
X9143701Y6143701D3*
X9193701Y6093701D3*
D59*
X7277953Y5193701D3*
X7376378D3*
D58*
X6043701Y1361024D3*
X5846850Y1443701D3*
D61*
X493701Y3643701D3*
D58*
X3993701Y1361024D3*
X3796850Y1443701D3*
D59*
X5193701Y1343307D3*
X5292126D3*
D58*
X3993701Y611024D3*
X3796850Y693701D3*
D15*
X7244094Y6543701D3*
X7344094D3*
X7444094D3*
X7544094D3*
D58*
X1743701Y2861024D3*
X1546850Y2943701D3*
D15*
X2793701Y6443701D3*
Y6543701D3*
X2893701Y6443701D3*
Y6543701D3*
X2993701Y6443701D3*
Y6543701D3*
X3093701Y6443701D3*
Y6543701D3*
X3193701Y6443701D3*
Y6543701D3*
X3293701Y6443701D3*
Y6543701D3*
X3393701Y6443701D3*
Y6543701D3*
X3493701Y6443701D3*
Y6543701D3*
X3593701Y6443701D3*
Y6543701D3*
X3693701Y6443701D3*
Y6543701D3*
X3793701Y6443701D3*
Y6543701D3*
X5243701Y3243307D3*
X5343701D3*
X5443701D3*
X5543701D3*
D58*
X8293701Y1361024D3*
X8096850Y1443701D3*
D59*
X6594094Y5843307D3*
Y5743307D3*
Y5643307D3*
Y5543307D3*
X6894094D3*
Y5643307D3*
Y5743307D3*
Y5843307D3*
D58*
X9043701Y2861024D3*
X8846850Y2943701D3*
D59*
X3893701Y4443701D3*
Y3943701D3*
D58*
X1743701Y611024D3*
X1546850Y693701D3*
D59*
X1743504Y6493701D3*
Y6393701D3*
Y6293701D3*
Y6193701D3*
Y6093701D3*
Y5993701D3*
Y5893701D3*
Y5793701D3*
Y5693701D3*
Y5593701D3*
Y5493701D3*
Y5393701D3*
Y5293701D3*
Y5193701D3*
Y5093701D3*
Y4993701D3*
Y4893701D3*
Y4793701D3*
Y4693701D3*
Y4593701D3*
X2343504D3*
Y4693701D3*
Y4793701D3*
Y4893701D3*
Y4993701D3*
Y5093701D3*
Y5193701D3*
Y5293701D3*
Y5393701D3*
Y5493701D3*
Y5593701D3*
Y5693701D3*
Y5793701D3*
Y5893701D3*
Y5993701D3*
Y6093701D3*
Y6193701D3*
Y6293701D3*
Y6393701D3*
Y6493701D3*
D58*
X6043701Y2861024D3*
X5846850Y2943701D3*
X6793701Y2861024D3*
X6596850Y2943701D3*
D59*
X8693701Y4543701D3*
X8831496D3*
D57*
X7593701Y6393701D3*
X7293701D3*
D59*
X7188976Y3993701D3*
X7688976D3*
X5243701Y2943307D3*
Y2843307D3*
Y2743307D3*
Y2643307D3*
Y2543307D3*
Y2443307D3*
Y2343307D3*
Y2243307D3*
Y2143307D3*
Y2043307D3*
Y1943307D3*
Y1843307D3*
Y1743307D3*
Y1643307D3*
X5543701D3*
Y1743307D3*
Y1843307D3*
Y1943307D3*
Y2043307D3*
Y2143307D3*
Y2243307D3*
Y2343307D3*
Y2443307D3*
Y2543307D3*
Y2643307D3*
Y2743307D3*
Y2843307D3*
Y2943307D3*
D57*
X7077953Y5193701D3*
Y4893701D3*
D59*
X7477953Y5193701D3*
X7576378D3*
D61*
X5393701Y3443701D3*
D58*
X4743701Y2861024D3*
X4546850Y2943701D3*
X9043701Y2111024D3*
X8846850Y2193701D3*
D59*
X3743701Y4493701D3*
Y4393701D3*
Y4293701D3*
Y4193701D3*
Y4093701D3*
Y3993701D3*
Y3893701D3*
X4043701D3*
Y3993701D3*
Y4093701D3*
Y4193701D3*
Y4293701D3*
Y4393701D3*
Y4493701D3*
D61*
X10293701Y6593701D3*
D57*
X8843701Y6043701D3*
Y5743701D3*
X9693701Y5393701D3*
Y5293701D3*
D15*
X1393701Y4694094D3*
Y4794094D3*
Y4894094D3*
Y4994094D3*
Y5094094D3*
Y5194094D3*
Y5294094D3*
Y5394094D3*
Y5494094D3*
Y5594094D3*
Y5694094D3*
Y5794094D3*
Y5894094D3*
Y5994094D3*
X793701D3*
Y5894094D3*
Y5794094D3*
Y5694094D3*
Y5594094D3*
Y5494094D3*
Y5394094D3*
Y5294094D3*
Y5194094D3*
Y5094094D3*
Y4994094D3*
Y4894094D3*
Y4794094D3*
Y4694094D3*
D58*
X1743701Y2111024D3*
X1546850Y2193701D3*
X1743701Y1361024D3*
X1546850Y1443701D3*
D59*
X5643701Y3993701D3*
X5743701D3*
X5843701D3*
X5943701D3*
X6043701D3*
X6143701D3*
X6243701D3*
Y4293701D3*
X6143701D3*
X6043701D3*
X5943701D3*
X5843701D3*
X5743701D3*
X5643701D3*
D58*
X9043701Y611024D3*
X8846850Y693701D3*
D15*
X9093701Y5343701D3*
X9193701D3*
D59*
X3743701Y5893701D3*
Y5793701D3*
Y5693701D3*
Y5593701D3*
Y5493701D3*
Y5393701D3*
Y5293701D3*
Y5193701D3*
Y5093701D3*
Y4993701D3*
X4043701D3*
Y5093701D3*
Y5193701D3*
Y5293701D3*
Y5393701D3*
Y5493701D3*
Y5593701D3*
Y5693701D3*
Y5793701D3*
Y5893701D3*
D58*
X2493701Y2861024D3*
X2296850Y2943701D3*
D61*
X493701Y493701D3*
D15*
X10043701Y5195276D3*
Y5092913D3*
Y5277953D3*
Y5010236D3*
X9933465Y5277953D3*
Y5010236D3*
X10185433Y4874409D2*
X10126378D1*
X10187402Y5183465D2*
Y5104724D1*
X10185433Y5413780D2*
X10126378D1*
D58*
X3243701Y611024D3*
X3046850Y693701D3*
D57*
X8843701Y5543701D3*
Y5243701D3*
X6777953Y5193701D3*
Y4893701D3*
D59*
X2043504Y5442913D3*
Y4942913D3*
D58*
X4743701Y611024D3*
X4546850Y693701D3*
X2493701Y1361024D3*
X2296850Y1443701D3*
D15*
X8643701Y6443504D3*
Y6543504D3*
X8743701Y6443504D3*
Y6543504D3*
X8843701Y6443504D3*
Y6543504D3*
X8943701Y6443504D3*
Y6543504D3*
X9043701Y6443504D3*
Y6543504D3*
X9143701Y6443504D3*
Y6543504D3*
D61*
X493701Y6593701D3*
D15*
X9093701Y4468701D3*
Y4368701D3*
Y4268701D3*
Y4168701D3*
Y4068701D3*
Y3968701D3*
D58*
X8293701Y2861024D3*
X8096850Y2943701D3*
X9793701Y611024D3*
X9596850Y693701D3*
D59*
X9943701Y6293701D3*
X10042126D3*
D58*
X993701Y1361024D3*
X796850Y1443701D3*
X9568110Y6143701D2*
D15*
X9670472D1*
X9575984Y6391732D2*
X9662598D1*
X9430315Y6301181D2*
Y6214567D1*
D58*
X4743701Y2111024D3*
X4546850Y2193701D3*
D59*
X4493701Y4443701D3*
Y3943701D3*
D63*
X9993701Y6056496D3*
X10093701D3*
X10193701D3*
D59*
X5093701Y4443701D3*
Y3943701D3*
D58*
X6793701Y1361024D3*
X6596850Y1443701D3*
D59*
X4343307Y4493504D3*
Y4393504D3*
Y4293504D3*
Y4193504D3*
Y4093504D3*
Y3993504D3*
Y3893504D3*
X4643307D3*
Y3993504D3*
Y4093504D3*
Y4193504D3*
Y4293504D3*
Y4393504D3*
Y4493504D3*
X5493701Y1093307D3*
X5592126D3*
D58*
X6793701Y611024D3*
X6596850Y693701D3*
D62*
X6693701Y4593701D3*
X6643701D3*
X6593701D3*
D57*
X9693701Y5043701D3*
Y4943701D3*
D59*
X3893701Y5793701D3*
Y5293701D3*
D15*
X9093701Y5593701D3*
X9193701D3*
D61*
X5393701Y493701D3*
D58*
X6043701Y611024D3*
X5846850Y693701D3*
D30*
X6354331Y6143701D3*
X5586614D3*
D61*
X10293701Y3643701D3*
D57*
X7177953Y5193701D3*
Y4893701D3*
D59*
X4944094Y5893504D3*
Y5793504D3*
Y5693504D3*
Y5593504D3*
Y5493504D3*
Y5393504D3*
Y5293504D3*
Y5193504D3*
Y5093504D3*
Y4993504D3*
X5244094D3*
Y5093504D3*
Y5193504D3*
Y5293504D3*
Y5393504D3*
Y5493504D3*
Y5593504D3*
Y5693504D3*
Y5793504D3*
Y5893504D3*
D58*
X993701Y2861024D3*
X796850Y2943701D3*
D15*
X1793110Y3793701D3*
X1893110D3*
X1993110D3*
X2093110D3*
X2193110D3*
X2293110D3*
X2393110D3*
X2493110D3*
D58*
X8293701Y2111024D3*
X8096850Y2193701D3*
D15*
X9993701Y5843701D3*
X10093701D3*
D58*
X7543701Y611024D3*
X7346850Y693701D3*
D59*
X7344094Y5843307D3*
Y5743307D3*
Y5643307D3*
Y5543307D3*
X7644094D3*
Y5643307D3*
Y5743307D3*
Y5843307D3*
D58*
X6043701Y2111024D3*
X5846850Y2193701D3*
D59*
X8143701Y5394488D3*
Y5894488D3*
X4943307Y4493504D3*
Y4393504D3*
Y4293504D3*
Y4193504D3*
Y4093504D3*
Y3993504D3*
Y3893504D3*
Y3793504D3*
X5243307D3*
Y3893504D3*
Y3993504D3*
Y4093504D3*
Y4193504D3*
Y4293504D3*
Y4393504D3*
Y4493504D3*
D15*
X6593701Y6543701D3*
X6693701D3*
X6793701D3*
X6893701D3*
D58*
X3993701Y2861024D3*
X3796850Y2943701D3*
D59*
X5093701Y5793701D3*
Y5293701D3*
D15*
X9993701Y5593701D3*
X10093701D3*
D59*
X844488Y6444094D3*
X1344488D3*
D58*
X2493701Y2111024D3*
X2296850Y2193701D3*
X2493701Y611024D3*
X2296850Y693701D3*
D57*
X5493701Y1343307D3*
X5593701D3*
D59*
X4543701Y6343701D3*
X4443701Y6443701D3*
X4543701Y6543701D3*
D15*
X5793701Y3693701D3*
X5893701D3*
X5993701D3*
X6093701D3*
D58*
X9793701Y1361024D3*
X9596850Y1443701D3*
D61*
X10293701Y493701D3*
D57*
X7593701Y6293701D3*
X7293701D3*
D64*
X7055906Y5861024D3*
X7130709D3*
D59*
X7893701Y4293701D3*
X7793701D3*
X7693701D3*
X7593701D3*
X7493701D3*
X7393701D3*
X7293701D3*
X7193701D3*
X7093701D3*
X6993701D3*
X6893701D3*
X6793701D3*
X6693701D3*
X6593701D3*
Y3693701D3*
X6693701D3*
X6793701D3*
X6893701D3*
X6993701D3*
X7093701D3*
X7193701D3*
X7293701D3*
X7393701D3*
X7493701D3*
X7593701D3*
X7693701D3*
X7793701D3*
X7893701D3*
X1793701Y4093701D3*
X1893701D3*
X1993701D3*
X2093701D3*
X2193701D3*
X2293701D3*
X5193701Y1093307D3*
X5292126D3*
X10143701Y6293701D3*
X10242126D3*
D58*
X9793701Y2861024D3*
X9596850Y2943701D3*
D59*
X4493701Y5793701D3*
Y5293701D3*
D58*
X993701Y2111024D3*
X796850Y2193701D3*
D61*
X10293701Y3443701D3*
D58*
X993701Y611024D3*
X796850Y693701D3*
D59*
X2993504Y5243701D3*
Y5743701D3*
D61*
X5393701Y6593701D3*
D15*
X9093701Y5843701D3*
X9193701D3*
D58*
X6793701Y2111024D3*
X6596850Y2193701D3*
D63*
X9243701Y1193307D3*
X8843701D3*
X6243701Y2693307D3*
X5843701D3*
X1193701Y1943307D3*
X793701D3*
X4943701D3*
X4543701D3*
X6993701Y2693307D3*
X6593701D3*
X7743701Y1943307D3*
X7343701D3*
X2693701Y3443307D3*
X2293701D3*
X8493701Y2693307D3*
X8093701D3*
X6243701Y3443307D3*
X5843701D3*
X7743701Y2693307D3*
X7343701D3*
X4943701D3*
X4543701D3*
X7743701Y3443307D3*
X7343701D3*
X4943701D3*
X4543701D3*
X8493701Y1943307D3*
X8093701D3*
X8493701Y1193307D3*
X8093701D3*
X3443701Y2693307D3*
X3043701D3*
X4193701Y1193307D3*
X3793701D3*
X2693701Y2693307D3*
X2293701D3*
X6243701Y1193307D3*
X5843701D3*
X1943701Y1943307D3*
X1543701D3*
X1193701Y1193307D3*
X793701D3*
X3443701Y1943307D3*
X3043701D3*
X8493701Y3443307D3*
X8093701D3*
X9993701Y1943307D3*
X9593701D3*
X4193701D3*
X3793701D3*
X4193701Y2693307D3*
X3793701D3*
X9993701Y3443307D3*
X9593701D3*
X1193701Y2693307D3*
X793701D3*
X7743701Y1193307D3*
X7343701D3*
X1943701Y2693307D3*
X1543701D3*
X6993701Y1193307D3*
X6593701D3*
X2693701Y1943307D3*
X2293701D3*
X3443701Y1193307D3*
X3043701D3*
X4943701D3*
X4543701D3*
X1193701Y3443307D3*
X793701D3*
X3443701D3*
X3043701D3*
X1943701Y1193307D3*
X1543701D3*
X6993701Y3443307D3*
X6593701D3*
X6993701Y1943307D3*
X6593701D3*
X9243701Y3443307D3*
X8843701D3*
X1943701D3*
X1543701D3*
X6243701Y1943307D3*
X5843701D3*
X9993701Y1193307D3*
X9593701D3*
X9993701Y2693307D3*
X9593701D3*
X9243701D3*
X8843701D3*
X9243701Y1943307D3*
X8843701D3*
X4193701Y3443307D3*
X3793701D3*
X2693701Y1193307D3*
X2293701D3*
D53*
X7477953Y4701256D3*
X5049921Y4243039D3*
X2693705Y4459449D3*
X2993508Y5541260D3*
X2216886D3*
X1870193Y3920244D3*
X4493701Y5688937D3*
X7284720Y5892520D3*
X1666413Y6468819D3*
X6838980Y6400394D3*
X2434370Y5468819D3*
X2216890Y5304567D3*
X1802874D3*
X1636886Y4693701D3*
X2914937Y5468819D3*
X3089921Y5068819D3*
X5018110Y4632445D3*
X1652394Y5337008D3*
X833457Y5350394D3*
X4850843Y4568823D3*
X2497992Y4793701D3*
X4813858Y4780000D3*
X3700945D3*
X2434370Y4507008D3*
X911980D3*
X3653071Y4780000D3*
Y4507008D3*
X2497992D3*
X3457319Y5673071D3*
Y5537008D3*
X1802874Y5826496D3*
X6343071Y4850394D3*
X6279449Y6196850D3*
X7752634D3*
X3489130Y5005197D3*
Y4850394D3*
X1603114Y5494094D3*
X7705839Y6244724D3*
X3105988Y6268819D3*
X1433858Y4475197D3*
X2946748Y5184642D3*
X7918622Y6043500D3*
X3425508Y6093697D3*
X2233780Y5001969D3*
X2154724Y4926496D3*
X3121732Y4846488D3*
X4938425Y4811811D3*
X1986854Y4837008D3*
X1785488D3*
X3058110Y4894362D3*
X4970236Y4600634D3*
X1145906Y4837008D3*
X5432362Y4193504D3*
X5528791Y4199724D3*
X4103075Y5593500D3*
X4841043Y1706402D3*
X5543705Y1264177D3*
X6891043Y1920000D3*
Y1361024D3*
X4618819Y1512028D3*
X5486146Y1686614D3*
X7543701Y1920000D3*
X5486146Y2086614D3*
X8196354Y1920000D3*
Y1361024D3*
X8938484Y1950555D3*
X3896669Y1966622D3*
X5023264Y2100000D3*
X2531457Y5737008D3*
Y5868819D3*
X6311260Y5636811D3*
X6532673Y5427559D3*
X7037008Y5471063D3*
X3338976Y6400327D3*
X4552756Y5984567D3*
X3930319D3*
X1587051Y5794094D3*
X1804843Y5874370D3*
X2284130Y5693701D3*
X4750236Y3837126D3*
X3393697Y5993701D3*
X3138976Y5537008D3*
X2768823Y5509449D3*
X2618583Y5593701D3*
X2420276D3*
X3393697Y5705197D3*
X7734961Y5755000D3*
X7233071Y5786614D3*
X4718425Y4136811D3*
X7170394Y4136102D3*
X3353075Y5625512D3*
X3684331Y5193701D3*
X2695748Y6348500D3*
X2483898Y6038976D3*
X3240945Y6398736D3*
X7241575Y6019764D3*
X3899102Y6406657D3*
X2153264Y5737008D3*
X2768823Y6364252D3*
X2300197Y6138976D3*
X4301102Y6061886D3*
X2768823Y6138972D3*
X3851228Y6374846D3*
X3548425Y6488976D3*
X7419685Y5924331D3*
X4269291Y6016378D3*
X7419685Y5386811D3*
X2554965Y6538976D3*
X1947248Y5460906D3*
X8352634Y5455000D3*
X7782835Y5586811D3*
Y5718622D3*
X7542039Y5502874D3*
X7580945Y5347874D3*
X2846724Y6268819D3*
X2452087D3*
X4272677Y5436811D3*
X3937008Y4337012D3*
X1825512D3*
X7902559Y5296063D3*
X1669016Y4968819D3*
X4285035Y4941260D3*
X7270787Y4374146D3*
X3293701Y6300630D3*
X7688976Y3809508D3*
X4133622Y6018311D3*
X7530228Y5686614D3*
X7451496Y5586614D3*
X4782047Y5768622D3*
X5286079Y5736811D3*
X4885035Y6300630D3*
X3093701Y6332441D3*
X8534370Y5586811D3*
X9048421Y5532358D3*
X2010709Y4668819D3*
X1915437D3*
X7674028Y6355000D3*
X9043701Y5905039D3*
X4443701Y6152756D3*
X2938976D3*
X4140043Y4727878D3*
X8816063Y4886811D3*
X4300000Y4664256D3*
X5109370Y1136618D3*
X4168035Y6193697D3*
Y5170787D3*
Y5037008D3*
X7737008Y3761638D3*
X5993701Y4038980D3*
X4118823Y4293701D3*
X6093705Y5280315D3*
X7753886Y5243504D3*
X5152756Y6237008D3*
X849921Y5966063D3*
X5077559Y1216307D3*
X4829606Y6118622D3*
X8110906Y4988780D3*
X5135685Y5238780D3*
X2247181Y5137008D3*
X1300441Y5053937D3*
X3505193Y5952756D3*
X5050390Y5861689D3*
X3026299Y4605197D3*
X3058110Y5116693D3*
X3038976Y5393701D3*
X4537008Y4290909D3*
X4438898Y5736811D3*
X3787012Y4696067D3*
X5336142D3*
X5400551Y5159094D3*
X8016280Y4898228D3*
M02*
