%TF.GenerationSoftware,Novarm,DipTrace,4.3.0.4*%
%TF.CreationDate,2023-07-28T17:07:56+01:00*%
%FSLAX26Y26*%
%MOIN*%
%TF.FileFunction,Drawing,Top*%
%TF.Part,Single*%
%ADD19C,0.003937*%
%ADD22C,0.005906*%
G75*
G01*
%LPD*%
X6977953Y4893701D2*
D19*
Y4972835D1*
X6946457D2*
X7009449D1*
Y5114567D1*
X6946457D2*
Y4972835D1*
X7009449Y5114567D2*
X6946457D1*
X6977953Y5193701D2*
Y5114567D1*
X2972047Y1321654D2*
D22*
Y1864961D1*
Y1321654D2*
X3515354D1*
X3141339Y1715354D2*
Y1841339D1*
Y1715354D2*
X3346063D1*
Y1841339D2*
X3141339D1*
X3346063Y1715354D2*
Y1841339D1*
X3515354Y1864961D2*
X2972047D1*
X3515354D2*
Y1321654D1*
X2948425Y1888583D2*
X3538976D1*
X2948425Y1298031D2*
Y1888583D1*
X3538976D2*
Y1298031D1*
X2948425D1*
X2899213Y1918110D2*
D19*
Y1268504D1*
X3588189D1*
Y1918110D1*
X2899213D1*
X8193701Y4346063D2*
Y3641339D1*
X8593701D1*
X8268701Y4304331D2*
X8308071Y4343701D1*
X8268701Y3643701D2*
Y4304331D1*
X8308071Y4343701D2*
X8518701D1*
Y3643701D1*
X8268701D1*
X8593701Y4346063D2*
X8193701D1*
X8593701Y3641339D2*
Y4346063D1*
X3343701Y4541339D2*
Y6146063D1*
X2643701D1*
X3283661Y4583071D2*
X3244291Y4543701D1*
X3283661Y6143701D2*
Y4583071D1*
X3244291Y4543701D2*
X2703740D1*
Y6143701D1*
X3283661D1*
X2643701Y4541339D2*
X3343701D1*
X2643701Y6146063D2*
Y4541339D1*
X6877953Y5193701D2*
Y5114567D1*
X6909449D2*
X6846457D1*
Y4972835D1*
X6909449D2*
Y5114567D1*
X6846457Y4972835D2*
X6909449D1*
X6877953Y4893701D2*
Y4972835D1*
X8022047Y571654D2*
D22*
Y1114961D1*
Y571654D2*
X8565354D1*
X8191339Y965354D2*
Y1091339D1*
Y965354D2*
X8396063D1*
Y1091339D2*
X8191339D1*
X8396063Y965354D2*
Y1091339D1*
X8565354Y1114961D2*
X8022047D1*
X8565354D2*
Y571654D1*
X7998425Y1138583D2*
X8588976D1*
X7998425Y548031D2*
Y1138583D1*
X8588976D2*
Y548031D1*
X7998425D1*
X7949213Y1168110D2*
D19*
Y518504D1*
X8638189D1*
Y1168110D1*
X7949213D1*
X6535827Y4758268D2*
X7520079D1*
Y5329134D1*
X6535827D1*
Y4758268D1*
X4294094Y5945866D2*
Y4941142D1*
X4694094D1*
X4369094Y5904134D2*
X4408465Y5943504D1*
X4369094Y4943504D2*
Y5904134D1*
X4408465Y5943504D2*
X4619094D1*
Y4943504D1*
X4369094D1*
X4694094Y5945866D2*
X4294094D1*
X4694094Y4941142D2*
Y5945866D1*
X7793504Y6595866D2*
Y4591142D1*
X8493504D1*
X7853543Y6554134D2*
X7892913Y6593504D1*
X7853543Y4593504D2*
Y6554134D1*
X7892913Y6593504D2*
X8433465D1*
Y4593504D1*
X7853543D1*
X8493504Y6595866D2*
X7793504D1*
X8493504Y4591142D2*
Y6595866D1*
X2972047Y2071654D2*
D22*
Y2614961D1*
Y2071654D2*
X3515354D1*
X3141339Y2465354D2*
Y2591339D1*
Y2465354D2*
X3346063D1*
Y2591339D2*
X3141339D1*
X3346063Y2465354D2*
Y2591339D1*
X3515354Y2614961D2*
X2972047D1*
X3515354D2*
Y2071654D1*
X2948425Y2638583D2*
X3538976D1*
X2948425Y2048031D2*
Y2638583D1*
X3538976D2*
Y2048031D1*
X2948425D1*
X2899213Y2668110D2*
D19*
Y2018504D1*
X3588189D1*
Y2668110D1*
X2899213D1*
X5270276Y934843D2*
X5516339D1*
X5270276Y751772D2*
X5516339D1*
X5275197Y922047D2*
X5511417D1*
X5275197Y764567D2*
X5511417D1*
X5270276Y934843D2*
G02X5270276Y934843I0J0D01*
G01*
X5275197Y922047D2*
G02X5275197Y922047I0J0D01*
G01*
X5511417Y764567D2*
G02X5511417Y764567I0J0D01*
G01*
X5516339Y751772D2*
G02X5516339Y751772I0J0D01*
G01*
X9759714Y5724902D2*
X9728218D1*
X9743966Y5709154D2*
Y5740650D1*
X9467323Y5793701D2*
G02X9467323Y5793701I157480J0D01*
G01*
X3722047Y2071654D2*
D22*
Y2614961D1*
Y2071654D2*
X4265354D1*
X3891339Y2465354D2*
Y2591339D1*
Y2465354D2*
X4096063D1*
Y2591339D2*
X3891339D1*
X4096063Y2465354D2*
Y2591339D1*
X4265354Y2614961D2*
X3722047D1*
X4265354D2*
Y2071654D1*
X3698425Y2638583D2*
X4288976D1*
X3698425Y2048031D2*
Y2638583D1*
X4288976D2*
Y2048031D1*
X3698425D1*
X3649213Y2668110D2*
D19*
Y2018504D1*
X4338189D1*
Y2668110D1*
X3649213D1*
X7272047Y2821654D2*
D22*
Y3364961D1*
Y2821654D2*
X7815354D1*
X7441339Y3215354D2*
Y3341339D1*
Y3215354D2*
X7646063D1*
Y3341339D2*
X7441339D1*
X7646063Y3215354D2*
Y3341339D1*
X7815354Y3364961D2*
X7272047D1*
X7815354D2*
Y2821654D1*
X7248425Y3388583D2*
X7838976D1*
X7248425Y2798031D2*
Y3388583D1*
X7838976D2*
Y2798031D1*
X7248425D1*
X7199213Y3418110D2*
D19*
Y2768504D1*
X7888189D1*
Y3418110D1*
X7199213D1*
X8772047Y1321654D2*
D22*
Y1864961D1*
Y1321654D2*
X9315354D1*
X8941339Y1715354D2*
Y1841339D1*
Y1715354D2*
X9146063D1*
Y1841339D2*
X8941339D1*
X9146063Y1715354D2*
Y1841339D1*
X9315354Y1864961D2*
X8772047D1*
X9315354D2*
Y1321654D1*
X8748425Y1888583D2*
X9338976D1*
X8748425Y1298031D2*
Y1888583D1*
X9338976D2*
Y1298031D1*
X8748425D1*
X8699213Y1918110D2*
D19*
Y1268504D1*
X9388189D1*
Y1918110D1*
X8699213D1*
X3977688Y6512500D2*
X4009184D1*
X3993436Y6528248D2*
Y6496752D1*
X3955118Y6443701D2*
G02X3955118Y6443701I157480J0D01*
G01*
X7272047Y1321654D2*
D22*
Y1864961D1*
Y1321654D2*
X7815354D1*
X7441339Y1715354D2*
Y1841339D1*
Y1715354D2*
X7646063D1*
Y1841339D2*
X7441339D1*
X7646063Y1715354D2*
Y1841339D1*
X7815354Y1864961D2*
X7272047D1*
X7815354D2*
Y1321654D1*
X7248425Y1888583D2*
X7838976D1*
X7248425Y1298031D2*
Y1888583D1*
X7838976D2*
Y1298031D1*
X7248425D1*
X7199213Y1918110D2*
D19*
Y1268504D1*
X7888189D1*
Y1918110D1*
X7199213D1*
X4472047Y1321654D2*
D22*
Y1864961D1*
Y1321654D2*
X5015354D1*
X4641339Y1715354D2*
Y1841339D1*
Y1715354D2*
X4846063D1*
Y1841339D2*
X4641339D1*
X4846063Y1715354D2*
Y1841339D1*
X5015354Y1864961D2*
X4472047D1*
X5015354D2*
Y1321654D1*
X4448425Y1888583D2*
X5038976D1*
X4448425Y1298031D2*
Y1888583D1*
X5038976D2*
Y1298031D1*
X4448425D1*
X4399213Y1918110D2*
D19*
Y1268504D1*
X5088189D1*
Y1918110D1*
X4399213D1*
X2972047Y2821654D2*
D22*
Y3364961D1*
Y2821654D2*
X3515354D1*
X3141339Y3215354D2*
Y3341339D1*
Y3215354D2*
X3346063D1*
Y3341339D2*
X3141339D1*
X3346063Y3215354D2*
Y3341339D1*
X3515354Y3364961D2*
X2972047D1*
X3515354D2*
Y2821654D1*
X2948425Y3388583D2*
X3538976D1*
X2948425Y2798031D2*
Y3388583D1*
X3538976D2*
Y2798031D1*
X2948425D1*
X2899213Y3418110D2*
D19*
Y2768504D1*
X3588189D1*
Y3418110D1*
X2899213D1*
X7272047Y2071654D2*
D22*
Y2614961D1*
Y2071654D2*
X7815354D1*
X7441339Y2465354D2*
Y2591339D1*
Y2465354D2*
X7646063D1*
Y2591339D2*
X7441339D1*
X7646063Y2465354D2*
Y2591339D1*
X7815354Y2614961D2*
X7272047D1*
X7815354D2*
Y2071654D1*
X7248425Y2638583D2*
X7838976D1*
X7248425Y2048031D2*
Y2638583D1*
X7838976D2*
Y2048031D1*
X7248425D1*
X7199213Y2668110D2*
D19*
Y2018504D1*
X7888189D1*
Y2668110D1*
X7199213D1*
X9522047Y2071654D2*
D22*
Y2614961D1*
Y2071654D2*
X10065354D1*
X9691339Y2465354D2*
Y2591339D1*
Y2465354D2*
X9896063D1*
Y2591339D2*
X9691339D1*
X9896063Y2465354D2*
Y2591339D1*
X10065354Y2614961D2*
X9522047D1*
X10065354D2*
Y2071654D1*
X9498425Y2638583D2*
X10088976D1*
X9498425Y2048031D2*
Y2638583D1*
X10088976D2*
Y2048031D1*
X9498425D1*
X9449213Y2668110D2*
D19*
Y2018504D1*
X10138189D1*
Y2668110D1*
X9449213D1*
X9074016Y6024803D2*
X9211811D1*
X9143701Y6191339D2*
G02X9143701Y6191339I0J0D01*
G01*
X9212741Y6024660D2*
G02X9212741Y6024660I0J0D01*
G01*
X7268110Y5233071D2*
Y5154331D1*
X7386220D1*
Y5233071D2*
X7268110D1*
X7386220Y5154331D2*
Y5233071D1*
X5772047Y1321654D2*
D22*
Y1864961D1*
Y1321654D2*
X6315354D1*
X5941339Y1715354D2*
Y1841339D1*
Y1715354D2*
X6146063D1*
Y1841339D2*
X5941339D1*
X6146063Y1715354D2*
Y1841339D1*
X6315354Y1864961D2*
X5772047D1*
X6315354D2*
Y1321654D1*
X5748425Y1888583D2*
X6338976D1*
X5748425Y1298031D2*
Y1888583D1*
X6338976D2*
Y1298031D1*
X5748425D1*
X5699213Y1918110D2*
D19*
Y1268504D1*
X6388189D1*
Y1918110D1*
X5699213D1*
X3722047Y1321654D2*
D22*
Y1864961D1*
Y1321654D2*
X4265354D1*
X3891339Y1715354D2*
Y1841339D1*
Y1715354D2*
X4096063D1*
Y1841339D2*
X3891339D1*
X4096063Y1715354D2*
Y1841339D1*
X4265354Y1864961D2*
X3722047D1*
X4265354D2*
Y1321654D1*
X3698425Y1888583D2*
X4288976D1*
X3698425Y1298031D2*
Y1888583D1*
X4288976D2*
Y1298031D1*
X3698425D1*
X3649213Y1918110D2*
D19*
Y1268504D1*
X4338189D1*
Y1918110D1*
X3649213D1*
X5183858Y1382677D2*
Y1303937D1*
X5301969D1*
Y1382677D2*
X5183858D1*
X5301969Y1303937D2*
Y1382677D1*
X3722047Y571654D2*
D22*
Y1114961D1*
Y571654D2*
X4265354D1*
X3891339Y965354D2*
Y1091339D1*
Y965354D2*
X4096063D1*
Y1091339D2*
X3891339D1*
X4096063Y965354D2*
Y1091339D1*
X4265354Y1114961D2*
X3722047D1*
X4265354D2*
Y571654D1*
X3698425Y1138583D2*
X4288976D1*
X3698425Y548031D2*
Y1138583D1*
X4288976D2*
Y548031D1*
X3698425D1*
X3649213Y1168110D2*
D19*
Y518504D1*
X4338189D1*
Y1168110D1*
X3649213D1*
X7219094Y6493701D2*
X7194094Y6518701D1*
X7594094Y6493701D2*
X7219094D1*
X7194094Y6518701D2*
Y6593701D1*
X7594094D1*
Y6493701D1*
X1472047Y2821654D2*
D22*
Y3364961D1*
Y2821654D2*
X2015354D1*
X1641339Y3215354D2*
Y3341339D1*
Y3215354D2*
X1846063D1*
Y3341339D2*
X1641339D1*
X1846063Y3215354D2*
Y3341339D1*
X2015354Y3364961D2*
X1472047D1*
X2015354D2*
Y2821654D1*
X1448425Y3388583D2*
X2038976D1*
X1448425Y2798031D2*
Y3388583D1*
X2038976D2*
Y2798031D1*
X1448425D1*
X1399213Y3418110D2*
D19*
Y2768504D1*
X2088189D1*
Y3418110D1*
X1399213D1*
X2793701Y6393701D2*
X2743701Y6443701D1*
X3843701Y6393701D2*
X2793701D1*
X2743701Y6443701D2*
Y6593701D1*
X3843701D1*
Y6393701D1*
X5218701Y3193307D2*
X5193701Y3218307D1*
X5593701Y3193307D2*
X5218701D1*
X5193701Y3218307D2*
Y3293307D1*
X5593701D1*
Y3193307D1*
X8022047Y1321654D2*
D22*
Y1864961D1*
Y1321654D2*
X8565354D1*
X8191339Y1715354D2*
Y1841339D1*
Y1715354D2*
X8396063D1*
Y1841339D2*
X8191339D1*
X8396063Y1715354D2*
Y1841339D1*
X8565354Y1864961D2*
X8022047D1*
X8565354D2*
Y1321654D1*
X7998425Y1888583D2*
X8588976D1*
X7998425Y1298031D2*
Y1888583D1*
X8588976D2*
Y1298031D1*
X7998425D1*
X7949213Y1918110D2*
D19*
Y1268504D1*
X8638189D1*
Y1918110D1*
X7949213D1*
X6619094Y5853937D2*
X6658465Y5893307D1*
X6619094Y5493307D2*
Y5853937D1*
X6658465Y5893307D2*
X6869094D1*
Y5493307D1*
X6619094D1*
X8772047Y2821654D2*
D22*
Y3364961D1*
Y2821654D2*
X9315354D1*
X8941339Y3215354D2*
Y3341339D1*
Y3215354D2*
X9146063D1*
Y3341339D2*
X8941339D1*
X9146063Y3215354D2*
Y3341339D1*
X9315354Y3364961D2*
X8772047D1*
X9315354D2*
Y2821654D1*
X8748425Y3388583D2*
X9338976D1*
X8748425Y2798031D2*
Y3388583D1*
X9338976D2*
Y2798031D1*
X8748425D1*
X8699213Y3418110D2*
D19*
Y2768504D1*
X9388189D1*
Y3418110D1*
X8699213D1*
X3925197Y4453543D2*
X3862205D1*
Y3935433D1*
X3925197D2*
Y4453543D1*
X3862205Y3935433D2*
X3925197D1*
X1472047Y571654D2*
D22*
Y1114961D1*
Y571654D2*
X2015354D1*
X1641339Y965354D2*
Y1091339D1*
Y965354D2*
X1846063D1*
Y1091339D2*
X1641339D1*
X1846063Y965354D2*
Y1091339D1*
X2015354Y1114961D2*
X1472047D1*
X2015354D2*
Y571654D1*
X1448425Y1138583D2*
X2038976D1*
X1448425Y548031D2*
Y1138583D1*
X2038976D2*
Y548031D1*
X1448425D1*
X1399213Y1168110D2*
D19*
Y518504D1*
X2088189D1*
Y1168110D1*
X1399213D1*
X1693504Y6546063D2*
Y4541339D1*
X2393504D1*
X1753543Y6504331D2*
X1792913Y6543701D1*
X1753543Y4543701D2*
Y6504331D1*
X1792913Y6543701D2*
X2333465D1*
Y4543701D1*
X1753543D1*
X2393504Y6546063D2*
X1693504D1*
X2393504Y4541339D2*
Y6546063D1*
X5772047Y2821654D2*
D22*
Y3364961D1*
Y2821654D2*
X6315354D1*
X5941339Y3215354D2*
Y3341339D1*
Y3215354D2*
X6146063D1*
Y3341339D2*
X5941339D1*
X6146063Y3215354D2*
Y3341339D1*
X6315354Y3364961D2*
X5772047D1*
X6315354D2*
Y2821654D1*
X5748425Y3388583D2*
X6338976D1*
X5748425Y2798031D2*
Y3388583D1*
X6338976D2*
Y2798031D1*
X5748425D1*
X5699213Y3418110D2*
D19*
Y2768504D1*
X6388189D1*
Y3418110D1*
X5699213D1*
X6522047Y2821654D2*
D22*
Y3364961D1*
Y2821654D2*
X7065354D1*
X6691339Y3215354D2*
Y3341339D1*
Y3215354D2*
X6896063D1*
Y3341339D2*
X6691339D1*
X6896063Y3215354D2*
Y3341339D1*
X7065354Y3364961D2*
X6522047D1*
X7065354D2*
Y2821654D1*
X6498425Y3388583D2*
X7088976D1*
X6498425Y2798031D2*
Y3388583D1*
X7088976D2*
Y2798031D1*
X6498425D1*
X6449213Y3418110D2*
D19*
Y2768504D1*
X7138189D1*
Y3418110D1*
X6449213D1*
X8627688Y4612500D2*
X8659184D1*
X8643436Y4628248D2*
Y4596752D1*
X8605118Y4543701D2*
G02X8605118Y4543701I157480J0D01*
G01*
X7593701Y6393701D2*
X7514567D1*
Y6362205D2*
Y6425197D1*
X7372835D1*
Y6362205D2*
X7514567D1*
X7372835Y6425197D2*
Y6362205D1*
X7293701Y6393701D2*
X7372835D1*
X7179134Y4025197D2*
Y3962205D1*
X7697244D1*
Y4025197D2*
X7179134D1*
X7697244Y3962205D2*
Y4025197D1*
X5193701Y2995669D2*
Y1590945D1*
X5593701D1*
X5268701Y2953937D2*
X5308071Y2993307D1*
X5268701Y1593307D2*
Y2953937D1*
X5308071Y2993307D2*
X5518701D1*
Y1593307D1*
X5268701D1*
X5593701Y2995669D2*
X5193701D1*
X5593701Y1590945D2*
Y2995669D1*
X7077953Y5193701D2*
Y5114567D1*
X7109449D2*
X7046457D1*
Y4972835D1*
X7109449D2*
Y5114567D1*
X7046457Y4972835D2*
X7109449D1*
X7077953Y4893701D2*
Y4972835D1*
X7468110Y5233071D2*
Y5154331D1*
X7586220D1*
Y5233071D2*
X7468110D1*
X7586220Y5154331D2*
Y5233071D1*
X4472047Y2821654D2*
D22*
Y3364961D1*
Y2821654D2*
X5015354D1*
X4641339Y3215354D2*
Y3341339D1*
Y3215354D2*
X4846063D1*
Y3341339D2*
X4641339D1*
X4846063Y3215354D2*
Y3341339D1*
X5015354Y3364961D2*
X4472047D1*
X5015354D2*
Y2821654D1*
X4448425Y3388583D2*
X5038976D1*
X4448425Y2798031D2*
Y3388583D1*
X5038976D2*
Y2798031D1*
X4448425D1*
X4399213Y3418110D2*
D19*
Y2768504D1*
X5088189D1*
Y3418110D1*
X4399213D1*
X8772047Y2071654D2*
D22*
Y2614961D1*
Y2071654D2*
X9315354D1*
X8941339Y2465354D2*
Y2591339D1*
Y2465354D2*
X9146063D1*
Y2591339D2*
X8941339D1*
X9146063Y2465354D2*
Y2591339D1*
X9315354Y2614961D2*
X8772047D1*
X9315354D2*
Y2071654D1*
X8748425Y2638583D2*
X9338976D1*
X8748425Y2048031D2*
Y2638583D1*
X9338976D2*
Y2048031D1*
X8748425D1*
X8699213Y2668110D2*
D19*
Y2018504D1*
X9388189D1*
Y2668110D1*
X8699213D1*
X3693701Y4546063D2*
Y3841339D1*
X4093701D1*
X3768701Y4504331D2*
X3808071Y4543701D1*
X3768701Y3843701D2*
Y4504331D1*
X3808071Y4543701D2*
X4018701D1*
Y3843701D1*
X3768701D1*
X4093701Y4546063D2*
X3693701D1*
X4093701Y3841339D2*
Y4546063D1*
X8843701Y6043701D2*
Y5964567D1*
X8875197D2*
X8812205D1*
Y5822835D1*
X8875197D2*
Y5964567D1*
X8812205Y5822835D2*
X8875197D1*
X8843701Y5743701D2*
Y5822835D1*
X9693701Y5393701D2*
Y5293701D1*
X9662205Y5393701D2*
G02X9662205Y5393701I31496J0D01*
G01*
X1590551Y3849213D2*
Y3990945D1*
Y3849213D2*
X1539370Y3794094D1*
X1590551Y3990945D2*
X1531496Y4069685D1*
X1590551Y3990945D2*
X1409449D1*
X1544488Y4324016D2*
X1505906Y4278346D1*
X1544488Y6262598D2*
Y4324016D1*
X1539370Y3794094D2*
X1460630D1*
X1531496Y4069685D2*
X1468504D1*
X1531496Y4310236D2*
Y4069685D1*
X1505906Y4278346D2*
X642913D1*
X1468504Y4069685D2*
Y4278346D1*
X1460630Y3794094D2*
X1409449Y3849213D1*
X1590551D1*
X1409449Y3990945D2*
X1468504Y4069685D1*
X1409449Y3990945D2*
Y3849213D1*
X642913Y4278346D2*
Y6262598D1*
X1544488D1*
X1472047Y2071654D2*
D22*
Y2614961D1*
Y2071654D2*
X2015354D1*
X1641339Y2465354D2*
Y2591339D1*
Y2465354D2*
X1846063D1*
Y2591339D2*
X1641339D1*
X1846063Y2465354D2*
Y2591339D1*
X2015354Y2614961D2*
X1472047D1*
X2015354D2*
Y2071654D1*
X1448425Y2638583D2*
X2038976D1*
X1448425Y2048031D2*
Y2638583D1*
X2038976D2*
Y2048031D1*
X1448425D1*
X1399213Y2668110D2*
D19*
Y2018504D1*
X2088189D1*
Y2668110D1*
X1399213D1*
X1472047Y1321654D2*
D22*
Y1864961D1*
Y1321654D2*
X2015354D1*
X1641339Y1715354D2*
Y1841339D1*
Y1715354D2*
X1846063D1*
Y1841339D2*
X1641339D1*
X1846063Y1715354D2*
Y1841339D1*
X2015354Y1864961D2*
X1472047D1*
X2015354D2*
Y1321654D1*
X1448425Y1888583D2*
X2038976D1*
X1448425Y1298031D2*
Y1888583D1*
X2038976D2*
Y1298031D1*
X1448425D1*
X1399213Y1918110D2*
D19*
Y1268504D1*
X2088189D1*
Y1918110D1*
X1399213D1*
X5591339Y3943701D2*
X6296063D1*
Y4343701D1*
X5633071Y4018701D2*
X5593701Y4058071D1*
X6293701Y4018701D2*
X5633071D1*
X5593701Y4058071D2*
Y4268701D1*
X6293701D1*
Y4018701D1*
X5591339Y4343701D2*
Y3943701D1*
X6296063Y4343701D2*
X5591339D1*
X8772047Y571654D2*
D22*
Y1114961D1*
Y571654D2*
X9315354D1*
X8941339Y965354D2*
Y1091339D1*
Y965354D2*
X9146063D1*
Y1091339D2*
X8941339D1*
X9146063Y965354D2*
Y1091339D1*
X9315354Y1114961D2*
X8772047D1*
X9315354D2*
Y571654D1*
X8748425Y1138583D2*
X9338976D1*
X8748425Y548031D2*
Y1138583D1*
X9338976D2*
Y548031D1*
X8748425D1*
X8699213Y1168110D2*
D19*
Y518504D1*
X9388189D1*
Y1168110D1*
X8699213D1*
X9068701Y5293701D2*
X9043701Y5318701D1*
X9243701Y5293701D2*
X9068701D1*
X9043701Y5318701D2*
Y5393701D1*
X9243701D1*
Y5293701D1*
X3693701Y5946063D2*
Y4941339D1*
X4093701D1*
X3768701Y5904331D2*
X3808071Y5943701D1*
X3768701Y4943701D2*
Y5904331D1*
X3808071Y5943701D2*
X4018701D1*
Y4943701D1*
X3768701D1*
X4093701Y5946063D2*
X3693701D1*
X4093701Y4941339D2*
Y5946063D1*
X2222047Y2821654D2*
D22*
Y3364961D1*
Y2821654D2*
X2765354D1*
X2391339Y3215354D2*
Y3341339D1*
Y3215354D2*
X2596063D1*
Y3341339D2*
X2391339D1*
X2596063Y3215354D2*
Y3341339D1*
X2765354Y3364961D2*
X2222047D1*
X2765354D2*
Y2821654D1*
X2198425Y3388583D2*
X2788976D1*
X2198425Y2798031D2*
Y3388583D1*
X2788976D2*
Y2798031D1*
X2198425D1*
X2149213Y3418110D2*
D19*
Y2768504D1*
X2838189D1*
Y3418110D1*
X2149213D1*
X9874409Y4829134D2*
Y5459055D1*
X10378346Y4829134D2*
X9874409D1*
Y5459055D2*
X10378346D1*
Y4829134D1*
X2972047Y571654D2*
D22*
Y1114961D1*
Y571654D2*
X3515354D1*
X3141339Y965354D2*
Y1091339D1*
Y965354D2*
X3346063D1*
Y1091339D2*
X3141339D1*
X3346063Y965354D2*
Y1091339D1*
X3515354Y1114961D2*
X2972047D1*
X3515354D2*
Y571654D1*
X2948425Y1138583D2*
X3538976D1*
X2948425Y548031D2*
Y1138583D1*
X3538976D2*
Y548031D1*
X2948425D1*
X2899213Y1168110D2*
D19*
Y518504D1*
X3588189D1*
Y1168110D1*
X2899213D1*
X8843701Y5543701D2*
Y5464567D1*
X8875197D2*
X8812205D1*
Y5322835D1*
X8875197D2*
Y5464567D1*
X8812205Y5322835D2*
X8875197D1*
X8843701Y5243701D2*
Y5322835D1*
X6777953Y5193701D2*
Y5114567D1*
X6809449D2*
X6746457D1*
Y4972835D1*
X6809449D2*
Y5114567D1*
X6746457Y4972835D2*
X6809449D1*
X6777953Y4893701D2*
Y4972835D1*
X2075000Y5452756D2*
X2012008D1*
Y4934646D1*
X2075000D2*
Y5452756D1*
X2012008Y4934646D2*
X2075000D1*
X4472047Y571654D2*
D22*
Y1114961D1*
Y571654D2*
X5015354D1*
X4641339Y965354D2*
Y1091339D1*
Y965354D2*
X4846063D1*
Y1091339D2*
X4641339D1*
X4846063Y965354D2*
Y1091339D1*
X5015354Y1114961D2*
X4472047D1*
X5015354D2*
Y571654D1*
X4448425Y1138583D2*
X5038976D1*
X4448425Y548031D2*
Y1138583D1*
X5038976D2*
Y548031D1*
X4448425D1*
X4399213Y1168110D2*
D19*
Y518504D1*
X5088189D1*
Y1168110D1*
X4399213D1*
X2222047Y1321654D2*
D22*
Y1864961D1*
Y1321654D2*
X2765354D1*
X2391339Y1715354D2*
Y1841339D1*
Y1715354D2*
X2596063D1*
Y1841339D2*
X2391339D1*
X2596063Y1715354D2*
Y1841339D1*
X2765354Y1864961D2*
X2222047D1*
X2765354D2*
Y1321654D1*
X2198425Y1888583D2*
X2788976D1*
X2198425Y1298031D2*
Y1888583D1*
X2788976D2*
Y1298031D1*
X2198425D1*
X2149213Y1918110D2*
D19*
Y1268504D1*
X2838189D1*
Y1918110D1*
X2149213D1*
X8643701Y6393504D2*
X8593701Y6443504D1*
X9193701Y6393504D2*
X8643701D1*
X8593701Y6443504D2*
Y6593504D1*
X9193701D1*
Y6393504D1*
X8993701Y4693701D2*
X10607874D1*
X8993701Y3748819D2*
Y4693701D1*
X10371654Y4221260D2*
X10607874Y3985039D1*
Y4693701D2*
Y3748819D1*
Y4457480D2*
X10371654Y4221260D1*
X10607874Y3748819D2*
X8993701D1*
X8022047Y2821654D2*
D22*
Y3364961D1*
Y2821654D2*
X8565354D1*
X8191339Y3215354D2*
Y3341339D1*
Y3215354D2*
X8396063D1*
Y3341339D2*
X8191339D1*
X8396063Y3215354D2*
Y3341339D1*
X8565354Y3364961D2*
X8022047D1*
X8565354D2*
Y2821654D1*
X7998425Y3388583D2*
X8588976D1*
X7998425Y2798031D2*
Y3388583D1*
X8588976D2*
Y2798031D1*
X7998425D1*
X7949213Y3418110D2*
D19*
Y2768504D1*
X8638189D1*
Y3418110D1*
X7949213D1*
X9522047Y571654D2*
D22*
Y1114961D1*
Y571654D2*
X10065354D1*
X9691339Y965354D2*
Y1091339D1*
Y965354D2*
X9896063D1*
Y1091339D2*
X9691339D1*
X9896063Y965354D2*
Y1091339D1*
X10065354Y1114961D2*
X9522047D1*
X10065354D2*
Y571654D1*
X9498425Y1138583D2*
X10088976D1*
X9498425Y548031D2*
Y1138583D1*
X10088976D2*
Y548031D1*
X9498425D1*
X9449213Y1168110D2*
D19*
Y518504D1*
X10138189D1*
Y1168110D1*
X9449213D1*
X9933858Y6333071D2*
Y6254331D1*
X10051969D1*
Y6333071D2*
X9933858D1*
X10051969Y6254331D2*
Y6333071D1*
X722047Y1321654D2*
D22*
Y1864961D1*
Y1321654D2*
X1265354D1*
X891339Y1715354D2*
Y1841339D1*
Y1715354D2*
X1096063D1*
Y1841339D2*
X891339D1*
X1096063Y1715354D2*
Y1841339D1*
X1265354Y1864961D2*
X722047D1*
X1265354D2*
Y1321654D1*
X698425Y1888583D2*
X1288976D1*
X698425Y1298031D2*
Y1888583D1*
X1288976D2*
Y1298031D1*
X698425D1*
X649213Y1918110D2*
D19*
Y1268504D1*
X1338189D1*
Y1918110D1*
X649213D1*
X9796457Y6159449D2*
X9757087Y6120079D1*
X9796457Y6683071D2*
Y6159449D1*
X9442126Y6120079D2*
X9757087D1*
X9442126D2*
Y6683071D1*
X9796457D1*
X4472047Y2071654D2*
D22*
Y2614961D1*
Y2071654D2*
X5015354D1*
X4641339Y2465354D2*
Y2591339D1*
Y2465354D2*
X4846063D1*
Y2591339D2*
X4641339D1*
X4846063Y2465354D2*
Y2591339D1*
X5015354Y2614961D2*
X4472047D1*
X5015354D2*
Y2071654D1*
X4448425Y2638583D2*
X5038976D1*
X4448425Y2048031D2*
Y2638583D1*
X5038976D2*
Y2048031D1*
X4448425D1*
X4399213Y2668110D2*
D19*
Y2018504D1*
X5088189D1*
Y2668110D1*
X4399213D1*
X4525197Y4453543D2*
X4462205D1*
Y3935433D1*
X4525197D2*
Y4453543D1*
X4462205Y3935433D2*
X4525197D1*
X9896850Y6180512D2*
Y6007283D1*
Y6130512D2*
X10290551D1*
X9896850Y6007283D2*
X10290551D1*
X10020866Y6180512D2*
Y6130512D1*
X10166535Y6180512D2*
Y6130512D1*
X10290551Y6180512D2*
X9896850D1*
X10290551Y6007283D2*
Y6180512D1*
X5125197Y4453543D2*
X5062205D1*
Y3935433D1*
X5125197D2*
Y4453543D1*
X5062205Y3935433D2*
X5125197D1*
X6522047Y1321654D2*
D22*
Y1864961D1*
Y1321654D2*
X7065354D1*
X6691339Y1715354D2*
Y1841339D1*
Y1715354D2*
X6896063D1*
Y1841339D2*
X6691339D1*
X6896063Y1715354D2*
Y1841339D1*
X7065354Y1864961D2*
X6522047D1*
X7065354D2*
Y1321654D1*
X6498425Y1888583D2*
X7088976D1*
X6498425Y1298031D2*
Y1888583D1*
X7088976D2*
Y1298031D1*
X6498425D1*
X6449213Y1918110D2*
D19*
Y1268504D1*
X7138189D1*
Y1918110D1*
X6449213D1*
X4293307Y4545866D2*
Y3841142D1*
X4693307D1*
X4368307Y4504134D2*
X4407677Y4543504D1*
X4368307Y3843504D2*
Y4504134D1*
X4407677Y4543504D2*
X4618307D1*
Y3843504D1*
X4368307D1*
X4693307Y4545866D2*
X4293307D1*
X4693307Y3841142D2*
Y4545866D1*
X5483858Y1132677D2*
Y1053937D1*
X5601969D1*
Y1132677D2*
X5483858D1*
X5601969Y1053937D2*
Y1132677D1*
X6522047Y571654D2*
D22*
Y1114961D1*
Y571654D2*
X7065354D1*
X6691339Y965354D2*
Y1091339D1*
Y965354D2*
X6896063D1*
Y1091339D2*
X6691339D1*
X6896063Y965354D2*
Y1091339D1*
X7065354Y1114961D2*
X6522047D1*
X7065354D2*
Y571654D1*
X6498425Y1138583D2*
X7088976D1*
X6498425Y548031D2*
Y1138583D1*
X7088976D2*
Y548031D1*
X6498425D1*
X6449213Y1168110D2*
D19*
Y518504D1*
X7138189D1*
Y1168110D1*
X6449213D1*
X6713386Y4662598D2*
X6575591D1*
X6643701Y4496063D2*
G02X6643701Y4496063I0J0D01*
G01*
X6574660Y4662741D2*
G02X6574660Y4662741I0J0D01*
G01*
X9693701Y5043701D2*
Y4943701D1*
X9662205Y5043701D2*
G02X9662205Y5043701I31496J0D01*
G01*
X3925197Y5803543D2*
X3862205D1*
Y5285433D1*
X3925197D2*
Y5803543D1*
X3862205Y5285433D2*
X3925197D1*
X9068701Y5543701D2*
X9043701Y5568701D1*
X9243701Y5543701D2*
X9068701D1*
X9043701Y5568701D2*
Y5643701D1*
X9243701D1*
Y5543701D1*
X5772047Y571654D2*
D22*
Y1114961D1*
Y571654D2*
X6315354D1*
X5941339Y965354D2*
Y1091339D1*
Y965354D2*
X6146063D1*
Y1091339D2*
X5941339D1*
X6146063Y965354D2*
Y1091339D1*
X6315354Y1114961D2*
X5772047D1*
X6315354D2*
Y571654D1*
X5748425Y1138583D2*
X6338976D1*
X5748425Y548031D2*
Y1138583D1*
X6338976D2*
Y548031D1*
X5748425D1*
X5699213Y1168110D2*
D19*
Y518504D1*
X6388189D1*
Y1168110D1*
X5699213D1*
X7177953Y5193701D2*
Y5114567D1*
X7209449D2*
X7146457D1*
Y4972835D1*
X7209449D2*
Y5114567D1*
X7146457Y4972835D2*
X7209449D1*
X7177953Y4893701D2*
Y4972835D1*
X1843701Y6393701D2*
Y6243701D1*
X1993701Y6393701D1*
X1843701Y3993701D2*
X1993701Y3843701D1*
X1843701D2*
Y3993701D1*
X1993701Y6393701D2*
X1843701D1*
X1993701Y3843701D2*
X1843701D1*
X8793701Y6393701D2*
X8943701Y6243701D1*
X8793701Y3843701D2*
X8943701D1*
Y6393701D2*
X8793701D1*
X8943701Y6243701D2*
Y6393701D1*
Y3993701D2*
X8793701Y3843701D1*
X8943701D2*
Y3993701D1*
X1843701Y6393701D2*
Y3834646D1*
X8930315D1*
Y6393701D1*
X1843701D1*
X2532677Y6196850D2*
Y4031496D1*
X8241339D1*
Y6196850D1*
X2532677D1*
X8635039Y5921260D2*
Y4838583D1*
X8812205D1*
Y5921260D1*
X8635039D1*
X1824016Y6177165D2*
G02X1824016Y6177165I98425J0D01*
G01*
Y4051181D2*
G02X1824016Y4051181I98425J0D01*
G01*
X8753150Y6177165D2*
G02X8753150Y6177165I98425J0D01*
G01*
Y4051181D2*
G02X8753150Y4051181I98425J0D01*
G01*
X4894094Y5945866D2*
Y4941142D1*
X5294094D1*
X4969094Y5904134D2*
X5008465Y5943504D1*
X4969094Y4943504D2*
Y5904134D1*
X5008465Y5943504D2*
X5219094D1*
Y4943504D1*
X4969094D1*
X5294094Y5945866D2*
X4894094D1*
X5294094Y4941142D2*
Y5945866D1*
X722047Y2821654D2*
D22*
Y3364961D1*
Y2821654D2*
X1265354D1*
X891339Y3215354D2*
Y3341339D1*
Y3215354D2*
X1096063D1*
Y3341339D2*
X891339D1*
X1096063Y3215354D2*
Y3341339D1*
X1265354Y3364961D2*
X722047D1*
X1265354D2*
Y2821654D1*
X698425Y3388583D2*
X1288976D1*
X698425Y2798031D2*
Y3388583D1*
X1288976D2*
Y2798031D1*
X698425D1*
X649213Y3418110D2*
D19*
Y2768504D1*
X1338189D1*
Y3418110D1*
X649213D1*
X1768110Y3743701D2*
X1743110Y3768701D1*
X2543110Y3743701D2*
X1768110D1*
X1743110Y3768701D2*
Y3843701D1*
X2543110D1*
Y3743701D1*
X8022047Y2071654D2*
D22*
Y2614961D1*
Y2071654D2*
X8565354D1*
X8191339Y2465354D2*
Y2591339D1*
Y2465354D2*
X8396063D1*
Y2591339D2*
X8191339D1*
X8396063Y2465354D2*
Y2591339D1*
X8565354Y2614961D2*
X8022047D1*
X8565354D2*
Y2071654D1*
X7998425Y2638583D2*
X8588976D1*
X7998425Y2048031D2*
Y2638583D1*
X8588976D2*
Y2048031D1*
X7998425D1*
X7949213Y2668110D2*
D19*
Y2018504D1*
X8638189D1*
Y2668110D1*
X7949213D1*
X9968701Y5793701D2*
X9943701Y5818701D1*
X10143701Y5793701D2*
X9968701D1*
X9943701Y5818701D2*
Y5893701D1*
X10143701D1*
Y5793701D1*
X7272047Y571654D2*
D22*
Y1114961D1*
Y571654D2*
X7815354D1*
X7441339Y965354D2*
Y1091339D1*
Y965354D2*
X7646063D1*
Y1091339D2*
X7441339D1*
X7646063Y965354D2*
Y1091339D1*
X7815354Y1114961D2*
X7272047D1*
X7815354D2*
Y571654D1*
X7248425Y1138583D2*
X7838976D1*
X7248425Y548031D2*
Y1138583D1*
X7838976D2*
Y548031D1*
X7248425D1*
X7199213Y1168110D2*
D19*
Y518504D1*
X7888189D1*
Y1168110D1*
X7199213D1*
X7294094Y5895669D2*
Y5490945D1*
X7694094D1*
X7369094Y5853937D2*
X7408465Y5893307D1*
X7369094Y5493307D2*
Y5853937D1*
X7408465Y5893307D2*
X7619094D1*
Y5493307D1*
X7369094D1*
X7694094Y5895669D2*
X7294094D1*
X7694094Y5490945D2*
Y5895669D1*
X5772047Y2071654D2*
D22*
Y2614961D1*
Y2071654D2*
X6315354D1*
X5941339Y2465354D2*
Y2591339D1*
Y2465354D2*
X6146063D1*
Y2591339D2*
X5941339D1*
X6146063Y2465354D2*
Y2591339D1*
X6315354Y2614961D2*
X5772047D1*
X6315354D2*
Y2071654D1*
X5748425Y2638583D2*
X6338976D1*
X5748425Y2048031D2*
Y2638583D1*
X6338976D2*
Y2048031D1*
X5748425D1*
X5699213Y2668110D2*
D19*
Y2018504D1*
X6388189D1*
Y2668110D1*
X5699213D1*
X8112205Y5384646D2*
X8175197D1*
Y5902756D1*
X8112205D2*
Y5384646D1*
X8175197Y5902756D2*
X8112205D1*
X4893307Y4545866D2*
Y3741142D1*
X5293307D1*
X4968307Y4504134D2*
X5007677Y4543504D1*
X4968307Y3743504D2*
Y4504134D1*
X5007677Y4543504D2*
X5218307D1*
Y3743504D1*
X4968307D1*
X5293307Y4545866D2*
X4893307D1*
X5293307Y3741142D2*
Y4545866D1*
X6568701Y6493701D2*
X6543701Y6518701D1*
X6943701Y6493701D2*
X6568701D1*
X6543701Y6518701D2*
Y6593701D1*
X6943701D1*
Y6493701D1*
X3722047Y2821654D2*
D22*
Y3364961D1*
Y2821654D2*
X4265354D1*
X3891339Y3215354D2*
Y3341339D1*
Y3215354D2*
X4096063D1*
Y3341339D2*
X3891339D1*
X4096063Y3215354D2*
Y3341339D1*
X4265354Y3364961D2*
X3722047D1*
X4265354D2*
Y2821654D1*
X3698425Y3388583D2*
X4288976D1*
X3698425Y2798031D2*
Y3388583D1*
X4288976D2*
Y2798031D1*
X3698425D1*
X3649213Y3418110D2*
D19*
Y2768504D1*
X4338189D1*
Y3418110D1*
X3649213D1*
X5125197Y5803543D2*
X5062205D1*
Y5285433D1*
X5125197D2*
Y5803543D1*
X5062205Y5285433D2*
X5125197D1*
X9968701Y5543701D2*
X9943701Y5568701D1*
X10143701Y5543701D2*
X9968701D1*
X9943701Y5568701D2*
Y5643701D1*
X10143701D1*
Y5543701D1*
X834646Y6475591D2*
Y6412598D1*
X1352756D1*
Y6475591D2*
X834646D1*
X1352756Y6412598D2*
Y6475591D1*
X2222047Y2071654D2*
D22*
Y2614961D1*
Y2071654D2*
X2765354D1*
X2391339Y2465354D2*
Y2591339D1*
Y2465354D2*
X2596063D1*
Y2591339D2*
X2391339D1*
X2596063Y2465354D2*
Y2591339D1*
X2765354Y2614961D2*
X2222047D1*
X2765354D2*
Y2071654D1*
X2198425Y2638583D2*
X2788976D1*
X2198425Y2048031D2*
Y2638583D1*
X2788976D2*
Y2048031D1*
X2198425D1*
X2149213Y2668110D2*
D19*
Y2018504D1*
X2838189D1*
Y2668110D1*
X2149213D1*
X2222047Y571654D2*
D22*
Y1114961D1*
Y571654D2*
X2765354D1*
X2391339Y965354D2*
Y1091339D1*
Y965354D2*
X2596063D1*
Y1091339D2*
X2391339D1*
X2596063Y965354D2*
Y1091339D1*
X2765354Y1114961D2*
X2222047D1*
X2765354D2*
Y571654D1*
X2198425Y1138583D2*
X2788976D1*
X2198425Y548031D2*
Y1138583D1*
X2788976D2*
Y548031D1*
X2198425D1*
X2149213Y1168110D2*
D19*
Y518504D1*
X2838189D1*
Y1168110D1*
X2149213D1*
X5493701Y1343307D2*
X5593701D1*
X5462205D2*
G02X5462205Y1343307I31496J0D01*
G01*
X4588583Y6631299D2*
X4398425D1*
Y6256102D1*
X4405709Y6306102D2*
X4491102Y6306063D1*
X4405709Y6306102D2*
X4491102Y6306063D1*
X4588583Y6256102D2*
Y6631299D1*
X4398425Y6256102D2*
X4588583D1*
X4405315Y6306102D2*
G02X4405315Y6306102I43110J0D01*
G01*
X5768701Y3643701D2*
X5743701Y3668701D1*
X6143701Y3643701D2*
X5768701D1*
X5743701Y3668701D2*
Y3743701D1*
X6143701D1*
Y3643701D1*
X9522047Y1321654D2*
D22*
Y1864961D1*
Y1321654D2*
X10065354D1*
X9691339Y1715354D2*
Y1841339D1*
Y1715354D2*
X9896063D1*
Y1841339D2*
X9691339D1*
X9896063Y1715354D2*
Y1841339D1*
X10065354Y1864961D2*
X9522047D1*
X10065354D2*
Y1321654D1*
X9498425Y1888583D2*
X10088976D1*
X9498425Y1298031D2*
Y1888583D1*
X10088976D2*
Y1298031D1*
X9498425D1*
X9449213Y1918110D2*
D19*
Y1268504D1*
X10138189D1*
Y1918110D1*
X9449213D1*
X7593701Y6293701D2*
X7514567D1*
Y6262205D2*
Y6325197D1*
X7372835D1*
Y6262205D2*
X7514567D1*
X7372835Y6325197D2*
Y6262205D1*
X7293701Y6293701D2*
X7372835D1*
X7052756Y5782283D2*
Y5526378D1*
X7133858D1*
X7055906Y5821654D2*
Y5861024D1*
X7079528Y5782283D2*
X7055906Y5821654D1*
X7107087Y5782283D2*
X7130709Y5821654D1*
Y5861024D1*
X7133858Y5782283D2*
X7052756D1*
X7133858Y5526378D2*
Y5782283D1*
X7946063Y4343701D2*
X6541339D1*
Y3643701D1*
X7904331Y4283661D2*
X7943701Y4244291D1*
X6543701Y4283661D2*
X7904331D1*
X7943701Y4244291D2*
Y3703740D1*
X6543701D1*
Y4283661D1*
X7946063Y3643701D2*
Y4343701D1*
X6541339Y3643701D2*
X7946063D1*
X7520472Y5016535D2*
X7296063D1*
X7520472D2*
X7559843Y4977165D1*
X7296063Y5016535D2*
Y4870866D1*
X7559843Y4977165D2*
Y4870866D1*
X7296063D1*
X1742913Y4142913D2*
Y4044488D1*
X2344488D1*
X1843701Y4142913D2*
Y4044488D1*
X2344488Y4142913D2*
X1742913D1*
X2344488Y4044488D2*
Y4142913D1*
X5183858Y1132677D2*
Y1053937D1*
X5301969D1*
Y1132677D2*
X5183858D1*
X5301969Y1053937D2*
Y1132677D1*
X10133858Y6333071D2*
Y6254331D1*
X10251969D1*
Y6333071D2*
X10133858D1*
X10251969Y6254331D2*
Y6333071D1*
X9522047Y2821654D2*
D22*
Y3364961D1*
Y2821654D2*
X10065354D1*
X9691339Y3215354D2*
Y3341339D1*
Y3215354D2*
X9896063D1*
Y3341339D2*
X9691339D1*
X9896063Y3215354D2*
Y3341339D1*
X10065354Y3364961D2*
X9522047D1*
X10065354D2*
Y2821654D1*
X9498425Y3388583D2*
X10088976D1*
X9498425Y2798031D2*
Y3388583D1*
X10088976D2*
Y2798031D1*
X9498425D1*
X9449213Y3418110D2*
D19*
Y2768504D1*
X10138189D1*
Y3418110D1*
X9449213D1*
X4525197Y5803543D2*
X4462205D1*
Y5285433D1*
X4525197D2*
Y5803543D1*
X4462205Y5285433D2*
X4525197D1*
X722047Y2071654D2*
D22*
Y2614961D1*
Y2071654D2*
X1265354D1*
X891339Y2465354D2*
Y2591339D1*
Y2465354D2*
X1096063D1*
Y2591339D2*
X891339D1*
X1096063Y2465354D2*
Y2591339D1*
X1265354Y2614961D2*
X722047D1*
X1265354D2*
Y2071654D1*
X698425Y2638583D2*
X1288976D1*
X698425Y2048031D2*
Y2638583D1*
X1288976D2*
Y2048031D1*
X698425D1*
X649213Y2668110D2*
D19*
Y2018504D1*
X1338189D1*
Y2668110D1*
X649213D1*
X722047Y571654D2*
D22*
Y1114961D1*
Y571654D2*
X1265354D1*
X891339Y965354D2*
Y1091339D1*
Y965354D2*
X1096063D1*
Y1091339D2*
X891339D1*
X1096063Y965354D2*
Y1091339D1*
X1265354Y1114961D2*
X722047D1*
X1265354D2*
Y571654D1*
X698425Y1138583D2*
X1288976D1*
X698425Y548031D2*
Y1138583D1*
X1288976D2*
Y548031D1*
X698425D1*
X649213Y1168110D2*
D19*
Y518504D1*
X1338189D1*
Y1168110D1*
X649213D1*
X2962008Y5233858D2*
X3025000D1*
Y5751969D1*
X2962008D2*
Y5233858D1*
X3025000Y5751969D2*
X2962008D1*
X9068701Y5793701D2*
X9043701Y5818701D1*
X9243701Y5793701D2*
X9068701D1*
X9043701Y5818701D2*
Y5893701D1*
X9243701D1*
Y5793701D1*
X6522047Y2071654D2*
D22*
Y2614961D1*
Y2071654D2*
X7065354D1*
X6691339Y2465354D2*
Y2591339D1*
Y2465354D2*
X6896063D1*
Y2591339D2*
X6691339D1*
X6896063Y2465354D2*
Y2591339D1*
X7065354Y2614961D2*
X6522047D1*
X7065354D2*
Y2071654D1*
X6498425Y2638583D2*
X7088976D1*
X6498425Y2048031D2*
Y2638583D1*
X7088976D2*
Y2048031D1*
X6498425D1*
X6449213Y2668110D2*
D19*
Y2018504D1*
X7138189D1*
Y2668110D1*
X6449213D1*
M02*
